M48
;DRILL file {KiCad (5.0.2)-1} date 27/03/2019 22:15:29
;FORMAT={-:-/ absolute / inch / decimal}
FMAT,2
INCH,TZ
T1C0.0394
T2C0.0433
%
G90
G05
T1
X6.122Y-5.2165
X6.222Y-5.2165
X5.2165Y-2.9724
X5.3165Y-2.9724
X5.4165Y-2.9724
X5.5165Y-2.9724
X5.6165Y-2.9724
X5.7165Y-2.9724
X4.5079Y-4.1929
X4.6079Y-4.1929
X4.7079Y-4.1929
X4.8079Y-4.1929
X4.9079Y-4.1929
X5.0079Y-4.1929
X5.9646Y-3.3661
X6.0646Y-3.3661
X6.1646Y-3.3661
X6.2646Y-3.3661
X6.3646Y-3.3661
X6.4646Y-3.3661
X6.6732Y-3.9567
X6.7732Y-3.9567
X6.8732Y-3.9567
X6.9732Y-3.9567
X7.0732Y-3.9567
X7.1732Y-3.9567
X6.5551Y-5.2165
X6.6551Y-5.2165
X6.7551Y-5.2165
X4.4685Y-3.2874
X4.5685Y-3.2874
X4.6685Y-3.2874
X4.7685Y-3.2874
X4.8685Y-3.2874
X4.9685Y-3.2874
T2
X5.3028Y-1.985
X5.3028Y-2.085
X5.3028Y-2.185
X5.3028Y-2.285
X5.3028Y-2.385
X5.6028Y-1.985
X5.6028Y-2.085
X5.6028Y-2.185
X5.6028Y-2.285
X5.6028Y-2.385
X6.8185Y-2.9693
X6.8185Y-3.0693
X6.8185Y-3.1693
X6.8185Y-3.2693
X6.8185Y-3.3693
X7.1185Y-2.9693
X7.1185Y-3.0693
X7.1185Y-3.1693
X7.1185Y-3.2693
X7.1185Y-3.3693
X5.2276Y-3.9406
X5.2276Y-4.0406
X5.2276Y-4.1406
X5.2276Y-4.2406
X5.2276Y-4.3406
X5.2276Y-4.4406
X5.2276Y-4.5406
X5.2276Y-4.6406
X5.2276Y-4.7406
X5.2276Y-4.8406
X5.2276Y-4.9406
X5.2276Y-5.0406
X5.2276Y-5.1406
X5.2276Y-5.2406
X5.8276Y-3.9406
X5.8276Y-4.0406
X5.8276Y-4.1406
X5.8276Y-4.2406
X5.8276Y-4.3406
X5.8276Y-4.4406
X5.8276Y-4.5406
X5.8276Y-4.6406
X5.8276Y-4.7406
X5.8276Y-4.8406
X5.8276Y-4.9406
X5.8276Y-5.0406
X5.8276Y-5.1406
X5.8276Y-5.2406
X6.0508Y-2.3787
X6.0508Y-2.4787
X6.0508Y-2.5787
X6.0508Y-2.6787
X6.0508Y-2.7787
X6.3508Y-2.3787
X6.3508Y-2.4787
X6.3508Y-2.5787
X6.3508Y-2.6787
X6.3508Y-2.7787
X4.5154Y-2.3
X4.5154Y-2.4
X4.5154Y-2.5
X4.5154Y-2.6
X4.5154Y-2.7
X4.8154Y-2.3
X4.8154Y-2.4
X4.8154Y-2.5
X4.8154Y-2.6
X4.8154Y-2.7
X4.7122Y-4.6622
X4.7122Y-4.7622
X4.7122Y-4.8622
X4.7122Y-4.9622
X4.7122Y-5.0622
X5.0122Y-4.6622
X5.0122Y-4.7622
X5.0122Y-4.8622
X5.0122Y-4.9622
X5.0122Y-5.0622
T0
M30
