G04 #@! TF.GenerationSoftware,KiCad,Pcbnew,(5.0.2)-1*
G04 #@! TF.CreationDate,2019-03-27T22:14:58+01:00*
G04 #@! TF.ProjectId,DorsalTPMG90,446f7273-616c-4545-904d-4739302e6b69,v01*
G04 #@! TF.SameCoordinates,Original*
G04 #@! TF.FileFunction,Legend,Top*
G04 #@! TF.FilePolarity,Positive*
%FSLAX46Y46*%
G04 Gerber Fmt 4.6, Leading zero omitted, Abs format (unit mm)*
G04 Created by KiCad (PCBNEW (5.0.2)-1) date 27/03/2019 22:14:58*
%MOMM*%
%LPD*%
G01*
G04 APERTURE LIST*
%ADD10C,0.300000*%
%ADD11C,0.100000*%
%ADD12C,0.200000*%
%ADD13C,0.250000*%
%ADD14C,0.160000*%
%ADD15C,0.150000*%
%ADD16C,0.120000*%
%ADD17C,0.010000*%
G04 APERTURE END LIST*
D10*
X153844122Y-121384451D02*
X153344122Y-120670165D01*
X152986980Y-121384451D02*
X152986980Y-119884451D01*
X153558408Y-119884451D01*
X153701265Y-119955880D01*
X153772694Y-120027308D01*
X153844122Y-120170165D01*
X153844122Y-120384451D01*
X153772694Y-120527308D01*
X153701265Y-120598737D01*
X153558408Y-120670165D01*
X152986980Y-120670165D01*
X154701265Y-121384451D02*
X154558408Y-121313022D01*
X154486980Y-121241594D01*
X154415551Y-121098737D01*
X154415551Y-120670165D01*
X154486980Y-120527308D01*
X154558408Y-120455880D01*
X154701265Y-120384451D01*
X154915551Y-120384451D01*
X155058408Y-120455880D01*
X155129837Y-120527308D01*
X155201265Y-120670165D01*
X155201265Y-121098737D01*
X155129837Y-121241594D01*
X155058408Y-121313022D01*
X154915551Y-121384451D01*
X154701265Y-121384451D01*
X155844122Y-121384451D02*
X155844122Y-119884451D01*
X155844122Y-120455880D02*
X155986980Y-120384451D01*
X156272694Y-120384451D01*
X156415551Y-120455880D01*
X156486980Y-120527308D01*
X156558408Y-120670165D01*
X156558408Y-121098737D01*
X156486980Y-121241594D01*
X156415551Y-121313022D01*
X156272694Y-121384451D01*
X155986980Y-121384451D01*
X155844122Y-121313022D01*
X157415551Y-121384451D02*
X157272694Y-121313022D01*
X157201265Y-121241594D01*
X157129837Y-121098737D01*
X157129837Y-120670165D01*
X157201265Y-120527308D01*
X157272694Y-120455880D01*
X157415551Y-120384451D01*
X157629837Y-120384451D01*
X157772694Y-120455880D01*
X157844122Y-120527308D01*
X157915551Y-120670165D01*
X157915551Y-121098737D01*
X157844122Y-121241594D01*
X157772694Y-121313022D01*
X157629837Y-121384451D01*
X157415551Y-121384451D01*
X158344122Y-120384451D02*
X158915551Y-120384451D01*
X158558408Y-119884451D02*
X158558408Y-121170165D01*
X158629837Y-121313022D01*
X158772694Y-121384451D01*
X158915551Y-121384451D01*
X159415551Y-121384451D02*
X159415551Y-120384451D01*
X159415551Y-119884451D02*
X159344122Y-119955880D01*
X159415551Y-120027308D01*
X159486980Y-119955880D01*
X159415551Y-119884451D01*
X159415551Y-120027308D01*
X160772694Y-121313022D02*
X160629837Y-121384451D01*
X160344122Y-121384451D01*
X160201265Y-121313022D01*
X160129837Y-121241594D01*
X160058408Y-121098737D01*
X160058408Y-120670165D01*
X160129837Y-120527308D01*
X160201265Y-120455880D01*
X160344122Y-120384451D01*
X160629837Y-120384451D01*
X160772694Y-120455880D01*
X161344122Y-121313022D02*
X161486980Y-121384451D01*
X161772694Y-121384451D01*
X161915551Y-121313022D01*
X161986980Y-121170165D01*
X161986980Y-121098737D01*
X161915551Y-120955880D01*
X161772694Y-120884451D01*
X161558408Y-120884451D01*
X161415551Y-120813022D01*
X161344122Y-120670165D01*
X161344122Y-120598737D01*
X161415551Y-120455880D01*
X161558408Y-120384451D01*
X161772694Y-120384451D01*
X161915551Y-120455880D01*
X164486980Y-121384451D02*
X163772694Y-121384451D01*
X163772694Y-119884451D01*
X165629837Y-121384451D02*
X165629837Y-120598737D01*
X165558408Y-120455880D01*
X165415551Y-120384451D01*
X165129837Y-120384451D01*
X164986980Y-120455880D01*
X165629837Y-121313022D02*
X165486980Y-121384451D01*
X165129837Y-121384451D01*
X164986980Y-121313022D01*
X164915551Y-121170165D01*
X164915551Y-121027308D01*
X164986980Y-120884451D01*
X165129837Y-120813022D01*
X165486980Y-120813022D01*
X165629837Y-120741594D01*
X166344122Y-121384451D02*
X166344122Y-119884451D01*
X166344122Y-120455880D02*
X166486980Y-120384451D01*
X166772694Y-120384451D01*
X166915551Y-120455880D01*
X166986980Y-120527308D01*
X167058408Y-120670165D01*
X167058408Y-121098737D01*
X166986980Y-121241594D01*
X166915551Y-121313022D01*
X166772694Y-121384451D01*
X166486980Y-121384451D01*
X166344122Y-121313022D01*
D11*
X181533876Y-97486520D02*
X181457685Y-97448424D01*
X181343400Y-97448424D01*
X181229114Y-97486520D01*
X181152923Y-97562710D01*
X181114828Y-97638900D01*
X181076733Y-97791281D01*
X181076733Y-97905567D01*
X181114828Y-98057948D01*
X181152923Y-98134139D01*
X181229114Y-98210329D01*
X181343400Y-98248424D01*
X181419590Y-98248424D01*
X181533876Y-98210329D01*
X181571971Y-98172234D01*
X181571971Y-97905567D01*
X181419590Y-97905567D01*
X181914828Y-98248424D02*
X181914828Y-97448424D01*
X182371971Y-98248424D01*
X182371971Y-97448424D01*
X182752923Y-98248424D02*
X182752923Y-97448424D01*
X182943400Y-97448424D01*
X183057685Y-97486520D01*
X183133876Y-97562710D01*
X183171971Y-97638900D01*
X183210066Y-97791281D01*
X183210066Y-97905567D01*
X183171971Y-98057948D01*
X183133876Y-98134139D01*
X183057685Y-98210329D01*
X182943400Y-98248424D01*
X182752923Y-98248424D01*
X163629416Y-82409080D02*
X163553225Y-82370984D01*
X163438940Y-82370984D01*
X163324654Y-82409080D01*
X163248463Y-82485270D01*
X163210368Y-82561460D01*
X163172273Y-82713841D01*
X163172273Y-82828127D01*
X163210368Y-82980508D01*
X163248463Y-83056699D01*
X163324654Y-83132889D01*
X163438940Y-83170984D01*
X163515130Y-83170984D01*
X163629416Y-83132889D01*
X163667511Y-83094794D01*
X163667511Y-82828127D01*
X163515130Y-82828127D01*
X164010368Y-83170984D02*
X164010368Y-82370984D01*
X164467511Y-83170984D01*
X164467511Y-82370984D01*
X164848463Y-83170984D02*
X164848463Y-82370984D01*
X165038940Y-82370984D01*
X165153225Y-82409080D01*
X165229416Y-82485270D01*
X165267511Y-82561460D01*
X165305606Y-82713841D01*
X165305606Y-82828127D01*
X165267511Y-82980508D01*
X165229416Y-83056699D01*
X165153225Y-83132889D01*
X165038940Y-83170984D01*
X164848463Y-83170984D01*
X144597196Y-72442120D02*
X144521005Y-72404024D01*
X144406720Y-72404024D01*
X144292434Y-72442120D01*
X144216243Y-72518310D01*
X144178148Y-72594500D01*
X144140053Y-72746881D01*
X144140053Y-72861167D01*
X144178148Y-73013548D01*
X144216243Y-73089739D01*
X144292434Y-73165929D01*
X144406720Y-73204024D01*
X144482910Y-73204024D01*
X144597196Y-73165929D01*
X144635291Y-73127834D01*
X144635291Y-72861167D01*
X144482910Y-72861167D01*
X144978148Y-73204024D02*
X144978148Y-72404024D01*
X145435291Y-73204024D01*
X145435291Y-72404024D01*
X145816243Y-73204024D02*
X145816243Y-72404024D01*
X146006720Y-72404024D01*
X146121005Y-72442120D01*
X146197196Y-72518310D01*
X146235291Y-72594500D01*
X146273386Y-72746881D01*
X146273386Y-72861167D01*
X146235291Y-73013548D01*
X146197196Y-73089739D01*
X146121005Y-73165929D01*
X146006720Y-73204024D01*
X145816243Y-73204024D01*
X125552276Y-80405020D02*
X125476085Y-80366924D01*
X125361800Y-80366924D01*
X125247514Y-80405020D01*
X125171323Y-80481210D01*
X125133228Y-80557400D01*
X125095133Y-80709781D01*
X125095133Y-80824067D01*
X125133228Y-80976448D01*
X125171323Y-81052639D01*
X125247514Y-81128829D01*
X125361800Y-81166924D01*
X125437990Y-81166924D01*
X125552276Y-81128829D01*
X125590371Y-81090734D01*
X125590371Y-80824067D01*
X125437990Y-80824067D01*
X125933228Y-81166924D02*
X125933228Y-80366924D01*
X126390371Y-81166924D01*
X126390371Y-80366924D01*
X126771323Y-81166924D02*
X126771323Y-80366924D01*
X126961800Y-80366924D01*
X127076085Y-80405020D01*
X127152276Y-80481210D01*
X127190371Y-80557400D01*
X127228466Y-80709781D01*
X127228466Y-80824067D01*
X127190371Y-80976448D01*
X127152276Y-81052639D01*
X127076085Y-81128829D01*
X126961800Y-81166924D01*
X126771323Y-81166924D01*
X126751156Y-103353920D02*
X126674965Y-103315824D01*
X126560680Y-103315824D01*
X126446394Y-103353920D01*
X126370203Y-103430110D01*
X126332108Y-103506300D01*
X126294013Y-103658681D01*
X126294013Y-103772967D01*
X126332108Y-103925348D01*
X126370203Y-104001539D01*
X126446394Y-104077729D01*
X126560680Y-104115824D01*
X126636870Y-104115824D01*
X126751156Y-104077729D01*
X126789251Y-104039634D01*
X126789251Y-103772967D01*
X126636870Y-103772967D01*
X127132108Y-104115824D02*
X127132108Y-103315824D01*
X127589251Y-104115824D01*
X127589251Y-103315824D01*
X127970203Y-104115824D02*
X127970203Y-103315824D01*
X128160680Y-103315824D01*
X128274965Y-103353920D01*
X128351156Y-103430110D01*
X128389251Y-103506300D01*
X128427346Y-103658681D01*
X128427346Y-103772967D01*
X128389251Y-103925348D01*
X128351156Y-104001539D01*
X128274965Y-104077729D01*
X128160680Y-104115824D01*
X127970203Y-104115824D01*
X171236716Y-129264460D02*
X171160525Y-129226364D01*
X171046240Y-129226364D01*
X170931954Y-129264460D01*
X170855763Y-129340650D01*
X170817668Y-129416840D01*
X170779573Y-129569221D01*
X170779573Y-129683507D01*
X170817668Y-129835888D01*
X170855763Y-129912079D01*
X170931954Y-129988269D01*
X171046240Y-130026364D01*
X171122430Y-130026364D01*
X171236716Y-129988269D01*
X171274811Y-129950174D01*
X171274811Y-129683507D01*
X171122430Y-129683507D01*
X171617668Y-130026364D02*
X171617668Y-129226364D01*
X172074811Y-130026364D01*
X172074811Y-129226364D01*
X172455763Y-130026364D02*
X172455763Y-129226364D01*
X172646240Y-129226364D01*
X172760525Y-129264460D01*
X172836716Y-129340650D01*
X172874811Y-129416840D01*
X172912906Y-129569221D01*
X172912906Y-129683507D01*
X172874811Y-129835888D01*
X172836716Y-129912079D01*
X172760525Y-129988269D01*
X172646240Y-130026364D01*
X172455763Y-130026364D01*
X157734076Y-129360980D02*
X157657885Y-129322884D01*
X157543600Y-129322884D01*
X157429314Y-129360980D01*
X157353123Y-129437170D01*
X157315028Y-129513360D01*
X157276933Y-129665741D01*
X157276933Y-129780027D01*
X157315028Y-129932408D01*
X157353123Y-130008599D01*
X157429314Y-130084789D01*
X157543600Y-130122884D01*
X157619790Y-130122884D01*
X157734076Y-130084789D01*
X157772171Y-130046694D01*
X157772171Y-129780027D01*
X157619790Y-129780027D01*
X158115028Y-130122884D02*
X158115028Y-129322884D01*
X158572171Y-130122884D01*
X158572171Y-129322884D01*
X158953123Y-130122884D02*
X158953123Y-129322884D01*
X159143600Y-129322884D01*
X159257885Y-129360980D01*
X159334076Y-129437170D01*
X159372171Y-129513360D01*
X159410266Y-129665741D01*
X159410266Y-129780027D01*
X159372171Y-129932408D01*
X159334076Y-130008599D01*
X159257885Y-130084789D01*
X159143600Y-130122884D01*
X158953123Y-130122884D01*
D12*
X169809636Y-97578871D02*
X170142969Y-97578871D01*
X170285826Y-98102680D02*
X169809636Y-98102680D01*
X169809636Y-97102680D01*
X170285826Y-97102680D01*
X170714398Y-98102680D02*
X170714398Y-97102680D01*
X171285826Y-98102680D01*
X171285826Y-97102680D01*
X172333445Y-98007442D02*
X172285826Y-98055061D01*
X172142969Y-98102680D01*
X172047731Y-98102680D01*
X171904874Y-98055061D01*
X171809636Y-97959823D01*
X171762017Y-97864585D01*
X171714398Y-97674109D01*
X171714398Y-97531252D01*
X171762017Y-97340776D01*
X171809636Y-97245538D01*
X171904874Y-97150300D01*
X172047731Y-97102680D01*
X172142969Y-97102680D01*
X172285826Y-97150300D01*
X172333445Y-97197919D01*
X172523921Y-98197919D02*
X173285826Y-98197919D01*
X173523921Y-98102680D02*
X173523921Y-97102680D01*
X173904874Y-97102680D01*
X174000112Y-97150300D01*
X174047731Y-97197919D01*
X174095350Y-97293157D01*
X174095350Y-97436014D01*
X174047731Y-97531252D01*
X174000112Y-97578871D01*
X173904874Y-97626490D01*
X173523921Y-97626490D01*
X174523921Y-98102680D02*
X174523921Y-97102680D01*
X175000112Y-98102680D02*
X175000112Y-97102680D01*
X175571540Y-98102680D01*
X175571540Y-97102680D01*
X176047731Y-98102680D02*
X176047731Y-97102680D01*
X176619160Y-98102680D02*
X176190588Y-97531252D01*
X176619160Y-97102680D02*
X176047731Y-97674109D01*
X177238207Y-97626490D02*
X177238207Y-98102680D01*
X176904874Y-97102680D02*
X177238207Y-97626490D01*
X177571540Y-97102680D01*
X152006087Y-82610651D02*
X152339420Y-82610651D01*
X152482278Y-83134460D02*
X152006087Y-83134460D01*
X152006087Y-82134460D01*
X152482278Y-82134460D01*
X152910849Y-83134460D02*
X152910849Y-82134460D01*
X153482278Y-83134460D01*
X153482278Y-82134460D01*
X154529897Y-83039222D02*
X154482278Y-83086841D01*
X154339420Y-83134460D01*
X154244182Y-83134460D01*
X154101325Y-83086841D01*
X154006087Y-82991603D01*
X153958468Y-82896365D01*
X153910849Y-82705889D01*
X153910849Y-82563032D01*
X153958468Y-82372556D01*
X154006087Y-82277318D01*
X154101325Y-82182080D01*
X154244182Y-82134460D01*
X154339420Y-82134460D01*
X154482278Y-82182080D01*
X154529897Y-82229699D01*
X154720373Y-83229699D02*
X155482278Y-83229699D01*
X156291801Y-83134460D02*
X155958468Y-82658270D01*
X155720373Y-83134460D02*
X155720373Y-82134460D01*
X156101325Y-82134460D01*
X156196563Y-82182080D01*
X156244182Y-82229699D01*
X156291801Y-82324937D01*
X156291801Y-82467794D01*
X156244182Y-82563032D01*
X156196563Y-82610651D01*
X156101325Y-82658270D01*
X155720373Y-82658270D01*
X156720373Y-83134460D02*
X156720373Y-82134460D01*
X157196563Y-83134460D02*
X157196563Y-82134460D01*
X157767992Y-83134460D01*
X157767992Y-82134460D01*
X158767992Y-82182080D02*
X158672754Y-82134460D01*
X158529897Y-82134460D01*
X158387040Y-82182080D01*
X158291801Y-82277318D01*
X158244182Y-82372556D01*
X158196563Y-82563032D01*
X158196563Y-82705889D01*
X158244182Y-82896365D01*
X158291801Y-82991603D01*
X158387040Y-83086841D01*
X158529897Y-83134460D01*
X158625135Y-83134460D01*
X158767992Y-83086841D01*
X158815611Y-83039222D01*
X158815611Y-82705889D01*
X158625135Y-82705889D01*
X132932705Y-72661471D02*
X133266039Y-72661471D01*
X133408896Y-73185280D02*
X132932705Y-73185280D01*
X132932705Y-72185280D01*
X133408896Y-72185280D01*
X133837467Y-73185280D02*
X133837467Y-72185280D01*
X134408896Y-73185280D01*
X134408896Y-72185280D01*
X135456515Y-73090042D02*
X135408896Y-73137661D01*
X135266039Y-73185280D01*
X135170800Y-73185280D01*
X135027943Y-73137661D01*
X134932705Y-73042423D01*
X134885086Y-72947185D01*
X134837467Y-72756709D01*
X134837467Y-72613852D01*
X134885086Y-72423376D01*
X134932705Y-72328138D01*
X135027943Y-72232900D01*
X135170800Y-72185280D01*
X135266039Y-72185280D01*
X135408896Y-72232900D01*
X135456515Y-72280519D01*
X135646991Y-73280519D02*
X136408896Y-73280519D01*
X136646991Y-73185280D02*
X136646991Y-72185280D01*
X136980324Y-72899566D01*
X137313658Y-72185280D01*
X137313658Y-73185280D01*
X137789848Y-73185280D02*
X137789848Y-72185280D01*
X138266039Y-73185280D02*
X138266039Y-72185280D01*
X138504134Y-72185280D01*
X138646991Y-72232900D01*
X138742229Y-72328138D01*
X138789848Y-72423376D01*
X138837467Y-72613852D01*
X138837467Y-72756709D01*
X138789848Y-72947185D01*
X138742229Y-73042423D01*
X138646991Y-73137661D01*
X138504134Y-73185280D01*
X138266039Y-73185280D01*
X139266039Y-73185280D02*
X139266039Y-72185280D01*
X139504134Y-72185280D01*
X139646991Y-72232900D01*
X139742229Y-72328138D01*
X139789848Y-72423376D01*
X139837467Y-72613852D01*
X139837467Y-72756709D01*
X139789848Y-72947185D01*
X139742229Y-73042423D01*
X139646991Y-73137661D01*
X139504134Y-73185280D01*
X139266039Y-73185280D01*
X140742229Y-73185280D02*
X140266039Y-73185280D01*
X140266039Y-72185280D01*
X141075562Y-72661471D02*
X141408896Y-72661471D01*
X141551753Y-73185280D02*
X141075562Y-73185280D01*
X141075562Y-72185280D01*
X141551753Y-72185280D01*
X114882492Y-103499611D02*
X115215825Y-103499611D01*
X115358682Y-104023420D02*
X114882492Y-104023420D01*
X114882492Y-103023420D01*
X115358682Y-103023420D01*
X115787254Y-104023420D02*
X115787254Y-103023420D01*
X116358682Y-104023420D01*
X116358682Y-103023420D01*
X117406301Y-103928182D02*
X117358682Y-103975801D01*
X117215825Y-104023420D01*
X117120587Y-104023420D01*
X116977730Y-103975801D01*
X116882492Y-103880563D01*
X116834873Y-103785325D01*
X116787254Y-103594849D01*
X116787254Y-103451992D01*
X116834873Y-103261516D01*
X116882492Y-103166278D01*
X116977730Y-103071040D01*
X117120587Y-103023420D01*
X117215825Y-103023420D01*
X117358682Y-103071040D01*
X117406301Y-103118659D01*
X117596778Y-104118659D02*
X118358682Y-104118659D01*
X118453920Y-103023420D02*
X119025349Y-103023420D01*
X118739635Y-104023420D02*
X118739635Y-103023420D01*
X119358682Y-104023420D02*
X119358682Y-103023420D01*
X119358682Y-103499611D02*
X119930111Y-103499611D01*
X119930111Y-104023420D02*
X119930111Y-103023420D01*
X120406301Y-103023420D02*
X120406301Y-103832944D01*
X120453920Y-103928182D01*
X120501540Y-103975801D01*
X120596778Y-104023420D01*
X120787254Y-104023420D01*
X120882492Y-103975801D01*
X120930111Y-103928182D01*
X120977730Y-103832944D01*
X120977730Y-103023420D01*
X121453920Y-104023420D02*
X121453920Y-103023420D01*
X121787254Y-103737706D01*
X122120587Y-103023420D01*
X122120587Y-104023420D01*
X122930111Y-103499611D02*
X123072968Y-103547230D01*
X123120587Y-103594849D01*
X123168206Y-103690087D01*
X123168206Y-103832944D01*
X123120587Y-103928182D01*
X123072968Y-103975801D01*
X122977730Y-104023420D01*
X122596778Y-104023420D01*
X122596778Y-103023420D01*
X122930111Y-103023420D01*
X123025349Y-103071040D01*
X123072968Y-103118659D01*
X123120587Y-103213897D01*
X123120587Y-103309135D01*
X123072968Y-103404373D01*
X123025349Y-103451992D01*
X122930111Y-103499611D01*
X122596778Y-103499611D01*
X114005836Y-80619291D02*
X114339169Y-80619291D01*
X114482026Y-81143100D02*
X114005836Y-81143100D01*
X114005836Y-80143100D01*
X114482026Y-80143100D01*
X114910598Y-81143100D02*
X114910598Y-80143100D01*
X115482026Y-81143100D01*
X115482026Y-80143100D01*
X116529645Y-81047862D02*
X116482026Y-81095481D01*
X116339169Y-81143100D01*
X116243931Y-81143100D01*
X116101074Y-81095481D01*
X116005836Y-81000243D01*
X115958217Y-80905005D01*
X115910598Y-80714529D01*
X115910598Y-80571672D01*
X115958217Y-80381196D01*
X116005836Y-80285958D01*
X116101074Y-80190720D01*
X116243931Y-80143100D01*
X116339169Y-80143100D01*
X116482026Y-80190720D01*
X116529645Y-80238339D01*
X116720121Y-81238339D02*
X117482026Y-81238339D01*
X117720121Y-81143100D02*
X117720121Y-80143100D01*
X118196312Y-81143100D02*
X118196312Y-80143100D01*
X118767740Y-81143100D01*
X118767740Y-80143100D01*
X119243931Y-81143100D02*
X119243931Y-80143100D01*
X119482026Y-80143100D01*
X119624883Y-80190720D01*
X119720121Y-80285958D01*
X119767740Y-80381196D01*
X119815360Y-80571672D01*
X119815360Y-80714529D01*
X119767740Y-80905005D01*
X119720121Y-81000243D01*
X119624883Y-81095481D01*
X119482026Y-81143100D01*
X119243931Y-81143100D01*
X120243931Y-80619291D02*
X120577264Y-80619291D01*
X120720121Y-81143100D02*
X120243931Y-81143100D01*
X120243931Y-80143100D01*
X120720121Y-80143100D01*
X121053455Y-80143100D02*
X121720121Y-81143100D01*
X121720121Y-80143100D02*
X121053455Y-81143100D01*
X152018360Y-127248611D02*
X152161218Y-127296230D01*
X152208837Y-127343849D01*
X152256456Y-127439087D01*
X152256456Y-127581944D01*
X152208837Y-127677182D01*
X152161218Y-127724801D01*
X152065980Y-127772420D01*
X151685027Y-127772420D01*
X151685027Y-126772420D01*
X152018360Y-126772420D01*
X152113599Y-126820040D01*
X152161218Y-126867659D01*
X152208837Y-126962897D01*
X152208837Y-127058135D01*
X152161218Y-127153373D01*
X152113599Y-127200992D01*
X152018360Y-127248611D01*
X151685027Y-127248611D01*
X152637408Y-127486706D02*
X153113599Y-127486706D01*
X152542170Y-127772420D02*
X152875503Y-126772420D01*
X153208837Y-127772420D01*
X153399313Y-126772420D02*
X153970741Y-126772420D01*
X153685027Y-127772420D02*
X153685027Y-126772420D01*
X154161218Y-126772420D02*
X154732646Y-126772420D01*
X154446932Y-127772420D02*
X154446932Y-126772420D01*
X155065980Y-127248611D02*
X155399313Y-127248611D01*
X155542170Y-127772420D02*
X155065980Y-127772420D01*
X155065980Y-126772420D01*
X155542170Y-126772420D01*
X156542170Y-127772420D02*
X156208837Y-127296230D01*
X155970741Y-127772420D02*
X155970741Y-126772420D01*
X156351694Y-126772420D01*
X156446932Y-126820040D01*
X156494551Y-126867659D01*
X156542170Y-126962897D01*
X156542170Y-127105754D01*
X156494551Y-127200992D01*
X156446932Y-127248611D01*
X156351694Y-127296230D01*
X155970741Y-127296230D01*
X157161218Y-127296230D02*
X157161218Y-127772420D01*
X156827884Y-126772420D02*
X157161218Y-127296230D01*
X157494551Y-126772420D01*
X158589789Y-127772420D02*
X158589789Y-126772420D01*
X159065980Y-127772420D02*
X159065980Y-126772420D01*
X159637408Y-127772420D01*
X159637408Y-126772420D01*
X160113599Y-127772420D02*
X160113599Y-126772420D01*
X160494551Y-126772420D01*
X160589789Y-126820040D01*
X160637408Y-126867659D01*
X160685027Y-126962897D01*
X160685027Y-127105754D01*
X160637408Y-127200992D01*
X160589789Y-127248611D01*
X160494551Y-127296230D01*
X160113599Y-127296230D01*
X161113599Y-126772420D02*
X161113599Y-127581944D01*
X161161218Y-127677182D01*
X161208837Y-127724801D01*
X161304075Y-127772420D01*
X161494551Y-127772420D01*
X161589789Y-127724801D01*
X161637408Y-127677182D01*
X161685027Y-127581944D01*
X161685027Y-126772420D01*
X162018360Y-126772420D02*
X162589789Y-126772420D01*
X162304075Y-127772420D02*
X162304075Y-126772420D01*
D13*
X167164023Y-127399681D02*
X167306880Y-127447300D01*
X167544976Y-127447300D01*
X167640214Y-127399681D01*
X167687833Y-127352062D01*
X167735452Y-127256824D01*
X167735452Y-127161586D01*
X167687833Y-127066348D01*
X167640214Y-127018729D01*
X167544976Y-126971110D01*
X167354500Y-126923491D01*
X167259261Y-126875872D01*
X167211642Y-126828253D01*
X167164023Y-126733015D01*
X167164023Y-126637777D01*
X167211642Y-126542539D01*
X167259261Y-126494920D01*
X167354500Y-126447300D01*
X167592595Y-126447300D01*
X167735452Y-126494920D01*
X168164023Y-126923491D02*
X168497357Y-126923491D01*
X168640214Y-127447300D02*
X168164023Y-127447300D01*
X168164023Y-126447300D01*
X168640214Y-126447300D01*
X169640214Y-127447300D02*
X169306880Y-126971110D01*
X169068785Y-127447300D02*
X169068785Y-126447300D01*
X169449738Y-126447300D01*
X169544976Y-126494920D01*
X169592595Y-126542539D01*
X169640214Y-126637777D01*
X169640214Y-126780634D01*
X169592595Y-126875872D01*
X169544976Y-126923491D01*
X169449738Y-126971110D01*
X169068785Y-126971110D01*
X169925928Y-126447300D02*
X170259261Y-127447300D01*
X170592595Y-126447300D01*
X171116404Y-126447300D02*
X171306880Y-126447300D01*
X171402119Y-126494920D01*
X171497357Y-126590158D01*
X171544976Y-126780634D01*
X171544976Y-127113967D01*
X171497357Y-127304443D01*
X171402119Y-127399681D01*
X171306880Y-127447300D01*
X171116404Y-127447300D01*
X171021166Y-127399681D01*
X170925928Y-127304443D01*
X170878309Y-127113967D01*
X170878309Y-126780634D01*
X170925928Y-126590158D01*
X171021166Y-126494920D01*
X171116404Y-126447300D01*
X141838372Y-96561660D02*
X142409800Y-96561660D01*
X142124086Y-97561660D02*
X142124086Y-96561660D01*
X142743134Y-97037851D02*
X143076467Y-97037851D01*
X143219324Y-97561660D02*
X142743134Y-97561660D01*
X142743134Y-96561660D01*
X143219324Y-96561660D01*
X143647896Y-97037851D02*
X143981229Y-97037851D01*
X144124086Y-97561660D02*
X143647896Y-97561660D01*
X143647896Y-96561660D01*
X144124086Y-96561660D01*
X144552658Y-97561660D02*
X144552658Y-96561660D01*
X145124086Y-97561660D01*
X145124086Y-96561660D01*
X145552658Y-97514041D02*
X145695515Y-97561660D01*
X145933610Y-97561660D01*
X146028848Y-97514041D01*
X146076467Y-97466422D01*
X146124086Y-97371184D01*
X146124086Y-97275946D01*
X146076467Y-97180708D01*
X146028848Y-97133089D01*
X145933610Y-97085470D01*
X145743134Y-97037851D01*
X145647896Y-96990232D01*
X145600277Y-96942613D01*
X145552658Y-96847375D01*
X145552658Y-96752137D01*
X145600277Y-96656899D01*
X145647896Y-96609280D01*
X145743134Y-96561660D01*
X145981229Y-96561660D01*
X146124086Y-96609280D01*
X146743134Y-97085470D02*
X146743134Y-97561660D01*
X146409800Y-96561660D02*
X146743134Y-97085470D01*
X147076467Y-96561660D01*
X119486871Y-115201960D02*
X119486871Y-114201960D01*
X119724966Y-114201960D01*
X119867823Y-114249580D01*
X119963061Y-114344818D01*
X120010680Y-114440056D01*
X120058300Y-114630532D01*
X120058300Y-114773389D01*
X120010680Y-114963865D01*
X119963061Y-115059103D01*
X119867823Y-115154341D01*
X119724966Y-115201960D01*
X119486871Y-115201960D01*
X121058300Y-115201960D02*
X120724966Y-114725770D01*
X120486871Y-115201960D02*
X120486871Y-114201960D01*
X120867823Y-114201960D01*
X120963061Y-114249580D01*
X121010680Y-114297199D01*
X121058300Y-114392437D01*
X121058300Y-114535294D01*
X121010680Y-114630532D01*
X120963061Y-114678151D01*
X120867823Y-114725770D01*
X120486871Y-114725770D01*
X121344014Y-114201960D02*
X121677347Y-115201960D01*
X122010680Y-114201960D01*
X122105919Y-115297199D02*
X122867823Y-115297199D01*
X122963061Y-114201960D02*
X123534490Y-114201960D01*
X123248776Y-115201960D02*
X123248776Y-114201960D01*
X123867823Y-115201960D02*
X123867823Y-114201960D01*
X123867823Y-114678151D02*
X124439252Y-114678151D01*
X124439252Y-115201960D02*
X124439252Y-114201960D01*
X124915442Y-114201960D02*
X124915442Y-115011484D01*
X124963061Y-115106722D01*
X125010680Y-115154341D01*
X125105919Y-115201960D01*
X125296395Y-115201960D01*
X125391633Y-115154341D01*
X125439252Y-115106722D01*
X125486871Y-115011484D01*
X125486871Y-114201960D01*
X125963061Y-115201960D02*
X125963061Y-114201960D01*
X126296395Y-114916246D01*
X126629728Y-114201960D01*
X126629728Y-115201960D01*
X127439252Y-114678151D02*
X127582109Y-114725770D01*
X127629728Y-114773389D01*
X127677347Y-114868627D01*
X127677347Y-115011484D01*
X127629728Y-115106722D01*
X127582109Y-115154341D01*
X127486871Y-115201960D01*
X127105919Y-115201960D01*
X127105919Y-114201960D01*
X127439252Y-114201960D01*
X127534490Y-114249580D01*
X127582109Y-114297199D01*
X127629728Y-114392437D01*
X127629728Y-114487675D01*
X127582109Y-114582913D01*
X127534490Y-114630532D01*
X127439252Y-114678151D01*
X127105919Y-114678151D01*
X173339595Y-73098920D02*
X173339595Y-72098920D01*
X173577690Y-72098920D01*
X173720547Y-72146540D01*
X173815785Y-72241778D01*
X173863404Y-72337016D01*
X173911023Y-72527492D01*
X173911023Y-72670349D01*
X173863404Y-72860825D01*
X173815785Y-72956063D01*
X173720547Y-73051301D01*
X173577690Y-73098920D01*
X173339595Y-73098920D01*
X174911023Y-73098920D02*
X174577690Y-72622730D01*
X174339595Y-73098920D02*
X174339595Y-72098920D01*
X174720547Y-72098920D01*
X174815785Y-72146540D01*
X174863404Y-72194159D01*
X174911023Y-72289397D01*
X174911023Y-72432254D01*
X174863404Y-72527492D01*
X174815785Y-72575111D01*
X174720547Y-72622730D01*
X174339595Y-72622730D01*
X175196738Y-72098920D02*
X175530071Y-73098920D01*
X175863404Y-72098920D01*
X175958642Y-73194159D02*
X176720547Y-73194159D01*
X176958642Y-73098920D02*
X176958642Y-72098920D01*
X177339595Y-72098920D01*
X177434833Y-72146540D01*
X177482452Y-72194159D01*
X177530071Y-72289397D01*
X177530071Y-72432254D01*
X177482452Y-72527492D01*
X177434833Y-72575111D01*
X177339595Y-72622730D01*
X176958642Y-72622730D01*
X177958642Y-73098920D02*
X177958642Y-72098920D01*
X178434833Y-73098920D02*
X178434833Y-72098920D01*
X179006261Y-73098920D01*
X179006261Y-72098920D01*
X179482452Y-73098920D02*
X179482452Y-72098920D01*
X180053880Y-73098920D02*
X179625309Y-72527492D01*
X180053880Y-72098920D02*
X179482452Y-72670349D01*
X180672928Y-72622730D02*
X180672928Y-73098920D01*
X180339595Y-72098920D02*
X180672928Y-72622730D01*
X181006261Y-72098920D01*
X154075546Y-57706520D02*
X154075546Y-56706520D01*
X154313641Y-56706520D01*
X154456499Y-56754140D01*
X154551737Y-56849378D01*
X154599356Y-56944616D01*
X154646975Y-57135092D01*
X154646975Y-57277949D01*
X154599356Y-57468425D01*
X154551737Y-57563663D01*
X154456499Y-57658901D01*
X154313641Y-57706520D01*
X154075546Y-57706520D01*
X155646975Y-57706520D02*
X155313641Y-57230330D01*
X155075546Y-57706520D02*
X155075546Y-56706520D01*
X155456499Y-56706520D01*
X155551737Y-56754140D01*
X155599356Y-56801759D01*
X155646975Y-56896997D01*
X155646975Y-57039854D01*
X155599356Y-57135092D01*
X155551737Y-57182711D01*
X155456499Y-57230330D01*
X155075546Y-57230330D01*
X155932689Y-56706520D02*
X156266022Y-57706520D01*
X156599356Y-56706520D01*
X156694594Y-57801759D02*
X157456499Y-57801759D01*
X158266022Y-57706520D02*
X157932689Y-57230330D01*
X157694594Y-57706520D02*
X157694594Y-56706520D01*
X158075546Y-56706520D01*
X158170784Y-56754140D01*
X158218403Y-56801759D01*
X158266022Y-56896997D01*
X158266022Y-57039854D01*
X158218403Y-57135092D01*
X158170784Y-57182711D01*
X158075546Y-57230330D01*
X157694594Y-57230330D01*
X158694594Y-57706520D02*
X158694594Y-56706520D01*
X159170784Y-57706520D02*
X159170784Y-56706520D01*
X159742213Y-57706520D01*
X159742213Y-56706520D01*
X160742213Y-56754140D02*
X160646975Y-56706520D01*
X160504118Y-56706520D01*
X160361260Y-56754140D01*
X160266022Y-56849378D01*
X160218403Y-56944616D01*
X160170784Y-57135092D01*
X160170784Y-57277949D01*
X160218403Y-57468425D01*
X160266022Y-57563663D01*
X160361260Y-57658901D01*
X160504118Y-57706520D01*
X160599356Y-57706520D01*
X160742213Y-57658901D01*
X160789832Y-57611282D01*
X160789832Y-57277949D01*
X160599356Y-57277949D01*
X134235084Y-47549060D02*
X134235084Y-46549060D01*
X134473180Y-46549060D01*
X134616037Y-46596680D01*
X134711275Y-46691918D01*
X134758894Y-46787156D01*
X134806513Y-46977632D01*
X134806513Y-47120489D01*
X134758894Y-47310965D01*
X134711275Y-47406203D01*
X134616037Y-47501441D01*
X134473180Y-47549060D01*
X134235084Y-47549060D01*
X135806513Y-47549060D02*
X135473180Y-47072870D01*
X135235084Y-47549060D02*
X135235084Y-46549060D01*
X135616037Y-46549060D01*
X135711275Y-46596680D01*
X135758894Y-46644299D01*
X135806513Y-46739537D01*
X135806513Y-46882394D01*
X135758894Y-46977632D01*
X135711275Y-47025251D01*
X135616037Y-47072870D01*
X135235084Y-47072870D01*
X136092227Y-46549060D02*
X136425560Y-47549060D01*
X136758894Y-46549060D01*
X136854132Y-47644299D02*
X137616037Y-47644299D01*
X137854132Y-47549060D02*
X137854132Y-46549060D01*
X138187465Y-47263346D01*
X138520799Y-46549060D01*
X138520799Y-47549060D01*
X138996989Y-47549060D02*
X138996989Y-46549060D01*
X139473180Y-47549060D02*
X139473180Y-46549060D01*
X139711275Y-46549060D01*
X139854132Y-46596680D01*
X139949370Y-46691918D01*
X139996989Y-46787156D01*
X140044608Y-46977632D01*
X140044608Y-47120489D01*
X139996989Y-47310965D01*
X139949370Y-47406203D01*
X139854132Y-47501441D01*
X139711275Y-47549060D01*
X139473180Y-47549060D01*
X140473180Y-47549060D02*
X140473180Y-46549060D01*
X140711275Y-46549060D01*
X140854132Y-46596680D01*
X140949370Y-46691918D01*
X140996989Y-46787156D01*
X141044608Y-46977632D01*
X141044608Y-47120489D01*
X140996989Y-47310965D01*
X140949370Y-47406203D01*
X140854132Y-47501441D01*
X140711275Y-47549060D01*
X140473180Y-47549060D01*
X141949370Y-47549060D02*
X141473180Y-47549060D01*
X141473180Y-46549060D01*
X142282703Y-47025251D02*
X142616037Y-47025251D01*
X142758894Y-47549060D02*
X142282703Y-47549060D01*
X142282703Y-46549060D01*
X142758894Y-46549060D01*
X114983095Y-55649120D02*
X114983095Y-54649120D01*
X115221190Y-54649120D01*
X115364047Y-54696740D01*
X115459285Y-54791978D01*
X115506904Y-54887216D01*
X115554523Y-55077692D01*
X115554523Y-55220549D01*
X115506904Y-55411025D01*
X115459285Y-55506263D01*
X115364047Y-55601501D01*
X115221190Y-55649120D01*
X114983095Y-55649120D01*
X116554523Y-55649120D02*
X116221190Y-55172930D01*
X115983095Y-55649120D02*
X115983095Y-54649120D01*
X116364047Y-54649120D01*
X116459285Y-54696740D01*
X116506904Y-54744359D01*
X116554523Y-54839597D01*
X116554523Y-54982454D01*
X116506904Y-55077692D01*
X116459285Y-55125311D01*
X116364047Y-55172930D01*
X115983095Y-55172930D01*
X116840238Y-54649120D02*
X117173571Y-55649120D01*
X117506904Y-54649120D01*
X117602142Y-55744359D02*
X118364047Y-55744359D01*
X118602142Y-55649120D02*
X118602142Y-54649120D01*
X119078333Y-55649120D02*
X119078333Y-54649120D01*
X119649761Y-55649120D01*
X119649761Y-54649120D01*
X120125952Y-55649120D02*
X120125952Y-54649120D01*
X120364047Y-54649120D01*
X120506904Y-54696740D01*
X120602142Y-54791978D01*
X120649761Y-54887216D01*
X120697380Y-55077692D01*
X120697380Y-55220549D01*
X120649761Y-55411025D01*
X120602142Y-55506263D01*
X120506904Y-55601501D01*
X120364047Y-55649120D01*
X120125952Y-55649120D01*
X121125952Y-55125311D02*
X121459285Y-55125311D01*
X121602142Y-55649120D02*
X121125952Y-55649120D01*
X121125952Y-54649120D01*
X121602142Y-54649120D01*
X121935476Y-54649120D02*
X122602142Y-55649120D01*
X122602142Y-54649120D02*
X121935476Y-55649120D01*
D14*
G04 #@! TO.C,U5*
X123580000Y-57150000D02*
X123580000Y-69850000D01*
X113420000Y-57150000D02*
X123580000Y-57150000D01*
X113420000Y-69850000D02*
X113420000Y-57150000D01*
X123580000Y-69850000D02*
X113420000Y-69850000D01*
D15*
G04 #@! TO.C,U1*
X149290000Y-134380000D02*
X131510000Y-134380000D01*
X149290000Y-98820000D02*
X149290000Y-134380000D01*
X131510000Y-98820000D02*
X149290000Y-98820000D01*
X131510000Y-134380000D02*
X131510000Y-98820000D01*
X145480000Y-107710000D02*
X145480000Y-116600000D01*
X135320000Y-107710000D02*
X135320000Y-116600000D01*
X135320000Y-116600000D02*
X145480000Y-116600000D01*
X145480000Y-107710000D02*
X135320000Y-107710000D01*
X137860000Y-103900000D02*
X137860000Y-101360000D01*
X142940000Y-103900000D02*
X137860000Y-103900000D01*
X142940000Y-101360000D02*
X142940000Y-103900000D01*
X137860000Y-101360000D02*
X142940000Y-101360000D01*
X142940000Y-128030000D02*
X145480000Y-128030000D01*
X142940000Y-125490000D02*
X142940000Y-128030000D01*
X145480000Y-125490000D02*
X142940000Y-125490000D01*
X145480000Y-128030000D02*
X145480000Y-125490000D01*
X144210000Y-129300000D02*
X144210000Y-134380000D01*
X136590000Y-129300000D02*
X136590000Y-134380000D01*
X144210000Y-129300000D02*
X136590000Y-129300000D01*
X142940000Y-122950000D02*
X145480000Y-122950000D01*
X142940000Y-119140000D02*
X142940000Y-122950000D01*
X145480000Y-119140000D02*
X142940000Y-119140000D01*
X145480000Y-122950000D02*
X145480000Y-119140000D01*
X136590000Y-135650000D02*
X136590000Y-134380000D01*
X144210000Y-135650000D02*
X136590000Y-135650000D01*
X144210000Y-134380000D02*
X144210000Y-135650000D01*
D16*
G04 #@! TO.C,J1*
X172910000Y-133830000D02*
X172910000Y-131170000D01*
X167770000Y-133830000D02*
X172910000Y-133830000D01*
X167770000Y-131170000D02*
X172910000Y-131170000D01*
X167770000Y-133830000D02*
X167770000Y-131170000D01*
X166500000Y-133830000D02*
X165170000Y-133830000D01*
X165170000Y-133830000D02*
X165170000Y-132500000D01*
G04 #@! TO.C,J2*
X112170000Y-84830000D02*
X112170000Y-83500000D01*
X113500000Y-84830000D02*
X112170000Y-84830000D01*
X114770000Y-84830000D02*
X114770000Y-82170000D01*
X114770000Y-82170000D02*
X127530000Y-82170000D01*
X114770000Y-84830000D02*
X127530000Y-84830000D01*
X127530000Y-84830000D02*
X127530000Y-82170000D01*
G04 #@! TO.C,J3*
X128530000Y-107830000D02*
X128530000Y-105170000D01*
X115770000Y-107830000D02*
X128530000Y-107830000D01*
X115770000Y-105170000D02*
X128530000Y-105170000D01*
X115770000Y-107830000D02*
X115770000Y-105170000D01*
X114500000Y-107830000D02*
X113170000Y-107830000D01*
X113170000Y-107830000D02*
X113170000Y-106500000D01*
G04 #@! TO.C,J4*
X183530000Y-101830000D02*
X183530000Y-99170000D01*
X170770000Y-101830000D02*
X183530000Y-101830000D01*
X170770000Y-99170000D02*
X183530000Y-99170000D01*
X170770000Y-101830000D02*
X170770000Y-99170000D01*
X169500000Y-101830000D02*
X168170000Y-101830000D01*
X168170000Y-101830000D02*
X168170000Y-100500000D01*
G04 #@! TO.C,J5*
X150170000Y-86830000D02*
X150170000Y-85500000D01*
X151500000Y-86830000D02*
X150170000Y-86830000D01*
X152770000Y-86830000D02*
X152770000Y-84170000D01*
X152770000Y-84170000D02*
X165530000Y-84170000D01*
X152770000Y-86830000D02*
X165530000Y-86830000D01*
X165530000Y-86830000D02*
X165530000Y-84170000D01*
G04 #@! TO.C,J6*
X146530000Y-76830000D02*
X146530000Y-74170000D01*
X133770000Y-76830000D02*
X146530000Y-76830000D01*
X133770000Y-74170000D02*
X146530000Y-74170000D01*
X133770000Y-76830000D02*
X133770000Y-74170000D01*
X132500000Y-76830000D02*
X131170000Y-76830000D01*
X131170000Y-76830000D02*
X131170000Y-75500000D01*
D14*
G04 #@! TO.C,U2*
X182080000Y-74150000D02*
X182080000Y-86850000D01*
X171920000Y-74150000D02*
X182080000Y-74150000D01*
X171920000Y-86850000D02*
X171920000Y-74150000D01*
X182080000Y-86850000D02*
X171920000Y-86850000D01*
G04 #@! TO.C,U3*
X162580000Y-71850000D02*
X152420000Y-71850000D01*
X152420000Y-71850000D02*
X152420000Y-59150000D01*
X152420000Y-59150000D02*
X162580000Y-59150000D01*
X162580000Y-59150000D02*
X162580000Y-71850000D01*
G04 #@! TO.C,U4*
X143580000Y-61850000D02*
X133420000Y-61850000D01*
X133420000Y-61850000D02*
X133420000Y-49150000D01*
X133420000Y-49150000D02*
X143580000Y-49150000D01*
X143580000Y-49150000D02*
X143580000Y-61850000D01*
G04 #@! TO.C,U6*
X128580000Y-117150000D02*
X128580000Y-129850000D01*
X118420000Y-117150000D02*
X128580000Y-117150000D01*
X118420000Y-129850000D02*
X118420000Y-117150000D01*
X128580000Y-129850000D02*
X118420000Y-129850000D01*
D16*
G04 #@! TO.C,J7*
X159370000Y-133830000D02*
X159370000Y-131170000D01*
X156770000Y-133830000D02*
X159370000Y-133830000D01*
X156770000Y-131170000D02*
X159370000Y-131170000D01*
X156770000Y-133830000D02*
X156770000Y-131170000D01*
X155500000Y-133830000D02*
X154170000Y-133830000D01*
X154170000Y-133830000D02*
X154170000Y-132500000D01*
D17*
G04 #@! TO.C,G\002A\002A\002A*
G36*
X160004026Y-108336529D02*
X160435726Y-108389844D01*
X160850849Y-108481638D01*
X161260123Y-108614312D01*
X161674275Y-108790268D01*
X161696845Y-108800980D01*
X162034133Y-108975967D01*
X162342310Y-109167263D01*
X162635307Y-109384570D01*
X162927059Y-109637586D01*
X163008106Y-109713933D01*
X163230730Y-109940145D01*
X163425384Y-110168398D01*
X163600022Y-110409968D01*
X163762598Y-110676134D01*
X163921065Y-110978174D01*
X163967441Y-111074200D01*
X164075640Y-111316501D01*
X164160537Y-111543220D01*
X164230310Y-111778175D01*
X164279926Y-111984429D01*
X164363024Y-112467267D01*
X164396296Y-112942622D01*
X164379592Y-113411409D01*
X164312764Y-113874546D01*
X164195661Y-114332950D01*
X164028135Y-114787538D01*
X163810036Y-115239227D01*
X163725164Y-115390875D01*
X163621619Y-115562686D01*
X163520278Y-115713884D01*
X163411464Y-115856997D01*
X163285501Y-116004554D01*
X163132713Y-116169083D01*
X163089081Y-116214448D01*
X162727720Y-116552552D01*
X162337497Y-116850263D01*
X161921564Y-117105702D01*
X161483076Y-117316988D01*
X161025185Y-117482242D01*
X160903920Y-117517278D01*
X160809025Y-117543484D01*
X160728807Y-117565932D01*
X160680126Y-117579903D01*
X160679162Y-117580192D01*
X160666287Y-117574095D01*
X160690392Y-117538734D01*
X160730572Y-117495947D01*
X160794382Y-117418139D01*
X160844953Y-117332025D01*
X160860079Y-117293643D01*
X160867217Y-117255079D01*
X160873304Y-117188750D01*
X160878396Y-117091779D01*
X160882550Y-116961285D01*
X160885822Y-116794389D01*
X160888268Y-116588211D01*
X160889946Y-116339874D01*
X160890911Y-116046497D01*
X160891220Y-115705390D01*
X160891220Y-114221074D01*
X160826879Y-114091958D01*
X160737100Y-113958398D01*
X160623676Y-113868248D01*
X160489258Y-113823311D01*
X160424836Y-113818331D01*
X160294320Y-113817400D01*
X160301954Y-114173000D01*
X160303677Y-114337172D01*
X160300499Y-114457005D01*
X160292034Y-114538760D01*
X160277899Y-114588696D01*
X160276201Y-114592100D01*
X160214455Y-114661190D01*
X160118561Y-114713568D01*
X160004335Y-114741691D01*
X159956660Y-114744460D01*
X159847600Y-114744500D01*
X159862520Y-117275862D01*
X159939477Y-117400298D01*
X160016510Y-117500072D01*
X160114045Y-117572367D01*
X160150091Y-117591518D01*
X160283748Y-117658303D01*
X160164839Y-117674601D01*
X160098887Y-117679862D01*
X159994382Y-117683749D01*
X159860841Y-117686308D01*
X159707781Y-117687586D01*
X159544718Y-117687627D01*
X159381169Y-117686477D01*
X159226651Y-117684182D01*
X159090680Y-117680789D01*
X158982774Y-117676342D01*
X158912449Y-117670887D01*
X158897320Y-117668509D01*
X158821120Y-117652128D01*
X158927925Y-117620037D01*
X159068198Y-117553318D01*
X159181089Y-117449676D01*
X159243276Y-117349050D01*
X159253950Y-117322641D01*
X159262871Y-117291479D01*
X159270199Y-117251034D01*
X159276091Y-117196779D01*
X159280706Y-117124181D01*
X159284201Y-117028713D01*
X159286737Y-116905844D01*
X159288469Y-116751044D01*
X159289558Y-116559785D01*
X159290161Y-116327536D01*
X159290437Y-116049768D01*
X159290462Y-115999003D01*
X159291020Y-114751607D01*
X159153583Y-114737422D01*
X159020337Y-114709725D01*
X158924069Y-114659498D01*
X158870094Y-114589603D01*
X158867840Y-114583477D01*
X158861566Y-114539013D01*
X158857223Y-114454610D01*
X158855108Y-114341106D01*
X158855519Y-114209336D01*
X158856276Y-114162876D01*
X158856687Y-114141959D01*
X158960820Y-114141959D01*
X158961735Y-114262189D01*
X158965820Y-114342705D01*
X158975079Y-114394578D01*
X158991519Y-114428881D01*
X159017144Y-114456686D01*
X159017970Y-114457439D01*
X159100701Y-114516644D01*
X159169942Y-114530032D01*
X159185147Y-114526587D01*
X159232407Y-114516532D01*
X159242297Y-114515900D01*
X159275716Y-114499573D01*
X159316420Y-114465100D01*
X159339559Y-114436003D01*
X159354478Y-114397142D01*
X159362903Y-114337680D01*
X159366563Y-114246782D01*
X159367220Y-114146445D01*
X159367178Y-114139994D01*
X159773620Y-114139994D01*
X159776428Y-114269227D01*
X159785771Y-114357908D01*
X159803026Y-114416024D01*
X159814437Y-114435872D01*
X159873955Y-114494372D01*
X159943995Y-114527017D01*
X159997947Y-114527011D01*
X160045106Y-114516569D01*
X160055097Y-114515900D01*
X160088516Y-114499573D01*
X160129220Y-114465100D01*
X160151982Y-114436623D01*
X160166806Y-114398697D01*
X160175327Y-114340737D01*
X160179184Y-114252162D01*
X160180020Y-114136743D01*
X160179473Y-114014457D01*
X160176396Y-113932338D01*
X160168635Y-113879753D01*
X160154034Y-113846068D01*
X160130438Y-113820653D01*
X160113094Y-113806543D01*
X160025140Y-113760832D01*
X159939975Y-113765520D01*
X159855421Y-113820784D01*
X159847866Y-113828146D01*
X159813052Y-113865620D01*
X159791267Y-113901886D01*
X159779465Y-113949740D01*
X159774598Y-114021978D01*
X159773621Y-114131393D01*
X159773620Y-114139994D01*
X159367178Y-114139994D01*
X159366416Y-114025499D01*
X159362577Y-113944009D01*
X159353564Y-113890639D01*
X159337235Y-113854053D01*
X159311450Y-113822913D01*
X159304874Y-113816245D01*
X159221764Y-113763839D01*
X159131410Y-113759537D01*
X159042903Y-113803341D01*
X159028028Y-113816187D01*
X158997809Y-113846922D01*
X158978336Y-113879308D01*
X158967256Y-113924755D01*
X158962215Y-113994671D01*
X158960860Y-114100467D01*
X158960820Y-114141959D01*
X158856687Y-114141959D01*
X158863473Y-113797153D01*
X158721820Y-113811773D01*
X158567727Y-113851084D01*
X158440116Y-113931841D01*
X158343652Y-114049616D01*
X158283001Y-114199978D01*
X158275142Y-114235853D01*
X158269134Y-114293845D01*
X158263923Y-114396280D01*
X158259504Y-114537228D01*
X158255872Y-114710762D01*
X158253020Y-114910952D01*
X158250944Y-115131872D01*
X158249636Y-115367593D01*
X158249092Y-115612185D01*
X158249306Y-115859722D01*
X158250271Y-116104275D01*
X158251984Y-116339915D01*
X158254436Y-116560714D01*
X158257624Y-116760744D01*
X158261541Y-116934076D01*
X158266182Y-117074783D01*
X158271540Y-117176935D01*
X158277611Y-117234605D01*
X158278029Y-117236668D01*
X158304667Y-117325801D01*
X158348559Y-117401633D01*
X158421608Y-117484261D01*
X158429220Y-117491919D01*
X158489569Y-117552932D01*
X158531728Y-117596839D01*
X158546949Y-117614517D01*
X158546860Y-117614550D01*
X158521842Y-117608268D01*
X158457762Y-117591316D01*
X158364579Y-117566349D01*
X158262320Y-117538745D01*
X157794306Y-117389854D01*
X157359147Y-117204453D01*
X156951560Y-116979489D01*
X156566262Y-116711915D01*
X156197972Y-116398678D01*
X156063096Y-116268747D01*
X155839285Y-116035632D01*
X155650521Y-115813938D01*
X155487320Y-115590641D01*
X155340195Y-115352716D01*
X155199663Y-115087140D01*
X155193524Y-115074700D01*
X154995803Y-114618476D01*
X154847664Y-114155495D01*
X154749108Y-113687990D01*
X154700134Y-113218195D01*
X154700637Y-112829328D01*
X158455396Y-112829328D01*
X158455533Y-112977579D01*
X158457037Y-113091961D01*
X158460161Y-113178119D01*
X158465158Y-113241695D01*
X158472280Y-113288333D01*
X158481781Y-113323674D01*
X158493912Y-113353363D01*
X158501198Y-113368153D01*
X158586687Y-113481866D01*
X158707515Y-113560114D01*
X158755424Y-113577899D01*
X158796601Y-113582867D01*
X158881769Y-113587092D01*
X159004124Y-113590446D01*
X159156861Y-113592805D01*
X159333174Y-113594042D01*
X159526260Y-113594033D01*
X159608520Y-113593641D01*
X159829247Y-113592195D01*
X160005096Y-113590584D01*
X160141990Y-113588375D01*
X160245849Y-113585135D01*
X160322595Y-113580432D01*
X160378150Y-113573833D01*
X160418436Y-113564905D01*
X160449374Y-113553216D01*
X160476886Y-113538332D01*
X160491959Y-113529090D01*
X160566785Y-113466051D01*
X160629602Y-113386184D01*
X160638967Y-113369473D01*
X160652715Y-113340290D01*
X160663670Y-113308676D01*
X160672090Y-113268980D01*
X160678232Y-113215551D01*
X160682352Y-113142738D01*
X160684706Y-113044891D01*
X160685553Y-112916358D01*
X160685147Y-112751488D01*
X160683748Y-112544630D01*
X160682628Y-112408654D01*
X160680532Y-112176265D01*
X160678373Y-111989214D01*
X160675801Y-111842038D01*
X160672466Y-111729277D01*
X160669685Y-111676878D01*
X160791072Y-111676878D01*
X160798075Y-111797240D01*
X160827104Y-111873109D01*
X160886406Y-111946377D01*
X160978203Y-112014544D01*
X161084680Y-112065474D01*
X161128918Y-112078670D01*
X161171908Y-112083044D01*
X161259532Y-112087202D01*
X161385625Y-112091015D01*
X161544022Y-112094355D01*
X161728556Y-112097094D01*
X161933062Y-112099103D01*
X162151374Y-112100253D01*
X162167570Y-112100300D01*
X163126420Y-112102900D01*
X163126420Y-111701307D01*
X163228019Y-111701307D01*
X163228020Y-111709200D01*
X163228020Y-112077500D01*
X163295638Y-112077500D01*
X163358325Y-112064714D01*
X163437389Y-112032474D01*
X163469835Y-112015040D01*
X163583100Y-111925990D01*
X163650489Y-111823369D01*
X163672576Y-111714177D01*
X163649934Y-111605411D01*
X163583136Y-111504070D01*
X163472757Y-111417153D01*
X163418520Y-111388907D01*
X163347385Y-111356895D01*
X163296608Y-111340818D01*
X163262757Y-111346442D01*
X163242404Y-111379536D01*
X163232116Y-111445866D01*
X163228465Y-111551200D01*
X163228019Y-111701307D01*
X163126420Y-111701307D01*
X163126420Y-111340900D01*
X162129470Y-111341457D01*
X161875723Y-111341758D01*
X161667607Y-111342498D01*
X161499953Y-111343899D01*
X161367592Y-111346181D01*
X161265355Y-111349568D01*
X161188074Y-111354281D01*
X161130580Y-111360541D01*
X161087703Y-111368571D01*
X161054276Y-111378592D01*
X161029869Y-111388643D01*
X160910123Y-111465044D01*
X160829472Y-111563634D01*
X160791072Y-111676878D01*
X160669685Y-111676878D01*
X160668017Y-111645468D01*
X160662104Y-111585150D01*
X160654377Y-111542861D01*
X160644487Y-111513140D01*
X160632083Y-111490524D01*
X160622950Y-111477640D01*
X160562454Y-111409856D01*
X160500437Y-111355169D01*
X160479686Y-111341044D01*
X160455643Y-111329715D01*
X160422845Y-111320874D01*
X160375824Y-111314214D01*
X160309114Y-111309426D01*
X160217251Y-111306203D01*
X160094767Y-111304237D01*
X159936197Y-111303221D01*
X159736075Y-111302845D01*
X159570420Y-111302800D01*
X159338349Y-111302911D01*
X159151611Y-111303451D01*
X159004742Y-111304728D01*
X158892275Y-111307048D01*
X158808744Y-111310720D01*
X158748684Y-111316052D01*
X158706627Y-111323352D01*
X158677109Y-111332926D01*
X158654663Y-111345084D01*
X158640402Y-111355169D01*
X158572587Y-111415652D01*
X158517889Y-111477640D01*
X158503745Y-111498591D01*
X158492334Y-111523253D01*
X158483303Y-111557086D01*
X158476304Y-111605553D01*
X158470986Y-111674116D01*
X158466999Y-111768235D01*
X158463994Y-111893374D01*
X158461619Y-112054992D01*
X158459525Y-112258553D01*
X158458211Y-112408654D01*
X158456373Y-112641568D01*
X158455396Y-112829328D01*
X154700637Y-112829328D01*
X154700742Y-112748343D01*
X154750932Y-112280669D01*
X154850704Y-111817405D01*
X154893556Y-111686393D01*
X155328714Y-111686393D01*
X155351476Y-111782789D01*
X155412108Y-111878616D01*
X155498792Y-111962728D01*
X155599712Y-112023978D01*
X155703051Y-112051220D01*
X155715970Y-112051682D01*
X155785820Y-112052100D01*
X155785820Y-111788403D01*
X155891349Y-111788403D01*
X155891688Y-111902833D01*
X155893871Y-111990151D01*
X155897737Y-112040037D01*
X155899167Y-112046077D01*
X155910066Y-112054792D01*
X155938221Y-112061811D01*
X155987876Y-112067241D01*
X156063271Y-112071190D01*
X156168649Y-112073766D01*
X156308249Y-112075076D01*
X156486315Y-112075229D01*
X156707088Y-112074331D01*
X156947667Y-112072700D01*
X157204403Y-112070667D01*
X157415412Y-112068671D01*
X157585769Y-112066427D01*
X157720545Y-112063652D01*
X157824815Y-112060060D01*
X157903652Y-112055367D01*
X157962128Y-112049288D01*
X158005316Y-112041540D01*
X158038290Y-112031837D01*
X158066122Y-112019895D01*
X158087674Y-112008763D01*
X158212106Y-111920466D01*
X158291295Y-111817791D01*
X158325631Y-111707869D01*
X158315504Y-111597832D01*
X158261304Y-111494809D01*
X158163422Y-111405932D01*
X158051586Y-111348898D01*
X158017654Y-111337251D01*
X157978635Y-111327731D01*
X157929340Y-111320125D01*
X157864576Y-111314224D01*
X157779152Y-111309816D01*
X157667876Y-111306691D01*
X157525558Y-111304638D01*
X157347006Y-111303446D01*
X157127029Y-111302906D01*
X156916120Y-111302800D01*
X155900120Y-111302800D01*
X155893019Y-111657176D01*
X155891349Y-111788403D01*
X155785820Y-111788403D01*
X155785820Y-111308853D01*
X155695878Y-111323448D01*
X155570569Y-111363441D01*
X155462180Y-111434677D01*
X155380384Y-111527591D01*
X155334855Y-111632621D01*
X155328714Y-111686393D01*
X154893556Y-111686393D01*
X155000058Y-111360786D01*
X155193901Y-110923146D01*
X155302719Y-110718600D01*
X158772934Y-110718600D01*
X158781313Y-110873375D01*
X158804875Y-110990054D01*
X158815017Y-111017050D01*
X158844678Y-111075899D01*
X158878058Y-111103625D01*
X158934348Y-111111857D01*
X158972223Y-111112300D01*
X159087820Y-111112300D01*
X159087914Y-110953550D01*
X159104255Y-110798836D01*
X159154310Y-110680686D01*
X159239938Y-110597380D01*
X159362998Y-110547198D01*
X159525349Y-110528419D01*
X159547613Y-110528194D01*
X159657646Y-110531120D01*
X159733909Y-110542336D01*
X159793202Y-110565303D01*
X159827013Y-110585756D01*
X159923814Y-110678471D01*
X159981911Y-110802272D01*
X160002146Y-110958991D01*
X160002180Y-110966250D01*
X160002220Y-111112300D01*
X160113762Y-111112300D01*
X160183869Y-111109137D01*
X160223580Y-111090948D01*
X160251779Y-111044677D01*
X160267948Y-111005721D01*
X160316247Y-110819562D01*
X160318211Y-110628140D01*
X160275603Y-110441791D01*
X160190187Y-110270848D01*
X160128858Y-110190818D01*
X159986562Y-110064728D01*
X159823075Y-109979436D01*
X159646750Y-109935047D01*
X159465943Y-109931664D01*
X159289009Y-109969390D01*
X159124303Y-110048330D01*
X158980181Y-110168585D01*
X158972930Y-110176497D01*
X158870452Y-110310741D01*
X158807114Y-110449394D01*
X158777207Y-110607928D01*
X158772934Y-110718600D01*
X155302719Y-110718600D01*
X155341732Y-110645269D01*
X155489113Y-110404404D01*
X155645303Y-110187700D01*
X155819557Y-109982303D01*
X156019433Y-109777012D01*
X156276816Y-109537161D01*
X156520583Y-109333106D01*
X156762383Y-109156573D01*
X157013863Y-108999285D01*
X157286673Y-108852966D01*
X157393194Y-108800980D01*
X157807912Y-108622634D01*
X158217175Y-108487698D01*
X158631711Y-108393772D01*
X159062250Y-108338453D01*
X159519518Y-108319340D01*
X159545020Y-108319291D01*
X160004026Y-108336529D01*
X160004026Y-108336529D01*
G37*
X160004026Y-108336529D02*
X160435726Y-108389844D01*
X160850849Y-108481638D01*
X161260123Y-108614312D01*
X161674275Y-108790268D01*
X161696845Y-108800980D01*
X162034133Y-108975967D01*
X162342310Y-109167263D01*
X162635307Y-109384570D01*
X162927059Y-109637586D01*
X163008106Y-109713933D01*
X163230730Y-109940145D01*
X163425384Y-110168398D01*
X163600022Y-110409968D01*
X163762598Y-110676134D01*
X163921065Y-110978174D01*
X163967441Y-111074200D01*
X164075640Y-111316501D01*
X164160537Y-111543220D01*
X164230310Y-111778175D01*
X164279926Y-111984429D01*
X164363024Y-112467267D01*
X164396296Y-112942622D01*
X164379592Y-113411409D01*
X164312764Y-113874546D01*
X164195661Y-114332950D01*
X164028135Y-114787538D01*
X163810036Y-115239227D01*
X163725164Y-115390875D01*
X163621619Y-115562686D01*
X163520278Y-115713884D01*
X163411464Y-115856997D01*
X163285501Y-116004554D01*
X163132713Y-116169083D01*
X163089081Y-116214448D01*
X162727720Y-116552552D01*
X162337497Y-116850263D01*
X161921564Y-117105702D01*
X161483076Y-117316988D01*
X161025185Y-117482242D01*
X160903920Y-117517278D01*
X160809025Y-117543484D01*
X160728807Y-117565932D01*
X160680126Y-117579903D01*
X160679162Y-117580192D01*
X160666287Y-117574095D01*
X160690392Y-117538734D01*
X160730572Y-117495947D01*
X160794382Y-117418139D01*
X160844953Y-117332025D01*
X160860079Y-117293643D01*
X160867217Y-117255079D01*
X160873304Y-117188750D01*
X160878396Y-117091779D01*
X160882550Y-116961285D01*
X160885822Y-116794389D01*
X160888268Y-116588211D01*
X160889946Y-116339874D01*
X160890911Y-116046497D01*
X160891220Y-115705390D01*
X160891220Y-114221074D01*
X160826879Y-114091958D01*
X160737100Y-113958398D01*
X160623676Y-113868248D01*
X160489258Y-113823311D01*
X160424836Y-113818331D01*
X160294320Y-113817400D01*
X160301954Y-114173000D01*
X160303677Y-114337172D01*
X160300499Y-114457005D01*
X160292034Y-114538760D01*
X160277899Y-114588696D01*
X160276201Y-114592100D01*
X160214455Y-114661190D01*
X160118561Y-114713568D01*
X160004335Y-114741691D01*
X159956660Y-114744460D01*
X159847600Y-114744500D01*
X159862520Y-117275862D01*
X159939477Y-117400298D01*
X160016510Y-117500072D01*
X160114045Y-117572367D01*
X160150091Y-117591518D01*
X160283748Y-117658303D01*
X160164839Y-117674601D01*
X160098887Y-117679862D01*
X159994382Y-117683749D01*
X159860841Y-117686308D01*
X159707781Y-117687586D01*
X159544718Y-117687627D01*
X159381169Y-117686477D01*
X159226651Y-117684182D01*
X159090680Y-117680789D01*
X158982774Y-117676342D01*
X158912449Y-117670887D01*
X158897320Y-117668509D01*
X158821120Y-117652128D01*
X158927925Y-117620037D01*
X159068198Y-117553318D01*
X159181089Y-117449676D01*
X159243276Y-117349050D01*
X159253950Y-117322641D01*
X159262871Y-117291479D01*
X159270199Y-117251034D01*
X159276091Y-117196779D01*
X159280706Y-117124181D01*
X159284201Y-117028713D01*
X159286737Y-116905844D01*
X159288469Y-116751044D01*
X159289558Y-116559785D01*
X159290161Y-116327536D01*
X159290437Y-116049768D01*
X159290462Y-115999003D01*
X159291020Y-114751607D01*
X159153583Y-114737422D01*
X159020337Y-114709725D01*
X158924069Y-114659498D01*
X158870094Y-114589603D01*
X158867840Y-114583477D01*
X158861566Y-114539013D01*
X158857223Y-114454610D01*
X158855108Y-114341106D01*
X158855519Y-114209336D01*
X158856276Y-114162876D01*
X158856687Y-114141959D01*
X158960820Y-114141959D01*
X158961735Y-114262189D01*
X158965820Y-114342705D01*
X158975079Y-114394578D01*
X158991519Y-114428881D01*
X159017144Y-114456686D01*
X159017970Y-114457439D01*
X159100701Y-114516644D01*
X159169942Y-114530032D01*
X159185147Y-114526587D01*
X159232407Y-114516532D01*
X159242297Y-114515900D01*
X159275716Y-114499573D01*
X159316420Y-114465100D01*
X159339559Y-114436003D01*
X159354478Y-114397142D01*
X159362903Y-114337680D01*
X159366563Y-114246782D01*
X159367220Y-114146445D01*
X159367178Y-114139994D01*
X159773620Y-114139994D01*
X159776428Y-114269227D01*
X159785771Y-114357908D01*
X159803026Y-114416024D01*
X159814437Y-114435872D01*
X159873955Y-114494372D01*
X159943995Y-114527017D01*
X159997947Y-114527011D01*
X160045106Y-114516569D01*
X160055097Y-114515900D01*
X160088516Y-114499573D01*
X160129220Y-114465100D01*
X160151982Y-114436623D01*
X160166806Y-114398697D01*
X160175327Y-114340737D01*
X160179184Y-114252162D01*
X160180020Y-114136743D01*
X160179473Y-114014457D01*
X160176396Y-113932338D01*
X160168635Y-113879753D01*
X160154034Y-113846068D01*
X160130438Y-113820653D01*
X160113094Y-113806543D01*
X160025140Y-113760832D01*
X159939975Y-113765520D01*
X159855421Y-113820784D01*
X159847866Y-113828146D01*
X159813052Y-113865620D01*
X159791267Y-113901886D01*
X159779465Y-113949740D01*
X159774598Y-114021978D01*
X159773621Y-114131393D01*
X159773620Y-114139994D01*
X159367178Y-114139994D01*
X159366416Y-114025499D01*
X159362577Y-113944009D01*
X159353564Y-113890639D01*
X159337235Y-113854053D01*
X159311450Y-113822913D01*
X159304874Y-113816245D01*
X159221764Y-113763839D01*
X159131410Y-113759537D01*
X159042903Y-113803341D01*
X159028028Y-113816187D01*
X158997809Y-113846922D01*
X158978336Y-113879308D01*
X158967256Y-113924755D01*
X158962215Y-113994671D01*
X158960860Y-114100467D01*
X158960820Y-114141959D01*
X158856687Y-114141959D01*
X158863473Y-113797153D01*
X158721820Y-113811773D01*
X158567727Y-113851084D01*
X158440116Y-113931841D01*
X158343652Y-114049616D01*
X158283001Y-114199978D01*
X158275142Y-114235853D01*
X158269134Y-114293845D01*
X158263923Y-114396280D01*
X158259504Y-114537228D01*
X158255872Y-114710762D01*
X158253020Y-114910952D01*
X158250944Y-115131872D01*
X158249636Y-115367593D01*
X158249092Y-115612185D01*
X158249306Y-115859722D01*
X158250271Y-116104275D01*
X158251984Y-116339915D01*
X158254436Y-116560714D01*
X158257624Y-116760744D01*
X158261541Y-116934076D01*
X158266182Y-117074783D01*
X158271540Y-117176935D01*
X158277611Y-117234605D01*
X158278029Y-117236668D01*
X158304667Y-117325801D01*
X158348559Y-117401633D01*
X158421608Y-117484261D01*
X158429220Y-117491919D01*
X158489569Y-117552932D01*
X158531728Y-117596839D01*
X158546949Y-117614517D01*
X158546860Y-117614550D01*
X158521842Y-117608268D01*
X158457762Y-117591316D01*
X158364579Y-117566349D01*
X158262320Y-117538745D01*
X157794306Y-117389854D01*
X157359147Y-117204453D01*
X156951560Y-116979489D01*
X156566262Y-116711915D01*
X156197972Y-116398678D01*
X156063096Y-116268747D01*
X155839285Y-116035632D01*
X155650521Y-115813938D01*
X155487320Y-115590641D01*
X155340195Y-115352716D01*
X155199663Y-115087140D01*
X155193524Y-115074700D01*
X154995803Y-114618476D01*
X154847664Y-114155495D01*
X154749108Y-113687990D01*
X154700134Y-113218195D01*
X154700637Y-112829328D01*
X158455396Y-112829328D01*
X158455533Y-112977579D01*
X158457037Y-113091961D01*
X158460161Y-113178119D01*
X158465158Y-113241695D01*
X158472280Y-113288333D01*
X158481781Y-113323674D01*
X158493912Y-113353363D01*
X158501198Y-113368153D01*
X158586687Y-113481866D01*
X158707515Y-113560114D01*
X158755424Y-113577899D01*
X158796601Y-113582867D01*
X158881769Y-113587092D01*
X159004124Y-113590446D01*
X159156861Y-113592805D01*
X159333174Y-113594042D01*
X159526260Y-113594033D01*
X159608520Y-113593641D01*
X159829247Y-113592195D01*
X160005096Y-113590584D01*
X160141990Y-113588375D01*
X160245849Y-113585135D01*
X160322595Y-113580432D01*
X160378150Y-113573833D01*
X160418436Y-113564905D01*
X160449374Y-113553216D01*
X160476886Y-113538332D01*
X160491959Y-113529090D01*
X160566785Y-113466051D01*
X160629602Y-113386184D01*
X160638967Y-113369473D01*
X160652715Y-113340290D01*
X160663670Y-113308676D01*
X160672090Y-113268980D01*
X160678232Y-113215551D01*
X160682352Y-113142738D01*
X160684706Y-113044891D01*
X160685553Y-112916358D01*
X160685147Y-112751488D01*
X160683748Y-112544630D01*
X160682628Y-112408654D01*
X160680532Y-112176265D01*
X160678373Y-111989214D01*
X160675801Y-111842038D01*
X160672466Y-111729277D01*
X160669685Y-111676878D01*
X160791072Y-111676878D01*
X160798075Y-111797240D01*
X160827104Y-111873109D01*
X160886406Y-111946377D01*
X160978203Y-112014544D01*
X161084680Y-112065474D01*
X161128918Y-112078670D01*
X161171908Y-112083044D01*
X161259532Y-112087202D01*
X161385625Y-112091015D01*
X161544022Y-112094355D01*
X161728556Y-112097094D01*
X161933062Y-112099103D01*
X162151374Y-112100253D01*
X162167570Y-112100300D01*
X163126420Y-112102900D01*
X163126420Y-111701307D01*
X163228019Y-111701307D01*
X163228020Y-111709200D01*
X163228020Y-112077500D01*
X163295638Y-112077500D01*
X163358325Y-112064714D01*
X163437389Y-112032474D01*
X163469835Y-112015040D01*
X163583100Y-111925990D01*
X163650489Y-111823369D01*
X163672576Y-111714177D01*
X163649934Y-111605411D01*
X163583136Y-111504070D01*
X163472757Y-111417153D01*
X163418520Y-111388907D01*
X163347385Y-111356895D01*
X163296608Y-111340818D01*
X163262757Y-111346442D01*
X163242404Y-111379536D01*
X163232116Y-111445866D01*
X163228465Y-111551200D01*
X163228019Y-111701307D01*
X163126420Y-111701307D01*
X163126420Y-111340900D01*
X162129470Y-111341457D01*
X161875723Y-111341758D01*
X161667607Y-111342498D01*
X161499953Y-111343899D01*
X161367592Y-111346181D01*
X161265355Y-111349568D01*
X161188074Y-111354281D01*
X161130580Y-111360541D01*
X161087703Y-111368571D01*
X161054276Y-111378592D01*
X161029869Y-111388643D01*
X160910123Y-111465044D01*
X160829472Y-111563634D01*
X160791072Y-111676878D01*
X160669685Y-111676878D01*
X160668017Y-111645468D01*
X160662104Y-111585150D01*
X160654377Y-111542861D01*
X160644487Y-111513140D01*
X160632083Y-111490524D01*
X160622950Y-111477640D01*
X160562454Y-111409856D01*
X160500437Y-111355169D01*
X160479686Y-111341044D01*
X160455643Y-111329715D01*
X160422845Y-111320874D01*
X160375824Y-111314214D01*
X160309114Y-111309426D01*
X160217251Y-111306203D01*
X160094767Y-111304237D01*
X159936197Y-111303221D01*
X159736075Y-111302845D01*
X159570420Y-111302800D01*
X159338349Y-111302911D01*
X159151611Y-111303451D01*
X159004742Y-111304728D01*
X158892275Y-111307048D01*
X158808744Y-111310720D01*
X158748684Y-111316052D01*
X158706627Y-111323352D01*
X158677109Y-111332926D01*
X158654663Y-111345084D01*
X158640402Y-111355169D01*
X158572587Y-111415652D01*
X158517889Y-111477640D01*
X158503745Y-111498591D01*
X158492334Y-111523253D01*
X158483303Y-111557086D01*
X158476304Y-111605553D01*
X158470986Y-111674116D01*
X158466999Y-111768235D01*
X158463994Y-111893374D01*
X158461619Y-112054992D01*
X158459525Y-112258553D01*
X158458211Y-112408654D01*
X158456373Y-112641568D01*
X158455396Y-112829328D01*
X154700637Y-112829328D01*
X154700742Y-112748343D01*
X154750932Y-112280669D01*
X154850704Y-111817405D01*
X154893556Y-111686393D01*
X155328714Y-111686393D01*
X155351476Y-111782789D01*
X155412108Y-111878616D01*
X155498792Y-111962728D01*
X155599712Y-112023978D01*
X155703051Y-112051220D01*
X155715970Y-112051682D01*
X155785820Y-112052100D01*
X155785820Y-111788403D01*
X155891349Y-111788403D01*
X155891688Y-111902833D01*
X155893871Y-111990151D01*
X155897737Y-112040037D01*
X155899167Y-112046077D01*
X155910066Y-112054792D01*
X155938221Y-112061811D01*
X155987876Y-112067241D01*
X156063271Y-112071190D01*
X156168649Y-112073766D01*
X156308249Y-112075076D01*
X156486315Y-112075229D01*
X156707088Y-112074331D01*
X156947667Y-112072700D01*
X157204403Y-112070667D01*
X157415412Y-112068671D01*
X157585769Y-112066427D01*
X157720545Y-112063652D01*
X157824815Y-112060060D01*
X157903652Y-112055367D01*
X157962128Y-112049288D01*
X158005316Y-112041540D01*
X158038290Y-112031837D01*
X158066122Y-112019895D01*
X158087674Y-112008763D01*
X158212106Y-111920466D01*
X158291295Y-111817791D01*
X158325631Y-111707869D01*
X158315504Y-111597832D01*
X158261304Y-111494809D01*
X158163422Y-111405932D01*
X158051586Y-111348898D01*
X158017654Y-111337251D01*
X157978635Y-111327731D01*
X157929340Y-111320125D01*
X157864576Y-111314224D01*
X157779152Y-111309816D01*
X157667876Y-111306691D01*
X157525558Y-111304638D01*
X157347006Y-111303446D01*
X157127029Y-111302906D01*
X156916120Y-111302800D01*
X155900120Y-111302800D01*
X155893019Y-111657176D01*
X155891349Y-111788403D01*
X155785820Y-111788403D01*
X155785820Y-111308853D01*
X155695878Y-111323448D01*
X155570569Y-111363441D01*
X155462180Y-111434677D01*
X155380384Y-111527591D01*
X155334855Y-111632621D01*
X155328714Y-111686393D01*
X154893556Y-111686393D01*
X155000058Y-111360786D01*
X155193901Y-110923146D01*
X155302719Y-110718600D01*
X158772934Y-110718600D01*
X158781313Y-110873375D01*
X158804875Y-110990054D01*
X158815017Y-111017050D01*
X158844678Y-111075899D01*
X158878058Y-111103625D01*
X158934348Y-111111857D01*
X158972223Y-111112300D01*
X159087820Y-111112300D01*
X159087914Y-110953550D01*
X159104255Y-110798836D01*
X159154310Y-110680686D01*
X159239938Y-110597380D01*
X159362998Y-110547198D01*
X159525349Y-110528419D01*
X159547613Y-110528194D01*
X159657646Y-110531120D01*
X159733909Y-110542336D01*
X159793202Y-110565303D01*
X159827013Y-110585756D01*
X159923814Y-110678471D01*
X159981911Y-110802272D01*
X160002146Y-110958991D01*
X160002180Y-110966250D01*
X160002220Y-111112300D01*
X160113762Y-111112300D01*
X160183869Y-111109137D01*
X160223580Y-111090948D01*
X160251779Y-111044677D01*
X160267948Y-111005721D01*
X160316247Y-110819562D01*
X160318211Y-110628140D01*
X160275603Y-110441791D01*
X160190187Y-110270848D01*
X160128858Y-110190818D01*
X159986562Y-110064728D01*
X159823075Y-109979436D01*
X159646750Y-109935047D01*
X159465943Y-109931664D01*
X159289009Y-109969390D01*
X159124303Y-110048330D01*
X158980181Y-110168585D01*
X158972930Y-110176497D01*
X158870452Y-110310741D01*
X158807114Y-110449394D01*
X158777207Y-110607928D01*
X158772934Y-110718600D01*
X155302719Y-110718600D01*
X155341732Y-110645269D01*
X155489113Y-110404404D01*
X155645303Y-110187700D01*
X155819557Y-109982303D01*
X156019433Y-109777012D01*
X156276816Y-109537161D01*
X156520583Y-109333106D01*
X156762383Y-109156573D01*
X157013863Y-108999285D01*
X157286673Y-108852966D01*
X157393194Y-108800980D01*
X157807912Y-108622634D01*
X158217175Y-108487698D01*
X158631711Y-108393772D01*
X159062250Y-108338453D01*
X159519518Y-108319340D01*
X159545020Y-108319291D01*
X160004026Y-108336529D01*
G04 #@! TO.C,U5*
D15*
X111602380Y-64261904D02*
X112411904Y-64261904D01*
X112507142Y-64214285D01*
X112554761Y-64166666D01*
X112602380Y-64071428D01*
X112602380Y-63880952D01*
X112554761Y-63785714D01*
X112507142Y-63738095D01*
X112411904Y-63690476D01*
X111602380Y-63690476D01*
X111602380Y-62738095D02*
X111602380Y-63214285D01*
X112078571Y-63261904D01*
X112030952Y-63214285D01*
X111983333Y-63119047D01*
X111983333Y-62880952D01*
X112030952Y-62785714D01*
X112078571Y-62738095D01*
X112173809Y-62690476D01*
X112411904Y-62690476D01*
X112507142Y-62738095D01*
X112554761Y-62785714D01*
X112602380Y-62880952D01*
X112602380Y-63119047D01*
X112554761Y-63214285D01*
X112507142Y-63261904D01*
D11*
X111540476Y-68180000D02*
X111464285Y-68141904D01*
X111350000Y-68141904D01*
X111235714Y-68180000D01*
X111159523Y-68256190D01*
X111121428Y-68332380D01*
X111083333Y-68484761D01*
X111083333Y-68599047D01*
X111121428Y-68751428D01*
X111159523Y-68827619D01*
X111235714Y-68903809D01*
X111350000Y-68941904D01*
X111426190Y-68941904D01*
X111540476Y-68903809D01*
X111578571Y-68865714D01*
X111578571Y-68599047D01*
X111426190Y-68599047D01*
X111921428Y-68941904D02*
X111921428Y-68141904D01*
X112378571Y-68941904D01*
X112378571Y-68141904D01*
X112759523Y-68941904D02*
X112759523Y-68141904D01*
X112950000Y-68141904D01*
X113064285Y-68180000D01*
X113140476Y-68256190D01*
X113178571Y-68332380D01*
X113216666Y-68484761D01*
X113216666Y-68599047D01*
X113178571Y-68751428D01*
X113140476Y-68827619D01*
X113064285Y-68903809D01*
X112950000Y-68941904D01*
X112759523Y-68941904D01*
X124240476Y-68180000D02*
X124164285Y-68141904D01*
X124050000Y-68141904D01*
X123935714Y-68180000D01*
X123859523Y-68256190D01*
X123821428Y-68332380D01*
X123783333Y-68484761D01*
X123783333Y-68599047D01*
X123821428Y-68751428D01*
X123859523Y-68827619D01*
X123935714Y-68903809D01*
X124050000Y-68941904D01*
X124126190Y-68941904D01*
X124240476Y-68903809D01*
X124278571Y-68865714D01*
X124278571Y-68599047D01*
X124126190Y-68599047D01*
X124621428Y-68941904D02*
X124621428Y-68141904D01*
X125078571Y-68941904D01*
X125078571Y-68141904D01*
X125459523Y-68941904D02*
X125459523Y-68141904D01*
X125650000Y-68141904D01*
X125764285Y-68180000D01*
X125840476Y-68256190D01*
X125878571Y-68332380D01*
X125916666Y-68484761D01*
X125916666Y-68599047D01*
X125878571Y-68751428D01*
X125840476Y-68827619D01*
X125764285Y-68903809D01*
X125650000Y-68941904D01*
X125459523Y-68941904D01*
G04 #@! TO.C,U1*
D15*
X129692380Y-117361904D02*
X130501904Y-117361904D01*
X130597142Y-117314285D01*
X130644761Y-117266666D01*
X130692380Y-117171428D01*
X130692380Y-116980952D01*
X130644761Y-116885714D01*
X130597142Y-116838095D01*
X130501904Y-116790476D01*
X129692380Y-116790476D01*
X130692380Y-115790476D02*
X130692380Y-116361904D01*
X130692380Y-116076190D02*
X129692380Y-116076190D01*
X129835238Y-116171428D01*
X129930476Y-116266666D01*
X129978095Y-116361904D01*
X136383809Y-122402380D02*
X136955238Y-122402380D01*
X136669523Y-123402380D02*
X136669523Y-122402380D01*
X137193333Y-122402380D02*
X137812380Y-122402380D01*
X137479047Y-122783333D01*
X137621904Y-122783333D01*
X137717142Y-122830952D01*
X137764761Y-122878571D01*
X137812380Y-122973809D01*
X137812380Y-123211904D01*
X137764761Y-123307142D01*
X137717142Y-123354761D01*
X137621904Y-123402380D01*
X137336190Y-123402380D01*
X137240952Y-123354761D01*
X137193333Y-123307142D01*
X138240952Y-123307142D02*
X138288571Y-123354761D01*
X138240952Y-123402380D01*
X138193333Y-123354761D01*
X138240952Y-123307142D01*
X138240952Y-123402380D01*
X139240952Y-123402380D02*
X138669523Y-123402380D01*
X138955238Y-123402380D02*
X138955238Y-122402380D01*
X138860000Y-122545238D01*
X138764761Y-122640476D01*
X138669523Y-122688095D01*
X136383809Y-126212380D02*
X136955238Y-126212380D01*
X136669523Y-127212380D02*
X136669523Y-126212380D01*
X137193333Y-126212380D02*
X137812380Y-126212380D01*
X137479047Y-126593333D01*
X137621904Y-126593333D01*
X137717142Y-126640952D01*
X137764761Y-126688571D01*
X137812380Y-126783809D01*
X137812380Y-127021904D01*
X137764761Y-127117142D01*
X137717142Y-127164761D01*
X137621904Y-127212380D01*
X137336190Y-127212380D01*
X137240952Y-127164761D01*
X137193333Y-127117142D01*
X138240952Y-127117142D02*
X138288571Y-127164761D01*
X138240952Y-127212380D01*
X138193333Y-127164761D01*
X138240952Y-127117142D01*
X138240952Y-127212380D01*
X138669523Y-126307619D02*
X138717142Y-126260000D01*
X138812380Y-126212380D01*
X139050476Y-126212380D01*
X139145714Y-126260000D01*
X139193333Y-126307619D01*
X139240952Y-126402857D01*
X139240952Y-126498095D01*
X139193333Y-126640952D01*
X138621904Y-127212380D01*
X139240952Y-127212380D01*
G04 #@! TO.C,J1*
X162706726Y-131857500D02*
X162706726Y-132571786D01*
X162659107Y-132714643D01*
X162563869Y-132809881D01*
X162421012Y-132857500D01*
X162325774Y-132857500D01*
X163706726Y-132857500D02*
X163135298Y-132857500D01*
X163421012Y-132857500D02*
X163421012Y-131857500D01*
X163325774Y-132000358D01*
X163230536Y-132095596D01*
X163135298Y-132143215D01*
G04 #@! TO.C,J2*
X112155646Y-80143100D02*
X112155646Y-80857386D01*
X112108027Y-81000243D01*
X112012789Y-81095481D01*
X111869932Y-81143100D01*
X111774694Y-81143100D01*
X112584218Y-80238339D02*
X112631837Y-80190720D01*
X112727075Y-80143100D01*
X112965170Y-80143100D01*
X113060408Y-80190720D01*
X113108027Y-80238339D01*
X113155646Y-80333577D01*
X113155646Y-80428815D01*
X113108027Y-80571672D01*
X112536599Y-81143100D01*
X113155646Y-81143100D01*
G04 #@! TO.C,J3*
X113090366Y-103086920D02*
X113090366Y-103801206D01*
X113042747Y-103944063D01*
X112947509Y-104039301D01*
X112804652Y-104086920D01*
X112709414Y-104086920D01*
X113471319Y-103086920D02*
X114090366Y-103086920D01*
X113757033Y-103467873D01*
X113899890Y-103467873D01*
X113995128Y-103515492D01*
X114042747Y-103563111D01*
X114090366Y-103658349D01*
X114090366Y-103896444D01*
X114042747Y-103991682D01*
X113995128Y-104039301D01*
X113899890Y-104086920D01*
X113614176Y-104086920D01*
X113518938Y-104039301D01*
X113471319Y-103991682D01*
G04 #@! TO.C,J4*
X168398866Y-97102680D02*
X168398866Y-97816966D01*
X168351247Y-97959823D01*
X168256009Y-98055061D01*
X168113152Y-98102680D01*
X168017914Y-98102680D01*
X169303628Y-97436014D02*
X169303628Y-98102680D01*
X169065533Y-97055061D02*
X168827438Y-97769347D01*
X169446485Y-97769347D01*
G04 #@! TO.C,J5*
X150151506Y-82134460D02*
X150151506Y-82848746D01*
X150103887Y-82991603D01*
X150008649Y-83086841D01*
X149865792Y-83134460D01*
X149770554Y-83134460D01*
X151103887Y-82134460D02*
X150627697Y-82134460D01*
X150580078Y-82610651D01*
X150627697Y-82563032D01*
X150722935Y-82515413D01*
X150961030Y-82515413D01*
X151056268Y-82563032D01*
X151103887Y-82610651D01*
X151151506Y-82705889D01*
X151151506Y-82943984D01*
X151103887Y-83039222D01*
X151056268Y-83086841D01*
X150961030Y-83134460D01*
X150722935Y-83134460D01*
X150627697Y-83086841D01*
X150580078Y-83039222D01*
G04 #@! TO.C,J6*
X131253906Y-72185280D02*
X131253906Y-72899566D01*
X131206287Y-73042423D01*
X131111049Y-73137661D01*
X130968192Y-73185280D01*
X130872954Y-73185280D01*
X132158668Y-72185280D02*
X131968192Y-72185280D01*
X131872954Y-72232900D01*
X131825335Y-72280519D01*
X131730097Y-72423376D01*
X131682478Y-72613852D01*
X131682478Y-72994804D01*
X131730097Y-73090042D01*
X131777716Y-73137661D01*
X131872954Y-73185280D01*
X132063430Y-73185280D01*
X132158668Y-73137661D01*
X132206287Y-73090042D01*
X132253906Y-72994804D01*
X132253906Y-72756709D01*
X132206287Y-72661471D01*
X132158668Y-72613852D01*
X132063430Y-72566233D01*
X131872954Y-72566233D01*
X131777716Y-72613852D01*
X131730097Y-72661471D01*
X131682478Y-72756709D01*
G04 #@! TO.C,U2*
X170102380Y-81261904D02*
X170911904Y-81261904D01*
X171007142Y-81214285D01*
X171054761Y-81166666D01*
X171102380Y-81071428D01*
X171102380Y-80880952D01*
X171054761Y-80785714D01*
X171007142Y-80738095D01*
X170911904Y-80690476D01*
X170102380Y-80690476D01*
X170197619Y-80261904D02*
X170150000Y-80214285D01*
X170102380Y-80119047D01*
X170102380Y-79880952D01*
X170150000Y-79785714D01*
X170197619Y-79738095D01*
X170292857Y-79690476D01*
X170388095Y-79690476D01*
X170530952Y-79738095D01*
X171102380Y-80309523D01*
X171102380Y-79690476D01*
D11*
X170040476Y-85180000D02*
X169964285Y-85141904D01*
X169850000Y-85141904D01*
X169735714Y-85180000D01*
X169659523Y-85256190D01*
X169621428Y-85332380D01*
X169583333Y-85484761D01*
X169583333Y-85599047D01*
X169621428Y-85751428D01*
X169659523Y-85827619D01*
X169735714Y-85903809D01*
X169850000Y-85941904D01*
X169926190Y-85941904D01*
X170040476Y-85903809D01*
X170078571Y-85865714D01*
X170078571Y-85599047D01*
X169926190Y-85599047D01*
X170421428Y-85941904D02*
X170421428Y-85141904D01*
X170878571Y-85941904D01*
X170878571Y-85141904D01*
X171259523Y-85941904D02*
X171259523Y-85141904D01*
X171450000Y-85141904D01*
X171564285Y-85180000D01*
X171640476Y-85256190D01*
X171678571Y-85332380D01*
X171716666Y-85484761D01*
X171716666Y-85599047D01*
X171678571Y-85751428D01*
X171640476Y-85827619D01*
X171564285Y-85903809D01*
X171450000Y-85941904D01*
X171259523Y-85941904D01*
X182740476Y-85180000D02*
X182664285Y-85141904D01*
X182550000Y-85141904D01*
X182435714Y-85180000D01*
X182359523Y-85256190D01*
X182321428Y-85332380D01*
X182283333Y-85484761D01*
X182283333Y-85599047D01*
X182321428Y-85751428D01*
X182359523Y-85827619D01*
X182435714Y-85903809D01*
X182550000Y-85941904D01*
X182626190Y-85941904D01*
X182740476Y-85903809D01*
X182778571Y-85865714D01*
X182778571Y-85599047D01*
X182626190Y-85599047D01*
X183121428Y-85941904D02*
X183121428Y-85141904D01*
X183578571Y-85941904D01*
X183578571Y-85141904D01*
X183959523Y-85941904D02*
X183959523Y-85141904D01*
X184150000Y-85141904D01*
X184264285Y-85180000D01*
X184340476Y-85256190D01*
X184378571Y-85332380D01*
X184416666Y-85484761D01*
X184416666Y-85599047D01*
X184378571Y-85751428D01*
X184340476Y-85827619D01*
X184264285Y-85903809D01*
X184150000Y-85941904D01*
X183959523Y-85941904D01*
G04 #@! TO.C,U3*
D15*
X150602380Y-66261904D02*
X151411904Y-66261904D01*
X151507142Y-66214285D01*
X151554761Y-66166666D01*
X151602380Y-66071428D01*
X151602380Y-65880952D01*
X151554761Y-65785714D01*
X151507142Y-65738095D01*
X151411904Y-65690476D01*
X150602380Y-65690476D01*
X150602380Y-65309523D02*
X150602380Y-64690476D01*
X150983333Y-65023809D01*
X150983333Y-64880952D01*
X151030952Y-64785714D01*
X151078571Y-64738095D01*
X151173809Y-64690476D01*
X151411904Y-64690476D01*
X151507142Y-64738095D01*
X151554761Y-64785714D01*
X151602380Y-64880952D01*
X151602380Y-65166666D01*
X151554761Y-65261904D01*
X151507142Y-65309523D01*
D11*
X163240476Y-70180000D02*
X163164285Y-70141904D01*
X163050000Y-70141904D01*
X162935714Y-70180000D01*
X162859523Y-70256190D01*
X162821428Y-70332380D01*
X162783333Y-70484761D01*
X162783333Y-70599047D01*
X162821428Y-70751428D01*
X162859523Y-70827619D01*
X162935714Y-70903809D01*
X163050000Y-70941904D01*
X163126190Y-70941904D01*
X163240476Y-70903809D01*
X163278571Y-70865714D01*
X163278571Y-70599047D01*
X163126190Y-70599047D01*
X163621428Y-70941904D02*
X163621428Y-70141904D01*
X164078571Y-70941904D01*
X164078571Y-70141904D01*
X164459523Y-70941904D02*
X164459523Y-70141904D01*
X164650000Y-70141904D01*
X164764285Y-70180000D01*
X164840476Y-70256190D01*
X164878571Y-70332380D01*
X164916666Y-70484761D01*
X164916666Y-70599047D01*
X164878571Y-70751428D01*
X164840476Y-70827619D01*
X164764285Y-70903809D01*
X164650000Y-70941904D01*
X164459523Y-70941904D01*
X150540476Y-70180000D02*
X150464285Y-70141904D01*
X150350000Y-70141904D01*
X150235714Y-70180000D01*
X150159523Y-70256190D01*
X150121428Y-70332380D01*
X150083333Y-70484761D01*
X150083333Y-70599047D01*
X150121428Y-70751428D01*
X150159523Y-70827619D01*
X150235714Y-70903809D01*
X150350000Y-70941904D01*
X150426190Y-70941904D01*
X150540476Y-70903809D01*
X150578571Y-70865714D01*
X150578571Y-70599047D01*
X150426190Y-70599047D01*
X150921428Y-70941904D02*
X150921428Y-70141904D01*
X151378571Y-70941904D01*
X151378571Y-70141904D01*
X151759523Y-70941904D02*
X151759523Y-70141904D01*
X151950000Y-70141904D01*
X152064285Y-70180000D01*
X152140476Y-70256190D01*
X152178571Y-70332380D01*
X152216666Y-70484761D01*
X152216666Y-70599047D01*
X152178571Y-70751428D01*
X152140476Y-70827619D01*
X152064285Y-70903809D01*
X151950000Y-70941904D01*
X151759523Y-70941904D01*
G04 #@! TO.C,U4*
D15*
X131602380Y-56261904D02*
X132411904Y-56261904D01*
X132507142Y-56214285D01*
X132554761Y-56166666D01*
X132602380Y-56071428D01*
X132602380Y-55880952D01*
X132554761Y-55785714D01*
X132507142Y-55738095D01*
X132411904Y-55690476D01*
X131602380Y-55690476D01*
X131935714Y-54785714D02*
X132602380Y-54785714D01*
X131554761Y-55023809D02*
X132269047Y-55261904D01*
X132269047Y-54642857D01*
D11*
X144240476Y-60180000D02*
X144164285Y-60141904D01*
X144050000Y-60141904D01*
X143935714Y-60180000D01*
X143859523Y-60256190D01*
X143821428Y-60332380D01*
X143783333Y-60484761D01*
X143783333Y-60599047D01*
X143821428Y-60751428D01*
X143859523Y-60827619D01*
X143935714Y-60903809D01*
X144050000Y-60941904D01*
X144126190Y-60941904D01*
X144240476Y-60903809D01*
X144278571Y-60865714D01*
X144278571Y-60599047D01*
X144126190Y-60599047D01*
X144621428Y-60941904D02*
X144621428Y-60141904D01*
X145078571Y-60941904D01*
X145078571Y-60141904D01*
X145459523Y-60941904D02*
X145459523Y-60141904D01*
X145650000Y-60141904D01*
X145764285Y-60180000D01*
X145840476Y-60256190D01*
X145878571Y-60332380D01*
X145916666Y-60484761D01*
X145916666Y-60599047D01*
X145878571Y-60751428D01*
X145840476Y-60827619D01*
X145764285Y-60903809D01*
X145650000Y-60941904D01*
X145459523Y-60941904D01*
X131540476Y-60180000D02*
X131464285Y-60141904D01*
X131350000Y-60141904D01*
X131235714Y-60180000D01*
X131159523Y-60256190D01*
X131121428Y-60332380D01*
X131083333Y-60484761D01*
X131083333Y-60599047D01*
X131121428Y-60751428D01*
X131159523Y-60827619D01*
X131235714Y-60903809D01*
X131350000Y-60941904D01*
X131426190Y-60941904D01*
X131540476Y-60903809D01*
X131578571Y-60865714D01*
X131578571Y-60599047D01*
X131426190Y-60599047D01*
X131921428Y-60941904D02*
X131921428Y-60141904D01*
X132378571Y-60941904D01*
X132378571Y-60141904D01*
X132759523Y-60941904D02*
X132759523Y-60141904D01*
X132950000Y-60141904D01*
X133064285Y-60180000D01*
X133140476Y-60256190D01*
X133178571Y-60332380D01*
X133216666Y-60484761D01*
X133216666Y-60599047D01*
X133178571Y-60751428D01*
X133140476Y-60827619D01*
X133064285Y-60903809D01*
X132950000Y-60941904D01*
X132759523Y-60941904D01*
G04 #@! TO.C,U6*
D15*
X122738095Y-130952380D02*
X122738095Y-131761904D01*
X122785714Y-131857142D01*
X122833333Y-131904761D01*
X122928571Y-131952380D01*
X123119047Y-131952380D01*
X123214285Y-131904761D01*
X123261904Y-131857142D01*
X123309523Y-131761904D01*
X123309523Y-130952380D01*
X124214285Y-130952380D02*
X124023809Y-130952380D01*
X123928571Y-131000000D01*
X123880952Y-131047619D01*
X123785714Y-131190476D01*
X123738095Y-131380952D01*
X123738095Y-131761904D01*
X123785714Y-131857142D01*
X123833333Y-131904761D01*
X123928571Y-131952380D01*
X124119047Y-131952380D01*
X124214285Y-131904761D01*
X124261904Y-131857142D01*
X124309523Y-131761904D01*
X124309523Y-131523809D01*
X124261904Y-131428571D01*
X124214285Y-131380952D01*
X124119047Y-131333333D01*
X123928571Y-131333333D01*
X123833333Y-131380952D01*
X123785714Y-131428571D01*
X123738095Y-131523809D01*
D11*
X118890476Y-131100000D02*
X118814285Y-131061904D01*
X118700000Y-131061904D01*
X118585714Y-131100000D01*
X118509523Y-131176190D01*
X118471428Y-131252380D01*
X118433333Y-131404761D01*
X118433333Y-131519047D01*
X118471428Y-131671428D01*
X118509523Y-131747619D01*
X118585714Y-131823809D01*
X118700000Y-131861904D01*
X118776190Y-131861904D01*
X118890476Y-131823809D01*
X118928571Y-131785714D01*
X118928571Y-131519047D01*
X118776190Y-131519047D01*
X119271428Y-131861904D02*
X119271428Y-131061904D01*
X119728571Y-131861904D01*
X119728571Y-131061904D01*
X120109523Y-131861904D02*
X120109523Y-131061904D01*
X120300000Y-131061904D01*
X120414285Y-131100000D01*
X120490476Y-131176190D01*
X120528571Y-131252380D01*
X120566666Y-131404761D01*
X120566666Y-131519047D01*
X120528571Y-131671428D01*
X120490476Y-131747619D01*
X120414285Y-131823809D01*
X120300000Y-131861904D01*
X120109523Y-131861904D01*
X126890476Y-131100000D02*
X126814285Y-131061904D01*
X126700000Y-131061904D01*
X126585714Y-131100000D01*
X126509523Y-131176190D01*
X126471428Y-131252380D01*
X126433333Y-131404761D01*
X126433333Y-131519047D01*
X126471428Y-131671428D01*
X126509523Y-131747619D01*
X126585714Y-131823809D01*
X126700000Y-131861904D01*
X126776190Y-131861904D01*
X126890476Y-131823809D01*
X126928571Y-131785714D01*
X126928571Y-131519047D01*
X126776190Y-131519047D01*
X127271428Y-131861904D02*
X127271428Y-131061904D01*
X127728571Y-131861904D01*
X127728571Y-131061904D01*
X128109523Y-131861904D02*
X128109523Y-131061904D01*
X128300000Y-131061904D01*
X128414285Y-131100000D01*
X128490476Y-131176190D01*
X128528571Y-131252380D01*
X128566666Y-131404761D01*
X128566666Y-131519047D01*
X128528571Y-131671428D01*
X128490476Y-131747619D01*
X128414285Y-131823809D01*
X128300000Y-131861904D01*
X128109523Y-131861904D01*
G04 #@! TO.C,J7*
D15*
X151845686Y-131954020D02*
X151845686Y-132668306D01*
X151798067Y-132811163D01*
X151702829Y-132906401D01*
X151559972Y-132954020D01*
X151464734Y-132954020D01*
X152226639Y-131954020D02*
X152893305Y-131954020D01*
X152464734Y-132954020D01*
G04 #@! TD*
M02*
