M48
; DRILL file {KiCad 9.0.9.1} date 2026-07-10T20:54:57+0200
; FORMAT={-:-/ absolute / metric / decimal}
; #@! TF.CreationDate,2026-07-10T20:54:57+02:00
; #@! TF.GenerationSoftware,Kicad,Pcbnew,9.0.9.1
; #@! TF.FileFunction,Plated,1,2,PTH
FMAT,2
METRIC
; #@! TA.AperFunction,Plated,PTH,ComponentDrill
T1C0.762
; #@! TA.AperFunction,Plated,PTH,ComponentDrill
T2C1.000
; #@! TA.AperFunction,Plated,PTH,ComponentDrill
T3C1.067
; #@! TA.AperFunction,Plated,PTH,ComponentDrill
T4C1.100
; #@! TA.AperFunction,Plated,PTH,ComponentDrill
T5C1.110
; #@! TA.AperFunction,Plated,PTH,ComponentDrill
T6C2.464
%
G90
G05
T1
X178.96Y-116.293
X178.96Y-121.373
T2
X114.48Y-78.7
X117.02Y-78.7
X119.56Y-78.7
X122.1Y-78.7
X124.25Y-117.05
X124.25Y-119.59
X124.25Y-122.13
X124.25Y-124.67
X124.25Y-127.21
X124.25Y-129.75
X124.25Y-133.11
X124.64Y-78.7
X126.79Y-133.11
X127.18Y-78.7
X132.49Y-70.71
X135.03Y-70.71
X137.57Y-70.71
X140.11Y-70.71
X142.65Y-70.71
X145.19Y-70.71
X152.0Y-80.71
X152.62Y-123.41
X152.99Y-135.08
X154.54Y-80.71
X155.16Y-123.41
X155.34Y-119.1
X155.53Y-135.08
X157.08Y-80.71
X157.7Y-123.41
X157.88Y-119.1
X158.07Y-135.08
X159.62Y-80.71
X160.24Y-123.41
X160.42Y-119.1
X162.16Y-80.71
X162.78Y-123.41
X162.96Y-119.1
X164.7Y-80.71
X165.32Y-123.41
X168.77Y-95.7
X171.31Y-95.7
X173.85Y-95.7
X174.16Y-132.09
X176.39Y-95.7
X176.7Y-132.09
X178.93Y-95.7
X179.24Y-132.09
X181.47Y-95.7
T3
X164.5Y-130.0
X164.5Y-133.0
X167.5Y-130.0
X167.5Y-133.0
T4
X114.69Y-58.42
X114.69Y-60.96
X114.69Y-63.5
X114.69Y-66.04
X114.69Y-68.58
X115.0Y-97.5
X115.0Y-100.04
X115.0Y-102.58
X115.0Y-105.12
X115.0Y-107.66
X122.31Y-58.42
X122.31Y-60.96
X122.31Y-63.5
X122.31Y-66.04
X122.31Y-68.58
X122.62Y-97.5
X122.62Y-100.04
X122.62Y-102.58
X122.62Y-105.12
X122.62Y-107.66
X132.2Y-100.09
X132.2Y-102.63
X132.2Y-105.17
X132.2Y-107.71
X132.2Y-110.25
X132.2Y-112.79
X132.2Y-115.33
X132.2Y-117.87
X132.2Y-120.41
X132.2Y-122.95
X132.2Y-125.49
X132.2Y-128.03
X132.2Y-130.57
X132.2Y-133.11
X134.69Y-50.42
X134.69Y-52.96
X134.69Y-55.5
X134.69Y-58.04
X134.69Y-60.58
X142.31Y-50.42
X142.31Y-52.96
X142.31Y-55.5
X142.31Y-58.04
X142.31Y-60.58
X147.44Y-100.09
X147.44Y-102.63
X147.44Y-105.17
X147.44Y-107.71
X147.44Y-110.25
X147.44Y-112.79
X147.44Y-115.33
X147.44Y-117.87
X147.44Y-120.41
X147.44Y-122.95
X147.44Y-125.49
X147.44Y-128.03
X147.44Y-130.57
X147.44Y-133.11
X153.69Y-60.42
X153.69Y-62.96
X153.69Y-65.5
X153.69Y-68.04
X153.69Y-70.58
X161.31Y-60.42
X161.31Y-62.96
X161.31Y-65.5
X161.31Y-68.04
X161.31Y-70.58
X173.19Y-75.42
X173.19Y-77.96
X173.19Y-80.5
X173.19Y-83.04
X173.19Y-85.58
X180.81Y-75.42
X180.81Y-77.96
X180.81Y-80.5
X180.81Y-83.04
X180.81Y-85.58
T5
X173.88Y-110.49
X176.42Y-110.49
X178.96Y-110.49
T6
X162.35Y-131.5
X169.65Y-131.5
M30
