G04 #@! TF.GenerationSoftware,KiCad,Pcbnew,9.0.7*
G04 #@! TF.CreationDate,2026-07-10T20:11:25+02:00*
G04 #@! TF.ProjectId,DorsalTPMG90.kicad_pro,446f7273-616c-4545-904d-4739302e6b69,v02*
G04 #@! TF.SameCoordinates,Original*
G04 #@! TF.FileFunction,Legend,Top*
G04 #@! TF.FilePolarity,Positive*
%FSLAX46Y46*%
G04 Gerber Fmt 4.6, Leading zero omitted, Abs format (unit mm)*
G04 Created by KiCad (PCBNEW 9.0.7) date 2026-07-10 20:11:25*
%MOMM*%
%LPD*%
G01*
G04 APERTURE LIST*
%ADD10C,0.100000*%
%ADD11C,0.250000*%
%ADD12C,0.300000*%
%ADD13C,0.125000*%
%ADD14C,0.187500*%
%ADD15C,0.200000*%
%ADD16C,0.150000*%
%ADD17C,0.254000*%
%ADD18C,0.010000*%
%ADD19C,0.120000*%
%ADD20C,0.160000*%
%ADD21C,0.152400*%
%ADD22C,0.508000*%
G04 APERTURE END LIST*
D10*
X154030000Y-92180000D02*
X155130000Y-92180000D01*
X155530000Y-92180000D02*
X156630000Y-92180000D01*
X157030000Y-92180000D02*
X158130000Y-92180000D01*
X158530000Y-92180000D02*
X159630000Y-92180000D01*
X160030000Y-92180000D02*
X161130000Y-92180000D01*
X161530000Y-92180000D02*
X162630000Y-92180000D01*
X163030000Y-92180000D02*
X164130000Y-92180000D01*
X164270000Y-92180000D02*
X164270000Y-93280000D01*
X164270000Y-93680000D02*
X164270000Y-94780000D01*
X164270000Y-95180000D02*
X164270000Y-96280000D01*
X164270000Y-96680000D02*
X164270000Y-97780000D01*
X164270000Y-98180000D02*
X164270000Y-99280000D01*
X164270000Y-99680000D02*
X164270000Y-100780000D01*
X164270000Y-101180000D02*
X164270000Y-102280000D01*
X164270000Y-102680000D02*
X164270000Y-103780000D01*
X164270000Y-104180000D02*
X164270000Y-105280000D01*
X164270000Y-105680000D02*
X164270000Y-106780000D01*
X164270000Y-107180000D02*
X164270000Y-108280000D01*
X164270000Y-108680000D02*
X164270000Y-109780000D01*
X164270000Y-110180000D02*
X164270000Y-111280000D01*
X164270000Y-111680000D02*
X164270000Y-112780000D01*
X164270000Y-113180000D02*
X164270000Y-114280000D01*
X164270000Y-114680000D02*
X164270000Y-115780000D01*
X164270000Y-116180000D02*
X164270000Y-117280000D01*
X164270000Y-117680000D02*
X164270000Y-118780000D01*
X164270000Y-119100000D02*
X163170000Y-119100000D01*
X162770000Y-119100000D02*
X161670000Y-119100000D01*
X161270000Y-119100000D02*
X160170000Y-119100000D01*
X159770000Y-119100000D02*
X158670000Y-119100000D01*
X158270000Y-119100000D02*
X157170000Y-119100000D01*
X156770000Y-119100000D02*
X155670000Y-119100000D01*
X155270000Y-119100000D02*
X154170000Y-119100000D01*
X154030000Y-119100000D02*
X154030000Y-118000000D01*
X154030000Y-117600000D02*
X154030000Y-116500000D01*
X154030000Y-116100000D02*
X154030000Y-115000000D01*
X154030000Y-114600000D02*
X154030000Y-113500000D01*
X154030000Y-113100000D02*
X154030000Y-112000000D01*
X154030000Y-111600000D02*
X154030000Y-110500000D01*
X154030000Y-110100000D02*
X154030000Y-109000000D01*
X154030000Y-108600000D02*
X154030000Y-107500000D01*
X154030000Y-107100000D02*
X154030000Y-106000000D01*
X154030000Y-105600000D02*
X154030000Y-104500000D01*
X154030000Y-104100000D02*
X154030000Y-103000000D01*
X154030000Y-102600000D02*
X154030000Y-101500000D01*
X154030000Y-101100000D02*
X154030000Y-100000000D01*
X154030000Y-99600000D02*
X154030000Y-98500000D01*
X154030000Y-98100000D02*
X154030000Y-97000000D01*
X154030000Y-96600000D02*
X154030000Y-95500000D01*
X154030000Y-95100000D02*
X154030000Y-94000000D01*
X154030000Y-93600000D02*
X154030000Y-92500000D01*
X150720000Y-85910000D02*
X151820000Y-85910000D01*
X152220000Y-85910000D02*
X153320000Y-85910000D01*
X153720000Y-85910000D02*
X154820000Y-85910000D01*
X155220000Y-85910000D02*
X156320000Y-85910000D01*
X156720000Y-85910000D02*
X157820000Y-85910000D01*
X158220000Y-85910000D02*
X159320000Y-85910000D01*
X159720000Y-85910000D02*
X160820000Y-85910000D01*
X161220000Y-85910000D02*
X162320000Y-85910000D01*
X162720000Y-85910000D02*
X163820000Y-85910000D01*
X164220000Y-85910000D02*
X165320000Y-85910000D01*
X165720000Y-85910000D02*
X166820000Y-85910000D01*
X167220000Y-85910000D02*
X167220000Y-85910000D01*
X167220000Y-85910000D02*
X167220000Y-87010000D01*
X167220000Y-87410000D02*
X167220000Y-88510000D01*
X167220000Y-88910000D02*
X167220000Y-90010000D01*
X167220000Y-90410000D02*
X167220000Y-91510000D01*
X167220000Y-91910000D02*
X167220000Y-93010000D01*
X167220000Y-93410000D02*
X167220000Y-94510000D01*
X167220000Y-94910000D02*
X167220000Y-96010000D01*
X167220000Y-96410000D02*
X167220000Y-97510000D01*
X167220000Y-97910000D02*
X167220000Y-99010000D01*
X167220000Y-99410000D02*
X167220000Y-100510000D01*
X167220000Y-100910000D02*
X167220000Y-102010000D01*
X167220000Y-102410000D02*
X167220000Y-103510000D01*
X167220000Y-103910000D02*
X167220000Y-105010000D01*
X167220000Y-105410000D02*
X167220000Y-106510000D01*
X167220000Y-106910000D02*
X167220000Y-108010000D01*
X167220000Y-108410000D02*
X167220000Y-109510000D01*
X167220000Y-109910000D02*
X167220000Y-111010000D01*
X167220000Y-111410000D02*
X167220000Y-112510000D01*
X167220000Y-112910000D02*
X167220000Y-114010000D01*
X167220000Y-114410000D02*
X167220000Y-115510000D01*
X167220000Y-115910000D02*
X167220000Y-117010000D01*
X167220000Y-117410000D02*
X167220000Y-118510000D01*
X167220000Y-118910000D02*
X167220000Y-120010000D01*
X167220000Y-120410000D02*
X167220000Y-121510000D01*
X167220000Y-121910000D02*
X167220000Y-123010000D01*
X167220000Y-123410000D02*
X167220000Y-123410000D01*
X167220000Y-123410000D02*
X166120000Y-123410000D01*
X165720000Y-123410000D02*
X164620000Y-123410000D01*
X164220000Y-123410000D02*
X163120000Y-123410000D01*
X162720000Y-123410000D02*
X161620000Y-123410000D01*
X161220000Y-123410000D02*
X160120000Y-123410000D01*
X159720000Y-123410000D02*
X158620000Y-123410000D01*
X158220000Y-123410000D02*
X157120000Y-123410000D01*
X156720000Y-123410000D02*
X155620000Y-123410000D01*
X155220000Y-123410000D02*
X154120000Y-123410000D01*
X153720000Y-123410000D02*
X152620000Y-123410000D01*
X152220000Y-123410000D02*
X151120000Y-123410000D01*
X150720000Y-123410000D02*
X150720000Y-123410000D01*
X150720000Y-123410000D02*
X150720000Y-122310000D01*
X150720000Y-121910000D02*
X150720000Y-120810000D01*
X150720000Y-120410000D02*
X150720000Y-119310000D01*
X150720000Y-118910000D02*
X150720000Y-117810000D01*
X150720000Y-117410000D02*
X150720000Y-116310000D01*
X150720000Y-115910000D02*
X150720000Y-114810000D01*
X150720000Y-114410000D02*
X150720000Y-113310000D01*
X150720000Y-112910000D02*
X150720000Y-111810000D01*
X150720000Y-111410000D02*
X150720000Y-110310000D01*
X150720000Y-109910000D02*
X150720000Y-108810000D01*
X150720000Y-108410000D02*
X150720000Y-107310000D01*
X150720000Y-106910000D02*
X150720000Y-105810000D01*
X150720000Y-105410000D02*
X150720000Y-104310000D01*
X150720000Y-103910000D02*
X150720000Y-102810000D01*
X150720000Y-102410000D02*
X150720000Y-101310000D01*
X150720000Y-100910000D02*
X150720000Y-99810000D01*
X150720000Y-99410000D02*
X150720000Y-98310000D01*
X150720000Y-97910000D02*
X150720000Y-96810000D01*
X150720000Y-96410000D02*
X150720000Y-95310000D01*
X150720000Y-94910000D02*
X150720000Y-93810000D01*
X150720000Y-93410000D02*
X150720000Y-92310000D01*
X150720000Y-91910000D02*
X150720000Y-90810000D01*
X150720000Y-90410000D02*
X150720000Y-89310000D01*
X150720000Y-88910000D02*
X150720000Y-87810000D01*
X150720000Y-87410000D02*
X150720000Y-86310000D01*
X150720000Y-85910000D02*
X150720000Y-85910000D01*
D11*
X137960952Y-97019619D02*
X138532380Y-97019619D01*
X138246666Y-98019619D02*
X138246666Y-97019619D01*
X138865714Y-97495809D02*
X139199047Y-97495809D01*
X139341904Y-98019619D02*
X138865714Y-98019619D01*
X138865714Y-98019619D02*
X138865714Y-97019619D01*
X138865714Y-97019619D02*
X139341904Y-97019619D01*
X139770476Y-97495809D02*
X140103809Y-97495809D01*
X140246666Y-98019619D02*
X139770476Y-98019619D01*
X139770476Y-98019619D02*
X139770476Y-97019619D01*
X139770476Y-97019619D02*
X140246666Y-97019619D01*
X140675238Y-98019619D02*
X140675238Y-97019619D01*
X140675238Y-97019619D02*
X141246666Y-98019619D01*
X141246666Y-98019619D02*
X141246666Y-97019619D01*
X141675238Y-97972000D02*
X141818095Y-98019619D01*
X141818095Y-98019619D02*
X142056190Y-98019619D01*
X142056190Y-98019619D02*
X142151428Y-97972000D01*
X142151428Y-97972000D02*
X142199047Y-97924380D01*
X142199047Y-97924380D02*
X142246666Y-97829142D01*
X142246666Y-97829142D02*
X142246666Y-97733904D01*
X142246666Y-97733904D02*
X142199047Y-97638666D01*
X142199047Y-97638666D02*
X142151428Y-97591047D01*
X142151428Y-97591047D02*
X142056190Y-97543428D01*
X142056190Y-97543428D02*
X141865714Y-97495809D01*
X141865714Y-97495809D02*
X141770476Y-97448190D01*
X141770476Y-97448190D02*
X141722857Y-97400571D01*
X141722857Y-97400571D02*
X141675238Y-97305333D01*
X141675238Y-97305333D02*
X141675238Y-97210095D01*
X141675238Y-97210095D02*
X141722857Y-97114857D01*
X141722857Y-97114857D02*
X141770476Y-97067238D01*
X141770476Y-97067238D02*
X141865714Y-97019619D01*
X141865714Y-97019619D02*
X142103809Y-97019619D01*
X142103809Y-97019619D02*
X142246666Y-97067238D01*
X142865714Y-97543428D02*
X142865714Y-98019619D01*
X142532381Y-97019619D02*
X142865714Y-97543428D01*
X142865714Y-97543428D02*
X143199047Y-97019619D01*
D12*
X135325130Y-92562308D02*
X134825130Y-91848022D01*
X134467987Y-92562308D02*
X134467987Y-91062308D01*
X134467987Y-91062308D02*
X135039416Y-91062308D01*
X135039416Y-91062308D02*
X135182273Y-91133737D01*
X135182273Y-91133737D02*
X135253702Y-91205165D01*
X135253702Y-91205165D02*
X135325130Y-91348022D01*
X135325130Y-91348022D02*
X135325130Y-91562308D01*
X135325130Y-91562308D02*
X135253702Y-91705165D01*
X135253702Y-91705165D02*
X135182273Y-91776594D01*
X135182273Y-91776594D02*
X135039416Y-91848022D01*
X135039416Y-91848022D02*
X134467987Y-91848022D01*
X136182273Y-92562308D02*
X136039416Y-92490880D01*
X136039416Y-92490880D02*
X135967987Y-92419451D01*
X135967987Y-92419451D02*
X135896559Y-92276594D01*
X135896559Y-92276594D02*
X135896559Y-91848022D01*
X135896559Y-91848022D02*
X135967987Y-91705165D01*
X135967987Y-91705165D02*
X136039416Y-91633737D01*
X136039416Y-91633737D02*
X136182273Y-91562308D01*
X136182273Y-91562308D02*
X136396559Y-91562308D01*
X136396559Y-91562308D02*
X136539416Y-91633737D01*
X136539416Y-91633737D02*
X136610845Y-91705165D01*
X136610845Y-91705165D02*
X136682273Y-91848022D01*
X136682273Y-91848022D02*
X136682273Y-92276594D01*
X136682273Y-92276594D02*
X136610845Y-92419451D01*
X136610845Y-92419451D02*
X136539416Y-92490880D01*
X136539416Y-92490880D02*
X136396559Y-92562308D01*
X136396559Y-92562308D02*
X136182273Y-92562308D01*
X137325130Y-92562308D02*
X137325130Y-91062308D01*
X137325130Y-91633737D02*
X137467988Y-91562308D01*
X137467988Y-91562308D02*
X137753702Y-91562308D01*
X137753702Y-91562308D02*
X137896559Y-91633737D01*
X137896559Y-91633737D02*
X137967988Y-91705165D01*
X137967988Y-91705165D02*
X138039416Y-91848022D01*
X138039416Y-91848022D02*
X138039416Y-92276594D01*
X138039416Y-92276594D02*
X137967988Y-92419451D01*
X137967988Y-92419451D02*
X137896559Y-92490880D01*
X137896559Y-92490880D02*
X137753702Y-92562308D01*
X137753702Y-92562308D02*
X137467988Y-92562308D01*
X137467988Y-92562308D02*
X137325130Y-92490880D01*
X138896559Y-92562308D02*
X138753702Y-92490880D01*
X138753702Y-92490880D02*
X138682273Y-92419451D01*
X138682273Y-92419451D02*
X138610845Y-92276594D01*
X138610845Y-92276594D02*
X138610845Y-91848022D01*
X138610845Y-91848022D02*
X138682273Y-91705165D01*
X138682273Y-91705165D02*
X138753702Y-91633737D01*
X138753702Y-91633737D02*
X138896559Y-91562308D01*
X138896559Y-91562308D02*
X139110845Y-91562308D01*
X139110845Y-91562308D02*
X139253702Y-91633737D01*
X139253702Y-91633737D02*
X139325131Y-91705165D01*
X139325131Y-91705165D02*
X139396559Y-91848022D01*
X139396559Y-91848022D02*
X139396559Y-92276594D01*
X139396559Y-92276594D02*
X139325131Y-92419451D01*
X139325131Y-92419451D02*
X139253702Y-92490880D01*
X139253702Y-92490880D02*
X139110845Y-92562308D01*
X139110845Y-92562308D02*
X138896559Y-92562308D01*
X139825131Y-91562308D02*
X140396559Y-91562308D01*
X140039416Y-91062308D02*
X140039416Y-92348022D01*
X140039416Y-92348022D02*
X140110845Y-92490880D01*
X140110845Y-92490880D02*
X140253702Y-92562308D01*
X140253702Y-92562308D02*
X140396559Y-92562308D01*
X140896559Y-92562308D02*
X140896559Y-91562308D01*
X140896559Y-91062308D02*
X140825131Y-91133737D01*
X140825131Y-91133737D02*
X140896559Y-91205165D01*
X140896559Y-91205165D02*
X140967988Y-91133737D01*
X140967988Y-91133737D02*
X140896559Y-91062308D01*
X140896559Y-91062308D02*
X140896559Y-91205165D01*
X142253703Y-92490880D02*
X142110845Y-92562308D01*
X142110845Y-92562308D02*
X141825131Y-92562308D01*
X141825131Y-92562308D02*
X141682274Y-92490880D01*
X141682274Y-92490880D02*
X141610845Y-92419451D01*
X141610845Y-92419451D02*
X141539417Y-92276594D01*
X141539417Y-92276594D02*
X141539417Y-91848022D01*
X141539417Y-91848022D02*
X141610845Y-91705165D01*
X141610845Y-91705165D02*
X141682274Y-91633737D01*
X141682274Y-91633737D02*
X141825131Y-91562308D01*
X141825131Y-91562308D02*
X142110845Y-91562308D01*
X142110845Y-91562308D02*
X142253703Y-91633737D01*
X142825131Y-92490880D02*
X142967988Y-92562308D01*
X142967988Y-92562308D02*
X143253702Y-92562308D01*
X143253702Y-92562308D02*
X143396559Y-92490880D01*
X143396559Y-92490880D02*
X143467988Y-92348022D01*
X143467988Y-92348022D02*
X143467988Y-92276594D01*
X143467988Y-92276594D02*
X143396559Y-92133737D01*
X143396559Y-92133737D02*
X143253702Y-92062308D01*
X143253702Y-92062308D02*
X143039417Y-92062308D01*
X143039417Y-92062308D02*
X142896559Y-91990880D01*
X142896559Y-91990880D02*
X142825131Y-91848022D01*
X142825131Y-91848022D02*
X142825131Y-91776594D01*
X142825131Y-91776594D02*
X142896559Y-91633737D01*
X142896559Y-91633737D02*
X143039417Y-91562308D01*
X143039417Y-91562308D02*
X143253702Y-91562308D01*
X143253702Y-91562308D02*
X143396559Y-91633737D01*
X144825131Y-92562308D02*
X144110845Y-92562308D01*
X144110845Y-92562308D02*
X144110845Y-91062308D01*
X145967989Y-92562308D02*
X145967989Y-91776594D01*
X145967989Y-91776594D02*
X145896560Y-91633737D01*
X145896560Y-91633737D02*
X145753703Y-91562308D01*
X145753703Y-91562308D02*
X145467989Y-91562308D01*
X145467989Y-91562308D02*
X145325131Y-91633737D01*
X145967989Y-92490880D02*
X145825131Y-92562308D01*
X145825131Y-92562308D02*
X145467989Y-92562308D01*
X145467989Y-92562308D02*
X145325131Y-92490880D01*
X145325131Y-92490880D02*
X145253703Y-92348022D01*
X145253703Y-92348022D02*
X145253703Y-92205165D01*
X145253703Y-92205165D02*
X145325131Y-92062308D01*
X145325131Y-92062308D02*
X145467989Y-91990880D01*
X145467989Y-91990880D02*
X145825131Y-91990880D01*
X145825131Y-91990880D02*
X145967989Y-91919451D01*
X146682274Y-92562308D02*
X146682274Y-91062308D01*
X146682274Y-91633737D02*
X146825132Y-91562308D01*
X146825132Y-91562308D02*
X147110846Y-91562308D01*
X147110846Y-91562308D02*
X147253703Y-91633737D01*
X147253703Y-91633737D02*
X147325132Y-91705165D01*
X147325132Y-91705165D02*
X147396560Y-91848022D01*
X147396560Y-91848022D02*
X147396560Y-92276594D01*
X147396560Y-92276594D02*
X147325132Y-92419451D01*
X147325132Y-92419451D02*
X147253703Y-92490880D01*
X147253703Y-92490880D02*
X147110846Y-92562308D01*
X147110846Y-92562308D02*
X146825132Y-92562308D01*
X146825132Y-92562308D02*
X146682274Y-92490880D01*
D13*
X154879048Y-82872309D02*
X155212381Y-82872309D01*
X155355238Y-83396119D02*
X154879048Y-83396119D01*
X154879048Y-83396119D02*
X154879048Y-82396119D01*
X154879048Y-82396119D02*
X155355238Y-82396119D01*
X155783810Y-83396119D02*
X155783810Y-82396119D01*
X155783810Y-82396119D02*
X156355238Y-83396119D01*
X156355238Y-83396119D02*
X156355238Y-82396119D01*
X157402857Y-83300880D02*
X157355238Y-83348500D01*
X157355238Y-83348500D02*
X157212381Y-83396119D01*
X157212381Y-83396119D02*
X157117143Y-83396119D01*
X157117143Y-83396119D02*
X156974286Y-83348500D01*
X156974286Y-83348500D02*
X156879048Y-83253261D01*
X156879048Y-83253261D02*
X156831429Y-83158023D01*
X156831429Y-83158023D02*
X156783810Y-82967547D01*
X156783810Y-82967547D02*
X156783810Y-82824690D01*
X156783810Y-82824690D02*
X156831429Y-82634214D01*
X156831429Y-82634214D02*
X156879048Y-82538976D01*
X156879048Y-82538976D02*
X156974286Y-82443738D01*
X156974286Y-82443738D02*
X157117143Y-82396119D01*
X157117143Y-82396119D02*
X157212381Y-82396119D01*
X157212381Y-82396119D02*
X157355238Y-82443738D01*
X157355238Y-82443738D02*
X157402857Y-82491357D01*
X157593334Y-83491357D02*
X158355238Y-83491357D01*
X159164762Y-83396119D02*
X158831429Y-82919928D01*
X158593334Y-83396119D02*
X158593334Y-82396119D01*
X158593334Y-82396119D02*
X158974286Y-82396119D01*
X158974286Y-82396119D02*
X159069524Y-82443738D01*
X159069524Y-82443738D02*
X159117143Y-82491357D01*
X159117143Y-82491357D02*
X159164762Y-82586595D01*
X159164762Y-82586595D02*
X159164762Y-82729452D01*
X159164762Y-82729452D02*
X159117143Y-82824690D01*
X159117143Y-82824690D02*
X159069524Y-82872309D01*
X159069524Y-82872309D02*
X158974286Y-82919928D01*
X158974286Y-82919928D02*
X158593334Y-82919928D01*
X159593334Y-83396119D02*
X159593334Y-82396119D01*
X160069524Y-83396119D02*
X160069524Y-82396119D01*
X160069524Y-82396119D02*
X160640952Y-83396119D01*
X160640952Y-83396119D02*
X160640952Y-82396119D01*
X161640952Y-82443738D02*
X161545714Y-82396119D01*
X161545714Y-82396119D02*
X161402857Y-82396119D01*
X161402857Y-82396119D02*
X161260000Y-82443738D01*
X161260000Y-82443738D02*
X161164762Y-82538976D01*
X161164762Y-82538976D02*
X161117143Y-82634214D01*
X161117143Y-82634214D02*
X161069524Y-82824690D01*
X161069524Y-82824690D02*
X161069524Y-82967547D01*
X161069524Y-82967547D02*
X161117143Y-83158023D01*
X161117143Y-83158023D02*
X161164762Y-83253261D01*
X161164762Y-83253261D02*
X161260000Y-83348500D01*
X161260000Y-83348500D02*
X161402857Y-83396119D01*
X161402857Y-83396119D02*
X161498095Y-83396119D01*
X161498095Y-83396119D02*
X161640952Y-83348500D01*
X161640952Y-83348500D02*
X161688571Y-83300880D01*
X161688571Y-83300880D02*
X161688571Y-82967547D01*
X161688571Y-82967547D02*
X161498095Y-82967547D01*
D10*
X144580476Y-72462990D02*
X144504286Y-72424895D01*
X144504286Y-72424895D02*
X144390000Y-72424895D01*
X144390000Y-72424895D02*
X144275714Y-72462990D01*
X144275714Y-72462990D02*
X144199524Y-72539180D01*
X144199524Y-72539180D02*
X144161429Y-72615371D01*
X144161429Y-72615371D02*
X144123333Y-72767752D01*
X144123333Y-72767752D02*
X144123333Y-72882038D01*
X144123333Y-72882038D02*
X144161429Y-73034419D01*
X144161429Y-73034419D02*
X144199524Y-73110609D01*
X144199524Y-73110609D02*
X144275714Y-73186800D01*
X144275714Y-73186800D02*
X144390000Y-73224895D01*
X144390000Y-73224895D02*
X144466191Y-73224895D01*
X144466191Y-73224895D02*
X144580476Y-73186800D01*
X144580476Y-73186800D02*
X144618572Y-73148704D01*
X144618572Y-73148704D02*
X144618572Y-72882038D01*
X144618572Y-72882038D02*
X144466191Y-72882038D01*
X144961429Y-73224895D02*
X144961429Y-72424895D01*
X144961429Y-72424895D02*
X145418572Y-73224895D01*
X145418572Y-73224895D02*
X145418572Y-72424895D01*
X145799524Y-73224895D02*
X145799524Y-72424895D01*
X145799524Y-72424895D02*
X145990000Y-72424895D01*
X145990000Y-72424895D02*
X146104286Y-72462990D01*
X146104286Y-72462990D02*
X146180476Y-72539180D01*
X146180476Y-72539180D02*
X146218571Y-72615371D01*
X146218571Y-72615371D02*
X146256667Y-72767752D01*
X146256667Y-72767752D02*
X146256667Y-72882038D01*
X146256667Y-72882038D02*
X146218571Y-73034419D01*
X146218571Y-73034419D02*
X146180476Y-73110609D01*
X146180476Y-73110609D02*
X146104286Y-73186800D01*
X146104286Y-73186800D02*
X145990000Y-73224895D01*
X145990000Y-73224895D02*
X145799524Y-73224895D01*
D14*
X156354962Y-86956678D02*
X156354962Y-85456678D01*
X156354962Y-86170964D02*
X157212105Y-86170964D01*
X157212105Y-86956678D02*
X157212105Y-85456678D01*
X158783534Y-86813821D02*
X158712106Y-86885250D01*
X158712106Y-86885250D02*
X158497820Y-86956678D01*
X158497820Y-86956678D02*
X158354963Y-86956678D01*
X158354963Y-86956678D02*
X158140677Y-86885250D01*
X158140677Y-86885250D02*
X157997820Y-86742392D01*
X157997820Y-86742392D02*
X157926391Y-86599535D01*
X157926391Y-86599535D02*
X157854963Y-86313821D01*
X157854963Y-86313821D02*
X157854963Y-86099535D01*
X157854963Y-86099535D02*
X157926391Y-85813821D01*
X157926391Y-85813821D02*
X157997820Y-85670964D01*
X157997820Y-85670964D02*
X158140677Y-85528107D01*
X158140677Y-85528107D02*
X158354963Y-85456678D01*
X158354963Y-85456678D02*
X158497820Y-85456678D01*
X158497820Y-85456678D02*
X158712106Y-85528107D01*
X158712106Y-85528107D02*
X158783534Y-85599535D01*
X159712106Y-85456678D02*
X159854963Y-85456678D01*
X159854963Y-85456678D02*
X159997820Y-85528107D01*
X159997820Y-85528107D02*
X160069249Y-85599535D01*
X160069249Y-85599535D02*
X160140677Y-85742392D01*
X160140677Y-85742392D02*
X160212106Y-86028107D01*
X160212106Y-86028107D02*
X160212106Y-86385250D01*
X160212106Y-86385250D02*
X160140677Y-86670964D01*
X160140677Y-86670964D02*
X160069249Y-86813821D01*
X160069249Y-86813821D02*
X159997820Y-86885250D01*
X159997820Y-86885250D02*
X159854963Y-86956678D01*
X159854963Y-86956678D02*
X159712106Y-86956678D01*
X159712106Y-86956678D02*
X159569249Y-86885250D01*
X159569249Y-86885250D02*
X159497820Y-86813821D01*
X159497820Y-86813821D02*
X159426391Y-86670964D01*
X159426391Y-86670964D02*
X159354963Y-86385250D01*
X159354963Y-86385250D02*
X159354963Y-86028107D01*
X159354963Y-86028107D02*
X159426391Y-85742392D01*
X159426391Y-85742392D02*
X159497820Y-85599535D01*
X159497820Y-85599535D02*
X159569249Y-85528107D01*
X159569249Y-85528107D02*
X159712106Y-85456678D01*
X161569248Y-85456678D02*
X160854962Y-85456678D01*
X160854962Y-85456678D02*
X160783534Y-86170964D01*
X160783534Y-86170964D02*
X160854962Y-86099535D01*
X160854962Y-86099535D02*
X160997820Y-86028107D01*
X160997820Y-86028107D02*
X161354962Y-86028107D01*
X161354962Y-86028107D02*
X161497820Y-86099535D01*
X161497820Y-86099535D02*
X161569248Y-86170964D01*
X161569248Y-86170964D02*
X161640677Y-86313821D01*
X161640677Y-86313821D02*
X161640677Y-86670964D01*
X161640677Y-86670964D02*
X161569248Y-86813821D01*
X161569248Y-86813821D02*
X161497820Y-86885250D01*
X161497820Y-86885250D02*
X161354962Y-86956678D01*
X161354962Y-86956678D02*
X160997820Y-86956678D01*
X160997820Y-86956678D02*
X160854962Y-86885250D01*
X160854962Y-86885250D02*
X160783534Y-86813821D01*
D10*
X124500476Y-68182990D02*
X124424286Y-68144895D01*
X124424286Y-68144895D02*
X124310000Y-68144895D01*
X124310000Y-68144895D02*
X124195714Y-68182990D01*
X124195714Y-68182990D02*
X124119524Y-68259180D01*
X124119524Y-68259180D02*
X124081429Y-68335371D01*
X124081429Y-68335371D02*
X124043333Y-68487752D01*
X124043333Y-68487752D02*
X124043333Y-68602038D01*
X124043333Y-68602038D02*
X124081429Y-68754419D01*
X124081429Y-68754419D02*
X124119524Y-68830609D01*
X124119524Y-68830609D02*
X124195714Y-68906800D01*
X124195714Y-68906800D02*
X124310000Y-68944895D01*
X124310000Y-68944895D02*
X124386191Y-68944895D01*
X124386191Y-68944895D02*
X124500476Y-68906800D01*
X124500476Y-68906800D02*
X124538572Y-68868704D01*
X124538572Y-68868704D02*
X124538572Y-68602038D01*
X124538572Y-68602038D02*
X124386191Y-68602038D01*
X124881429Y-68944895D02*
X124881429Y-68144895D01*
X124881429Y-68144895D02*
X125338572Y-68944895D01*
X125338572Y-68944895D02*
X125338572Y-68144895D01*
X125719524Y-68944895D02*
X125719524Y-68144895D01*
X125719524Y-68144895D02*
X125910000Y-68144895D01*
X125910000Y-68144895D02*
X126024286Y-68182990D01*
X126024286Y-68182990D02*
X126100476Y-68259180D01*
X126100476Y-68259180D02*
X126138571Y-68335371D01*
X126138571Y-68335371D02*
X126176667Y-68487752D01*
X126176667Y-68487752D02*
X126176667Y-68602038D01*
X126176667Y-68602038D02*
X126138571Y-68754419D01*
X126138571Y-68754419D02*
X126100476Y-68830609D01*
X126100476Y-68830609D02*
X126024286Y-68906800D01*
X126024286Y-68906800D02*
X125910000Y-68944895D01*
X125910000Y-68944895D02*
X125719524Y-68944895D01*
X165390476Y-134532990D02*
X165314286Y-134494895D01*
X165314286Y-134494895D02*
X165200000Y-134494895D01*
X165200000Y-134494895D02*
X165085714Y-134532990D01*
X165085714Y-134532990D02*
X165009524Y-134609180D01*
X165009524Y-134609180D02*
X164971429Y-134685371D01*
X164971429Y-134685371D02*
X164933333Y-134837752D01*
X164933333Y-134837752D02*
X164933333Y-134952038D01*
X164933333Y-134952038D02*
X164971429Y-135104419D01*
X164971429Y-135104419D02*
X165009524Y-135180609D01*
X165009524Y-135180609D02*
X165085714Y-135256800D01*
X165085714Y-135256800D02*
X165200000Y-135294895D01*
X165200000Y-135294895D02*
X165276191Y-135294895D01*
X165276191Y-135294895D02*
X165390476Y-135256800D01*
X165390476Y-135256800D02*
X165428572Y-135218704D01*
X165428572Y-135218704D02*
X165428572Y-134952038D01*
X165428572Y-134952038D02*
X165276191Y-134952038D01*
X165771429Y-135294895D02*
X165771429Y-134494895D01*
X165771429Y-134494895D02*
X166228572Y-135294895D01*
X166228572Y-135294895D02*
X166228572Y-134494895D01*
X166609524Y-135294895D02*
X166609524Y-134494895D01*
X166609524Y-134494895D02*
X166800000Y-134494895D01*
X166800000Y-134494895D02*
X166914286Y-134532990D01*
X166914286Y-134532990D02*
X166990476Y-134609180D01*
X166990476Y-134609180D02*
X167028571Y-134685371D01*
X167028571Y-134685371D02*
X167066667Y-134837752D01*
X167066667Y-134837752D02*
X167066667Y-134952038D01*
X167066667Y-134952038D02*
X167028571Y-135104419D01*
X167028571Y-135104419D02*
X166990476Y-135180609D01*
X166990476Y-135180609D02*
X166914286Y-135256800D01*
X166914286Y-135256800D02*
X166800000Y-135294895D01*
X166800000Y-135294895D02*
X166609524Y-135294895D01*
X175810476Y-112222990D02*
X175734286Y-112184895D01*
X175734286Y-112184895D02*
X175620000Y-112184895D01*
X175620000Y-112184895D02*
X175505714Y-112222990D01*
X175505714Y-112222990D02*
X175429524Y-112299180D01*
X175429524Y-112299180D02*
X175391429Y-112375371D01*
X175391429Y-112375371D02*
X175353333Y-112527752D01*
X175353333Y-112527752D02*
X175353333Y-112642038D01*
X175353333Y-112642038D02*
X175391429Y-112794419D01*
X175391429Y-112794419D02*
X175429524Y-112870609D01*
X175429524Y-112870609D02*
X175505714Y-112946800D01*
X175505714Y-112946800D02*
X175620000Y-112984895D01*
X175620000Y-112984895D02*
X175696191Y-112984895D01*
X175696191Y-112984895D02*
X175810476Y-112946800D01*
X175810476Y-112946800D02*
X175848572Y-112908704D01*
X175848572Y-112908704D02*
X175848572Y-112642038D01*
X175848572Y-112642038D02*
X175696191Y-112642038D01*
X176191429Y-112984895D02*
X176191429Y-112184895D01*
X176191429Y-112184895D02*
X176648572Y-112984895D01*
X176648572Y-112984895D02*
X176648572Y-112184895D01*
X177029524Y-112984895D02*
X177029524Y-112184895D01*
X177029524Y-112184895D02*
X177220000Y-112184895D01*
X177220000Y-112184895D02*
X177334286Y-112222990D01*
X177334286Y-112222990D02*
X177410476Y-112299180D01*
X177410476Y-112299180D02*
X177448571Y-112375371D01*
X177448571Y-112375371D02*
X177486667Y-112527752D01*
X177486667Y-112527752D02*
X177486667Y-112642038D01*
X177486667Y-112642038D02*
X177448571Y-112794419D01*
X177448571Y-112794419D02*
X177410476Y-112870609D01*
X177410476Y-112870609D02*
X177334286Y-112946800D01*
X177334286Y-112946800D02*
X177220000Y-112984895D01*
X177220000Y-112984895D02*
X177029524Y-112984895D01*
X176090476Y-133982990D02*
X176014286Y-133944895D01*
X176014286Y-133944895D02*
X175900000Y-133944895D01*
X175900000Y-133944895D02*
X175785714Y-133982990D01*
X175785714Y-133982990D02*
X175709524Y-134059180D01*
X175709524Y-134059180D02*
X175671429Y-134135371D01*
X175671429Y-134135371D02*
X175633333Y-134287752D01*
X175633333Y-134287752D02*
X175633333Y-134402038D01*
X175633333Y-134402038D02*
X175671429Y-134554419D01*
X175671429Y-134554419D02*
X175709524Y-134630609D01*
X175709524Y-134630609D02*
X175785714Y-134706800D01*
X175785714Y-134706800D02*
X175900000Y-134744895D01*
X175900000Y-134744895D02*
X175976191Y-134744895D01*
X175976191Y-134744895D02*
X176090476Y-134706800D01*
X176090476Y-134706800D02*
X176128572Y-134668704D01*
X176128572Y-134668704D02*
X176128572Y-134402038D01*
X176128572Y-134402038D02*
X175976191Y-134402038D01*
X176471429Y-134744895D02*
X176471429Y-133944895D01*
X176471429Y-133944895D02*
X176928572Y-134744895D01*
X176928572Y-134744895D02*
X176928572Y-133944895D01*
X177309524Y-134744895D02*
X177309524Y-133944895D01*
X177309524Y-133944895D02*
X177500000Y-133944895D01*
X177500000Y-133944895D02*
X177614286Y-133982990D01*
X177614286Y-133982990D02*
X177690476Y-134059180D01*
X177690476Y-134059180D02*
X177728571Y-134135371D01*
X177728571Y-134135371D02*
X177766667Y-134287752D01*
X177766667Y-134287752D02*
X177766667Y-134402038D01*
X177766667Y-134402038D02*
X177728571Y-134554419D01*
X177728571Y-134554419D02*
X177690476Y-134630609D01*
X177690476Y-134630609D02*
X177614286Y-134706800D01*
X177614286Y-134706800D02*
X177500000Y-134744895D01*
X177500000Y-134744895D02*
X177309524Y-134744895D01*
D11*
X134235085Y-47546299D02*
X134235085Y-46546299D01*
X134235085Y-46546299D02*
X134473180Y-46546299D01*
X134473180Y-46546299D02*
X134616037Y-46593918D01*
X134616037Y-46593918D02*
X134711275Y-46689156D01*
X134711275Y-46689156D02*
X134758894Y-46784394D01*
X134758894Y-46784394D02*
X134806513Y-46974870D01*
X134806513Y-46974870D02*
X134806513Y-47117727D01*
X134806513Y-47117727D02*
X134758894Y-47308203D01*
X134758894Y-47308203D02*
X134711275Y-47403441D01*
X134711275Y-47403441D02*
X134616037Y-47498680D01*
X134616037Y-47498680D02*
X134473180Y-47546299D01*
X134473180Y-47546299D02*
X134235085Y-47546299D01*
X135806513Y-47546299D02*
X135473180Y-47070108D01*
X135235085Y-47546299D02*
X135235085Y-46546299D01*
X135235085Y-46546299D02*
X135616037Y-46546299D01*
X135616037Y-46546299D02*
X135711275Y-46593918D01*
X135711275Y-46593918D02*
X135758894Y-46641537D01*
X135758894Y-46641537D02*
X135806513Y-46736775D01*
X135806513Y-46736775D02*
X135806513Y-46879632D01*
X135806513Y-46879632D02*
X135758894Y-46974870D01*
X135758894Y-46974870D02*
X135711275Y-47022489D01*
X135711275Y-47022489D02*
X135616037Y-47070108D01*
X135616037Y-47070108D02*
X135235085Y-47070108D01*
X136092228Y-46546299D02*
X136425561Y-47546299D01*
X136425561Y-47546299D02*
X136758894Y-46546299D01*
X136854133Y-47641537D02*
X137616037Y-47641537D01*
X137854133Y-47546299D02*
X137854133Y-46546299D01*
X137854133Y-46546299D02*
X138187466Y-47260584D01*
X138187466Y-47260584D02*
X138520799Y-46546299D01*
X138520799Y-46546299D02*
X138520799Y-47546299D01*
X138996990Y-47546299D02*
X138996990Y-46546299D01*
X139473180Y-47546299D02*
X139473180Y-46546299D01*
X139473180Y-46546299D02*
X139711275Y-46546299D01*
X139711275Y-46546299D02*
X139854132Y-46593918D01*
X139854132Y-46593918D02*
X139949370Y-46689156D01*
X139949370Y-46689156D02*
X139996989Y-46784394D01*
X139996989Y-46784394D02*
X140044608Y-46974870D01*
X140044608Y-46974870D02*
X140044608Y-47117727D01*
X140044608Y-47117727D02*
X139996989Y-47308203D01*
X139996989Y-47308203D02*
X139949370Y-47403441D01*
X139949370Y-47403441D02*
X139854132Y-47498680D01*
X139854132Y-47498680D02*
X139711275Y-47546299D01*
X139711275Y-47546299D02*
X139473180Y-47546299D01*
X140473180Y-47546299D02*
X140473180Y-46546299D01*
X140473180Y-46546299D02*
X140711275Y-46546299D01*
X140711275Y-46546299D02*
X140854132Y-46593918D01*
X140854132Y-46593918D02*
X140949370Y-46689156D01*
X140949370Y-46689156D02*
X140996989Y-46784394D01*
X140996989Y-46784394D02*
X141044608Y-46974870D01*
X141044608Y-46974870D02*
X141044608Y-47117727D01*
X141044608Y-47117727D02*
X140996989Y-47308203D01*
X140996989Y-47308203D02*
X140949370Y-47403441D01*
X140949370Y-47403441D02*
X140854132Y-47498680D01*
X140854132Y-47498680D02*
X140711275Y-47546299D01*
X140711275Y-47546299D02*
X140473180Y-47546299D01*
X141949370Y-47546299D02*
X141473180Y-47546299D01*
X141473180Y-47546299D02*
X141473180Y-46546299D01*
X142282704Y-47022489D02*
X142616037Y-47022489D01*
X142758894Y-47546299D02*
X142282704Y-47546299D01*
X142282704Y-47546299D02*
X142282704Y-46546299D01*
X142282704Y-46546299D02*
X142758894Y-46546299D01*
D10*
X157270476Y-120682990D02*
X157194286Y-120644895D01*
X157194286Y-120644895D02*
X157080000Y-120644895D01*
X157080000Y-120644895D02*
X156965714Y-120682990D01*
X156965714Y-120682990D02*
X156889524Y-120759180D01*
X156889524Y-120759180D02*
X156851429Y-120835371D01*
X156851429Y-120835371D02*
X156813333Y-120987752D01*
X156813333Y-120987752D02*
X156813333Y-121102038D01*
X156813333Y-121102038D02*
X156851429Y-121254419D01*
X156851429Y-121254419D02*
X156889524Y-121330609D01*
X156889524Y-121330609D02*
X156965714Y-121406800D01*
X156965714Y-121406800D02*
X157080000Y-121444895D01*
X157080000Y-121444895D02*
X157156191Y-121444895D01*
X157156191Y-121444895D02*
X157270476Y-121406800D01*
X157270476Y-121406800D02*
X157308572Y-121368704D01*
X157308572Y-121368704D02*
X157308572Y-121102038D01*
X157308572Y-121102038D02*
X157156191Y-121102038D01*
X157651429Y-121444895D02*
X157651429Y-120644895D01*
X157651429Y-120644895D02*
X158108572Y-121444895D01*
X158108572Y-121444895D02*
X158108572Y-120644895D01*
X158489524Y-121444895D02*
X158489524Y-120644895D01*
X158489524Y-120644895D02*
X158680000Y-120644895D01*
X158680000Y-120644895D02*
X158794286Y-120682990D01*
X158794286Y-120682990D02*
X158870476Y-120759180D01*
X158870476Y-120759180D02*
X158908571Y-120835371D01*
X158908571Y-120835371D02*
X158946667Y-120987752D01*
X158946667Y-120987752D02*
X158946667Y-121102038D01*
X158946667Y-121102038D02*
X158908571Y-121254419D01*
X158908571Y-121254419D02*
X158870476Y-121330609D01*
X158870476Y-121330609D02*
X158794286Y-121406800D01*
X158794286Y-121406800D02*
X158680000Y-121444895D01*
X158680000Y-121444895D02*
X158489524Y-121444895D01*
X159732990Y-135689524D02*
X159694895Y-135765714D01*
X159694895Y-135765714D02*
X159694895Y-135880000D01*
X159694895Y-135880000D02*
X159732990Y-135994286D01*
X159732990Y-135994286D02*
X159809180Y-136070476D01*
X159809180Y-136070476D02*
X159885371Y-136108571D01*
X159885371Y-136108571D02*
X160037752Y-136146667D01*
X160037752Y-136146667D02*
X160152038Y-136146667D01*
X160152038Y-136146667D02*
X160304419Y-136108571D01*
X160304419Y-136108571D02*
X160380609Y-136070476D01*
X160380609Y-136070476D02*
X160456800Y-135994286D01*
X160456800Y-135994286D02*
X160494895Y-135880000D01*
X160494895Y-135880000D02*
X160494895Y-135803809D01*
X160494895Y-135803809D02*
X160456800Y-135689524D01*
X160456800Y-135689524D02*
X160418704Y-135651428D01*
X160418704Y-135651428D02*
X160152038Y-135651428D01*
X160152038Y-135651428D02*
X160152038Y-135803809D01*
X160494895Y-135308571D02*
X159694895Y-135308571D01*
X159694895Y-135308571D02*
X160494895Y-134851428D01*
X160494895Y-134851428D02*
X159694895Y-134851428D01*
X160494895Y-134470476D02*
X159694895Y-134470476D01*
X159694895Y-134470476D02*
X159694895Y-134280000D01*
X159694895Y-134280000D02*
X159732990Y-134165714D01*
X159732990Y-134165714D02*
X159809180Y-134089524D01*
X159809180Y-134089524D02*
X159885371Y-134051429D01*
X159885371Y-134051429D02*
X160037752Y-134013333D01*
X160037752Y-134013333D02*
X160152038Y-134013333D01*
X160152038Y-134013333D02*
X160304419Y-134051429D01*
X160304419Y-134051429D02*
X160380609Y-134089524D01*
X160380609Y-134089524D02*
X160456800Y-134165714D01*
X160456800Y-134165714D02*
X160494895Y-134280000D01*
X160494895Y-134280000D02*
X160494895Y-134470476D01*
D13*
X134554286Y-72842309D02*
X134887619Y-72842309D01*
X135030476Y-73366119D02*
X134554286Y-73366119D01*
X134554286Y-73366119D02*
X134554286Y-72366119D01*
X134554286Y-72366119D02*
X135030476Y-72366119D01*
X135459048Y-73366119D02*
X135459048Y-72366119D01*
X135459048Y-72366119D02*
X136030476Y-73366119D01*
X136030476Y-73366119D02*
X136030476Y-72366119D01*
X137078095Y-73270880D02*
X137030476Y-73318500D01*
X137030476Y-73318500D02*
X136887619Y-73366119D01*
X136887619Y-73366119D02*
X136792381Y-73366119D01*
X136792381Y-73366119D02*
X136649524Y-73318500D01*
X136649524Y-73318500D02*
X136554286Y-73223261D01*
X136554286Y-73223261D02*
X136506667Y-73128023D01*
X136506667Y-73128023D02*
X136459048Y-72937547D01*
X136459048Y-72937547D02*
X136459048Y-72794690D01*
X136459048Y-72794690D02*
X136506667Y-72604214D01*
X136506667Y-72604214D02*
X136554286Y-72508976D01*
X136554286Y-72508976D02*
X136649524Y-72413738D01*
X136649524Y-72413738D02*
X136792381Y-72366119D01*
X136792381Y-72366119D02*
X136887619Y-72366119D01*
X136887619Y-72366119D02*
X137030476Y-72413738D01*
X137030476Y-72413738D02*
X137078095Y-72461357D01*
X137268572Y-73461357D02*
X138030476Y-73461357D01*
X138268572Y-73366119D02*
X138268572Y-72366119D01*
X138268572Y-72366119D02*
X138601905Y-73080404D01*
X138601905Y-73080404D02*
X138935238Y-72366119D01*
X138935238Y-72366119D02*
X138935238Y-73366119D01*
X139411429Y-73366119D02*
X139411429Y-72366119D01*
X139887619Y-73366119D02*
X139887619Y-72366119D01*
X139887619Y-72366119D02*
X140125714Y-72366119D01*
X140125714Y-72366119D02*
X140268571Y-72413738D01*
X140268571Y-72413738D02*
X140363809Y-72508976D01*
X140363809Y-72508976D02*
X140411428Y-72604214D01*
X140411428Y-72604214D02*
X140459047Y-72794690D01*
X140459047Y-72794690D02*
X140459047Y-72937547D01*
X140459047Y-72937547D02*
X140411428Y-73128023D01*
X140411428Y-73128023D02*
X140363809Y-73223261D01*
X140363809Y-73223261D02*
X140268571Y-73318500D01*
X140268571Y-73318500D02*
X140125714Y-73366119D01*
X140125714Y-73366119D02*
X139887619Y-73366119D01*
X140887619Y-73366119D02*
X140887619Y-72366119D01*
X140887619Y-72366119D02*
X141125714Y-72366119D01*
X141125714Y-72366119D02*
X141268571Y-72413738D01*
X141268571Y-72413738D02*
X141363809Y-72508976D01*
X141363809Y-72508976D02*
X141411428Y-72604214D01*
X141411428Y-72604214D02*
X141459047Y-72794690D01*
X141459047Y-72794690D02*
X141459047Y-72937547D01*
X141459047Y-72937547D02*
X141411428Y-73128023D01*
X141411428Y-73128023D02*
X141363809Y-73223261D01*
X141363809Y-73223261D02*
X141268571Y-73318500D01*
X141268571Y-73318500D02*
X141125714Y-73366119D01*
X141125714Y-73366119D02*
X140887619Y-73366119D01*
X142363809Y-73366119D02*
X141887619Y-73366119D01*
X141887619Y-73366119D02*
X141887619Y-72366119D01*
X142697143Y-72842309D02*
X143030476Y-72842309D01*
X143173333Y-73366119D02*
X142697143Y-73366119D01*
X142697143Y-73366119D02*
X142697143Y-72366119D01*
X142697143Y-72366119D02*
X143173333Y-72366119D01*
X171250476Y-97802309D02*
X171583809Y-97802309D01*
X171726666Y-98326119D02*
X171250476Y-98326119D01*
X171250476Y-98326119D02*
X171250476Y-97326119D01*
X171250476Y-97326119D02*
X171726666Y-97326119D01*
X172155238Y-98326119D02*
X172155238Y-97326119D01*
X172155238Y-97326119D02*
X172726666Y-98326119D01*
X172726666Y-98326119D02*
X172726666Y-97326119D01*
X173774285Y-98230880D02*
X173726666Y-98278500D01*
X173726666Y-98278500D02*
X173583809Y-98326119D01*
X173583809Y-98326119D02*
X173488571Y-98326119D01*
X173488571Y-98326119D02*
X173345714Y-98278500D01*
X173345714Y-98278500D02*
X173250476Y-98183261D01*
X173250476Y-98183261D02*
X173202857Y-98088023D01*
X173202857Y-98088023D02*
X173155238Y-97897547D01*
X173155238Y-97897547D02*
X173155238Y-97754690D01*
X173155238Y-97754690D02*
X173202857Y-97564214D01*
X173202857Y-97564214D02*
X173250476Y-97468976D01*
X173250476Y-97468976D02*
X173345714Y-97373738D01*
X173345714Y-97373738D02*
X173488571Y-97326119D01*
X173488571Y-97326119D02*
X173583809Y-97326119D01*
X173583809Y-97326119D02*
X173726666Y-97373738D01*
X173726666Y-97373738D02*
X173774285Y-97421357D01*
X173964762Y-98421357D02*
X174726666Y-98421357D01*
X174964762Y-98326119D02*
X174964762Y-97326119D01*
X174964762Y-97326119D02*
X175345714Y-97326119D01*
X175345714Y-97326119D02*
X175440952Y-97373738D01*
X175440952Y-97373738D02*
X175488571Y-97421357D01*
X175488571Y-97421357D02*
X175536190Y-97516595D01*
X175536190Y-97516595D02*
X175536190Y-97659452D01*
X175536190Y-97659452D02*
X175488571Y-97754690D01*
X175488571Y-97754690D02*
X175440952Y-97802309D01*
X175440952Y-97802309D02*
X175345714Y-97849928D01*
X175345714Y-97849928D02*
X174964762Y-97849928D01*
X175964762Y-98326119D02*
X175964762Y-97326119D01*
X176440952Y-98326119D02*
X176440952Y-97326119D01*
X176440952Y-97326119D02*
X177012380Y-98326119D01*
X177012380Y-98326119D02*
X177012380Y-97326119D01*
X177488571Y-98326119D02*
X177488571Y-97326119D01*
X178059999Y-98326119D02*
X177631428Y-97754690D01*
X178059999Y-97326119D02*
X177488571Y-97897547D01*
X178679047Y-97849928D02*
X178679047Y-98326119D01*
X178345714Y-97326119D02*
X178679047Y-97849928D01*
X178679047Y-97849928D02*
X179012380Y-97326119D01*
D15*
X165711101Y-119535980D02*
X165663482Y-119583600D01*
X165663482Y-119583600D02*
X165520625Y-119631219D01*
X165520625Y-119631219D02*
X165425387Y-119631219D01*
X165425387Y-119631219D02*
X165282530Y-119583600D01*
X165282530Y-119583600D02*
X165187292Y-119488361D01*
X165187292Y-119488361D02*
X165139673Y-119393123D01*
X165139673Y-119393123D02*
X165092054Y-119202647D01*
X165092054Y-119202647D02*
X165092054Y-119059790D01*
X165092054Y-119059790D02*
X165139673Y-118869314D01*
X165139673Y-118869314D02*
X165187292Y-118774076D01*
X165187292Y-118774076D02*
X165282530Y-118678838D01*
X165282530Y-118678838D02*
X165425387Y-118631219D01*
X165425387Y-118631219D02*
X165520625Y-118631219D01*
X165520625Y-118631219D02*
X165663482Y-118678838D01*
X165663482Y-118678838D02*
X165711101Y-118726457D01*
X166092054Y-119345504D02*
X166568244Y-119345504D01*
X165996816Y-119631219D02*
X166330149Y-118631219D01*
X166330149Y-118631219D02*
X166663482Y-119631219D01*
X166996816Y-119631219D02*
X166996816Y-118631219D01*
X166996816Y-118631219D02*
X167568244Y-119631219D01*
X167568244Y-119631219D02*
X167568244Y-118631219D01*
D13*
X120130952Y-114492309D02*
X120464285Y-114492309D01*
X120607142Y-115016119D02*
X120130952Y-115016119D01*
X120130952Y-115016119D02*
X120130952Y-114016119D01*
X120130952Y-114016119D02*
X120607142Y-114016119D01*
X121035714Y-115016119D02*
X121035714Y-114016119D01*
X121035714Y-114016119D02*
X121607142Y-115016119D01*
X121607142Y-115016119D02*
X121607142Y-114016119D01*
X122654761Y-114920880D02*
X122607142Y-114968500D01*
X122607142Y-114968500D02*
X122464285Y-115016119D01*
X122464285Y-115016119D02*
X122369047Y-115016119D01*
X122369047Y-115016119D02*
X122226190Y-114968500D01*
X122226190Y-114968500D02*
X122130952Y-114873261D01*
X122130952Y-114873261D02*
X122083333Y-114778023D01*
X122083333Y-114778023D02*
X122035714Y-114587547D01*
X122035714Y-114587547D02*
X122035714Y-114444690D01*
X122035714Y-114444690D02*
X122083333Y-114254214D01*
X122083333Y-114254214D02*
X122130952Y-114158976D01*
X122130952Y-114158976D02*
X122226190Y-114063738D01*
X122226190Y-114063738D02*
X122369047Y-114016119D01*
X122369047Y-114016119D02*
X122464285Y-114016119D01*
X122464285Y-114016119D02*
X122607142Y-114063738D01*
X122607142Y-114063738D02*
X122654761Y-114111357D01*
X122845238Y-115111357D02*
X123607142Y-115111357D01*
X123702381Y-114016119D02*
X124273809Y-114016119D01*
X123988095Y-115016119D02*
X123988095Y-114016119D01*
X124607143Y-115016119D02*
X124607143Y-114016119D01*
X124607143Y-114492309D02*
X125178571Y-114492309D01*
X125178571Y-115016119D02*
X125178571Y-114016119D01*
X125654762Y-114016119D02*
X125654762Y-114825642D01*
X125654762Y-114825642D02*
X125702381Y-114920880D01*
X125702381Y-114920880D02*
X125750000Y-114968500D01*
X125750000Y-114968500D02*
X125845238Y-115016119D01*
X125845238Y-115016119D02*
X126035714Y-115016119D01*
X126035714Y-115016119D02*
X126130952Y-114968500D01*
X126130952Y-114968500D02*
X126178571Y-114920880D01*
X126178571Y-114920880D02*
X126226190Y-114825642D01*
X126226190Y-114825642D02*
X126226190Y-114016119D01*
X126702381Y-115016119D02*
X126702381Y-114016119D01*
X126702381Y-114016119D02*
X127035714Y-114730404D01*
X127035714Y-114730404D02*
X127369047Y-114016119D01*
X127369047Y-114016119D02*
X127369047Y-115016119D01*
X128178571Y-114492309D02*
X128321428Y-114539928D01*
X128321428Y-114539928D02*
X128369047Y-114587547D01*
X128369047Y-114587547D02*
X128416666Y-114682785D01*
X128416666Y-114682785D02*
X128416666Y-114825642D01*
X128416666Y-114825642D02*
X128369047Y-114920880D01*
X128369047Y-114920880D02*
X128321428Y-114968500D01*
X128321428Y-114968500D02*
X128226190Y-115016119D01*
X128226190Y-115016119D02*
X127845238Y-115016119D01*
X127845238Y-115016119D02*
X127845238Y-114016119D01*
X127845238Y-114016119D02*
X128178571Y-114016119D01*
X128178571Y-114016119D02*
X128273809Y-114063738D01*
X128273809Y-114063738D02*
X128321428Y-114111357D01*
X128321428Y-114111357D02*
X128369047Y-114206595D01*
X128369047Y-114206595D02*
X128369047Y-114301833D01*
X128369047Y-114301833D02*
X128321428Y-114397071D01*
X128321428Y-114397071D02*
X128273809Y-114444690D01*
X128273809Y-114444690D02*
X128178571Y-114492309D01*
X128178571Y-114492309D02*
X127845238Y-114492309D01*
D11*
X154075547Y-57703759D02*
X154075547Y-56703759D01*
X154075547Y-56703759D02*
X154313642Y-56703759D01*
X154313642Y-56703759D02*
X154456499Y-56751378D01*
X154456499Y-56751378D02*
X154551737Y-56846616D01*
X154551737Y-56846616D02*
X154599356Y-56941854D01*
X154599356Y-56941854D02*
X154646975Y-57132330D01*
X154646975Y-57132330D02*
X154646975Y-57275187D01*
X154646975Y-57275187D02*
X154599356Y-57465663D01*
X154599356Y-57465663D02*
X154551737Y-57560901D01*
X154551737Y-57560901D02*
X154456499Y-57656140D01*
X154456499Y-57656140D02*
X154313642Y-57703759D01*
X154313642Y-57703759D02*
X154075547Y-57703759D01*
X155646975Y-57703759D02*
X155313642Y-57227568D01*
X155075547Y-57703759D02*
X155075547Y-56703759D01*
X155075547Y-56703759D02*
X155456499Y-56703759D01*
X155456499Y-56703759D02*
X155551737Y-56751378D01*
X155551737Y-56751378D02*
X155599356Y-56798997D01*
X155599356Y-56798997D02*
X155646975Y-56894235D01*
X155646975Y-56894235D02*
X155646975Y-57037092D01*
X155646975Y-57037092D02*
X155599356Y-57132330D01*
X155599356Y-57132330D02*
X155551737Y-57179949D01*
X155551737Y-57179949D02*
X155456499Y-57227568D01*
X155456499Y-57227568D02*
X155075547Y-57227568D01*
X155932690Y-56703759D02*
X156266023Y-57703759D01*
X156266023Y-57703759D02*
X156599356Y-56703759D01*
X156694595Y-57798997D02*
X157456499Y-57798997D01*
X158266023Y-57703759D02*
X157932690Y-57227568D01*
X157694595Y-57703759D02*
X157694595Y-56703759D01*
X157694595Y-56703759D02*
X158075547Y-56703759D01*
X158075547Y-56703759D02*
X158170785Y-56751378D01*
X158170785Y-56751378D02*
X158218404Y-56798997D01*
X158218404Y-56798997D02*
X158266023Y-56894235D01*
X158266023Y-56894235D02*
X158266023Y-57037092D01*
X158266023Y-57037092D02*
X158218404Y-57132330D01*
X158218404Y-57132330D02*
X158170785Y-57179949D01*
X158170785Y-57179949D02*
X158075547Y-57227568D01*
X158075547Y-57227568D02*
X157694595Y-57227568D01*
X158694595Y-57703759D02*
X158694595Y-56703759D01*
X159170785Y-57703759D02*
X159170785Y-56703759D01*
X159170785Y-56703759D02*
X159742213Y-57703759D01*
X159742213Y-57703759D02*
X159742213Y-56703759D01*
X160742213Y-56751378D02*
X160646975Y-56703759D01*
X160646975Y-56703759D02*
X160504118Y-56703759D01*
X160504118Y-56703759D02*
X160361261Y-56751378D01*
X160361261Y-56751378D02*
X160266023Y-56846616D01*
X160266023Y-56846616D02*
X160218404Y-56941854D01*
X160218404Y-56941854D02*
X160170785Y-57132330D01*
X160170785Y-57132330D02*
X160170785Y-57275187D01*
X160170785Y-57275187D02*
X160218404Y-57465663D01*
X160218404Y-57465663D02*
X160266023Y-57560901D01*
X160266023Y-57560901D02*
X160361261Y-57656140D01*
X160361261Y-57656140D02*
X160504118Y-57703759D01*
X160504118Y-57703759D02*
X160599356Y-57703759D01*
X160599356Y-57703759D02*
X160742213Y-57656140D01*
X160742213Y-57656140D02*
X160789832Y-57608520D01*
X160789832Y-57608520D02*
X160789832Y-57275187D01*
X160789832Y-57275187D02*
X160599356Y-57275187D01*
D10*
X149380476Y-132702990D02*
X149304286Y-132664895D01*
X149304286Y-132664895D02*
X149190000Y-132664895D01*
X149190000Y-132664895D02*
X149075714Y-132702990D01*
X149075714Y-132702990D02*
X148999524Y-132779180D01*
X148999524Y-132779180D02*
X148961429Y-132855371D01*
X148961429Y-132855371D02*
X148923333Y-133007752D01*
X148923333Y-133007752D02*
X148923333Y-133122038D01*
X148923333Y-133122038D02*
X148961429Y-133274419D01*
X148961429Y-133274419D02*
X148999524Y-133350609D01*
X148999524Y-133350609D02*
X149075714Y-133426800D01*
X149075714Y-133426800D02*
X149190000Y-133464895D01*
X149190000Y-133464895D02*
X149266191Y-133464895D01*
X149266191Y-133464895D02*
X149380476Y-133426800D01*
X149380476Y-133426800D02*
X149418572Y-133388704D01*
X149418572Y-133388704D02*
X149418572Y-133122038D01*
X149418572Y-133122038D02*
X149266191Y-133122038D01*
X149761429Y-133464895D02*
X149761429Y-132664895D01*
X149761429Y-132664895D02*
X150218572Y-133464895D01*
X150218572Y-133464895D02*
X150218572Y-132664895D01*
X150599524Y-133464895D02*
X150599524Y-132664895D01*
X150599524Y-132664895D02*
X150790000Y-132664895D01*
X150790000Y-132664895D02*
X150904286Y-132702990D01*
X150904286Y-132702990D02*
X150980476Y-132779180D01*
X150980476Y-132779180D02*
X151018571Y-132855371D01*
X151018571Y-132855371D02*
X151056667Y-133007752D01*
X151056667Y-133007752D02*
X151056667Y-133122038D01*
X151056667Y-133122038D02*
X151018571Y-133274419D01*
X151018571Y-133274419D02*
X150980476Y-133350609D01*
X150980476Y-133350609D02*
X150904286Y-133426800D01*
X150904286Y-133426800D02*
X150790000Y-133464895D01*
X150790000Y-133464895D02*
X150599524Y-133464895D01*
X180860476Y-97402990D02*
X180784286Y-97364895D01*
X180784286Y-97364895D02*
X180670000Y-97364895D01*
X180670000Y-97364895D02*
X180555714Y-97402990D01*
X180555714Y-97402990D02*
X180479524Y-97479180D01*
X180479524Y-97479180D02*
X180441429Y-97555371D01*
X180441429Y-97555371D02*
X180403333Y-97707752D01*
X180403333Y-97707752D02*
X180403333Y-97822038D01*
X180403333Y-97822038D02*
X180441429Y-97974419D01*
X180441429Y-97974419D02*
X180479524Y-98050609D01*
X180479524Y-98050609D02*
X180555714Y-98126800D01*
X180555714Y-98126800D02*
X180670000Y-98164895D01*
X180670000Y-98164895D02*
X180746191Y-98164895D01*
X180746191Y-98164895D02*
X180860476Y-98126800D01*
X180860476Y-98126800D02*
X180898572Y-98088704D01*
X180898572Y-98088704D02*
X180898572Y-97822038D01*
X180898572Y-97822038D02*
X180746191Y-97822038D01*
X181241429Y-98164895D02*
X181241429Y-97364895D01*
X181241429Y-97364895D02*
X181698572Y-98164895D01*
X181698572Y-98164895D02*
X181698572Y-97364895D01*
X182079524Y-98164895D02*
X182079524Y-97364895D01*
X182079524Y-97364895D02*
X182270000Y-97364895D01*
X182270000Y-97364895D02*
X182384286Y-97402990D01*
X182384286Y-97402990D02*
X182460476Y-97479180D01*
X182460476Y-97479180D02*
X182498571Y-97555371D01*
X182498571Y-97555371D02*
X182536667Y-97707752D01*
X182536667Y-97707752D02*
X182536667Y-97822038D01*
X182536667Y-97822038D02*
X182498571Y-97974419D01*
X182498571Y-97974419D02*
X182460476Y-98050609D01*
X182460476Y-98050609D02*
X182384286Y-98126800D01*
X182384286Y-98126800D02*
X182270000Y-98164895D01*
X182270000Y-98164895D02*
X182079524Y-98164895D01*
X164090476Y-82402990D02*
X164014286Y-82364895D01*
X164014286Y-82364895D02*
X163900000Y-82364895D01*
X163900000Y-82364895D02*
X163785714Y-82402990D01*
X163785714Y-82402990D02*
X163709524Y-82479180D01*
X163709524Y-82479180D02*
X163671429Y-82555371D01*
X163671429Y-82555371D02*
X163633333Y-82707752D01*
X163633333Y-82707752D02*
X163633333Y-82822038D01*
X163633333Y-82822038D02*
X163671429Y-82974419D01*
X163671429Y-82974419D02*
X163709524Y-83050609D01*
X163709524Y-83050609D02*
X163785714Y-83126800D01*
X163785714Y-83126800D02*
X163900000Y-83164895D01*
X163900000Y-83164895D02*
X163976191Y-83164895D01*
X163976191Y-83164895D02*
X164090476Y-83126800D01*
X164090476Y-83126800D02*
X164128572Y-83088704D01*
X164128572Y-83088704D02*
X164128572Y-82822038D01*
X164128572Y-82822038D02*
X163976191Y-82822038D01*
X164471429Y-83164895D02*
X164471429Y-82364895D01*
X164471429Y-82364895D02*
X164928572Y-83164895D01*
X164928572Y-83164895D02*
X164928572Y-82364895D01*
X165309524Y-83164895D02*
X165309524Y-82364895D01*
X165309524Y-82364895D02*
X165500000Y-82364895D01*
X165500000Y-82364895D02*
X165614286Y-82402990D01*
X165614286Y-82402990D02*
X165690476Y-82479180D01*
X165690476Y-82479180D02*
X165728571Y-82555371D01*
X165728571Y-82555371D02*
X165766667Y-82707752D01*
X165766667Y-82707752D02*
X165766667Y-82822038D01*
X165766667Y-82822038D02*
X165728571Y-82974419D01*
X165728571Y-82974419D02*
X165690476Y-83050609D01*
X165690476Y-83050609D02*
X165614286Y-83126800D01*
X165614286Y-83126800D02*
X165500000Y-83164895D01*
X165500000Y-83164895D02*
X165309524Y-83164895D01*
D14*
X152177820Y-93215250D02*
X152392106Y-93286678D01*
X152392106Y-93286678D02*
X152749248Y-93286678D01*
X152749248Y-93286678D02*
X152892106Y-93215250D01*
X152892106Y-93215250D02*
X152963534Y-93143821D01*
X152963534Y-93143821D02*
X153034963Y-93000964D01*
X153034963Y-93000964D02*
X153034963Y-92858107D01*
X153034963Y-92858107D02*
X152963534Y-92715250D01*
X152963534Y-92715250D02*
X152892106Y-92643821D01*
X152892106Y-92643821D02*
X152749248Y-92572392D01*
X152749248Y-92572392D02*
X152463534Y-92500964D01*
X152463534Y-92500964D02*
X152320677Y-92429535D01*
X152320677Y-92429535D02*
X152249248Y-92358107D01*
X152249248Y-92358107D02*
X152177820Y-92215250D01*
X152177820Y-92215250D02*
X152177820Y-92072392D01*
X152177820Y-92072392D02*
X152249248Y-91929535D01*
X152249248Y-91929535D02*
X152320677Y-91858107D01*
X152320677Y-91858107D02*
X152463534Y-91786678D01*
X152463534Y-91786678D02*
X152820677Y-91786678D01*
X152820677Y-91786678D02*
X153034963Y-91858107D01*
X153677819Y-93286678D02*
X153677819Y-91786678D01*
X153677819Y-91786678D02*
X154534962Y-93286678D01*
X154534962Y-93286678D02*
X154534962Y-91786678D01*
X155892106Y-91786678D02*
X155606391Y-91786678D01*
X155606391Y-91786678D02*
X155463534Y-91858107D01*
X155463534Y-91858107D02*
X155392106Y-91929535D01*
X155392106Y-91929535D02*
X155249248Y-92143821D01*
X155249248Y-92143821D02*
X155177820Y-92429535D01*
X155177820Y-92429535D02*
X155177820Y-93000964D01*
X155177820Y-93000964D02*
X155249248Y-93143821D01*
X155249248Y-93143821D02*
X155320677Y-93215250D01*
X155320677Y-93215250D02*
X155463534Y-93286678D01*
X155463534Y-93286678D02*
X155749248Y-93286678D01*
X155749248Y-93286678D02*
X155892106Y-93215250D01*
X155892106Y-93215250D02*
X155963534Y-93143821D01*
X155963534Y-93143821D02*
X156034963Y-93000964D01*
X156034963Y-93000964D02*
X156034963Y-92643821D01*
X156034963Y-92643821D02*
X155963534Y-92500964D01*
X155963534Y-92500964D02*
X155892106Y-92429535D01*
X155892106Y-92429535D02*
X155749248Y-92358107D01*
X155749248Y-92358107D02*
X155463534Y-92358107D01*
X155463534Y-92358107D02*
X155320677Y-92429535D01*
X155320677Y-92429535D02*
X155249248Y-92500964D01*
X155249248Y-92500964D02*
X155177820Y-92643821D01*
X157392105Y-91786678D02*
X156677819Y-91786678D01*
X156677819Y-91786678D02*
X156606391Y-92500964D01*
X156606391Y-92500964D02*
X156677819Y-92429535D01*
X156677819Y-92429535D02*
X156820677Y-92358107D01*
X156820677Y-92358107D02*
X157177819Y-92358107D01*
X157177819Y-92358107D02*
X157320677Y-92429535D01*
X157320677Y-92429535D02*
X157392105Y-92500964D01*
X157392105Y-92500964D02*
X157463534Y-92643821D01*
X157463534Y-92643821D02*
X157463534Y-93000964D01*
X157463534Y-93000964D02*
X157392105Y-93143821D01*
X157392105Y-93143821D02*
X157320677Y-93215250D01*
X157320677Y-93215250D02*
X157177819Y-93286678D01*
X157177819Y-93286678D02*
X156820677Y-93286678D01*
X156820677Y-93286678D02*
X156677819Y-93215250D01*
X156677819Y-93215250D02*
X156606391Y-93143821D01*
X158106390Y-93286678D02*
X158106390Y-91786678D01*
X158106390Y-92500964D02*
X158963533Y-92500964D01*
X158963533Y-93286678D02*
X158963533Y-91786678D01*
X159463534Y-91786678D02*
X159963534Y-93286678D01*
X159963534Y-93286678D02*
X160463534Y-91786678D01*
X160963533Y-93286678D02*
X160963533Y-91786678D01*
X160963533Y-91786678D02*
X161320676Y-91786678D01*
X161320676Y-91786678D02*
X161534962Y-91858107D01*
X161534962Y-91858107D02*
X161677819Y-92000964D01*
X161677819Y-92000964D02*
X161749248Y-92143821D01*
X161749248Y-92143821D02*
X161820676Y-92429535D01*
X161820676Y-92429535D02*
X161820676Y-92643821D01*
X161820676Y-92643821D02*
X161749248Y-92929535D01*
X161749248Y-92929535D02*
X161677819Y-93072392D01*
X161677819Y-93072392D02*
X161534962Y-93215250D01*
X161534962Y-93215250D02*
X161320676Y-93286678D01*
X161320676Y-93286678D02*
X160963533Y-93286678D01*
X162392105Y-91929535D02*
X162463533Y-91858107D01*
X162463533Y-91858107D02*
X162606391Y-91786678D01*
X162606391Y-91786678D02*
X162963533Y-91786678D01*
X162963533Y-91786678D02*
X163106391Y-91858107D01*
X163106391Y-91858107D02*
X163177819Y-91929535D01*
X163177819Y-91929535D02*
X163249248Y-92072392D01*
X163249248Y-92072392D02*
X163249248Y-92215250D01*
X163249248Y-92215250D02*
X163177819Y-92429535D01*
X163177819Y-92429535D02*
X162320676Y-93286678D01*
X162320676Y-93286678D02*
X163249248Y-93286678D01*
X163749247Y-91786678D02*
X164677819Y-91786678D01*
X164677819Y-91786678D02*
X164177819Y-92358107D01*
X164177819Y-92358107D02*
X164392104Y-92358107D01*
X164392104Y-92358107D02*
X164534962Y-92429535D01*
X164534962Y-92429535D02*
X164606390Y-92500964D01*
X164606390Y-92500964D02*
X164677819Y-92643821D01*
X164677819Y-92643821D02*
X164677819Y-93000964D01*
X164677819Y-93000964D02*
X164606390Y-93143821D01*
X164606390Y-93143821D02*
X164534962Y-93215250D01*
X164534962Y-93215250D02*
X164392104Y-93286678D01*
X164392104Y-93286678D02*
X163963533Y-93286678D01*
X163963533Y-93286678D02*
X163820676Y-93215250D01*
X163820676Y-93215250D02*
X163749247Y-93143821D01*
X165606390Y-91786678D02*
X165749247Y-91786678D01*
X165749247Y-91786678D02*
X165892104Y-91858107D01*
X165892104Y-91858107D02*
X165963533Y-91929535D01*
X165963533Y-91929535D02*
X166034961Y-92072392D01*
X166034961Y-92072392D02*
X166106390Y-92358107D01*
X166106390Y-92358107D02*
X166106390Y-92715250D01*
X166106390Y-92715250D02*
X166034961Y-93000964D01*
X166034961Y-93000964D02*
X165963533Y-93143821D01*
X165963533Y-93143821D02*
X165892104Y-93215250D01*
X165892104Y-93215250D02*
X165749247Y-93286678D01*
X165749247Y-93286678D02*
X165606390Y-93286678D01*
X165606390Y-93286678D02*
X165463533Y-93215250D01*
X165463533Y-93215250D02*
X165392104Y-93143821D01*
X165392104Y-93143821D02*
X165320675Y-93000964D01*
X165320675Y-93000964D02*
X165249247Y-92715250D01*
X165249247Y-92715250D02*
X165249247Y-92358107D01*
X165249247Y-92358107D02*
X165320675Y-92072392D01*
X165320675Y-92072392D02*
X165392104Y-91929535D01*
X165392104Y-91929535D02*
X165463533Y-91858107D01*
X165463533Y-91858107D02*
X165606390Y-91786678D01*
D11*
X173339595Y-73096159D02*
X173339595Y-72096159D01*
X173339595Y-72096159D02*
X173577690Y-72096159D01*
X173577690Y-72096159D02*
X173720547Y-72143778D01*
X173720547Y-72143778D02*
X173815785Y-72239016D01*
X173815785Y-72239016D02*
X173863404Y-72334254D01*
X173863404Y-72334254D02*
X173911023Y-72524730D01*
X173911023Y-72524730D02*
X173911023Y-72667587D01*
X173911023Y-72667587D02*
X173863404Y-72858063D01*
X173863404Y-72858063D02*
X173815785Y-72953301D01*
X173815785Y-72953301D02*
X173720547Y-73048540D01*
X173720547Y-73048540D02*
X173577690Y-73096159D01*
X173577690Y-73096159D02*
X173339595Y-73096159D01*
X174911023Y-73096159D02*
X174577690Y-72619968D01*
X174339595Y-73096159D02*
X174339595Y-72096159D01*
X174339595Y-72096159D02*
X174720547Y-72096159D01*
X174720547Y-72096159D02*
X174815785Y-72143778D01*
X174815785Y-72143778D02*
X174863404Y-72191397D01*
X174863404Y-72191397D02*
X174911023Y-72286635D01*
X174911023Y-72286635D02*
X174911023Y-72429492D01*
X174911023Y-72429492D02*
X174863404Y-72524730D01*
X174863404Y-72524730D02*
X174815785Y-72572349D01*
X174815785Y-72572349D02*
X174720547Y-72619968D01*
X174720547Y-72619968D02*
X174339595Y-72619968D01*
X175196738Y-72096159D02*
X175530071Y-73096159D01*
X175530071Y-73096159D02*
X175863404Y-72096159D01*
X175958643Y-73191397D02*
X176720547Y-73191397D01*
X176958643Y-73096159D02*
X176958643Y-72096159D01*
X176958643Y-72096159D02*
X177339595Y-72096159D01*
X177339595Y-72096159D02*
X177434833Y-72143778D01*
X177434833Y-72143778D02*
X177482452Y-72191397D01*
X177482452Y-72191397D02*
X177530071Y-72286635D01*
X177530071Y-72286635D02*
X177530071Y-72429492D01*
X177530071Y-72429492D02*
X177482452Y-72524730D01*
X177482452Y-72524730D02*
X177434833Y-72572349D01*
X177434833Y-72572349D02*
X177339595Y-72619968D01*
X177339595Y-72619968D02*
X176958643Y-72619968D01*
X177958643Y-73096159D02*
X177958643Y-72096159D01*
X178434833Y-73096159D02*
X178434833Y-72096159D01*
X178434833Y-72096159D02*
X179006261Y-73096159D01*
X179006261Y-73096159D02*
X179006261Y-72096159D01*
X179482452Y-73096159D02*
X179482452Y-72096159D01*
X180053880Y-73096159D02*
X179625309Y-72524730D01*
X180053880Y-72096159D02*
X179482452Y-72667587D01*
X180672928Y-72619968D02*
X180672928Y-73096159D01*
X180339595Y-72096159D02*
X180672928Y-72619968D01*
X180672928Y-72619968D02*
X181006261Y-72096159D01*
D10*
X159630476Y-125202990D02*
X159554286Y-125164895D01*
X159554286Y-125164895D02*
X159440000Y-125164895D01*
X159440000Y-125164895D02*
X159325714Y-125202990D01*
X159325714Y-125202990D02*
X159249524Y-125279180D01*
X159249524Y-125279180D02*
X159211429Y-125355371D01*
X159211429Y-125355371D02*
X159173333Y-125507752D01*
X159173333Y-125507752D02*
X159173333Y-125622038D01*
X159173333Y-125622038D02*
X159211429Y-125774419D01*
X159211429Y-125774419D02*
X159249524Y-125850609D01*
X159249524Y-125850609D02*
X159325714Y-125926800D01*
X159325714Y-125926800D02*
X159440000Y-125964895D01*
X159440000Y-125964895D02*
X159516191Y-125964895D01*
X159516191Y-125964895D02*
X159630476Y-125926800D01*
X159630476Y-125926800D02*
X159668572Y-125888704D01*
X159668572Y-125888704D02*
X159668572Y-125622038D01*
X159668572Y-125622038D02*
X159516191Y-125622038D01*
X160011429Y-125964895D02*
X160011429Y-125164895D01*
X160011429Y-125164895D02*
X160468572Y-125964895D01*
X160468572Y-125964895D02*
X160468572Y-125164895D01*
X160849524Y-125964895D02*
X160849524Y-125164895D01*
X160849524Y-125164895D02*
X161040000Y-125164895D01*
X161040000Y-125164895D02*
X161154286Y-125202990D01*
X161154286Y-125202990D02*
X161230476Y-125279180D01*
X161230476Y-125279180D02*
X161268571Y-125355371D01*
X161268571Y-125355371D02*
X161306667Y-125507752D01*
X161306667Y-125507752D02*
X161306667Y-125622038D01*
X161306667Y-125622038D02*
X161268571Y-125774419D01*
X161268571Y-125774419D02*
X161230476Y-125850609D01*
X161230476Y-125850609D02*
X161154286Y-125926800D01*
X161154286Y-125926800D02*
X161040000Y-125964895D01*
X161040000Y-125964895D02*
X160849524Y-125964895D01*
X126440476Y-129352990D02*
X126364286Y-129314895D01*
X126364286Y-129314895D02*
X126250000Y-129314895D01*
X126250000Y-129314895D02*
X126135714Y-129352990D01*
X126135714Y-129352990D02*
X126059524Y-129429180D01*
X126059524Y-129429180D02*
X126021429Y-129505371D01*
X126021429Y-129505371D02*
X125983333Y-129657752D01*
X125983333Y-129657752D02*
X125983333Y-129772038D01*
X125983333Y-129772038D02*
X126021429Y-129924419D01*
X126021429Y-129924419D02*
X126059524Y-130000609D01*
X126059524Y-130000609D02*
X126135714Y-130076800D01*
X126135714Y-130076800D02*
X126250000Y-130114895D01*
X126250000Y-130114895D02*
X126326191Y-130114895D01*
X126326191Y-130114895D02*
X126440476Y-130076800D01*
X126440476Y-130076800D02*
X126478572Y-130038704D01*
X126478572Y-130038704D02*
X126478572Y-129772038D01*
X126478572Y-129772038D02*
X126326191Y-129772038D01*
X126821429Y-130114895D02*
X126821429Y-129314895D01*
X126821429Y-129314895D02*
X127278572Y-130114895D01*
X127278572Y-130114895D02*
X127278572Y-129314895D01*
X127659524Y-130114895D02*
X127659524Y-129314895D01*
X127659524Y-129314895D02*
X127850000Y-129314895D01*
X127850000Y-129314895D02*
X127964286Y-129352990D01*
X127964286Y-129352990D02*
X128040476Y-129429180D01*
X128040476Y-129429180D02*
X128078571Y-129505371D01*
X128078571Y-129505371D02*
X128116667Y-129657752D01*
X128116667Y-129657752D02*
X128116667Y-129772038D01*
X128116667Y-129772038D02*
X128078571Y-129924419D01*
X128078571Y-129924419D02*
X128040476Y-130000609D01*
X128040476Y-130000609D02*
X127964286Y-130076800D01*
X127964286Y-130076800D02*
X127850000Y-130114895D01*
X127850000Y-130114895D02*
X127659524Y-130114895D01*
X126570476Y-80412990D02*
X126494286Y-80374895D01*
X126494286Y-80374895D02*
X126380000Y-80374895D01*
X126380000Y-80374895D02*
X126265714Y-80412990D01*
X126265714Y-80412990D02*
X126189524Y-80489180D01*
X126189524Y-80489180D02*
X126151429Y-80565371D01*
X126151429Y-80565371D02*
X126113333Y-80717752D01*
X126113333Y-80717752D02*
X126113333Y-80832038D01*
X126113333Y-80832038D02*
X126151429Y-80984419D01*
X126151429Y-80984419D02*
X126189524Y-81060609D01*
X126189524Y-81060609D02*
X126265714Y-81136800D01*
X126265714Y-81136800D02*
X126380000Y-81174895D01*
X126380000Y-81174895D02*
X126456191Y-81174895D01*
X126456191Y-81174895D02*
X126570476Y-81136800D01*
X126570476Y-81136800D02*
X126608572Y-81098704D01*
X126608572Y-81098704D02*
X126608572Y-80832038D01*
X126608572Y-80832038D02*
X126456191Y-80832038D01*
X126951429Y-81174895D02*
X126951429Y-80374895D01*
X126951429Y-80374895D02*
X127408572Y-81174895D01*
X127408572Y-81174895D02*
X127408572Y-80374895D01*
X127789524Y-81174895D02*
X127789524Y-80374895D01*
X127789524Y-80374895D02*
X127980000Y-80374895D01*
X127980000Y-80374895D02*
X128094286Y-80412990D01*
X128094286Y-80412990D02*
X128170476Y-80489180D01*
X128170476Y-80489180D02*
X128208571Y-80565371D01*
X128208571Y-80565371D02*
X128246667Y-80717752D01*
X128246667Y-80717752D02*
X128246667Y-80832038D01*
X128246667Y-80832038D02*
X128208571Y-80984419D01*
X128208571Y-80984419D02*
X128170476Y-81060609D01*
X128170476Y-81060609D02*
X128094286Y-81136800D01*
X128094286Y-81136800D02*
X127980000Y-81174895D01*
X127980000Y-81174895D02*
X127789524Y-81174895D01*
D11*
X115028095Y-55619619D02*
X115028095Y-54619619D01*
X115028095Y-54619619D02*
X115266190Y-54619619D01*
X115266190Y-54619619D02*
X115409047Y-54667238D01*
X115409047Y-54667238D02*
X115504285Y-54762476D01*
X115504285Y-54762476D02*
X115551904Y-54857714D01*
X115551904Y-54857714D02*
X115599523Y-55048190D01*
X115599523Y-55048190D02*
X115599523Y-55191047D01*
X115599523Y-55191047D02*
X115551904Y-55381523D01*
X115551904Y-55381523D02*
X115504285Y-55476761D01*
X115504285Y-55476761D02*
X115409047Y-55572000D01*
X115409047Y-55572000D02*
X115266190Y-55619619D01*
X115266190Y-55619619D02*
X115028095Y-55619619D01*
X116599523Y-55619619D02*
X116266190Y-55143428D01*
X116028095Y-55619619D02*
X116028095Y-54619619D01*
X116028095Y-54619619D02*
X116409047Y-54619619D01*
X116409047Y-54619619D02*
X116504285Y-54667238D01*
X116504285Y-54667238D02*
X116551904Y-54714857D01*
X116551904Y-54714857D02*
X116599523Y-54810095D01*
X116599523Y-54810095D02*
X116599523Y-54952952D01*
X116599523Y-54952952D02*
X116551904Y-55048190D01*
X116551904Y-55048190D02*
X116504285Y-55095809D01*
X116504285Y-55095809D02*
X116409047Y-55143428D01*
X116409047Y-55143428D02*
X116028095Y-55143428D01*
X116885238Y-54619619D02*
X117218571Y-55619619D01*
X117218571Y-55619619D02*
X117551904Y-54619619D01*
X117647143Y-55714857D02*
X118409047Y-55714857D01*
X118647143Y-55619619D02*
X118647143Y-54619619D01*
X119123333Y-55619619D02*
X119123333Y-54619619D01*
X119123333Y-54619619D02*
X119694761Y-55619619D01*
X119694761Y-55619619D02*
X119694761Y-54619619D01*
X120170952Y-55619619D02*
X120170952Y-54619619D01*
X120170952Y-54619619D02*
X120409047Y-54619619D01*
X120409047Y-54619619D02*
X120551904Y-54667238D01*
X120551904Y-54667238D02*
X120647142Y-54762476D01*
X120647142Y-54762476D02*
X120694761Y-54857714D01*
X120694761Y-54857714D02*
X120742380Y-55048190D01*
X120742380Y-55048190D02*
X120742380Y-55191047D01*
X120742380Y-55191047D02*
X120694761Y-55381523D01*
X120694761Y-55381523D02*
X120647142Y-55476761D01*
X120647142Y-55476761D02*
X120551904Y-55572000D01*
X120551904Y-55572000D02*
X120409047Y-55619619D01*
X120409047Y-55619619D02*
X120170952Y-55619619D01*
X121170952Y-55095809D02*
X121504285Y-55095809D01*
X121647142Y-55619619D02*
X121170952Y-55619619D01*
X121170952Y-55619619D02*
X121170952Y-54619619D01*
X121170952Y-54619619D02*
X121647142Y-54619619D01*
X121980476Y-54619619D02*
X122647142Y-55619619D01*
X122647142Y-54619619D02*
X121980476Y-55619619D01*
X114828571Y-95379619D02*
X114828571Y-94379619D01*
X114828571Y-94379619D02*
X115066666Y-94379619D01*
X115066666Y-94379619D02*
X115209523Y-94427238D01*
X115209523Y-94427238D02*
X115304761Y-94522476D01*
X115304761Y-94522476D02*
X115352380Y-94617714D01*
X115352380Y-94617714D02*
X115399999Y-94808190D01*
X115399999Y-94808190D02*
X115399999Y-94951047D01*
X115399999Y-94951047D02*
X115352380Y-95141523D01*
X115352380Y-95141523D02*
X115304761Y-95236761D01*
X115304761Y-95236761D02*
X115209523Y-95332000D01*
X115209523Y-95332000D02*
X115066666Y-95379619D01*
X115066666Y-95379619D02*
X114828571Y-95379619D01*
X116399999Y-95379619D02*
X116066666Y-94903428D01*
X115828571Y-95379619D02*
X115828571Y-94379619D01*
X115828571Y-94379619D02*
X116209523Y-94379619D01*
X116209523Y-94379619D02*
X116304761Y-94427238D01*
X116304761Y-94427238D02*
X116352380Y-94474857D01*
X116352380Y-94474857D02*
X116399999Y-94570095D01*
X116399999Y-94570095D02*
X116399999Y-94712952D01*
X116399999Y-94712952D02*
X116352380Y-94808190D01*
X116352380Y-94808190D02*
X116304761Y-94855809D01*
X116304761Y-94855809D02*
X116209523Y-94903428D01*
X116209523Y-94903428D02*
X115828571Y-94903428D01*
X116685714Y-94379619D02*
X117019047Y-95379619D01*
X117019047Y-95379619D02*
X117352380Y-94379619D01*
X117447619Y-95474857D02*
X118209523Y-95474857D01*
X118304762Y-94379619D02*
X118876190Y-94379619D01*
X118590476Y-95379619D02*
X118590476Y-94379619D01*
X119209524Y-95379619D02*
X119209524Y-94379619D01*
X119209524Y-94855809D02*
X119780952Y-94855809D01*
X119780952Y-95379619D02*
X119780952Y-94379619D01*
X120257143Y-94379619D02*
X120257143Y-95189142D01*
X120257143Y-95189142D02*
X120304762Y-95284380D01*
X120304762Y-95284380D02*
X120352381Y-95332000D01*
X120352381Y-95332000D02*
X120447619Y-95379619D01*
X120447619Y-95379619D02*
X120638095Y-95379619D01*
X120638095Y-95379619D02*
X120733333Y-95332000D01*
X120733333Y-95332000D02*
X120780952Y-95284380D01*
X120780952Y-95284380D02*
X120828571Y-95189142D01*
X120828571Y-95189142D02*
X120828571Y-94379619D01*
X121304762Y-95379619D02*
X121304762Y-94379619D01*
X121304762Y-94379619D02*
X121638095Y-95093904D01*
X121638095Y-95093904D02*
X121971428Y-94379619D01*
X121971428Y-94379619D02*
X121971428Y-95379619D01*
X122780952Y-94855809D02*
X122923809Y-94903428D01*
X122923809Y-94903428D02*
X122971428Y-94951047D01*
X122971428Y-94951047D02*
X123019047Y-95046285D01*
X123019047Y-95046285D02*
X123019047Y-95189142D01*
X123019047Y-95189142D02*
X122971428Y-95284380D01*
X122971428Y-95284380D02*
X122923809Y-95332000D01*
X122923809Y-95332000D02*
X122828571Y-95379619D01*
X122828571Y-95379619D02*
X122447619Y-95379619D01*
X122447619Y-95379619D02*
X122447619Y-94379619D01*
X122447619Y-94379619D02*
X122780952Y-94379619D01*
X122780952Y-94379619D02*
X122876190Y-94427238D01*
X122876190Y-94427238D02*
X122923809Y-94474857D01*
X122923809Y-94474857D02*
X122971428Y-94570095D01*
X122971428Y-94570095D02*
X122971428Y-94665333D01*
X122971428Y-94665333D02*
X122923809Y-94760571D01*
X122923809Y-94760571D02*
X122876190Y-94808190D01*
X122876190Y-94808190D02*
X122780952Y-94855809D01*
X122780952Y-94855809D02*
X122447619Y-94855809D01*
D13*
X117010476Y-80912309D02*
X117343809Y-80912309D01*
X117486666Y-81436119D02*
X117010476Y-81436119D01*
X117010476Y-81436119D02*
X117010476Y-80436119D01*
X117010476Y-80436119D02*
X117486666Y-80436119D01*
X117915238Y-81436119D02*
X117915238Y-80436119D01*
X117915238Y-80436119D02*
X118486666Y-81436119D01*
X118486666Y-81436119D02*
X118486666Y-80436119D01*
X119534285Y-81340880D02*
X119486666Y-81388500D01*
X119486666Y-81388500D02*
X119343809Y-81436119D01*
X119343809Y-81436119D02*
X119248571Y-81436119D01*
X119248571Y-81436119D02*
X119105714Y-81388500D01*
X119105714Y-81388500D02*
X119010476Y-81293261D01*
X119010476Y-81293261D02*
X118962857Y-81198023D01*
X118962857Y-81198023D02*
X118915238Y-81007547D01*
X118915238Y-81007547D02*
X118915238Y-80864690D01*
X118915238Y-80864690D02*
X118962857Y-80674214D01*
X118962857Y-80674214D02*
X119010476Y-80578976D01*
X119010476Y-80578976D02*
X119105714Y-80483738D01*
X119105714Y-80483738D02*
X119248571Y-80436119D01*
X119248571Y-80436119D02*
X119343809Y-80436119D01*
X119343809Y-80436119D02*
X119486666Y-80483738D01*
X119486666Y-80483738D02*
X119534285Y-80531357D01*
X119724762Y-81531357D02*
X120486666Y-81531357D01*
X120724762Y-81436119D02*
X120724762Y-80436119D01*
X121200952Y-81436119D02*
X121200952Y-80436119D01*
X121200952Y-80436119D02*
X121772380Y-81436119D01*
X121772380Y-81436119D02*
X121772380Y-80436119D01*
X122248571Y-81436119D02*
X122248571Y-80436119D01*
X122248571Y-80436119D02*
X122486666Y-80436119D01*
X122486666Y-80436119D02*
X122629523Y-80483738D01*
X122629523Y-80483738D02*
X122724761Y-80578976D01*
X122724761Y-80578976D02*
X122772380Y-80674214D01*
X122772380Y-80674214D02*
X122819999Y-80864690D01*
X122819999Y-80864690D02*
X122819999Y-81007547D01*
X122819999Y-81007547D02*
X122772380Y-81198023D01*
X122772380Y-81198023D02*
X122724761Y-81293261D01*
X122724761Y-81293261D02*
X122629523Y-81388500D01*
X122629523Y-81388500D02*
X122486666Y-81436119D01*
X122486666Y-81436119D02*
X122248571Y-81436119D01*
X123248571Y-80912309D02*
X123581904Y-80912309D01*
X123724761Y-81436119D02*
X123248571Y-81436119D01*
X123248571Y-81436119D02*
X123248571Y-80436119D01*
X123248571Y-80436119D02*
X123724761Y-80436119D01*
X124058095Y-80436119D02*
X124724761Y-81436119D01*
X124724761Y-80436119D02*
X124058095Y-81436119D01*
D16*
X138419999Y-115138033D02*
X138419999Y-114438033D01*
X138419999Y-114438033D02*
X138586666Y-114438033D01*
X138586666Y-114438033D02*
X138686666Y-114471366D01*
X138686666Y-114471366D02*
X138753333Y-114538033D01*
X138753333Y-114538033D02*
X138786666Y-114604700D01*
X138786666Y-114604700D02*
X138819999Y-114738033D01*
X138819999Y-114738033D02*
X138819999Y-114838033D01*
X138819999Y-114838033D02*
X138786666Y-114971366D01*
X138786666Y-114971366D02*
X138753333Y-115038033D01*
X138753333Y-115038033D02*
X138686666Y-115104700D01*
X138686666Y-115104700D02*
X138586666Y-115138033D01*
X138586666Y-115138033D02*
X138419999Y-115138033D01*
X139019999Y-114438033D02*
X139253333Y-115138033D01*
X139253333Y-115138033D02*
X139486666Y-114438033D01*
X140053333Y-115138033D02*
X139719999Y-115138033D01*
X139719999Y-115138033D02*
X139719999Y-114438033D01*
X140586666Y-114438033D02*
X140453333Y-114438033D01*
X140453333Y-114438033D02*
X140386666Y-114471366D01*
X140386666Y-114471366D02*
X140353333Y-114504700D01*
X140353333Y-114504700D02*
X140286666Y-114604700D01*
X140286666Y-114604700D02*
X140253333Y-114738033D01*
X140253333Y-114738033D02*
X140253333Y-115004700D01*
X140253333Y-115004700D02*
X140286666Y-115071366D01*
X140286666Y-115071366D02*
X140320000Y-115104700D01*
X140320000Y-115104700D02*
X140386666Y-115138033D01*
X140386666Y-115138033D02*
X140520000Y-115138033D01*
X140520000Y-115138033D02*
X140586666Y-115104700D01*
X140586666Y-115104700D02*
X140620000Y-115071366D01*
X140620000Y-115071366D02*
X140653333Y-115004700D01*
X140653333Y-115004700D02*
X140653333Y-114838033D01*
X140653333Y-114838033D02*
X140620000Y-114771366D01*
X140620000Y-114771366D02*
X140586666Y-114738033D01*
X140586666Y-114738033D02*
X140520000Y-114704700D01*
X140520000Y-114704700D02*
X140386666Y-114704700D01*
X140386666Y-114704700D02*
X140320000Y-114738033D01*
X140320000Y-114738033D02*
X140286666Y-114771366D01*
X140286666Y-114771366D02*
X140253333Y-114838033D01*
X140920000Y-114938033D02*
X141253333Y-114938033D01*
X140853333Y-115138033D02*
X141086667Y-114438033D01*
X141086667Y-114438033D02*
X141320000Y-115138033D01*
X136736666Y-116662033D02*
X136736666Y-115962033D01*
X136736666Y-115962033D02*
X136970000Y-116462033D01*
X136970000Y-116462033D02*
X137203333Y-115962033D01*
X137203333Y-115962033D02*
X137203333Y-116662033D01*
X137536666Y-116662033D02*
X137536666Y-115962033D01*
X137869999Y-116662033D02*
X137869999Y-115962033D01*
X137869999Y-115962033D02*
X138103333Y-116462033D01*
X138103333Y-116462033D02*
X138336666Y-115962033D01*
X138336666Y-115962033D02*
X138336666Y-116662033D01*
X138603333Y-115962033D02*
X139069999Y-116662033D01*
X139069999Y-115962033D02*
X138603333Y-116662033D01*
X139736666Y-116662033D02*
X139503333Y-116328700D01*
X139336666Y-116662033D02*
X139336666Y-115962033D01*
X139336666Y-115962033D02*
X139603333Y-115962033D01*
X139603333Y-115962033D02*
X139670000Y-115995366D01*
X139670000Y-115995366D02*
X139703333Y-116028700D01*
X139703333Y-116028700D02*
X139736666Y-116095366D01*
X139736666Y-116095366D02*
X139736666Y-116195366D01*
X139736666Y-116195366D02*
X139703333Y-116262033D01*
X139703333Y-116262033D02*
X139670000Y-116295366D01*
X139670000Y-116295366D02*
X139603333Y-116328700D01*
X139603333Y-116328700D02*
X139336666Y-116328700D01*
X139936666Y-115962033D02*
X140336666Y-115962033D01*
X140136666Y-116662033D02*
X140136666Y-115962033D01*
X140936666Y-116662033D02*
X140536666Y-116662033D01*
X140736666Y-116662033D02*
X140736666Y-115962033D01*
X140736666Y-115962033D02*
X140669999Y-116062033D01*
X140669999Y-116062033D02*
X140603333Y-116128700D01*
X140603333Y-116128700D02*
X140536666Y-116162033D01*
X141370000Y-115962033D02*
X141436666Y-115962033D01*
X141436666Y-115962033D02*
X141503333Y-115995366D01*
X141503333Y-115995366D02*
X141536666Y-116028700D01*
X141536666Y-116028700D02*
X141570000Y-116095366D01*
X141570000Y-116095366D02*
X141603333Y-116228700D01*
X141603333Y-116228700D02*
X141603333Y-116395366D01*
X141603333Y-116395366D02*
X141570000Y-116528700D01*
X141570000Y-116528700D02*
X141536666Y-116595366D01*
X141536666Y-116595366D02*
X141503333Y-116628700D01*
X141503333Y-116628700D02*
X141436666Y-116662033D01*
X141436666Y-116662033D02*
X141370000Y-116662033D01*
X141370000Y-116662033D02*
X141303333Y-116628700D01*
X141303333Y-116628700D02*
X141270000Y-116595366D01*
X141270000Y-116595366D02*
X141236666Y-116528700D01*
X141236666Y-116528700D02*
X141203333Y-116395366D01*
X141203333Y-116395366D02*
X141203333Y-116228700D01*
X141203333Y-116228700D02*
X141236666Y-116095366D01*
X141236666Y-116095366D02*
X141270000Y-116028700D01*
X141270000Y-116028700D02*
X141303333Y-115995366D01*
X141303333Y-115995366D02*
X141370000Y-115962033D01*
X142203333Y-115962033D02*
X142070000Y-115962033D01*
X142070000Y-115962033D02*
X142003333Y-115995366D01*
X142003333Y-115995366D02*
X141970000Y-116028700D01*
X141970000Y-116028700D02*
X141903333Y-116128700D01*
X141903333Y-116128700D02*
X141870000Y-116262033D01*
X141870000Y-116262033D02*
X141870000Y-116528700D01*
X141870000Y-116528700D02*
X141903333Y-116595366D01*
X141903333Y-116595366D02*
X141936667Y-116628700D01*
X141936667Y-116628700D02*
X142003333Y-116662033D01*
X142003333Y-116662033D02*
X142136667Y-116662033D01*
X142136667Y-116662033D02*
X142203333Y-116628700D01*
X142203333Y-116628700D02*
X142236667Y-116595366D01*
X142236667Y-116595366D02*
X142270000Y-116528700D01*
X142270000Y-116528700D02*
X142270000Y-116362033D01*
X142270000Y-116362033D02*
X142236667Y-116295366D01*
X142236667Y-116295366D02*
X142203333Y-116262033D01*
X142203333Y-116262033D02*
X142136667Y-116228700D01*
X142136667Y-116228700D02*
X142003333Y-116228700D01*
X142003333Y-116228700D02*
X141936667Y-116262033D01*
X141936667Y-116262033D02*
X141903333Y-116295366D01*
X141903333Y-116295366D02*
X141870000Y-116362033D01*
X142536667Y-116028700D02*
X142570000Y-115995366D01*
X142570000Y-115995366D02*
X142636667Y-115962033D01*
X142636667Y-115962033D02*
X142803334Y-115962033D01*
X142803334Y-115962033D02*
X142870000Y-115995366D01*
X142870000Y-115995366D02*
X142903334Y-116028700D01*
X142903334Y-116028700D02*
X142936667Y-116095366D01*
X142936667Y-116095366D02*
X142936667Y-116162033D01*
X142936667Y-116162033D02*
X142903334Y-116262033D01*
X142903334Y-116262033D02*
X142503334Y-116662033D01*
X142503334Y-116662033D02*
X142936667Y-116662033D01*
D15*
X153942857Y-132804600D02*
X154085714Y-132852219D01*
X154085714Y-132852219D02*
X154323809Y-132852219D01*
X154323809Y-132852219D02*
X154419047Y-132804600D01*
X154419047Y-132804600D02*
X154466666Y-132756980D01*
X154466666Y-132756980D02*
X154514285Y-132661742D01*
X154514285Y-132661742D02*
X154514285Y-132566504D01*
X154514285Y-132566504D02*
X154466666Y-132471266D01*
X154466666Y-132471266D02*
X154419047Y-132423647D01*
X154419047Y-132423647D02*
X154323809Y-132376028D01*
X154323809Y-132376028D02*
X154133333Y-132328409D01*
X154133333Y-132328409D02*
X154038095Y-132280790D01*
X154038095Y-132280790D02*
X153990476Y-132233171D01*
X153990476Y-132233171D02*
X153942857Y-132137933D01*
X153942857Y-132137933D02*
X153942857Y-132042695D01*
X153942857Y-132042695D02*
X153990476Y-131947457D01*
X153990476Y-131947457D02*
X154038095Y-131899838D01*
X154038095Y-131899838D02*
X154133333Y-131852219D01*
X154133333Y-131852219D02*
X154371428Y-131852219D01*
X154371428Y-131852219D02*
X154514285Y-131899838D01*
X155323809Y-132804600D02*
X155228571Y-132852219D01*
X155228571Y-132852219D02*
X155038095Y-132852219D01*
X155038095Y-132852219D02*
X154942857Y-132804600D01*
X154942857Y-132804600D02*
X154895238Y-132709361D01*
X154895238Y-132709361D02*
X154895238Y-132328409D01*
X154895238Y-132328409D02*
X154942857Y-132233171D01*
X154942857Y-132233171D02*
X155038095Y-132185552D01*
X155038095Y-132185552D02*
X155228571Y-132185552D01*
X155228571Y-132185552D02*
X155323809Y-132233171D01*
X155323809Y-132233171D02*
X155371428Y-132328409D01*
X155371428Y-132328409D02*
X155371428Y-132423647D01*
X155371428Y-132423647D02*
X154895238Y-132518885D01*
X155800000Y-132852219D02*
X155800000Y-132185552D01*
X155800000Y-132376028D02*
X155847619Y-132280790D01*
X155847619Y-132280790D02*
X155895238Y-132233171D01*
X155895238Y-132233171D02*
X155990476Y-132185552D01*
X155990476Y-132185552D02*
X156085714Y-132185552D01*
X156323810Y-132185552D02*
X156561905Y-132852219D01*
X156561905Y-132852219D02*
X156800000Y-132185552D01*
X157323810Y-132852219D02*
X157228572Y-132804600D01*
X157228572Y-132804600D02*
X157180953Y-132756980D01*
X157180953Y-132756980D02*
X157133334Y-132661742D01*
X157133334Y-132661742D02*
X157133334Y-132376028D01*
X157133334Y-132376028D02*
X157180953Y-132280790D01*
X157180953Y-132280790D02*
X157228572Y-132233171D01*
X157228572Y-132233171D02*
X157323810Y-132185552D01*
X157323810Y-132185552D02*
X157466667Y-132185552D01*
X157466667Y-132185552D02*
X157561905Y-132233171D01*
X157561905Y-132233171D02*
X157609524Y-132280790D01*
X157609524Y-132280790D02*
X157657143Y-132376028D01*
X157657143Y-132376028D02*
X157657143Y-132661742D01*
X157657143Y-132661742D02*
X157609524Y-132756980D01*
X157609524Y-132756980D02*
X157561905Y-132804600D01*
X157561905Y-132804600D02*
X157466667Y-132852219D01*
X157466667Y-132852219D02*
X157323810Y-132852219D01*
D10*
X183070476Y-75022990D02*
X182994286Y-74984895D01*
X182994286Y-74984895D02*
X182880000Y-74984895D01*
X182880000Y-74984895D02*
X182765714Y-75022990D01*
X182765714Y-75022990D02*
X182689524Y-75099180D01*
X182689524Y-75099180D02*
X182651429Y-75175371D01*
X182651429Y-75175371D02*
X182613333Y-75327752D01*
X182613333Y-75327752D02*
X182613333Y-75442038D01*
X182613333Y-75442038D02*
X182651429Y-75594419D01*
X182651429Y-75594419D02*
X182689524Y-75670609D01*
X182689524Y-75670609D02*
X182765714Y-75746800D01*
X182765714Y-75746800D02*
X182880000Y-75784895D01*
X182880000Y-75784895D02*
X182956191Y-75784895D01*
X182956191Y-75784895D02*
X183070476Y-75746800D01*
X183070476Y-75746800D02*
X183108572Y-75708704D01*
X183108572Y-75708704D02*
X183108572Y-75442038D01*
X183108572Y-75442038D02*
X182956191Y-75442038D01*
X183451429Y-75784895D02*
X183451429Y-74984895D01*
X183451429Y-74984895D02*
X183908572Y-75784895D01*
X183908572Y-75784895D02*
X183908572Y-74984895D01*
X184289524Y-75784895D02*
X184289524Y-74984895D01*
X184289524Y-74984895D02*
X184480000Y-74984895D01*
X184480000Y-74984895D02*
X184594286Y-75022990D01*
X184594286Y-75022990D02*
X184670476Y-75099180D01*
X184670476Y-75099180D02*
X184708571Y-75175371D01*
X184708571Y-75175371D02*
X184746667Y-75327752D01*
X184746667Y-75327752D02*
X184746667Y-75442038D01*
X184746667Y-75442038D02*
X184708571Y-75594419D01*
X184708571Y-75594419D02*
X184670476Y-75670609D01*
X184670476Y-75670609D02*
X184594286Y-75746800D01*
X184594286Y-75746800D02*
X184480000Y-75784895D01*
X184480000Y-75784895D02*
X184289524Y-75784895D01*
X169660476Y-75022990D02*
X169584286Y-74984895D01*
X169584286Y-74984895D02*
X169470000Y-74984895D01*
X169470000Y-74984895D02*
X169355714Y-75022990D01*
X169355714Y-75022990D02*
X169279524Y-75099180D01*
X169279524Y-75099180D02*
X169241429Y-75175371D01*
X169241429Y-75175371D02*
X169203333Y-75327752D01*
X169203333Y-75327752D02*
X169203333Y-75442038D01*
X169203333Y-75442038D02*
X169241429Y-75594419D01*
X169241429Y-75594419D02*
X169279524Y-75670609D01*
X169279524Y-75670609D02*
X169355714Y-75746800D01*
X169355714Y-75746800D02*
X169470000Y-75784895D01*
X169470000Y-75784895D02*
X169546191Y-75784895D01*
X169546191Y-75784895D02*
X169660476Y-75746800D01*
X169660476Y-75746800D02*
X169698572Y-75708704D01*
X169698572Y-75708704D02*
X169698572Y-75442038D01*
X169698572Y-75442038D02*
X169546191Y-75442038D01*
X170041429Y-75784895D02*
X170041429Y-74984895D01*
X170041429Y-74984895D02*
X170498572Y-75784895D01*
X170498572Y-75784895D02*
X170498572Y-74984895D01*
X170879524Y-75784895D02*
X170879524Y-74984895D01*
X170879524Y-74984895D02*
X171070000Y-74984895D01*
X171070000Y-74984895D02*
X171184286Y-75022990D01*
X171184286Y-75022990D02*
X171260476Y-75099180D01*
X171260476Y-75099180D02*
X171298571Y-75175371D01*
X171298571Y-75175371D02*
X171336667Y-75327752D01*
X171336667Y-75327752D02*
X171336667Y-75442038D01*
X171336667Y-75442038D02*
X171298571Y-75594419D01*
X171298571Y-75594419D02*
X171260476Y-75670609D01*
X171260476Y-75670609D02*
X171184286Y-75746800D01*
X171184286Y-75746800D02*
X171070000Y-75784895D01*
X171070000Y-75784895D02*
X170879524Y-75784895D01*
X163750476Y-60022990D02*
X163674286Y-59984895D01*
X163674286Y-59984895D02*
X163560000Y-59984895D01*
X163560000Y-59984895D02*
X163445714Y-60022990D01*
X163445714Y-60022990D02*
X163369524Y-60099180D01*
X163369524Y-60099180D02*
X163331429Y-60175371D01*
X163331429Y-60175371D02*
X163293333Y-60327752D01*
X163293333Y-60327752D02*
X163293333Y-60442038D01*
X163293333Y-60442038D02*
X163331429Y-60594419D01*
X163331429Y-60594419D02*
X163369524Y-60670609D01*
X163369524Y-60670609D02*
X163445714Y-60746800D01*
X163445714Y-60746800D02*
X163560000Y-60784895D01*
X163560000Y-60784895D02*
X163636191Y-60784895D01*
X163636191Y-60784895D02*
X163750476Y-60746800D01*
X163750476Y-60746800D02*
X163788572Y-60708704D01*
X163788572Y-60708704D02*
X163788572Y-60442038D01*
X163788572Y-60442038D02*
X163636191Y-60442038D01*
X164131429Y-60784895D02*
X164131429Y-59984895D01*
X164131429Y-59984895D02*
X164588572Y-60784895D01*
X164588572Y-60784895D02*
X164588572Y-59984895D01*
X164969524Y-60784895D02*
X164969524Y-59984895D01*
X164969524Y-59984895D02*
X165160000Y-59984895D01*
X165160000Y-59984895D02*
X165274286Y-60022990D01*
X165274286Y-60022990D02*
X165350476Y-60099180D01*
X165350476Y-60099180D02*
X165388571Y-60175371D01*
X165388571Y-60175371D02*
X165426667Y-60327752D01*
X165426667Y-60327752D02*
X165426667Y-60442038D01*
X165426667Y-60442038D02*
X165388571Y-60594419D01*
X165388571Y-60594419D02*
X165350476Y-60670609D01*
X165350476Y-60670609D02*
X165274286Y-60746800D01*
X165274286Y-60746800D02*
X165160000Y-60784895D01*
X165160000Y-60784895D02*
X164969524Y-60784895D01*
X150180476Y-60022990D02*
X150104286Y-59984895D01*
X150104286Y-59984895D02*
X149990000Y-59984895D01*
X149990000Y-59984895D02*
X149875714Y-60022990D01*
X149875714Y-60022990D02*
X149799524Y-60099180D01*
X149799524Y-60099180D02*
X149761429Y-60175371D01*
X149761429Y-60175371D02*
X149723333Y-60327752D01*
X149723333Y-60327752D02*
X149723333Y-60442038D01*
X149723333Y-60442038D02*
X149761429Y-60594419D01*
X149761429Y-60594419D02*
X149799524Y-60670609D01*
X149799524Y-60670609D02*
X149875714Y-60746800D01*
X149875714Y-60746800D02*
X149990000Y-60784895D01*
X149990000Y-60784895D02*
X150066191Y-60784895D01*
X150066191Y-60784895D02*
X150180476Y-60746800D01*
X150180476Y-60746800D02*
X150218572Y-60708704D01*
X150218572Y-60708704D02*
X150218572Y-60442038D01*
X150218572Y-60442038D02*
X150066191Y-60442038D01*
X150561429Y-60784895D02*
X150561429Y-59984895D01*
X150561429Y-59984895D02*
X151018572Y-60784895D01*
X151018572Y-60784895D02*
X151018572Y-59984895D01*
X151399524Y-60784895D02*
X151399524Y-59984895D01*
X151399524Y-59984895D02*
X151590000Y-59984895D01*
X151590000Y-59984895D02*
X151704286Y-60022990D01*
X151704286Y-60022990D02*
X151780476Y-60099180D01*
X151780476Y-60099180D02*
X151818571Y-60175371D01*
X151818571Y-60175371D02*
X151856667Y-60327752D01*
X151856667Y-60327752D02*
X151856667Y-60442038D01*
X151856667Y-60442038D02*
X151818571Y-60594419D01*
X151818571Y-60594419D02*
X151780476Y-60670609D01*
X151780476Y-60670609D02*
X151704286Y-60746800D01*
X151704286Y-60746800D02*
X151590000Y-60784895D01*
X151590000Y-60784895D02*
X151399524Y-60784895D01*
X131250476Y-50022990D02*
X131174286Y-49984895D01*
X131174286Y-49984895D02*
X131060000Y-49984895D01*
X131060000Y-49984895D02*
X130945714Y-50022990D01*
X130945714Y-50022990D02*
X130869524Y-50099180D01*
X130869524Y-50099180D02*
X130831429Y-50175371D01*
X130831429Y-50175371D02*
X130793333Y-50327752D01*
X130793333Y-50327752D02*
X130793333Y-50442038D01*
X130793333Y-50442038D02*
X130831429Y-50594419D01*
X130831429Y-50594419D02*
X130869524Y-50670609D01*
X130869524Y-50670609D02*
X130945714Y-50746800D01*
X130945714Y-50746800D02*
X131060000Y-50784895D01*
X131060000Y-50784895D02*
X131136191Y-50784895D01*
X131136191Y-50784895D02*
X131250476Y-50746800D01*
X131250476Y-50746800D02*
X131288572Y-50708704D01*
X131288572Y-50708704D02*
X131288572Y-50442038D01*
X131288572Y-50442038D02*
X131136191Y-50442038D01*
X131631429Y-50784895D02*
X131631429Y-49984895D01*
X131631429Y-49984895D02*
X132088572Y-50784895D01*
X132088572Y-50784895D02*
X132088572Y-49984895D01*
X132469524Y-50784895D02*
X132469524Y-49984895D01*
X132469524Y-49984895D02*
X132660000Y-49984895D01*
X132660000Y-49984895D02*
X132774286Y-50022990D01*
X132774286Y-50022990D02*
X132850476Y-50099180D01*
X132850476Y-50099180D02*
X132888571Y-50175371D01*
X132888571Y-50175371D02*
X132926667Y-50327752D01*
X132926667Y-50327752D02*
X132926667Y-50442038D01*
X132926667Y-50442038D02*
X132888571Y-50594419D01*
X132888571Y-50594419D02*
X132850476Y-50670609D01*
X132850476Y-50670609D02*
X132774286Y-50746800D01*
X132774286Y-50746800D02*
X132660000Y-50784895D01*
X132660000Y-50784895D02*
X132469524Y-50784895D01*
X144670476Y-50022990D02*
X144594286Y-49984895D01*
X144594286Y-49984895D02*
X144480000Y-49984895D01*
X144480000Y-49984895D02*
X144365714Y-50022990D01*
X144365714Y-50022990D02*
X144289524Y-50099180D01*
X144289524Y-50099180D02*
X144251429Y-50175371D01*
X144251429Y-50175371D02*
X144213333Y-50327752D01*
X144213333Y-50327752D02*
X144213333Y-50442038D01*
X144213333Y-50442038D02*
X144251429Y-50594419D01*
X144251429Y-50594419D02*
X144289524Y-50670609D01*
X144289524Y-50670609D02*
X144365714Y-50746800D01*
X144365714Y-50746800D02*
X144480000Y-50784895D01*
X144480000Y-50784895D02*
X144556191Y-50784895D01*
X144556191Y-50784895D02*
X144670476Y-50746800D01*
X144670476Y-50746800D02*
X144708572Y-50708704D01*
X144708572Y-50708704D02*
X144708572Y-50442038D01*
X144708572Y-50442038D02*
X144556191Y-50442038D01*
X145051429Y-50784895D02*
X145051429Y-49984895D01*
X145051429Y-49984895D02*
X145508572Y-50784895D01*
X145508572Y-50784895D02*
X145508572Y-49984895D01*
X145889524Y-50784895D02*
X145889524Y-49984895D01*
X145889524Y-49984895D02*
X146080000Y-49984895D01*
X146080000Y-49984895D02*
X146194286Y-50022990D01*
X146194286Y-50022990D02*
X146270476Y-50099180D01*
X146270476Y-50099180D02*
X146308571Y-50175371D01*
X146308571Y-50175371D02*
X146346667Y-50327752D01*
X146346667Y-50327752D02*
X146346667Y-50442038D01*
X146346667Y-50442038D02*
X146308571Y-50594419D01*
X146308571Y-50594419D02*
X146270476Y-50670609D01*
X146270476Y-50670609D02*
X146194286Y-50746800D01*
X146194286Y-50746800D02*
X146080000Y-50784895D01*
X146080000Y-50784895D02*
X145889524Y-50784895D01*
X111560476Y-68182990D02*
X111484286Y-68144895D01*
X111484286Y-68144895D02*
X111370000Y-68144895D01*
X111370000Y-68144895D02*
X111255714Y-68182990D01*
X111255714Y-68182990D02*
X111179524Y-68259180D01*
X111179524Y-68259180D02*
X111141429Y-68335371D01*
X111141429Y-68335371D02*
X111103333Y-68487752D01*
X111103333Y-68487752D02*
X111103333Y-68602038D01*
X111103333Y-68602038D02*
X111141429Y-68754419D01*
X111141429Y-68754419D02*
X111179524Y-68830609D01*
X111179524Y-68830609D02*
X111255714Y-68906800D01*
X111255714Y-68906800D02*
X111370000Y-68944895D01*
X111370000Y-68944895D02*
X111446191Y-68944895D01*
X111446191Y-68944895D02*
X111560476Y-68906800D01*
X111560476Y-68906800D02*
X111598572Y-68868704D01*
X111598572Y-68868704D02*
X111598572Y-68602038D01*
X111598572Y-68602038D02*
X111446191Y-68602038D01*
X111941429Y-68944895D02*
X111941429Y-68144895D01*
X111941429Y-68144895D02*
X112398572Y-68944895D01*
X112398572Y-68944895D02*
X112398572Y-68144895D01*
X112779524Y-68944895D02*
X112779524Y-68144895D01*
X112779524Y-68144895D02*
X112970000Y-68144895D01*
X112970000Y-68144895D02*
X113084286Y-68182990D01*
X113084286Y-68182990D02*
X113160476Y-68259180D01*
X113160476Y-68259180D02*
X113198571Y-68335371D01*
X113198571Y-68335371D02*
X113236667Y-68487752D01*
X113236667Y-68487752D02*
X113236667Y-68602038D01*
X113236667Y-68602038D02*
X113198571Y-68754419D01*
X113198571Y-68754419D02*
X113160476Y-68830609D01*
X113160476Y-68830609D02*
X113084286Y-68906800D01*
X113084286Y-68906800D02*
X112970000Y-68944895D01*
X112970000Y-68944895D02*
X112779524Y-68944895D01*
X124900476Y-107262990D02*
X124824286Y-107224895D01*
X124824286Y-107224895D02*
X124710000Y-107224895D01*
X124710000Y-107224895D02*
X124595714Y-107262990D01*
X124595714Y-107262990D02*
X124519524Y-107339180D01*
X124519524Y-107339180D02*
X124481429Y-107415371D01*
X124481429Y-107415371D02*
X124443333Y-107567752D01*
X124443333Y-107567752D02*
X124443333Y-107682038D01*
X124443333Y-107682038D02*
X124481429Y-107834419D01*
X124481429Y-107834419D02*
X124519524Y-107910609D01*
X124519524Y-107910609D02*
X124595714Y-107986800D01*
X124595714Y-107986800D02*
X124710000Y-108024895D01*
X124710000Y-108024895D02*
X124786191Y-108024895D01*
X124786191Y-108024895D02*
X124900476Y-107986800D01*
X124900476Y-107986800D02*
X124938572Y-107948704D01*
X124938572Y-107948704D02*
X124938572Y-107682038D01*
X124938572Y-107682038D02*
X124786191Y-107682038D01*
X125281429Y-108024895D02*
X125281429Y-107224895D01*
X125281429Y-107224895D02*
X125738572Y-108024895D01*
X125738572Y-108024895D02*
X125738572Y-107224895D01*
X126119524Y-108024895D02*
X126119524Y-107224895D01*
X126119524Y-107224895D02*
X126310000Y-107224895D01*
X126310000Y-107224895D02*
X126424286Y-107262990D01*
X126424286Y-107262990D02*
X126500476Y-107339180D01*
X126500476Y-107339180D02*
X126538571Y-107415371D01*
X126538571Y-107415371D02*
X126576667Y-107567752D01*
X126576667Y-107567752D02*
X126576667Y-107682038D01*
X126576667Y-107682038D02*
X126538571Y-107834419D01*
X126538571Y-107834419D02*
X126500476Y-107910609D01*
X126500476Y-107910609D02*
X126424286Y-107986800D01*
X126424286Y-107986800D02*
X126310000Y-108024895D01*
X126310000Y-108024895D02*
X126119524Y-108024895D01*
X111620476Y-107262990D02*
X111544286Y-107224895D01*
X111544286Y-107224895D02*
X111430000Y-107224895D01*
X111430000Y-107224895D02*
X111315714Y-107262990D01*
X111315714Y-107262990D02*
X111239524Y-107339180D01*
X111239524Y-107339180D02*
X111201429Y-107415371D01*
X111201429Y-107415371D02*
X111163333Y-107567752D01*
X111163333Y-107567752D02*
X111163333Y-107682038D01*
X111163333Y-107682038D02*
X111201429Y-107834419D01*
X111201429Y-107834419D02*
X111239524Y-107910609D01*
X111239524Y-107910609D02*
X111315714Y-107986800D01*
X111315714Y-107986800D02*
X111430000Y-108024895D01*
X111430000Y-108024895D02*
X111506191Y-108024895D01*
X111506191Y-108024895D02*
X111620476Y-107986800D01*
X111620476Y-107986800D02*
X111658572Y-107948704D01*
X111658572Y-107948704D02*
X111658572Y-107682038D01*
X111658572Y-107682038D02*
X111506191Y-107682038D01*
X112001429Y-108024895D02*
X112001429Y-107224895D01*
X112001429Y-107224895D02*
X112458572Y-108024895D01*
X112458572Y-108024895D02*
X112458572Y-107224895D01*
X112839524Y-108024895D02*
X112839524Y-107224895D01*
X112839524Y-107224895D02*
X113030000Y-107224895D01*
X113030000Y-107224895D02*
X113144286Y-107262990D01*
X113144286Y-107262990D02*
X113220476Y-107339180D01*
X113220476Y-107339180D02*
X113258571Y-107415371D01*
X113258571Y-107415371D02*
X113296667Y-107567752D01*
X113296667Y-107567752D02*
X113296667Y-107682038D01*
X113296667Y-107682038D02*
X113258571Y-107834419D01*
X113258571Y-107834419D02*
X113220476Y-107910609D01*
X113220476Y-107910609D02*
X113144286Y-107986800D01*
X113144286Y-107986800D02*
X113030000Y-108024895D01*
X113030000Y-108024895D02*
X112839524Y-108024895D01*
D15*
X173366666Y-129589838D02*
X173271428Y-129542219D01*
X173271428Y-129542219D02*
X173128571Y-129542219D01*
X173128571Y-129542219D02*
X172985714Y-129589838D01*
X172985714Y-129589838D02*
X172890476Y-129685076D01*
X172890476Y-129685076D02*
X172842857Y-129780314D01*
X172842857Y-129780314D02*
X172795238Y-129970790D01*
X172795238Y-129970790D02*
X172795238Y-130113647D01*
X172795238Y-130113647D02*
X172842857Y-130304123D01*
X172842857Y-130304123D02*
X172890476Y-130399361D01*
X172890476Y-130399361D02*
X172985714Y-130494600D01*
X172985714Y-130494600D02*
X173128571Y-130542219D01*
X173128571Y-130542219D02*
X173223809Y-130542219D01*
X173223809Y-130542219D02*
X173366666Y-130494600D01*
X173366666Y-130494600D02*
X173414285Y-130446980D01*
X173414285Y-130446980D02*
X173414285Y-130113647D01*
X173414285Y-130113647D02*
X173223809Y-130113647D01*
X173985714Y-130542219D02*
X173890476Y-130494600D01*
X173890476Y-130494600D02*
X173842857Y-130446980D01*
X173842857Y-130446980D02*
X173795238Y-130351742D01*
X173795238Y-130351742D02*
X173795238Y-130066028D01*
X173795238Y-130066028D02*
X173842857Y-129970790D01*
X173842857Y-129970790D02*
X173890476Y-129923171D01*
X173890476Y-129923171D02*
X173985714Y-129875552D01*
X173985714Y-129875552D02*
X174128571Y-129875552D01*
X174128571Y-129875552D02*
X174223809Y-129923171D01*
X174223809Y-129923171D02*
X174271428Y-129970790D01*
X174271428Y-129970790D02*
X174319047Y-130066028D01*
X174319047Y-130066028D02*
X174319047Y-130351742D01*
X174319047Y-130351742D02*
X174271428Y-130446980D01*
X174271428Y-130446980D02*
X174223809Y-130494600D01*
X174223809Y-130494600D02*
X174128571Y-130542219D01*
X174128571Y-130542219D02*
X173985714Y-130542219D01*
X175080952Y-130018409D02*
X174747619Y-130018409D01*
X174747619Y-130542219D02*
X174747619Y-129542219D01*
X174747619Y-129542219D02*
X175223809Y-129542219D01*
X176033333Y-130542219D02*
X176033333Y-130018409D01*
X176033333Y-130018409D02*
X175985714Y-129923171D01*
X175985714Y-129923171D02*
X175890476Y-129875552D01*
X175890476Y-129875552D02*
X175700000Y-129875552D01*
X175700000Y-129875552D02*
X175604762Y-129923171D01*
X176033333Y-130494600D02*
X175938095Y-130542219D01*
X175938095Y-130542219D02*
X175700000Y-130542219D01*
X175700000Y-130542219D02*
X175604762Y-130494600D01*
X175604762Y-130494600D02*
X175557143Y-130399361D01*
X175557143Y-130399361D02*
X175557143Y-130304123D01*
X175557143Y-130304123D02*
X175604762Y-130208885D01*
X175604762Y-130208885D02*
X175700000Y-130161266D01*
X175700000Y-130161266D02*
X175938095Y-130161266D01*
X175938095Y-130161266D02*
X176033333Y-130113647D01*
X177271429Y-130542219D02*
X177271429Y-129542219D01*
X177747619Y-129875552D02*
X177747619Y-130542219D01*
X177747619Y-129970790D02*
X177795238Y-129923171D01*
X177795238Y-129923171D02*
X177890476Y-129875552D01*
X177890476Y-129875552D02*
X178033333Y-129875552D01*
X178033333Y-129875552D02*
X178128571Y-129923171D01*
X178128571Y-129923171D02*
X178176190Y-130018409D01*
X178176190Y-130018409D02*
X178176190Y-130542219D01*
X178652381Y-129875552D02*
X178652381Y-130875552D01*
X178652381Y-129923171D02*
X178747619Y-129875552D01*
X178747619Y-129875552D02*
X178938095Y-129875552D01*
X178938095Y-129875552D02*
X179033333Y-129923171D01*
X179033333Y-129923171D02*
X179080952Y-129970790D01*
X179080952Y-129970790D02*
X179128571Y-130066028D01*
X179128571Y-130066028D02*
X179128571Y-130351742D01*
X179128571Y-130351742D02*
X179080952Y-130446980D01*
X179080952Y-130446980D02*
X179033333Y-130494600D01*
X179033333Y-130494600D02*
X178938095Y-130542219D01*
X178938095Y-130542219D02*
X178747619Y-130542219D01*
X178747619Y-130542219D02*
X178652381Y-130494600D01*
X179985714Y-129875552D02*
X179985714Y-130542219D01*
X179557143Y-129875552D02*
X179557143Y-130399361D01*
X179557143Y-130399361D02*
X179604762Y-130494600D01*
X179604762Y-130494600D02*
X179700000Y-130542219D01*
X179700000Y-130542219D02*
X179842857Y-130542219D01*
X179842857Y-130542219D02*
X179938095Y-130494600D01*
X179938095Y-130494600D02*
X179985714Y-130446980D01*
X180319048Y-129875552D02*
X180700000Y-129875552D01*
X180461905Y-129542219D02*
X180461905Y-130399361D01*
X180461905Y-130399361D02*
X180509524Y-130494600D01*
X180509524Y-130494600D02*
X180604762Y-130542219D01*
X180604762Y-130542219D02*
X180700000Y-130542219D01*
D16*
X147923333Y-65859580D02*
X147875714Y-65907200D01*
X147875714Y-65907200D02*
X147732857Y-65954819D01*
X147732857Y-65954819D02*
X147637619Y-65954819D01*
X147637619Y-65954819D02*
X147494762Y-65907200D01*
X147494762Y-65907200D02*
X147399524Y-65811961D01*
X147399524Y-65811961D02*
X147351905Y-65716723D01*
X147351905Y-65716723D02*
X147304286Y-65526247D01*
X147304286Y-65526247D02*
X147304286Y-65383390D01*
X147304286Y-65383390D02*
X147351905Y-65192914D01*
X147351905Y-65192914D02*
X147399524Y-65097676D01*
X147399524Y-65097676D02*
X147494762Y-65002438D01*
X147494762Y-65002438D02*
X147637619Y-64954819D01*
X147637619Y-64954819D02*
X147732857Y-64954819D01*
X147732857Y-64954819D02*
X147875714Y-65002438D01*
X147875714Y-65002438D02*
X147923333Y-65050057D01*
X148494762Y-65383390D02*
X148399524Y-65335771D01*
X148399524Y-65335771D02*
X148351905Y-65288152D01*
X148351905Y-65288152D02*
X148304286Y-65192914D01*
X148304286Y-65192914D02*
X148304286Y-65145295D01*
X148304286Y-65145295D02*
X148351905Y-65050057D01*
X148351905Y-65050057D02*
X148399524Y-65002438D01*
X148399524Y-65002438D02*
X148494762Y-64954819D01*
X148494762Y-64954819D02*
X148685238Y-64954819D01*
X148685238Y-64954819D02*
X148780476Y-65002438D01*
X148780476Y-65002438D02*
X148828095Y-65050057D01*
X148828095Y-65050057D02*
X148875714Y-65145295D01*
X148875714Y-65145295D02*
X148875714Y-65192914D01*
X148875714Y-65192914D02*
X148828095Y-65288152D01*
X148828095Y-65288152D02*
X148780476Y-65335771D01*
X148780476Y-65335771D02*
X148685238Y-65383390D01*
X148685238Y-65383390D02*
X148494762Y-65383390D01*
X148494762Y-65383390D02*
X148399524Y-65431009D01*
X148399524Y-65431009D02*
X148351905Y-65478628D01*
X148351905Y-65478628D02*
X148304286Y-65573866D01*
X148304286Y-65573866D02*
X148304286Y-65764342D01*
X148304286Y-65764342D02*
X148351905Y-65859580D01*
X148351905Y-65859580D02*
X148399524Y-65907200D01*
X148399524Y-65907200D02*
X148494762Y-65954819D01*
X148494762Y-65954819D02*
X148685238Y-65954819D01*
X148685238Y-65954819D02*
X148780476Y-65907200D01*
X148780476Y-65907200D02*
X148828095Y-65859580D01*
X148828095Y-65859580D02*
X148875714Y-65764342D01*
X148875714Y-65764342D02*
X148875714Y-65573866D01*
X148875714Y-65573866D02*
X148828095Y-65478628D01*
X148828095Y-65478628D02*
X148780476Y-65431009D01*
X148780476Y-65431009D02*
X148685238Y-65383390D01*
D17*
X173436190Y-104044318D02*
X173436190Y-102774318D01*
X173436190Y-102774318D02*
X173738571Y-102774318D01*
X173738571Y-102774318D02*
X173920000Y-102834794D01*
X173920000Y-102834794D02*
X174040952Y-102955746D01*
X174040952Y-102955746D02*
X174101429Y-103076699D01*
X174101429Y-103076699D02*
X174161905Y-103318603D01*
X174161905Y-103318603D02*
X174161905Y-103500032D01*
X174161905Y-103500032D02*
X174101429Y-103741937D01*
X174101429Y-103741937D02*
X174040952Y-103862889D01*
X174040952Y-103862889D02*
X173920000Y-103983842D01*
X173920000Y-103983842D02*
X173738571Y-104044318D01*
X173738571Y-104044318D02*
X173436190Y-104044318D01*
X175431905Y-103923365D02*
X175371429Y-103983842D01*
X175371429Y-103983842D02*
X175190000Y-104044318D01*
X175190000Y-104044318D02*
X175069048Y-104044318D01*
X175069048Y-104044318D02*
X174887619Y-103983842D01*
X174887619Y-103983842D02*
X174766667Y-103862889D01*
X174766667Y-103862889D02*
X174706190Y-103741937D01*
X174706190Y-103741937D02*
X174645714Y-103500032D01*
X174645714Y-103500032D02*
X174645714Y-103318603D01*
X174645714Y-103318603D02*
X174706190Y-103076699D01*
X174706190Y-103076699D02*
X174766667Y-102955746D01*
X174766667Y-102955746D02*
X174887619Y-102834794D01*
X174887619Y-102834794D02*
X175069048Y-102774318D01*
X175069048Y-102774318D02*
X175190000Y-102774318D01*
X175190000Y-102774318D02*
X175371429Y-102834794D01*
X175371429Y-102834794D02*
X175431905Y-102895270D01*
X175976190Y-103560508D02*
X176943810Y-103560508D01*
X177548571Y-104044318D02*
X177548571Y-102774318D01*
X177548571Y-102774318D02*
X177850952Y-102774318D01*
X177850952Y-102774318D02*
X178032381Y-102834794D01*
X178032381Y-102834794D02*
X178153333Y-102955746D01*
X178153333Y-102955746D02*
X178213810Y-103076699D01*
X178213810Y-103076699D02*
X178274286Y-103318603D01*
X178274286Y-103318603D02*
X178274286Y-103500032D01*
X178274286Y-103500032D02*
X178213810Y-103741937D01*
X178213810Y-103741937D02*
X178153333Y-103862889D01*
X178153333Y-103862889D02*
X178032381Y-103983842D01*
X178032381Y-103983842D02*
X177850952Y-104044318D01*
X177850952Y-104044318D02*
X177548571Y-104044318D01*
X179544286Y-103923365D02*
X179483810Y-103983842D01*
X179483810Y-103983842D02*
X179302381Y-104044318D01*
X179302381Y-104044318D02*
X179181429Y-104044318D01*
X179181429Y-104044318D02*
X179000000Y-103983842D01*
X179000000Y-103983842D02*
X178879048Y-103862889D01*
X178879048Y-103862889D02*
X178818571Y-103741937D01*
X178818571Y-103741937D02*
X178758095Y-103500032D01*
X178758095Y-103500032D02*
X178758095Y-103318603D01*
X178758095Y-103318603D02*
X178818571Y-103076699D01*
X178818571Y-103076699D02*
X178879048Y-102955746D01*
X178879048Y-102955746D02*
X179000000Y-102834794D01*
X179000000Y-102834794D02*
X179181429Y-102774318D01*
X179181429Y-102774318D02*
X179302381Y-102774318D01*
X179302381Y-102774318D02*
X179483810Y-102834794D01*
X179483810Y-102834794D02*
X179544286Y-102895270D01*
D16*
X167317142Y-77389580D02*
X167269523Y-77437200D01*
X167269523Y-77437200D02*
X167126666Y-77484819D01*
X167126666Y-77484819D02*
X167031428Y-77484819D01*
X167031428Y-77484819D02*
X166888571Y-77437200D01*
X166888571Y-77437200D02*
X166793333Y-77341961D01*
X166793333Y-77341961D02*
X166745714Y-77246723D01*
X166745714Y-77246723D02*
X166698095Y-77056247D01*
X166698095Y-77056247D02*
X166698095Y-76913390D01*
X166698095Y-76913390D02*
X166745714Y-76722914D01*
X166745714Y-76722914D02*
X166793333Y-76627676D01*
X166793333Y-76627676D02*
X166888571Y-76532438D01*
X166888571Y-76532438D02*
X167031428Y-76484819D01*
X167031428Y-76484819D02*
X167126666Y-76484819D01*
X167126666Y-76484819D02*
X167269523Y-76532438D01*
X167269523Y-76532438D02*
X167317142Y-76580057D01*
X168269523Y-77484819D02*
X167698095Y-77484819D01*
X167983809Y-77484819D02*
X167983809Y-76484819D01*
X167983809Y-76484819D02*
X167888571Y-76627676D01*
X167888571Y-76627676D02*
X167793333Y-76722914D01*
X167793333Y-76722914D02*
X167698095Y-76770533D01*
X169221904Y-77484819D02*
X168650476Y-77484819D01*
X168936190Y-77484819D02*
X168936190Y-76484819D01*
X168936190Y-76484819D02*
X168840952Y-76627676D01*
X168840952Y-76627676D02*
X168745714Y-76722914D01*
X168745714Y-76722914D02*
X168650476Y-76770533D01*
D15*
X123363333Y-135082219D02*
X123363333Y-135796504D01*
X123363333Y-135796504D02*
X123315714Y-135939361D01*
X123315714Y-135939361D02*
X123220476Y-136034600D01*
X123220476Y-136034600D02*
X123077619Y-136082219D01*
X123077619Y-136082219D02*
X122982381Y-136082219D01*
X124268095Y-135415552D02*
X124268095Y-136082219D01*
X123839524Y-135415552D02*
X123839524Y-135939361D01*
X123839524Y-135939361D02*
X123887143Y-136034600D01*
X123887143Y-136034600D02*
X123982381Y-136082219D01*
X123982381Y-136082219D02*
X124125238Y-136082219D01*
X124125238Y-136082219D02*
X124220476Y-136034600D01*
X124220476Y-136034600D02*
X124268095Y-135986980D01*
X124744286Y-136082219D02*
X124744286Y-135415552D01*
X124744286Y-135510790D02*
X124791905Y-135463171D01*
X124791905Y-135463171D02*
X124887143Y-135415552D01*
X124887143Y-135415552D02*
X125030000Y-135415552D01*
X125030000Y-135415552D02*
X125125238Y-135463171D01*
X125125238Y-135463171D02*
X125172857Y-135558409D01*
X125172857Y-135558409D02*
X125172857Y-136082219D01*
X125172857Y-135558409D02*
X125220476Y-135463171D01*
X125220476Y-135463171D02*
X125315714Y-135415552D01*
X125315714Y-135415552D02*
X125458571Y-135415552D01*
X125458571Y-135415552D02*
X125553810Y-135463171D01*
X125553810Y-135463171D02*
X125601429Y-135558409D01*
X125601429Y-135558409D02*
X125601429Y-136082219D01*
X126077619Y-135415552D02*
X126077619Y-136415552D01*
X126077619Y-135463171D02*
X126172857Y-135415552D01*
X126172857Y-135415552D02*
X126363333Y-135415552D01*
X126363333Y-135415552D02*
X126458571Y-135463171D01*
X126458571Y-135463171D02*
X126506190Y-135510790D01*
X126506190Y-135510790D02*
X126553809Y-135606028D01*
X126553809Y-135606028D02*
X126553809Y-135891742D01*
X126553809Y-135891742D02*
X126506190Y-135986980D01*
X126506190Y-135986980D02*
X126458571Y-136034600D01*
X126458571Y-136034600D02*
X126363333Y-136082219D01*
X126363333Y-136082219D02*
X126172857Y-136082219D01*
X126172857Y-136082219D02*
X126077619Y-136034600D01*
X127363333Y-136034600D02*
X127268095Y-136082219D01*
X127268095Y-136082219D02*
X127077619Y-136082219D01*
X127077619Y-136082219D02*
X126982381Y-136034600D01*
X126982381Y-136034600D02*
X126934762Y-135939361D01*
X126934762Y-135939361D02*
X126934762Y-135558409D01*
X126934762Y-135558409D02*
X126982381Y-135463171D01*
X126982381Y-135463171D02*
X127077619Y-135415552D01*
X127077619Y-135415552D02*
X127268095Y-135415552D01*
X127268095Y-135415552D02*
X127363333Y-135463171D01*
X127363333Y-135463171D02*
X127410952Y-135558409D01*
X127410952Y-135558409D02*
X127410952Y-135653647D01*
X127410952Y-135653647D02*
X126934762Y-135748885D01*
X127839524Y-136082219D02*
X127839524Y-135415552D01*
X127839524Y-135606028D02*
X127887143Y-135510790D01*
X127887143Y-135510790D02*
X127934762Y-135463171D01*
X127934762Y-135463171D02*
X128030000Y-135415552D01*
X128030000Y-135415552D02*
X128125238Y-135415552D01*
X181927142Y-123688409D02*
X181593809Y-123688409D01*
X181593809Y-124212219D02*
X181593809Y-123212219D01*
X181593809Y-123212219D02*
X182069999Y-123212219D01*
X182879523Y-123545552D02*
X182879523Y-124212219D01*
X182450952Y-123545552D02*
X182450952Y-124069361D01*
X182450952Y-124069361D02*
X182498571Y-124164600D01*
X182498571Y-124164600D02*
X182593809Y-124212219D01*
X182593809Y-124212219D02*
X182736666Y-124212219D01*
X182736666Y-124212219D02*
X182831904Y-124164600D01*
X182831904Y-124164600D02*
X182879523Y-124116980D01*
X183308095Y-124164600D02*
X183403333Y-124212219D01*
X183403333Y-124212219D02*
X183593809Y-124212219D01*
X183593809Y-124212219D02*
X183689047Y-124164600D01*
X183689047Y-124164600D02*
X183736666Y-124069361D01*
X183736666Y-124069361D02*
X183736666Y-124021742D01*
X183736666Y-124021742D02*
X183689047Y-123926504D01*
X183689047Y-123926504D02*
X183593809Y-123878885D01*
X183593809Y-123878885D02*
X183450952Y-123878885D01*
X183450952Y-123878885D02*
X183355714Y-123831266D01*
X183355714Y-123831266D02*
X183308095Y-123736028D01*
X183308095Y-123736028D02*
X183308095Y-123688409D01*
X183308095Y-123688409D02*
X183355714Y-123593171D01*
X183355714Y-123593171D02*
X183450952Y-123545552D01*
X183450952Y-123545552D02*
X183593809Y-123545552D01*
X183593809Y-123545552D02*
X183689047Y-123593171D01*
X184546190Y-124164600D02*
X184450952Y-124212219D01*
X184450952Y-124212219D02*
X184260476Y-124212219D01*
X184260476Y-124212219D02*
X184165238Y-124164600D01*
X184165238Y-124164600D02*
X184117619Y-124069361D01*
X184117619Y-124069361D02*
X184117619Y-123688409D01*
X184117619Y-123688409D02*
X184165238Y-123593171D01*
X184165238Y-123593171D02*
X184260476Y-123545552D01*
X184260476Y-123545552D02*
X184450952Y-123545552D01*
X184450952Y-123545552D02*
X184546190Y-123593171D01*
X184546190Y-123593171D02*
X184593809Y-123688409D01*
X184593809Y-123688409D02*
X184593809Y-123783647D01*
X184593809Y-123783647D02*
X184117619Y-123878885D01*
X167539999Y-123338409D02*
X167682856Y-123386028D01*
X167682856Y-123386028D02*
X167730475Y-123433647D01*
X167730475Y-123433647D02*
X167778094Y-123528885D01*
X167778094Y-123528885D02*
X167778094Y-123671742D01*
X167778094Y-123671742D02*
X167730475Y-123766980D01*
X167730475Y-123766980D02*
X167682856Y-123814600D01*
X167682856Y-123814600D02*
X167587618Y-123862219D01*
X167587618Y-123862219D02*
X167206666Y-123862219D01*
X167206666Y-123862219D02*
X167206666Y-122862219D01*
X167206666Y-122862219D02*
X167539999Y-122862219D01*
X167539999Y-122862219D02*
X167635237Y-122909838D01*
X167635237Y-122909838D02*
X167682856Y-122957457D01*
X167682856Y-122957457D02*
X167730475Y-123052695D01*
X167730475Y-123052695D02*
X167730475Y-123147933D01*
X167730475Y-123147933D02*
X167682856Y-123243171D01*
X167682856Y-123243171D02*
X167635237Y-123290790D01*
X167635237Y-123290790D02*
X167539999Y-123338409D01*
X167539999Y-123338409D02*
X167206666Y-123338409D01*
X168349523Y-123862219D02*
X168254285Y-123814600D01*
X168254285Y-123814600D02*
X168206666Y-123719361D01*
X168206666Y-123719361D02*
X168206666Y-122862219D01*
X169159047Y-123195552D02*
X169159047Y-123862219D01*
X168730476Y-123195552D02*
X168730476Y-123719361D01*
X168730476Y-123719361D02*
X168778095Y-123814600D01*
X168778095Y-123814600D02*
X168873333Y-123862219D01*
X168873333Y-123862219D02*
X169016190Y-123862219D01*
X169016190Y-123862219D02*
X169111428Y-123814600D01*
X169111428Y-123814600D02*
X169159047Y-123766980D01*
X170016190Y-123814600D02*
X169920952Y-123862219D01*
X169920952Y-123862219D02*
X169730476Y-123862219D01*
X169730476Y-123862219D02*
X169635238Y-123814600D01*
X169635238Y-123814600D02*
X169587619Y-123719361D01*
X169587619Y-123719361D02*
X169587619Y-123338409D01*
X169587619Y-123338409D02*
X169635238Y-123243171D01*
X169635238Y-123243171D02*
X169730476Y-123195552D01*
X169730476Y-123195552D02*
X169920952Y-123195552D01*
X169920952Y-123195552D02*
X170016190Y-123243171D01*
X170016190Y-123243171D02*
X170063809Y-123338409D01*
X170063809Y-123338409D02*
X170063809Y-123433647D01*
X170063809Y-123433647D02*
X169587619Y-123528885D01*
X170349524Y-123195552D02*
X170730476Y-123195552D01*
X170492381Y-122862219D02*
X170492381Y-123719361D01*
X170492381Y-123719361D02*
X170540000Y-123814600D01*
X170540000Y-123814600D02*
X170635238Y-123862219D01*
X170635238Y-123862219D02*
X170730476Y-123862219D01*
X171206667Y-123862219D02*
X171111429Y-123814600D01*
X171111429Y-123814600D02*
X171063810Y-123766980D01*
X171063810Y-123766980D02*
X171016191Y-123671742D01*
X171016191Y-123671742D02*
X171016191Y-123386028D01*
X171016191Y-123386028D02*
X171063810Y-123290790D01*
X171063810Y-123290790D02*
X171111429Y-123243171D01*
X171111429Y-123243171D02*
X171206667Y-123195552D01*
X171206667Y-123195552D02*
X171349524Y-123195552D01*
X171349524Y-123195552D02*
X171444762Y-123243171D01*
X171444762Y-123243171D02*
X171492381Y-123290790D01*
X171492381Y-123290790D02*
X171540000Y-123386028D01*
X171540000Y-123386028D02*
X171540000Y-123671742D01*
X171540000Y-123671742D02*
X171492381Y-123766980D01*
X171492381Y-123766980D02*
X171444762Y-123814600D01*
X171444762Y-123814600D02*
X171349524Y-123862219D01*
X171349524Y-123862219D02*
X171206667Y-123862219D01*
X172111429Y-123862219D02*
X172016191Y-123814600D01*
X172016191Y-123814600D02*
X171968572Y-123766980D01*
X171968572Y-123766980D02*
X171920953Y-123671742D01*
X171920953Y-123671742D02*
X171920953Y-123386028D01*
X171920953Y-123386028D02*
X171968572Y-123290790D01*
X171968572Y-123290790D02*
X172016191Y-123243171D01*
X172016191Y-123243171D02*
X172111429Y-123195552D01*
X172111429Y-123195552D02*
X172254286Y-123195552D01*
X172254286Y-123195552D02*
X172349524Y-123243171D01*
X172349524Y-123243171D02*
X172397143Y-123290790D01*
X172397143Y-123290790D02*
X172444762Y-123386028D01*
X172444762Y-123386028D02*
X172444762Y-123671742D01*
X172444762Y-123671742D02*
X172397143Y-123766980D01*
X172397143Y-123766980D02*
X172349524Y-123814600D01*
X172349524Y-123814600D02*
X172254286Y-123862219D01*
X172254286Y-123862219D02*
X172111429Y-123862219D01*
X172730477Y-123195552D02*
X173111429Y-123195552D01*
X172873334Y-122862219D02*
X172873334Y-123719361D01*
X172873334Y-123719361D02*
X172920953Y-123814600D01*
X172920953Y-123814600D02*
X173016191Y-123862219D01*
X173016191Y-123862219D02*
X173111429Y-123862219D01*
X173444763Y-123862219D02*
X173444763Y-122862219D01*
X173873334Y-123862219D02*
X173873334Y-123338409D01*
X173873334Y-123338409D02*
X173825715Y-123243171D01*
X173825715Y-123243171D02*
X173730477Y-123195552D01*
X173730477Y-123195552D02*
X173587620Y-123195552D01*
X173587620Y-123195552D02*
X173492382Y-123243171D01*
X173492382Y-123243171D02*
X173444763Y-123290790D01*
X162496190Y-125692219D02*
X163067618Y-125692219D01*
X162781904Y-126692219D02*
X162781904Y-125692219D01*
X163400952Y-126168409D02*
X163734285Y-126168409D01*
X163877142Y-126692219D02*
X163400952Y-126692219D01*
X163400952Y-126692219D02*
X163400952Y-125692219D01*
X163400952Y-125692219D02*
X163877142Y-125692219D01*
X164496190Y-125692219D02*
X164686666Y-125692219D01*
X164686666Y-125692219D02*
X164781904Y-125739838D01*
X164781904Y-125739838D02*
X164877142Y-125835076D01*
X164877142Y-125835076D02*
X164924761Y-126025552D01*
X164924761Y-126025552D02*
X164924761Y-126358885D01*
X164924761Y-126358885D02*
X164877142Y-126549361D01*
X164877142Y-126549361D02*
X164781904Y-126644600D01*
X164781904Y-126644600D02*
X164686666Y-126692219D01*
X164686666Y-126692219D02*
X164496190Y-126692219D01*
X164496190Y-126692219D02*
X164400952Y-126644600D01*
X164400952Y-126644600D02*
X164305714Y-126549361D01*
X164305714Y-126549361D02*
X164258095Y-126358885D01*
X164258095Y-126358885D02*
X164258095Y-126025552D01*
X164258095Y-126025552D02*
X164305714Y-125835076D01*
X164305714Y-125835076D02*
X164400952Y-125739838D01*
X164400952Y-125739838D02*
X164496190Y-125692219D01*
X166115238Y-126692219D02*
X166115238Y-125692219D01*
X166591428Y-126025552D02*
X166591428Y-126692219D01*
X166591428Y-126120790D02*
X166639047Y-126073171D01*
X166639047Y-126073171D02*
X166734285Y-126025552D01*
X166734285Y-126025552D02*
X166877142Y-126025552D01*
X166877142Y-126025552D02*
X166972380Y-126073171D01*
X166972380Y-126073171D02*
X167019999Y-126168409D01*
X167019999Y-126168409D02*
X167019999Y-126692219D01*
X167496190Y-126025552D02*
X167496190Y-127025552D01*
X167496190Y-126073171D02*
X167591428Y-126025552D01*
X167591428Y-126025552D02*
X167781904Y-126025552D01*
X167781904Y-126025552D02*
X167877142Y-126073171D01*
X167877142Y-126073171D02*
X167924761Y-126120790D01*
X167924761Y-126120790D02*
X167972380Y-126216028D01*
X167972380Y-126216028D02*
X167972380Y-126501742D01*
X167972380Y-126501742D02*
X167924761Y-126596980D01*
X167924761Y-126596980D02*
X167877142Y-126644600D01*
X167877142Y-126644600D02*
X167781904Y-126692219D01*
X167781904Y-126692219D02*
X167591428Y-126692219D01*
X167591428Y-126692219D02*
X167496190Y-126644600D01*
X168829523Y-126025552D02*
X168829523Y-126692219D01*
X168400952Y-126025552D02*
X168400952Y-126549361D01*
X168400952Y-126549361D02*
X168448571Y-126644600D01*
X168448571Y-126644600D02*
X168543809Y-126692219D01*
X168543809Y-126692219D02*
X168686666Y-126692219D01*
X168686666Y-126692219D02*
X168781904Y-126644600D01*
X168781904Y-126644600D02*
X168829523Y-126596980D01*
X169162857Y-126025552D02*
X169543809Y-126025552D01*
X169305714Y-125692219D02*
X169305714Y-126549361D01*
X169305714Y-126549361D02*
X169353333Y-126644600D01*
X169353333Y-126644600D02*
X169448571Y-126692219D01*
X169448571Y-126692219D02*
X169543809Y-126692219D01*
D16*
X180627142Y-91999580D02*
X180579523Y-92047200D01*
X180579523Y-92047200D02*
X180436666Y-92094819D01*
X180436666Y-92094819D02*
X180341428Y-92094819D01*
X180341428Y-92094819D02*
X180198571Y-92047200D01*
X180198571Y-92047200D02*
X180103333Y-91951961D01*
X180103333Y-91951961D02*
X180055714Y-91856723D01*
X180055714Y-91856723D02*
X180008095Y-91666247D01*
X180008095Y-91666247D02*
X180008095Y-91523390D01*
X180008095Y-91523390D02*
X180055714Y-91332914D01*
X180055714Y-91332914D02*
X180103333Y-91237676D01*
X180103333Y-91237676D02*
X180198571Y-91142438D01*
X180198571Y-91142438D02*
X180341428Y-91094819D01*
X180341428Y-91094819D02*
X180436666Y-91094819D01*
X180436666Y-91094819D02*
X180579523Y-91142438D01*
X180579523Y-91142438D02*
X180627142Y-91190057D01*
X181579523Y-92094819D02*
X181008095Y-92094819D01*
X181293809Y-92094819D02*
X181293809Y-91094819D01*
X181293809Y-91094819D02*
X181198571Y-91237676D01*
X181198571Y-91237676D02*
X181103333Y-91332914D01*
X181103333Y-91332914D02*
X181008095Y-91380533D01*
X181960476Y-91190057D02*
X182008095Y-91142438D01*
X182008095Y-91142438D02*
X182103333Y-91094819D01*
X182103333Y-91094819D02*
X182341428Y-91094819D01*
X182341428Y-91094819D02*
X182436666Y-91142438D01*
X182436666Y-91142438D02*
X182484285Y-91190057D01*
X182484285Y-91190057D02*
X182531904Y-91285295D01*
X182531904Y-91285295D02*
X182531904Y-91380533D01*
X182531904Y-91380533D02*
X182484285Y-91523390D01*
X182484285Y-91523390D02*
X181912857Y-92094819D01*
X181912857Y-92094819D02*
X182531904Y-92094819D01*
X130930000Y-98820000D02*
X148710000Y-98820000D01*
X130930000Y-134380000D02*
X130930000Y-98820000D01*
X134740000Y-108980000D02*
X137915000Y-108980000D01*
X134740000Y-111520000D02*
X134740000Y-108980000D01*
X134740000Y-112155000D02*
X134740000Y-122315000D01*
X134740000Y-122315000D02*
X144900000Y-122315000D01*
X136010000Y-129300000D02*
X136010000Y-134380000D01*
X136010000Y-135650000D02*
X136010000Y-134380000D01*
X137915000Y-108980000D02*
X137915000Y-111520000D01*
X137915000Y-111520000D02*
X134740000Y-111520000D01*
X138550000Y-101868000D02*
X141090000Y-101868000D01*
X138550000Y-106440000D02*
X138550000Y-101868000D01*
X141090000Y-101868000D02*
X141090000Y-106440000D01*
X141090000Y-106440000D02*
X138550000Y-106440000D01*
X143630000Y-129300000D02*
X136010000Y-129300000D01*
X143630000Y-129300000D02*
X143630000Y-134380000D01*
X143630000Y-134380000D02*
X143630000Y-135650000D01*
X143630000Y-135650000D02*
X136010000Y-135650000D01*
X144900000Y-112155000D02*
X134740000Y-112155000D01*
X144900000Y-112155000D02*
X144900000Y-122315000D01*
X148710000Y-98820000D02*
X148710000Y-134380000D01*
X148710000Y-134380000D02*
X130930000Y-134380000D01*
D10*
X139566000Y-119521000D02*
X139185000Y-119775000D01*
X138931000Y-119521000D01*
X139312000Y-119267000D01*
X139566000Y-119521000D01*
G36*
X139566000Y-119521000D02*
G01*
X139185000Y-119775000D01*
X138931000Y-119521000D01*
X139312000Y-119267000D01*
X139566000Y-119521000D01*
G37*
X139693000Y-118759000D02*
X139312000Y-119013000D01*
X139058000Y-118759000D01*
X139439000Y-118505000D01*
X139693000Y-118759000D01*
G36*
X139693000Y-118759000D02*
G01*
X139312000Y-119013000D01*
X139058000Y-118759000D01*
X139439000Y-118505000D01*
X139693000Y-118759000D01*
G37*
X139947000Y-119902000D02*
X139566000Y-120156000D01*
X139312000Y-119902000D01*
X139693000Y-119648000D01*
X139947000Y-119902000D01*
G36*
X139947000Y-119902000D02*
G01*
X139566000Y-120156000D01*
X139312000Y-119902000D01*
X139693000Y-119648000D01*
X139947000Y-119902000D01*
G37*
X140074000Y-119140000D02*
X139693000Y-119394000D01*
X139439000Y-119140000D01*
X139820000Y-118886000D01*
X140074000Y-119140000D01*
G36*
X140074000Y-119140000D02*
G01*
X139693000Y-119394000D01*
X139439000Y-119140000D01*
X139820000Y-118886000D01*
X140074000Y-119140000D01*
G37*
X140201000Y-118378000D02*
X139820000Y-118632000D01*
X139566000Y-118378000D01*
X139947000Y-118124000D01*
X140201000Y-118378000D01*
G36*
X140201000Y-118378000D02*
G01*
X139820000Y-118632000D01*
X139566000Y-118378000D01*
X139947000Y-118124000D01*
X140201000Y-118378000D01*
G37*
X140328000Y-120283000D02*
X139947000Y-120537000D01*
X139693000Y-120283000D01*
X140074000Y-120029000D01*
X140328000Y-120283000D01*
G36*
X140328000Y-120283000D02*
G01*
X139947000Y-120537000D01*
X139693000Y-120283000D01*
X140074000Y-120029000D01*
X140328000Y-120283000D01*
G37*
X140582000Y-118759000D02*
X140201000Y-119013000D01*
X139947000Y-118759000D01*
X140328000Y-118505000D01*
X140582000Y-118759000D01*
G36*
X140582000Y-118759000D02*
G01*
X140201000Y-119013000D01*
X139947000Y-118759000D01*
X140328000Y-118505000D01*
X140582000Y-118759000D01*
G37*
X140709000Y-117997000D02*
X140328000Y-118251000D01*
X140074000Y-117997000D01*
X140455000Y-117743000D01*
X140709000Y-117997000D01*
G36*
X140709000Y-117997000D02*
G01*
X140328000Y-118251000D01*
X140074000Y-117997000D01*
X140455000Y-117743000D01*
X140709000Y-117997000D01*
G37*
D18*
X140913606Y-79514629D02*
X141345306Y-79567944D01*
X141760429Y-79659738D01*
X142169703Y-79792412D01*
X142583855Y-79968368D01*
X142606425Y-79979080D01*
X142943713Y-80154067D01*
X143251890Y-80345363D01*
X143544887Y-80562670D01*
X143836639Y-80815686D01*
X143917686Y-80892033D01*
X144140310Y-81118245D01*
X144334964Y-81346498D01*
X144509602Y-81588068D01*
X144672178Y-81854234D01*
X144830645Y-82156274D01*
X144877021Y-82252300D01*
X144985220Y-82494601D01*
X145070117Y-82721320D01*
X145139890Y-82956275D01*
X145189506Y-83162529D01*
X145272604Y-83645367D01*
X145305876Y-84120722D01*
X145289172Y-84589509D01*
X145222344Y-85052646D01*
X145105241Y-85511050D01*
X144937715Y-85965638D01*
X144719616Y-86417327D01*
X144634744Y-86568975D01*
X144531199Y-86740786D01*
X144429858Y-86891984D01*
X144321044Y-87035097D01*
X144195081Y-87182654D01*
X144042293Y-87347183D01*
X143998661Y-87392548D01*
X143637300Y-87730652D01*
X143247077Y-88028363D01*
X142831144Y-88283802D01*
X142392656Y-88495088D01*
X141934765Y-88660342D01*
X141813500Y-88695378D01*
X141718605Y-88721584D01*
X141638387Y-88744032D01*
X141589706Y-88758003D01*
X141588742Y-88758292D01*
X141575867Y-88752195D01*
X141599972Y-88716834D01*
X141640152Y-88674047D01*
X141703962Y-88596239D01*
X141754533Y-88510125D01*
X141769659Y-88471743D01*
X141776797Y-88433179D01*
X141782884Y-88366850D01*
X141787976Y-88269879D01*
X141792130Y-88139385D01*
X141795402Y-87972489D01*
X141797848Y-87766311D01*
X141799526Y-87517974D01*
X141800491Y-87224597D01*
X141800800Y-86883490D01*
X141800800Y-85399174D01*
X141736459Y-85270058D01*
X141646680Y-85136498D01*
X141533256Y-85046348D01*
X141398838Y-85001411D01*
X141334416Y-84996431D01*
X141203900Y-84995500D01*
X141211534Y-85351100D01*
X141213257Y-85515272D01*
X141210079Y-85635105D01*
X141201614Y-85716860D01*
X141187479Y-85766796D01*
X141185781Y-85770200D01*
X141124035Y-85839290D01*
X141028141Y-85891668D01*
X140913915Y-85919791D01*
X140866240Y-85922560D01*
X140757180Y-85922600D01*
X140772100Y-88453962D01*
X140849057Y-88578398D01*
X140926090Y-88678172D01*
X141023625Y-88750467D01*
X141059671Y-88769618D01*
X141193328Y-88836403D01*
X141074419Y-88852701D01*
X141008467Y-88857962D01*
X140903962Y-88861849D01*
X140770421Y-88864408D01*
X140617361Y-88865686D01*
X140454298Y-88865727D01*
X140290749Y-88864577D01*
X140136231Y-88862282D01*
X140000260Y-88858889D01*
X139892354Y-88854442D01*
X139822029Y-88848987D01*
X139806900Y-88846609D01*
X139730700Y-88830228D01*
X139837505Y-88798137D01*
X139977778Y-88731418D01*
X140090669Y-88627776D01*
X140152856Y-88527150D01*
X140163530Y-88500741D01*
X140172451Y-88469579D01*
X140179779Y-88429134D01*
X140185671Y-88374879D01*
X140190286Y-88302281D01*
X140193781Y-88206813D01*
X140196317Y-88083944D01*
X140198049Y-87929144D01*
X140199138Y-87737885D01*
X140199741Y-87505636D01*
X140200017Y-87227868D01*
X140200042Y-87177103D01*
X140200600Y-85929707D01*
X140063163Y-85915522D01*
X139929917Y-85887825D01*
X139833649Y-85837598D01*
X139779674Y-85767703D01*
X139777420Y-85761577D01*
X139771146Y-85717113D01*
X139766803Y-85632710D01*
X139764688Y-85519206D01*
X139765099Y-85387436D01*
X139765856Y-85340976D01*
X139766267Y-85320059D01*
X139870400Y-85320059D01*
X139871315Y-85440289D01*
X139875400Y-85520805D01*
X139884659Y-85572678D01*
X139901099Y-85606981D01*
X139926724Y-85634786D01*
X139927550Y-85635539D01*
X140010281Y-85694744D01*
X140079522Y-85708132D01*
X140094727Y-85704687D01*
X140141987Y-85694632D01*
X140151877Y-85694000D01*
X140185296Y-85677673D01*
X140226000Y-85643200D01*
X140249139Y-85614103D01*
X140264058Y-85575242D01*
X140272483Y-85515780D01*
X140276143Y-85424882D01*
X140276800Y-85324545D01*
X140276758Y-85318094D01*
X140683200Y-85318094D01*
X140686008Y-85447327D01*
X140695351Y-85536008D01*
X140712606Y-85594124D01*
X140724017Y-85613972D01*
X140783535Y-85672472D01*
X140853575Y-85705117D01*
X140907527Y-85705111D01*
X140954686Y-85694669D01*
X140964677Y-85694000D01*
X140998096Y-85677673D01*
X141038800Y-85643200D01*
X141061562Y-85614723D01*
X141076386Y-85576797D01*
X141084907Y-85518837D01*
X141088764Y-85430262D01*
X141089600Y-85314843D01*
X141089053Y-85192557D01*
X141085976Y-85110438D01*
X141078215Y-85057853D01*
X141063614Y-85024168D01*
X141040018Y-84998753D01*
X141022674Y-84984643D01*
X140934720Y-84938932D01*
X140849555Y-84943620D01*
X140765001Y-84998884D01*
X140757446Y-85006246D01*
X140722632Y-85043720D01*
X140700847Y-85079986D01*
X140689045Y-85127840D01*
X140684178Y-85200078D01*
X140683201Y-85309493D01*
X140683200Y-85318094D01*
X140276758Y-85318094D01*
X140275996Y-85203599D01*
X140272157Y-85122109D01*
X140263144Y-85068739D01*
X140246815Y-85032153D01*
X140221030Y-85001013D01*
X140214454Y-84994345D01*
X140131344Y-84941939D01*
X140040990Y-84937637D01*
X139952483Y-84981441D01*
X139937608Y-84994287D01*
X139907389Y-85025022D01*
X139887916Y-85057408D01*
X139876836Y-85102855D01*
X139871795Y-85172771D01*
X139870440Y-85278567D01*
X139870400Y-85320059D01*
X139766267Y-85320059D01*
X139773053Y-84975253D01*
X139631400Y-84989873D01*
X139477307Y-85029184D01*
X139349696Y-85109941D01*
X139253232Y-85227716D01*
X139192581Y-85378078D01*
X139184722Y-85413953D01*
X139178714Y-85471945D01*
X139173503Y-85574380D01*
X139169084Y-85715328D01*
X139165452Y-85888862D01*
X139162600Y-86089052D01*
X139160524Y-86309972D01*
X139159216Y-86545693D01*
X139158672Y-86790285D01*
X139158886Y-87037822D01*
X139159851Y-87282375D01*
X139161564Y-87518015D01*
X139164016Y-87738814D01*
X139167204Y-87938844D01*
X139171121Y-88112176D01*
X139175762Y-88252883D01*
X139181120Y-88355035D01*
X139187191Y-88412705D01*
X139187609Y-88414768D01*
X139214247Y-88503901D01*
X139258139Y-88579733D01*
X139331188Y-88662361D01*
X139338800Y-88670019D01*
X139399149Y-88731032D01*
X139441308Y-88774939D01*
X139456529Y-88792617D01*
X139456440Y-88792650D01*
X139431422Y-88786368D01*
X139367342Y-88769416D01*
X139274159Y-88744449D01*
X139171900Y-88716845D01*
X138703886Y-88567954D01*
X138268727Y-88382553D01*
X137861140Y-88157589D01*
X137475842Y-87890015D01*
X137107552Y-87576778D01*
X136972676Y-87446847D01*
X136748865Y-87213732D01*
X136560101Y-86992038D01*
X136396900Y-86768741D01*
X136249775Y-86530816D01*
X136109243Y-86265240D01*
X136103104Y-86252800D01*
X135905383Y-85796576D01*
X135757244Y-85333595D01*
X135658688Y-84866090D01*
X135609714Y-84396295D01*
X135610217Y-84007428D01*
X139364976Y-84007428D01*
X139365113Y-84155679D01*
X139366617Y-84270061D01*
X139369741Y-84356219D01*
X139374738Y-84419795D01*
X139381860Y-84466433D01*
X139391361Y-84501774D01*
X139403492Y-84531463D01*
X139410778Y-84546253D01*
X139496267Y-84659966D01*
X139617095Y-84738214D01*
X139665004Y-84755999D01*
X139706181Y-84760967D01*
X139791349Y-84765192D01*
X139913704Y-84768546D01*
X140066441Y-84770905D01*
X140242754Y-84772142D01*
X140435840Y-84772133D01*
X140518100Y-84771741D01*
X140738827Y-84770295D01*
X140914676Y-84768684D01*
X141051570Y-84766475D01*
X141155429Y-84763235D01*
X141232175Y-84758532D01*
X141287730Y-84751933D01*
X141328016Y-84743005D01*
X141358954Y-84731316D01*
X141386466Y-84716432D01*
X141401539Y-84707190D01*
X141476365Y-84644151D01*
X141539182Y-84564284D01*
X141548547Y-84547573D01*
X141562295Y-84518390D01*
X141573250Y-84486776D01*
X141581670Y-84447080D01*
X141587812Y-84393651D01*
X141591932Y-84320838D01*
X141594286Y-84222991D01*
X141595133Y-84094458D01*
X141594727Y-83929588D01*
X141593328Y-83722730D01*
X141592208Y-83586754D01*
X141590112Y-83354365D01*
X141587953Y-83167314D01*
X141585381Y-83020138D01*
X141582046Y-82907377D01*
X141579265Y-82854978D01*
X141700652Y-82854978D01*
X141707655Y-82975340D01*
X141736684Y-83051209D01*
X141795986Y-83124477D01*
X141887783Y-83192644D01*
X141994260Y-83243574D01*
X142038498Y-83256770D01*
X142081488Y-83261144D01*
X142169112Y-83265302D01*
X142295205Y-83269115D01*
X142453602Y-83272455D01*
X142638136Y-83275194D01*
X142842642Y-83277203D01*
X143060954Y-83278353D01*
X143077150Y-83278400D01*
X144036000Y-83281000D01*
X144036000Y-82879407D01*
X144137599Y-82879407D01*
X144137600Y-82887300D01*
X144137600Y-83255600D01*
X144205218Y-83255600D01*
X144267905Y-83242814D01*
X144346969Y-83210574D01*
X144379415Y-83193140D01*
X144492680Y-83104090D01*
X144560069Y-83001469D01*
X144582156Y-82892277D01*
X144559514Y-82783511D01*
X144492716Y-82682170D01*
X144382337Y-82595253D01*
X144328100Y-82567007D01*
X144256965Y-82534995D01*
X144206188Y-82518918D01*
X144172337Y-82524542D01*
X144151984Y-82557636D01*
X144141696Y-82623966D01*
X144138045Y-82729300D01*
X144137599Y-82879407D01*
X144036000Y-82879407D01*
X144036000Y-82519000D01*
X143039050Y-82519557D01*
X142785303Y-82519858D01*
X142577187Y-82520598D01*
X142409533Y-82521999D01*
X142277172Y-82524281D01*
X142174935Y-82527668D01*
X142097654Y-82532381D01*
X142040160Y-82538641D01*
X141997283Y-82546671D01*
X141963856Y-82556692D01*
X141939449Y-82566743D01*
X141819703Y-82643144D01*
X141739052Y-82741734D01*
X141700652Y-82854978D01*
X141579265Y-82854978D01*
X141577597Y-82823568D01*
X141571684Y-82763250D01*
X141563957Y-82720961D01*
X141554067Y-82691240D01*
X141541663Y-82668624D01*
X141532530Y-82655740D01*
X141472034Y-82587956D01*
X141410017Y-82533269D01*
X141389266Y-82519144D01*
X141365223Y-82507815D01*
X141332425Y-82498974D01*
X141285404Y-82492314D01*
X141218694Y-82487526D01*
X141126831Y-82484303D01*
X141004347Y-82482337D01*
X140845777Y-82481321D01*
X140645655Y-82480945D01*
X140480000Y-82480900D01*
X140247929Y-82481011D01*
X140061191Y-82481551D01*
X139914322Y-82482828D01*
X139801855Y-82485148D01*
X139718324Y-82488820D01*
X139658264Y-82494152D01*
X139616207Y-82501452D01*
X139586689Y-82511026D01*
X139564243Y-82523184D01*
X139549982Y-82533269D01*
X139482167Y-82593752D01*
X139427469Y-82655740D01*
X139413325Y-82676691D01*
X139401914Y-82701353D01*
X139392883Y-82735186D01*
X139385884Y-82783653D01*
X139380566Y-82852216D01*
X139376579Y-82946335D01*
X139373574Y-83071474D01*
X139371199Y-83233092D01*
X139369105Y-83436653D01*
X139367791Y-83586754D01*
X139365953Y-83819668D01*
X139364976Y-84007428D01*
X135610217Y-84007428D01*
X135610322Y-83926443D01*
X135660512Y-83458769D01*
X135760284Y-82995505D01*
X135803136Y-82864493D01*
X136238294Y-82864493D01*
X136261056Y-82960889D01*
X136321688Y-83056716D01*
X136408372Y-83140828D01*
X136509292Y-83202078D01*
X136612631Y-83229320D01*
X136625550Y-83229782D01*
X136695400Y-83230200D01*
X136695400Y-82966503D01*
X136800929Y-82966503D01*
X136801268Y-83080933D01*
X136803451Y-83168251D01*
X136807317Y-83218137D01*
X136808747Y-83224177D01*
X136819646Y-83232892D01*
X136847801Y-83239911D01*
X136897456Y-83245341D01*
X136972851Y-83249290D01*
X137078229Y-83251866D01*
X137217829Y-83253176D01*
X137395895Y-83253329D01*
X137616668Y-83252431D01*
X137857247Y-83250800D01*
X138113983Y-83248767D01*
X138324992Y-83246771D01*
X138495349Y-83244527D01*
X138630125Y-83241752D01*
X138734395Y-83238160D01*
X138813232Y-83233467D01*
X138871708Y-83227388D01*
X138914896Y-83219640D01*
X138947870Y-83209937D01*
X138975702Y-83197995D01*
X138997254Y-83186863D01*
X139121686Y-83098566D01*
X139200875Y-82995891D01*
X139235211Y-82885969D01*
X139225084Y-82775932D01*
X139170884Y-82672909D01*
X139073002Y-82584032D01*
X138961166Y-82526998D01*
X138927234Y-82515351D01*
X138888215Y-82505831D01*
X138838920Y-82498225D01*
X138774156Y-82492324D01*
X138688732Y-82487916D01*
X138577456Y-82484791D01*
X138435138Y-82482738D01*
X138256586Y-82481546D01*
X138036609Y-82481006D01*
X137825700Y-82480900D01*
X136809700Y-82480900D01*
X136802599Y-82835276D01*
X136800929Y-82966503D01*
X136695400Y-82966503D01*
X136695400Y-82486953D01*
X136605458Y-82501548D01*
X136480149Y-82541541D01*
X136371760Y-82612777D01*
X136289964Y-82705691D01*
X136244435Y-82810721D01*
X136238294Y-82864493D01*
X135803136Y-82864493D01*
X135909638Y-82538886D01*
X136103481Y-82101246D01*
X136212299Y-81896700D01*
X139682514Y-81896700D01*
X139690893Y-82051475D01*
X139714455Y-82168154D01*
X139724597Y-82195150D01*
X139754258Y-82253999D01*
X139787638Y-82281725D01*
X139843928Y-82289957D01*
X139881803Y-82290400D01*
X139997400Y-82290400D01*
X139997494Y-82131650D01*
X140013835Y-81976936D01*
X140063890Y-81858786D01*
X140149518Y-81775480D01*
X140272578Y-81725298D01*
X140434929Y-81706519D01*
X140457193Y-81706294D01*
X140567226Y-81709220D01*
X140643489Y-81720436D01*
X140702782Y-81743403D01*
X140736593Y-81763856D01*
X140833394Y-81856571D01*
X140891491Y-81980372D01*
X140911726Y-82137091D01*
X140911760Y-82144350D01*
X140911800Y-82290400D01*
X141023342Y-82290400D01*
X141093449Y-82287237D01*
X141133160Y-82269048D01*
X141161359Y-82222777D01*
X141177528Y-82183821D01*
X141225827Y-81997662D01*
X141227791Y-81806240D01*
X141185183Y-81619891D01*
X141099767Y-81448948D01*
X141038438Y-81368918D01*
X140896142Y-81242828D01*
X140732655Y-81157536D01*
X140556330Y-81113147D01*
X140375523Y-81109764D01*
X140198589Y-81147490D01*
X140033883Y-81226430D01*
X139889761Y-81346685D01*
X139882510Y-81354597D01*
X139780032Y-81488841D01*
X139716694Y-81627494D01*
X139686787Y-81786028D01*
X139682514Y-81896700D01*
X136212299Y-81896700D01*
X136251312Y-81823369D01*
X136398693Y-81582504D01*
X136554883Y-81365800D01*
X136729137Y-81160403D01*
X136929013Y-80955112D01*
X137186396Y-80715261D01*
X137430163Y-80511206D01*
X137671963Y-80334673D01*
X137923443Y-80177385D01*
X138196253Y-80031066D01*
X138302774Y-79979080D01*
X138717492Y-79800734D01*
X139126755Y-79665798D01*
X139541291Y-79571872D01*
X139971830Y-79516553D01*
X140429098Y-79497440D01*
X140454600Y-79497391D01*
X140913606Y-79514629D01*
G36*
X140913606Y-79514629D02*
G01*
X141345306Y-79567944D01*
X141760429Y-79659738D01*
X142169703Y-79792412D01*
X142583855Y-79968368D01*
X142606425Y-79979080D01*
X142943713Y-80154067D01*
X143251890Y-80345363D01*
X143544887Y-80562670D01*
X143836639Y-80815686D01*
X143917686Y-80892033D01*
X144140310Y-81118245D01*
X144334964Y-81346498D01*
X144509602Y-81588068D01*
X144672178Y-81854234D01*
X144830645Y-82156274D01*
X144877021Y-82252300D01*
X144985220Y-82494601D01*
X145070117Y-82721320D01*
X145139890Y-82956275D01*
X145189506Y-83162529D01*
X145272604Y-83645367D01*
X145305876Y-84120722D01*
X145289172Y-84589509D01*
X145222344Y-85052646D01*
X145105241Y-85511050D01*
X144937715Y-85965638D01*
X144719616Y-86417327D01*
X144634744Y-86568975D01*
X144531199Y-86740786D01*
X144429858Y-86891984D01*
X144321044Y-87035097D01*
X144195081Y-87182654D01*
X144042293Y-87347183D01*
X143998661Y-87392548D01*
X143637300Y-87730652D01*
X143247077Y-88028363D01*
X142831144Y-88283802D01*
X142392656Y-88495088D01*
X141934765Y-88660342D01*
X141813500Y-88695378D01*
X141718605Y-88721584D01*
X141638387Y-88744032D01*
X141589706Y-88758003D01*
X141588742Y-88758292D01*
X141575867Y-88752195D01*
X141599972Y-88716834D01*
X141640152Y-88674047D01*
X141703962Y-88596239D01*
X141754533Y-88510125D01*
X141769659Y-88471743D01*
X141776797Y-88433179D01*
X141782884Y-88366850D01*
X141787976Y-88269879D01*
X141792130Y-88139385D01*
X141795402Y-87972489D01*
X141797848Y-87766311D01*
X141799526Y-87517974D01*
X141800491Y-87224597D01*
X141800800Y-86883490D01*
X141800800Y-85399174D01*
X141736459Y-85270058D01*
X141646680Y-85136498D01*
X141533256Y-85046348D01*
X141398838Y-85001411D01*
X141334416Y-84996431D01*
X141203900Y-84995500D01*
X141211534Y-85351100D01*
X141213257Y-85515272D01*
X141210079Y-85635105D01*
X141201614Y-85716860D01*
X141187479Y-85766796D01*
X141185781Y-85770200D01*
X141124035Y-85839290D01*
X141028141Y-85891668D01*
X140913915Y-85919791D01*
X140866240Y-85922560D01*
X140757180Y-85922600D01*
X140772100Y-88453962D01*
X140849057Y-88578398D01*
X140926090Y-88678172D01*
X141023625Y-88750467D01*
X141059671Y-88769618D01*
X141193328Y-88836403D01*
X141074419Y-88852701D01*
X141008467Y-88857962D01*
X140903962Y-88861849D01*
X140770421Y-88864408D01*
X140617361Y-88865686D01*
X140454298Y-88865727D01*
X140290749Y-88864577D01*
X140136231Y-88862282D01*
X140000260Y-88858889D01*
X139892354Y-88854442D01*
X139822029Y-88848987D01*
X139806900Y-88846609D01*
X139730700Y-88830228D01*
X139837505Y-88798137D01*
X139977778Y-88731418D01*
X140090669Y-88627776D01*
X140152856Y-88527150D01*
X140163530Y-88500741D01*
X140172451Y-88469579D01*
X140179779Y-88429134D01*
X140185671Y-88374879D01*
X140190286Y-88302281D01*
X140193781Y-88206813D01*
X140196317Y-88083944D01*
X140198049Y-87929144D01*
X140199138Y-87737885D01*
X140199741Y-87505636D01*
X140200017Y-87227868D01*
X140200042Y-87177103D01*
X140200600Y-85929707D01*
X140063163Y-85915522D01*
X139929917Y-85887825D01*
X139833649Y-85837598D01*
X139779674Y-85767703D01*
X139777420Y-85761577D01*
X139771146Y-85717113D01*
X139766803Y-85632710D01*
X139764688Y-85519206D01*
X139765099Y-85387436D01*
X139765856Y-85340976D01*
X139766267Y-85320059D01*
X139870400Y-85320059D01*
X139871315Y-85440289D01*
X139875400Y-85520805D01*
X139884659Y-85572678D01*
X139901099Y-85606981D01*
X139926724Y-85634786D01*
X139927550Y-85635539D01*
X140010281Y-85694744D01*
X140079522Y-85708132D01*
X140094727Y-85704687D01*
X140141987Y-85694632D01*
X140151877Y-85694000D01*
X140185296Y-85677673D01*
X140226000Y-85643200D01*
X140249139Y-85614103D01*
X140264058Y-85575242D01*
X140272483Y-85515780D01*
X140276143Y-85424882D01*
X140276800Y-85324545D01*
X140276758Y-85318094D01*
X140683200Y-85318094D01*
X140686008Y-85447327D01*
X140695351Y-85536008D01*
X140712606Y-85594124D01*
X140724017Y-85613972D01*
X140783535Y-85672472D01*
X140853575Y-85705117D01*
X140907527Y-85705111D01*
X140954686Y-85694669D01*
X140964677Y-85694000D01*
X140998096Y-85677673D01*
X141038800Y-85643200D01*
X141061562Y-85614723D01*
X141076386Y-85576797D01*
X141084907Y-85518837D01*
X141088764Y-85430262D01*
X141089600Y-85314843D01*
X141089053Y-85192557D01*
X141085976Y-85110438D01*
X141078215Y-85057853D01*
X141063614Y-85024168D01*
X141040018Y-84998753D01*
X141022674Y-84984643D01*
X140934720Y-84938932D01*
X140849555Y-84943620D01*
X140765001Y-84998884D01*
X140757446Y-85006246D01*
X140722632Y-85043720D01*
X140700847Y-85079986D01*
X140689045Y-85127840D01*
X140684178Y-85200078D01*
X140683201Y-85309493D01*
X140683200Y-85318094D01*
X140276758Y-85318094D01*
X140275996Y-85203599D01*
X140272157Y-85122109D01*
X140263144Y-85068739D01*
X140246815Y-85032153D01*
X140221030Y-85001013D01*
X140214454Y-84994345D01*
X140131344Y-84941939D01*
X140040990Y-84937637D01*
X139952483Y-84981441D01*
X139937608Y-84994287D01*
X139907389Y-85025022D01*
X139887916Y-85057408D01*
X139876836Y-85102855D01*
X139871795Y-85172771D01*
X139870440Y-85278567D01*
X139870400Y-85320059D01*
X139766267Y-85320059D01*
X139773053Y-84975253D01*
X139631400Y-84989873D01*
X139477307Y-85029184D01*
X139349696Y-85109941D01*
X139253232Y-85227716D01*
X139192581Y-85378078D01*
X139184722Y-85413953D01*
X139178714Y-85471945D01*
X139173503Y-85574380D01*
X139169084Y-85715328D01*
X139165452Y-85888862D01*
X139162600Y-86089052D01*
X139160524Y-86309972D01*
X139159216Y-86545693D01*
X139158672Y-86790285D01*
X139158886Y-87037822D01*
X139159851Y-87282375D01*
X139161564Y-87518015D01*
X139164016Y-87738814D01*
X139167204Y-87938844D01*
X139171121Y-88112176D01*
X139175762Y-88252883D01*
X139181120Y-88355035D01*
X139187191Y-88412705D01*
X139187609Y-88414768D01*
X139214247Y-88503901D01*
X139258139Y-88579733D01*
X139331188Y-88662361D01*
X139338800Y-88670019D01*
X139399149Y-88731032D01*
X139441308Y-88774939D01*
X139456529Y-88792617D01*
X139456440Y-88792650D01*
X139431422Y-88786368D01*
X139367342Y-88769416D01*
X139274159Y-88744449D01*
X139171900Y-88716845D01*
X138703886Y-88567954D01*
X138268727Y-88382553D01*
X137861140Y-88157589D01*
X137475842Y-87890015D01*
X137107552Y-87576778D01*
X136972676Y-87446847D01*
X136748865Y-87213732D01*
X136560101Y-86992038D01*
X136396900Y-86768741D01*
X136249775Y-86530816D01*
X136109243Y-86265240D01*
X136103104Y-86252800D01*
X135905383Y-85796576D01*
X135757244Y-85333595D01*
X135658688Y-84866090D01*
X135609714Y-84396295D01*
X135610217Y-84007428D01*
X139364976Y-84007428D01*
X139365113Y-84155679D01*
X139366617Y-84270061D01*
X139369741Y-84356219D01*
X139374738Y-84419795D01*
X139381860Y-84466433D01*
X139391361Y-84501774D01*
X139403492Y-84531463D01*
X139410778Y-84546253D01*
X139496267Y-84659966D01*
X139617095Y-84738214D01*
X139665004Y-84755999D01*
X139706181Y-84760967D01*
X139791349Y-84765192D01*
X139913704Y-84768546D01*
X140066441Y-84770905D01*
X140242754Y-84772142D01*
X140435840Y-84772133D01*
X140518100Y-84771741D01*
X140738827Y-84770295D01*
X140914676Y-84768684D01*
X141051570Y-84766475D01*
X141155429Y-84763235D01*
X141232175Y-84758532D01*
X141287730Y-84751933D01*
X141328016Y-84743005D01*
X141358954Y-84731316D01*
X141386466Y-84716432D01*
X141401539Y-84707190D01*
X141476365Y-84644151D01*
X141539182Y-84564284D01*
X141548547Y-84547573D01*
X141562295Y-84518390D01*
X141573250Y-84486776D01*
X141581670Y-84447080D01*
X141587812Y-84393651D01*
X141591932Y-84320838D01*
X141594286Y-84222991D01*
X141595133Y-84094458D01*
X141594727Y-83929588D01*
X141593328Y-83722730D01*
X141592208Y-83586754D01*
X141590112Y-83354365D01*
X141587953Y-83167314D01*
X141585381Y-83020138D01*
X141582046Y-82907377D01*
X141579265Y-82854978D01*
X141700652Y-82854978D01*
X141707655Y-82975340D01*
X141736684Y-83051209D01*
X141795986Y-83124477D01*
X141887783Y-83192644D01*
X141994260Y-83243574D01*
X142038498Y-83256770D01*
X142081488Y-83261144D01*
X142169112Y-83265302D01*
X142295205Y-83269115D01*
X142453602Y-83272455D01*
X142638136Y-83275194D01*
X142842642Y-83277203D01*
X143060954Y-83278353D01*
X143077150Y-83278400D01*
X144036000Y-83281000D01*
X144036000Y-82879407D01*
X144137599Y-82879407D01*
X144137600Y-82887300D01*
X144137600Y-83255600D01*
X144205218Y-83255600D01*
X144267905Y-83242814D01*
X144346969Y-83210574D01*
X144379415Y-83193140D01*
X144492680Y-83104090D01*
X144560069Y-83001469D01*
X144582156Y-82892277D01*
X144559514Y-82783511D01*
X144492716Y-82682170D01*
X144382337Y-82595253D01*
X144328100Y-82567007D01*
X144256965Y-82534995D01*
X144206188Y-82518918D01*
X144172337Y-82524542D01*
X144151984Y-82557636D01*
X144141696Y-82623966D01*
X144138045Y-82729300D01*
X144137599Y-82879407D01*
X144036000Y-82879407D01*
X144036000Y-82519000D01*
X143039050Y-82519557D01*
X142785303Y-82519858D01*
X142577187Y-82520598D01*
X142409533Y-82521999D01*
X142277172Y-82524281D01*
X142174935Y-82527668D01*
X142097654Y-82532381D01*
X142040160Y-82538641D01*
X141997283Y-82546671D01*
X141963856Y-82556692D01*
X141939449Y-82566743D01*
X141819703Y-82643144D01*
X141739052Y-82741734D01*
X141700652Y-82854978D01*
X141579265Y-82854978D01*
X141577597Y-82823568D01*
X141571684Y-82763250D01*
X141563957Y-82720961D01*
X141554067Y-82691240D01*
X141541663Y-82668624D01*
X141532530Y-82655740D01*
X141472034Y-82587956D01*
X141410017Y-82533269D01*
X141389266Y-82519144D01*
X141365223Y-82507815D01*
X141332425Y-82498974D01*
X141285404Y-82492314D01*
X141218694Y-82487526D01*
X141126831Y-82484303D01*
X141004347Y-82482337D01*
X140845777Y-82481321D01*
X140645655Y-82480945D01*
X140480000Y-82480900D01*
X140247929Y-82481011D01*
X140061191Y-82481551D01*
X139914322Y-82482828D01*
X139801855Y-82485148D01*
X139718324Y-82488820D01*
X139658264Y-82494152D01*
X139616207Y-82501452D01*
X139586689Y-82511026D01*
X139564243Y-82523184D01*
X139549982Y-82533269D01*
X139482167Y-82593752D01*
X139427469Y-82655740D01*
X139413325Y-82676691D01*
X139401914Y-82701353D01*
X139392883Y-82735186D01*
X139385884Y-82783653D01*
X139380566Y-82852216D01*
X139376579Y-82946335D01*
X139373574Y-83071474D01*
X139371199Y-83233092D01*
X139369105Y-83436653D01*
X139367791Y-83586754D01*
X139365953Y-83819668D01*
X139364976Y-84007428D01*
X135610217Y-84007428D01*
X135610322Y-83926443D01*
X135660512Y-83458769D01*
X135760284Y-82995505D01*
X135803136Y-82864493D01*
X136238294Y-82864493D01*
X136261056Y-82960889D01*
X136321688Y-83056716D01*
X136408372Y-83140828D01*
X136509292Y-83202078D01*
X136612631Y-83229320D01*
X136625550Y-83229782D01*
X136695400Y-83230200D01*
X136695400Y-82966503D01*
X136800929Y-82966503D01*
X136801268Y-83080933D01*
X136803451Y-83168251D01*
X136807317Y-83218137D01*
X136808747Y-83224177D01*
X136819646Y-83232892D01*
X136847801Y-83239911D01*
X136897456Y-83245341D01*
X136972851Y-83249290D01*
X137078229Y-83251866D01*
X137217829Y-83253176D01*
X137395895Y-83253329D01*
X137616668Y-83252431D01*
X137857247Y-83250800D01*
X138113983Y-83248767D01*
X138324992Y-83246771D01*
X138495349Y-83244527D01*
X138630125Y-83241752D01*
X138734395Y-83238160D01*
X138813232Y-83233467D01*
X138871708Y-83227388D01*
X138914896Y-83219640D01*
X138947870Y-83209937D01*
X138975702Y-83197995D01*
X138997254Y-83186863D01*
X139121686Y-83098566D01*
X139200875Y-82995891D01*
X139235211Y-82885969D01*
X139225084Y-82775932D01*
X139170884Y-82672909D01*
X139073002Y-82584032D01*
X138961166Y-82526998D01*
X138927234Y-82515351D01*
X138888215Y-82505831D01*
X138838920Y-82498225D01*
X138774156Y-82492324D01*
X138688732Y-82487916D01*
X138577456Y-82484791D01*
X138435138Y-82482738D01*
X138256586Y-82481546D01*
X138036609Y-82481006D01*
X137825700Y-82480900D01*
X136809700Y-82480900D01*
X136802599Y-82835276D01*
X136800929Y-82966503D01*
X136695400Y-82966503D01*
X136695400Y-82486953D01*
X136605458Y-82501548D01*
X136480149Y-82541541D01*
X136371760Y-82612777D01*
X136289964Y-82705691D01*
X136244435Y-82810721D01*
X136238294Y-82864493D01*
X135803136Y-82864493D01*
X135909638Y-82538886D01*
X136103481Y-82101246D01*
X136212299Y-81896700D01*
X139682514Y-81896700D01*
X139690893Y-82051475D01*
X139714455Y-82168154D01*
X139724597Y-82195150D01*
X139754258Y-82253999D01*
X139787638Y-82281725D01*
X139843928Y-82289957D01*
X139881803Y-82290400D01*
X139997400Y-82290400D01*
X139997494Y-82131650D01*
X140013835Y-81976936D01*
X140063890Y-81858786D01*
X140149518Y-81775480D01*
X140272578Y-81725298D01*
X140434929Y-81706519D01*
X140457193Y-81706294D01*
X140567226Y-81709220D01*
X140643489Y-81720436D01*
X140702782Y-81743403D01*
X140736593Y-81763856D01*
X140833394Y-81856571D01*
X140891491Y-81980372D01*
X140911726Y-82137091D01*
X140911760Y-82144350D01*
X140911800Y-82290400D01*
X141023342Y-82290400D01*
X141093449Y-82287237D01*
X141133160Y-82269048D01*
X141161359Y-82222777D01*
X141177528Y-82183821D01*
X141225827Y-81997662D01*
X141227791Y-81806240D01*
X141185183Y-81619891D01*
X141099767Y-81448948D01*
X141038438Y-81368918D01*
X140896142Y-81242828D01*
X140732655Y-81157536D01*
X140556330Y-81113147D01*
X140375523Y-81109764D01*
X140198589Y-81147490D01*
X140033883Y-81226430D01*
X139889761Y-81346685D01*
X139882510Y-81354597D01*
X139780032Y-81488841D01*
X139716694Y-81627494D01*
X139686787Y-81786028D01*
X139682514Y-81896700D01*
X136212299Y-81896700D01*
X136251312Y-81823369D01*
X136398693Y-81582504D01*
X136554883Y-81365800D01*
X136729137Y-81160403D01*
X136929013Y-80955112D01*
X137186396Y-80715261D01*
X137430163Y-80511206D01*
X137671963Y-80334673D01*
X137923443Y-80177385D01*
X138196253Y-80031066D01*
X138302774Y-79979080D01*
X138717492Y-79800734D01*
X139126755Y-79665798D01*
X139541291Y-79571872D01*
X139971830Y-79516553D01*
X140429098Y-79497440D01*
X140454600Y-79497391D01*
X140913606Y-79514629D01*
G37*
D19*
X151610000Y-136460000D02*
X151610000Y-135080000D01*
X152990000Y-136460000D02*
X151610000Y-136460000D01*
X154260000Y-133700000D02*
X159450000Y-133700000D01*
X154260000Y-136460000D02*
X154260000Y-133700000D01*
X154260000Y-136460000D02*
X159450000Y-136460000D01*
X159450000Y-136460000D02*
X159450000Y-133700000D01*
D20*
X171920000Y-74150000D02*
X182080000Y-74150000D01*
X171920000Y-86850000D02*
X171920000Y-74150000D01*
X182080000Y-74150000D02*
X182080000Y-86850000D01*
X182080000Y-86850000D02*
X171920000Y-86850000D01*
X152420000Y-59150000D02*
X162580000Y-59150000D01*
X152420000Y-71850000D02*
X152420000Y-59150000D01*
X162580000Y-59150000D02*
X162580000Y-71850000D01*
X162580000Y-71850000D02*
X152420000Y-71850000D01*
X133420000Y-49150000D02*
X143580000Y-49150000D01*
X133420000Y-61850000D02*
X133420000Y-49150000D01*
X143580000Y-49150000D02*
X143580000Y-61850000D01*
X143580000Y-61850000D02*
X133420000Y-61850000D01*
X113420000Y-57150000D02*
X123580000Y-57150000D01*
X113420000Y-69850000D02*
X113420000Y-57150000D01*
X123580000Y-57150000D02*
X123580000Y-69850000D01*
X123580000Y-69850000D02*
X113420000Y-69850000D01*
X113730000Y-96230000D02*
X123890000Y-96230000D01*
X113730000Y-108930000D02*
X113730000Y-96230000D01*
X123890000Y-96230000D02*
X123890000Y-108930000D01*
X123890000Y-108930000D02*
X113730000Y-108930000D01*
D19*
X172780000Y-133470000D02*
X172780000Y-132090000D01*
X174160000Y-133470000D02*
X172780000Y-133470000D01*
X175430000Y-130710000D02*
X180620000Y-130710000D01*
X175430000Y-133470000D02*
X175430000Y-130710000D01*
X175430000Y-133470000D02*
X180620000Y-133470000D01*
X180620000Y-133470000D02*
X180620000Y-130710000D01*
X149320000Y-63579420D02*
X149320000Y-63860580D01*
X150340000Y-63579420D02*
X150340000Y-63860580D01*
D15*
X169420000Y-104330000D02*
X183420000Y-104330000D01*
X169420000Y-111930000D02*
X169420000Y-104330000D01*
D10*
X178960000Y-112390000D02*
X178960000Y-112390000D01*
X178960000Y-112490000D02*
X178960000Y-112490000D01*
D15*
X183420000Y-104330000D02*
X183420000Y-111930000D01*
X183420000Y-111930000D02*
X169420000Y-111930000D01*
D10*
X178960000Y-112390000D02*
G75*
G02*
X178960000Y-112490000I0J-50000D01*
G01*
X178960000Y-112490000D02*
G75*
G02*
X178960000Y-112390000I0J50000D01*
G01*
D19*
X169790000Y-77290580D02*
X169790000Y-77009420D01*
X170810000Y-77290580D02*
X170810000Y-77009420D01*
X122870000Y-134490000D02*
X122870000Y-133110000D01*
X124250000Y-134490000D02*
X122870000Y-134490000D01*
X125520000Y-131730000D02*
X128170000Y-131730000D01*
X125520000Y-134490000D02*
X125520000Y-131730000D01*
X125520000Y-134490000D02*
X128170000Y-134490000D01*
X128170000Y-134490000D02*
X128170000Y-131730000D01*
D21*
X178325000Y-124472050D02*
X179595000Y-124472050D01*
X178960000Y-125107050D02*
X178960000Y-123837050D01*
X183836800Y-118833250D02*
G75*
G02*
X174083200Y-118833250I-4876800J0D01*
G01*
X174083200Y-118833250D02*
G75*
G02*
X183836800Y-118833250I4876800J0D01*
G01*
D19*
X153960000Y-120480000D02*
X153960000Y-119100000D01*
X155340000Y-120480000D02*
X153960000Y-120480000D01*
X156610000Y-117720000D02*
X164340000Y-117720000D01*
X156610000Y-120480000D02*
X156610000Y-117720000D01*
X156610000Y-120480000D02*
X164340000Y-120480000D01*
X164340000Y-120480000D02*
X164340000Y-117720000D01*
X151240000Y-122030000D02*
X151240000Y-124790000D01*
X164050000Y-122030000D02*
X151240000Y-122030000D01*
X164050000Y-122030000D02*
X164050000Y-124790000D01*
X164050000Y-124790000D02*
X151240000Y-124790000D01*
X165320000Y-122030000D02*
X166700000Y-122030000D01*
X166700000Y-122030000D02*
X166700000Y-123410000D01*
D21*
X160793001Y-127414600D02*
X160793001Y-130560210D01*
X160793001Y-132439789D02*
X160793001Y-133439652D01*
X160793001Y-134440347D02*
X160793001Y-136457000D01*
X160793001Y-136457000D02*
X171207001Y-136457000D01*
X171207001Y-127414600D02*
X160793001Y-127414600D01*
X171207001Y-130560210D02*
X171207001Y-127414600D01*
X171207001Y-133439652D02*
X171207001Y-132439789D01*
X171207001Y-136457000D02*
X171207001Y-134440347D01*
D22*
X160229100Y-130000000D02*
G75*
G02*
X159467100Y-130000000I-381000J0D01*
G01*
X159467100Y-130000000D02*
G75*
G02*
X160229100Y-130000000I381000J0D01*
G01*
D19*
X181760000Y-88959420D02*
X181760000Y-89240580D01*
X182780000Y-88959420D02*
X182780000Y-89240580D01*
M02*
