G04 #@! TF.GenerationSoftware,KiCad,Pcbnew,9.0.7*
G04 #@! TF.CreationDate,2026-07-10T20:11:26+02:00*
G04 #@! TF.ProjectId,DorsalTPMG90.kicad_pro,446f7273-616c-4545-904d-4739302e6b69,v02*
G04 #@! TF.SameCoordinates,Original*
G04 #@! TF.FileFunction,AssemblyDrawing,Top*
%FSLAX46Y46*%
G04 Gerber Fmt 4.6, Leading zero omitted, Abs format (unit mm)*
G04 Created by KiCad (PCBNEW 9.0.7) date 2026-07-10 20:11:26*
%MOMM*%
%LPD*%
G01*
G04 APERTURE LIST*
%ADD10C,0.150000*%
%ADD11C,0.200000*%
%ADD12C,0.060000*%
%ADD13C,0.100000*%
%ADD14C,0.025400*%
%ADD15C,0.508000*%
%ADD16C,0.044444*%
%ADD17C,0.047222*%
%ADD18C,0.043056*%
%ADD19C,0.026389*%
%ADD20C,0.100000*%
G04 #@! TD*
%ADD21C,0.046250*%
%ADD22C,0.035278*%
%ADD23C,0.043744*%
%ADD24C,0.082550*%
G04 APERTURE END LIST*
D10*
X129114819Y-117361904D02*
X129924342Y-117361904D01*
X129924342Y-117361904D02*
X130019580Y-117314285D01*
X130019580Y-117314285D02*
X130067200Y-117266666D01*
X130067200Y-117266666D02*
X130114819Y-117171428D01*
X130114819Y-117171428D02*
X130114819Y-116980952D01*
X130114819Y-116980952D02*
X130067200Y-116885714D01*
X130067200Y-116885714D02*
X130019580Y-116838095D01*
X130019580Y-116838095D02*
X129924342Y-116790476D01*
X129924342Y-116790476D02*
X129114819Y-116790476D01*
X130114819Y-115790476D02*
X130114819Y-116361904D01*
X130114819Y-116076190D02*
X129114819Y-116076190D01*
X129114819Y-116076190D02*
X129257676Y-116171428D01*
X129257676Y-116171428D02*
X129352914Y-116266666D01*
X129352914Y-116266666D02*
X129400533Y-116361904D01*
X149434819Y-120171428D02*
X149434819Y-119600000D01*
X150434819Y-119885714D02*
X149434819Y-119885714D01*
X150387200Y-118885714D02*
X150434819Y-118980952D01*
X150434819Y-118980952D02*
X150434819Y-119171428D01*
X150434819Y-119171428D02*
X150387200Y-119266666D01*
X150387200Y-119266666D02*
X150291961Y-119314285D01*
X150291961Y-119314285D02*
X149911009Y-119314285D01*
X149911009Y-119314285D02*
X149815771Y-119266666D01*
X149815771Y-119266666D02*
X149768152Y-119171428D01*
X149768152Y-119171428D02*
X149768152Y-118980952D01*
X149768152Y-118980952D02*
X149815771Y-118885714D01*
X149815771Y-118885714D02*
X149911009Y-118838095D01*
X149911009Y-118838095D02*
X150006247Y-118838095D01*
X150006247Y-118838095D02*
X150101485Y-119314285D01*
X150387200Y-118028571D02*
X150434819Y-118123809D01*
X150434819Y-118123809D02*
X150434819Y-118314285D01*
X150434819Y-118314285D02*
X150387200Y-118409523D01*
X150387200Y-118409523D02*
X150291961Y-118457142D01*
X150291961Y-118457142D02*
X149911009Y-118457142D01*
X149911009Y-118457142D02*
X149815771Y-118409523D01*
X149815771Y-118409523D02*
X149768152Y-118314285D01*
X149768152Y-118314285D02*
X149768152Y-118123809D01*
X149768152Y-118123809D02*
X149815771Y-118028571D01*
X149815771Y-118028571D02*
X149911009Y-117980952D01*
X149911009Y-117980952D02*
X150006247Y-117980952D01*
X150006247Y-117980952D02*
X150101485Y-118457142D01*
X149768152Y-117552380D02*
X150434819Y-117552380D01*
X149863390Y-117552380D02*
X149815771Y-117504761D01*
X149815771Y-117504761D02*
X149768152Y-117409523D01*
X149768152Y-117409523D02*
X149768152Y-117266666D01*
X149768152Y-117266666D02*
X149815771Y-117171428D01*
X149815771Y-117171428D02*
X149911009Y-117123809D01*
X149911009Y-117123809D02*
X150434819Y-117123809D01*
X150387200Y-116695237D02*
X150434819Y-116599999D01*
X150434819Y-116599999D02*
X150434819Y-116409523D01*
X150434819Y-116409523D02*
X150387200Y-116314285D01*
X150387200Y-116314285D02*
X150291961Y-116266666D01*
X150291961Y-116266666D02*
X150244342Y-116266666D01*
X150244342Y-116266666D02*
X150149104Y-116314285D01*
X150149104Y-116314285D02*
X150101485Y-116409523D01*
X150101485Y-116409523D02*
X150101485Y-116552380D01*
X150101485Y-116552380D02*
X150053866Y-116647618D01*
X150053866Y-116647618D02*
X149958628Y-116695237D01*
X149958628Y-116695237D02*
X149911009Y-116695237D01*
X149911009Y-116695237D02*
X149815771Y-116647618D01*
X149815771Y-116647618D02*
X149768152Y-116552380D01*
X149768152Y-116552380D02*
X149768152Y-116409523D01*
X149768152Y-116409523D02*
X149815771Y-116314285D01*
X149768152Y-115933332D02*
X150434819Y-115695237D01*
X149768152Y-115457142D02*
X150434819Y-115695237D01*
X150434819Y-115695237D02*
X150672914Y-115790475D01*
X150672914Y-115790475D02*
X150720533Y-115838094D01*
X150720533Y-115838094D02*
X150768152Y-115933332D01*
X149768152Y-114647618D02*
X150434819Y-114647618D01*
X149387200Y-114885713D02*
X150101485Y-115123808D01*
X150101485Y-115123808D02*
X150101485Y-114504761D01*
X150339580Y-114123808D02*
X150387200Y-114076189D01*
X150387200Y-114076189D02*
X150434819Y-114123808D01*
X150434819Y-114123808D02*
X150387200Y-114171427D01*
X150387200Y-114171427D02*
X150339580Y-114123808D01*
X150339580Y-114123808D02*
X150434819Y-114123808D01*
X149434819Y-113457142D02*
X149434819Y-113361904D01*
X149434819Y-113361904D02*
X149482438Y-113266666D01*
X149482438Y-113266666D02*
X149530057Y-113219047D01*
X149530057Y-113219047D02*
X149625295Y-113171428D01*
X149625295Y-113171428D02*
X149815771Y-113123809D01*
X149815771Y-113123809D02*
X150053866Y-113123809D01*
X150053866Y-113123809D02*
X150244342Y-113171428D01*
X150244342Y-113171428D02*
X150339580Y-113219047D01*
X150339580Y-113219047D02*
X150387200Y-113266666D01*
X150387200Y-113266666D02*
X150434819Y-113361904D01*
X150434819Y-113361904D02*
X150434819Y-113457142D01*
X150434819Y-113457142D02*
X150387200Y-113552380D01*
X150387200Y-113552380D02*
X150339580Y-113599999D01*
X150339580Y-113599999D02*
X150244342Y-113647618D01*
X150244342Y-113647618D02*
X150053866Y-113695237D01*
X150053866Y-113695237D02*
X149815771Y-113695237D01*
X149815771Y-113695237D02*
X149625295Y-113647618D01*
X149625295Y-113647618D02*
X149530057Y-113599999D01*
X149530057Y-113599999D02*
X149482438Y-113552380D01*
X149482438Y-113552380D02*
X149434819Y-113457142D01*
X155496666Y-136164819D02*
X155496666Y-136879104D01*
X155496666Y-136879104D02*
X155449047Y-137021961D01*
X155449047Y-137021961D02*
X155353809Y-137117200D01*
X155353809Y-137117200D02*
X155210952Y-137164819D01*
X155210952Y-137164819D02*
X155115714Y-137164819D01*
X156496666Y-137164819D02*
X155925238Y-137164819D01*
X156210952Y-137164819D02*
X156210952Y-136164819D01*
X156210952Y-136164819D02*
X156115714Y-136307676D01*
X156115714Y-136307676D02*
X156020476Y-136402914D01*
X156020476Y-136402914D02*
X155925238Y-136450533D01*
X155196666Y-134534819D02*
X155196666Y-135249104D01*
X155196666Y-135249104D02*
X155149047Y-135391961D01*
X155149047Y-135391961D02*
X155053809Y-135487200D01*
X155053809Y-135487200D02*
X154910952Y-135534819D01*
X154910952Y-135534819D02*
X154815714Y-135534819D01*
X156196666Y-135534819D02*
X155625238Y-135534819D01*
X155910952Y-135534819D02*
X155910952Y-134534819D01*
X155910952Y-134534819D02*
X155815714Y-134677676D01*
X155815714Y-134677676D02*
X155720476Y-134772914D01*
X155720476Y-134772914D02*
X155625238Y-134820533D01*
X177954819Y-81281904D02*
X178764342Y-81281904D01*
X178764342Y-81281904D02*
X178859580Y-81234285D01*
X178859580Y-81234285D02*
X178907200Y-81186666D01*
X178907200Y-81186666D02*
X178954819Y-81091428D01*
X178954819Y-81091428D02*
X178954819Y-80900952D01*
X178954819Y-80900952D02*
X178907200Y-80805714D01*
X178907200Y-80805714D02*
X178859580Y-80758095D01*
X178859580Y-80758095D02*
X178764342Y-80710476D01*
X178764342Y-80710476D02*
X177954819Y-80710476D01*
X178050057Y-80281904D02*
X178002438Y-80234285D01*
X178002438Y-80234285D02*
X177954819Y-80139047D01*
X177954819Y-80139047D02*
X177954819Y-79900952D01*
X177954819Y-79900952D02*
X178002438Y-79805714D01*
X178002438Y-79805714D02*
X178050057Y-79758095D01*
X178050057Y-79758095D02*
X178145295Y-79710476D01*
X178145295Y-79710476D02*
X178240533Y-79710476D01*
X178240533Y-79710476D02*
X178383390Y-79758095D01*
X178383390Y-79758095D02*
X178954819Y-80329523D01*
X178954819Y-80329523D02*
X178954819Y-79710476D01*
X177454819Y-84261904D02*
X176454819Y-84261904D01*
X176454819Y-84261904D02*
X176454819Y-84023809D01*
X176454819Y-84023809D02*
X176502438Y-83880952D01*
X176502438Y-83880952D02*
X176597676Y-83785714D01*
X176597676Y-83785714D02*
X176692914Y-83738095D01*
X176692914Y-83738095D02*
X176883390Y-83690476D01*
X176883390Y-83690476D02*
X177026247Y-83690476D01*
X177026247Y-83690476D02*
X177216723Y-83738095D01*
X177216723Y-83738095D02*
X177311961Y-83785714D01*
X177311961Y-83785714D02*
X177407200Y-83880952D01*
X177407200Y-83880952D02*
X177454819Y-84023809D01*
X177454819Y-84023809D02*
X177454819Y-84261904D01*
X177454819Y-82690476D02*
X176978628Y-83023809D01*
X177454819Y-83261904D02*
X176454819Y-83261904D01*
X176454819Y-83261904D02*
X176454819Y-82880952D01*
X176454819Y-82880952D02*
X176502438Y-82785714D01*
X176502438Y-82785714D02*
X176550057Y-82738095D01*
X176550057Y-82738095D02*
X176645295Y-82690476D01*
X176645295Y-82690476D02*
X176788152Y-82690476D01*
X176788152Y-82690476D02*
X176883390Y-82738095D01*
X176883390Y-82738095D02*
X176931009Y-82785714D01*
X176931009Y-82785714D02*
X176978628Y-82880952D01*
X176978628Y-82880952D02*
X176978628Y-83261904D01*
X176454819Y-82404761D02*
X177454819Y-82071428D01*
X177454819Y-82071428D02*
X176454819Y-81738095D01*
X177550057Y-81642857D02*
X177550057Y-80880952D01*
X177454819Y-80642856D02*
X176454819Y-80642856D01*
X176454819Y-80642856D02*
X176454819Y-80261904D01*
X176454819Y-80261904D02*
X176502438Y-80166666D01*
X176502438Y-80166666D02*
X176550057Y-80119047D01*
X176550057Y-80119047D02*
X176645295Y-80071428D01*
X176645295Y-80071428D02*
X176788152Y-80071428D01*
X176788152Y-80071428D02*
X176883390Y-80119047D01*
X176883390Y-80119047D02*
X176931009Y-80166666D01*
X176931009Y-80166666D02*
X176978628Y-80261904D01*
X176978628Y-80261904D02*
X176978628Y-80642856D01*
X177454819Y-79642856D02*
X176454819Y-79642856D01*
X177454819Y-79166666D02*
X176454819Y-79166666D01*
X176454819Y-79166666D02*
X177454819Y-78595238D01*
X177454819Y-78595238D02*
X176454819Y-78595238D01*
X177454819Y-78119047D02*
X176454819Y-78119047D01*
X177454819Y-77547619D02*
X176883390Y-77976190D01*
X176454819Y-77547619D02*
X177026247Y-78119047D01*
X176978628Y-76928571D02*
X177454819Y-76928571D01*
X176454819Y-77261904D02*
X176978628Y-76928571D01*
X176978628Y-76928571D02*
X176454819Y-76595238D01*
X158474819Y-66641904D02*
X159284342Y-66641904D01*
X159284342Y-66641904D02*
X159379580Y-66594285D01*
X159379580Y-66594285D02*
X159427200Y-66546666D01*
X159427200Y-66546666D02*
X159474819Y-66451428D01*
X159474819Y-66451428D02*
X159474819Y-66260952D01*
X159474819Y-66260952D02*
X159427200Y-66165714D01*
X159427200Y-66165714D02*
X159379580Y-66118095D01*
X159379580Y-66118095D02*
X159284342Y-66070476D01*
X159284342Y-66070476D02*
X158474819Y-66070476D01*
X158474819Y-65689523D02*
X158474819Y-65070476D01*
X158474819Y-65070476D02*
X158855771Y-65403809D01*
X158855771Y-65403809D02*
X158855771Y-65260952D01*
X158855771Y-65260952D02*
X158903390Y-65165714D01*
X158903390Y-65165714D02*
X158951009Y-65118095D01*
X158951009Y-65118095D02*
X159046247Y-65070476D01*
X159046247Y-65070476D02*
X159284342Y-65070476D01*
X159284342Y-65070476D02*
X159379580Y-65118095D01*
X159379580Y-65118095D02*
X159427200Y-65165714D01*
X159427200Y-65165714D02*
X159474819Y-65260952D01*
X159474819Y-65260952D02*
X159474819Y-65546666D01*
X159474819Y-65546666D02*
X159427200Y-65641904D01*
X159427200Y-65641904D02*
X159379580Y-65689523D01*
X157954819Y-68833332D02*
X156954819Y-68833332D01*
X156954819Y-68833332D02*
X156954819Y-68595237D01*
X156954819Y-68595237D02*
X157002438Y-68452380D01*
X157002438Y-68452380D02*
X157097676Y-68357142D01*
X157097676Y-68357142D02*
X157192914Y-68309523D01*
X157192914Y-68309523D02*
X157383390Y-68261904D01*
X157383390Y-68261904D02*
X157526247Y-68261904D01*
X157526247Y-68261904D02*
X157716723Y-68309523D01*
X157716723Y-68309523D02*
X157811961Y-68357142D01*
X157811961Y-68357142D02*
X157907200Y-68452380D01*
X157907200Y-68452380D02*
X157954819Y-68595237D01*
X157954819Y-68595237D02*
X157954819Y-68833332D01*
X157954819Y-67261904D02*
X157478628Y-67595237D01*
X157954819Y-67833332D02*
X156954819Y-67833332D01*
X156954819Y-67833332D02*
X156954819Y-67452380D01*
X156954819Y-67452380D02*
X157002438Y-67357142D01*
X157002438Y-67357142D02*
X157050057Y-67309523D01*
X157050057Y-67309523D02*
X157145295Y-67261904D01*
X157145295Y-67261904D02*
X157288152Y-67261904D01*
X157288152Y-67261904D02*
X157383390Y-67309523D01*
X157383390Y-67309523D02*
X157431009Y-67357142D01*
X157431009Y-67357142D02*
X157478628Y-67452380D01*
X157478628Y-67452380D02*
X157478628Y-67833332D01*
X156954819Y-66976189D02*
X157954819Y-66642856D01*
X157954819Y-66642856D02*
X156954819Y-66309523D01*
X158050057Y-66214285D02*
X158050057Y-65452380D01*
X157954819Y-64642856D02*
X157478628Y-64976189D01*
X157954819Y-65214284D02*
X156954819Y-65214284D01*
X156954819Y-65214284D02*
X156954819Y-64833332D01*
X156954819Y-64833332D02*
X157002438Y-64738094D01*
X157002438Y-64738094D02*
X157050057Y-64690475D01*
X157050057Y-64690475D02*
X157145295Y-64642856D01*
X157145295Y-64642856D02*
X157288152Y-64642856D01*
X157288152Y-64642856D02*
X157383390Y-64690475D01*
X157383390Y-64690475D02*
X157431009Y-64738094D01*
X157431009Y-64738094D02*
X157478628Y-64833332D01*
X157478628Y-64833332D02*
X157478628Y-65214284D01*
X157954819Y-64214284D02*
X156954819Y-64214284D01*
X157954819Y-63738094D02*
X156954819Y-63738094D01*
X156954819Y-63738094D02*
X157954819Y-63166666D01*
X157954819Y-63166666D02*
X156954819Y-63166666D01*
X157002438Y-62166666D02*
X156954819Y-62261904D01*
X156954819Y-62261904D02*
X156954819Y-62404761D01*
X156954819Y-62404761D02*
X157002438Y-62547618D01*
X157002438Y-62547618D02*
X157097676Y-62642856D01*
X157097676Y-62642856D02*
X157192914Y-62690475D01*
X157192914Y-62690475D02*
X157383390Y-62738094D01*
X157383390Y-62738094D02*
X157526247Y-62738094D01*
X157526247Y-62738094D02*
X157716723Y-62690475D01*
X157716723Y-62690475D02*
X157811961Y-62642856D01*
X157811961Y-62642856D02*
X157907200Y-62547618D01*
X157907200Y-62547618D02*
X157954819Y-62404761D01*
X157954819Y-62404761D02*
X157954819Y-62309523D01*
X157954819Y-62309523D02*
X157907200Y-62166666D01*
X157907200Y-62166666D02*
X157859580Y-62119047D01*
X157859580Y-62119047D02*
X157526247Y-62119047D01*
X157526247Y-62119047D02*
X157526247Y-62309523D01*
X139694819Y-56451904D02*
X140504342Y-56451904D01*
X140504342Y-56451904D02*
X140599580Y-56404285D01*
X140599580Y-56404285D02*
X140647200Y-56356666D01*
X140647200Y-56356666D02*
X140694819Y-56261428D01*
X140694819Y-56261428D02*
X140694819Y-56070952D01*
X140694819Y-56070952D02*
X140647200Y-55975714D01*
X140647200Y-55975714D02*
X140599580Y-55928095D01*
X140599580Y-55928095D02*
X140504342Y-55880476D01*
X140504342Y-55880476D02*
X139694819Y-55880476D01*
X140028152Y-54975714D02*
X140694819Y-54975714D01*
X139647200Y-55213809D02*
X140361485Y-55451904D01*
X140361485Y-55451904D02*
X140361485Y-54832857D01*
X138954819Y-59738094D02*
X137954819Y-59738094D01*
X137954819Y-59738094D02*
X137954819Y-59499999D01*
X137954819Y-59499999D02*
X138002438Y-59357142D01*
X138002438Y-59357142D02*
X138097676Y-59261904D01*
X138097676Y-59261904D02*
X138192914Y-59214285D01*
X138192914Y-59214285D02*
X138383390Y-59166666D01*
X138383390Y-59166666D02*
X138526247Y-59166666D01*
X138526247Y-59166666D02*
X138716723Y-59214285D01*
X138716723Y-59214285D02*
X138811961Y-59261904D01*
X138811961Y-59261904D02*
X138907200Y-59357142D01*
X138907200Y-59357142D02*
X138954819Y-59499999D01*
X138954819Y-59499999D02*
X138954819Y-59738094D01*
X138954819Y-58166666D02*
X138478628Y-58499999D01*
X138954819Y-58738094D02*
X137954819Y-58738094D01*
X137954819Y-58738094D02*
X137954819Y-58357142D01*
X137954819Y-58357142D02*
X138002438Y-58261904D01*
X138002438Y-58261904D02*
X138050057Y-58214285D01*
X138050057Y-58214285D02*
X138145295Y-58166666D01*
X138145295Y-58166666D02*
X138288152Y-58166666D01*
X138288152Y-58166666D02*
X138383390Y-58214285D01*
X138383390Y-58214285D02*
X138431009Y-58261904D01*
X138431009Y-58261904D02*
X138478628Y-58357142D01*
X138478628Y-58357142D02*
X138478628Y-58738094D01*
X137954819Y-57880951D02*
X138954819Y-57547618D01*
X138954819Y-57547618D02*
X137954819Y-57214285D01*
X139050057Y-57119047D02*
X139050057Y-56357142D01*
X138954819Y-56119046D02*
X137954819Y-56119046D01*
X137954819Y-56119046D02*
X138669104Y-55785713D01*
X138669104Y-55785713D02*
X137954819Y-55452380D01*
X137954819Y-55452380D02*
X138954819Y-55452380D01*
X138954819Y-54976189D02*
X137954819Y-54976189D01*
X138954819Y-54499999D02*
X137954819Y-54499999D01*
X137954819Y-54499999D02*
X137954819Y-54261904D01*
X137954819Y-54261904D02*
X138002438Y-54119047D01*
X138002438Y-54119047D02*
X138097676Y-54023809D01*
X138097676Y-54023809D02*
X138192914Y-53976190D01*
X138192914Y-53976190D02*
X138383390Y-53928571D01*
X138383390Y-53928571D02*
X138526247Y-53928571D01*
X138526247Y-53928571D02*
X138716723Y-53976190D01*
X138716723Y-53976190D02*
X138811961Y-54023809D01*
X138811961Y-54023809D02*
X138907200Y-54119047D01*
X138907200Y-54119047D02*
X138954819Y-54261904D01*
X138954819Y-54261904D02*
X138954819Y-54499999D01*
X138954819Y-53499999D02*
X137954819Y-53499999D01*
X137954819Y-53499999D02*
X137954819Y-53261904D01*
X137954819Y-53261904D02*
X138002438Y-53119047D01*
X138002438Y-53119047D02*
X138097676Y-53023809D01*
X138097676Y-53023809D02*
X138192914Y-52976190D01*
X138192914Y-52976190D02*
X138383390Y-52928571D01*
X138383390Y-52928571D02*
X138526247Y-52928571D01*
X138526247Y-52928571D02*
X138716723Y-52976190D01*
X138716723Y-52976190D02*
X138811961Y-53023809D01*
X138811961Y-53023809D02*
X138907200Y-53119047D01*
X138907200Y-53119047D02*
X138954819Y-53261904D01*
X138954819Y-53261904D02*
X138954819Y-53499999D01*
X138954819Y-52023809D02*
X138954819Y-52499999D01*
X138954819Y-52499999D02*
X137954819Y-52499999D01*
X138431009Y-51690475D02*
X138431009Y-51357142D01*
X138954819Y-51214285D02*
X138954819Y-51690475D01*
X138954819Y-51690475D02*
X137954819Y-51690475D01*
X137954819Y-51690475D02*
X137954819Y-51214285D01*
X119824819Y-64301904D02*
X120634342Y-64301904D01*
X120634342Y-64301904D02*
X120729580Y-64254285D01*
X120729580Y-64254285D02*
X120777200Y-64206666D01*
X120777200Y-64206666D02*
X120824819Y-64111428D01*
X120824819Y-64111428D02*
X120824819Y-63920952D01*
X120824819Y-63920952D02*
X120777200Y-63825714D01*
X120777200Y-63825714D02*
X120729580Y-63778095D01*
X120729580Y-63778095D02*
X120634342Y-63730476D01*
X120634342Y-63730476D02*
X119824819Y-63730476D01*
X119824819Y-62778095D02*
X119824819Y-63254285D01*
X119824819Y-63254285D02*
X120301009Y-63301904D01*
X120301009Y-63301904D02*
X120253390Y-63254285D01*
X120253390Y-63254285D02*
X120205771Y-63159047D01*
X120205771Y-63159047D02*
X120205771Y-62920952D01*
X120205771Y-62920952D02*
X120253390Y-62825714D01*
X120253390Y-62825714D02*
X120301009Y-62778095D01*
X120301009Y-62778095D02*
X120396247Y-62730476D01*
X120396247Y-62730476D02*
X120634342Y-62730476D01*
X120634342Y-62730476D02*
X120729580Y-62778095D01*
X120729580Y-62778095D02*
X120777200Y-62825714D01*
X120777200Y-62825714D02*
X120824819Y-62920952D01*
X120824819Y-62920952D02*
X120824819Y-63159047D01*
X120824819Y-63159047D02*
X120777200Y-63254285D01*
X120777200Y-63254285D02*
X120729580Y-63301904D01*
X118954819Y-67261904D02*
X117954819Y-67261904D01*
X117954819Y-67261904D02*
X117954819Y-67023809D01*
X117954819Y-67023809D02*
X118002438Y-66880952D01*
X118002438Y-66880952D02*
X118097676Y-66785714D01*
X118097676Y-66785714D02*
X118192914Y-66738095D01*
X118192914Y-66738095D02*
X118383390Y-66690476D01*
X118383390Y-66690476D02*
X118526247Y-66690476D01*
X118526247Y-66690476D02*
X118716723Y-66738095D01*
X118716723Y-66738095D02*
X118811961Y-66785714D01*
X118811961Y-66785714D02*
X118907200Y-66880952D01*
X118907200Y-66880952D02*
X118954819Y-67023809D01*
X118954819Y-67023809D02*
X118954819Y-67261904D01*
X118954819Y-65690476D02*
X118478628Y-66023809D01*
X118954819Y-66261904D02*
X117954819Y-66261904D01*
X117954819Y-66261904D02*
X117954819Y-65880952D01*
X117954819Y-65880952D02*
X118002438Y-65785714D01*
X118002438Y-65785714D02*
X118050057Y-65738095D01*
X118050057Y-65738095D02*
X118145295Y-65690476D01*
X118145295Y-65690476D02*
X118288152Y-65690476D01*
X118288152Y-65690476D02*
X118383390Y-65738095D01*
X118383390Y-65738095D02*
X118431009Y-65785714D01*
X118431009Y-65785714D02*
X118478628Y-65880952D01*
X118478628Y-65880952D02*
X118478628Y-66261904D01*
X117954819Y-65404761D02*
X118954819Y-65071428D01*
X118954819Y-65071428D02*
X117954819Y-64738095D01*
X119050057Y-64642857D02*
X119050057Y-63880952D01*
X118954819Y-63642856D02*
X117954819Y-63642856D01*
X118954819Y-63166666D02*
X117954819Y-63166666D01*
X117954819Y-63166666D02*
X118954819Y-62595238D01*
X118954819Y-62595238D02*
X117954819Y-62595238D01*
X118954819Y-62119047D02*
X117954819Y-62119047D01*
X117954819Y-62119047D02*
X117954819Y-61880952D01*
X117954819Y-61880952D02*
X118002438Y-61738095D01*
X118002438Y-61738095D02*
X118097676Y-61642857D01*
X118097676Y-61642857D02*
X118192914Y-61595238D01*
X118192914Y-61595238D02*
X118383390Y-61547619D01*
X118383390Y-61547619D02*
X118526247Y-61547619D01*
X118526247Y-61547619D02*
X118716723Y-61595238D01*
X118716723Y-61595238D02*
X118811961Y-61642857D01*
X118811961Y-61642857D02*
X118907200Y-61738095D01*
X118907200Y-61738095D02*
X118954819Y-61880952D01*
X118954819Y-61880952D02*
X118954819Y-62119047D01*
X118431009Y-61119047D02*
X118431009Y-60785714D01*
X118954819Y-60642857D02*
X118954819Y-61119047D01*
X118954819Y-61119047D02*
X117954819Y-61119047D01*
X117954819Y-61119047D02*
X117954819Y-60642857D01*
X117954819Y-60309523D02*
X118954819Y-59642857D01*
X117954819Y-59642857D02*
X118954819Y-60309523D01*
X119264819Y-106651428D02*
X118264819Y-106651428D01*
X118264819Y-106651428D02*
X118264819Y-106413333D01*
X118264819Y-106413333D02*
X118312438Y-106270476D01*
X118312438Y-106270476D02*
X118407676Y-106175238D01*
X118407676Y-106175238D02*
X118502914Y-106127619D01*
X118502914Y-106127619D02*
X118693390Y-106080000D01*
X118693390Y-106080000D02*
X118836247Y-106080000D01*
X118836247Y-106080000D02*
X119026723Y-106127619D01*
X119026723Y-106127619D02*
X119121961Y-106175238D01*
X119121961Y-106175238D02*
X119217200Y-106270476D01*
X119217200Y-106270476D02*
X119264819Y-106413333D01*
X119264819Y-106413333D02*
X119264819Y-106651428D01*
X119264819Y-105080000D02*
X118788628Y-105413333D01*
X119264819Y-105651428D02*
X118264819Y-105651428D01*
X118264819Y-105651428D02*
X118264819Y-105270476D01*
X118264819Y-105270476D02*
X118312438Y-105175238D01*
X118312438Y-105175238D02*
X118360057Y-105127619D01*
X118360057Y-105127619D02*
X118455295Y-105080000D01*
X118455295Y-105080000D02*
X118598152Y-105080000D01*
X118598152Y-105080000D02*
X118693390Y-105127619D01*
X118693390Y-105127619D02*
X118741009Y-105175238D01*
X118741009Y-105175238D02*
X118788628Y-105270476D01*
X118788628Y-105270476D02*
X118788628Y-105651428D01*
X118264819Y-104794285D02*
X119264819Y-104460952D01*
X119264819Y-104460952D02*
X118264819Y-104127619D01*
X119360057Y-104032381D02*
X119360057Y-103270476D01*
X118264819Y-103175237D02*
X118264819Y-102603809D01*
X119264819Y-102889523D02*
X118264819Y-102889523D01*
X119264819Y-102270475D02*
X118264819Y-102270475D01*
X118741009Y-102270475D02*
X118741009Y-101699047D01*
X119264819Y-101699047D02*
X118264819Y-101699047D01*
X118264819Y-101222856D02*
X119074342Y-101222856D01*
X119074342Y-101222856D02*
X119169580Y-101175237D01*
X119169580Y-101175237D02*
X119217200Y-101127618D01*
X119217200Y-101127618D02*
X119264819Y-101032380D01*
X119264819Y-101032380D02*
X119264819Y-100841904D01*
X119264819Y-100841904D02*
X119217200Y-100746666D01*
X119217200Y-100746666D02*
X119169580Y-100699047D01*
X119169580Y-100699047D02*
X119074342Y-100651428D01*
X119074342Y-100651428D02*
X118264819Y-100651428D01*
X119264819Y-100175237D02*
X118264819Y-100175237D01*
X118264819Y-100175237D02*
X118979104Y-99841904D01*
X118979104Y-99841904D02*
X118264819Y-99508571D01*
X118264819Y-99508571D02*
X119264819Y-99508571D01*
X118741009Y-98699047D02*
X118788628Y-98556190D01*
X118788628Y-98556190D02*
X118836247Y-98508571D01*
X118836247Y-98508571D02*
X118931485Y-98460952D01*
X118931485Y-98460952D02*
X119074342Y-98460952D01*
X119074342Y-98460952D02*
X119169580Y-98508571D01*
X119169580Y-98508571D02*
X119217200Y-98556190D01*
X119217200Y-98556190D02*
X119264819Y-98651428D01*
X119264819Y-98651428D02*
X119264819Y-99032380D01*
X119264819Y-99032380D02*
X118264819Y-99032380D01*
X118264819Y-99032380D02*
X118264819Y-98699047D01*
X118264819Y-98699047D02*
X118312438Y-98603809D01*
X118312438Y-98603809D02*
X118360057Y-98556190D01*
X118360057Y-98556190D02*
X118455295Y-98508571D01*
X118455295Y-98508571D02*
X118550533Y-98508571D01*
X118550533Y-98508571D02*
X118645771Y-98556190D01*
X118645771Y-98556190D02*
X118693390Y-98603809D01*
X118693390Y-98603809D02*
X118741009Y-98699047D01*
X118741009Y-98699047D02*
X118741009Y-99032380D01*
D11*
X175940476Y-129362219D02*
X175940476Y-130076504D01*
X175940476Y-130076504D02*
X175892857Y-130219361D01*
X175892857Y-130219361D02*
X175797619Y-130314600D01*
X175797619Y-130314600D02*
X175654762Y-130362219D01*
X175654762Y-130362219D02*
X175559524Y-130362219D01*
X176940476Y-130362219D02*
X176369048Y-130362219D01*
X176654762Y-130362219D02*
X176654762Y-129362219D01*
X176654762Y-129362219D02*
X176559524Y-129505076D01*
X176559524Y-129505076D02*
X176464286Y-129600314D01*
X176464286Y-129600314D02*
X176369048Y-129647933D01*
X177892857Y-130362219D02*
X177321429Y-130362219D01*
X177607143Y-130362219D02*
X177607143Y-129362219D01*
X177607143Y-129362219D02*
X177511905Y-129505076D01*
X177511905Y-129505076D02*
X177416667Y-129600314D01*
X177416667Y-129600314D02*
X177321429Y-129647933D01*
D10*
X175850476Y-133544819D02*
X175850476Y-134259104D01*
X175850476Y-134259104D02*
X175802857Y-134401961D01*
X175802857Y-134401961D02*
X175707619Y-134497200D01*
X175707619Y-134497200D02*
X175564762Y-134544819D01*
X175564762Y-134544819D02*
X175469524Y-134544819D01*
X176850476Y-134544819D02*
X176279048Y-134544819D01*
X176564762Y-134544819D02*
X176564762Y-133544819D01*
X176564762Y-133544819D02*
X176469524Y-133687676D01*
X176469524Y-133687676D02*
X176374286Y-133782914D01*
X176374286Y-133782914D02*
X176279048Y-133830533D01*
X177802857Y-134544819D02*
X177231429Y-134544819D01*
X177517143Y-134544819D02*
X177517143Y-133544819D01*
X177517143Y-133544819D02*
X177421905Y-133687676D01*
X177421905Y-133687676D02*
X177326667Y-133782914D01*
X177326667Y-133782914D02*
X177231429Y-133830533D01*
X148759580Y-67291429D02*
X148807200Y-67339048D01*
X148807200Y-67339048D02*
X148854819Y-67481905D01*
X148854819Y-67481905D02*
X148854819Y-67577143D01*
X148854819Y-67577143D02*
X148807200Y-67720000D01*
X148807200Y-67720000D02*
X148711961Y-67815238D01*
X148711961Y-67815238D02*
X148616723Y-67862857D01*
X148616723Y-67862857D02*
X148426247Y-67910476D01*
X148426247Y-67910476D02*
X148283390Y-67910476D01*
X148283390Y-67910476D02*
X148092914Y-67862857D01*
X148092914Y-67862857D02*
X147997676Y-67815238D01*
X147997676Y-67815238D02*
X147902438Y-67720000D01*
X147902438Y-67720000D02*
X147854819Y-67577143D01*
X147854819Y-67577143D02*
X147854819Y-67481905D01*
X147854819Y-67481905D02*
X147902438Y-67339048D01*
X147902438Y-67339048D02*
X147950057Y-67291429D01*
X148950057Y-67100953D02*
X148950057Y-66339048D01*
X148807200Y-66148571D02*
X148854819Y-66005714D01*
X148854819Y-66005714D02*
X148854819Y-65767619D01*
X148854819Y-65767619D02*
X148807200Y-65672381D01*
X148807200Y-65672381D02*
X148759580Y-65624762D01*
X148759580Y-65624762D02*
X148664342Y-65577143D01*
X148664342Y-65577143D02*
X148569104Y-65577143D01*
X148569104Y-65577143D02*
X148473866Y-65624762D01*
X148473866Y-65624762D02*
X148426247Y-65672381D01*
X148426247Y-65672381D02*
X148378628Y-65767619D01*
X148378628Y-65767619D02*
X148331009Y-65958095D01*
X148331009Y-65958095D02*
X148283390Y-66053333D01*
X148283390Y-66053333D02*
X148235771Y-66100952D01*
X148235771Y-66100952D02*
X148140533Y-66148571D01*
X148140533Y-66148571D02*
X148045295Y-66148571D01*
X148045295Y-66148571D02*
X147950057Y-66100952D01*
X147950057Y-66100952D02*
X147902438Y-66053333D01*
X147902438Y-66053333D02*
X147854819Y-65958095D01*
X147854819Y-65958095D02*
X147854819Y-65720000D01*
X147854819Y-65720000D02*
X147902438Y-65577143D01*
X148854819Y-65148571D02*
X148188152Y-65148571D01*
X148283390Y-65148571D02*
X148235771Y-65100952D01*
X148235771Y-65100952D02*
X148188152Y-65005714D01*
X148188152Y-65005714D02*
X148188152Y-64862857D01*
X148188152Y-64862857D02*
X148235771Y-64767619D01*
X148235771Y-64767619D02*
X148331009Y-64720000D01*
X148331009Y-64720000D02*
X148854819Y-64720000D01*
X148331009Y-64720000D02*
X148235771Y-64672381D01*
X148235771Y-64672381D02*
X148188152Y-64577143D01*
X148188152Y-64577143D02*
X148188152Y-64434286D01*
X148188152Y-64434286D02*
X148235771Y-64339047D01*
X148235771Y-64339047D02*
X148331009Y-64291428D01*
X148331009Y-64291428D02*
X148854819Y-64291428D01*
X148854819Y-63386667D02*
X148331009Y-63386667D01*
X148331009Y-63386667D02*
X148235771Y-63434286D01*
X148235771Y-63434286D02*
X148188152Y-63529524D01*
X148188152Y-63529524D02*
X148188152Y-63720000D01*
X148188152Y-63720000D02*
X148235771Y-63815238D01*
X148807200Y-63386667D02*
X148854819Y-63481905D01*
X148854819Y-63481905D02*
X148854819Y-63720000D01*
X148854819Y-63720000D02*
X148807200Y-63815238D01*
X148807200Y-63815238D02*
X148711961Y-63862857D01*
X148711961Y-63862857D02*
X148616723Y-63862857D01*
X148616723Y-63862857D02*
X148521485Y-63815238D01*
X148521485Y-63815238D02*
X148473866Y-63720000D01*
X148473866Y-63720000D02*
X148473866Y-63481905D01*
X148473866Y-63481905D02*
X148426247Y-63386667D01*
X148854819Y-62767619D02*
X148807200Y-62862857D01*
X148807200Y-62862857D02*
X148711961Y-62910476D01*
X148711961Y-62910476D02*
X147854819Y-62910476D01*
X148854819Y-62243809D02*
X148807200Y-62339047D01*
X148807200Y-62339047D02*
X148711961Y-62386666D01*
X148711961Y-62386666D02*
X147854819Y-62386666D01*
X148950057Y-62100952D02*
X148950057Y-61339047D01*
X147854819Y-61100951D02*
X148664342Y-61100951D01*
X148664342Y-61100951D02*
X148759580Y-61053332D01*
X148759580Y-61053332D02*
X148807200Y-61005713D01*
X148807200Y-61005713D02*
X148854819Y-60910475D01*
X148854819Y-60910475D02*
X148854819Y-60719999D01*
X148854819Y-60719999D02*
X148807200Y-60624761D01*
X148807200Y-60624761D02*
X148759580Y-60577142D01*
X148759580Y-60577142D02*
X148664342Y-60529523D01*
X148664342Y-60529523D02*
X147854819Y-60529523D01*
X148807200Y-60100951D02*
X148854819Y-59958094D01*
X148854819Y-59958094D02*
X148854819Y-59719999D01*
X148854819Y-59719999D02*
X148807200Y-59624761D01*
X148807200Y-59624761D02*
X148759580Y-59577142D01*
X148759580Y-59577142D02*
X148664342Y-59529523D01*
X148664342Y-59529523D02*
X148569104Y-59529523D01*
X148569104Y-59529523D02*
X148473866Y-59577142D01*
X148473866Y-59577142D02*
X148426247Y-59624761D01*
X148426247Y-59624761D02*
X148378628Y-59719999D01*
X148378628Y-59719999D02*
X148331009Y-59910475D01*
X148331009Y-59910475D02*
X148283390Y-60005713D01*
X148283390Y-60005713D02*
X148235771Y-60053332D01*
X148235771Y-60053332D02*
X148140533Y-60100951D01*
X148140533Y-60100951D02*
X148045295Y-60100951D01*
X148045295Y-60100951D02*
X147950057Y-60053332D01*
X147950057Y-60053332D02*
X147902438Y-60005713D01*
X147902438Y-60005713D02*
X147854819Y-59910475D01*
X147854819Y-59910475D02*
X147854819Y-59672380D01*
X147854819Y-59672380D02*
X147902438Y-59529523D01*
D12*
X149973832Y-63786666D02*
X149992880Y-63805714D01*
X149992880Y-63805714D02*
X150011927Y-63862856D01*
X150011927Y-63862856D02*
X150011927Y-63900952D01*
X150011927Y-63900952D02*
X149992880Y-63958095D01*
X149992880Y-63958095D02*
X149954784Y-63996190D01*
X149954784Y-63996190D02*
X149916689Y-64015237D01*
X149916689Y-64015237D02*
X149840499Y-64034285D01*
X149840499Y-64034285D02*
X149783356Y-64034285D01*
X149783356Y-64034285D02*
X149707165Y-64015237D01*
X149707165Y-64015237D02*
X149669070Y-63996190D01*
X149669070Y-63996190D02*
X149630975Y-63958095D01*
X149630975Y-63958095D02*
X149611927Y-63900952D01*
X149611927Y-63900952D02*
X149611927Y-63862856D01*
X149611927Y-63862856D02*
X149630975Y-63805714D01*
X149630975Y-63805714D02*
X149650022Y-63786666D01*
X149783356Y-63558095D02*
X149764308Y-63596190D01*
X149764308Y-63596190D02*
X149745260Y-63615237D01*
X149745260Y-63615237D02*
X149707165Y-63634285D01*
X149707165Y-63634285D02*
X149688118Y-63634285D01*
X149688118Y-63634285D02*
X149650022Y-63615237D01*
X149650022Y-63615237D02*
X149630975Y-63596190D01*
X149630975Y-63596190D02*
X149611927Y-63558095D01*
X149611927Y-63558095D02*
X149611927Y-63481904D01*
X149611927Y-63481904D02*
X149630975Y-63443809D01*
X149630975Y-63443809D02*
X149650022Y-63424761D01*
X149650022Y-63424761D02*
X149688118Y-63405714D01*
X149688118Y-63405714D02*
X149707165Y-63405714D01*
X149707165Y-63405714D02*
X149745260Y-63424761D01*
X149745260Y-63424761D02*
X149764308Y-63443809D01*
X149764308Y-63443809D02*
X149783356Y-63481904D01*
X149783356Y-63481904D02*
X149783356Y-63558095D01*
X149783356Y-63558095D02*
X149802403Y-63596190D01*
X149802403Y-63596190D02*
X149821451Y-63615237D01*
X149821451Y-63615237D02*
X149859546Y-63634285D01*
X149859546Y-63634285D02*
X149935737Y-63634285D01*
X149935737Y-63634285D02*
X149973832Y-63615237D01*
X149973832Y-63615237D02*
X149992880Y-63596190D01*
X149992880Y-63596190D02*
X150011927Y-63558095D01*
X150011927Y-63558095D02*
X150011927Y-63481904D01*
X150011927Y-63481904D02*
X149992880Y-63443809D01*
X149992880Y-63443809D02*
X149973832Y-63424761D01*
X149973832Y-63424761D02*
X149935737Y-63405714D01*
X149935737Y-63405714D02*
X149859546Y-63405714D01*
X149859546Y-63405714D02*
X149821451Y-63424761D01*
X149821451Y-63424761D02*
X149802403Y-63443809D01*
X149802403Y-63443809D02*
X149783356Y-63481904D01*
D11*
X175395714Y-107462219D02*
X175395714Y-106462219D01*
X175395714Y-106462219D02*
X175776666Y-106462219D01*
X175776666Y-106462219D02*
X175871904Y-106509838D01*
X175871904Y-106509838D02*
X175919523Y-106557457D01*
X175919523Y-106557457D02*
X175967142Y-106652695D01*
X175967142Y-106652695D02*
X175967142Y-106795552D01*
X175967142Y-106795552D02*
X175919523Y-106890790D01*
X175919523Y-106890790D02*
X175871904Y-106938409D01*
X175871904Y-106938409D02*
X175776666Y-106986028D01*
X175776666Y-106986028D02*
X175395714Y-106986028D01*
X176348095Y-107414600D02*
X176490952Y-107462219D01*
X176490952Y-107462219D02*
X176729047Y-107462219D01*
X176729047Y-107462219D02*
X176824285Y-107414600D01*
X176824285Y-107414600D02*
X176871904Y-107366980D01*
X176871904Y-107366980D02*
X176919523Y-107271742D01*
X176919523Y-107271742D02*
X176919523Y-107176504D01*
X176919523Y-107176504D02*
X176871904Y-107081266D01*
X176871904Y-107081266D02*
X176824285Y-107033647D01*
X176824285Y-107033647D02*
X176729047Y-106986028D01*
X176729047Y-106986028D02*
X176538571Y-106938409D01*
X176538571Y-106938409D02*
X176443333Y-106890790D01*
X176443333Y-106890790D02*
X176395714Y-106843171D01*
X176395714Y-106843171D02*
X176348095Y-106747933D01*
X176348095Y-106747933D02*
X176348095Y-106652695D01*
X176348095Y-106652695D02*
X176395714Y-106557457D01*
X176395714Y-106557457D02*
X176443333Y-106509838D01*
X176443333Y-106509838D02*
X176538571Y-106462219D01*
X176538571Y-106462219D02*
X176776666Y-106462219D01*
X176776666Y-106462219D02*
X176919523Y-106509838D01*
X177300476Y-106557457D02*
X177348095Y-106509838D01*
X177348095Y-106509838D02*
X177443333Y-106462219D01*
X177443333Y-106462219D02*
X177681428Y-106462219D01*
X177681428Y-106462219D02*
X177776666Y-106509838D01*
X177776666Y-106509838D02*
X177824285Y-106557457D01*
X177824285Y-106557457D02*
X177871904Y-106652695D01*
X177871904Y-106652695D02*
X177871904Y-106747933D01*
X177871904Y-106747933D02*
X177824285Y-106890790D01*
X177824285Y-106890790D02*
X177252857Y-107462219D01*
X177252857Y-107462219D02*
X177871904Y-107462219D01*
D10*
X172089580Y-80721429D02*
X172137200Y-80769048D01*
X172137200Y-80769048D02*
X172184819Y-80911905D01*
X172184819Y-80911905D02*
X172184819Y-81007143D01*
X172184819Y-81007143D02*
X172137200Y-81150000D01*
X172137200Y-81150000D02*
X172041961Y-81245238D01*
X172041961Y-81245238D02*
X171946723Y-81292857D01*
X171946723Y-81292857D02*
X171756247Y-81340476D01*
X171756247Y-81340476D02*
X171613390Y-81340476D01*
X171613390Y-81340476D02*
X171422914Y-81292857D01*
X171422914Y-81292857D02*
X171327676Y-81245238D01*
X171327676Y-81245238D02*
X171232438Y-81150000D01*
X171232438Y-81150000D02*
X171184819Y-81007143D01*
X171184819Y-81007143D02*
X171184819Y-80911905D01*
X171184819Y-80911905D02*
X171232438Y-80769048D01*
X171232438Y-80769048D02*
X171280057Y-80721429D01*
X172280057Y-80530953D02*
X172280057Y-79769048D01*
X172137200Y-79578571D02*
X172184819Y-79435714D01*
X172184819Y-79435714D02*
X172184819Y-79197619D01*
X172184819Y-79197619D02*
X172137200Y-79102381D01*
X172137200Y-79102381D02*
X172089580Y-79054762D01*
X172089580Y-79054762D02*
X171994342Y-79007143D01*
X171994342Y-79007143D02*
X171899104Y-79007143D01*
X171899104Y-79007143D02*
X171803866Y-79054762D01*
X171803866Y-79054762D02*
X171756247Y-79102381D01*
X171756247Y-79102381D02*
X171708628Y-79197619D01*
X171708628Y-79197619D02*
X171661009Y-79388095D01*
X171661009Y-79388095D02*
X171613390Y-79483333D01*
X171613390Y-79483333D02*
X171565771Y-79530952D01*
X171565771Y-79530952D02*
X171470533Y-79578571D01*
X171470533Y-79578571D02*
X171375295Y-79578571D01*
X171375295Y-79578571D02*
X171280057Y-79530952D01*
X171280057Y-79530952D02*
X171232438Y-79483333D01*
X171232438Y-79483333D02*
X171184819Y-79388095D01*
X171184819Y-79388095D02*
X171184819Y-79150000D01*
X171184819Y-79150000D02*
X171232438Y-79007143D01*
X172184819Y-78578571D02*
X171518152Y-78578571D01*
X171613390Y-78578571D02*
X171565771Y-78530952D01*
X171565771Y-78530952D02*
X171518152Y-78435714D01*
X171518152Y-78435714D02*
X171518152Y-78292857D01*
X171518152Y-78292857D02*
X171565771Y-78197619D01*
X171565771Y-78197619D02*
X171661009Y-78150000D01*
X171661009Y-78150000D02*
X172184819Y-78150000D01*
X171661009Y-78150000D02*
X171565771Y-78102381D01*
X171565771Y-78102381D02*
X171518152Y-78007143D01*
X171518152Y-78007143D02*
X171518152Y-77864286D01*
X171518152Y-77864286D02*
X171565771Y-77769047D01*
X171565771Y-77769047D02*
X171661009Y-77721428D01*
X171661009Y-77721428D02*
X172184819Y-77721428D01*
X172184819Y-76816667D02*
X171661009Y-76816667D01*
X171661009Y-76816667D02*
X171565771Y-76864286D01*
X171565771Y-76864286D02*
X171518152Y-76959524D01*
X171518152Y-76959524D02*
X171518152Y-77150000D01*
X171518152Y-77150000D02*
X171565771Y-77245238D01*
X172137200Y-76816667D02*
X172184819Y-76911905D01*
X172184819Y-76911905D02*
X172184819Y-77150000D01*
X172184819Y-77150000D02*
X172137200Y-77245238D01*
X172137200Y-77245238D02*
X172041961Y-77292857D01*
X172041961Y-77292857D02*
X171946723Y-77292857D01*
X171946723Y-77292857D02*
X171851485Y-77245238D01*
X171851485Y-77245238D02*
X171803866Y-77150000D01*
X171803866Y-77150000D02*
X171803866Y-76911905D01*
X171803866Y-76911905D02*
X171756247Y-76816667D01*
X172184819Y-76197619D02*
X172137200Y-76292857D01*
X172137200Y-76292857D02*
X172041961Y-76340476D01*
X172041961Y-76340476D02*
X171184819Y-76340476D01*
X172184819Y-75673809D02*
X172137200Y-75769047D01*
X172137200Y-75769047D02*
X172041961Y-75816666D01*
X172041961Y-75816666D02*
X171184819Y-75816666D01*
X172280057Y-75530952D02*
X172280057Y-74769047D01*
X171184819Y-74530951D02*
X171994342Y-74530951D01*
X171994342Y-74530951D02*
X172089580Y-74483332D01*
X172089580Y-74483332D02*
X172137200Y-74435713D01*
X172137200Y-74435713D02*
X172184819Y-74340475D01*
X172184819Y-74340475D02*
X172184819Y-74149999D01*
X172184819Y-74149999D02*
X172137200Y-74054761D01*
X172137200Y-74054761D02*
X172089580Y-74007142D01*
X172089580Y-74007142D02*
X171994342Y-73959523D01*
X171994342Y-73959523D02*
X171184819Y-73959523D01*
X172137200Y-73530951D02*
X172184819Y-73388094D01*
X172184819Y-73388094D02*
X172184819Y-73149999D01*
X172184819Y-73149999D02*
X172137200Y-73054761D01*
X172137200Y-73054761D02*
X172089580Y-73007142D01*
X172089580Y-73007142D02*
X171994342Y-72959523D01*
X171994342Y-72959523D02*
X171899104Y-72959523D01*
X171899104Y-72959523D02*
X171803866Y-73007142D01*
X171803866Y-73007142D02*
X171756247Y-73054761D01*
X171756247Y-73054761D02*
X171708628Y-73149999D01*
X171708628Y-73149999D02*
X171661009Y-73340475D01*
X171661009Y-73340475D02*
X171613390Y-73435713D01*
X171613390Y-73435713D02*
X171565771Y-73483332D01*
X171565771Y-73483332D02*
X171470533Y-73530951D01*
X171470533Y-73530951D02*
X171375295Y-73530951D01*
X171375295Y-73530951D02*
X171280057Y-73483332D01*
X171280057Y-73483332D02*
X171232438Y-73435713D01*
X171232438Y-73435713D02*
X171184819Y-73340475D01*
X171184819Y-73340475D02*
X171184819Y-73102380D01*
X171184819Y-73102380D02*
X171232438Y-72959523D01*
D12*
X170443832Y-77407142D02*
X170462880Y-77426190D01*
X170462880Y-77426190D02*
X170481927Y-77483332D01*
X170481927Y-77483332D02*
X170481927Y-77521428D01*
X170481927Y-77521428D02*
X170462880Y-77578571D01*
X170462880Y-77578571D02*
X170424784Y-77616666D01*
X170424784Y-77616666D02*
X170386689Y-77635713D01*
X170386689Y-77635713D02*
X170310499Y-77654761D01*
X170310499Y-77654761D02*
X170253356Y-77654761D01*
X170253356Y-77654761D02*
X170177165Y-77635713D01*
X170177165Y-77635713D02*
X170139070Y-77616666D01*
X170139070Y-77616666D02*
X170100975Y-77578571D01*
X170100975Y-77578571D02*
X170081927Y-77521428D01*
X170081927Y-77521428D02*
X170081927Y-77483332D01*
X170081927Y-77483332D02*
X170100975Y-77426190D01*
X170100975Y-77426190D02*
X170120022Y-77407142D01*
X170481927Y-77026190D02*
X170481927Y-77254761D01*
X170481927Y-77140475D02*
X170081927Y-77140475D01*
X170081927Y-77140475D02*
X170139070Y-77178571D01*
X170139070Y-77178571D02*
X170177165Y-77216666D01*
X170177165Y-77216666D02*
X170196213Y-77254761D01*
X170481927Y-76645238D02*
X170481927Y-76873809D01*
X170481927Y-76759523D02*
X170081927Y-76759523D01*
X170081927Y-76759523D02*
X170139070Y-76797619D01*
X170139070Y-76797619D02*
X170177165Y-76835714D01*
X170177165Y-76835714D02*
X170196213Y-76873809D01*
D10*
X125056666Y-134704819D02*
X125056666Y-135419104D01*
X125056666Y-135419104D02*
X125009047Y-135561961D01*
X125009047Y-135561961D02*
X124913809Y-135657200D01*
X124913809Y-135657200D02*
X124770952Y-135704819D01*
X124770952Y-135704819D02*
X124675714Y-135704819D01*
X125675714Y-135133390D02*
X125580476Y-135085771D01*
X125580476Y-135085771D02*
X125532857Y-135038152D01*
X125532857Y-135038152D02*
X125485238Y-134942914D01*
X125485238Y-134942914D02*
X125485238Y-134895295D01*
X125485238Y-134895295D02*
X125532857Y-134800057D01*
X125532857Y-134800057D02*
X125580476Y-134752438D01*
X125580476Y-134752438D02*
X125675714Y-134704819D01*
X125675714Y-134704819D02*
X125866190Y-134704819D01*
X125866190Y-134704819D02*
X125961428Y-134752438D01*
X125961428Y-134752438D02*
X126009047Y-134800057D01*
X126009047Y-134800057D02*
X126056666Y-134895295D01*
X126056666Y-134895295D02*
X126056666Y-134942914D01*
X126056666Y-134942914D02*
X126009047Y-135038152D01*
X126009047Y-135038152D02*
X125961428Y-135085771D01*
X125961428Y-135085771D02*
X125866190Y-135133390D01*
X125866190Y-135133390D02*
X125675714Y-135133390D01*
X125675714Y-135133390D02*
X125580476Y-135181009D01*
X125580476Y-135181009D02*
X125532857Y-135228628D01*
X125532857Y-135228628D02*
X125485238Y-135323866D01*
X125485238Y-135323866D02*
X125485238Y-135514342D01*
X125485238Y-135514342D02*
X125532857Y-135609580D01*
X125532857Y-135609580D02*
X125580476Y-135657200D01*
X125580476Y-135657200D02*
X125675714Y-135704819D01*
X125675714Y-135704819D02*
X125866190Y-135704819D01*
X125866190Y-135704819D02*
X125961428Y-135657200D01*
X125961428Y-135657200D02*
X126009047Y-135609580D01*
X126009047Y-135609580D02*
X126056666Y-135514342D01*
X126056666Y-135514342D02*
X126056666Y-135323866D01*
X126056666Y-135323866D02*
X126009047Y-135228628D01*
X126009047Y-135228628D02*
X125961428Y-135181009D01*
X125961428Y-135181009D02*
X125866190Y-135133390D01*
X125186666Y-132564819D02*
X125186666Y-133279104D01*
X125186666Y-133279104D02*
X125139047Y-133421961D01*
X125139047Y-133421961D02*
X125043809Y-133517200D01*
X125043809Y-133517200D02*
X124900952Y-133564819D01*
X124900952Y-133564819D02*
X124805714Y-133564819D01*
X125805714Y-132993390D02*
X125710476Y-132945771D01*
X125710476Y-132945771D02*
X125662857Y-132898152D01*
X125662857Y-132898152D02*
X125615238Y-132802914D01*
X125615238Y-132802914D02*
X125615238Y-132755295D01*
X125615238Y-132755295D02*
X125662857Y-132660057D01*
X125662857Y-132660057D02*
X125710476Y-132612438D01*
X125710476Y-132612438D02*
X125805714Y-132564819D01*
X125805714Y-132564819D02*
X125996190Y-132564819D01*
X125996190Y-132564819D02*
X126091428Y-132612438D01*
X126091428Y-132612438D02*
X126139047Y-132660057D01*
X126139047Y-132660057D02*
X126186666Y-132755295D01*
X126186666Y-132755295D02*
X126186666Y-132802914D01*
X126186666Y-132802914D02*
X126139047Y-132898152D01*
X126139047Y-132898152D02*
X126091428Y-132945771D01*
X126091428Y-132945771D02*
X125996190Y-132993390D01*
X125996190Y-132993390D02*
X125805714Y-132993390D01*
X125805714Y-132993390D02*
X125710476Y-133041009D01*
X125710476Y-133041009D02*
X125662857Y-133088628D01*
X125662857Y-133088628D02*
X125615238Y-133183866D01*
X125615238Y-133183866D02*
X125615238Y-133374342D01*
X125615238Y-133374342D02*
X125662857Y-133469580D01*
X125662857Y-133469580D02*
X125710476Y-133517200D01*
X125710476Y-133517200D02*
X125805714Y-133564819D01*
X125805714Y-133564819D02*
X125996190Y-133564819D01*
X125996190Y-133564819D02*
X126091428Y-133517200D01*
X126091428Y-133517200D02*
X126139047Y-133469580D01*
X126139047Y-133469580D02*
X126186666Y-133374342D01*
X126186666Y-133374342D02*
X126186666Y-133183866D01*
X126186666Y-133183866D02*
X126139047Y-133088628D01*
X126139047Y-133088628D02*
X126091428Y-133041009D01*
X126091428Y-133041009D02*
X125996190Y-132993390D01*
X178626666Y-118764259D02*
X178293333Y-118764259D01*
X178293333Y-119288069D02*
X178293333Y-118288069D01*
X178293333Y-118288069D02*
X178769523Y-118288069D01*
X179102857Y-118383307D02*
X179150476Y-118335688D01*
X179150476Y-118335688D02*
X179245714Y-118288069D01*
X179245714Y-118288069D02*
X179483809Y-118288069D01*
X179483809Y-118288069D02*
X179579047Y-118335688D01*
X179579047Y-118335688D02*
X179626666Y-118383307D01*
X179626666Y-118383307D02*
X179674285Y-118478545D01*
X179674285Y-118478545D02*
X179674285Y-118573783D01*
X179674285Y-118573783D02*
X179626666Y-118716640D01*
X179626666Y-118716640D02*
X179055238Y-119288069D01*
X179055238Y-119288069D02*
X179674285Y-119288069D01*
X158180476Y-116184819D02*
X158180476Y-116899104D01*
X158180476Y-116899104D02*
X158132857Y-117041961D01*
X158132857Y-117041961D02*
X158037619Y-117137200D01*
X158037619Y-117137200D02*
X157894762Y-117184819D01*
X157894762Y-117184819D02*
X157799524Y-117184819D01*
X159180476Y-117184819D02*
X158609048Y-117184819D01*
X158894762Y-117184819D02*
X158894762Y-116184819D01*
X158894762Y-116184819D02*
X158799524Y-116327676D01*
X158799524Y-116327676D02*
X158704286Y-116422914D01*
X158704286Y-116422914D02*
X158609048Y-116470533D01*
X159799524Y-116184819D02*
X159894762Y-116184819D01*
X159894762Y-116184819D02*
X159990000Y-116232438D01*
X159990000Y-116232438D02*
X160037619Y-116280057D01*
X160037619Y-116280057D02*
X160085238Y-116375295D01*
X160085238Y-116375295D02*
X160132857Y-116565771D01*
X160132857Y-116565771D02*
X160132857Y-116803866D01*
X160132857Y-116803866D02*
X160085238Y-116994342D01*
X160085238Y-116994342D02*
X160037619Y-117089580D01*
X160037619Y-117089580D02*
X159990000Y-117137200D01*
X159990000Y-117137200D02*
X159894762Y-117184819D01*
X159894762Y-117184819D02*
X159799524Y-117184819D01*
X159799524Y-117184819D02*
X159704286Y-117137200D01*
X159704286Y-117137200D02*
X159656667Y-117089580D01*
X159656667Y-117089580D02*
X159609048Y-116994342D01*
X159609048Y-116994342D02*
X159561429Y-116803866D01*
X159561429Y-116803866D02*
X159561429Y-116565771D01*
X159561429Y-116565771D02*
X159609048Y-116375295D01*
X159609048Y-116375295D02*
X159656667Y-116280057D01*
X159656667Y-116280057D02*
X159704286Y-116232438D01*
X159704286Y-116232438D02*
X159799524Y-116184819D01*
X165657142Y-119529580D02*
X165609523Y-119577200D01*
X165609523Y-119577200D02*
X165466666Y-119624819D01*
X165466666Y-119624819D02*
X165371428Y-119624819D01*
X165371428Y-119624819D02*
X165228571Y-119577200D01*
X165228571Y-119577200D02*
X165133333Y-119481961D01*
X165133333Y-119481961D02*
X165085714Y-119386723D01*
X165085714Y-119386723D02*
X165038095Y-119196247D01*
X165038095Y-119196247D02*
X165038095Y-119053390D01*
X165038095Y-119053390D02*
X165085714Y-118862914D01*
X165085714Y-118862914D02*
X165133333Y-118767676D01*
X165133333Y-118767676D02*
X165228571Y-118672438D01*
X165228571Y-118672438D02*
X165371428Y-118624819D01*
X165371428Y-118624819D02*
X165466666Y-118624819D01*
X165466666Y-118624819D02*
X165609523Y-118672438D01*
X165609523Y-118672438D02*
X165657142Y-118720057D01*
X166038095Y-119339104D02*
X166514285Y-119339104D01*
X165942857Y-119624819D02*
X166276190Y-118624819D01*
X166276190Y-118624819D02*
X166609523Y-119624819D01*
X166942857Y-119624819D02*
X166942857Y-118624819D01*
X166942857Y-118624819D02*
X167514285Y-119624819D01*
X167514285Y-119624819D02*
X167514285Y-118624819D01*
X158340476Y-118554819D02*
X158340476Y-119269104D01*
X158340476Y-119269104D02*
X158292857Y-119411961D01*
X158292857Y-119411961D02*
X158197619Y-119507200D01*
X158197619Y-119507200D02*
X158054762Y-119554819D01*
X158054762Y-119554819D02*
X157959524Y-119554819D01*
X159340476Y-119554819D02*
X158769048Y-119554819D01*
X159054762Y-119554819D02*
X159054762Y-118554819D01*
X159054762Y-118554819D02*
X158959524Y-118697676D01*
X158959524Y-118697676D02*
X158864286Y-118792914D01*
X158864286Y-118792914D02*
X158769048Y-118840533D01*
X159959524Y-118554819D02*
X160054762Y-118554819D01*
X160054762Y-118554819D02*
X160150000Y-118602438D01*
X160150000Y-118602438D02*
X160197619Y-118650057D01*
X160197619Y-118650057D02*
X160245238Y-118745295D01*
X160245238Y-118745295D02*
X160292857Y-118935771D01*
X160292857Y-118935771D02*
X160292857Y-119173866D01*
X160292857Y-119173866D02*
X160245238Y-119364342D01*
X160245238Y-119364342D02*
X160197619Y-119459580D01*
X160197619Y-119459580D02*
X160150000Y-119507200D01*
X160150000Y-119507200D02*
X160054762Y-119554819D01*
X160054762Y-119554819D02*
X159959524Y-119554819D01*
X159959524Y-119554819D02*
X159864286Y-119507200D01*
X159864286Y-119507200D02*
X159816667Y-119459580D01*
X159816667Y-119459580D02*
X159769048Y-119364342D01*
X159769048Y-119364342D02*
X159721429Y-119173866D01*
X159721429Y-119173866D02*
X159721429Y-118935771D01*
X159721429Y-118935771D02*
X159769048Y-118745295D01*
X159769048Y-118745295D02*
X159816667Y-118650057D01*
X159816667Y-118650057D02*
X159864286Y-118602438D01*
X159864286Y-118602438D02*
X159959524Y-118554819D01*
X158636666Y-122864819D02*
X158636666Y-123579104D01*
X158636666Y-123579104D02*
X158589047Y-123721961D01*
X158589047Y-123721961D02*
X158493809Y-123817200D01*
X158493809Y-123817200D02*
X158350952Y-123864819D01*
X158350952Y-123864819D02*
X158255714Y-123864819D01*
X159160476Y-123864819D02*
X159350952Y-123864819D01*
X159350952Y-123864819D02*
X159446190Y-123817200D01*
X159446190Y-123817200D02*
X159493809Y-123769580D01*
X159493809Y-123769580D02*
X159589047Y-123626723D01*
X159589047Y-123626723D02*
X159636666Y-123436247D01*
X159636666Y-123436247D02*
X159636666Y-123055295D01*
X159636666Y-123055295D02*
X159589047Y-122960057D01*
X159589047Y-122960057D02*
X159541428Y-122912438D01*
X159541428Y-122912438D02*
X159446190Y-122864819D01*
X159446190Y-122864819D02*
X159255714Y-122864819D01*
X159255714Y-122864819D02*
X159160476Y-122912438D01*
X159160476Y-122912438D02*
X159112857Y-122960057D01*
X159112857Y-122960057D02*
X159065238Y-123055295D01*
X159065238Y-123055295D02*
X159065238Y-123293390D01*
X159065238Y-123293390D02*
X159112857Y-123388628D01*
X159112857Y-123388628D02*
X159160476Y-123436247D01*
X159160476Y-123436247D02*
X159255714Y-123483866D01*
X159255714Y-123483866D02*
X159446190Y-123483866D01*
X159446190Y-123483866D02*
X159541428Y-123436247D01*
X159541428Y-123436247D02*
X159589047Y-123388628D01*
X159589047Y-123388628D02*
X159636666Y-123293390D01*
X164853333Y-135705180D02*
X164853333Y-134990895D01*
X164853333Y-134990895D02*
X164900952Y-134848038D01*
X164900952Y-134848038D02*
X164996190Y-134752800D01*
X164996190Y-134752800D02*
X165139047Y-134705180D01*
X165139047Y-134705180D02*
X165234285Y-134705180D01*
X164472380Y-135705180D02*
X163805714Y-135705180D01*
X163805714Y-135705180D02*
X164234285Y-134705180D01*
X167553333Y-135685180D02*
X167553333Y-134970895D01*
X167553333Y-134970895D02*
X167600952Y-134828038D01*
X167600952Y-134828038D02*
X167696190Y-134732800D01*
X167696190Y-134732800D02*
X167839047Y-134685180D01*
X167839047Y-134685180D02*
X167934285Y-134685180D01*
X167172380Y-135685180D02*
X166505714Y-135685180D01*
X166505714Y-135685180D02*
X166934285Y-134685180D01*
X184269580Y-95171429D02*
X184317200Y-95219048D01*
X184317200Y-95219048D02*
X184364819Y-95361905D01*
X184364819Y-95361905D02*
X184364819Y-95457143D01*
X184364819Y-95457143D02*
X184317200Y-95600000D01*
X184317200Y-95600000D02*
X184221961Y-95695238D01*
X184221961Y-95695238D02*
X184126723Y-95742857D01*
X184126723Y-95742857D02*
X183936247Y-95790476D01*
X183936247Y-95790476D02*
X183793390Y-95790476D01*
X183793390Y-95790476D02*
X183602914Y-95742857D01*
X183602914Y-95742857D02*
X183507676Y-95695238D01*
X183507676Y-95695238D02*
X183412438Y-95600000D01*
X183412438Y-95600000D02*
X183364819Y-95457143D01*
X183364819Y-95457143D02*
X183364819Y-95361905D01*
X183364819Y-95361905D02*
X183412438Y-95219048D01*
X183412438Y-95219048D02*
X183460057Y-95171429D01*
X184460057Y-94980953D02*
X184460057Y-94219048D01*
X184317200Y-94028571D02*
X184364819Y-93885714D01*
X184364819Y-93885714D02*
X184364819Y-93647619D01*
X184364819Y-93647619D02*
X184317200Y-93552381D01*
X184317200Y-93552381D02*
X184269580Y-93504762D01*
X184269580Y-93504762D02*
X184174342Y-93457143D01*
X184174342Y-93457143D02*
X184079104Y-93457143D01*
X184079104Y-93457143D02*
X183983866Y-93504762D01*
X183983866Y-93504762D02*
X183936247Y-93552381D01*
X183936247Y-93552381D02*
X183888628Y-93647619D01*
X183888628Y-93647619D02*
X183841009Y-93838095D01*
X183841009Y-93838095D02*
X183793390Y-93933333D01*
X183793390Y-93933333D02*
X183745771Y-93980952D01*
X183745771Y-93980952D02*
X183650533Y-94028571D01*
X183650533Y-94028571D02*
X183555295Y-94028571D01*
X183555295Y-94028571D02*
X183460057Y-93980952D01*
X183460057Y-93980952D02*
X183412438Y-93933333D01*
X183412438Y-93933333D02*
X183364819Y-93838095D01*
X183364819Y-93838095D02*
X183364819Y-93600000D01*
X183364819Y-93600000D02*
X183412438Y-93457143D01*
X184364819Y-93028571D02*
X183698152Y-93028571D01*
X183793390Y-93028571D02*
X183745771Y-92980952D01*
X183745771Y-92980952D02*
X183698152Y-92885714D01*
X183698152Y-92885714D02*
X183698152Y-92742857D01*
X183698152Y-92742857D02*
X183745771Y-92647619D01*
X183745771Y-92647619D02*
X183841009Y-92600000D01*
X183841009Y-92600000D02*
X184364819Y-92600000D01*
X183841009Y-92600000D02*
X183745771Y-92552381D01*
X183745771Y-92552381D02*
X183698152Y-92457143D01*
X183698152Y-92457143D02*
X183698152Y-92314286D01*
X183698152Y-92314286D02*
X183745771Y-92219047D01*
X183745771Y-92219047D02*
X183841009Y-92171428D01*
X183841009Y-92171428D02*
X184364819Y-92171428D01*
X184364819Y-91266667D02*
X183841009Y-91266667D01*
X183841009Y-91266667D02*
X183745771Y-91314286D01*
X183745771Y-91314286D02*
X183698152Y-91409524D01*
X183698152Y-91409524D02*
X183698152Y-91600000D01*
X183698152Y-91600000D02*
X183745771Y-91695238D01*
X184317200Y-91266667D02*
X184364819Y-91361905D01*
X184364819Y-91361905D02*
X184364819Y-91600000D01*
X184364819Y-91600000D02*
X184317200Y-91695238D01*
X184317200Y-91695238D02*
X184221961Y-91742857D01*
X184221961Y-91742857D02*
X184126723Y-91742857D01*
X184126723Y-91742857D02*
X184031485Y-91695238D01*
X184031485Y-91695238D02*
X183983866Y-91600000D01*
X183983866Y-91600000D02*
X183983866Y-91361905D01*
X183983866Y-91361905D02*
X183936247Y-91266667D01*
X184364819Y-90647619D02*
X184317200Y-90742857D01*
X184317200Y-90742857D02*
X184221961Y-90790476D01*
X184221961Y-90790476D02*
X183364819Y-90790476D01*
X184364819Y-90123809D02*
X184317200Y-90219047D01*
X184317200Y-90219047D02*
X184221961Y-90266666D01*
X184221961Y-90266666D02*
X183364819Y-90266666D01*
X184460057Y-89980952D02*
X184460057Y-89219047D01*
X183364819Y-88980951D02*
X184174342Y-88980951D01*
X184174342Y-88980951D02*
X184269580Y-88933332D01*
X184269580Y-88933332D02*
X184317200Y-88885713D01*
X184317200Y-88885713D02*
X184364819Y-88790475D01*
X184364819Y-88790475D02*
X184364819Y-88599999D01*
X184364819Y-88599999D02*
X184317200Y-88504761D01*
X184317200Y-88504761D02*
X184269580Y-88457142D01*
X184269580Y-88457142D02*
X184174342Y-88409523D01*
X184174342Y-88409523D02*
X183364819Y-88409523D01*
X184317200Y-87980951D02*
X184364819Y-87838094D01*
X184364819Y-87838094D02*
X184364819Y-87599999D01*
X184364819Y-87599999D02*
X184317200Y-87504761D01*
X184317200Y-87504761D02*
X184269580Y-87457142D01*
X184269580Y-87457142D02*
X184174342Y-87409523D01*
X184174342Y-87409523D02*
X184079104Y-87409523D01*
X184079104Y-87409523D02*
X183983866Y-87457142D01*
X183983866Y-87457142D02*
X183936247Y-87504761D01*
X183936247Y-87504761D02*
X183888628Y-87599999D01*
X183888628Y-87599999D02*
X183841009Y-87790475D01*
X183841009Y-87790475D02*
X183793390Y-87885713D01*
X183793390Y-87885713D02*
X183745771Y-87933332D01*
X183745771Y-87933332D02*
X183650533Y-87980951D01*
X183650533Y-87980951D02*
X183555295Y-87980951D01*
X183555295Y-87980951D02*
X183460057Y-87933332D01*
X183460057Y-87933332D02*
X183412438Y-87885713D01*
X183412438Y-87885713D02*
X183364819Y-87790475D01*
X183364819Y-87790475D02*
X183364819Y-87552380D01*
X183364819Y-87552380D02*
X183412438Y-87409523D01*
D12*
X182413832Y-89357142D02*
X182432880Y-89376190D01*
X182432880Y-89376190D02*
X182451927Y-89433332D01*
X182451927Y-89433332D02*
X182451927Y-89471428D01*
X182451927Y-89471428D02*
X182432880Y-89528571D01*
X182432880Y-89528571D02*
X182394784Y-89566666D01*
X182394784Y-89566666D02*
X182356689Y-89585713D01*
X182356689Y-89585713D02*
X182280499Y-89604761D01*
X182280499Y-89604761D02*
X182223356Y-89604761D01*
X182223356Y-89604761D02*
X182147165Y-89585713D01*
X182147165Y-89585713D02*
X182109070Y-89566666D01*
X182109070Y-89566666D02*
X182070975Y-89528571D01*
X182070975Y-89528571D02*
X182051927Y-89471428D01*
X182051927Y-89471428D02*
X182051927Y-89433332D01*
X182051927Y-89433332D02*
X182070975Y-89376190D01*
X182070975Y-89376190D02*
X182090022Y-89357142D01*
X182451927Y-88976190D02*
X182451927Y-89204761D01*
X182451927Y-89090475D02*
X182051927Y-89090475D01*
X182051927Y-89090475D02*
X182109070Y-89128571D01*
X182109070Y-89128571D02*
X182147165Y-89166666D01*
X182147165Y-89166666D02*
X182166213Y-89204761D01*
X182090022Y-88823809D02*
X182070975Y-88804761D01*
X182070975Y-88804761D02*
X182051927Y-88766666D01*
X182051927Y-88766666D02*
X182051927Y-88671428D01*
X182051927Y-88671428D02*
X182070975Y-88633333D01*
X182070975Y-88633333D02*
X182090022Y-88614285D01*
X182090022Y-88614285D02*
X182128118Y-88595238D01*
X182128118Y-88595238D02*
X182166213Y-88595238D01*
X182166213Y-88595238D02*
X182223356Y-88614285D01*
X182223356Y-88614285D02*
X182451927Y-88842857D01*
X182451927Y-88842857D02*
X182451927Y-88595238D01*
D10*
X121204819Y-117553333D02*
X121919104Y-117553333D01*
X121919104Y-117553333D02*
X122061961Y-117600952D01*
X122061961Y-117600952D02*
X122157200Y-117696190D01*
X122157200Y-117696190D02*
X122204819Y-117839047D01*
X122204819Y-117839047D02*
X122204819Y-117934285D01*
X121204819Y-117172380D02*
X121204819Y-116553333D01*
X121204819Y-116553333D02*
X121585771Y-116886666D01*
X121585771Y-116886666D02*
X121585771Y-116743809D01*
X121585771Y-116743809D02*
X121633390Y-116648571D01*
X121633390Y-116648571D02*
X121681009Y-116600952D01*
X121681009Y-116600952D02*
X121776247Y-116553333D01*
X121776247Y-116553333D02*
X122014342Y-116553333D01*
X122014342Y-116553333D02*
X122109580Y-116600952D01*
X122109580Y-116600952D02*
X122157200Y-116648571D01*
X122157200Y-116648571D02*
X122204819Y-116743809D01*
X122204819Y-116743809D02*
X122204819Y-117029523D01*
X122204819Y-117029523D02*
X122157200Y-117124761D01*
X122157200Y-117124761D02*
X122109580Y-117172380D01*
D13*
X151720000Y-133810000D02*
X159340000Y-133810000D01*
X151720000Y-135715000D02*
X151720000Y-133810000D01*
X152355000Y-136350000D02*
X151720000Y-135715000D01*
X159340000Y-133810000D02*
X159340000Y-136350000D01*
X159340000Y-136350000D02*
X152355000Y-136350000D01*
D10*
X171920000Y-74150000D02*
X182080000Y-74150000D01*
X171920000Y-86850000D02*
X171920000Y-74150000D01*
X182080000Y-74150000D02*
X182080000Y-86850000D01*
X182080000Y-86850000D02*
X171920000Y-86850000D01*
X152420000Y-59150000D02*
X162580000Y-59150000D01*
X152420000Y-71850000D02*
X152420000Y-59150000D01*
X162580000Y-59150000D02*
X162580000Y-71850000D01*
X162580000Y-71850000D02*
X152420000Y-71850000D01*
X133420000Y-49150000D02*
X143580000Y-49150000D01*
X133420000Y-61850000D02*
X133420000Y-49150000D01*
X143580000Y-49150000D02*
X143580000Y-61850000D01*
X143580000Y-61850000D02*
X133420000Y-61850000D01*
X113420000Y-57150000D02*
X123580000Y-57150000D01*
X113420000Y-69850000D02*
X113420000Y-57150000D01*
X123580000Y-57150000D02*
X123580000Y-69850000D01*
X123580000Y-69850000D02*
X113420000Y-69850000D01*
X113730000Y-96230000D02*
X123890000Y-96230000D01*
X113730000Y-108930000D02*
X113730000Y-96230000D01*
X123890000Y-96230000D02*
X123890000Y-108930000D01*
X123890000Y-108930000D02*
X113730000Y-108930000D01*
D13*
X172890000Y-130820000D02*
X180510000Y-130820000D01*
X172890000Y-132725000D02*
X172890000Y-130820000D01*
X173525000Y-133360000D02*
X172890000Y-132725000D01*
X180510000Y-130820000D02*
X180510000Y-133360000D01*
X180510000Y-133360000D02*
X173525000Y-133360000D01*
X150230000Y-62920000D02*
X149430000Y-62920000D01*
X149430000Y-64520000D01*
X150230000Y-64520000D01*
X150230000Y-62920000D01*
X169420000Y-104330000D02*
X183420000Y-104330000D01*
X169420000Y-111930000D02*
X169420000Y-104330000D01*
X183420000Y-104330000D02*
X183420000Y-111930000D01*
X183420000Y-111930000D02*
X169420000Y-111930000D01*
X169900000Y-77950000D02*
X170700000Y-77950000D01*
X170700000Y-76350000D01*
X169900000Y-76350000D01*
X169900000Y-77950000D01*
X122980000Y-131840000D02*
X128060000Y-131840000D01*
X122980000Y-133745000D02*
X122980000Y-131840000D01*
X123615000Y-134380000D02*
X122980000Y-133745000D01*
X128060000Y-131840000D02*
X128060000Y-134380000D01*
X128060000Y-134380000D02*
X123615000Y-134380000D01*
D14*
X178325000Y-124472050D02*
X179595000Y-124472050D01*
X178960000Y-125107050D02*
X178960000Y-123837050D01*
X183709800Y-118833250D02*
G75*
G02*
X174210200Y-118833250I-4749800J0D01*
G01*
X174210200Y-118833250D02*
G75*
G02*
X183709800Y-118833250I4749800J0D01*
G01*
D13*
X154070000Y-117830000D02*
X164230000Y-117830000D01*
X154070000Y-119735000D02*
X154070000Y-117830000D01*
X154705000Y-120370000D02*
X154070000Y-119735000D01*
X164230000Y-117830000D02*
X164230000Y-120370000D01*
X164230000Y-120370000D02*
X154705000Y-120370000D01*
X151350000Y-122140000D02*
X165955000Y-122140000D01*
X151350000Y-124680000D02*
X151350000Y-122140000D01*
X165955000Y-122140000D02*
X166590000Y-122775000D01*
X166590000Y-122775000D02*
X166590000Y-124680000D01*
X166590000Y-124680000D02*
X151350000Y-124680000D01*
D14*
X160920001Y-127541600D02*
X160920001Y-136330000D01*
X160920001Y-136330000D02*
X171080001Y-136330000D01*
X171080001Y-127541600D02*
X160920001Y-127541600D01*
X171080001Y-136330000D02*
X171080001Y-127541600D01*
D15*
X164881001Y-130000000D02*
G75*
G02*
X164119001Y-130000000I-381000J0D01*
G01*
X164119001Y-130000000D02*
G75*
G02*
X164881001Y-130000000I381000J0D01*
G01*
D13*
X182670000Y-88300000D02*
X181870000Y-88300000D01*
X181870000Y-89900000D01*
X182670000Y-89900000D01*
X182670000Y-88300000D01*
D16*
X147592380Y-133354418D02*
X147287619Y-133354418D01*
X147440000Y-133354418D02*
X147440000Y-132821085D01*
X147440000Y-132821085D02*
X147389206Y-132897276D01*
X147389206Y-132897276D02*
X147338412Y-132948069D01*
X147338412Y-132948069D02*
X147287619Y-132973466D01*
D13*
X148240000Y-133110000D02*
G75*
G02*
X146640000Y-133110000I-800000J0D01*
G01*
X146640000Y-133110000D02*
G75*
G02*
X148240000Y-133110000I800000J0D01*
G01*
D16*
X147287619Y-130331879D02*
X147313016Y-130306482D01*
X147313016Y-130306482D02*
X147363809Y-130281085D01*
X147363809Y-130281085D02*
X147490793Y-130281085D01*
X147490793Y-130281085D02*
X147541587Y-130306482D01*
X147541587Y-130306482D02*
X147566984Y-130331879D01*
X147566984Y-130331879D02*
X147592380Y-130382673D01*
X147592380Y-130382673D02*
X147592380Y-130433466D01*
X147592380Y-130433466D02*
X147566984Y-130509657D01*
X147566984Y-130509657D02*
X147262222Y-130814418D01*
X147262222Y-130814418D02*
X147592380Y-130814418D01*
D13*
X148240000Y-130570000D02*
G75*
G02*
X146640000Y-130570000I-800000J0D01*
G01*
X146640000Y-130570000D02*
G75*
G02*
X148240000Y-130570000I800000J0D01*
G01*
D16*
X147262222Y-127741085D02*
X147592380Y-127741085D01*
X147592380Y-127741085D02*
X147414603Y-127944260D01*
X147414603Y-127944260D02*
X147490793Y-127944260D01*
X147490793Y-127944260D02*
X147541587Y-127969657D01*
X147541587Y-127969657D02*
X147566984Y-127995053D01*
X147566984Y-127995053D02*
X147592380Y-128045847D01*
X147592380Y-128045847D02*
X147592380Y-128172831D01*
X147592380Y-128172831D02*
X147566984Y-128223625D01*
X147566984Y-128223625D02*
X147541587Y-128249022D01*
X147541587Y-128249022D02*
X147490793Y-128274418D01*
X147490793Y-128274418D02*
X147338412Y-128274418D01*
X147338412Y-128274418D02*
X147287619Y-128249022D01*
X147287619Y-128249022D02*
X147262222Y-128223625D01*
D13*
X148240000Y-128030000D02*
G75*
G02*
X146640000Y-128030000I-800000J0D01*
G01*
X146640000Y-128030000D02*
G75*
G02*
X148240000Y-128030000I800000J0D01*
G01*
D16*
X147541587Y-125378863D02*
X147541587Y-125734418D01*
X147414603Y-125175689D02*
X147287619Y-125556641D01*
X147287619Y-125556641D02*
X147617777Y-125556641D01*
D13*
X148240000Y-125490000D02*
G75*
G02*
X146640000Y-125490000I-800000J0D01*
G01*
X146640000Y-125490000D02*
G75*
G02*
X148240000Y-125490000I800000J0D01*
G01*
D16*
X147566984Y-122661085D02*
X147313016Y-122661085D01*
X147313016Y-122661085D02*
X147287619Y-122915053D01*
X147287619Y-122915053D02*
X147313016Y-122889657D01*
X147313016Y-122889657D02*
X147363809Y-122864260D01*
X147363809Y-122864260D02*
X147490793Y-122864260D01*
X147490793Y-122864260D02*
X147541587Y-122889657D01*
X147541587Y-122889657D02*
X147566984Y-122915053D01*
X147566984Y-122915053D02*
X147592380Y-122965847D01*
X147592380Y-122965847D02*
X147592380Y-123092831D01*
X147592380Y-123092831D02*
X147566984Y-123143625D01*
X147566984Y-123143625D02*
X147541587Y-123169022D01*
X147541587Y-123169022D02*
X147490793Y-123194418D01*
X147490793Y-123194418D02*
X147363809Y-123194418D01*
X147363809Y-123194418D02*
X147313016Y-123169022D01*
X147313016Y-123169022D02*
X147287619Y-123143625D01*
D13*
X148240000Y-122950000D02*
G75*
G02*
X146640000Y-122950000I-800000J0D01*
G01*
X146640000Y-122950000D02*
G75*
G02*
X148240000Y-122950000I800000J0D01*
G01*
D16*
X147541587Y-120121085D02*
X147440000Y-120121085D01*
X147440000Y-120121085D02*
X147389206Y-120146482D01*
X147389206Y-120146482D02*
X147363809Y-120171879D01*
X147363809Y-120171879D02*
X147313016Y-120248069D01*
X147313016Y-120248069D02*
X147287619Y-120349657D01*
X147287619Y-120349657D02*
X147287619Y-120552831D01*
X147287619Y-120552831D02*
X147313016Y-120603625D01*
X147313016Y-120603625D02*
X147338412Y-120629022D01*
X147338412Y-120629022D02*
X147389206Y-120654418D01*
X147389206Y-120654418D02*
X147490793Y-120654418D01*
X147490793Y-120654418D02*
X147541587Y-120629022D01*
X147541587Y-120629022D02*
X147566984Y-120603625D01*
X147566984Y-120603625D02*
X147592380Y-120552831D01*
X147592380Y-120552831D02*
X147592380Y-120425847D01*
X147592380Y-120425847D02*
X147566984Y-120375053D01*
X147566984Y-120375053D02*
X147541587Y-120349657D01*
X147541587Y-120349657D02*
X147490793Y-120324260D01*
X147490793Y-120324260D02*
X147389206Y-120324260D01*
X147389206Y-120324260D02*
X147338412Y-120349657D01*
X147338412Y-120349657D02*
X147313016Y-120375053D01*
X147313016Y-120375053D02*
X147287619Y-120425847D01*
D13*
X148240000Y-120410000D02*
G75*
G02*
X146640000Y-120410000I-800000J0D01*
G01*
X146640000Y-120410000D02*
G75*
G02*
X148240000Y-120410000I800000J0D01*
G01*
D16*
X147262222Y-117581085D02*
X147617777Y-117581085D01*
X147617777Y-117581085D02*
X147389206Y-118114418D01*
D13*
X148240000Y-117870000D02*
G75*
G02*
X146640000Y-117870000I-800000J0D01*
G01*
X146640000Y-117870000D02*
G75*
G02*
X148240000Y-117870000I800000J0D01*
G01*
D16*
X147389206Y-115269657D02*
X147338412Y-115244260D01*
X147338412Y-115244260D02*
X147313016Y-115218863D01*
X147313016Y-115218863D02*
X147287619Y-115168069D01*
X147287619Y-115168069D02*
X147287619Y-115142673D01*
X147287619Y-115142673D02*
X147313016Y-115091879D01*
X147313016Y-115091879D02*
X147338412Y-115066482D01*
X147338412Y-115066482D02*
X147389206Y-115041085D01*
X147389206Y-115041085D02*
X147490793Y-115041085D01*
X147490793Y-115041085D02*
X147541587Y-115066482D01*
X147541587Y-115066482D02*
X147566984Y-115091879D01*
X147566984Y-115091879D02*
X147592380Y-115142673D01*
X147592380Y-115142673D02*
X147592380Y-115168069D01*
X147592380Y-115168069D02*
X147566984Y-115218863D01*
X147566984Y-115218863D02*
X147541587Y-115244260D01*
X147541587Y-115244260D02*
X147490793Y-115269657D01*
X147490793Y-115269657D02*
X147389206Y-115269657D01*
X147389206Y-115269657D02*
X147338412Y-115295053D01*
X147338412Y-115295053D02*
X147313016Y-115320450D01*
X147313016Y-115320450D02*
X147287619Y-115371244D01*
X147287619Y-115371244D02*
X147287619Y-115472831D01*
X147287619Y-115472831D02*
X147313016Y-115523625D01*
X147313016Y-115523625D02*
X147338412Y-115549022D01*
X147338412Y-115549022D02*
X147389206Y-115574418D01*
X147389206Y-115574418D02*
X147490793Y-115574418D01*
X147490793Y-115574418D02*
X147541587Y-115549022D01*
X147541587Y-115549022D02*
X147566984Y-115523625D01*
X147566984Y-115523625D02*
X147592380Y-115472831D01*
X147592380Y-115472831D02*
X147592380Y-115371244D01*
X147592380Y-115371244D02*
X147566984Y-115320450D01*
X147566984Y-115320450D02*
X147541587Y-115295053D01*
X147541587Y-115295053D02*
X147490793Y-115269657D01*
D13*
X148240000Y-115330000D02*
G75*
G02*
X146640000Y-115330000I-800000J0D01*
G01*
X146640000Y-115330000D02*
G75*
G02*
X148240000Y-115330000I800000J0D01*
G01*
D16*
X147338412Y-113034418D02*
X147440000Y-113034418D01*
X147440000Y-113034418D02*
X147490793Y-113009022D01*
X147490793Y-113009022D02*
X147516190Y-112983625D01*
X147516190Y-112983625D02*
X147566984Y-112907434D01*
X147566984Y-112907434D02*
X147592380Y-112805847D01*
X147592380Y-112805847D02*
X147592380Y-112602673D01*
X147592380Y-112602673D02*
X147566984Y-112551879D01*
X147566984Y-112551879D02*
X147541587Y-112526482D01*
X147541587Y-112526482D02*
X147490793Y-112501085D01*
X147490793Y-112501085D02*
X147389206Y-112501085D01*
X147389206Y-112501085D02*
X147338412Y-112526482D01*
X147338412Y-112526482D02*
X147313016Y-112551879D01*
X147313016Y-112551879D02*
X147287619Y-112602673D01*
X147287619Y-112602673D02*
X147287619Y-112729657D01*
X147287619Y-112729657D02*
X147313016Y-112780450D01*
X147313016Y-112780450D02*
X147338412Y-112805847D01*
X147338412Y-112805847D02*
X147389206Y-112831244D01*
X147389206Y-112831244D02*
X147490793Y-112831244D01*
X147490793Y-112831244D02*
X147541587Y-112805847D01*
X147541587Y-112805847D02*
X147566984Y-112780450D01*
X147566984Y-112780450D02*
X147592380Y-112729657D01*
D13*
X148240000Y-112790000D02*
G75*
G02*
X146640000Y-112790000I-800000J0D01*
G01*
X146640000Y-112790000D02*
G75*
G02*
X148240000Y-112790000I800000J0D01*
G01*
D16*
X147338412Y-110494418D02*
X147033651Y-110494418D01*
X147186032Y-110494418D02*
X147186032Y-109961085D01*
X147186032Y-109961085D02*
X147135238Y-110037276D01*
X147135238Y-110037276D02*
X147084444Y-110088069D01*
X147084444Y-110088069D02*
X147033651Y-110113466D01*
X147668571Y-109961085D02*
X147719364Y-109961085D01*
X147719364Y-109961085D02*
X147770158Y-109986482D01*
X147770158Y-109986482D02*
X147795555Y-110011879D01*
X147795555Y-110011879D02*
X147820952Y-110062673D01*
X147820952Y-110062673D02*
X147846348Y-110164260D01*
X147846348Y-110164260D02*
X147846348Y-110291244D01*
X147846348Y-110291244D02*
X147820952Y-110392831D01*
X147820952Y-110392831D02*
X147795555Y-110443625D01*
X147795555Y-110443625D02*
X147770158Y-110469022D01*
X147770158Y-110469022D02*
X147719364Y-110494418D01*
X147719364Y-110494418D02*
X147668571Y-110494418D01*
X147668571Y-110494418D02*
X147617777Y-110469022D01*
X147617777Y-110469022D02*
X147592380Y-110443625D01*
X147592380Y-110443625D02*
X147566984Y-110392831D01*
X147566984Y-110392831D02*
X147541587Y-110291244D01*
X147541587Y-110291244D02*
X147541587Y-110164260D01*
X147541587Y-110164260D02*
X147566984Y-110062673D01*
X147566984Y-110062673D02*
X147592380Y-110011879D01*
X147592380Y-110011879D02*
X147617777Y-109986482D01*
X147617777Y-109986482D02*
X147668571Y-109961085D01*
D13*
X148240000Y-110250000D02*
G75*
G02*
X146640000Y-110250000I-800000J0D01*
G01*
X146640000Y-110250000D02*
G75*
G02*
X148240000Y-110250000I800000J0D01*
G01*
D16*
X147338412Y-107954418D02*
X147033651Y-107954418D01*
X147186032Y-107954418D02*
X147186032Y-107421085D01*
X147186032Y-107421085D02*
X147135238Y-107497276D01*
X147135238Y-107497276D02*
X147084444Y-107548069D01*
X147084444Y-107548069D02*
X147033651Y-107573466D01*
X147846348Y-107954418D02*
X147541587Y-107954418D01*
X147693968Y-107954418D02*
X147693968Y-107421085D01*
X147693968Y-107421085D02*
X147643174Y-107497276D01*
X147643174Y-107497276D02*
X147592380Y-107548069D01*
X147592380Y-107548069D02*
X147541587Y-107573466D01*
D13*
X148240000Y-107710000D02*
G75*
G02*
X146640000Y-107710000I-800000J0D01*
G01*
X146640000Y-107710000D02*
G75*
G02*
X148240000Y-107710000I800000J0D01*
G01*
D16*
X147338412Y-105414418D02*
X147033651Y-105414418D01*
X147186032Y-105414418D02*
X147186032Y-104881085D01*
X147186032Y-104881085D02*
X147135238Y-104957276D01*
X147135238Y-104957276D02*
X147084444Y-105008069D01*
X147084444Y-105008069D02*
X147033651Y-105033466D01*
X147541587Y-104931879D02*
X147566984Y-104906482D01*
X147566984Y-104906482D02*
X147617777Y-104881085D01*
X147617777Y-104881085D02*
X147744761Y-104881085D01*
X147744761Y-104881085D02*
X147795555Y-104906482D01*
X147795555Y-104906482D02*
X147820952Y-104931879D01*
X147820952Y-104931879D02*
X147846348Y-104982673D01*
X147846348Y-104982673D02*
X147846348Y-105033466D01*
X147846348Y-105033466D02*
X147820952Y-105109657D01*
X147820952Y-105109657D02*
X147516190Y-105414418D01*
X147516190Y-105414418D02*
X147846348Y-105414418D01*
D13*
X148240000Y-105170000D02*
G75*
G02*
X146640000Y-105170000I-800000J0D01*
G01*
X146640000Y-105170000D02*
G75*
G02*
X148240000Y-105170000I800000J0D01*
G01*
D16*
X147338412Y-102874418D02*
X147033651Y-102874418D01*
X147186032Y-102874418D02*
X147186032Y-102341085D01*
X147186032Y-102341085D02*
X147135238Y-102417276D01*
X147135238Y-102417276D02*
X147084444Y-102468069D01*
X147084444Y-102468069D02*
X147033651Y-102493466D01*
X147516190Y-102341085D02*
X147846348Y-102341085D01*
X147846348Y-102341085D02*
X147668571Y-102544260D01*
X147668571Y-102544260D02*
X147744761Y-102544260D01*
X147744761Y-102544260D02*
X147795555Y-102569657D01*
X147795555Y-102569657D02*
X147820952Y-102595053D01*
X147820952Y-102595053D02*
X147846348Y-102645847D01*
X147846348Y-102645847D02*
X147846348Y-102772831D01*
X147846348Y-102772831D02*
X147820952Y-102823625D01*
X147820952Y-102823625D02*
X147795555Y-102849022D01*
X147795555Y-102849022D02*
X147744761Y-102874418D01*
X147744761Y-102874418D02*
X147592380Y-102874418D01*
X147592380Y-102874418D02*
X147541587Y-102849022D01*
X147541587Y-102849022D02*
X147516190Y-102823625D01*
D13*
X148240000Y-102630000D02*
G75*
G02*
X146640000Y-102630000I-800000J0D01*
G01*
X146640000Y-102630000D02*
G75*
G02*
X148240000Y-102630000I800000J0D01*
G01*
D16*
X147338412Y-100334418D02*
X147033651Y-100334418D01*
X147186032Y-100334418D02*
X147186032Y-99801085D01*
X147186032Y-99801085D02*
X147135238Y-99877276D01*
X147135238Y-99877276D02*
X147084444Y-99928069D01*
X147084444Y-99928069D02*
X147033651Y-99953466D01*
X147795555Y-99978863D02*
X147795555Y-100334418D01*
X147668571Y-99775689D02*
X147541587Y-100156641D01*
X147541587Y-100156641D02*
X147871745Y-100156641D01*
D13*
X148240000Y-100090000D02*
G75*
G02*
X146640000Y-100090000I-800000J0D01*
G01*
X146640000Y-100090000D02*
G75*
G02*
X148240000Y-100090000I800000J0D01*
G01*
D16*
X131793651Y-99851879D02*
X131819048Y-99826482D01*
X131819048Y-99826482D02*
X131869841Y-99801085D01*
X131869841Y-99801085D02*
X131996825Y-99801085D01*
X131996825Y-99801085D02*
X132047619Y-99826482D01*
X132047619Y-99826482D02*
X132073016Y-99851879D01*
X132073016Y-99851879D02*
X132098412Y-99902673D01*
X132098412Y-99902673D02*
X132098412Y-99953466D01*
X132098412Y-99953466D02*
X132073016Y-100029657D01*
X132073016Y-100029657D02*
X131768254Y-100334418D01*
X131768254Y-100334418D02*
X132098412Y-100334418D01*
X132428571Y-99801085D02*
X132479364Y-99801085D01*
X132479364Y-99801085D02*
X132530158Y-99826482D01*
X132530158Y-99826482D02*
X132555555Y-99851879D01*
X132555555Y-99851879D02*
X132580952Y-99902673D01*
X132580952Y-99902673D02*
X132606348Y-100004260D01*
X132606348Y-100004260D02*
X132606348Y-100131244D01*
X132606348Y-100131244D02*
X132580952Y-100232831D01*
X132580952Y-100232831D02*
X132555555Y-100283625D01*
X132555555Y-100283625D02*
X132530158Y-100309022D01*
X132530158Y-100309022D02*
X132479364Y-100334418D01*
X132479364Y-100334418D02*
X132428571Y-100334418D01*
X132428571Y-100334418D02*
X132377777Y-100309022D01*
X132377777Y-100309022D02*
X132352380Y-100283625D01*
X132352380Y-100283625D02*
X132326984Y-100232831D01*
X132326984Y-100232831D02*
X132301587Y-100131244D01*
X132301587Y-100131244D02*
X132301587Y-100004260D01*
X132301587Y-100004260D02*
X132326984Y-99902673D01*
X132326984Y-99902673D02*
X132352380Y-99851879D01*
X132352380Y-99851879D02*
X132377777Y-99826482D01*
X132377777Y-99826482D02*
X132428571Y-99801085D01*
D13*
X133000000Y-100090000D02*
G75*
G02*
X131400000Y-100090000I-800000J0D01*
G01*
X131400000Y-100090000D02*
G75*
G02*
X133000000Y-100090000I800000J0D01*
G01*
D16*
X131793651Y-102391879D02*
X131819048Y-102366482D01*
X131819048Y-102366482D02*
X131869841Y-102341085D01*
X131869841Y-102341085D02*
X131996825Y-102341085D01*
X131996825Y-102341085D02*
X132047619Y-102366482D01*
X132047619Y-102366482D02*
X132073016Y-102391879D01*
X132073016Y-102391879D02*
X132098412Y-102442673D01*
X132098412Y-102442673D02*
X132098412Y-102493466D01*
X132098412Y-102493466D02*
X132073016Y-102569657D01*
X132073016Y-102569657D02*
X131768254Y-102874418D01*
X131768254Y-102874418D02*
X132098412Y-102874418D01*
X132606348Y-102874418D02*
X132301587Y-102874418D01*
X132453968Y-102874418D02*
X132453968Y-102341085D01*
X132453968Y-102341085D02*
X132403174Y-102417276D01*
X132403174Y-102417276D02*
X132352380Y-102468069D01*
X132352380Y-102468069D02*
X132301587Y-102493466D01*
D13*
X133000000Y-102630000D02*
G75*
G02*
X131400000Y-102630000I-800000J0D01*
G01*
X131400000Y-102630000D02*
G75*
G02*
X133000000Y-102630000I800000J0D01*
G01*
D16*
X131793651Y-104931879D02*
X131819048Y-104906482D01*
X131819048Y-104906482D02*
X131869841Y-104881085D01*
X131869841Y-104881085D02*
X131996825Y-104881085D01*
X131996825Y-104881085D02*
X132047619Y-104906482D01*
X132047619Y-104906482D02*
X132073016Y-104931879D01*
X132073016Y-104931879D02*
X132098412Y-104982673D01*
X132098412Y-104982673D02*
X132098412Y-105033466D01*
X132098412Y-105033466D02*
X132073016Y-105109657D01*
X132073016Y-105109657D02*
X131768254Y-105414418D01*
X131768254Y-105414418D02*
X132098412Y-105414418D01*
X132301587Y-104931879D02*
X132326984Y-104906482D01*
X132326984Y-104906482D02*
X132377777Y-104881085D01*
X132377777Y-104881085D02*
X132504761Y-104881085D01*
X132504761Y-104881085D02*
X132555555Y-104906482D01*
X132555555Y-104906482D02*
X132580952Y-104931879D01*
X132580952Y-104931879D02*
X132606348Y-104982673D01*
X132606348Y-104982673D02*
X132606348Y-105033466D01*
X132606348Y-105033466D02*
X132580952Y-105109657D01*
X132580952Y-105109657D02*
X132276190Y-105414418D01*
X132276190Y-105414418D02*
X132606348Y-105414418D01*
D13*
X133000000Y-105170000D02*
G75*
G02*
X131400000Y-105170000I-800000J0D01*
G01*
X131400000Y-105170000D02*
G75*
G02*
X133000000Y-105170000I800000J0D01*
G01*
D16*
X131793651Y-107471879D02*
X131819048Y-107446482D01*
X131819048Y-107446482D02*
X131869841Y-107421085D01*
X131869841Y-107421085D02*
X131996825Y-107421085D01*
X131996825Y-107421085D02*
X132047619Y-107446482D01*
X132047619Y-107446482D02*
X132073016Y-107471879D01*
X132073016Y-107471879D02*
X132098412Y-107522673D01*
X132098412Y-107522673D02*
X132098412Y-107573466D01*
X132098412Y-107573466D02*
X132073016Y-107649657D01*
X132073016Y-107649657D02*
X131768254Y-107954418D01*
X131768254Y-107954418D02*
X132098412Y-107954418D01*
X132276190Y-107421085D02*
X132606348Y-107421085D01*
X132606348Y-107421085D02*
X132428571Y-107624260D01*
X132428571Y-107624260D02*
X132504761Y-107624260D01*
X132504761Y-107624260D02*
X132555555Y-107649657D01*
X132555555Y-107649657D02*
X132580952Y-107675053D01*
X132580952Y-107675053D02*
X132606348Y-107725847D01*
X132606348Y-107725847D02*
X132606348Y-107852831D01*
X132606348Y-107852831D02*
X132580952Y-107903625D01*
X132580952Y-107903625D02*
X132555555Y-107929022D01*
X132555555Y-107929022D02*
X132504761Y-107954418D01*
X132504761Y-107954418D02*
X132352380Y-107954418D01*
X132352380Y-107954418D02*
X132301587Y-107929022D01*
X132301587Y-107929022D02*
X132276190Y-107903625D01*
D13*
X133000000Y-107710000D02*
G75*
G02*
X131400000Y-107710000I-800000J0D01*
G01*
X131400000Y-107710000D02*
G75*
G02*
X133000000Y-107710000I800000J0D01*
G01*
D16*
X131793651Y-110011879D02*
X131819048Y-109986482D01*
X131819048Y-109986482D02*
X131869841Y-109961085D01*
X131869841Y-109961085D02*
X131996825Y-109961085D01*
X131996825Y-109961085D02*
X132047619Y-109986482D01*
X132047619Y-109986482D02*
X132073016Y-110011879D01*
X132073016Y-110011879D02*
X132098412Y-110062673D01*
X132098412Y-110062673D02*
X132098412Y-110113466D01*
X132098412Y-110113466D02*
X132073016Y-110189657D01*
X132073016Y-110189657D02*
X131768254Y-110494418D01*
X131768254Y-110494418D02*
X132098412Y-110494418D01*
X132555555Y-110138863D02*
X132555555Y-110494418D01*
X132428571Y-109935689D02*
X132301587Y-110316641D01*
X132301587Y-110316641D02*
X132631745Y-110316641D01*
D13*
X133000000Y-110250000D02*
G75*
G02*
X131400000Y-110250000I-800000J0D01*
G01*
X131400000Y-110250000D02*
G75*
G02*
X133000000Y-110250000I800000J0D01*
G01*
D16*
X131793651Y-112551879D02*
X131819048Y-112526482D01*
X131819048Y-112526482D02*
X131869841Y-112501085D01*
X131869841Y-112501085D02*
X131996825Y-112501085D01*
X131996825Y-112501085D02*
X132047619Y-112526482D01*
X132047619Y-112526482D02*
X132073016Y-112551879D01*
X132073016Y-112551879D02*
X132098412Y-112602673D01*
X132098412Y-112602673D02*
X132098412Y-112653466D01*
X132098412Y-112653466D02*
X132073016Y-112729657D01*
X132073016Y-112729657D02*
X131768254Y-113034418D01*
X131768254Y-113034418D02*
X132098412Y-113034418D01*
X132580952Y-112501085D02*
X132326984Y-112501085D01*
X132326984Y-112501085D02*
X132301587Y-112755053D01*
X132301587Y-112755053D02*
X132326984Y-112729657D01*
X132326984Y-112729657D02*
X132377777Y-112704260D01*
X132377777Y-112704260D02*
X132504761Y-112704260D01*
X132504761Y-112704260D02*
X132555555Y-112729657D01*
X132555555Y-112729657D02*
X132580952Y-112755053D01*
X132580952Y-112755053D02*
X132606348Y-112805847D01*
X132606348Y-112805847D02*
X132606348Y-112932831D01*
X132606348Y-112932831D02*
X132580952Y-112983625D01*
X132580952Y-112983625D02*
X132555555Y-113009022D01*
X132555555Y-113009022D02*
X132504761Y-113034418D01*
X132504761Y-113034418D02*
X132377777Y-113034418D01*
X132377777Y-113034418D02*
X132326984Y-113009022D01*
X132326984Y-113009022D02*
X132301587Y-112983625D01*
D13*
X133000000Y-112790000D02*
G75*
G02*
X131400000Y-112790000I-800000J0D01*
G01*
X131400000Y-112790000D02*
G75*
G02*
X133000000Y-112790000I800000J0D01*
G01*
D16*
X131793651Y-115091879D02*
X131819048Y-115066482D01*
X131819048Y-115066482D02*
X131869841Y-115041085D01*
X131869841Y-115041085D02*
X131996825Y-115041085D01*
X131996825Y-115041085D02*
X132047619Y-115066482D01*
X132047619Y-115066482D02*
X132073016Y-115091879D01*
X132073016Y-115091879D02*
X132098412Y-115142673D01*
X132098412Y-115142673D02*
X132098412Y-115193466D01*
X132098412Y-115193466D02*
X132073016Y-115269657D01*
X132073016Y-115269657D02*
X131768254Y-115574418D01*
X131768254Y-115574418D02*
X132098412Y-115574418D01*
X132555555Y-115041085D02*
X132453968Y-115041085D01*
X132453968Y-115041085D02*
X132403174Y-115066482D01*
X132403174Y-115066482D02*
X132377777Y-115091879D01*
X132377777Y-115091879D02*
X132326984Y-115168069D01*
X132326984Y-115168069D02*
X132301587Y-115269657D01*
X132301587Y-115269657D02*
X132301587Y-115472831D01*
X132301587Y-115472831D02*
X132326984Y-115523625D01*
X132326984Y-115523625D02*
X132352380Y-115549022D01*
X132352380Y-115549022D02*
X132403174Y-115574418D01*
X132403174Y-115574418D02*
X132504761Y-115574418D01*
X132504761Y-115574418D02*
X132555555Y-115549022D01*
X132555555Y-115549022D02*
X132580952Y-115523625D01*
X132580952Y-115523625D02*
X132606348Y-115472831D01*
X132606348Y-115472831D02*
X132606348Y-115345847D01*
X132606348Y-115345847D02*
X132580952Y-115295053D01*
X132580952Y-115295053D02*
X132555555Y-115269657D01*
X132555555Y-115269657D02*
X132504761Y-115244260D01*
X132504761Y-115244260D02*
X132403174Y-115244260D01*
X132403174Y-115244260D02*
X132352380Y-115269657D01*
X132352380Y-115269657D02*
X132326984Y-115295053D01*
X132326984Y-115295053D02*
X132301587Y-115345847D01*
D13*
X133000000Y-115330000D02*
G75*
G02*
X131400000Y-115330000I-800000J0D01*
G01*
X131400000Y-115330000D02*
G75*
G02*
X133000000Y-115330000I800000J0D01*
G01*
D16*
X131793651Y-117631879D02*
X131819048Y-117606482D01*
X131819048Y-117606482D02*
X131869841Y-117581085D01*
X131869841Y-117581085D02*
X131996825Y-117581085D01*
X131996825Y-117581085D02*
X132047619Y-117606482D01*
X132047619Y-117606482D02*
X132073016Y-117631879D01*
X132073016Y-117631879D02*
X132098412Y-117682673D01*
X132098412Y-117682673D02*
X132098412Y-117733466D01*
X132098412Y-117733466D02*
X132073016Y-117809657D01*
X132073016Y-117809657D02*
X131768254Y-118114418D01*
X131768254Y-118114418D02*
X132098412Y-118114418D01*
X132276190Y-117581085D02*
X132631745Y-117581085D01*
X132631745Y-117581085D02*
X132403174Y-118114418D01*
D13*
X133000000Y-117870000D02*
G75*
G02*
X131400000Y-117870000I-800000J0D01*
G01*
X131400000Y-117870000D02*
G75*
G02*
X133000000Y-117870000I800000J0D01*
G01*
D16*
X131793651Y-120171879D02*
X131819048Y-120146482D01*
X131819048Y-120146482D02*
X131869841Y-120121085D01*
X131869841Y-120121085D02*
X131996825Y-120121085D01*
X131996825Y-120121085D02*
X132047619Y-120146482D01*
X132047619Y-120146482D02*
X132073016Y-120171879D01*
X132073016Y-120171879D02*
X132098412Y-120222673D01*
X132098412Y-120222673D02*
X132098412Y-120273466D01*
X132098412Y-120273466D02*
X132073016Y-120349657D01*
X132073016Y-120349657D02*
X131768254Y-120654418D01*
X131768254Y-120654418D02*
X132098412Y-120654418D01*
X132403174Y-120349657D02*
X132352380Y-120324260D01*
X132352380Y-120324260D02*
X132326984Y-120298863D01*
X132326984Y-120298863D02*
X132301587Y-120248069D01*
X132301587Y-120248069D02*
X132301587Y-120222673D01*
X132301587Y-120222673D02*
X132326984Y-120171879D01*
X132326984Y-120171879D02*
X132352380Y-120146482D01*
X132352380Y-120146482D02*
X132403174Y-120121085D01*
X132403174Y-120121085D02*
X132504761Y-120121085D01*
X132504761Y-120121085D02*
X132555555Y-120146482D01*
X132555555Y-120146482D02*
X132580952Y-120171879D01*
X132580952Y-120171879D02*
X132606348Y-120222673D01*
X132606348Y-120222673D02*
X132606348Y-120248069D01*
X132606348Y-120248069D02*
X132580952Y-120298863D01*
X132580952Y-120298863D02*
X132555555Y-120324260D01*
X132555555Y-120324260D02*
X132504761Y-120349657D01*
X132504761Y-120349657D02*
X132403174Y-120349657D01*
X132403174Y-120349657D02*
X132352380Y-120375053D01*
X132352380Y-120375053D02*
X132326984Y-120400450D01*
X132326984Y-120400450D02*
X132301587Y-120451244D01*
X132301587Y-120451244D02*
X132301587Y-120552831D01*
X132301587Y-120552831D02*
X132326984Y-120603625D01*
X132326984Y-120603625D02*
X132352380Y-120629022D01*
X132352380Y-120629022D02*
X132403174Y-120654418D01*
X132403174Y-120654418D02*
X132504761Y-120654418D01*
X132504761Y-120654418D02*
X132555555Y-120629022D01*
X132555555Y-120629022D02*
X132580952Y-120603625D01*
X132580952Y-120603625D02*
X132606348Y-120552831D01*
X132606348Y-120552831D02*
X132606348Y-120451244D01*
X132606348Y-120451244D02*
X132580952Y-120400450D01*
X132580952Y-120400450D02*
X132555555Y-120375053D01*
X132555555Y-120375053D02*
X132504761Y-120349657D01*
D13*
X133000000Y-120410000D02*
G75*
G02*
X131400000Y-120410000I-800000J0D01*
G01*
X131400000Y-120410000D02*
G75*
G02*
X133000000Y-120410000I800000J0D01*
G01*
D16*
X131793651Y-122711879D02*
X131819048Y-122686482D01*
X131819048Y-122686482D02*
X131869841Y-122661085D01*
X131869841Y-122661085D02*
X131996825Y-122661085D01*
X131996825Y-122661085D02*
X132047619Y-122686482D01*
X132047619Y-122686482D02*
X132073016Y-122711879D01*
X132073016Y-122711879D02*
X132098412Y-122762673D01*
X132098412Y-122762673D02*
X132098412Y-122813466D01*
X132098412Y-122813466D02*
X132073016Y-122889657D01*
X132073016Y-122889657D02*
X131768254Y-123194418D01*
X131768254Y-123194418D02*
X132098412Y-123194418D01*
X132352380Y-123194418D02*
X132453968Y-123194418D01*
X132453968Y-123194418D02*
X132504761Y-123169022D01*
X132504761Y-123169022D02*
X132530158Y-123143625D01*
X132530158Y-123143625D02*
X132580952Y-123067434D01*
X132580952Y-123067434D02*
X132606348Y-122965847D01*
X132606348Y-122965847D02*
X132606348Y-122762673D01*
X132606348Y-122762673D02*
X132580952Y-122711879D01*
X132580952Y-122711879D02*
X132555555Y-122686482D01*
X132555555Y-122686482D02*
X132504761Y-122661085D01*
X132504761Y-122661085D02*
X132403174Y-122661085D01*
X132403174Y-122661085D02*
X132352380Y-122686482D01*
X132352380Y-122686482D02*
X132326984Y-122711879D01*
X132326984Y-122711879D02*
X132301587Y-122762673D01*
X132301587Y-122762673D02*
X132301587Y-122889657D01*
X132301587Y-122889657D02*
X132326984Y-122940450D01*
X132326984Y-122940450D02*
X132352380Y-122965847D01*
X132352380Y-122965847D02*
X132403174Y-122991244D01*
X132403174Y-122991244D02*
X132504761Y-122991244D01*
X132504761Y-122991244D02*
X132555555Y-122965847D01*
X132555555Y-122965847D02*
X132580952Y-122940450D01*
X132580952Y-122940450D02*
X132606348Y-122889657D01*
D13*
X133000000Y-122950000D02*
G75*
G02*
X131400000Y-122950000I-800000J0D01*
G01*
X131400000Y-122950000D02*
G75*
G02*
X133000000Y-122950000I800000J0D01*
G01*
D16*
X131768254Y-125201085D02*
X132098412Y-125201085D01*
X132098412Y-125201085D02*
X131920635Y-125404260D01*
X131920635Y-125404260D02*
X131996825Y-125404260D01*
X131996825Y-125404260D02*
X132047619Y-125429657D01*
X132047619Y-125429657D02*
X132073016Y-125455053D01*
X132073016Y-125455053D02*
X132098412Y-125505847D01*
X132098412Y-125505847D02*
X132098412Y-125632831D01*
X132098412Y-125632831D02*
X132073016Y-125683625D01*
X132073016Y-125683625D02*
X132047619Y-125709022D01*
X132047619Y-125709022D02*
X131996825Y-125734418D01*
X131996825Y-125734418D02*
X131844444Y-125734418D01*
X131844444Y-125734418D02*
X131793651Y-125709022D01*
X131793651Y-125709022D02*
X131768254Y-125683625D01*
X132428571Y-125201085D02*
X132479364Y-125201085D01*
X132479364Y-125201085D02*
X132530158Y-125226482D01*
X132530158Y-125226482D02*
X132555555Y-125251879D01*
X132555555Y-125251879D02*
X132580952Y-125302673D01*
X132580952Y-125302673D02*
X132606348Y-125404260D01*
X132606348Y-125404260D02*
X132606348Y-125531244D01*
X132606348Y-125531244D02*
X132580952Y-125632831D01*
X132580952Y-125632831D02*
X132555555Y-125683625D01*
X132555555Y-125683625D02*
X132530158Y-125709022D01*
X132530158Y-125709022D02*
X132479364Y-125734418D01*
X132479364Y-125734418D02*
X132428571Y-125734418D01*
X132428571Y-125734418D02*
X132377777Y-125709022D01*
X132377777Y-125709022D02*
X132352380Y-125683625D01*
X132352380Y-125683625D02*
X132326984Y-125632831D01*
X132326984Y-125632831D02*
X132301587Y-125531244D01*
X132301587Y-125531244D02*
X132301587Y-125404260D01*
X132301587Y-125404260D02*
X132326984Y-125302673D01*
X132326984Y-125302673D02*
X132352380Y-125251879D01*
X132352380Y-125251879D02*
X132377777Y-125226482D01*
X132377777Y-125226482D02*
X132428571Y-125201085D01*
D13*
X133000000Y-125490000D02*
G75*
G02*
X131400000Y-125490000I-800000J0D01*
G01*
X131400000Y-125490000D02*
G75*
G02*
X133000000Y-125490000I800000J0D01*
G01*
D16*
X131768254Y-127741085D02*
X132098412Y-127741085D01*
X132098412Y-127741085D02*
X131920635Y-127944260D01*
X131920635Y-127944260D02*
X131996825Y-127944260D01*
X131996825Y-127944260D02*
X132047619Y-127969657D01*
X132047619Y-127969657D02*
X132073016Y-127995053D01*
X132073016Y-127995053D02*
X132098412Y-128045847D01*
X132098412Y-128045847D02*
X132098412Y-128172831D01*
X132098412Y-128172831D02*
X132073016Y-128223625D01*
X132073016Y-128223625D02*
X132047619Y-128249022D01*
X132047619Y-128249022D02*
X131996825Y-128274418D01*
X131996825Y-128274418D02*
X131844444Y-128274418D01*
X131844444Y-128274418D02*
X131793651Y-128249022D01*
X131793651Y-128249022D02*
X131768254Y-128223625D01*
X132606348Y-128274418D02*
X132301587Y-128274418D01*
X132453968Y-128274418D02*
X132453968Y-127741085D01*
X132453968Y-127741085D02*
X132403174Y-127817276D01*
X132403174Y-127817276D02*
X132352380Y-127868069D01*
X132352380Y-127868069D02*
X132301587Y-127893466D01*
D13*
X133000000Y-128030000D02*
G75*
G02*
X131400000Y-128030000I-800000J0D01*
G01*
X131400000Y-128030000D02*
G75*
G02*
X133000000Y-128030000I800000J0D01*
G01*
D16*
X131768254Y-130281085D02*
X132098412Y-130281085D01*
X132098412Y-130281085D02*
X131920635Y-130484260D01*
X131920635Y-130484260D02*
X131996825Y-130484260D01*
X131996825Y-130484260D02*
X132047619Y-130509657D01*
X132047619Y-130509657D02*
X132073016Y-130535053D01*
X132073016Y-130535053D02*
X132098412Y-130585847D01*
X132098412Y-130585847D02*
X132098412Y-130712831D01*
X132098412Y-130712831D02*
X132073016Y-130763625D01*
X132073016Y-130763625D02*
X132047619Y-130789022D01*
X132047619Y-130789022D02*
X131996825Y-130814418D01*
X131996825Y-130814418D02*
X131844444Y-130814418D01*
X131844444Y-130814418D02*
X131793651Y-130789022D01*
X131793651Y-130789022D02*
X131768254Y-130763625D01*
X132301587Y-130331879D02*
X132326984Y-130306482D01*
X132326984Y-130306482D02*
X132377777Y-130281085D01*
X132377777Y-130281085D02*
X132504761Y-130281085D01*
X132504761Y-130281085D02*
X132555555Y-130306482D01*
X132555555Y-130306482D02*
X132580952Y-130331879D01*
X132580952Y-130331879D02*
X132606348Y-130382673D01*
X132606348Y-130382673D02*
X132606348Y-130433466D01*
X132606348Y-130433466D02*
X132580952Y-130509657D01*
X132580952Y-130509657D02*
X132276190Y-130814418D01*
X132276190Y-130814418D02*
X132606348Y-130814418D01*
D13*
X133000000Y-130570000D02*
G75*
G02*
X131400000Y-130570000I-800000J0D01*
G01*
X131400000Y-130570000D02*
G75*
G02*
X133000000Y-130570000I800000J0D01*
G01*
D16*
X131653968Y-132821085D02*
X131831746Y-133354418D01*
X131831746Y-133354418D02*
X132009523Y-132821085D01*
X132187302Y-133354418D02*
X132187302Y-132998863D01*
X132187302Y-132821085D02*
X132161905Y-132846482D01*
X132161905Y-132846482D02*
X132187302Y-132871879D01*
X132187302Y-132871879D02*
X132212698Y-132846482D01*
X132212698Y-132846482D02*
X132187302Y-132821085D01*
X132187302Y-132821085D02*
X132187302Y-132871879D01*
X132441270Y-132998863D02*
X132441270Y-133354418D01*
X132441270Y-133049657D02*
X132466666Y-133024260D01*
X132466666Y-133024260D02*
X132517460Y-132998863D01*
X132517460Y-132998863D02*
X132593650Y-132998863D01*
X132593650Y-132998863D02*
X132644444Y-133024260D01*
X132644444Y-133024260D02*
X132669841Y-133075053D01*
X132669841Y-133075053D02*
X132669841Y-133354418D01*
D13*
X133000000Y-133110000D02*
G75*
G02*
X131400000Y-133110000I-800000J0D01*
G01*
X131400000Y-133110000D02*
G75*
G02*
X133000000Y-133110000I800000J0D01*
G01*
D17*
X153151904Y-135339695D02*
X152828095Y-135339695D01*
X152989999Y-135339695D02*
X152989999Y-134773029D01*
X152989999Y-134773029D02*
X152936031Y-134853981D01*
X152936031Y-134853981D02*
X152882063Y-134907949D01*
X152882063Y-134907949D02*
X152828095Y-134934933D01*
D13*
X152140000Y-134230000D02*
X152140000Y-135930000D01*
X153840000Y-135930000D01*
X153840000Y-134230000D01*
X152140000Y-134230000D01*
D17*
X155368095Y-134826997D02*
X155395079Y-134800013D01*
X155395079Y-134800013D02*
X155449047Y-134773029D01*
X155449047Y-134773029D02*
X155583968Y-134773029D01*
X155583968Y-134773029D02*
X155637936Y-134800013D01*
X155637936Y-134800013D02*
X155664920Y-134826997D01*
X155664920Y-134826997D02*
X155691904Y-134880965D01*
X155691904Y-134880965D02*
X155691904Y-134934933D01*
X155691904Y-134934933D02*
X155664920Y-135015885D01*
X155664920Y-135015885D02*
X155341111Y-135339695D01*
X155341111Y-135339695D02*
X155691904Y-135339695D01*
D13*
X156380000Y-135080000D02*
G75*
G02*
X154680000Y-135080000I-850000J0D01*
G01*
X154680000Y-135080000D02*
G75*
G02*
X156380000Y-135080000I850000J0D01*
G01*
D17*
X157881111Y-134773029D02*
X158231904Y-134773029D01*
X158231904Y-134773029D02*
X158043015Y-134988901D01*
X158043015Y-134988901D02*
X158123968Y-134988901D01*
X158123968Y-134988901D02*
X158177936Y-135015885D01*
X158177936Y-135015885D02*
X158204920Y-135042870D01*
X158204920Y-135042870D02*
X158231904Y-135096838D01*
X158231904Y-135096838D02*
X158231904Y-135231758D01*
X158231904Y-135231758D02*
X158204920Y-135285726D01*
X158204920Y-135285726D02*
X158177936Y-135312711D01*
X158177936Y-135312711D02*
X158123968Y-135339695D01*
X158123968Y-135339695D02*
X157962063Y-135339695D01*
X157962063Y-135339695D02*
X157908095Y-135312711D01*
X157908095Y-135312711D02*
X157881111Y-135285726D01*
D13*
X158920000Y-135080000D02*
G75*
G02*
X157220000Y-135080000I-850000J0D01*
G01*
X157220000Y-135080000D02*
G75*
G02*
X158920000Y-135080000I850000J0D01*
G01*
D18*
X173337619Y-75656781D02*
X173042381Y-75656781D01*
X173190000Y-75656781D02*
X173190000Y-75140115D01*
X173190000Y-75140115D02*
X173140794Y-75213924D01*
X173140794Y-75213924D02*
X173091587Y-75263130D01*
X173091587Y-75263130D02*
X173042381Y-75287734D01*
D13*
X172415000Y-74645000D02*
X172415000Y-76195000D01*
X173965000Y-76195000D01*
X173965000Y-74645000D01*
X172415000Y-74645000D01*
D18*
X173042381Y-77729321D02*
X173066984Y-77704718D01*
X173066984Y-77704718D02*
X173116191Y-77680115D01*
X173116191Y-77680115D02*
X173239206Y-77680115D01*
X173239206Y-77680115D02*
X173288413Y-77704718D01*
X173288413Y-77704718D02*
X173313016Y-77729321D01*
X173313016Y-77729321D02*
X173337619Y-77778527D01*
X173337619Y-77778527D02*
X173337619Y-77827734D01*
X173337619Y-77827734D02*
X173313016Y-77901543D01*
X173313016Y-77901543D02*
X173017778Y-78196781D01*
X173017778Y-78196781D02*
X173337619Y-78196781D01*
D13*
X173965000Y-77960000D02*
G75*
G02*
X172415000Y-77960000I-775000J0D01*
G01*
X172415000Y-77960000D02*
G75*
G02*
X173965000Y-77960000I775000J0D01*
G01*
D18*
X173017778Y-80220115D02*
X173337619Y-80220115D01*
X173337619Y-80220115D02*
X173165397Y-80416940D01*
X173165397Y-80416940D02*
X173239206Y-80416940D01*
X173239206Y-80416940D02*
X173288413Y-80441543D01*
X173288413Y-80441543D02*
X173313016Y-80466146D01*
X173313016Y-80466146D02*
X173337619Y-80515352D01*
X173337619Y-80515352D02*
X173337619Y-80638368D01*
X173337619Y-80638368D02*
X173313016Y-80687574D01*
X173313016Y-80687574D02*
X173288413Y-80712178D01*
X173288413Y-80712178D02*
X173239206Y-80736781D01*
X173239206Y-80736781D02*
X173091587Y-80736781D01*
X173091587Y-80736781D02*
X173042381Y-80712178D01*
X173042381Y-80712178D02*
X173017778Y-80687574D01*
D13*
X173965000Y-80500000D02*
G75*
G02*
X172415000Y-80500000I-775000J0D01*
G01*
X172415000Y-80500000D02*
G75*
G02*
X173965000Y-80500000I775000J0D01*
G01*
D18*
X173288413Y-82932337D02*
X173288413Y-83276781D01*
X173165397Y-82735512D02*
X173042381Y-83104559D01*
X173042381Y-83104559D02*
X173362222Y-83104559D01*
D13*
X173965000Y-83040000D02*
G75*
G02*
X172415000Y-83040000I-775000J0D01*
G01*
X172415000Y-83040000D02*
G75*
G02*
X173965000Y-83040000I775000J0D01*
G01*
D18*
X173313016Y-85300115D02*
X173066984Y-85300115D01*
X173066984Y-85300115D02*
X173042381Y-85546146D01*
X173042381Y-85546146D02*
X173066984Y-85521543D01*
X173066984Y-85521543D02*
X173116191Y-85496940D01*
X173116191Y-85496940D02*
X173239206Y-85496940D01*
X173239206Y-85496940D02*
X173288413Y-85521543D01*
X173288413Y-85521543D02*
X173313016Y-85546146D01*
X173313016Y-85546146D02*
X173337619Y-85595352D01*
X173337619Y-85595352D02*
X173337619Y-85718368D01*
X173337619Y-85718368D02*
X173313016Y-85767574D01*
X173313016Y-85767574D02*
X173288413Y-85792178D01*
X173288413Y-85792178D02*
X173239206Y-85816781D01*
X173239206Y-85816781D02*
X173116191Y-85816781D01*
X173116191Y-85816781D02*
X173066984Y-85792178D01*
X173066984Y-85792178D02*
X173042381Y-85767574D01*
D13*
X173965000Y-85580000D02*
G75*
G02*
X172415000Y-85580000I-775000J0D01*
G01*
X172415000Y-85580000D02*
G75*
G02*
X173965000Y-85580000I775000J0D01*
G01*
D18*
X180908413Y-85300115D02*
X180810000Y-85300115D01*
X180810000Y-85300115D02*
X180760794Y-85324718D01*
X180760794Y-85324718D02*
X180736191Y-85349321D01*
X180736191Y-85349321D02*
X180686984Y-85423130D01*
X180686984Y-85423130D02*
X180662381Y-85521543D01*
X180662381Y-85521543D02*
X180662381Y-85718368D01*
X180662381Y-85718368D02*
X180686984Y-85767574D01*
X180686984Y-85767574D02*
X180711587Y-85792178D01*
X180711587Y-85792178D02*
X180760794Y-85816781D01*
X180760794Y-85816781D02*
X180859206Y-85816781D01*
X180859206Y-85816781D02*
X180908413Y-85792178D01*
X180908413Y-85792178D02*
X180933016Y-85767574D01*
X180933016Y-85767574D02*
X180957619Y-85718368D01*
X180957619Y-85718368D02*
X180957619Y-85595352D01*
X180957619Y-85595352D02*
X180933016Y-85546146D01*
X180933016Y-85546146D02*
X180908413Y-85521543D01*
X180908413Y-85521543D02*
X180859206Y-85496940D01*
X180859206Y-85496940D02*
X180760794Y-85496940D01*
X180760794Y-85496940D02*
X180711587Y-85521543D01*
X180711587Y-85521543D02*
X180686984Y-85546146D01*
X180686984Y-85546146D02*
X180662381Y-85595352D01*
D13*
X181585000Y-85580000D02*
G75*
G02*
X180035000Y-85580000I-775000J0D01*
G01*
X180035000Y-85580000D02*
G75*
G02*
X181585000Y-85580000I775000J0D01*
G01*
D18*
X180637778Y-82760115D02*
X180982222Y-82760115D01*
X180982222Y-82760115D02*
X180760794Y-83276781D01*
D13*
X181585000Y-83040000D02*
G75*
G02*
X180035000Y-83040000I-775000J0D01*
G01*
X180035000Y-83040000D02*
G75*
G02*
X181585000Y-83040000I775000J0D01*
G01*
D18*
X180760794Y-80441543D02*
X180711587Y-80416940D01*
X180711587Y-80416940D02*
X180686984Y-80392337D01*
X180686984Y-80392337D02*
X180662381Y-80343130D01*
X180662381Y-80343130D02*
X180662381Y-80318527D01*
X180662381Y-80318527D02*
X180686984Y-80269321D01*
X180686984Y-80269321D02*
X180711587Y-80244718D01*
X180711587Y-80244718D02*
X180760794Y-80220115D01*
X180760794Y-80220115D02*
X180859206Y-80220115D01*
X180859206Y-80220115D02*
X180908413Y-80244718D01*
X180908413Y-80244718D02*
X180933016Y-80269321D01*
X180933016Y-80269321D02*
X180957619Y-80318527D01*
X180957619Y-80318527D02*
X180957619Y-80343130D01*
X180957619Y-80343130D02*
X180933016Y-80392337D01*
X180933016Y-80392337D02*
X180908413Y-80416940D01*
X180908413Y-80416940D02*
X180859206Y-80441543D01*
X180859206Y-80441543D02*
X180760794Y-80441543D01*
X180760794Y-80441543D02*
X180711587Y-80466146D01*
X180711587Y-80466146D02*
X180686984Y-80490749D01*
X180686984Y-80490749D02*
X180662381Y-80539956D01*
X180662381Y-80539956D02*
X180662381Y-80638368D01*
X180662381Y-80638368D02*
X180686984Y-80687574D01*
X180686984Y-80687574D02*
X180711587Y-80712178D01*
X180711587Y-80712178D02*
X180760794Y-80736781D01*
X180760794Y-80736781D02*
X180859206Y-80736781D01*
X180859206Y-80736781D02*
X180908413Y-80712178D01*
X180908413Y-80712178D02*
X180933016Y-80687574D01*
X180933016Y-80687574D02*
X180957619Y-80638368D01*
X180957619Y-80638368D02*
X180957619Y-80539956D01*
X180957619Y-80539956D02*
X180933016Y-80490749D01*
X180933016Y-80490749D02*
X180908413Y-80466146D01*
X180908413Y-80466146D02*
X180859206Y-80441543D01*
D13*
X181585000Y-80500000D02*
G75*
G02*
X180035000Y-80500000I-775000J0D01*
G01*
X180035000Y-80500000D02*
G75*
G02*
X181585000Y-80500000I775000J0D01*
G01*
D18*
X180711587Y-78196781D02*
X180810000Y-78196781D01*
X180810000Y-78196781D02*
X180859206Y-78172178D01*
X180859206Y-78172178D02*
X180883809Y-78147574D01*
X180883809Y-78147574D02*
X180933016Y-78073765D01*
X180933016Y-78073765D02*
X180957619Y-77975352D01*
X180957619Y-77975352D02*
X180957619Y-77778527D01*
X180957619Y-77778527D02*
X180933016Y-77729321D01*
X180933016Y-77729321D02*
X180908413Y-77704718D01*
X180908413Y-77704718D02*
X180859206Y-77680115D01*
X180859206Y-77680115D02*
X180760794Y-77680115D01*
X180760794Y-77680115D02*
X180711587Y-77704718D01*
X180711587Y-77704718D02*
X180686984Y-77729321D01*
X180686984Y-77729321D02*
X180662381Y-77778527D01*
X180662381Y-77778527D02*
X180662381Y-77901543D01*
X180662381Y-77901543D02*
X180686984Y-77950749D01*
X180686984Y-77950749D02*
X180711587Y-77975352D01*
X180711587Y-77975352D02*
X180760794Y-77999956D01*
X180760794Y-77999956D02*
X180859206Y-77999956D01*
X180859206Y-77999956D02*
X180908413Y-77975352D01*
X180908413Y-77975352D02*
X180933016Y-77950749D01*
X180933016Y-77950749D02*
X180957619Y-77901543D01*
D13*
X181585000Y-77960000D02*
G75*
G02*
X180035000Y-77960000I-775000J0D01*
G01*
X180035000Y-77960000D02*
G75*
G02*
X181585000Y-77960000I775000J0D01*
G01*
D18*
X180711587Y-75656781D02*
X180416349Y-75656781D01*
X180563968Y-75656781D02*
X180563968Y-75140115D01*
X180563968Y-75140115D02*
X180514762Y-75213924D01*
X180514762Y-75213924D02*
X180465555Y-75263130D01*
X180465555Y-75263130D02*
X180416349Y-75287734D01*
X181031428Y-75140115D02*
X181080634Y-75140115D01*
X181080634Y-75140115D02*
X181129840Y-75164718D01*
X181129840Y-75164718D02*
X181154444Y-75189321D01*
X181154444Y-75189321D02*
X181179047Y-75238527D01*
X181179047Y-75238527D02*
X181203650Y-75336940D01*
X181203650Y-75336940D02*
X181203650Y-75459956D01*
X181203650Y-75459956D02*
X181179047Y-75558368D01*
X181179047Y-75558368D02*
X181154444Y-75607574D01*
X181154444Y-75607574D02*
X181129840Y-75632178D01*
X181129840Y-75632178D02*
X181080634Y-75656781D01*
X181080634Y-75656781D02*
X181031428Y-75656781D01*
X181031428Y-75656781D02*
X180982222Y-75632178D01*
X180982222Y-75632178D02*
X180957618Y-75607574D01*
X180957618Y-75607574D02*
X180933015Y-75558368D01*
X180933015Y-75558368D02*
X180908412Y-75459956D01*
X180908412Y-75459956D02*
X180908412Y-75336940D01*
X180908412Y-75336940D02*
X180933015Y-75238527D01*
X180933015Y-75238527D02*
X180957618Y-75189321D01*
X180957618Y-75189321D02*
X180982222Y-75164718D01*
X180982222Y-75164718D02*
X181031428Y-75140115D01*
D13*
X180035000Y-74645000D02*
X180035000Y-76195000D01*
X181585000Y-76195000D01*
X181585000Y-74645000D01*
X180035000Y-74645000D01*
D18*
X153837619Y-60656781D02*
X153542381Y-60656781D01*
X153690000Y-60656781D02*
X153690000Y-60140115D01*
X153690000Y-60140115D02*
X153640794Y-60213924D01*
X153640794Y-60213924D02*
X153591587Y-60263130D01*
X153591587Y-60263130D02*
X153542381Y-60287734D01*
D13*
X152915000Y-59645000D02*
X152915000Y-61195000D01*
X154465000Y-61195000D01*
X154465000Y-59645000D01*
X152915000Y-59645000D01*
D18*
X153542381Y-62729321D02*
X153566984Y-62704718D01*
X153566984Y-62704718D02*
X153616191Y-62680115D01*
X153616191Y-62680115D02*
X153739206Y-62680115D01*
X153739206Y-62680115D02*
X153788413Y-62704718D01*
X153788413Y-62704718D02*
X153813016Y-62729321D01*
X153813016Y-62729321D02*
X153837619Y-62778527D01*
X153837619Y-62778527D02*
X153837619Y-62827734D01*
X153837619Y-62827734D02*
X153813016Y-62901543D01*
X153813016Y-62901543D02*
X153517778Y-63196781D01*
X153517778Y-63196781D02*
X153837619Y-63196781D01*
D13*
X154465000Y-62960000D02*
G75*
G02*
X152915000Y-62960000I-775000J0D01*
G01*
X152915000Y-62960000D02*
G75*
G02*
X154465000Y-62960000I775000J0D01*
G01*
D18*
X153517778Y-65220115D02*
X153837619Y-65220115D01*
X153837619Y-65220115D02*
X153665397Y-65416940D01*
X153665397Y-65416940D02*
X153739206Y-65416940D01*
X153739206Y-65416940D02*
X153788413Y-65441543D01*
X153788413Y-65441543D02*
X153813016Y-65466146D01*
X153813016Y-65466146D02*
X153837619Y-65515352D01*
X153837619Y-65515352D02*
X153837619Y-65638368D01*
X153837619Y-65638368D02*
X153813016Y-65687574D01*
X153813016Y-65687574D02*
X153788413Y-65712178D01*
X153788413Y-65712178D02*
X153739206Y-65736781D01*
X153739206Y-65736781D02*
X153591587Y-65736781D01*
X153591587Y-65736781D02*
X153542381Y-65712178D01*
X153542381Y-65712178D02*
X153517778Y-65687574D01*
D13*
X154465000Y-65500000D02*
G75*
G02*
X152915000Y-65500000I-775000J0D01*
G01*
X152915000Y-65500000D02*
G75*
G02*
X154465000Y-65500000I775000J0D01*
G01*
D18*
X153788413Y-67932337D02*
X153788413Y-68276781D01*
X153665397Y-67735512D02*
X153542381Y-68104559D01*
X153542381Y-68104559D02*
X153862222Y-68104559D01*
D13*
X154465000Y-68040000D02*
G75*
G02*
X152915000Y-68040000I-775000J0D01*
G01*
X152915000Y-68040000D02*
G75*
G02*
X154465000Y-68040000I775000J0D01*
G01*
D18*
X153813016Y-70300115D02*
X153566984Y-70300115D01*
X153566984Y-70300115D02*
X153542381Y-70546146D01*
X153542381Y-70546146D02*
X153566984Y-70521543D01*
X153566984Y-70521543D02*
X153616191Y-70496940D01*
X153616191Y-70496940D02*
X153739206Y-70496940D01*
X153739206Y-70496940D02*
X153788413Y-70521543D01*
X153788413Y-70521543D02*
X153813016Y-70546146D01*
X153813016Y-70546146D02*
X153837619Y-70595352D01*
X153837619Y-70595352D02*
X153837619Y-70718368D01*
X153837619Y-70718368D02*
X153813016Y-70767574D01*
X153813016Y-70767574D02*
X153788413Y-70792178D01*
X153788413Y-70792178D02*
X153739206Y-70816781D01*
X153739206Y-70816781D02*
X153616191Y-70816781D01*
X153616191Y-70816781D02*
X153566984Y-70792178D01*
X153566984Y-70792178D02*
X153542381Y-70767574D01*
D13*
X154465000Y-70580000D02*
G75*
G02*
X152915000Y-70580000I-775000J0D01*
G01*
X152915000Y-70580000D02*
G75*
G02*
X154465000Y-70580000I775000J0D01*
G01*
D18*
X161408413Y-70300115D02*
X161310000Y-70300115D01*
X161310000Y-70300115D02*
X161260794Y-70324718D01*
X161260794Y-70324718D02*
X161236191Y-70349321D01*
X161236191Y-70349321D02*
X161186984Y-70423130D01*
X161186984Y-70423130D02*
X161162381Y-70521543D01*
X161162381Y-70521543D02*
X161162381Y-70718368D01*
X161162381Y-70718368D02*
X161186984Y-70767574D01*
X161186984Y-70767574D02*
X161211587Y-70792178D01*
X161211587Y-70792178D02*
X161260794Y-70816781D01*
X161260794Y-70816781D02*
X161359206Y-70816781D01*
X161359206Y-70816781D02*
X161408413Y-70792178D01*
X161408413Y-70792178D02*
X161433016Y-70767574D01*
X161433016Y-70767574D02*
X161457619Y-70718368D01*
X161457619Y-70718368D02*
X161457619Y-70595352D01*
X161457619Y-70595352D02*
X161433016Y-70546146D01*
X161433016Y-70546146D02*
X161408413Y-70521543D01*
X161408413Y-70521543D02*
X161359206Y-70496940D01*
X161359206Y-70496940D02*
X161260794Y-70496940D01*
X161260794Y-70496940D02*
X161211587Y-70521543D01*
X161211587Y-70521543D02*
X161186984Y-70546146D01*
X161186984Y-70546146D02*
X161162381Y-70595352D01*
D13*
X162085000Y-70580000D02*
G75*
G02*
X160535000Y-70580000I-775000J0D01*
G01*
X160535000Y-70580000D02*
G75*
G02*
X162085000Y-70580000I775000J0D01*
G01*
D18*
X161137778Y-67760115D02*
X161482222Y-67760115D01*
X161482222Y-67760115D02*
X161260794Y-68276781D01*
D13*
X162085000Y-68040000D02*
G75*
G02*
X160535000Y-68040000I-775000J0D01*
G01*
X160535000Y-68040000D02*
G75*
G02*
X162085000Y-68040000I775000J0D01*
G01*
D18*
X161260794Y-65441543D02*
X161211587Y-65416940D01*
X161211587Y-65416940D02*
X161186984Y-65392337D01*
X161186984Y-65392337D02*
X161162381Y-65343130D01*
X161162381Y-65343130D02*
X161162381Y-65318527D01*
X161162381Y-65318527D02*
X161186984Y-65269321D01*
X161186984Y-65269321D02*
X161211587Y-65244718D01*
X161211587Y-65244718D02*
X161260794Y-65220115D01*
X161260794Y-65220115D02*
X161359206Y-65220115D01*
X161359206Y-65220115D02*
X161408413Y-65244718D01*
X161408413Y-65244718D02*
X161433016Y-65269321D01*
X161433016Y-65269321D02*
X161457619Y-65318527D01*
X161457619Y-65318527D02*
X161457619Y-65343130D01*
X161457619Y-65343130D02*
X161433016Y-65392337D01*
X161433016Y-65392337D02*
X161408413Y-65416940D01*
X161408413Y-65416940D02*
X161359206Y-65441543D01*
X161359206Y-65441543D02*
X161260794Y-65441543D01*
X161260794Y-65441543D02*
X161211587Y-65466146D01*
X161211587Y-65466146D02*
X161186984Y-65490749D01*
X161186984Y-65490749D02*
X161162381Y-65539956D01*
X161162381Y-65539956D02*
X161162381Y-65638368D01*
X161162381Y-65638368D02*
X161186984Y-65687574D01*
X161186984Y-65687574D02*
X161211587Y-65712178D01*
X161211587Y-65712178D02*
X161260794Y-65736781D01*
X161260794Y-65736781D02*
X161359206Y-65736781D01*
X161359206Y-65736781D02*
X161408413Y-65712178D01*
X161408413Y-65712178D02*
X161433016Y-65687574D01*
X161433016Y-65687574D02*
X161457619Y-65638368D01*
X161457619Y-65638368D02*
X161457619Y-65539956D01*
X161457619Y-65539956D02*
X161433016Y-65490749D01*
X161433016Y-65490749D02*
X161408413Y-65466146D01*
X161408413Y-65466146D02*
X161359206Y-65441543D01*
D13*
X162085000Y-65500000D02*
G75*
G02*
X160535000Y-65500000I-775000J0D01*
G01*
X160535000Y-65500000D02*
G75*
G02*
X162085000Y-65500000I775000J0D01*
G01*
D18*
X161211587Y-63196781D02*
X161310000Y-63196781D01*
X161310000Y-63196781D02*
X161359206Y-63172178D01*
X161359206Y-63172178D02*
X161383809Y-63147574D01*
X161383809Y-63147574D02*
X161433016Y-63073765D01*
X161433016Y-63073765D02*
X161457619Y-62975352D01*
X161457619Y-62975352D02*
X161457619Y-62778527D01*
X161457619Y-62778527D02*
X161433016Y-62729321D01*
X161433016Y-62729321D02*
X161408413Y-62704718D01*
X161408413Y-62704718D02*
X161359206Y-62680115D01*
X161359206Y-62680115D02*
X161260794Y-62680115D01*
X161260794Y-62680115D02*
X161211587Y-62704718D01*
X161211587Y-62704718D02*
X161186984Y-62729321D01*
X161186984Y-62729321D02*
X161162381Y-62778527D01*
X161162381Y-62778527D02*
X161162381Y-62901543D01*
X161162381Y-62901543D02*
X161186984Y-62950749D01*
X161186984Y-62950749D02*
X161211587Y-62975352D01*
X161211587Y-62975352D02*
X161260794Y-62999956D01*
X161260794Y-62999956D02*
X161359206Y-62999956D01*
X161359206Y-62999956D02*
X161408413Y-62975352D01*
X161408413Y-62975352D02*
X161433016Y-62950749D01*
X161433016Y-62950749D02*
X161457619Y-62901543D01*
D13*
X162085000Y-62960000D02*
G75*
G02*
X160535000Y-62960000I-775000J0D01*
G01*
X160535000Y-62960000D02*
G75*
G02*
X162085000Y-62960000I775000J0D01*
G01*
D18*
X161211587Y-60656781D02*
X160916349Y-60656781D01*
X161063968Y-60656781D02*
X161063968Y-60140115D01*
X161063968Y-60140115D02*
X161014762Y-60213924D01*
X161014762Y-60213924D02*
X160965555Y-60263130D01*
X160965555Y-60263130D02*
X160916349Y-60287734D01*
X161531428Y-60140115D02*
X161580634Y-60140115D01*
X161580634Y-60140115D02*
X161629840Y-60164718D01*
X161629840Y-60164718D02*
X161654444Y-60189321D01*
X161654444Y-60189321D02*
X161679047Y-60238527D01*
X161679047Y-60238527D02*
X161703650Y-60336940D01*
X161703650Y-60336940D02*
X161703650Y-60459956D01*
X161703650Y-60459956D02*
X161679047Y-60558368D01*
X161679047Y-60558368D02*
X161654444Y-60607574D01*
X161654444Y-60607574D02*
X161629840Y-60632178D01*
X161629840Y-60632178D02*
X161580634Y-60656781D01*
X161580634Y-60656781D02*
X161531428Y-60656781D01*
X161531428Y-60656781D02*
X161482222Y-60632178D01*
X161482222Y-60632178D02*
X161457618Y-60607574D01*
X161457618Y-60607574D02*
X161433015Y-60558368D01*
X161433015Y-60558368D02*
X161408412Y-60459956D01*
X161408412Y-60459956D02*
X161408412Y-60336940D01*
X161408412Y-60336940D02*
X161433015Y-60238527D01*
X161433015Y-60238527D02*
X161457618Y-60189321D01*
X161457618Y-60189321D02*
X161482222Y-60164718D01*
X161482222Y-60164718D02*
X161531428Y-60140115D01*
D13*
X160535000Y-59645000D02*
X160535000Y-61195000D01*
X162085000Y-61195000D01*
X162085000Y-59645000D01*
X160535000Y-59645000D01*
D18*
X134837619Y-50656781D02*
X134542381Y-50656781D01*
X134690000Y-50656781D02*
X134690000Y-50140115D01*
X134690000Y-50140115D02*
X134640794Y-50213924D01*
X134640794Y-50213924D02*
X134591587Y-50263130D01*
X134591587Y-50263130D02*
X134542381Y-50287734D01*
D13*
X133915000Y-49645000D02*
X133915000Y-51195000D01*
X135465000Y-51195000D01*
X135465000Y-49645000D01*
X133915000Y-49645000D01*
D18*
X134542381Y-52729321D02*
X134566984Y-52704718D01*
X134566984Y-52704718D02*
X134616191Y-52680115D01*
X134616191Y-52680115D02*
X134739206Y-52680115D01*
X134739206Y-52680115D02*
X134788413Y-52704718D01*
X134788413Y-52704718D02*
X134813016Y-52729321D01*
X134813016Y-52729321D02*
X134837619Y-52778527D01*
X134837619Y-52778527D02*
X134837619Y-52827734D01*
X134837619Y-52827734D02*
X134813016Y-52901543D01*
X134813016Y-52901543D02*
X134517778Y-53196781D01*
X134517778Y-53196781D02*
X134837619Y-53196781D01*
D13*
X135465000Y-52960000D02*
G75*
G02*
X133915000Y-52960000I-775000J0D01*
G01*
X133915000Y-52960000D02*
G75*
G02*
X135465000Y-52960000I775000J0D01*
G01*
D18*
X134517778Y-55220115D02*
X134837619Y-55220115D01*
X134837619Y-55220115D02*
X134665397Y-55416940D01*
X134665397Y-55416940D02*
X134739206Y-55416940D01*
X134739206Y-55416940D02*
X134788413Y-55441543D01*
X134788413Y-55441543D02*
X134813016Y-55466146D01*
X134813016Y-55466146D02*
X134837619Y-55515352D01*
X134837619Y-55515352D02*
X134837619Y-55638368D01*
X134837619Y-55638368D02*
X134813016Y-55687574D01*
X134813016Y-55687574D02*
X134788413Y-55712178D01*
X134788413Y-55712178D02*
X134739206Y-55736781D01*
X134739206Y-55736781D02*
X134591587Y-55736781D01*
X134591587Y-55736781D02*
X134542381Y-55712178D01*
X134542381Y-55712178D02*
X134517778Y-55687574D01*
D13*
X135465000Y-55500000D02*
G75*
G02*
X133915000Y-55500000I-775000J0D01*
G01*
X133915000Y-55500000D02*
G75*
G02*
X135465000Y-55500000I775000J0D01*
G01*
D18*
X134788413Y-57932337D02*
X134788413Y-58276781D01*
X134665397Y-57735512D02*
X134542381Y-58104559D01*
X134542381Y-58104559D02*
X134862222Y-58104559D01*
D13*
X135465000Y-58040000D02*
G75*
G02*
X133915000Y-58040000I-775000J0D01*
G01*
X133915000Y-58040000D02*
G75*
G02*
X135465000Y-58040000I775000J0D01*
G01*
D18*
X134813016Y-60300115D02*
X134566984Y-60300115D01*
X134566984Y-60300115D02*
X134542381Y-60546146D01*
X134542381Y-60546146D02*
X134566984Y-60521543D01*
X134566984Y-60521543D02*
X134616191Y-60496940D01*
X134616191Y-60496940D02*
X134739206Y-60496940D01*
X134739206Y-60496940D02*
X134788413Y-60521543D01*
X134788413Y-60521543D02*
X134813016Y-60546146D01*
X134813016Y-60546146D02*
X134837619Y-60595352D01*
X134837619Y-60595352D02*
X134837619Y-60718368D01*
X134837619Y-60718368D02*
X134813016Y-60767574D01*
X134813016Y-60767574D02*
X134788413Y-60792178D01*
X134788413Y-60792178D02*
X134739206Y-60816781D01*
X134739206Y-60816781D02*
X134616191Y-60816781D01*
X134616191Y-60816781D02*
X134566984Y-60792178D01*
X134566984Y-60792178D02*
X134542381Y-60767574D01*
D13*
X135465000Y-60580000D02*
G75*
G02*
X133915000Y-60580000I-775000J0D01*
G01*
X133915000Y-60580000D02*
G75*
G02*
X135465000Y-60580000I775000J0D01*
G01*
D18*
X142408413Y-60300115D02*
X142310000Y-60300115D01*
X142310000Y-60300115D02*
X142260794Y-60324718D01*
X142260794Y-60324718D02*
X142236191Y-60349321D01*
X142236191Y-60349321D02*
X142186984Y-60423130D01*
X142186984Y-60423130D02*
X142162381Y-60521543D01*
X142162381Y-60521543D02*
X142162381Y-60718368D01*
X142162381Y-60718368D02*
X142186984Y-60767574D01*
X142186984Y-60767574D02*
X142211587Y-60792178D01*
X142211587Y-60792178D02*
X142260794Y-60816781D01*
X142260794Y-60816781D02*
X142359206Y-60816781D01*
X142359206Y-60816781D02*
X142408413Y-60792178D01*
X142408413Y-60792178D02*
X142433016Y-60767574D01*
X142433016Y-60767574D02*
X142457619Y-60718368D01*
X142457619Y-60718368D02*
X142457619Y-60595352D01*
X142457619Y-60595352D02*
X142433016Y-60546146D01*
X142433016Y-60546146D02*
X142408413Y-60521543D01*
X142408413Y-60521543D02*
X142359206Y-60496940D01*
X142359206Y-60496940D02*
X142260794Y-60496940D01*
X142260794Y-60496940D02*
X142211587Y-60521543D01*
X142211587Y-60521543D02*
X142186984Y-60546146D01*
X142186984Y-60546146D02*
X142162381Y-60595352D01*
D13*
X143085000Y-60580000D02*
G75*
G02*
X141535000Y-60580000I-775000J0D01*
G01*
X141535000Y-60580000D02*
G75*
G02*
X143085000Y-60580000I775000J0D01*
G01*
D18*
X142137778Y-57760115D02*
X142482222Y-57760115D01*
X142482222Y-57760115D02*
X142260794Y-58276781D01*
D13*
X143085000Y-58040000D02*
G75*
G02*
X141535000Y-58040000I-775000J0D01*
G01*
X141535000Y-58040000D02*
G75*
G02*
X143085000Y-58040000I775000J0D01*
G01*
D18*
X142260794Y-55441543D02*
X142211587Y-55416940D01*
X142211587Y-55416940D02*
X142186984Y-55392337D01*
X142186984Y-55392337D02*
X142162381Y-55343130D01*
X142162381Y-55343130D02*
X142162381Y-55318527D01*
X142162381Y-55318527D02*
X142186984Y-55269321D01*
X142186984Y-55269321D02*
X142211587Y-55244718D01*
X142211587Y-55244718D02*
X142260794Y-55220115D01*
X142260794Y-55220115D02*
X142359206Y-55220115D01*
X142359206Y-55220115D02*
X142408413Y-55244718D01*
X142408413Y-55244718D02*
X142433016Y-55269321D01*
X142433016Y-55269321D02*
X142457619Y-55318527D01*
X142457619Y-55318527D02*
X142457619Y-55343130D01*
X142457619Y-55343130D02*
X142433016Y-55392337D01*
X142433016Y-55392337D02*
X142408413Y-55416940D01*
X142408413Y-55416940D02*
X142359206Y-55441543D01*
X142359206Y-55441543D02*
X142260794Y-55441543D01*
X142260794Y-55441543D02*
X142211587Y-55466146D01*
X142211587Y-55466146D02*
X142186984Y-55490749D01*
X142186984Y-55490749D02*
X142162381Y-55539956D01*
X142162381Y-55539956D02*
X142162381Y-55638368D01*
X142162381Y-55638368D02*
X142186984Y-55687574D01*
X142186984Y-55687574D02*
X142211587Y-55712178D01*
X142211587Y-55712178D02*
X142260794Y-55736781D01*
X142260794Y-55736781D02*
X142359206Y-55736781D01*
X142359206Y-55736781D02*
X142408413Y-55712178D01*
X142408413Y-55712178D02*
X142433016Y-55687574D01*
X142433016Y-55687574D02*
X142457619Y-55638368D01*
X142457619Y-55638368D02*
X142457619Y-55539956D01*
X142457619Y-55539956D02*
X142433016Y-55490749D01*
X142433016Y-55490749D02*
X142408413Y-55466146D01*
X142408413Y-55466146D02*
X142359206Y-55441543D01*
D13*
X143085000Y-55500000D02*
G75*
G02*
X141535000Y-55500000I-775000J0D01*
G01*
X141535000Y-55500000D02*
G75*
G02*
X143085000Y-55500000I775000J0D01*
G01*
D18*
X142211587Y-53196781D02*
X142310000Y-53196781D01*
X142310000Y-53196781D02*
X142359206Y-53172178D01*
X142359206Y-53172178D02*
X142383809Y-53147574D01*
X142383809Y-53147574D02*
X142433016Y-53073765D01*
X142433016Y-53073765D02*
X142457619Y-52975352D01*
X142457619Y-52975352D02*
X142457619Y-52778527D01*
X142457619Y-52778527D02*
X142433016Y-52729321D01*
X142433016Y-52729321D02*
X142408413Y-52704718D01*
X142408413Y-52704718D02*
X142359206Y-52680115D01*
X142359206Y-52680115D02*
X142260794Y-52680115D01*
X142260794Y-52680115D02*
X142211587Y-52704718D01*
X142211587Y-52704718D02*
X142186984Y-52729321D01*
X142186984Y-52729321D02*
X142162381Y-52778527D01*
X142162381Y-52778527D02*
X142162381Y-52901543D01*
X142162381Y-52901543D02*
X142186984Y-52950749D01*
X142186984Y-52950749D02*
X142211587Y-52975352D01*
X142211587Y-52975352D02*
X142260794Y-52999956D01*
X142260794Y-52999956D02*
X142359206Y-52999956D01*
X142359206Y-52999956D02*
X142408413Y-52975352D01*
X142408413Y-52975352D02*
X142433016Y-52950749D01*
X142433016Y-52950749D02*
X142457619Y-52901543D01*
D13*
X143085000Y-52960000D02*
G75*
G02*
X141535000Y-52960000I-775000J0D01*
G01*
X141535000Y-52960000D02*
G75*
G02*
X143085000Y-52960000I775000J0D01*
G01*
D18*
X142211587Y-50656781D02*
X141916349Y-50656781D01*
X142063968Y-50656781D02*
X142063968Y-50140115D01*
X142063968Y-50140115D02*
X142014762Y-50213924D01*
X142014762Y-50213924D02*
X141965555Y-50263130D01*
X141965555Y-50263130D02*
X141916349Y-50287734D01*
X142531428Y-50140115D02*
X142580634Y-50140115D01*
X142580634Y-50140115D02*
X142629840Y-50164718D01*
X142629840Y-50164718D02*
X142654444Y-50189321D01*
X142654444Y-50189321D02*
X142679047Y-50238527D01*
X142679047Y-50238527D02*
X142703650Y-50336940D01*
X142703650Y-50336940D02*
X142703650Y-50459956D01*
X142703650Y-50459956D02*
X142679047Y-50558368D01*
X142679047Y-50558368D02*
X142654444Y-50607574D01*
X142654444Y-50607574D02*
X142629840Y-50632178D01*
X142629840Y-50632178D02*
X142580634Y-50656781D01*
X142580634Y-50656781D02*
X142531428Y-50656781D01*
X142531428Y-50656781D02*
X142482222Y-50632178D01*
X142482222Y-50632178D02*
X142457618Y-50607574D01*
X142457618Y-50607574D02*
X142433015Y-50558368D01*
X142433015Y-50558368D02*
X142408412Y-50459956D01*
X142408412Y-50459956D02*
X142408412Y-50336940D01*
X142408412Y-50336940D02*
X142433015Y-50238527D01*
X142433015Y-50238527D02*
X142457618Y-50189321D01*
X142457618Y-50189321D02*
X142482222Y-50164718D01*
X142482222Y-50164718D02*
X142531428Y-50140115D01*
D13*
X141535000Y-49645000D02*
X141535000Y-51195000D01*
X143085000Y-51195000D01*
X143085000Y-49645000D01*
X141535000Y-49645000D01*
D18*
X122457619Y-68816781D02*
X122162381Y-68816781D01*
X122310000Y-68816781D02*
X122310000Y-68300115D01*
X122310000Y-68300115D02*
X122260794Y-68373924D01*
X122260794Y-68373924D02*
X122211587Y-68423130D01*
X122211587Y-68423130D02*
X122162381Y-68447734D01*
D13*
X121535000Y-67805000D02*
X121535000Y-69355000D01*
X123085000Y-69355000D01*
X123085000Y-67805000D01*
X121535000Y-67805000D01*
D18*
X122162381Y-65809321D02*
X122186984Y-65784718D01*
X122186984Y-65784718D02*
X122236191Y-65760115D01*
X122236191Y-65760115D02*
X122359206Y-65760115D01*
X122359206Y-65760115D02*
X122408413Y-65784718D01*
X122408413Y-65784718D02*
X122433016Y-65809321D01*
X122433016Y-65809321D02*
X122457619Y-65858527D01*
X122457619Y-65858527D02*
X122457619Y-65907734D01*
X122457619Y-65907734D02*
X122433016Y-65981543D01*
X122433016Y-65981543D02*
X122137778Y-66276781D01*
X122137778Y-66276781D02*
X122457619Y-66276781D01*
D13*
X123085000Y-66040000D02*
G75*
G02*
X121535000Y-66040000I-775000J0D01*
G01*
X121535000Y-66040000D02*
G75*
G02*
X123085000Y-66040000I775000J0D01*
G01*
D18*
X122137778Y-63220115D02*
X122457619Y-63220115D01*
X122457619Y-63220115D02*
X122285397Y-63416940D01*
X122285397Y-63416940D02*
X122359206Y-63416940D01*
X122359206Y-63416940D02*
X122408413Y-63441543D01*
X122408413Y-63441543D02*
X122433016Y-63466146D01*
X122433016Y-63466146D02*
X122457619Y-63515352D01*
X122457619Y-63515352D02*
X122457619Y-63638368D01*
X122457619Y-63638368D02*
X122433016Y-63687574D01*
X122433016Y-63687574D02*
X122408413Y-63712178D01*
X122408413Y-63712178D02*
X122359206Y-63736781D01*
X122359206Y-63736781D02*
X122211587Y-63736781D01*
X122211587Y-63736781D02*
X122162381Y-63712178D01*
X122162381Y-63712178D02*
X122137778Y-63687574D01*
D13*
X123085000Y-63500000D02*
G75*
G02*
X121535000Y-63500000I-775000J0D01*
G01*
X121535000Y-63500000D02*
G75*
G02*
X123085000Y-63500000I775000J0D01*
G01*
D18*
X122408413Y-60852337D02*
X122408413Y-61196781D01*
X122285397Y-60655512D02*
X122162381Y-61024559D01*
X122162381Y-61024559D02*
X122482222Y-61024559D01*
D13*
X123085000Y-60960000D02*
G75*
G02*
X121535000Y-60960000I-775000J0D01*
G01*
X121535000Y-60960000D02*
G75*
G02*
X123085000Y-60960000I775000J0D01*
G01*
D18*
X122433016Y-58140115D02*
X122186984Y-58140115D01*
X122186984Y-58140115D02*
X122162381Y-58386146D01*
X122162381Y-58386146D02*
X122186984Y-58361543D01*
X122186984Y-58361543D02*
X122236191Y-58336940D01*
X122236191Y-58336940D02*
X122359206Y-58336940D01*
X122359206Y-58336940D02*
X122408413Y-58361543D01*
X122408413Y-58361543D02*
X122433016Y-58386146D01*
X122433016Y-58386146D02*
X122457619Y-58435352D01*
X122457619Y-58435352D02*
X122457619Y-58558368D01*
X122457619Y-58558368D02*
X122433016Y-58607574D01*
X122433016Y-58607574D02*
X122408413Y-58632178D01*
X122408413Y-58632178D02*
X122359206Y-58656781D01*
X122359206Y-58656781D02*
X122236191Y-58656781D01*
X122236191Y-58656781D02*
X122186984Y-58632178D01*
X122186984Y-58632178D02*
X122162381Y-58607574D01*
D13*
X123085000Y-58420000D02*
G75*
G02*
X121535000Y-58420000I-775000J0D01*
G01*
X121535000Y-58420000D02*
G75*
G02*
X123085000Y-58420000I775000J0D01*
G01*
D18*
X114788413Y-58140115D02*
X114690000Y-58140115D01*
X114690000Y-58140115D02*
X114640794Y-58164718D01*
X114640794Y-58164718D02*
X114616191Y-58189321D01*
X114616191Y-58189321D02*
X114566984Y-58263130D01*
X114566984Y-58263130D02*
X114542381Y-58361543D01*
X114542381Y-58361543D02*
X114542381Y-58558368D01*
X114542381Y-58558368D02*
X114566984Y-58607574D01*
X114566984Y-58607574D02*
X114591587Y-58632178D01*
X114591587Y-58632178D02*
X114640794Y-58656781D01*
X114640794Y-58656781D02*
X114739206Y-58656781D01*
X114739206Y-58656781D02*
X114788413Y-58632178D01*
X114788413Y-58632178D02*
X114813016Y-58607574D01*
X114813016Y-58607574D02*
X114837619Y-58558368D01*
X114837619Y-58558368D02*
X114837619Y-58435352D01*
X114837619Y-58435352D02*
X114813016Y-58386146D01*
X114813016Y-58386146D02*
X114788413Y-58361543D01*
X114788413Y-58361543D02*
X114739206Y-58336940D01*
X114739206Y-58336940D02*
X114640794Y-58336940D01*
X114640794Y-58336940D02*
X114591587Y-58361543D01*
X114591587Y-58361543D02*
X114566984Y-58386146D01*
X114566984Y-58386146D02*
X114542381Y-58435352D01*
D13*
X115465000Y-58420000D02*
G75*
G02*
X113915000Y-58420000I-775000J0D01*
G01*
X113915000Y-58420000D02*
G75*
G02*
X115465000Y-58420000I775000J0D01*
G01*
D18*
X114517778Y-60680115D02*
X114862222Y-60680115D01*
X114862222Y-60680115D02*
X114640794Y-61196781D01*
D13*
X115465000Y-60960000D02*
G75*
G02*
X113915000Y-60960000I-775000J0D01*
G01*
X113915000Y-60960000D02*
G75*
G02*
X115465000Y-60960000I775000J0D01*
G01*
D18*
X114640794Y-63441543D02*
X114591587Y-63416940D01*
X114591587Y-63416940D02*
X114566984Y-63392337D01*
X114566984Y-63392337D02*
X114542381Y-63343130D01*
X114542381Y-63343130D02*
X114542381Y-63318527D01*
X114542381Y-63318527D02*
X114566984Y-63269321D01*
X114566984Y-63269321D02*
X114591587Y-63244718D01*
X114591587Y-63244718D02*
X114640794Y-63220115D01*
X114640794Y-63220115D02*
X114739206Y-63220115D01*
X114739206Y-63220115D02*
X114788413Y-63244718D01*
X114788413Y-63244718D02*
X114813016Y-63269321D01*
X114813016Y-63269321D02*
X114837619Y-63318527D01*
X114837619Y-63318527D02*
X114837619Y-63343130D01*
X114837619Y-63343130D02*
X114813016Y-63392337D01*
X114813016Y-63392337D02*
X114788413Y-63416940D01*
X114788413Y-63416940D02*
X114739206Y-63441543D01*
X114739206Y-63441543D02*
X114640794Y-63441543D01*
X114640794Y-63441543D02*
X114591587Y-63466146D01*
X114591587Y-63466146D02*
X114566984Y-63490749D01*
X114566984Y-63490749D02*
X114542381Y-63539956D01*
X114542381Y-63539956D02*
X114542381Y-63638368D01*
X114542381Y-63638368D02*
X114566984Y-63687574D01*
X114566984Y-63687574D02*
X114591587Y-63712178D01*
X114591587Y-63712178D02*
X114640794Y-63736781D01*
X114640794Y-63736781D02*
X114739206Y-63736781D01*
X114739206Y-63736781D02*
X114788413Y-63712178D01*
X114788413Y-63712178D02*
X114813016Y-63687574D01*
X114813016Y-63687574D02*
X114837619Y-63638368D01*
X114837619Y-63638368D02*
X114837619Y-63539956D01*
X114837619Y-63539956D02*
X114813016Y-63490749D01*
X114813016Y-63490749D02*
X114788413Y-63466146D01*
X114788413Y-63466146D02*
X114739206Y-63441543D01*
D13*
X115465000Y-63500000D02*
G75*
G02*
X113915000Y-63500000I-775000J0D01*
G01*
X113915000Y-63500000D02*
G75*
G02*
X115465000Y-63500000I775000J0D01*
G01*
D18*
X114591587Y-66276781D02*
X114690000Y-66276781D01*
X114690000Y-66276781D02*
X114739206Y-66252178D01*
X114739206Y-66252178D02*
X114763809Y-66227574D01*
X114763809Y-66227574D02*
X114813016Y-66153765D01*
X114813016Y-66153765D02*
X114837619Y-66055352D01*
X114837619Y-66055352D02*
X114837619Y-65858527D01*
X114837619Y-65858527D02*
X114813016Y-65809321D01*
X114813016Y-65809321D02*
X114788413Y-65784718D01*
X114788413Y-65784718D02*
X114739206Y-65760115D01*
X114739206Y-65760115D02*
X114640794Y-65760115D01*
X114640794Y-65760115D02*
X114591587Y-65784718D01*
X114591587Y-65784718D02*
X114566984Y-65809321D01*
X114566984Y-65809321D02*
X114542381Y-65858527D01*
X114542381Y-65858527D02*
X114542381Y-65981543D01*
X114542381Y-65981543D02*
X114566984Y-66030749D01*
X114566984Y-66030749D02*
X114591587Y-66055352D01*
X114591587Y-66055352D02*
X114640794Y-66079956D01*
X114640794Y-66079956D02*
X114739206Y-66079956D01*
X114739206Y-66079956D02*
X114788413Y-66055352D01*
X114788413Y-66055352D02*
X114813016Y-66030749D01*
X114813016Y-66030749D02*
X114837619Y-65981543D01*
D13*
X115465000Y-66040000D02*
G75*
G02*
X113915000Y-66040000I-775000J0D01*
G01*
X113915000Y-66040000D02*
G75*
G02*
X115465000Y-66040000I775000J0D01*
G01*
D18*
X114591587Y-68816781D02*
X114296349Y-68816781D01*
X114443968Y-68816781D02*
X114443968Y-68300115D01*
X114443968Y-68300115D02*
X114394762Y-68373924D01*
X114394762Y-68373924D02*
X114345555Y-68423130D01*
X114345555Y-68423130D02*
X114296349Y-68447734D01*
X114911428Y-68300115D02*
X114960634Y-68300115D01*
X114960634Y-68300115D02*
X115009840Y-68324718D01*
X115009840Y-68324718D02*
X115034444Y-68349321D01*
X115034444Y-68349321D02*
X115059047Y-68398527D01*
X115059047Y-68398527D02*
X115083650Y-68496940D01*
X115083650Y-68496940D02*
X115083650Y-68619956D01*
X115083650Y-68619956D02*
X115059047Y-68718368D01*
X115059047Y-68718368D02*
X115034444Y-68767574D01*
X115034444Y-68767574D02*
X115009840Y-68792178D01*
X115009840Y-68792178D02*
X114960634Y-68816781D01*
X114960634Y-68816781D02*
X114911428Y-68816781D01*
X114911428Y-68816781D02*
X114862222Y-68792178D01*
X114862222Y-68792178D02*
X114837618Y-68767574D01*
X114837618Y-68767574D02*
X114813015Y-68718368D01*
X114813015Y-68718368D02*
X114788412Y-68619956D01*
X114788412Y-68619956D02*
X114788412Y-68496940D01*
X114788412Y-68496940D02*
X114813015Y-68398527D01*
X114813015Y-68398527D02*
X114837618Y-68349321D01*
X114837618Y-68349321D02*
X114862222Y-68324718D01*
X114862222Y-68324718D02*
X114911428Y-68300115D01*
D13*
X113915000Y-67805000D02*
X113915000Y-69355000D01*
X115465000Y-69355000D01*
X115465000Y-67805000D01*
X113915000Y-67805000D01*
D18*
X122767619Y-107896781D02*
X122472381Y-107896781D01*
X122620000Y-107896781D02*
X122620000Y-107380115D01*
X122620000Y-107380115D02*
X122570794Y-107453924D01*
X122570794Y-107453924D02*
X122521587Y-107503130D01*
X122521587Y-107503130D02*
X122472381Y-107527734D01*
D13*
X121845000Y-106885000D02*
X121845000Y-108435000D01*
X123395000Y-108435000D01*
X123395000Y-106885000D01*
X121845000Y-106885000D01*
D18*
X122472381Y-104889321D02*
X122496984Y-104864718D01*
X122496984Y-104864718D02*
X122546191Y-104840115D01*
X122546191Y-104840115D02*
X122669206Y-104840115D01*
X122669206Y-104840115D02*
X122718413Y-104864718D01*
X122718413Y-104864718D02*
X122743016Y-104889321D01*
X122743016Y-104889321D02*
X122767619Y-104938527D01*
X122767619Y-104938527D02*
X122767619Y-104987734D01*
X122767619Y-104987734D02*
X122743016Y-105061543D01*
X122743016Y-105061543D02*
X122447778Y-105356781D01*
X122447778Y-105356781D02*
X122767619Y-105356781D01*
D13*
X123395000Y-105120000D02*
G75*
G02*
X121845000Y-105120000I-775000J0D01*
G01*
X121845000Y-105120000D02*
G75*
G02*
X123395000Y-105120000I775000J0D01*
G01*
D18*
X122447778Y-102300115D02*
X122767619Y-102300115D01*
X122767619Y-102300115D02*
X122595397Y-102496940D01*
X122595397Y-102496940D02*
X122669206Y-102496940D01*
X122669206Y-102496940D02*
X122718413Y-102521543D01*
X122718413Y-102521543D02*
X122743016Y-102546146D01*
X122743016Y-102546146D02*
X122767619Y-102595352D01*
X122767619Y-102595352D02*
X122767619Y-102718368D01*
X122767619Y-102718368D02*
X122743016Y-102767574D01*
X122743016Y-102767574D02*
X122718413Y-102792178D01*
X122718413Y-102792178D02*
X122669206Y-102816781D01*
X122669206Y-102816781D02*
X122521587Y-102816781D01*
X122521587Y-102816781D02*
X122472381Y-102792178D01*
X122472381Y-102792178D02*
X122447778Y-102767574D01*
D13*
X123395000Y-102580000D02*
G75*
G02*
X121845000Y-102580000I-775000J0D01*
G01*
X121845000Y-102580000D02*
G75*
G02*
X123395000Y-102580000I775000J0D01*
G01*
D18*
X122718413Y-99932337D02*
X122718413Y-100276781D01*
X122595397Y-99735512D02*
X122472381Y-100104559D01*
X122472381Y-100104559D02*
X122792222Y-100104559D01*
D13*
X123395000Y-100040000D02*
G75*
G02*
X121845000Y-100040000I-775000J0D01*
G01*
X121845000Y-100040000D02*
G75*
G02*
X123395000Y-100040000I775000J0D01*
G01*
D18*
X122743016Y-97220115D02*
X122496984Y-97220115D01*
X122496984Y-97220115D02*
X122472381Y-97466146D01*
X122472381Y-97466146D02*
X122496984Y-97441543D01*
X122496984Y-97441543D02*
X122546191Y-97416940D01*
X122546191Y-97416940D02*
X122669206Y-97416940D01*
X122669206Y-97416940D02*
X122718413Y-97441543D01*
X122718413Y-97441543D02*
X122743016Y-97466146D01*
X122743016Y-97466146D02*
X122767619Y-97515352D01*
X122767619Y-97515352D02*
X122767619Y-97638368D01*
X122767619Y-97638368D02*
X122743016Y-97687574D01*
X122743016Y-97687574D02*
X122718413Y-97712178D01*
X122718413Y-97712178D02*
X122669206Y-97736781D01*
X122669206Y-97736781D02*
X122546191Y-97736781D01*
X122546191Y-97736781D02*
X122496984Y-97712178D01*
X122496984Y-97712178D02*
X122472381Y-97687574D01*
D13*
X123395000Y-97500000D02*
G75*
G02*
X121845000Y-97500000I-775000J0D01*
G01*
X121845000Y-97500000D02*
G75*
G02*
X123395000Y-97500000I775000J0D01*
G01*
D18*
X115098413Y-97220115D02*
X115000000Y-97220115D01*
X115000000Y-97220115D02*
X114950794Y-97244718D01*
X114950794Y-97244718D02*
X114926191Y-97269321D01*
X114926191Y-97269321D02*
X114876984Y-97343130D01*
X114876984Y-97343130D02*
X114852381Y-97441543D01*
X114852381Y-97441543D02*
X114852381Y-97638368D01*
X114852381Y-97638368D02*
X114876984Y-97687574D01*
X114876984Y-97687574D02*
X114901587Y-97712178D01*
X114901587Y-97712178D02*
X114950794Y-97736781D01*
X114950794Y-97736781D02*
X115049206Y-97736781D01*
X115049206Y-97736781D02*
X115098413Y-97712178D01*
X115098413Y-97712178D02*
X115123016Y-97687574D01*
X115123016Y-97687574D02*
X115147619Y-97638368D01*
X115147619Y-97638368D02*
X115147619Y-97515352D01*
X115147619Y-97515352D02*
X115123016Y-97466146D01*
X115123016Y-97466146D02*
X115098413Y-97441543D01*
X115098413Y-97441543D02*
X115049206Y-97416940D01*
X115049206Y-97416940D02*
X114950794Y-97416940D01*
X114950794Y-97416940D02*
X114901587Y-97441543D01*
X114901587Y-97441543D02*
X114876984Y-97466146D01*
X114876984Y-97466146D02*
X114852381Y-97515352D01*
D13*
X115775000Y-97500000D02*
G75*
G02*
X114225000Y-97500000I-775000J0D01*
G01*
X114225000Y-97500000D02*
G75*
G02*
X115775000Y-97500000I775000J0D01*
G01*
D18*
X114827778Y-99760115D02*
X115172222Y-99760115D01*
X115172222Y-99760115D02*
X114950794Y-100276781D01*
D13*
X115775000Y-100040000D02*
G75*
G02*
X114225000Y-100040000I-775000J0D01*
G01*
X114225000Y-100040000D02*
G75*
G02*
X115775000Y-100040000I775000J0D01*
G01*
D18*
X114950794Y-102521543D02*
X114901587Y-102496940D01*
X114901587Y-102496940D02*
X114876984Y-102472337D01*
X114876984Y-102472337D02*
X114852381Y-102423130D01*
X114852381Y-102423130D02*
X114852381Y-102398527D01*
X114852381Y-102398527D02*
X114876984Y-102349321D01*
X114876984Y-102349321D02*
X114901587Y-102324718D01*
X114901587Y-102324718D02*
X114950794Y-102300115D01*
X114950794Y-102300115D02*
X115049206Y-102300115D01*
X115049206Y-102300115D02*
X115098413Y-102324718D01*
X115098413Y-102324718D02*
X115123016Y-102349321D01*
X115123016Y-102349321D02*
X115147619Y-102398527D01*
X115147619Y-102398527D02*
X115147619Y-102423130D01*
X115147619Y-102423130D02*
X115123016Y-102472337D01*
X115123016Y-102472337D02*
X115098413Y-102496940D01*
X115098413Y-102496940D02*
X115049206Y-102521543D01*
X115049206Y-102521543D02*
X114950794Y-102521543D01*
X114950794Y-102521543D02*
X114901587Y-102546146D01*
X114901587Y-102546146D02*
X114876984Y-102570749D01*
X114876984Y-102570749D02*
X114852381Y-102619956D01*
X114852381Y-102619956D02*
X114852381Y-102718368D01*
X114852381Y-102718368D02*
X114876984Y-102767574D01*
X114876984Y-102767574D02*
X114901587Y-102792178D01*
X114901587Y-102792178D02*
X114950794Y-102816781D01*
X114950794Y-102816781D02*
X115049206Y-102816781D01*
X115049206Y-102816781D02*
X115098413Y-102792178D01*
X115098413Y-102792178D02*
X115123016Y-102767574D01*
X115123016Y-102767574D02*
X115147619Y-102718368D01*
X115147619Y-102718368D02*
X115147619Y-102619956D01*
X115147619Y-102619956D02*
X115123016Y-102570749D01*
X115123016Y-102570749D02*
X115098413Y-102546146D01*
X115098413Y-102546146D02*
X115049206Y-102521543D01*
D13*
X115775000Y-102580000D02*
G75*
G02*
X114225000Y-102580000I-775000J0D01*
G01*
X114225000Y-102580000D02*
G75*
G02*
X115775000Y-102580000I775000J0D01*
G01*
D18*
X114901587Y-105356781D02*
X115000000Y-105356781D01*
X115000000Y-105356781D02*
X115049206Y-105332178D01*
X115049206Y-105332178D02*
X115073809Y-105307574D01*
X115073809Y-105307574D02*
X115123016Y-105233765D01*
X115123016Y-105233765D02*
X115147619Y-105135352D01*
X115147619Y-105135352D02*
X115147619Y-104938527D01*
X115147619Y-104938527D02*
X115123016Y-104889321D01*
X115123016Y-104889321D02*
X115098413Y-104864718D01*
X115098413Y-104864718D02*
X115049206Y-104840115D01*
X115049206Y-104840115D02*
X114950794Y-104840115D01*
X114950794Y-104840115D02*
X114901587Y-104864718D01*
X114901587Y-104864718D02*
X114876984Y-104889321D01*
X114876984Y-104889321D02*
X114852381Y-104938527D01*
X114852381Y-104938527D02*
X114852381Y-105061543D01*
X114852381Y-105061543D02*
X114876984Y-105110749D01*
X114876984Y-105110749D02*
X114901587Y-105135352D01*
X114901587Y-105135352D02*
X114950794Y-105159956D01*
X114950794Y-105159956D02*
X115049206Y-105159956D01*
X115049206Y-105159956D02*
X115098413Y-105135352D01*
X115098413Y-105135352D02*
X115123016Y-105110749D01*
X115123016Y-105110749D02*
X115147619Y-105061543D01*
D13*
X115775000Y-105120000D02*
G75*
G02*
X114225000Y-105120000I-775000J0D01*
G01*
X114225000Y-105120000D02*
G75*
G02*
X115775000Y-105120000I775000J0D01*
G01*
D18*
X114901587Y-107896781D02*
X114606349Y-107896781D01*
X114753968Y-107896781D02*
X114753968Y-107380115D01*
X114753968Y-107380115D02*
X114704762Y-107453924D01*
X114704762Y-107453924D02*
X114655555Y-107503130D01*
X114655555Y-107503130D02*
X114606349Y-107527734D01*
X115221428Y-107380115D02*
X115270634Y-107380115D01*
X115270634Y-107380115D02*
X115319840Y-107404718D01*
X115319840Y-107404718D02*
X115344444Y-107429321D01*
X115344444Y-107429321D02*
X115369047Y-107478527D01*
X115369047Y-107478527D02*
X115393650Y-107576940D01*
X115393650Y-107576940D02*
X115393650Y-107699956D01*
X115393650Y-107699956D02*
X115369047Y-107798368D01*
X115369047Y-107798368D02*
X115344444Y-107847574D01*
X115344444Y-107847574D02*
X115319840Y-107872178D01*
X115319840Y-107872178D02*
X115270634Y-107896781D01*
X115270634Y-107896781D02*
X115221428Y-107896781D01*
X115221428Y-107896781D02*
X115172222Y-107872178D01*
X115172222Y-107872178D02*
X115147618Y-107847574D01*
X115147618Y-107847574D02*
X115123015Y-107798368D01*
X115123015Y-107798368D02*
X115098412Y-107699956D01*
X115098412Y-107699956D02*
X115098412Y-107576940D01*
X115098412Y-107576940D02*
X115123015Y-107478527D01*
X115123015Y-107478527D02*
X115147618Y-107429321D01*
X115147618Y-107429321D02*
X115172222Y-107404718D01*
X115172222Y-107404718D02*
X115221428Y-107380115D01*
D13*
X114225000Y-106885000D02*
X114225000Y-108435000D01*
X115775000Y-108435000D01*
X115775000Y-106885000D01*
X114225000Y-106885000D01*
D17*
X174321904Y-132349695D02*
X173998095Y-132349695D01*
X174159999Y-132349695D02*
X174159999Y-131783029D01*
X174159999Y-131783029D02*
X174106031Y-131863981D01*
X174106031Y-131863981D02*
X174052063Y-131917949D01*
X174052063Y-131917949D02*
X173998095Y-131944933D01*
D13*
X173310000Y-131240000D02*
X173310000Y-132940000D01*
X175010000Y-132940000D01*
X175010000Y-131240000D01*
X173310000Y-131240000D01*
D17*
X176538095Y-131836997D02*
X176565079Y-131810013D01*
X176565079Y-131810013D02*
X176619047Y-131783029D01*
X176619047Y-131783029D02*
X176753968Y-131783029D01*
X176753968Y-131783029D02*
X176807936Y-131810013D01*
X176807936Y-131810013D02*
X176834920Y-131836997D01*
X176834920Y-131836997D02*
X176861904Y-131890965D01*
X176861904Y-131890965D02*
X176861904Y-131944933D01*
X176861904Y-131944933D02*
X176834920Y-132025885D01*
X176834920Y-132025885D02*
X176511111Y-132349695D01*
X176511111Y-132349695D02*
X176861904Y-132349695D01*
D13*
X177550000Y-132090000D02*
G75*
G02*
X175850000Y-132090000I-850000J0D01*
G01*
X175850000Y-132090000D02*
G75*
G02*
X177550000Y-132090000I850000J0D01*
G01*
D17*
X179051111Y-131783029D02*
X179401904Y-131783029D01*
X179401904Y-131783029D02*
X179213015Y-131998901D01*
X179213015Y-131998901D02*
X179293968Y-131998901D01*
X179293968Y-131998901D02*
X179347936Y-132025885D01*
X179347936Y-132025885D02*
X179374920Y-132052870D01*
X179374920Y-132052870D02*
X179401904Y-132106838D01*
X179401904Y-132106838D02*
X179401904Y-132241758D01*
X179401904Y-132241758D02*
X179374920Y-132295726D01*
X179374920Y-132295726D02*
X179347936Y-132322711D01*
X179347936Y-132322711D02*
X179293968Y-132349695D01*
X179293968Y-132349695D02*
X179132063Y-132349695D01*
X179132063Y-132349695D02*
X179078095Y-132322711D01*
X179078095Y-132322711D02*
X179051111Y-132295726D01*
D13*
X180090000Y-132090000D02*
G75*
G02*
X178390000Y-132090000I-850000J0D01*
G01*
X178390000Y-132090000D02*
G75*
G02*
X180090000Y-132090000I850000J0D01*
G01*
D19*
X149920476Y-63090123D02*
X149739524Y-63090123D01*
X149830000Y-63090123D02*
X149830000Y-62773457D01*
X149830000Y-62773457D02*
X149799841Y-62818695D01*
X149799841Y-62818695D02*
X149769683Y-62848854D01*
X149769683Y-62848854D02*
X149739524Y-62863933D01*
D13*
D20*
D13*
X150080000Y-62495000D02*
X150166104Y-62512127D01*
X150239099Y-62560901D01*
X150287873Y-62633896D01*
X150305000Y-62720000D01*
X150305000Y-63170000D01*
X150287873Y-63256104D01*
X150239099Y-63329099D01*
X150166104Y-63377873D01*
X150080000Y-63395000D01*
X149580000Y-63395000D01*
X149493896Y-63377873D01*
X149420901Y-63329099D01*
X149372127Y-63256104D01*
X149355000Y-63170000D01*
X149355000Y-62720000D01*
X149372127Y-62633896D01*
X149420901Y-62560901D01*
X149493896Y-62512127D01*
X149580000Y-62495000D01*
X150080000Y-62495000D01*
D19*
X149739524Y-64353616D02*
X149754603Y-64338536D01*
X149754603Y-64338536D02*
X149784762Y-64323457D01*
X149784762Y-64323457D02*
X149860159Y-64323457D01*
X149860159Y-64323457D02*
X149890317Y-64338536D01*
X149890317Y-64338536D02*
X149905397Y-64353616D01*
X149905397Y-64353616D02*
X149920476Y-64383774D01*
X149920476Y-64383774D02*
X149920476Y-64413933D01*
X149920476Y-64413933D02*
X149905397Y-64459171D01*
X149905397Y-64459171D02*
X149724445Y-64640123D01*
X149724445Y-64640123D02*
X149920476Y-64640123D01*
D13*
D20*
D13*
X150080000Y-64045000D02*
X150166104Y-64062127D01*
X150239099Y-64110901D01*
X150287873Y-64183896D01*
X150305000Y-64270000D01*
X150305000Y-64720000D01*
X150287873Y-64806104D01*
X150239099Y-64879099D01*
X150166104Y-64927873D01*
X150080000Y-64945000D01*
X149580000Y-64945000D01*
X149493896Y-64927873D01*
X149420901Y-64879099D01*
X149372127Y-64806104D01*
X149355000Y-64720000D01*
X149355000Y-64270000D01*
X149372127Y-64183896D01*
X149420901Y-64110901D01*
X149493896Y-64062127D01*
X149580000Y-64045000D01*
X150080000Y-64045000D01*
D21*
X179118572Y-110744348D02*
X178801429Y-110744348D01*
X178960000Y-110744348D02*
X178960000Y-110189348D01*
X178960000Y-110189348D02*
X178907143Y-110268634D01*
X178907143Y-110268634D02*
X178854286Y-110321491D01*
X178854286Y-110321491D02*
X178801429Y-110347920D01*
D13*
X178127500Y-109657500D02*
X178127500Y-111322500D01*
X179792500Y-111322500D01*
X179792500Y-109657500D01*
X178127500Y-109657500D01*
D21*
X176261429Y-110242205D02*
X176287857Y-110215777D01*
X176287857Y-110215777D02*
X176340715Y-110189348D01*
X176340715Y-110189348D02*
X176472857Y-110189348D01*
X176472857Y-110189348D02*
X176525715Y-110215777D01*
X176525715Y-110215777D02*
X176552143Y-110242205D01*
X176552143Y-110242205D02*
X176578572Y-110295062D01*
X176578572Y-110295062D02*
X176578572Y-110347920D01*
X176578572Y-110347920D02*
X176552143Y-110427205D01*
X176552143Y-110427205D02*
X176235000Y-110744348D01*
X176235000Y-110744348D02*
X176578572Y-110744348D01*
D13*
X177252500Y-110490000D02*
G75*
G02*
X175587500Y-110490000I-832500J0D01*
G01*
X175587500Y-110490000D02*
G75*
G02*
X177252500Y-110490000I832500J0D01*
G01*
D21*
X173695000Y-110189348D02*
X174038572Y-110189348D01*
X174038572Y-110189348D02*
X173853572Y-110400777D01*
X173853572Y-110400777D02*
X173932857Y-110400777D01*
X173932857Y-110400777D02*
X173985715Y-110427205D01*
X173985715Y-110427205D02*
X174012143Y-110453634D01*
X174012143Y-110453634D02*
X174038572Y-110506491D01*
X174038572Y-110506491D02*
X174038572Y-110638634D01*
X174038572Y-110638634D02*
X174012143Y-110691491D01*
X174012143Y-110691491D02*
X173985715Y-110717920D01*
X173985715Y-110717920D02*
X173932857Y-110744348D01*
X173932857Y-110744348D02*
X173774286Y-110744348D01*
X173774286Y-110744348D02*
X173721429Y-110717920D01*
X173721429Y-110717920D02*
X173695000Y-110691491D01*
D13*
X174712500Y-110490000D02*
G75*
G02*
X173047500Y-110490000I-832500J0D01*
G01*
X173047500Y-110490000D02*
G75*
G02*
X174712500Y-110490000I832500J0D01*
G01*
D19*
X170390476Y-78070123D02*
X170209524Y-78070123D01*
X170300000Y-78070123D02*
X170300000Y-77753457D01*
X170300000Y-77753457D02*
X170269841Y-77798695D01*
X170269841Y-77798695D02*
X170239683Y-77828854D01*
X170239683Y-77828854D02*
X170209524Y-77843933D01*
D13*
D20*
D13*
X170050000Y-78375000D02*
X169963896Y-78357873D01*
X169890901Y-78309099D01*
X169842127Y-78236104D01*
X169825000Y-78150000D01*
X169825000Y-77700000D01*
X169842127Y-77613896D01*
X169890901Y-77540901D01*
X169963896Y-77492127D01*
X170050000Y-77475000D01*
X170550000Y-77475000D01*
X170636104Y-77492127D01*
X170709099Y-77540901D01*
X170757873Y-77613896D01*
X170775000Y-77700000D01*
X170775000Y-78150000D01*
X170757873Y-78236104D01*
X170709099Y-78309099D01*
X170636104Y-78357873D01*
X170550000Y-78375000D01*
X170050000Y-78375000D01*
D19*
X170209524Y-76233616D02*
X170224603Y-76218536D01*
X170224603Y-76218536D02*
X170254762Y-76203457D01*
X170254762Y-76203457D02*
X170330159Y-76203457D01*
X170330159Y-76203457D02*
X170360317Y-76218536D01*
X170360317Y-76218536D02*
X170375397Y-76233616D01*
X170375397Y-76233616D02*
X170390476Y-76263774D01*
X170390476Y-76263774D02*
X170390476Y-76293933D01*
X170390476Y-76293933D02*
X170375397Y-76339171D01*
X170375397Y-76339171D02*
X170194445Y-76520123D01*
X170194445Y-76520123D02*
X170390476Y-76520123D01*
D13*
D20*
D13*
X170050000Y-76825000D02*
X169963896Y-76807873D01*
X169890901Y-76759099D01*
X169842127Y-76686104D01*
X169825000Y-76600000D01*
X169825000Y-76150000D01*
X169842127Y-76063896D01*
X169890901Y-75990901D01*
X169963896Y-75942127D01*
X170050000Y-75925000D01*
X170550000Y-75925000D01*
X170636104Y-75942127D01*
X170709099Y-75990901D01*
X170757873Y-76063896D01*
X170775000Y-76150000D01*
X170775000Y-76600000D01*
X170757873Y-76686104D01*
X170709099Y-76759099D01*
X170636104Y-76807873D01*
X170550000Y-76825000D01*
X170050000Y-76825000D01*
D17*
X124411904Y-133369695D02*
X124088095Y-133369695D01*
X124249999Y-133369695D02*
X124249999Y-132803029D01*
X124249999Y-132803029D02*
X124196031Y-132883981D01*
X124196031Y-132883981D02*
X124142063Y-132937949D01*
X124142063Y-132937949D02*
X124088095Y-132964933D01*
D13*
X123400000Y-132260000D02*
X123400000Y-133960000D01*
X125100000Y-133960000D01*
X125100000Y-132260000D01*
X123400000Y-132260000D01*
D17*
X126628095Y-132856997D02*
X126655079Y-132830013D01*
X126655079Y-132830013D02*
X126709047Y-132803029D01*
X126709047Y-132803029D02*
X126843968Y-132803029D01*
X126843968Y-132803029D02*
X126897936Y-132830013D01*
X126897936Y-132830013D02*
X126924920Y-132856997D01*
X126924920Y-132856997D02*
X126951904Y-132910965D01*
X126951904Y-132910965D02*
X126951904Y-132964933D01*
X126951904Y-132964933D02*
X126924920Y-133045885D01*
X126924920Y-133045885D02*
X126601111Y-133369695D01*
X126601111Y-133369695D02*
X126951904Y-133369695D01*
D13*
X127640000Y-133110000D02*
G75*
G02*
X125940000Y-133110000I-850000J0D01*
G01*
X125940000Y-133110000D02*
G75*
G02*
X127640000Y-133110000I850000J0D01*
G01*
D22*
X179080952Y-121567257D02*
X178839047Y-121567257D01*
X178960000Y-121567257D02*
X178960000Y-121143924D01*
X178960000Y-121143924D02*
X178919682Y-121204400D01*
X178919682Y-121204400D02*
X178879365Y-121244718D01*
X178879365Y-121244718D02*
X178839047Y-121264877D01*
D13*
X178325000Y-120738250D02*
X178325000Y-122008250D01*
X179595000Y-122008250D01*
X179595000Y-120738250D01*
X178325000Y-120738250D01*
D22*
X178839047Y-116104242D02*
X178859206Y-116084083D01*
X178859206Y-116084083D02*
X178899524Y-116063924D01*
X178899524Y-116063924D02*
X179000317Y-116063924D01*
X179000317Y-116063924D02*
X179040635Y-116084083D01*
X179040635Y-116084083D02*
X179060793Y-116104242D01*
X179060793Y-116104242D02*
X179080952Y-116144559D01*
X179080952Y-116144559D02*
X179080952Y-116184877D01*
X179080952Y-116184877D02*
X179060793Y-116245353D01*
X179060793Y-116245353D02*
X178818889Y-116487257D01*
X178818889Y-116487257D02*
X179080952Y-116487257D01*
D13*
X179595000Y-116293250D02*
G75*
G02*
X178325000Y-116293250I-635000J0D01*
G01*
X178325000Y-116293250D02*
G75*
G02*
X179595000Y-116293250I635000J0D01*
G01*
D17*
X155501904Y-119359695D02*
X155178095Y-119359695D01*
X155339999Y-119359695D02*
X155339999Y-118793029D01*
X155339999Y-118793029D02*
X155286031Y-118873981D01*
X155286031Y-118873981D02*
X155232063Y-118927949D01*
X155232063Y-118927949D02*
X155178095Y-118954933D01*
D13*
X154490000Y-118250000D02*
X154490000Y-119950000D01*
X156190000Y-119950000D01*
X156190000Y-118250000D01*
X154490000Y-118250000D01*
D17*
X157718095Y-118846997D02*
X157745079Y-118820013D01*
X157745079Y-118820013D02*
X157799047Y-118793029D01*
X157799047Y-118793029D02*
X157933968Y-118793029D01*
X157933968Y-118793029D02*
X157987936Y-118820013D01*
X157987936Y-118820013D02*
X158014920Y-118846997D01*
X158014920Y-118846997D02*
X158041904Y-118900965D01*
X158041904Y-118900965D02*
X158041904Y-118954933D01*
X158041904Y-118954933D02*
X158014920Y-119035885D01*
X158014920Y-119035885D02*
X157691111Y-119359695D01*
X157691111Y-119359695D02*
X158041904Y-119359695D01*
D13*
X158730000Y-119100000D02*
G75*
G02*
X157030000Y-119100000I-850000J0D01*
G01*
X157030000Y-119100000D02*
G75*
G02*
X158730000Y-119100000I850000J0D01*
G01*
D17*
X160231111Y-118793029D02*
X160581904Y-118793029D01*
X160581904Y-118793029D02*
X160393015Y-119008901D01*
X160393015Y-119008901D02*
X160473968Y-119008901D01*
X160473968Y-119008901D02*
X160527936Y-119035885D01*
X160527936Y-119035885D02*
X160554920Y-119062870D01*
X160554920Y-119062870D02*
X160581904Y-119116838D01*
X160581904Y-119116838D02*
X160581904Y-119251758D01*
X160581904Y-119251758D02*
X160554920Y-119305726D01*
X160554920Y-119305726D02*
X160527936Y-119332711D01*
X160527936Y-119332711D02*
X160473968Y-119359695D01*
X160473968Y-119359695D02*
X160312063Y-119359695D01*
X160312063Y-119359695D02*
X160258095Y-119332711D01*
X160258095Y-119332711D02*
X160231111Y-119305726D01*
D13*
X161270000Y-119100000D02*
G75*
G02*
X159570000Y-119100000I-850000J0D01*
G01*
X159570000Y-119100000D02*
G75*
G02*
X161270000Y-119100000I850000J0D01*
G01*
D17*
X163067936Y-118981917D02*
X163067936Y-119359695D01*
X162933015Y-118766045D02*
X162798095Y-119170806D01*
X162798095Y-119170806D02*
X163148888Y-119170806D01*
D13*
X163810000Y-119100000D02*
G75*
G02*
X162110000Y-119100000I-850000J0D01*
G01*
X162110000Y-119100000D02*
G75*
G02*
X163810000Y-119100000I850000J0D01*
G01*
D17*
X165481904Y-123669695D02*
X165158095Y-123669695D01*
X165319999Y-123669695D02*
X165319999Y-123103029D01*
X165319999Y-123103029D02*
X165266031Y-123183981D01*
X165266031Y-123183981D02*
X165212063Y-123237949D01*
X165212063Y-123237949D02*
X165158095Y-123264933D01*
D13*
X164470000Y-122560000D02*
X164470000Y-124260000D01*
X166170000Y-124260000D01*
X166170000Y-122560000D01*
X164470000Y-122560000D01*
D17*
X162618095Y-123156997D02*
X162645079Y-123130013D01*
X162645079Y-123130013D02*
X162699047Y-123103029D01*
X162699047Y-123103029D02*
X162833968Y-123103029D01*
X162833968Y-123103029D02*
X162887936Y-123130013D01*
X162887936Y-123130013D02*
X162914920Y-123156997D01*
X162914920Y-123156997D02*
X162941904Y-123210965D01*
X162941904Y-123210965D02*
X162941904Y-123264933D01*
X162941904Y-123264933D02*
X162914920Y-123345885D01*
X162914920Y-123345885D02*
X162591111Y-123669695D01*
X162591111Y-123669695D02*
X162941904Y-123669695D01*
D13*
X163630000Y-123410000D02*
G75*
G02*
X161930000Y-123410000I-850000J0D01*
G01*
X161930000Y-123410000D02*
G75*
G02*
X163630000Y-123410000I850000J0D01*
G01*
D17*
X160051111Y-123103029D02*
X160401904Y-123103029D01*
X160401904Y-123103029D02*
X160213015Y-123318901D01*
X160213015Y-123318901D02*
X160293968Y-123318901D01*
X160293968Y-123318901D02*
X160347936Y-123345885D01*
X160347936Y-123345885D02*
X160374920Y-123372870D01*
X160374920Y-123372870D02*
X160401904Y-123426838D01*
X160401904Y-123426838D02*
X160401904Y-123561758D01*
X160401904Y-123561758D02*
X160374920Y-123615726D01*
X160374920Y-123615726D02*
X160347936Y-123642711D01*
X160347936Y-123642711D02*
X160293968Y-123669695D01*
X160293968Y-123669695D02*
X160132063Y-123669695D01*
X160132063Y-123669695D02*
X160078095Y-123642711D01*
X160078095Y-123642711D02*
X160051111Y-123615726D01*
D13*
X161090000Y-123410000D02*
G75*
G02*
X159390000Y-123410000I-850000J0D01*
G01*
X159390000Y-123410000D02*
G75*
G02*
X161090000Y-123410000I850000J0D01*
G01*
D17*
X157807936Y-123291917D02*
X157807936Y-123669695D01*
X157673015Y-123076045D02*
X157538095Y-123480806D01*
X157538095Y-123480806D02*
X157888888Y-123480806D01*
D13*
X158550000Y-123410000D02*
G75*
G02*
X156850000Y-123410000I-850000J0D01*
G01*
X156850000Y-123410000D02*
G75*
G02*
X158550000Y-123410000I850000J0D01*
G01*
D17*
X155294920Y-123103029D02*
X155025079Y-123103029D01*
X155025079Y-123103029D02*
X154998095Y-123372870D01*
X154998095Y-123372870D02*
X155025079Y-123345885D01*
X155025079Y-123345885D02*
X155079047Y-123318901D01*
X155079047Y-123318901D02*
X155213968Y-123318901D01*
X155213968Y-123318901D02*
X155267936Y-123345885D01*
X155267936Y-123345885D02*
X155294920Y-123372870D01*
X155294920Y-123372870D02*
X155321904Y-123426838D01*
X155321904Y-123426838D02*
X155321904Y-123561758D01*
X155321904Y-123561758D02*
X155294920Y-123615726D01*
X155294920Y-123615726D02*
X155267936Y-123642711D01*
X155267936Y-123642711D02*
X155213968Y-123669695D01*
X155213968Y-123669695D02*
X155079047Y-123669695D01*
X155079047Y-123669695D02*
X155025079Y-123642711D01*
X155025079Y-123642711D02*
X154998095Y-123615726D01*
D13*
X156010000Y-123410000D02*
G75*
G02*
X154310000Y-123410000I-850000J0D01*
G01*
X154310000Y-123410000D02*
G75*
G02*
X156010000Y-123410000I850000J0D01*
G01*
D17*
X152727936Y-123103029D02*
X152619999Y-123103029D01*
X152619999Y-123103029D02*
X152566031Y-123130013D01*
X152566031Y-123130013D02*
X152539047Y-123156997D01*
X152539047Y-123156997D02*
X152485079Y-123237949D01*
X152485079Y-123237949D02*
X152458095Y-123345885D01*
X152458095Y-123345885D02*
X152458095Y-123561758D01*
X152458095Y-123561758D02*
X152485079Y-123615726D01*
X152485079Y-123615726D02*
X152512063Y-123642711D01*
X152512063Y-123642711D02*
X152566031Y-123669695D01*
X152566031Y-123669695D02*
X152673968Y-123669695D01*
X152673968Y-123669695D02*
X152727936Y-123642711D01*
X152727936Y-123642711D02*
X152754920Y-123615726D01*
X152754920Y-123615726D02*
X152781904Y-123561758D01*
X152781904Y-123561758D02*
X152781904Y-123426838D01*
X152781904Y-123426838D02*
X152754920Y-123372870D01*
X152754920Y-123372870D02*
X152727936Y-123345885D01*
X152727936Y-123345885D02*
X152673968Y-123318901D01*
X152673968Y-123318901D02*
X152566031Y-123318901D01*
X152566031Y-123318901D02*
X152512063Y-123345885D01*
X152512063Y-123345885D02*
X152485079Y-123372870D01*
X152485079Y-123372870D02*
X152458095Y-123426838D01*
D13*
X153470000Y-123410000D02*
G75*
G02*
X151770000Y-123410000I-850000J0D01*
G01*
X151770000Y-123410000D02*
G75*
G02*
X153470000Y-123410000I850000J0D01*
G01*
X171033399Y-133940000D02*
G75*
G02*
X169966599Y-133940000I-533400J0D01*
G01*
X169966599Y-133940000D02*
G75*
G02*
X171033399Y-133940000I533400J0D01*
G01*
X162033402Y-133940000D02*
G75*
G02*
X160966602Y-133940000I-533400J0D01*
G01*
X160966602Y-133940000D02*
G75*
G02*
X162033402Y-133940000I533400J0D01*
G01*
D23*
X164649981Y-130240569D02*
X164350020Y-130240569D01*
X164500001Y-130240569D02*
X164500001Y-129715636D01*
X164500001Y-129715636D02*
X164450007Y-129790627D01*
X164450007Y-129790627D02*
X164400013Y-129840620D01*
X164400013Y-129840620D02*
X164350020Y-129865617D01*
D13*
X165287401Y-130000000D02*
G75*
G02*
X163712601Y-130000000I-787400J0D01*
G01*
X163712601Y-130000000D02*
G75*
G02*
X165287401Y-130000000I787400J0D01*
G01*
D23*
X167350019Y-129765630D02*
X167375016Y-129740633D01*
X167375016Y-129740633D02*
X167425009Y-129715636D01*
X167425009Y-129715636D02*
X167549993Y-129715636D01*
X167549993Y-129715636D02*
X167599987Y-129740633D01*
X167599987Y-129740633D02*
X167624984Y-129765630D01*
X167624984Y-129765630D02*
X167649980Y-129815624D01*
X167649980Y-129815624D02*
X167649980Y-129865617D01*
X167649980Y-129865617D02*
X167624984Y-129940608D01*
X167624984Y-129940608D02*
X167325022Y-130240569D01*
X167325022Y-130240569D02*
X167649980Y-130240569D01*
D13*
X168287400Y-130000000D02*
G75*
G02*
X166712600Y-130000000I-787400J0D01*
G01*
X166712600Y-130000000D02*
G75*
G02*
X168287400Y-130000000I787400J0D01*
G01*
D23*
X164325023Y-132715635D02*
X164649981Y-132715635D01*
X164649981Y-132715635D02*
X164475004Y-132915610D01*
X164475004Y-132915610D02*
X164549994Y-132915610D01*
X164549994Y-132915610D02*
X164599988Y-132940607D01*
X164599988Y-132940607D02*
X164624985Y-132965603D01*
X164624985Y-132965603D02*
X164649981Y-133015597D01*
X164649981Y-133015597D02*
X164649981Y-133140581D01*
X164649981Y-133140581D02*
X164624985Y-133190575D01*
X164624985Y-133190575D02*
X164599988Y-133215572D01*
X164599988Y-133215572D02*
X164549994Y-133240568D01*
X164549994Y-133240568D02*
X164400013Y-133240568D01*
X164400013Y-133240568D02*
X164350020Y-133215572D01*
X164350020Y-133215572D02*
X164325023Y-133190575D01*
D13*
X165287401Y-132999999D02*
G75*
G02*
X163712601Y-132999999I-787400J0D01*
G01*
X163712601Y-132999999D02*
G75*
G02*
X165287401Y-132999999I787400J0D01*
G01*
D23*
X167599987Y-132890613D02*
X167599987Y-133240568D01*
X167475003Y-132690639D02*
X167350019Y-133065591D01*
X167350019Y-133065591D02*
X167674977Y-133065591D01*
D13*
X168287400Y-132999999D02*
G75*
G02*
X166712600Y-132999999I-787400J0D01*
G01*
X166712600Y-132999999D02*
G75*
G02*
X168287400Y-132999999I787400J0D01*
G01*
D24*
X169885858Y-130963377D02*
X169414144Y-130963377D01*
X169414144Y-130963377D02*
X169366972Y-131435091D01*
X169366972Y-131435091D02*
X169414144Y-131387920D01*
X169414144Y-131387920D02*
X169508487Y-131340748D01*
X169508487Y-131340748D02*
X169744344Y-131340748D01*
X169744344Y-131340748D02*
X169838687Y-131387920D01*
X169838687Y-131387920D02*
X169885858Y-131435091D01*
X169885858Y-131435091D02*
X169933029Y-131529434D01*
X169933029Y-131529434D02*
X169933029Y-131765291D01*
X169933029Y-131765291D02*
X169885858Y-131859634D01*
X169885858Y-131859634D02*
X169838687Y-131906806D01*
X169838687Y-131906806D02*
X169744344Y-131953977D01*
X169744344Y-131953977D02*
X169508487Y-131953977D01*
X169508487Y-131953977D02*
X169414144Y-131906806D01*
X169414144Y-131906806D02*
X169366972Y-131859634D01*
D13*
X171135901Y-131500000D02*
G75*
G02*
X168164101Y-131500000I-1485900J0D01*
G01*
X168164101Y-131500000D02*
G75*
G02*
X171135901Y-131500000I1485900J0D01*
G01*
D24*
X162538686Y-130963377D02*
X162350000Y-130963377D01*
X162350000Y-130963377D02*
X162255657Y-131010548D01*
X162255657Y-131010548D02*
X162208486Y-131057720D01*
X162208486Y-131057720D02*
X162114143Y-131199234D01*
X162114143Y-131199234D02*
X162066971Y-131387920D01*
X162066971Y-131387920D02*
X162066971Y-131765291D01*
X162066971Y-131765291D02*
X162114143Y-131859634D01*
X162114143Y-131859634D02*
X162161314Y-131906806D01*
X162161314Y-131906806D02*
X162255657Y-131953977D01*
X162255657Y-131953977D02*
X162444343Y-131953977D01*
X162444343Y-131953977D02*
X162538686Y-131906806D01*
X162538686Y-131906806D02*
X162585857Y-131859634D01*
X162585857Y-131859634D02*
X162633028Y-131765291D01*
X162633028Y-131765291D02*
X162633028Y-131529434D01*
X162633028Y-131529434D02*
X162585857Y-131435091D01*
X162585857Y-131435091D02*
X162538686Y-131387920D01*
X162538686Y-131387920D02*
X162444343Y-131340748D01*
X162444343Y-131340748D02*
X162255657Y-131340748D01*
X162255657Y-131340748D02*
X162161314Y-131387920D01*
X162161314Y-131387920D02*
X162114143Y-131435091D01*
X162114143Y-131435091D02*
X162066971Y-131529434D01*
D13*
X163835900Y-131500000D02*
G75*
G02*
X160864100Y-131500000I-1485900J0D01*
G01*
X160864100Y-131500000D02*
G75*
G02*
X163835900Y-131500000I1485900J0D01*
G01*
D19*
X182360476Y-88470123D02*
X182179524Y-88470123D01*
X182270000Y-88470123D02*
X182270000Y-88153457D01*
X182270000Y-88153457D02*
X182239841Y-88198695D01*
X182239841Y-88198695D02*
X182209683Y-88228854D01*
X182209683Y-88228854D02*
X182179524Y-88243933D01*
D13*
D20*
D13*
X182520000Y-87875000D02*
X182606104Y-87892127D01*
X182679099Y-87940901D01*
X182727873Y-88013896D01*
X182745000Y-88100000D01*
X182745000Y-88550000D01*
X182727873Y-88636104D01*
X182679099Y-88709099D01*
X182606104Y-88757873D01*
X182520000Y-88775000D01*
X182020000Y-88775000D01*
X181933896Y-88757873D01*
X181860901Y-88709099D01*
X181812127Y-88636104D01*
X181795000Y-88550000D01*
X181795000Y-88100000D01*
X181812127Y-88013896D01*
X181860901Y-87940901D01*
X181933896Y-87892127D01*
X182020000Y-87875000D01*
X182520000Y-87875000D01*
D19*
X182179524Y-89733616D02*
X182194603Y-89718536D01*
X182194603Y-89718536D02*
X182224762Y-89703457D01*
X182224762Y-89703457D02*
X182300159Y-89703457D01*
X182300159Y-89703457D02*
X182330317Y-89718536D01*
X182330317Y-89718536D02*
X182345397Y-89733616D01*
X182345397Y-89733616D02*
X182360476Y-89763774D01*
X182360476Y-89763774D02*
X182360476Y-89793933D01*
X182360476Y-89793933D02*
X182345397Y-89839171D01*
X182345397Y-89839171D02*
X182164445Y-90020123D01*
X182164445Y-90020123D02*
X182360476Y-90020123D01*
D13*
D20*
D13*
X182520000Y-89425000D02*
X182606104Y-89442127D01*
X182679099Y-89490901D01*
X182727873Y-89563896D01*
X182745000Y-89650000D01*
X182745000Y-90100000D01*
X182727873Y-90186104D01*
X182679099Y-90259099D01*
X182606104Y-90307873D01*
X182520000Y-90325000D01*
X182020000Y-90325000D01*
X181933896Y-90307873D01*
X181860901Y-90259099D01*
X181812127Y-90186104D01*
X181795000Y-90100000D01*
X181795000Y-89650000D01*
X181812127Y-89563896D01*
X181860901Y-89490901D01*
X181933896Y-89442127D01*
X182020000Y-89425000D01*
X182520000Y-89425000D01*
D17*
X114641904Y-78959695D02*
X114318095Y-78959695D01*
X114479999Y-78959695D02*
X114479999Y-78393029D01*
X114479999Y-78393029D02*
X114426031Y-78473981D01*
X114426031Y-78473981D02*
X114372063Y-78527949D01*
X114372063Y-78527949D02*
X114318095Y-78554933D01*
D13*
X113630000Y-77850000D02*
X113630000Y-79550000D01*
X115330000Y-79550000D01*
X115330000Y-77850000D01*
X113630000Y-77850000D01*
D17*
X116858095Y-78446997D02*
X116885079Y-78420013D01*
X116885079Y-78420013D02*
X116939047Y-78393029D01*
X116939047Y-78393029D02*
X117073968Y-78393029D01*
X117073968Y-78393029D02*
X117127936Y-78420013D01*
X117127936Y-78420013D02*
X117154920Y-78446997D01*
X117154920Y-78446997D02*
X117181904Y-78500965D01*
X117181904Y-78500965D02*
X117181904Y-78554933D01*
X117181904Y-78554933D02*
X117154920Y-78635885D01*
X117154920Y-78635885D02*
X116831111Y-78959695D01*
X116831111Y-78959695D02*
X117181904Y-78959695D01*
D13*
X117870000Y-78700000D02*
G75*
G02*
X116170000Y-78700000I-850000J0D01*
G01*
X116170000Y-78700000D02*
G75*
G02*
X117870000Y-78700000I850000J0D01*
G01*
D17*
X119371111Y-78393029D02*
X119721904Y-78393029D01*
X119721904Y-78393029D02*
X119533015Y-78608901D01*
X119533015Y-78608901D02*
X119613968Y-78608901D01*
X119613968Y-78608901D02*
X119667936Y-78635885D01*
X119667936Y-78635885D02*
X119694920Y-78662870D01*
X119694920Y-78662870D02*
X119721904Y-78716838D01*
X119721904Y-78716838D02*
X119721904Y-78851758D01*
X119721904Y-78851758D02*
X119694920Y-78905726D01*
X119694920Y-78905726D02*
X119667936Y-78932711D01*
X119667936Y-78932711D02*
X119613968Y-78959695D01*
X119613968Y-78959695D02*
X119452063Y-78959695D01*
X119452063Y-78959695D02*
X119398095Y-78932711D01*
X119398095Y-78932711D02*
X119371111Y-78905726D01*
D13*
X120410000Y-78700000D02*
G75*
G02*
X118710000Y-78700000I-850000J0D01*
G01*
X118710000Y-78700000D02*
G75*
G02*
X120410000Y-78700000I850000J0D01*
G01*
D17*
X122207936Y-78581917D02*
X122207936Y-78959695D01*
X122073015Y-78366045D02*
X121938095Y-78770806D01*
X121938095Y-78770806D02*
X122288888Y-78770806D01*
D13*
X122950000Y-78700000D02*
G75*
G02*
X121250000Y-78700000I-850000J0D01*
G01*
X121250000Y-78700000D02*
G75*
G02*
X122950000Y-78700000I850000J0D01*
G01*
D17*
X124774920Y-78393029D02*
X124505079Y-78393029D01*
X124505079Y-78393029D02*
X124478095Y-78662870D01*
X124478095Y-78662870D02*
X124505079Y-78635885D01*
X124505079Y-78635885D02*
X124559047Y-78608901D01*
X124559047Y-78608901D02*
X124693968Y-78608901D01*
X124693968Y-78608901D02*
X124747936Y-78635885D01*
X124747936Y-78635885D02*
X124774920Y-78662870D01*
X124774920Y-78662870D02*
X124801904Y-78716838D01*
X124801904Y-78716838D02*
X124801904Y-78851758D01*
X124801904Y-78851758D02*
X124774920Y-78905726D01*
X124774920Y-78905726D02*
X124747936Y-78932711D01*
X124747936Y-78932711D02*
X124693968Y-78959695D01*
X124693968Y-78959695D02*
X124559047Y-78959695D01*
X124559047Y-78959695D02*
X124505079Y-78932711D01*
X124505079Y-78932711D02*
X124478095Y-78905726D01*
D13*
X125490000Y-78700000D02*
G75*
G02*
X123790000Y-78700000I-850000J0D01*
G01*
X123790000Y-78700000D02*
G75*
G02*
X125490000Y-78700000I850000J0D01*
G01*
D17*
X127287936Y-78393029D02*
X127179999Y-78393029D01*
X127179999Y-78393029D02*
X127126031Y-78420013D01*
X127126031Y-78420013D02*
X127099047Y-78446997D01*
X127099047Y-78446997D02*
X127045079Y-78527949D01*
X127045079Y-78527949D02*
X127018095Y-78635885D01*
X127018095Y-78635885D02*
X127018095Y-78851758D01*
X127018095Y-78851758D02*
X127045079Y-78905726D01*
X127045079Y-78905726D02*
X127072063Y-78932711D01*
X127072063Y-78932711D02*
X127126031Y-78959695D01*
X127126031Y-78959695D02*
X127233968Y-78959695D01*
X127233968Y-78959695D02*
X127287936Y-78932711D01*
X127287936Y-78932711D02*
X127314920Y-78905726D01*
X127314920Y-78905726D02*
X127341904Y-78851758D01*
X127341904Y-78851758D02*
X127341904Y-78716838D01*
X127341904Y-78716838D02*
X127314920Y-78662870D01*
X127314920Y-78662870D02*
X127287936Y-78635885D01*
X127287936Y-78635885D02*
X127233968Y-78608901D01*
X127233968Y-78608901D02*
X127126031Y-78608901D01*
X127126031Y-78608901D02*
X127072063Y-78635885D01*
X127072063Y-78635885D02*
X127045079Y-78662870D01*
X127045079Y-78662870D02*
X127018095Y-78716838D01*
D13*
X128030000Y-78700000D02*
G75*
G02*
X126330000Y-78700000I-850000J0D01*
G01*
X126330000Y-78700000D02*
G75*
G02*
X128030000Y-78700000I850000J0D01*
G01*
D17*
X124411904Y-117309695D02*
X124088095Y-117309695D01*
X124249999Y-117309695D02*
X124249999Y-116743029D01*
X124249999Y-116743029D02*
X124196031Y-116823981D01*
X124196031Y-116823981D02*
X124142063Y-116877949D01*
X124142063Y-116877949D02*
X124088095Y-116904933D01*
D13*
X123400000Y-116200000D02*
X123400000Y-117900000D01*
X125100000Y-117900000D01*
X125100000Y-116200000D01*
X123400000Y-116200000D01*
D17*
X124088095Y-119336997D02*
X124115079Y-119310013D01*
X124115079Y-119310013D02*
X124169047Y-119283029D01*
X124169047Y-119283029D02*
X124303968Y-119283029D01*
X124303968Y-119283029D02*
X124357936Y-119310013D01*
X124357936Y-119310013D02*
X124384920Y-119336997D01*
X124384920Y-119336997D02*
X124411904Y-119390965D01*
X124411904Y-119390965D02*
X124411904Y-119444933D01*
X124411904Y-119444933D02*
X124384920Y-119525885D01*
X124384920Y-119525885D02*
X124061111Y-119849695D01*
X124061111Y-119849695D02*
X124411904Y-119849695D01*
D13*
X125100000Y-119590000D02*
G75*
G02*
X123400000Y-119590000I-850000J0D01*
G01*
X123400000Y-119590000D02*
G75*
G02*
X125100000Y-119590000I850000J0D01*
G01*
D17*
X124061111Y-121823029D02*
X124411904Y-121823029D01*
X124411904Y-121823029D02*
X124223015Y-122038901D01*
X124223015Y-122038901D02*
X124303968Y-122038901D01*
X124303968Y-122038901D02*
X124357936Y-122065885D01*
X124357936Y-122065885D02*
X124384920Y-122092870D01*
X124384920Y-122092870D02*
X124411904Y-122146838D01*
X124411904Y-122146838D02*
X124411904Y-122281758D01*
X124411904Y-122281758D02*
X124384920Y-122335726D01*
X124384920Y-122335726D02*
X124357936Y-122362711D01*
X124357936Y-122362711D02*
X124303968Y-122389695D01*
X124303968Y-122389695D02*
X124142063Y-122389695D01*
X124142063Y-122389695D02*
X124088095Y-122362711D01*
X124088095Y-122362711D02*
X124061111Y-122335726D01*
D13*
X125100000Y-122130000D02*
G75*
G02*
X123400000Y-122130000I-850000J0D01*
G01*
X123400000Y-122130000D02*
G75*
G02*
X125100000Y-122130000I850000J0D01*
G01*
D17*
X124357936Y-124551917D02*
X124357936Y-124929695D01*
X124223015Y-124336045D02*
X124088095Y-124740806D01*
X124088095Y-124740806D02*
X124438888Y-124740806D01*
D13*
X125100000Y-124670000D02*
G75*
G02*
X123400000Y-124670000I-850000J0D01*
G01*
X123400000Y-124670000D02*
G75*
G02*
X125100000Y-124670000I850000J0D01*
G01*
D17*
X124384920Y-126903029D02*
X124115079Y-126903029D01*
X124115079Y-126903029D02*
X124088095Y-127172870D01*
X124088095Y-127172870D02*
X124115079Y-127145885D01*
X124115079Y-127145885D02*
X124169047Y-127118901D01*
X124169047Y-127118901D02*
X124303968Y-127118901D01*
X124303968Y-127118901D02*
X124357936Y-127145885D01*
X124357936Y-127145885D02*
X124384920Y-127172870D01*
X124384920Y-127172870D02*
X124411904Y-127226838D01*
X124411904Y-127226838D02*
X124411904Y-127361758D01*
X124411904Y-127361758D02*
X124384920Y-127415726D01*
X124384920Y-127415726D02*
X124357936Y-127442711D01*
X124357936Y-127442711D02*
X124303968Y-127469695D01*
X124303968Y-127469695D02*
X124169047Y-127469695D01*
X124169047Y-127469695D02*
X124115079Y-127442711D01*
X124115079Y-127442711D02*
X124088095Y-127415726D01*
D13*
X125100000Y-127210000D02*
G75*
G02*
X123400000Y-127210000I-850000J0D01*
G01*
X123400000Y-127210000D02*
G75*
G02*
X125100000Y-127210000I850000J0D01*
G01*
D17*
X124357936Y-129443029D02*
X124249999Y-129443029D01*
X124249999Y-129443029D02*
X124196031Y-129470013D01*
X124196031Y-129470013D02*
X124169047Y-129496997D01*
X124169047Y-129496997D02*
X124115079Y-129577949D01*
X124115079Y-129577949D02*
X124088095Y-129685885D01*
X124088095Y-129685885D02*
X124088095Y-129901758D01*
X124088095Y-129901758D02*
X124115079Y-129955726D01*
X124115079Y-129955726D02*
X124142063Y-129982711D01*
X124142063Y-129982711D02*
X124196031Y-130009695D01*
X124196031Y-130009695D02*
X124303968Y-130009695D01*
X124303968Y-130009695D02*
X124357936Y-129982711D01*
X124357936Y-129982711D02*
X124384920Y-129955726D01*
X124384920Y-129955726D02*
X124411904Y-129901758D01*
X124411904Y-129901758D02*
X124411904Y-129766838D01*
X124411904Y-129766838D02*
X124384920Y-129712870D01*
X124384920Y-129712870D02*
X124357936Y-129685885D01*
X124357936Y-129685885D02*
X124303968Y-129658901D01*
X124303968Y-129658901D02*
X124196031Y-129658901D01*
X124196031Y-129658901D02*
X124142063Y-129685885D01*
X124142063Y-129685885D02*
X124115079Y-129712870D01*
X124115079Y-129712870D02*
X124088095Y-129766838D01*
D13*
X125100000Y-129750000D02*
G75*
G02*
X123400000Y-129750000I-850000J0D01*
G01*
X123400000Y-129750000D02*
G75*
G02*
X125100000Y-129750000I850000J0D01*
G01*
D17*
X168931904Y-95959695D02*
X168608095Y-95959695D01*
X168769999Y-95959695D02*
X168769999Y-95393029D01*
X168769999Y-95393029D02*
X168716031Y-95473981D01*
X168716031Y-95473981D02*
X168662063Y-95527949D01*
X168662063Y-95527949D02*
X168608095Y-95554933D01*
D13*
X167920000Y-94850000D02*
X167920000Y-96550000D01*
X169620000Y-96550000D01*
X169620000Y-94850000D01*
X167920000Y-94850000D01*
D17*
X171148095Y-95446997D02*
X171175079Y-95420013D01*
X171175079Y-95420013D02*
X171229047Y-95393029D01*
X171229047Y-95393029D02*
X171363968Y-95393029D01*
X171363968Y-95393029D02*
X171417936Y-95420013D01*
X171417936Y-95420013D02*
X171444920Y-95446997D01*
X171444920Y-95446997D02*
X171471904Y-95500965D01*
X171471904Y-95500965D02*
X171471904Y-95554933D01*
X171471904Y-95554933D02*
X171444920Y-95635885D01*
X171444920Y-95635885D02*
X171121111Y-95959695D01*
X171121111Y-95959695D02*
X171471904Y-95959695D01*
D13*
X172160000Y-95700000D02*
G75*
G02*
X170460000Y-95700000I-850000J0D01*
G01*
X170460000Y-95700000D02*
G75*
G02*
X172160000Y-95700000I850000J0D01*
G01*
D17*
X173661111Y-95393029D02*
X174011904Y-95393029D01*
X174011904Y-95393029D02*
X173823015Y-95608901D01*
X173823015Y-95608901D02*
X173903968Y-95608901D01*
X173903968Y-95608901D02*
X173957936Y-95635885D01*
X173957936Y-95635885D02*
X173984920Y-95662870D01*
X173984920Y-95662870D02*
X174011904Y-95716838D01*
X174011904Y-95716838D02*
X174011904Y-95851758D01*
X174011904Y-95851758D02*
X173984920Y-95905726D01*
X173984920Y-95905726D02*
X173957936Y-95932711D01*
X173957936Y-95932711D02*
X173903968Y-95959695D01*
X173903968Y-95959695D02*
X173742063Y-95959695D01*
X173742063Y-95959695D02*
X173688095Y-95932711D01*
X173688095Y-95932711D02*
X173661111Y-95905726D01*
D13*
X174700000Y-95700000D02*
G75*
G02*
X173000000Y-95700000I-850000J0D01*
G01*
X173000000Y-95700000D02*
G75*
G02*
X174700000Y-95700000I850000J0D01*
G01*
D17*
X176497936Y-95581917D02*
X176497936Y-95959695D01*
X176363015Y-95366045D02*
X176228095Y-95770806D01*
X176228095Y-95770806D02*
X176578888Y-95770806D01*
D13*
X177240000Y-95700000D02*
G75*
G02*
X175540000Y-95700000I-850000J0D01*
G01*
X175540000Y-95700000D02*
G75*
G02*
X177240000Y-95700000I850000J0D01*
G01*
D17*
X179064920Y-95393029D02*
X178795079Y-95393029D01*
X178795079Y-95393029D02*
X178768095Y-95662870D01*
X178768095Y-95662870D02*
X178795079Y-95635885D01*
X178795079Y-95635885D02*
X178849047Y-95608901D01*
X178849047Y-95608901D02*
X178983968Y-95608901D01*
X178983968Y-95608901D02*
X179037936Y-95635885D01*
X179037936Y-95635885D02*
X179064920Y-95662870D01*
X179064920Y-95662870D02*
X179091904Y-95716838D01*
X179091904Y-95716838D02*
X179091904Y-95851758D01*
X179091904Y-95851758D02*
X179064920Y-95905726D01*
X179064920Y-95905726D02*
X179037936Y-95932711D01*
X179037936Y-95932711D02*
X178983968Y-95959695D01*
X178983968Y-95959695D02*
X178849047Y-95959695D01*
X178849047Y-95959695D02*
X178795079Y-95932711D01*
X178795079Y-95932711D02*
X178768095Y-95905726D01*
D13*
X179780000Y-95700000D02*
G75*
G02*
X178080000Y-95700000I-850000J0D01*
G01*
X178080000Y-95700000D02*
G75*
G02*
X179780000Y-95700000I850000J0D01*
G01*
D17*
X181577936Y-95393029D02*
X181469999Y-95393029D01*
X181469999Y-95393029D02*
X181416031Y-95420013D01*
X181416031Y-95420013D02*
X181389047Y-95446997D01*
X181389047Y-95446997D02*
X181335079Y-95527949D01*
X181335079Y-95527949D02*
X181308095Y-95635885D01*
X181308095Y-95635885D02*
X181308095Y-95851758D01*
X181308095Y-95851758D02*
X181335079Y-95905726D01*
X181335079Y-95905726D02*
X181362063Y-95932711D01*
X181362063Y-95932711D02*
X181416031Y-95959695D01*
X181416031Y-95959695D02*
X181523968Y-95959695D01*
X181523968Y-95959695D02*
X181577936Y-95932711D01*
X181577936Y-95932711D02*
X181604920Y-95905726D01*
X181604920Y-95905726D02*
X181631904Y-95851758D01*
X181631904Y-95851758D02*
X181631904Y-95716838D01*
X181631904Y-95716838D02*
X181604920Y-95662870D01*
X181604920Y-95662870D02*
X181577936Y-95635885D01*
X181577936Y-95635885D02*
X181523968Y-95608901D01*
X181523968Y-95608901D02*
X181416031Y-95608901D01*
X181416031Y-95608901D02*
X181362063Y-95635885D01*
X181362063Y-95635885D02*
X181335079Y-95662870D01*
X181335079Y-95662870D02*
X181308095Y-95716838D01*
D13*
X182320000Y-95700000D02*
G75*
G02*
X180620000Y-95700000I-850000J0D01*
G01*
X180620000Y-95700000D02*
G75*
G02*
X182320000Y-95700000I850000J0D01*
G01*
D17*
X152161904Y-80969695D02*
X151838095Y-80969695D01*
X151999999Y-80969695D02*
X151999999Y-80403029D01*
X151999999Y-80403029D02*
X151946031Y-80483981D01*
X151946031Y-80483981D02*
X151892063Y-80537949D01*
X151892063Y-80537949D02*
X151838095Y-80564933D01*
D13*
X151150000Y-79860000D02*
X151150000Y-81560000D01*
X152850000Y-81560000D01*
X152850000Y-79860000D01*
X151150000Y-79860000D01*
D17*
X154378095Y-80456997D02*
X154405079Y-80430013D01*
X154405079Y-80430013D02*
X154459047Y-80403029D01*
X154459047Y-80403029D02*
X154593968Y-80403029D01*
X154593968Y-80403029D02*
X154647936Y-80430013D01*
X154647936Y-80430013D02*
X154674920Y-80456997D01*
X154674920Y-80456997D02*
X154701904Y-80510965D01*
X154701904Y-80510965D02*
X154701904Y-80564933D01*
X154701904Y-80564933D02*
X154674920Y-80645885D01*
X154674920Y-80645885D02*
X154351111Y-80969695D01*
X154351111Y-80969695D02*
X154701904Y-80969695D01*
D13*
X155390000Y-80710000D02*
G75*
G02*
X153690000Y-80710000I-850000J0D01*
G01*
X153690000Y-80710000D02*
G75*
G02*
X155390000Y-80710000I850000J0D01*
G01*
D17*
X156891111Y-80403029D02*
X157241904Y-80403029D01*
X157241904Y-80403029D02*
X157053015Y-80618901D01*
X157053015Y-80618901D02*
X157133968Y-80618901D01*
X157133968Y-80618901D02*
X157187936Y-80645885D01*
X157187936Y-80645885D02*
X157214920Y-80672870D01*
X157214920Y-80672870D02*
X157241904Y-80726838D01*
X157241904Y-80726838D02*
X157241904Y-80861758D01*
X157241904Y-80861758D02*
X157214920Y-80915726D01*
X157214920Y-80915726D02*
X157187936Y-80942711D01*
X157187936Y-80942711D02*
X157133968Y-80969695D01*
X157133968Y-80969695D02*
X156972063Y-80969695D01*
X156972063Y-80969695D02*
X156918095Y-80942711D01*
X156918095Y-80942711D02*
X156891111Y-80915726D01*
D13*
X157930000Y-80710000D02*
G75*
G02*
X156230000Y-80710000I-850000J0D01*
G01*
X156230000Y-80710000D02*
G75*
G02*
X157930000Y-80710000I850000J0D01*
G01*
D17*
X159727936Y-80591917D02*
X159727936Y-80969695D01*
X159593015Y-80376045D02*
X159458095Y-80780806D01*
X159458095Y-80780806D02*
X159808888Y-80780806D01*
D13*
X160470000Y-80710000D02*
G75*
G02*
X158770000Y-80710000I-850000J0D01*
G01*
X158770000Y-80710000D02*
G75*
G02*
X160470000Y-80710000I850000J0D01*
G01*
D17*
X162294920Y-80403029D02*
X162025079Y-80403029D01*
X162025079Y-80403029D02*
X161998095Y-80672870D01*
X161998095Y-80672870D02*
X162025079Y-80645885D01*
X162025079Y-80645885D02*
X162079047Y-80618901D01*
X162079047Y-80618901D02*
X162213968Y-80618901D01*
X162213968Y-80618901D02*
X162267936Y-80645885D01*
X162267936Y-80645885D02*
X162294920Y-80672870D01*
X162294920Y-80672870D02*
X162321904Y-80726838D01*
X162321904Y-80726838D02*
X162321904Y-80861758D01*
X162321904Y-80861758D02*
X162294920Y-80915726D01*
X162294920Y-80915726D02*
X162267936Y-80942711D01*
X162267936Y-80942711D02*
X162213968Y-80969695D01*
X162213968Y-80969695D02*
X162079047Y-80969695D01*
X162079047Y-80969695D02*
X162025079Y-80942711D01*
X162025079Y-80942711D02*
X161998095Y-80915726D01*
D13*
X163010000Y-80710000D02*
G75*
G02*
X161310000Y-80710000I-850000J0D01*
G01*
X161310000Y-80710000D02*
G75*
G02*
X163010000Y-80710000I850000J0D01*
G01*
D17*
X164807936Y-80403029D02*
X164699999Y-80403029D01*
X164699999Y-80403029D02*
X164646031Y-80430013D01*
X164646031Y-80430013D02*
X164619047Y-80456997D01*
X164619047Y-80456997D02*
X164565079Y-80537949D01*
X164565079Y-80537949D02*
X164538095Y-80645885D01*
X164538095Y-80645885D02*
X164538095Y-80861758D01*
X164538095Y-80861758D02*
X164565079Y-80915726D01*
X164565079Y-80915726D02*
X164592063Y-80942711D01*
X164592063Y-80942711D02*
X164646031Y-80969695D01*
X164646031Y-80969695D02*
X164753968Y-80969695D01*
X164753968Y-80969695D02*
X164807936Y-80942711D01*
X164807936Y-80942711D02*
X164834920Y-80915726D01*
X164834920Y-80915726D02*
X164861904Y-80861758D01*
X164861904Y-80861758D02*
X164861904Y-80726838D01*
X164861904Y-80726838D02*
X164834920Y-80672870D01*
X164834920Y-80672870D02*
X164807936Y-80645885D01*
X164807936Y-80645885D02*
X164753968Y-80618901D01*
X164753968Y-80618901D02*
X164646031Y-80618901D01*
X164646031Y-80618901D02*
X164592063Y-80645885D01*
X164592063Y-80645885D02*
X164565079Y-80672870D01*
X164565079Y-80672870D02*
X164538095Y-80726838D01*
D13*
X165550000Y-80710000D02*
G75*
G02*
X163850000Y-80710000I-850000J0D01*
G01*
X163850000Y-80710000D02*
G75*
G02*
X165550000Y-80710000I850000J0D01*
G01*
D17*
X132651904Y-70969695D02*
X132328095Y-70969695D01*
X132489999Y-70969695D02*
X132489999Y-70403029D01*
X132489999Y-70403029D02*
X132436031Y-70483981D01*
X132436031Y-70483981D02*
X132382063Y-70537949D01*
X132382063Y-70537949D02*
X132328095Y-70564933D01*
D13*
X131640000Y-69860000D02*
X131640000Y-71560000D01*
X133340000Y-71560000D01*
X133340000Y-69860000D01*
X131640000Y-69860000D01*
D17*
X134868095Y-70456997D02*
X134895079Y-70430013D01*
X134895079Y-70430013D02*
X134949047Y-70403029D01*
X134949047Y-70403029D02*
X135083968Y-70403029D01*
X135083968Y-70403029D02*
X135137936Y-70430013D01*
X135137936Y-70430013D02*
X135164920Y-70456997D01*
X135164920Y-70456997D02*
X135191904Y-70510965D01*
X135191904Y-70510965D02*
X135191904Y-70564933D01*
X135191904Y-70564933D02*
X135164920Y-70645885D01*
X135164920Y-70645885D02*
X134841111Y-70969695D01*
X134841111Y-70969695D02*
X135191904Y-70969695D01*
D13*
X135880000Y-70710000D02*
G75*
G02*
X134180000Y-70710000I-850000J0D01*
G01*
X134180000Y-70710000D02*
G75*
G02*
X135880000Y-70710000I850000J0D01*
G01*
D17*
X137381111Y-70403029D02*
X137731904Y-70403029D01*
X137731904Y-70403029D02*
X137543015Y-70618901D01*
X137543015Y-70618901D02*
X137623968Y-70618901D01*
X137623968Y-70618901D02*
X137677936Y-70645885D01*
X137677936Y-70645885D02*
X137704920Y-70672870D01*
X137704920Y-70672870D02*
X137731904Y-70726838D01*
X137731904Y-70726838D02*
X137731904Y-70861758D01*
X137731904Y-70861758D02*
X137704920Y-70915726D01*
X137704920Y-70915726D02*
X137677936Y-70942711D01*
X137677936Y-70942711D02*
X137623968Y-70969695D01*
X137623968Y-70969695D02*
X137462063Y-70969695D01*
X137462063Y-70969695D02*
X137408095Y-70942711D01*
X137408095Y-70942711D02*
X137381111Y-70915726D01*
D13*
X138420000Y-70710000D02*
G75*
G02*
X136720000Y-70710000I-850000J0D01*
G01*
X136720000Y-70710000D02*
G75*
G02*
X138420000Y-70710000I850000J0D01*
G01*
D17*
X140217936Y-70591917D02*
X140217936Y-70969695D01*
X140083015Y-70376045D02*
X139948095Y-70780806D01*
X139948095Y-70780806D02*
X140298888Y-70780806D01*
D13*
X140960000Y-70710000D02*
G75*
G02*
X139260000Y-70710000I-850000J0D01*
G01*
X139260000Y-70710000D02*
G75*
G02*
X140960000Y-70710000I850000J0D01*
G01*
D17*
X142784920Y-70403029D02*
X142515079Y-70403029D01*
X142515079Y-70403029D02*
X142488095Y-70672870D01*
X142488095Y-70672870D02*
X142515079Y-70645885D01*
X142515079Y-70645885D02*
X142569047Y-70618901D01*
X142569047Y-70618901D02*
X142703968Y-70618901D01*
X142703968Y-70618901D02*
X142757936Y-70645885D01*
X142757936Y-70645885D02*
X142784920Y-70672870D01*
X142784920Y-70672870D02*
X142811904Y-70726838D01*
X142811904Y-70726838D02*
X142811904Y-70861758D01*
X142811904Y-70861758D02*
X142784920Y-70915726D01*
X142784920Y-70915726D02*
X142757936Y-70942711D01*
X142757936Y-70942711D02*
X142703968Y-70969695D01*
X142703968Y-70969695D02*
X142569047Y-70969695D01*
X142569047Y-70969695D02*
X142515079Y-70942711D01*
X142515079Y-70942711D02*
X142488095Y-70915726D01*
D13*
X143500000Y-70710000D02*
G75*
G02*
X141800000Y-70710000I-850000J0D01*
G01*
X141800000Y-70710000D02*
G75*
G02*
X143500000Y-70710000I850000J0D01*
G01*
D17*
X145297936Y-70403029D02*
X145189999Y-70403029D01*
X145189999Y-70403029D02*
X145136031Y-70430013D01*
X145136031Y-70430013D02*
X145109047Y-70456997D01*
X145109047Y-70456997D02*
X145055079Y-70537949D01*
X145055079Y-70537949D02*
X145028095Y-70645885D01*
X145028095Y-70645885D02*
X145028095Y-70861758D01*
X145028095Y-70861758D02*
X145055079Y-70915726D01*
X145055079Y-70915726D02*
X145082063Y-70942711D01*
X145082063Y-70942711D02*
X145136031Y-70969695D01*
X145136031Y-70969695D02*
X145243968Y-70969695D01*
X145243968Y-70969695D02*
X145297936Y-70942711D01*
X145297936Y-70942711D02*
X145324920Y-70915726D01*
X145324920Y-70915726D02*
X145351904Y-70861758D01*
X145351904Y-70861758D02*
X145351904Y-70726838D01*
X145351904Y-70726838D02*
X145324920Y-70672870D01*
X145324920Y-70672870D02*
X145297936Y-70645885D01*
X145297936Y-70645885D02*
X145243968Y-70618901D01*
X145243968Y-70618901D02*
X145136031Y-70618901D01*
X145136031Y-70618901D02*
X145082063Y-70645885D01*
X145082063Y-70645885D02*
X145055079Y-70672870D01*
X145055079Y-70672870D02*
X145028095Y-70726838D01*
D13*
X146040000Y-70710000D02*
G75*
G02*
X144340000Y-70710000I-850000J0D01*
G01*
X144340000Y-70710000D02*
G75*
G02*
X146040000Y-70710000I850000J0D01*
G01*
M02*
