G04 #@! TF.GenerationSoftware,KiCad,Pcbnew,(5.0.2)-1*
G04 #@! TF.CreationDate,2019-03-03T20:13:29+01:00*
G04 #@! TF.ProjectId,DorsalTPMG90,446f7273-616c-4545-904d-4739302e6b69,v01*
G04 #@! TF.SameCoordinates,Original*
G04 #@! TF.FileFunction,Copper,L1,Top*
G04 #@! TF.FilePolarity,Positive*
%FSLAX46Y46*%
G04 Gerber Fmt 4.6, Leading zero omitted, Abs format (unit mm)*
G04 Created by KiCad (PCBNEW (5.0.2)-1) date 03/03/2019 20:13:30*
%MOMM*%
%LPD*%
G01*
G04 APERTURE LIST*
G04 #@! TA.AperFunction,ComponentPad*
%ADD10C,1.550000*%
G04 #@! TD*
G04 #@! TA.AperFunction,ComponentPad*
%ADD11R,1.550000X1.550000*%
G04 #@! TD*
G04 #@! TA.AperFunction,ComponentPad*
%ADD12R,1.600000X1.600000*%
G04 #@! TD*
G04 #@! TA.AperFunction,ComponentPad*
%ADD13C,1.600000*%
G04 #@! TD*
G04 #@! TA.AperFunction,ComponentPad*
%ADD14R,1.700000X1.700000*%
G04 #@! TD*
G04 #@! TA.AperFunction,ComponentPad*
%ADD15O,1.700000X1.700000*%
G04 #@! TD*
G04 #@! TA.AperFunction,ViaPad*
%ADD16C,0.800000*%
G04 #@! TD*
G04 #@! TA.AperFunction,Conductor*
%ADD17C,0.250000*%
G04 #@! TD*
G04 #@! TA.AperFunction,Conductor*
%ADD18C,0.254000*%
G04 #@! TD*
G04 APERTURE END LIST*
D10*
G04 #@! TO.P,U5,9*
G04 #@! TO.N,Vbat*
X114690000Y-66040000D03*
G04 #@! TO.P,U5,8*
G04 #@! TO.N,M24*
X114690000Y-63500000D03*
G04 #@! TO.P,U5,7*
G04 #@! TO.N,M14*
X114690000Y-60960000D03*
G04 #@! TO.P,U5,6*
G04 #@! TO.N,Net-(U5-Pad6)*
X114690000Y-58420000D03*
D11*
G04 #@! TO.P,U5,10*
G04 #@! TO.N,GND*
X114690000Y-68580000D03*
D10*
G04 #@! TO.P,U5,5*
G04 #@! TO.N,Net-(U5-Pad5)*
X122310000Y-58420000D03*
G04 #@! TO.P,U5,4*
G04 #@! TO.N,P7*
X122310000Y-60960000D03*
G04 #@! TO.P,U5,3*
G04 #@! TO.N,P5*
X122310000Y-63500000D03*
G04 #@! TO.P,U5,2*
G04 #@! TO.N,+3V3*
X122310000Y-66040000D03*
D11*
G04 #@! TO.P,U5,1*
G04 #@! TO.N,GND*
X122310000Y-68580000D03*
G04 #@! TD*
D12*
G04 #@! TO.P,U1,1*
G04 #@! TO.N,GND*
X148020000Y-133110000D03*
D13*
G04 #@! TO.P,U1,2*
G04 #@! TO.N,P0*
X148020000Y-130570000D03*
G04 #@! TO.P,U1,3*
G04 #@! TO.N,P1*
X148020000Y-128030000D03*
G04 #@! TO.P,U1,4*
G04 #@! TO.N,P2*
X148020000Y-125490000D03*
G04 #@! TO.P,U1,5*
G04 #@! TO.N,Net-(U1-Pad5)*
X148020000Y-122950000D03*
G04 #@! TO.P,U1,6*
G04 #@! TO.N,Net-(U1-Pad6)*
X148020000Y-120410000D03*
G04 #@! TO.P,U1,7*
G04 #@! TO.N,P5*
X148020000Y-117870000D03*
G04 #@! TO.P,U1,8*
G04 #@! TO.N,P6*
X148020000Y-115330000D03*
G04 #@! TO.P,U1,9*
G04 #@! TO.N,P7*
X148020000Y-112790000D03*
G04 #@! TO.P,U1,10*
G04 #@! TO.N,P8*
X148020000Y-110250000D03*
G04 #@! TO.P,U1,11*
G04 #@! TO.N,P9*
X148020000Y-107710000D03*
G04 #@! TO.P,U1,12*
G04 #@! TO.N,P10*
X148020000Y-105170000D03*
G04 #@! TO.P,U1,13*
G04 #@! TO.N,P11*
X148020000Y-102630000D03*
G04 #@! TO.P,U1,33*
G04 #@! TO.N,Net-(U1-Pad33)*
X132780000Y-133110000D03*
G04 #@! TO.P,U1,32*
G04 #@! TO.N,Net-(U1-Pad32)*
X132780000Y-130570000D03*
G04 #@! TO.P,U1,31*
G04 #@! TO.N,+3V3*
X132780000Y-128030000D03*
G04 #@! TO.P,U1,30*
G04 #@! TO.N,P23*
X132780000Y-125490000D03*
G04 #@! TO.P,U1,29*
G04 #@! TO.N,P22*
X132780000Y-122950000D03*
G04 #@! TO.P,U1,28*
G04 #@! TO.N,P21*
X132780000Y-120410000D03*
G04 #@! TO.P,U1,27*
G04 #@! TO.N,P20*
X132780000Y-117870000D03*
G04 #@! TO.P,U1,26*
G04 #@! TO.N,P19*
X132780000Y-115330000D03*
G04 #@! TO.P,U1,25*
G04 #@! TO.N,P18*
X132780000Y-112790000D03*
G04 #@! TO.P,U1,24*
G04 #@! TO.N,P17*
X132780000Y-110250000D03*
G04 #@! TO.P,U1,23*
G04 #@! TO.N,P16*
X132780000Y-107710000D03*
G04 #@! TO.P,U1,22*
G04 #@! TO.N,P15*
X132780000Y-105170000D03*
G04 #@! TO.P,U1,21*
G04 #@! TO.N,P14*
X132780000Y-102630000D03*
G04 #@! TO.P,U1,14*
G04 #@! TO.N,P12*
X148020000Y-100090000D03*
G04 #@! TO.P,U1,20*
G04 #@! TO.N,Net-(U1-Pad20)*
X132780000Y-100090000D03*
G04 #@! TD*
D14*
G04 #@! TO.P,J1,1*
G04 #@! TO.N,P0*
X166500000Y-132500000D03*
D15*
G04 #@! TO.P,J1,2*
G04 #@! TO.N,Vbat*
X169040000Y-132500000D03*
G04 #@! TO.P,J1,3*
G04 #@! TO.N,GND*
X171580000Y-132500000D03*
G04 #@! TD*
G04 #@! TO.P,J2,6*
G04 #@! TO.N,GND*
X126200000Y-83500000D03*
G04 #@! TO.P,J2,5*
G04 #@! TO.N,P20*
X123660000Y-83500000D03*
G04 #@! TO.P,J2,4*
G04 #@! TO.N,P21*
X121120000Y-83500000D03*
G04 #@! TO.P,J2,3*
G04 #@! TO.N,+3V3*
X118580000Y-83500000D03*
G04 #@! TO.P,J2,2*
G04 #@! TO.N,M24*
X116040000Y-83500000D03*
D14*
G04 #@! TO.P,J2,1*
G04 #@! TO.N,M14*
X113500000Y-83500000D03*
G04 #@! TD*
G04 #@! TO.P,J3,1*
G04 #@! TO.N,M15*
X114500000Y-106500000D03*
D15*
G04 #@! TO.P,J3,2*
G04 #@! TO.N,M25*
X117040000Y-106500000D03*
G04 #@! TO.P,J3,3*
G04 #@! TO.N,+3V3*
X119580000Y-106500000D03*
G04 #@! TO.P,J3,4*
G04 #@! TO.N,P23*
X122120000Y-106500000D03*
G04 #@! TO.P,J3,5*
G04 #@! TO.N,P22*
X124660000Y-106500000D03*
G04 #@! TO.P,J3,6*
G04 #@! TO.N,GND*
X127200000Y-106500000D03*
G04 #@! TD*
D14*
G04 #@! TO.P,J4,1*
G04 #@! TO.N,M11*
X169500000Y-100500000D03*
D15*
G04 #@! TO.P,J4,2*
G04 #@! TO.N,M21*
X172040000Y-100500000D03*
G04 #@! TO.P,J4,3*
G04 #@! TO.N,+3V3*
X174580000Y-100500000D03*
G04 #@! TO.P,J4,4*
G04 #@! TO.N,P15*
X177120000Y-100500000D03*
G04 #@! TO.P,J4,5*
G04 #@! TO.N,P14*
X179660000Y-100500000D03*
G04 #@! TO.P,J4,6*
G04 #@! TO.N,GND*
X182200000Y-100500000D03*
G04 #@! TD*
G04 #@! TO.P,J5,6*
G04 #@! TO.N,GND*
X164200000Y-85500000D03*
G04 #@! TO.P,J5,5*
G04 #@! TO.N,P16*
X161660000Y-85500000D03*
G04 #@! TO.P,J5,4*
G04 #@! TO.N,P17*
X159120000Y-85500000D03*
G04 #@! TO.P,J5,3*
G04 #@! TO.N,+3V3*
X156580000Y-85500000D03*
G04 #@! TO.P,J5,2*
G04 #@! TO.N,M22*
X154040000Y-85500000D03*
D14*
G04 #@! TO.P,J5,1*
G04 #@! TO.N,M12*
X151500000Y-85500000D03*
G04 #@! TD*
G04 #@! TO.P,J6,1*
G04 #@! TO.N,M13*
X132500000Y-75500000D03*
D15*
G04 #@! TO.P,J6,2*
G04 #@! TO.N,M23*
X135040000Y-75500000D03*
G04 #@! TO.P,J6,3*
G04 #@! TO.N,+3V3*
X137580000Y-75500000D03*
G04 #@! TO.P,J6,4*
G04 #@! TO.N,P19*
X140120000Y-75500000D03*
G04 #@! TO.P,J6,5*
G04 #@! TO.N,P18*
X142660000Y-75500000D03*
G04 #@! TO.P,J6,6*
G04 #@! TO.N,GND*
X145200000Y-75500000D03*
G04 #@! TD*
D10*
G04 #@! TO.P,U2,9*
G04 #@! TO.N,Vbat*
X173190000Y-83040000D03*
G04 #@! TO.P,U2,8*
G04 #@! TO.N,M21*
X173190000Y-80500000D03*
G04 #@! TO.P,U2,7*
G04 #@! TO.N,M11*
X173190000Y-77960000D03*
G04 #@! TO.P,U2,6*
G04 #@! TO.N,Net-(U2-Pad6)*
X173190000Y-75420000D03*
D11*
G04 #@! TO.P,U2,10*
G04 #@! TO.N,GND*
X173190000Y-85580000D03*
D10*
G04 #@! TO.P,U2,5*
G04 #@! TO.N,Net-(U2-Pad5)*
X180810000Y-75420000D03*
G04 #@! TO.P,U2,4*
G04 #@! TO.N,P12*
X180810000Y-77960000D03*
G04 #@! TO.P,U2,3*
G04 #@! TO.N,P10*
X180810000Y-80500000D03*
G04 #@! TO.P,U2,2*
G04 #@! TO.N,+3V3*
X180810000Y-83040000D03*
D11*
G04 #@! TO.P,U2,1*
G04 #@! TO.N,GND*
X180810000Y-85580000D03*
G04 #@! TD*
G04 #@! TO.P,U3,1*
G04 #@! TO.N,GND*
X161310000Y-70580000D03*
D10*
G04 #@! TO.P,U3,2*
G04 #@! TO.N,+3V3*
X161310000Y-68040000D03*
G04 #@! TO.P,U3,3*
G04 #@! TO.N,P9*
X161310000Y-65500000D03*
G04 #@! TO.P,U3,4*
G04 #@! TO.N,P11*
X161310000Y-62960000D03*
G04 #@! TO.P,U3,5*
G04 #@! TO.N,Net-(U3-Pad5)*
X161310000Y-60420000D03*
D11*
G04 #@! TO.P,U3,10*
G04 #@! TO.N,GND*
X153690000Y-70580000D03*
D10*
G04 #@! TO.P,U3,6*
G04 #@! TO.N,Net-(U3-Pad6)*
X153690000Y-60420000D03*
G04 #@! TO.P,U3,7*
G04 #@! TO.N,M12*
X153690000Y-62960000D03*
G04 #@! TO.P,U3,8*
G04 #@! TO.N,M22*
X153690000Y-65500000D03*
G04 #@! TO.P,U3,9*
G04 #@! TO.N,Vbat*
X153690000Y-68040000D03*
G04 #@! TD*
D11*
G04 #@! TO.P,U4,1*
G04 #@! TO.N,GND*
X142310000Y-60580000D03*
D10*
G04 #@! TO.P,U4,2*
G04 #@! TO.N,+3V3*
X142310000Y-58040000D03*
G04 #@! TO.P,U4,3*
G04 #@! TO.N,P6*
X142310000Y-55500000D03*
G04 #@! TO.P,U4,4*
G04 #@! TO.N,P8*
X142310000Y-52960000D03*
G04 #@! TO.P,U4,5*
G04 #@! TO.N,Net-(U4-Pad5)*
X142310000Y-50420000D03*
D11*
G04 #@! TO.P,U4,10*
G04 #@! TO.N,GND*
X134690000Y-60580000D03*
D10*
G04 #@! TO.P,U4,6*
G04 #@! TO.N,Net-(U4-Pad6)*
X134690000Y-50420000D03*
G04 #@! TO.P,U4,7*
G04 #@! TO.N,M13*
X134690000Y-52960000D03*
G04 #@! TO.P,U4,8*
G04 #@! TO.N,M23*
X134690000Y-55500000D03*
G04 #@! TO.P,U4,9*
G04 #@! TO.N,Vbat*
X134690000Y-58040000D03*
G04 #@! TD*
G04 #@! TO.P,U6,9*
G04 #@! TO.N,Vbat*
X119690000Y-126040000D03*
G04 #@! TO.P,U6,8*
G04 #@! TO.N,M25*
X119690000Y-123500000D03*
G04 #@! TO.P,U6,7*
G04 #@! TO.N,M15*
X119690000Y-120960000D03*
G04 #@! TO.P,U6,6*
G04 #@! TO.N,Net-(U6-Pad6)*
X119690000Y-118420000D03*
D11*
G04 #@! TO.P,U6,10*
G04 #@! TO.N,GND*
X119690000Y-128580000D03*
D10*
G04 #@! TO.P,U6,5*
G04 #@! TO.N,Net-(U6-Pad5)*
X127310000Y-118420000D03*
G04 #@! TO.P,U6,4*
G04 #@! TO.N,P2*
X127310000Y-120960000D03*
G04 #@! TO.P,U6,3*
G04 #@! TO.N,P1*
X127310000Y-123500000D03*
G04 #@! TO.P,U6,2*
G04 #@! TO.N,+3V3*
X127310000Y-126040000D03*
D11*
G04 #@! TO.P,U6,1*
G04 #@! TO.N,GND*
X127310000Y-128580000D03*
G04 #@! TD*
D14*
G04 #@! TO.P,J7,1*
G04 #@! TO.N,Vbat*
X155500000Y-132500000D03*
D15*
G04 #@! TO.P,J7,2*
G04 #@! TO.N,GND*
X158040000Y-132500000D03*
G04 #@! TD*
D16*
G04 #@! TO.N,P15*
X177200000Y-104100000D03*
G04 #@! TD*
D17*
G04 #@! TO.N,P0*
X166500000Y-131400000D02*
X166500000Y-132500000D01*
X164870001Y-129770001D02*
X166500000Y-131400000D01*
X148819999Y-129770001D02*
X164870001Y-129770001D01*
X148020000Y-130570000D02*
X148819999Y-129770001D01*
G04 #@! TO.N,P20*
X123660000Y-91860000D02*
X123660000Y-83500000D01*
X123660000Y-92860000D02*
X123660000Y-91860000D01*
X129800000Y-99000000D02*
X123660000Y-92860000D01*
X132780000Y-117870000D02*
X129800000Y-114890000D01*
X129800000Y-114890000D02*
X129800000Y-99000000D01*
G04 #@! TO.N,P21*
X129200000Y-115200000D02*
X129200000Y-99200000D01*
X130800000Y-116800000D02*
X129200000Y-115200000D01*
X132780000Y-120410000D02*
X130800000Y-118430000D01*
X130800000Y-118430000D02*
X130800000Y-116800000D01*
X121120000Y-84702081D02*
X121100000Y-84722081D01*
X121120000Y-83500000D02*
X121120000Y-84702081D01*
X121100000Y-84722081D02*
X121100000Y-86000000D01*
X123000000Y-87900000D02*
X123000000Y-93000000D01*
X121100000Y-86000000D02*
X123000000Y-87900000D01*
X129200000Y-99200000D02*
X123000000Y-93000000D01*
G04 #@! TO.N,M24*
X116040000Y-77040000D02*
X116040000Y-83500000D01*
X113000000Y-74000000D02*
X116040000Y-77040000D01*
X114690000Y-63500000D02*
X113000000Y-65190000D01*
X113000000Y-65190000D02*
X113000000Y-74000000D01*
G04 #@! TO.N,M14*
X113500000Y-83500000D02*
X113500000Y-83100000D01*
X113500000Y-83500000D02*
X113500000Y-76000000D01*
X112500000Y-63150000D02*
X114690000Y-60960000D01*
X113500000Y-76000000D02*
X112500000Y-75000000D01*
D18*
X112100000Y-63550000D02*
X112500000Y-63150000D01*
X112500000Y-75000000D02*
X112100000Y-74600000D01*
X112100000Y-74600000D02*
X112100000Y-63550000D01*
D17*
G04 #@! TO.N,M15*
X121200000Y-119450000D02*
X119690000Y-120960000D01*
X121200000Y-115500000D02*
X121200000Y-119450000D01*
X114500000Y-106500000D02*
X114500000Y-108800000D01*
X114500000Y-108800000D02*
X121200000Y-115500000D01*
G04 #@! TO.N,M25*
X121900000Y-121290000D02*
X121190000Y-122000000D01*
X121900000Y-115000000D02*
X121900000Y-121290000D01*
X117040000Y-110140000D02*
X121900000Y-115000000D01*
X117040000Y-106500000D02*
X117040000Y-110140000D01*
X119690000Y-123500000D02*
X121190000Y-122000000D01*
X121190000Y-122000000D02*
X121300000Y-121890000D01*
G04 #@! TO.N,P23*
X122120000Y-106500000D02*
X122120000Y-110120000D01*
X122120000Y-110120000D02*
X128600000Y-116600000D01*
X132780000Y-125490000D02*
X130500000Y-123210000D01*
X130500000Y-121700000D02*
X128600000Y-119800000D01*
X130500000Y-123210000D02*
X130500000Y-121700000D01*
X128600000Y-116600000D02*
X128600000Y-119800000D01*
G04 #@! TO.N,P22*
X129200000Y-119370000D02*
X132780000Y-122950000D01*
X129200000Y-116400000D02*
X129200000Y-119370000D01*
X124660000Y-111860000D02*
X129200000Y-116400000D01*
X124660000Y-111500000D02*
X124660000Y-111860000D01*
X124660000Y-106500000D02*
X124660000Y-111500000D01*
G04 #@! TO.N,M11*
X169500000Y-98900000D02*
X169500000Y-100500000D01*
X171000000Y-97400000D02*
X169500000Y-98900000D01*
X173190000Y-77960000D02*
X171000000Y-80150000D01*
X171000000Y-80150000D02*
X171000000Y-97400000D01*
G04 #@! TO.N,M21*
X172040000Y-97840000D02*
X172040000Y-100500000D01*
X171700000Y-97500000D02*
X172040000Y-97840000D01*
X173190000Y-80500000D02*
X171700000Y-81990000D01*
X171700000Y-81990000D02*
X171700000Y-97500000D01*
G04 #@! TO.N,P15*
X137500000Y-109890000D02*
X137500000Y-117700000D01*
X137500000Y-117700000D02*
X141500000Y-121700000D01*
X141500000Y-121700000D02*
X155800000Y-121700000D01*
X132780000Y-105170000D02*
X137500000Y-109890000D01*
D18*
X176634315Y-104100000D02*
X173400000Y-104100000D01*
X177200000Y-104100000D02*
X176634315Y-104100000D01*
D17*
X155800000Y-121700000D02*
X173400000Y-104100000D01*
G04 #@! TO.N,P14*
X177260000Y-102900000D02*
X179660000Y-100500000D01*
X132780000Y-102630000D02*
X138200000Y-108050000D01*
X138200000Y-108050000D02*
X138200000Y-117300000D01*
X138200000Y-117300000D02*
X140000000Y-119100000D01*
X140000000Y-119100000D02*
X157300000Y-119100000D01*
X157300000Y-119100000D02*
X173500000Y-102900000D01*
X173500000Y-102900000D02*
X177260000Y-102900000D01*
G04 #@! TO.N,M22*
X154040000Y-82140000D02*
X154040000Y-85500000D01*
X152200000Y-80300000D02*
X154040000Y-82140000D01*
X153690000Y-65500000D02*
X152200000Y-66990000D01*
X152200000Y-66990000D02*
X152200000Y-80300000D01*
G04 #@! TO.N,M12*
X151500000Y-65150000D02*
X151500000Y-85500000D01*
X153690000Y-62960000D02*
X151500000Y-65150000D01*
G04 #@! TO.N,M13*
X132500000Y-55150000D02*
X132500000Y-75500000D01*
X134690000Y-52960000D02*
X132500000Y-55150000D01*
G04 #@! TO.N,M23*
X135040000Y-71640000D02*
X135040000Y-75500000D01*
X133100000Y-69700000D02*
X135040000Y-71640000D01*
X134690000Y-55500000D02*
X133100000Y-57090000D01*
X133100000Y-57090000D02*
X133100000Y-69700000D01*
G04 #@! TO.N,P19*
X130950000Y-113500000D02*
X130749990Y-113299990D01*
X132780000Y-115330000D02*
X130950000Y-113500000D01*
X140120000Y-76702081D02*
X140120000Y-75500000D01*
X142000000Y-78582081D02*
X140120000Y-76702081D01*
X141300000Y-86900000D02*
X142000000Y-86200000D01*
X130950000Y-113500000D02*
X130600000Y-113150000D01*
X130600000Y-113150000D02*
X130600000Y-94936410D01*
X129600000Y-93936410D02*
X129600000Y-88863590D01*
X142000000Y-86200000D02*
X142000000Y-78582081D01*
X130600000Y-94936410D02*
X129600000Y-93936410D01*
X129600000Y-88863590D02*
X131563590Y-86900000D01*
X131563590Y-86900000D02*
X141300000Y-86900000D01*
G04 #@! TO.N,P18*
X142660000Y-86740000D02*
X142660000Y-75500000D01*
X141700000Y-87700000D02*
X142660000Y-86740000D01*
X131800000Y-87700000D02*
X141700000Y-87700000D01*
X130400000Y-89100000D02*
X131800000Y-87700000D01*
X131490000Y-111500000D02*
X131490000Y-111490000D01*
X132780000Y-112790000D02*
X131490000Y-111500000D01*
X131300000Y-111300000D02*
X131300000Y-94600000D01*
X131300000Y-94600000D02*
X130400000Y-93700000D01*
X131490000Y-111490000D02*
X131300000Y-111300000D01*
X130400000Y-93700000D02*
X130400000Y-89100000D01*
G04 #@! TO.N,P12*
X179260000Y-77960000D02*
X180810000Y-77960000D01*
X174600000Y-73300000D02*
X179260000Y-77960000D01*
X171500000Y-73300000D02*
X174600000Y-73300000D01*
X169500000Y-93600000D02*
X169500000Y-75300000D01*
X166200000Y-96900000D02*
X169500000Y-93600000D01*
X148020000Y-100090000D02*
X150000000Y-102070000D01*
X150000000Y-102070000D02*
X150000000Y-103300000D01*
X150000000Y-103300000D02*
X151200000Y-104500000D01*
X169500000Y-75300000D02*
X171500000Y-73300000D01*
X151200000Y-104500000D02*
X164600000Y-104500000D01*
X164600000Y-104500000D02*
X166200000Y-102900000D01*
X166200000Y-102900000D02*
X166200000Y-96900000D01*
G04 #@! TO.N,P11*
X146200000Y-100810000D02*
X148020000Y-102630000D01*
X146200000Y-97200000D02*
X146200000Y-100810000D01*
X147100000Y-96300000D02*
X146200000Y-97200000D01*
X164500000Y-71700000D02*
X166900000Y-74100000D01*
X164500000Y-66150000D02*
X164500000Y-71700000D01*
X166900000Y-74100000D02*
X166900000Y-90900000D01*
X161310000Y-62960000D02*
X164500000Y-66150000D01*
X166900000Y-90900000D02*
X161500000Y-96300000D01*
X161500000Y-96300000D02*
X147100000Y-96300000D01*
G04 #@! TO.N,P10*
X148020000Y-105170000D02*
X165030000Y-105170000D01*
X165030000Y-105170000D02*
X166900000Y-103300000D01*
X166900000Y-103300000D02*
X166900000Y-97100000D01*
X175900000Y-75590000D02*
X180810000Y-80500000D01*
X166900000Y-97100000D02*
X170100000Y-93900000D01*
X170100000Y-93900000D02*
X170100000Y-75600000D01*
X170100000Y-75600000D02*
X171800000Y-73900000D01*
X175890000Y-75590000D02*
X174200000Y-73900000D01*
X175900000Y-75590000D02*
X175890000Y-75590000D01*
X171800000Y-73900000D02*
X174200000Y-73900000D01*
G04 #@! TO.N,P9*
X145500000Y-105190000D02*
X145510000Y-105200000D01*
X145500000Y-96800000D02*
X145500000Y-105190000D01*
X146700000Y-95600000D02*
X145500000Y-96800000D01*
X163900000Y-68090000D02*
X163900000Y-72100000D01*
X161310000Y-65500000D02*
X163900000Y-68090000D01*
X163900000Y-72100000D02*
X166300000Y-74500000D01*
X145510000Y-105200000D02*
X148020000Y-107710000D01*
X166300000Y-74500000D02*
X166300000Y-90500000D01*
X166300000Y-90500000D02*
X161200000Y-95600000D01*
X161200000Y-95600000D02*
X146700000Y-95600000D01*
G04 #@! TO.N,P8*
X145450000Y-60050000D02*
X145450000Y-56100000D01*
X142310000Y-52960000D02*
X145450000Y-56100000D01*
X148020000Y-110250000D02*
X144000000Y-106230000D01*
X144000000Y-106230000D02*
X144000000Y-95800000D01*
X144000000Y-95800000D02*
X148900000Y-90900000D01*
X148900000Y-63500000D02*
X145450000Y-60050000D01*
X148900000Y-90900000D02*
X148900000Y-63500000D01*
G04 #@! TO.N,P6*
X148020000Y-115330000D02*
X146888630Y-115330000D01*
X142310000Y-55500000D02*
X144900000Y-58090000D01*
X144900000Y-58090000D02*
X144900000Y-60500000D01*
X144900000Y-60500000D02*
X148300000Y-63900000D01*
X148300000Y-63900000D02*
X148300000Y-90500000D01*
X143300000Y-111741370D02*
X143358630Y-111800000D01*
X143300000Y-95500000D02*
X143300000Y-111741370D01*
X146888630Y-115330000D02*
X143358630Y-111800000D01*
X148300000Y-90500000D02*
X143300000Y-95500000D01*
G04 #@! TO.N,P2*
X144900000Y-128610000D02*
X148020000Y-125490000D01*
X129500000Y-123150000D02*
X129500000Y-133400000D01*
X127310000Y-120960000D02*
X129500000Y-123150000D01*
X129500000Y-133400000D02*
X131500000Y-135400000D01*
X131500000Y-135400000D02*
X144000000Y-135400000D01*
X144000000Y-135400000D02*
X144900000Y-134500000D01*
X144900000Y-134500000D02*
X144900000Y-128610000D01*
G04 #@! TO.N,P1*
X148020000Y-128030000D02*
X145500000Y-130550000D01*
X145500000Y-130550000D02*
X145500000Y-134636410D01*
X130800000Y-135800000D02*
X130500000Y-135500000D01*
X128900000Y-133900000D02*
X130500000Y-135500000D01*
X127310000Y-123500000D02*
X128900000Y-125090000D01*
X128900000Y-125090000D02*
X128900000Y-133900000D01*
D18*
X145500000Y-135200000D02*
X145500000Y-134636410D01*
X144400000Y-136300000D02*
X145500000Y-135200000D01*
X130800000Y-135800000D02*
X131300000Y-136300000D01*
X131300000Y-136300000D02*
X144400000Y-136300000D01*
G04 #@! TD*
G04 #@! TO.N,GND*
G36*
X147215001Y-54422679D02*
X147199621Y-54500000D01*
X147260546Y-54806292D01*
X147434047Y-55065953D01*
X147693708Y-55239454D01*
X147922684Y-55285000D01*
X148000000Y-55300379D01*
X148077316Y-55285000D01*
X166715000Y-55285000D01*
X166715001Y-69422679D01*
X166699621Y-69500000D01*
X166760546Y-69806292D01*
X166934047Y-70065953D01*
X167193708Y-70239454D01*
X167422684Y-70285000D01*
X167500000Y-70300379D01*
X167577316Y-70285000D01*
X184715000Y-70285000D01*
X184715001Y-122479762D01*
X184638664Y-123961094D01*
X184413581Y-125406697D01*
X184041091Y-126821512D01*
X183525144Y-128190538D01*
X182871205Y-129499278D01*
X182086191Y-130733881D01*
X181178437Y-131881236D01*
X180157553Y-132929204D01*
X179034349Y-133866684D01*
X177820729Y-134683741D01*
X176529553Y-135371717D01*
X175174495Y-135923328D01*
X173769920Y-136332723D01*
X172330699Y-136595571D01*
X170857022Y-136710259D01*
X170494843Y-136715000D01*
X145062630Y-136715000D01*
X145985750Y-135791881D01*
X146049371Y-135749371D01*
X146217788Y-135497317D01*
X146262000Y-135275048D01*
X146262000Y-135275043D01*
X146276927Y-135200000D01*
X146262000Y-135124957D01*
X146262000Y-134561362D01*
X146260000Y-134551307D01*
X146260000Y-133395750D01*
X146585000Y-133395750D01*
X146585000Y-134036309D01*
X146681673Y-134269698D01*
X146860301Y-134448327D01*
X147093690Y-134545000D01*
X147734250Y-134545000D01*
X147893000Y-134386250D01*
X147893000Y-133237000D01*
X148147000Y-133237000D01*
X148147000Y-134386250D01*
X148305750Y-134545000D01*
X148946310Y-134545000D01*
X149179699Y-134448327D01*
X149358327Y-134269698D01*
X149455000Y-134036309D01*
X149455000Y-133395750D01*
X149296250Y-133237000D01*
X148147000Y-133237000D01*
X147893000Y-133237000D01*
X146743750Y-133237000D01*
X146585000Y-133395750D01*
X146260000Y-133395750D01*
X146260000Y-130864801D01*
X146585000Y-130539801D01*
X146585000Y-130855439D01*
X146803466Y-131382862D01*
X147095604Y-131675000D01*
X147093690Y-131675000D01*
X146860301Y-131771673D01*
X146681673Y-131950302D01*
X146585000Y-132183691D01*
X146585000Y-132824250D01*
X146743750Y-132983000D01*
X147893000Y-132983000D01*
X147893000Y-132963000D01*
X148147000Y-132963000D01*
X148147000Y-132983000D01*
X149296250Y-132983000D01*
X149455000Y-132824250D01*
X149455000Y-132183691D01*
X149358327Y-131950302D01*
X149179699Y-131771673D01*
X148946310Y-131675000D01*
X148944396Y-131675000D01*
X148969396Y-131650000D01*
X154002560Y-131650000D01*
X154002560Y-133350000D01*
X154051843Y-133597765D01*
X154192191Y-133807809D01*
X154402235Y-133948157D01*
X154650000Y-133997440D01*
X156350000Y-133997440D01*
X156597765Y-133948157D01*
X156807809Y-133807809D01*
X156948157Y-133597765D01*
X156968739Y-133494292D01*
X157273076Y-133771645D01*
X157683110Y-133941476D01*
X157913000Y-133820155D01*
X157913000Y-132627000D01*
X158167000Y-132627000D01*
X158167000Y-133820155D01*
X158396890Y-133941476D01*
X158806924Y-133771645D01*
X159235183Y-133381358D01*
X159481486Y-132856892D01*
X159360819Y-132627000D01*
X158167000Y-132627000D01*
X157913000Y-132627000D01*
X157893000Y-132627000D01*
X157893000Y-132373000D01*
X157913000Y-132373000D01*
X157913000Y-131179845D01*
X158167000Y-131179845D01*
X158167000Y-132373000D01*
X159360819Y-132373000D01*
X159481486Y-132143108D01*
X159235183Y-131618642D01*
X158806924Y-131228355D01*
X158396890Y-131058524D01*
X158167000Y-131179845D01*
X157913000Y-131179845D01*
X157683110Y-131058524D01*
X157273076Y-131228355D01*
X156968739Y-131505708D01*
X156948157Y-131402235D01*
X156807809Y-131192191D01*
X156597765Y-131051843D01*
X156350000Y-131002560D01*
X154650000Y-131002560D01*
X154402235Y-131051843D01*
X154192191Y-131192191D01*
X154051843Y-131402235D01*
X154002560Y-131650000D01*
X148969396Y-131650000D01*
X149236534Y-131382862D01*
X149455000Y-130855439D01*
X149455000Y-130530001D01*
X164555200Y-130530001D01*
X165207296Y-131182098D01*
X165192191Y-131192191D01*
X165051843Y-131402235D01*
X165002560Y-131650000D01*
X165002560Y-133350000D01*
X165051843Y-133597765D01*
X165192191Y-133807809D01*
X165402235Y-133948157D01*
X165650000Y-133997440D01*
X167350000Y-133997440D01*
X167597765Y-133948157D01*
X167807809Y-133807809D01*
X167948157Y-133597765D01*
X167957184Y-133552381D01*
X167969375Y-133570625D01*
X168460582Y-133898839D01*
X168893744Y-133985000D01*
X169186256Y-133985000D01*
X169619418Y-133898839D01*
X170110625Y-133570625D01*
X170323843Y-133251522D01*
X170384817Y-133381358D01*
X170813076Y-133771645D01*
X171223110Y-133941476D01*
X171453000Y-133820155D01*
X171453000Y-132627000D01*
X171707000Y-132627000D01*
X171707000Y-133820155D01*
X171936890Y-133941476D01*
X172346924Y-133771645D01*
X172775183Y-133381358D01*
X173021486Y-132856892D01*
X172900819Y-132627000D01*
X171707000Y-132627000D01*
X171453000Y-132627000D01*
X171433000Y-132627000D01*
X171433000Y-132373000D01*
X171453000Y-132373000D01*
X171453000Y-131179845D01*
X171707000Y-131179845D01*
X171707000Y-132373000D01*
X172900819Y-132373000D01*
X173021486Y-132143108D01*
X172775183Y-131618642D01*
X172346924Y-131228355D01*
X171936890Y-131058524D01*
X171707000Y-131179845D01*
X171453000Y-131179845D01*
X171223110Y-131058524D01*
X170813076Y-131228355D01*
X170384817Y-131618642D01*
X170323843Y-131748478D01*
X170110625Y-131429375D01*
X169619418Y-131101161D01*
X169186256Y-131015000D01*
X168893744Y-131015000D01*
X168460582Y-131101161D01*
X167969375Y-131429375D01*
X167957184Y-131447619D01*
X167948157Y-131402235D01*
X167807809Y-131192191D01*
X167597765Y-131051843D01*
X167350000Y-131002560D01*
X167148483Y-131002560D01*
X167090329Y-130915527D01*
X167047929Y-130852071D01*
X166984473Y-130809671D01*
X165460332Y-129285531D01*
X165417930Y-129222072D01*
X165166538Y-129054097D01*
X164944853Y-129010001D01*
X164944848Y-129010001D01*
X164870001Y-128995113D01*
X164795154Y-129010001D01*
X149069395Y-129010001D01*
X149236534Y-128842862D01*
X149455000Y-128315439D01*
X149455000Y-127744561D01*
X149236534Y-127217138D01*
X148832862Y-126813466D01*
X148703784Y-126760000D01*
X148832862Y-126706534D01*
X149039396Y-126500000D01*
X172795000Y-126500000D01*
X172915156Y-127258637D01*
X173263863Y-127943013D01*
X173806987Y-128486137D01*
X174491363Y-128834844D01*
X175250000Y-128955000D01*
X176008637Y-128834844D01*
X176693013Y-128486137D01*
X177236137Y-127943013D01*
X177584844Y-127258637D01*
X177705000Y-126500000D01*
X177584844Y-125741363D01*
X177236137Y-125056987D01*
X176693013Y-124513863D01*
X176008637Y-124165156D01*
X175250000Y-124045000D01*
X174491363Y-124165156D01*
X173806987Y-124513863D01*
X173263863Y-125056987D01*
X172915156Y-125741363D01*
X172795000Y-126500000D01*
X149039396Y-126500000D01*
X149236534Y-126302862D01*
X149455000Y-125775439D01*
X149455000Y-125204561D01*
X149236534Y-124677138D01*
X148832862Y-124273466D01*
X148703784Y-124220000D01*
X148832862Y-124166534D01*
X149236534Y-123762862D01*
X149455000Y-123235439D01*
X149455000Y-122664561D01*
X149370268Y-122460000D01*
X155725153Y-122460000D01*
X155800000Y-122474888D01*
X155874847Y-122460000D01*
X155874852Y-122460000D01*
X156096537Y-122415904D01*
X156347929Y-122247929D01*
X156390331Y-122184470D01*
X164074801Y-114500000D01*
X169949621Y-114500000D01*
X169965001Y-114577321D01*
X169965000Y-117422684D01*
X169949621Y-117500000D01*
X170010546Y-117806292D01*
X170150605Y-118015904D01*
X170184047Y-118065953D01*
X170443708Y-118239454D01*
X170750000Y-118300379D01*
X170827316Y-118285000D01*
X183672684Y-118285000D01*
X183750000Y-118300379D01*
X184056292Y-118239454D01*
X184315953Y-118065953D01*
X184489454Y-117806292D01*
X184535000Y-117577316D01*
X184535000Y-117577315D01*
X184550379Y-117500000D01*
X184535000Y-117422684D01*
X184535000Y-114577316D01*
X184550379Y-114500000D01*
X184489454Y-114193708D01*
X184315953Y-113934047D01*
X184056292Y-113760546D01*
X183827316Y-113715000D01*
X183750000Y-113699621D01*
X183672684Y-113715000D01*
X170827316Y-113715000D01*
X170750000Y-113699621D01*
X170672684Y-113715000D01*
X170443708Y-113760546D01*
X170184047Y-113934047D01*
X170010546Y-114193708D01*
X169949621Y-114500000D01*
X164074801Y-114500000D01*
X173712802Y-104862000D01*
X176498289Y-104862000D01*
X176500067Y-104863778D01*
X176491363Y-104865156D01*
X175806987Y-105213863D01*
X175263863Y-105756987D01*
X174915156Y-106441363D01*
X174795000Y-107200000D01*
X174915156Y-107958637D01*
X175263863Y-108643013D01*
X175806987Y-109186137D01*
X176491363Y-109534844D01*
X177250000Y-109655000D01*
X178008637Y-109534844D01*
X178693013Y-109186137D01*
X179236137Y-108643013D01*
X179584844Y-107958637D01*
X179705000Y-107200000D01*
X179584844Y-106441363D01*
X179236137Y-105756987D01*
X178693013Y-105213863D01*
X178008637Y-104865156D01*
X177913606Y-104850105D01*
X178077431Y-104686280D01*
X178235000Y-104305874D01*
X178235000Y-103894126D01*
X178077431Y-103513720D01*
X177899256Y-103335545D01*
X179293592Y-101941209D01*
X179513744Y-101985000D01*
X179806256Y-101985000D01*
X180239418Y-101898839D01*
X180730625Y-101570625D01*
X180943843Y-101251522D01*
X181004817Y-101381358D01*
X181433076Y-101771645D01*
X181843110Y-101941476D01*
X182073000Y-101820155D01*
X182073000Y-100627000D01*
X182327000Y-100627000D01*
X182327000Y-101820155D01*
X182556890Y-101941476D01*
X182966924Y-101771645D01*
X183395183Y-101381358D01*
X183641486Y-100856892D01*
X183520819Y-100627000D01*
X182327000Y-100627000D01*
X182073000Y-100627000D01*
X182053000Y-100627000D01*
X182053000Y-100373000D01*
X182073000Y-100373000D01*
X182073000Y-99179845D01*
X182327000Y-99179845D01*
X182327000Y-100373000D01*
X183520819Y-100373000D01*
X183641486Y-100143108D01*
X183395183Y-99618642D01*
X182966924Y-99228355D01*
X182556890Y-99058524D01*
X182327000Y-99179845D01*
X182073000Y-99179845D01*
X181843110Y-99058524D01*
X181433076Y-99228355D01*
X181004817Y-99618642D01*
X180943843Y-99748478D01*
X180730625Y-99429375D01*
X180239418Y-99101161D01*
X179806256Y-99015000D01*
X179513744Y-99015000D01*
X179080582Y-99101161D01*
X178589375Y-99429375D01*
X178390000Y-99727761D01*
X178190625Y-99429375D01*
X177699418Y-99101161D01*
X177266256Y-99015000D01*
X176973744Y-99015000D01*
X176540582Y-99101161D01*
X176049375Y-99429375D01*
X175850000Y-99727761D01*
X175650625Y-99429375D01*
X175159418Y-99101161D01*
X174726256Y-99015000D01*
X174433744Y-99015000D01*
X174000582Y-99101161D01*
X173509375Y-99429375D01*
X173310000Y-99727761D01*
X173110625Y-99429375D01*
X172800000Y-99221822D01*
X172800000Y-97914848D01*
X172814888Y-97840000D01*
X172800000Y-97765152D01*
X172800000Y-97765148D01*
X172755904Y-97543463D01*
X172587929Y-97292071D01*
X172524470Y-97249669D01*
X172460000Y-97185199D01*
X172460000Y-91700000D01*
X174795000Y-91700000D01*
X174915156Y-92458637D01*
X175263863Y-93143013D01*
X175806987Y-93686137D01*
X176491363Y-94034844D01*
X177250000Y-94155000D01*
X178008637Y-94034844D01*
X178693013Y-93686137D01*
X179236137Y-93143013D01*
X179584844Y-92458637D01*
X179705000Y-91700000D01*
X179584844Y-90941363D01*
X179236137Y-90256987D01*
X178693013Y-89713863D01*
X178008637Y-89365156D01*
X177250000Y-89245000D01*
X176491363Y-89365156D01*
X175806987Y-89713863D01*
X175263863Y-90256987D01*
X174915156Y-90941363D01*
X174795000Y-91700000D01*
X172460000Y-91700000D01*
X172460000Y-86990000D01*
X172904250Y-86990000D01*
X173063000Y-86831250D01*
X173063000Y-85707000D01*
X173317000Y-85707000D01*
X173317000Y-86831250D01*
X173475750Y-86990000D01*
X174091310Y-86990000D01*
X174324699Y-86893327D01*
X174503327Y-86714698D01*
X174600000Y-86481309D01*
X174600000Y-85865750D01*
X179400000Y-85865750D01*
X179400000Y-86481310D01*
X179496673Y-86714699D01*
X179675302Y-86893327D01*
X179908691Y-86990000D01*
X180524250Y-86990000D01*
X180683000Y-86831250D01*
X180683000Y-85707000D01*
X180937000Y-85707000D01*
X180937000Y-86831250D01*
X181095750Y-86990000D01*
X181711309Y-86990000D01*
X181944698Y-86893327D01*
X182123327Y-86714699D01*
X182220000Y-86481310D01*
X182220000Y-85865750D01*
X182061250Y-85707000D01*
X180937000Y-85707000D01*
X180683000Y-85707000D01*
X179558750Y-85707000D01*
X179400000Y-85865750D01*
X174600000Y-85865750D01*
X174441250Y-85707000D01*
X173317000Y-85707000D01*
X173063000Y-85707000D01*
X173043000Y-85707000D01*
X173043000Y-85453000D01*
X173063000Y-85453000D01*
X173063000Y-85433000D01*
X173317000Y-85433000D01*
X173317000Y-85453000D01*
X174441250Y-85453000D01*
X174600000Y-85294250D01*
X174600000Y-84678691D01*
X174503327Y-84445302D01*
X174324699Y-84266673D01*
X174091310Y-84170000D01*
X174054042Y-84170000D01*
X174385341Y-83838701D01*
X174600000Y-83320467D01*
X174600000Y-82759533D01*
X174385341Y-82241299D01*
X173988701Y-81844659D01*
X173808458Y-81770000D01*
X173988701Y-81695341D01*
X174385341Y-81298701D01*
X174600000Y-80780467D01*
X174600000Y-80219533D01*
X174385341Y-79701299D01*
X173988701Y-79304659D01*
X173808458Y-79230000D01*
X173988701Y-79155341D01*
X174385341Y-78758701D01*
X174600000Y-78240467D01*
X174600000Y-77679533D01*
X174385341Y-77161299D01*
X173988701Y-76764659D01*
X173808458Y-76690000D01*
X173988701Y-76615341D01*
X174385341Y-76218701D01*
X174600000Y-75700467D01*
X174600000Y-75374802D01*
X175299670Y-76074472D01*
X175342071Y-76137929D01*
X175435667Y-76200468D01*
X179416030Y-80180832D01*
X179400000Y-80219533D01*
X179400000Y-80780467D01*
X179614659Y-81298701D01*
X180011299Y-81695341D01*
X180191542Y-81770000D01*
X180011299Y-81844659D01*
X179614659Y-82241299D01*
X179400000Y-82759533D01*
X179400000Y-83320467D01*
X179614659Y-83838701D01*
X179945958Y-84170000D01*
X179908691Y-84170000D01*
X179675302Y-84266673D01*
X179496673Y-84445301D01*
X179400000Y-84678690D01*
X179400000Y-85294250D01*
X179558750Y-85453000D01*
X180683000Y-85453000D01*
X180683000Y-85433000D01*
X180937000Y-85433000D01*
X180937000Y-85453000D01*
X182061250Y-85453000D01*
X182220000Y-85294250D01*
X182220000Y-84678690D01*
X182123327Y-84445301D01*
X181944698Y-84266673D01*
X181711309Y-84170000D01*
X181674042Y-84170000D01*
X182005341Y-83838701D01*
X182220000Y-83320467D01*
X182220000Y-82759533D01*
X182005341Y-82241299D01*
X181608701Y-81844659D01*
X181428458Y-81770000D01*
X181608701Y-81695341D01*
X182005341Y-81298701D01*
X182220000Y-80780467D01*
X182220000Y-80219533D01*
X182005341Y-79701299D01*
X181608701Y-79304659D01*
X181428458Y-79230000D01*
X181608701Y-79155341D01*
X182005341Y-78758701D01*
X182220000Y-78240467D01*
X182220000Y-77679533D01*
X182005341Y-77161299D01*
X181608701Y-76764659D01*
X181428458Y-76690000D01*
X181608701Y-76615341D01*
X182005341Y-76218701D01*
X182220000Y-75700467D01*
X182220000Y-75139533D01*
X182005341Y-74621299D01*
X181608701Y-74224659D01*
X181090467Y-74010000D01*
X180529533Y-74010000D01*
X180011299Y-74224659D01*
X179614659Y-74621299D01*
X179400000Y-75139533D01*
X179400000Y-75700467D01*
X179614659Y-76218701D01*
X180011299Y-76615341D01*
X180191542Y-76690000D01*
X180011299Y-76764659D01*
X179614659Y-77161299D01*
X179598629Y-77200000D01*
X179574802Y-77200000D01*
X175190331Y-72815530D01*
X175147929Y-72752071D01*
X174896537Y-72584096D01*
X174674852Y-72540000D01*
X174674847Y-72540000D01*
X174600000Y-72525112D01*
X174525153Y-72540000D01*
X171574846Y-72540000D01*
X171499999Y-72525112D01*
X171425152Y-72540000D01*
X171425148Y-72540000D01*
X171203463Y-72584096D01*
X170952071Y-72752071D01*
X170909671Y-72815527D01*
X169015528Y-74709671D01*
X168952072Y-74752071D01*
X168909672Y-74815527D01*
X168909671Y-74815528D01*
X168784097Y-75003463D01*
X168725112Y-75300000D01*
X168740001Y-75374852D01*
X168740000Y-93285198D01*
X165715528Y-96309671D01*
X165652072Y-96352071D01*
X165609672Y-96415527D01*
X165609671Y-96415528D01*
X165484097Y-96603463D01*
X165425112Y-96900000D01*
X165440001Y-96974852D01*
X165440000Y-102585198D01*
X165244556Y-102780642D01*
X165285000Y-102577316D01*
X165285000Y-102577315D01*
X165300379Y-102500000D01*
X165285000Y-102422684D01*
X165285000Y-99577316D01*
X165300379Y-99500000D01*
X165239454Y-99193708D01*
X165065953Y-98934047D01*
X164806292Y-98760546D01*
X164577316Y-98715000D01*
X164500000Y-98699621D01*
X164422684Y-98715000D01*
X151577316Y-98715000D01*
X151500000Y-98699621D01*
X151422684Y-98715000D01*
X151193708Y-98760546D01*
X150934047Y-98934047D01*
X150760546Y-99193708D01*
X150699621Y-99500000D01*
X150715001Y-99577321D01*
X150715000Y-101772109D01*
X150590329Y-101585527D01*
X150547929Y-101522071D01*
X150484473Y-101479671D01*
X149433103Y-100428302D01*
X149455000Y-100375439D01*
X149455000Y-99804561D01*
X149236534Y-99277138D01*
X148832862Y-98873466D01*
X148305439Y-98655000D01*
X147734561Y-98655000D01*
X147207138Y-98873466D01*
X146960000Y-99120604D01*
X146960000Y-97514801D01*
X147414802Y-97060000D01*
X161425153Y-97060000D01*
X161500000Y-97074888D01*
X161574847Y-97060000D01*
X161574852Y-97060000D01*
X161796537Y-97015904D01*
X162047929Y-96847929D01*
X162090331Y-96784470D01*
X167384473Y-91490329D01*
X167447929Y-91447929D01*
X167615904Y-91196537D01*
X167660000Y-90974852D01*
X167660000Y-90974848D01*
X167674888Y-90900001D01*
X167660000Y-90825154D01*
X167660000Y-74174848D01*
X167674888Y-74100000D01*
X167660000Y-74025152D01*
X167660000Y-74025148D01*
X167615904Y-73803463D01*
X167447929Y-73552071D01*
X167384473Y-73509671D01*
X165260000Y-71385199D01*
X165260000Y-66224846D01*
X165274888Y-66149999D01*
X165260000Y-66075152D01*
X165260000Y-66075148D01*
X165215904Y-65853463D01*
X165047929Y-65602071D01*
X164984473Y-65559671D01*
X162703969Y-63279168D01*
X162720000Y-63240467D01*
X162720000Y-62679533D01*
X162505341Y-62161299D01*
X162108701Y-61764659D01*
X161928458Y-61690000D01*
X162108701Y-61615341D01*
X162505341Y-61218701D01*
X162720000Y-60700467D01*
X162720000Y-60139533D01*
X162505341Y-59621299D01*
X162108701Y-59224659D01*
X161590467Y-59010000D01*
X161029533Y-59010000D01*
X160511299Y-59224659D01*
X160114659Y-59621299D01*
X159900000Y-60139533D01*
X159900000Y-60700467D01*
X160114659Y-61218701D01*
X160511299Y-61615341D01*
X160691542Y-61690000D01*
X160511299Y-61764659D01*
X160114659Y-62161299D01*
X159900000Y-62679533D01*
X159900000Y-63240467D01*
X160114659Y-63758701D01*
X160511299Y-64155341D01*
X160691542Y-64230000D01*
X160511299Y-64304659D01*
X160114659Y-64701299D01*
X159900000Y-65219533D01*
X159900000Y-65780467D01*
X160114659Y-66298701D01*
X160511299Y-66695341D01*
X160691542Y-66770000D01*
X160511299Y-66844659D01*
X160114659Y-67241299D01*
X159900000Y-67759533D01*
X159900000Y-68320467D01*
X160114659Y-68838701D01*
X160445958Y-69170000D01*
X160408691Y-69170000D01*
X160175302Y-69266673D01*
X159996673Y-69445301D01*
X159900000Y-69678690D01*
X159900000Y-70294250D01*
X160058750Y-70453000D01*
X161183000Y-70453000D01*
X161183000Y-70433000D01*
X161437000Y-70433000D01*
X161437000Y-70453000D01*
X162561250Y-70453000D01*
X162720000Y-70294250D01*
X162720000Y-69678690D01*
X162623327Y-69445301D01*
X162444698Y-69266673D01*
X162211309Y-69170000D01*
X162174042Y-69170000D01*
X162505341Y-68838701D01*
X162720000Y-68320467D01*
X162720000Y-67984802D01*
X163140000Y-68404802D01*
X163140001Y-72025148D01*
X163125112Y-72100000D01*
X163184097Y-72396537D01*
X163309421Y-72584097D01*
X163352072Y-72647929D01*
X163415528Y-72690329D01*
X165540000Y-74814802D01*
X165540001Y-84927010D01*
X165395183Y-84618642D01*
X164966924Y-84228355D01*
X164556890Y-84058524D01*
X164327000Y-84179845D01*
X164327000Y-85373000D01*
X164347000Y-85373000D01*
X164347000Y-85627000D01*
X164327000Y-85627000D01*
X164327000Y-86820155D01*
X164556890Y-86941476D01*
X164966924Y-86771645D01*
X165395183Y-86381358D01*
X165540001Y-86072990D01*
X165540001Y-90185197D01*
X160885199Y-94840000D01*
X146774846Y-94840000D01*
X146699999Y-94825112D01*
X146625152Y-94840000D01*
X146625148Y-94840000D01*
X146403463Y-94884096D01*
X146152071Y-95052071D01*
X146109671Y-95115527D01*
X145015530Y-96209669D01*
X144952071Y-96252071D01*
X144784096Y-96503464D01*
X144760000Y-96624602D01*
X144760000Y-96114801D01*
X148674802Y-92200000D01*
X155295000Y-92200000D01*
X155415156Y-92958637D01*
X155763863Y-93643013D01*
X156306987Y-94186137D01*
X156991363Y-94534844D01*
X157750000Y-94655000D01*
X158508637Y-94534844D01*
X159193013Y-94186137D01*
X159736137Y-93643013D01*
X160084844Y-92958637D01*
X160205000Y-92200000D01*
X160084844Y-91441363D01*
X159736137Y-90756987D01*
X159193013Y-90213863D01*
X158508637Y-89865156D01*
X157750000Y-89745000D01*
X156991363Y-89865156D01*
X156306987Y-90213863D01*
X155763863Y-90756987D01*
X155415156Y-91441363D01*
X155295000Y-92200000D01*
X148674802Y-92200000D01*
X149384476Y-91490327D01*
X149447929Y-91447929D01*
X149490327Y-91384476D01*
X149490329Y-91384474D01*
X149615903Y-91196538D01*
X149615904Y-91196537D01*
X149660000Y-90974852D01*
X149660000Y-90974848D01*
X149674888Y-90900001D01*
X149660000Y-90825154D01*
X149660000Y-84650000D01*
X150002560Y-84650000D01*
X150002560Y-86350000D01*
X150051843Y-86597765D01*
X150192191Y-86807809D01*
X150402235Y-86948157D01*
X150650000Y-86997440D01*
X152350000Y-86997440D01*
X152597765Y-86948157D01*
X152807809Y-86807809D01*
X152948157Y-86597765D01*
X152957184Y-86552381D01*
X152969375Y-86570625D01*
X153460582Y-86898839D01*
X153893744Y-86985000D01*
X154186256Y-86985000D01*
X154619418Y-86898839D01*
X155110625Y-86570625D01*
X155310000Y-86272239D01*
X155509375Y-86570625D01*
X156000582Y-86898839D01*
X156433744Y-86985000D01*
X156726256Y-86985000D01*
X157159418Y-86898839D01*
X157650625Y-86570625D01*
X157850000Y-86272239D01*
X158049375Y-86570625D01*
X158540582Y-86898839D01*
X158973744Y-86985000D01*
X159266256Y-86985000D01*
X159699418Y-86898839D01*
X160190625Y-86570625D01*
X160390000Y-86272239D01*
X160589375Y-86570625D01*
X161080582Y-86898839D01*
X161513744Y-86985000D01*
X161806256Y-86985000D01*
X162239418Y-86898839D01*
X162730625Y-86570625D01*
X162943843Y-86251522D01*
X163004817Y-86381358D01*
X163433076Y-86771645D01*
X163843110Y-86941476D01*
X164073000Y-86820155D01*
X164073000Y-85627000D01*
X164053000Y-85627000D01*
X164053000Y-85373000D01*
X164073000Y-85373000D01*
X164073000Y-84179845D01*
X163843110Y-84058524D01*
X163433076Y-84228355D01*
X163004817Y-84618642D01*
X162943843Y-84748478D01*
X162730625Y-84429375D01*
X162239418Y-84101161D01*
X161806256Y-84015000D01*
X161513744Y-84015000D01*
X161080582Y-84101161D01*
X160589375Y-84429375D01*
X160390000Y-84727761D01*
X160190625Y-84429375D01*
X159699418Y-84101161D01*
X159266256Y-84015000D01*
X158973744Y-84015000D01*
X158540582Y-84101161D01*
X158049375Y-84429375D01*
X157850000Y-84727761D01*
X157650625Y-84429375D01*
X157159418Y-84101161D01*
X156726256Y-84015000D01*
X156433744Y-84015000D01*
X156000582Y-84101161D01*
X155509375Y-84429375D01*
X155310000Y-84727761D01*
X155110625Y-84429375D01*
X154800000Y-84221822D01*
X154800000Y-82214847D01*
X154814888Y-82140000D01*
X154800000Y-82065153D01*
X154800000Y-82065148D01*
X154755904Y-81843463D01*
X154587929Y-81592071D01*
X154524473Y-81549671D01*
X152960000Y-79985199D01*
X152960000Y-76700000D01*
X155295000Y-76700000D01*
X155415156Y-77458637D01*
X155763863Y-78143013D01*
X156306987Y-78686137D01*
X156991363Y-79034844D01*
X157750000Y-79155000D01*
X158508637Y-79034844D01*
X159193013Y-78686137D01*
X159736137Y-78143013D01*
X160084844Y-77458637D01*
X160205000Y-76700000D01*
X160084844Y-75941363D01*
X159736137Y-75256987D01*
X159193013Y-74713863D01*
X158508637Y-74365156D01*
X157750000Y-74245000D01*
X156991363Y-74365156D01*
X156306987Y-74713863D01*
X155763863Y-75256987D01*
X155415156Y-75941363D01*
X155295000Y-76700000D01*
X152960000Y-76700000D01*
X152960000Y-71990000D01*
X153404250Y-71990000D01*
X153563000Y-71831250D01*
X153563000Y-70707000D01*
X153817000Y-70707000D01*
X153817000Y-71831250D01*
X153975750Y-71990000D01*
X154591310Y-71990000D01*
X154824699Y-71893327D01*
X155003327Y-71714698D01*
X155100000Y-71481309D01*
X155100000Y-70865750D01*
X159900000Y-70865750D01*
X159900000Y-71481310D01*
X159996673Y-71714699D01*
X160175302Y-71893327D01*
X160408691Y-71990000D01*
X161024250Y-71990000D01*
X161183000Y-71831250D01*
X161183000Y-70707000D01*
X161437000Y-70707000D01*
X161437000Y-71831250D01*
X161595750Y-71990000D01*
X162211309Y-71990000D01*
X162444698Y-71893327D01*
X162623327Y-71714699D01*
X162720000Y-71481310D01*
X162720000Y-70865750D01*
X162561250Y-70707000D01*
X161437000Y-70707000D01*
X161183000Y-70707000D01*
X160058750Y-70707000D01*
X159900000Y-70865750D01*
X155100000Y-70865750D01*
X154941250Y-70707000D01*
X153817000Y-70707000D01*
X153563000Y-70707000D01*
X153543000Y-70707000D01*
X153543000Y-70453000D01*
X153563000Y-70453000D01*
X153563000Y-70433000D01*
X153817000Y-70433000D01*
X153817000Y-70453000D01*
X154941250Y-70453000D01*
X155100000Y-70294250D01*
X155100000Y-69678691D01*
X155003327Y-69445302D01*
X154824699Y-69266673D01*
X154591310Y-69170000D01*
X154554042Y-69170000D01*
X154885341Y-68838701D01*
X155100000Y-68320467D01*
X155100000Y-67759533D01*
X154885341Y-67241299D01*
X154488701Y-66844659D01*
X154308458Y-66770000D01*
X154488701Y-66695341D01*
X154885341Y-66298701D01*
X155100000Y-65780467D01*
X155100000Y-65219533D01*
X154885341Y-64701299D01*
X154488701Y-64304659D01*
X154308458Y-64230000D01*
X154488701Y-64155341D01*
X154885341Y-63758701D01*
X155100000Y-63240467D01*
X155100000Y-62679533D01*
X154885341Y-62161299D01*
X154488701Y-61764659D01*
X154308458Y-61690000D01*
X154488701Y-61615341D01*
X154885341Y-61218701D01*
X155100000Y-60700467D01*
X155100000Y-60139533D01*
X154885341Y-59621299D01*
X154488701Y-59224659D01*
X153970467Y-59010000D01*
X153409533Y-59010000D01*
X152891299Y-59224659D01*
X152494659Y-59621299D01*
X152280000Y-60139533D01*
X152280000Y-60700467D01*
X152494659Y-61218701D01*
X152891299Y-61615341D01*
X153071542Y-61690000D01*
X152891299Y-61764659D01*
X152494659Y-62161299D01*
X152280000Y-62679533D01*
X152280000Y-63240467D01*
X152296030Y-63279168D01*
X151015530Y-64559669D01*
X150952071Y-64602071D01*
X150784096Y-64853464D01*
X150740000Y-65075149D01*
X150740000Y-65075153D01*
X150725112Y-65150000D01*
X150740000Y-65224847D01*
X150740001Y-84002560D01*
X150650000Y-84002560D01*
X150402235Y-84051843D01*
X150192191Y-84192191D01*
X150051843Y-84402235D01*
X150002560Y-84650000D01*
X149660000Y-84650000D01*
X149660000Y-63574848D01*
X149674888Y-63500000D01*
X149660000Y-63425152D01*
X149660000Y-63425148D01*
X149615904Y-63203463D01*
X149615904Y-63203462D01*
X149490329Y-63015527D01*
X149447929Y-62952071D01*
X149384473Y-62909671D01*
X146210000Y-59735199D01*
X146210000Y-56174848D01*
X146224888Y-56100000D01*
X146210000Y-56025152D01*
X146210000Y-56025148D01*
X146165904Y-55803463D01*
X145997929Y-55552071D01*
X145934473Y-55509671D01*
X143703969Y-53279168D01*
X143720000Y-53240467D01*
X143720000Y-52679533D01*
X143505341Y-52161299D01*
X143108701Y-51764659D01*
X142928458Y-51690000D01*
X143108701Y-51615341D01*
X143505341Y-51218701D01*
X143720000Y-50700467D01*
X143720000Y-50139533D01*
X143505341Y-49621299D01*
X143108701Y-49224659D01*
X142590467Y-49010000D01*
X142029533Y-49010000D01*
X141511299Y-49224659D01*
X141114659Y-49621299D01*
X140900000Y-50139533D01*
X140900000Y-50700467D01*
X141114659Y-51218701D01*
X141511299Y-51615341D01*
X141691542Y-51690000D01*
X141511299Y-51764659D01*
X141114659Y-52161299D01*
X140900000Y-52679533D01*
X140900000Y-53240467D01*
X141114659Y-53758701D01*
X141511299Y-54155341D01*
X141691542Y-54230000D01*
X141511299Y-54304659D01*
X141114659Y-54701299D01*
X140900000Y-55219533D01*
X140900000Y-55780467D01*
X141114659Y-56298701D01*
X141511299Y-56695341D01*
X141691542Y-56770000D01*
X141511299Y-56844659D01*
X141114659Y-57241299D01*
X140900000Y-57759533D01*
X140900000Y-58320467D01*
X141114659Y-58838701D01*
X141445958Y-59170000D01*
X141408691Y-59170000D01*
X141175302Y-59266673D01*
X140996673Y-59445301D01*
X140900000Y-59678690D01*
X140900000Y-60294250D01*
X141058750Y-60453000D01*
X142183000Y-60453000D01*
X142183000Y-60433000D01*
X142437000Y-60433000D01*
X142437000Y-60453000D01*
X143561250Y-60453000D01*
X143720000Y-60294250D01*
X143720000Y-59678690D01*
X143623327Y-59445301D01*
X143444698Y-59266673D01*
X143211309Y-59170000D01*
X143174042Y-59170000D01*
X143505341Y-58838701D01*
X143720000Y-58320467D01*
X143720000Y-57984802D01*
X144140000Y-58404802D01*
X144140001Y-60425148D01*
X144125112Y-60500000D01*
X144184097Y-60796537D01*
X144293320Y-60960000D01*
X144352072Y-61047929D01*
X144415528Y-61090329D01*
X147540000Y-64214802D01*
X147540001Y-90185197D01*
X145287906Y-92437293D01*
X145285000Y-92422684D01*
X145285000Y-89577316D01*
X145300379Y-89500000D01*
X145239454Y-89193708D01*
X145065953Y-88934047D01*
X144806292Y-88760546D01*
X144577316Y-88715000D01*
X144500000Y-88699621D01*
X144422684Y-88715000D01*
X131859802Y-88715000D01*
X132114802Y-88460000D01*
X141625153Y-88460000D01*
X141700000Y-88474888D01*
X141774847Y-88460000D01*
X141774852Y-88460000D01*
X141996537Y-88415904D01*
X142247929Y-88247929D01*
X142290331Y-88184470D01*
X143144473Y-87330329D01*
X143207929Y-87287929D01*
X143375904Y-87036537D01*
X143420000Y-86814852D01*
X143420000Y-86814848D01*
X143434888Y-86740001D01*
X143420000Y-86665154D01*
X143420000Y-76778178D01*
X143730625Y-76570625D01*
X143943843Y-76251522D01*
X144004817Y-76381358D01*
X144433076Y-76771645D01*
X144843110Y-76941476D01*
X145073000Y-76820155D01*
X145073000Y-75627000D01*
X145327000Y-75627000D01*
X145327000Y-76820155D01*
X145556890Y-76941476D01*
X145966924Y-76771645D01*
X146395183Y-76381358D01*
X146641486Y-75856892D01*
X146520819Y-75627000D01*
X145327000Y-75627000D01*
X145073000Y-75627000D01*
X145053000Y-75627000D01*
X145053000Y-75373000D01*
X145073000Y-75373000D01*
X145073000Y-74179845D01*
X145327000Y-74179845D01*
X145327000Y-75373000D01*
X146520819Y-75373000D01*
X146641486Y-75143108D01*
X146395183Y-74618642D01*
X145966924Y-74228355D01*
X145556890Y-74058524D01*
X145327000Y-74179845D01*
X145073000Y-74179845D01*
X144843110Y-74058524D01*
X144433076Y-74228355D01*
X144004817Y-74618642D01*
X143943843Y-74748478D01*
X143730625Y-74429375D01*
X143239418Y-74101161D01*
X142806256Y-74015000D01*
X142513744Y-74015000D01*
X142080582Y-74101161D01*
X141589375Y-74429375D01*
X141390000Y-74727761D01*
X141190625Y-74429375D01*
X140699418Y-74101161D01*
X140266256Y-74015000D01*
X139973744Y-74015000D01*
X139540582Y-74101161D01*
X139049375Y-74429375D01*
X138850000Y-74727761D01*
X138650625Y-74429375D01*
X138159418Y-74101161D01*
X137726256Y-74015000D01*
X137433744Y-74015000D01*
X137000582Y-74101161D01*
X136509375Y-74429375D01*
X136310000Y-74727761D01*
X136110625Y-74429375D01*
X135800000Y-74221822D01*
X135800000Y-71714846D01*
X135814888Y-71639999D01*
X135800000Y-71565152D01*
X135800000Y-71565148D01*
X135755904Y-71343463D01*
X135714102Y-71280902D01*
X135630329Y-71155526D01*
X135630327Y-71155524D01*
X135587929Y-71092071D01*
X135524476Y-71049673D01*
X133860000Y-69385199D01*
X133860000Y-66700000D01*
X135795000Y-66700000D01*
X135915156Y-67458637D01*
X136263863Y-68143013D01*
X136806987Y-68686137D01*
X137491363Y-69034844D01*
X138250000Y-69155000D01*
X139008637Y-69034844D01*
X139693013Y-68686137D01*
X140236137Y-68143013D01*
X140584844Y-67458637D01*
X140705000Y-66700000D01*
X140584844Y-65941363D01*
X140236137Y-65256987D01*
X139693013Y-64713863D01*
X139008637Y-64365156D01*
X138250000Y-64245000D01*
X137491363Y-64365156D01*
X136806987Y-64713863D01*
X136263863Y-65256987D01*
X135915156Y-65941363D01*
X135795000Y-66700000D01*
X133860000Y-66700000D01*
X133860000Y-61990000D01*
X134404250Y-61990000D01*
X134563000Y-61831250D01*
X134563000Y-60707000D01*
X134817000Y-60707000D01*
X134817000Y-61831250D01*
X134975750Y-61990000D01*
X135591310Y-61990000D01*
X135824699Y-61893327D01*
X136003327Y-61714698D01*
X136100000Y-61481309D01*
X136100000Y-60865750D01*
X140900000Y-60865750D01*
X140900000Y-61481310D01*
X140996673Y-61714699D01*
X141175302Y-61893327D01*
X141408691Y-61990000D01*
X142024250Y-61990000D01*
X142183000Y-61831250D01*
X142183000Y-60707000D01*
X142437000Y-60707000D01*
X142437000Y-61831250D01*
X142595750Y-61990000D01*
X143211309Y-61990000D01*
X143444698Y-61893327D01*
X143623327Y-61714699D01*
X143720000Y-61481310D01*
X143720000Y-60865750D01*
X143561250Y-60707000D01*
X142437000Y-60707000D01*
X142183000Y-60707000D01*
X141058750Y-60707000D01*
X140900000Y-60865750D01*
X136100000Y-60865750D01*
X135941250Y-60707000D01*
X134817000Y-60707000D01*
X134563000Y-60707000D01*
X134543000Y-60707000D01*
X134543000Y-60453000D01*
X134563000Y-60453000D01*
X134563000Y-60433000D01*
X134817000Y-60433000D01*
X134817000Y-60453000D01*
X135941250Y-60453000D01*
X136100000Y-60294250D01*
X136100000Y-59678691D01*
X136003327Y-59445302D01*
X135824699Y-59266673D01*
X135591310Y-59170000D01*
X135554042Y-59170000D01*
X135885341Y-58838701D01*
X136100000Y-58320467D01*
X136100000Y-57759533D01*
X135885341Y-57241299D01*
X135488701Y-56844659D01*
X135308458Y-56770000D01*
X135488701Y-56695341D01*
X135885341Y-56298701D01*
X136100000Y-55780467D01*
X136100000Y-55219533D01*
X135885341Y-54701299D01*
X135488701Y-54304659D01*
X135308458Y-54230000D01*
X135488701Y-54155341D01*
X135885341Y-53758701D01*
X136100000Y-53240467D01*
X136100000Y-52679533D01*
X135885341Y-52161299D01*
X135488701Y-51764659D01*
X135308458Y-51690000D01*
X135488701Y-51615341D01*
X135885341Y-51218701D01*
X136100000Y-50700467D01*
X136100000Y-50139533D01*
X135885341Y-49621299D01*
X135488701Y-49224659D01*
X134970467Y-49010000D01*
X134409533Y-49010000D01*
X133891299Y-49224659D01*
X133494659Y-49621299D01*
X133280000Y-50139533D01*
X133280000Y-50700467D01*
X133494659Y-51218701D01*
X133891299Y-51615341D01*
X134071542Y-51690000D01*
X133891299Y-51764659D01*
X133494659Y-52161299D01*
X133280000Y-52679533D01*
X133280000Y-53240467D01*
X133296030Y-53279168D01*
X132015530Y-54559669D01*
X131952071Y-54602071D01*
X131784096Y-54853464D01*
X131740000Y-55075149D01*
X131740000Y-55075153D01*
X131725112Y-55150000D01*
X131740000Y-55224847D01*
X131740001Y-74002560D01*
X131650000Y-74002560D01*
X131402235Y-74051843D01*
X131192191Y-74192191D01*
X131051843Y-74402235D01*
X131002560Y-74650000D01*
X131002560Y-76350000D01*
X131051843Y-76597765D01*
X131192191Y-76807809D01*
X131402235Y-76948157D01*
X131650000Y-76997440D01*
X133350000Y-76997440D01*
X133597765Y-76948157D01*
X133807809Y-76807809D01*
X133948157Y-76597765D01*
X133957184Y-76552381D01*
X133969375Y-76570625D01*
X134460582Y-76898839D01*
X134893744Y-76985000D01*
X135186256Y-76985000D01*
X135619418Y-76898839D01*
X136110625Y-76570625D01*
X136310000Y-76272239D01*
X136509375Y-76570625D01*
X137000582Y-76898839D01*
X137433744Y-76985000D01*
X137726256Y-76985000D01*
X138159418Y-76898839D01*
X138650625Y-76570625D01*
X138850000Y-76272239D01*
X139049375Y-76570625D01*
X139360286Y-76778369D01*
X139404096Y-76998617D01*
X139572071Y-77250010D01*
X139635530Y-77292412D01*
X141240001Y-78896885D01*
X141240000Y-85885198D01*
X140985198Y-86140000D01*
X131638438Y-86140000D01*
X131563590Y-86125112D01*
X131488742Y-86140000D01*
X131488738Y-86140000D01*
X131267053Y-86184096D01*
X131015661Y-86352071D01*
X130973261Y-86415527D01*
X129115528Y-88273261D01*
X129052072Y-88315661D01*
X129009672Y-88379117D01*
X129009671Y-88379118D01*
X128884097Y-88567053D01*
X128825112Y-88863590D01*
X128840001Y-88938442D01*
X128840000Y-93861563D01*
X128825112Y-93936410D01*
X128840000Y-94011257D01*
X128840000Y-94011261D01*
X128884096Y-94232946D01*
X129052071Y-94484339D01*
X129115530Y-94526741D01*
X129840001Y-95251213D01*
X129840001Y-97965199D01*
X124420000Y-92545199D01*
X124420000Y-84778178D01*
X124730625Y-84570625D01*
X124943843Y-84251522D01*
X125004817Y-84381358D01*
X125433076Y-84771645D01*
X125843110Y-84941476D01*
X126073000Y-84820155D01*
X126073000Y-83627000D01*
X126327000Y-83627000D01*
X126327000Y-84820155D01*
X126556890Y-84941476D01*
X126966924Y-84771645D01*
X127395183Y-84381358D01*
X127641486Y-83856892D01*
X127520819Y-83627000D01*
X126327000Y-83627000D01*
X126073000Y-83627000D01*
X126053000Y-83627000D01*
X126053000Y-83373000D01*
X126073000Y-83373000D01*
X126073000Y-82179845D01*
X126327000Y-82179845D01*
X126327000Y-83373000D01*
X127520819Y-83373000D01*
X127641486Y-83143108D01*
X127395183Y-82618642D01*
X126966924Y-82228355D01*
X126898465Y-82200000D01*
X135795000Y-82200000D01*
X135915156Y-82958637D01*
X136263863Y-83643013D01*
X136806987Y-84186137D01*
X137491363Y-84534844D01*
X138250000Y-84655000D01*
X139008637Y-84534844D01*
X139693013Y-84186137D01*
X140236137Y-83643013D01*
X140584844Y-82958637D01*
X140705000Y-82200000D01*
X140584844Y-81441363D01*
X140236137Y-80756987D01*
X139693013Y-80213863D01*
X139008637Y-79865156D01*
X138250000Y-79745000D01*
X137491363Y-79865156D01*
X136806987Y-80213863D01*
X136263863Y-80756987D01*
X135915156Y-81441363D01*
X135795000Y-82200000D01*
X126898465Y-82200000D01*
X126556890Y-82058524D01*
X126327000Y-82179845D01*
X126073000Y-82179845D01*
X125843110Y-82058524D01*
X125433076Y-82228355D01*
X125004817Y-82618642D01*
X124943843Y-82748478D01*
X124730625Y-82429375D01*
X124239418Y-82101161D01*
X123806256Y-82015000D01*
X123513744Y-82015000D01*
X123080582Y-82101161D01*
X122589375Y-82429375D01*
X122390000Y-82727761D01*
X122190625Y-82429375D01*
X121699418Y-82101161D01*
X121266256Y-82015000D01*
X120973744Y-82015000D01*
X120540582Y-82101161D01*
X120049375Y-82429375D01*
X119850000Y-82727761D01*
X119650625Y-82429375D01*
X119159418Y-82101161D01*
X118726256Y-82015000D01*
X118433744Y-82015000D01*
X118000582Y-82101161D01*
X117509375Y-82429375D01*
X117310000Y-82727761D01*
X117110625Y-82429375D01*
X116800000Y-82221822D01*
X116800000Y-77114846D01*
X116814888Y-77039999D01*
X116800000Y-76965152D01*
X116800000Y-76965148D01*
X116755904Y-76743463D01*
X116587929Y-76492071D01*
X116524473Y-76449671D01*
X114774802Y-74700000D01*
X116295000Y-74700000D01*
X116415156Y-75458637D01*
X116763863Y-76143013D01*
X117306987Y-76686137D01*
X117991363Y-77034844D01*
X118750000Y-77155000D01*
X119508637Y-77034844D01*
X120193013Y-76686137D01*
X120736137Y-76143013D01*
X121084844Y-75458637D01*
X121205000Y-74700000D01*
X121084844Y-73941363D01*
X120736137Y-73256987D01*
X120193013Y-72713863D01*
X119508637Y-72365156D01*
X118750000Y-72245000D01*
X117991363Y-72365156D01*
X117306987Y-72713863D01*
X116763863Y-73256987D01*
X116415156Y-73941363D01*
X116295000Y-74700000D01*
X114774802Y-74700000D01*
X113760000Y-73685199D01*
X113760000Y-69978116D01*
X113788690Y-69990000D01*
X114404250Y-69990000D01*
X114563000Y-69831250D01*
X114563000Y-68707000D01*
X114817000Y-68707000D01*
X114817000Y-69831250D01*
X114975750Y-69990000D01*
X115591310Y-69990000D01*
X115824699Y-69893327D01*
X116003327Y-69714698D01*
X116100000Y-69481309D01*
X116100000Y-68865750D01*
X120900000Y-68865750D01*
X120900000Y-69481310D01*
X120996673Y-69714699D01*
X121175302Y-69893327D01*
X121408691Y-69990000D01*
X122024250Y-69990000D01*
X122183000Y-69831250D01*
X122183000Y-68707000D01*
X122437000Y-68707000D01*
X122437000Y-69831250D01*
X122595750Y-69990000D01*
X123211309Y-69990000D01*
X123444698Y-69893327D01*
X123623327Y-69714699D01*
X123720000Y-69481310D01*
X123720000Y-68865750D01*
X123561250Y-68707000D01*
X122437000Y-68707000D01*
X122183000Y-68707000D01*
X121058750Y-68707000D01*
X120900000Y-68865750D01*
X116100000Y-68865750D01*
X115941250Y-68707000D01*
X114817000Y-68707000D01*
X114563000Y-68707000D01*
X114543000Y-68707000D01*
X114543000Y-68453000D01*
X114563000Y-68453000D01*
X114563000Y-68433000D01*
X114817000Y-68433000D01*
X114817000Y-68453000D01*
X115941250Y-68453000D01*
X116100000Y-68294250D01*
X116100000Y-67678691D01*
X116003327Y-67445302D01*
X115824699Y-67266673D01*
X115591310Y-67170000D01*
X115554042Y-67170000D01*
X115885341Y-66838701D01*
X116100000Y-66320467D01*
X116100000Y-65759533D01*
X115885341Y-65241299D01*
X115488701Y-64844659D01*
X115308458Y-64770000D01*
X115488701Y-64695341D01*
X115885341Y-64298701D01*
X116100000Y-63780467D01*
X116100000Y-63219533D01*
X115885341Y-62701299D01*
X115488701Y-62304659D01*
X115308458Y-62230000D01*
X115488701Y-62155341D01*
X115885341Y-61758701D01*
X116100000Y-61240467D01*
X116100000Y-60679533D01*
X115885341Y-60161299D01*
X115488701Y-59764659D01*
X115308458Y-59690000D01*
X115488701Y-59615341D01*
X115885341Y-59218701D01*
X116100000Y-58700467D01*
X116100000Y-58139533D01*
X120900000Y-58139533D01*
X120900000Y-58700467D01*
X121114659Y-59218701D01*
X121511299Y-59615341D01*
X121691542Y-59690000D01*
X121511299Y-59764659D01*
X121114659Y-60161299D01*
X120900000Y-60679533D01*
X120900000Y-61240467D01*
X121114659Y-61758701D01*
X121511299Y-62155341D01*
X121691542Y-62230000D01*
X121511299Y-62304659D01*
X121114659Y-62701299D01*
X120900000Y-63219533D01*
X120900000Y-63780467D01*
X121114659Y-64298701D01*
X121511299Y-64695341D01*
X121691542Y-64770000D01*
X121511299Y-64844659D01*
X121114659Y-65241299D01*
X120900000Y-65759533D01*
X120900000Y-66320467D01*
X121114659Y-66838701D01*
X121445958Y-67170000D01*
X121408691Y-67170000D01*
X121175302Y-67266673D01*
X120996673Y-67445301D01*
X120900000Y-67678690D01*
X120900000Y-68294250D01*
X121058750Y-68453000D01*
X122183000Y-68453000D01*
X122183000Y-68433000D01*
X122437000Y-68433000D01*
X122437000Y-68453000D01*
X123561250Y-68453000D01*
X123720000Y-68294250D01*
X123720000Y-67678690D01*
X123623327Y-67445301D01*
X123444698Y-67266673D01*
X123211309Y-67170000D01*
X123174042Y-67170000D01*
X123505341Y-66838701D01*
X123720000Y-66320467D01*
X123720000Y-65759533D01*
X123505341Y-65241299D01*
X123108701Y-64844659D01*
X122928458Y-64770000D01*
X123108701Y-64695341D01*
X123505341Y-64298701D01*
X123720000Y-63780467D01*
X123720000Y-63219533D01*
X123505341Y-62701299D01*
X123108701Y-62304659D01*
X122928458Y-62230000D01*
X123108701Y-62155341D01*
X123505341Y-61758701D01*
X123720000Y-61240467D01*
X123720000Y-60679533D01*
X123505341Y-60161299D01*
X123108701Y-59764659D01*
X122928458Y-59690000D01*
X123108701Y-59615341D01*
X123505341Y-59218701D01*
X123720000Y-58700467D01*
X123720000Y-58139533D01*
X123505341Y-57621299D01*
X123108701Y-57224659D01*
X122590467Y-57010000D01*
X122029533Y-57010000D01*
X121511299Y-57224659D01*
X121114659Y-57621299D01*
X120900000Y-58139533D01*
X116100000Y-58139533D01*
X115885341Y-57621299D01*
X115488701Y-57224659D01*
X114970467Y-57010000D01*
X114409533Y-57010000D01*
X113891299Y-57224659D01*
X113494659Y-57621299D01*
X113280000Y-58139533D01*
X113280000Y-58700467D01*
X113494659Y-59218701D01*
X113891299Y-59615341D01*
X114071542Y-59690000D01*
X113891299Y-59764659D01*
X113494659Y-60161299D01*
X113280000Y-60679533D01*
X113280000Y-61240467D01*
X113296030Y-61279168D01*
X112022778Y-62552421D01*
X112014252Y-62558118D01*
X111614252Y-62958118D01*
X111550630Y-63000629D01*
X111508119Y-63064251D01*
X111508118Y-63064252D01*
X111382213Y-63252683D01*
X111323073Y-63550000D01*
X111338001Y-63625048D01*
X111338000Y-74524957D01*
X111323073Y-74600000D01*
X111338000Y-74675043D01*
X111338000Y-74675047D01*
X111382212Y-74897316D01*
X111550629Y-75149371D01*
X111614254Y-75191884D01*
X112014252Y-75591882D01*
X112022777Y-75597579D01*
X112740001Y-76314803D01*
X112740000Y-82002560D01*
X112650000Y-82002560D01*
X112402235Y-82051843D01*
X112192191Y-82192191D01*
X112051843Y-82402235D01*
X112002560Y-82650000D01*
X112002560Y-84350000D01*
X112051843Y-84597765D01*
X112192191Y-84807809D01*
X112402235Y-84948157D01*
X112650000Y-84997440D01*
X114350000Y-84997440D01*
X114597765Y-84948157D01*
X114807809Y-84807809D01*
X114948157Y-84597765D01*
X114957184Y-84552381D01*
X114969375Y-84570625D01*
X115460582Y-84898839D01*
X115893744Y-84985000D01*
X116186256Y-84985000D01*
X116619418Y-84898839D01*
X117110625Y-84570625D01*
X117310000Y-84272239D01*
X117509375Y-84570625D01*
X118000582Y-84898839D01*
X118433744Y-84985000D01*
X118726256Y-84985000D01*
X119159418Y-84898839D01*
X119650625Y-84570625D01*
X119850000Y-84272239D01*
X120049375Y-84570625D01*
X120332633Y-84759892D01*
X120340000Y-84796928D01*
X120340001Y-85925149D01*
X120325112Y-86000000D01*
X120384097Y-86296537D01*
X120507559Y-86481310D01*
X120552072Y-86547929D01*
X120615528Y-86590329D01*
X122240000Y-88214802D01*
X122240001Y-92925148D01*
X122225112Y-93000000D01*
X122240001Y-93074852D01*
X122284097Y-93296537D01*
X122452072Y-93547929D01*
X122515528Y-93590329D01*
X128440001Y-99514803D01*
X128440001Y-105714074D01*
X128395183Y-105618642D01*
X127966924Y-105228355D01*
X127556890Y-105058524D01*
X127327000Y-105179845D01*
X127327000Y-106373000D01*
X127347000Y-106373000D01*
X127347000Y-106627000D01*
X127327000Y-106627000D01*
X127327000Y-107820155D01*
X127556890Y-107941476D01*
X127966924Y-107771645D01*
X128395183Y-107381358D01*
X128440000Y-107285926D01*
X128440000Y-114565198D01*
X125420000Y-111545199D01*
X125420000Y-107778178D01*
X125730625Y-107570625D01*
X125943843Y-107251522D01*
X126004817Y-107381358D01*
X126433076Y-107771645D01*
X126843110Y-107941476D01*
X127073000Y-107820155D01*
X127073000Y-106627000D01*
X127053000Y-106627000D01*
X127053000Y-106373000D01*
X127073000Y-106373000D01*
X127073000Y-105179845D01*
X126843110Y-105058524D01*
X126433076Y-105228355D01*
X126004817Y-105618642D01*
X125943843Y-105748478D01*
X125730625Y-105429375D01*
X125239418Y-105101161D01*
X124806256Y-105015000D01*
X124513744Y-105015000D01*
X124080582Y-105101161D01*
X123589375Y-105429375D01*
X123390000Y-105727761D01*
X123190625Y-105429375D01*
X122699418Y-105101161D01*
X122266256Y-105015000D01*
X121973744Y-105015000D01*
X121540582Y-105101161D01*
X121049375Y-105429375D01*
X120850000Y-105727761D01*
X120650625Y-105429375D01*
X120159418Y-105101161D01*
X119726256Y-105015000D01*
X119433744Y-105015000D01*
X119000582Y-105101161D01*
X118509375Y-105429375D01*
X118310000Y-105727761D01*
X118110625Y-105429375D01*
X117619418Y-105101161D01*
X117186256Y-105015000D01*
X116893744Y-105015000D01*
X116460582Y-105101161D01*
X115969375Y-105429375D01*
X115957184Y-105447619D01*
X115948157Y-105402235D01*
X115807809Y-105192191D01*
X115597765Y-105051843D01*
X115350000Y-105002560D01*
X113650000Y-105002560D01*
X113402235Y-105051843D01*
X113192191Y-105192191D01*
X113051843Y-105402235D01*
X113002560Y-105650000D01*
X113002560Y-107350000D01*
X113051843Y-107597765D01*
X113192191Y-107807809D01*
X113402235Y-107948157D01*
X113650000Y-107997440D01*
X113740001Y-107997440D01*
X113740001Y-108725148D01*
X113725112Y-108800000D01*
X113784097Y-109096537D01*
X113878884Y-109238395D01*
X113952072Y-109347929D01*
X114015528Y-109390329D01*
X120440000Y-115814802D01*
X120440000Y-117204487D01*
X119970467Y-117010000D01*
X119409533Y-117010000D01*
X118891299Y-117224659D01*
X118494659Y-117621299D01*
X118280000Y-118139533D01*
X118280000Y-118700467D01*
X118494659Y-119218701D01*
X118891299Y-119615341D01*
X119071542Y-119690000D01*
X118891299Y-119764659D01*
X118494659Y-120161299D01*
X118280000Y-120679533D01*
X118280000Y-121240467D01*
X118494659Y-121758701D01*
X118891299Y-122155341D01*
X119071542Y-122230000D01*
X118891299Y-122304659D01*
X118494659Y-122701299D01*
X118280000Y-123219533D01*
X118280000Y-123780467D01*
X118494659Y-124298701D01*
X118891299Y-124695341D01*
X119071542Y-124770000D01*
X118891299Y-124844659D01*
X118494659Y-125241299D01*
X118280000Y-125759533D01*
X118280000Y-126320467D01*
X118494659Y-126838701D01*
X118825958Y-127170000D01*
X118788690Y-127170000D01*
X118555301Y-127266673D01*
X118376673Y-127445302D01*
X118280000Y-127678691D01*
X118280000Y-128294250D01*
X118438750Y-128453000D01*
X119563000Y-128453000D01*
X119563000Y-128433000D01*
X119817000Y-128433000D01*
X119817000Y-128453000D01*
X120941250Y-128453000D01*
X121100000Y-128294250D01*
X121100000Y-127678691D01*
X121003327Y-127445302D01*
X120824699Y-127266673D01*
X120591310Y-127170000D01*
X120554042Y-127170000D01*
X120885341Y-126838701D01*
X121100000Y-126320467D01*
X121100000Y-125759533D01*
X120885341Y-125241299D01*
X120488701Y-124844659D01*
X120308458Y-124770000D01*
X120488701Y-124695341D01*
X120885341Y-124298701D01*
X121100000Y-123780467D01*
X121100000Y-123219533D01*
X121083970Y-123180832D01*
X121780329Y-122484474D01*
X121780332Y-122484469D01*
X121890329Y-122374473D01*
X121890330Y-122374471D01*
X122384473Y-121880329D01*
X122447929Y-121837929D01*
X122615904Y-121586537D01*
X122660000Y-121364852D01*
X122660000Y-121364848D01*
X122674888Y-121290000D01*
X122660000Y-121215152D01*
X122660000Y-115074847D01*
X122674888Y-115000000D01*
X122660000Y-114925153D01*
X122660000Y-114925148D01*
X122615904Y-114703463D01*
X122447929Y-114452071D01*
X122384473Y-114409671D01*
X117800000Y-109825199D01*
X117800000Y-107778178D01*
X118110625Y-107570625D01*
X118310000Y-107272239D01*
X118509375Y-107570625D01*
X119000582Y-107898839D01*
X119433744Y-107985000D01*
X119726256Y-107985000D01*
X120159418Y-107898839D01*
X120650625Y-107570625D01*
X120850000Y-107272239D01*
X121049375Y-107570625D01*
X121360000Y-107778178D01*
X121360001Y-110045148D01*
X121345112Y-110120000D01*
X121404097Y-110416537D01*
X121529641Y-110604426D01*
X121572072Y-110667929D01*
X121635528Y-110710329D01*
X127840000Y-116914802D01*
X127840000Y-117113360D01*
X127590467Y-117010000D01*
X127029533Y-117010000D01*
X126511299Y-117224659D01*
X126114659Y-117621299D01*
X125900000Y-118139533D01*
X125900000Y-118700467D01*
X126114659Y-119218701D01*
X126511299Y-119615341D01*
X126691542Y-119690000D01*
X126511299Y-119764659D01*
X126114659Y-120161299D01*
X125900000Y-120679533D01*
X125900000Y-121240467D01*
X126114659Y-121758701D01*
X126511299Y-122155341D01*
X126691542Y-122230000D01*
X126511299Y-122304659D01*
X126114659Y-122701299D01*
X125900000Y-123219533D01*
X125900000Y-123780467D01*
X126114659Y-124298701D01*
X126511299Y-124695341D01*
X126691542Y-124770000D01*
X126511299Y-124844659D01*
X126114659Y-125241299D01*
X125900000Y-125759533D01*
X125900000Y-126320467D01*
X126114659Y-126838701D01*
X126445958Y-127170000D01*
X126408691Y-127170000D01*
X126175302Y-127266673D01*
X125996673Y-127445301D01*
X125900000Y-127678690D01*
X125900000Y-128294250D01*
X126058750Y-128453000D01*
X127183000Y-128453000D01*
X127183000Y-128433000D01*
X127437000Y-128433000D01*
X127437000Y-128453000D01*
X127457000Y-128453000D01*
X127457000Y-128707000D01*
X127437000Y-128707000D01*
X127437000Y-129831250D01*
X127595750Y-129990000D01*
X128140001Y-129990000D01*
X128140001Y-133825148D01*
X128125112Y-133900000D01*
X128184097Y-134196537D01*
X128303008Y-134374499D01*
X128352072Y-134447929D01*
X128415528Y-134490329D01*
X130015527Y-136090329D01*
X130015530Y-136090331D01*
X130202421Y-136277222D01*
X130208118Y-136285748D01*
X130637369Y-136715000D01*
X117285000Y-136715000D01*
X117285000Y-128865750D01*
X118280000Y-128865750D01*
X118280000Y-129481309D01*
X118376673Y-129714698D01*
X118555301Y-129893327D01*
X118788690Y-129990000D01*
X119404250Y-129990000D01*
X119563000Y-129831250D01*
X119563000Y-128707000D01*
X119817000Y-128707000D01*
X119817000Y-129831250D01*
X119975750Y-129990000D01*
X120591310Y-129990000D01*
X120824699Y-129893327D01*
X121003327Y-129714698D01*
X121100000Y-129481309D01*
X121100000Y-128865750D01*
X125900000Y-128865750D01*
X125900000Y-129481310D01*
X125996673Y-129714699D01*
X126175302Y-129893327D01*
X126408691Y-129990000D01*
X127024250Y-129990000D01*
X127183000Y-129831250D01*
X127183000Y-128707000D01*
X126058750Y-128707000D01*
X125900000Y-128865750D01*
X121100000Y-128865750D01*
X120941250Y-128707000D01*
X119817000Y-128707000D01*
X119563000Y-128707000D01*
X118438750Y-128707000D01*
X118280000Y-128865750D01*
X117285000Y-128865750D01*
X117285000Y-114422684D01*
X117278143Y-114388211D01*
X117234479Y-113898964D01*
X117227976Y-113867701D01*
X117226249Y-113835806D01*
X117203884Y-113741200D01*
X117002477Y-113076207D01*
X116985520Y-113037208D01*
X116973509Y-112996398D01*
X116929980Y-112909475D01*
X116580994Y-112308651D01*
X116555518Y-112274597D01*
X116534442Y-112237646D01*
X116472084Y-112163067D01*
X115994239Y-111658644D01*
X115961612Y-111631363D01*
X115932602Y-111600254D01*
X115854760Y-111542021D01*
X115273688Y-111161053D01*
X115235658Y-111142009D01*
X115200270Y-111118408D01*
X115111119Y-111079644D01*
X114457991Y-110842570D01*
X114416600Y-110832786D01*
X114376732Y-110817959D01*
X114281055Y-110800744D01*
X113590906Y-110720281D01*
X112991663Y-110650416D01*
X112510594Y-110475797D01*
X112082601Y-110195192D01*
X111730637Y-109823652D01*
X111473588Y-109381108D01*
X111322124Y-108881016D01*
X111285000Y-108465043D01*
X111285000Y-97500000D01*
X111449621Y-97500000D01*
X111465001Y-97577321D01*
X111465000Y-100422684D01*
X111449621Y-100500000D01*
X111510546Y-100806292D01*
X111684047Y-101065953D01*
X111943708Y-101239454D01*
X112121853Y-101274889D01*
X112250000Y-101300379D01*
X112327316Y-101285000D01*
X125172684Y-101285000D01*
X125250000Y-101300379D01*
X125378148Y-101274889D01*
X125556292Y-101239454D01*
X125815953Y-101065953D01*
X125989454Y-100806292D01*
X126050379Y-100500000D01*
X126035000Y-100422684D01*
X126035000Y-97577316D01*
X126050379Y-97500000D01*
X125989454Y-97193708D01*
X125815953Y-96934047D01*
X125556292Y-96760546D01*
X125327316Y-96715000D01*
X125250000Y-96699621D01*
X125172684Y-96715000D01*
X112327316Y-96715000D01*
X112250000Y-96699621D01*
X112172684Y-96715000D01*
X111943708Y-96760546D01*
X111684047Y-96934047D01*
X111510546Y-97193708D01*
X111449621Y-97500000D01*
X111285000Y-97500000D01*
X111285000Y-90200000D01*
X116295000Y-90200000D01*
X116415156Y-90958637D01*
X116763863Y-91643013D01*
X117306987Y-92186137D01*
X117991363Y-92534844D01*
X118750000Y-92655000D01*
X119508637Y-92534844D01*
X120193013Y-92186137D01*
X120736137Y-91643013D01*
X121084844Y-90958637D01*
X121205000Y-90200000D01*
X121084844Y-89441363D01*
X120736137Y-88756987D01*
X120193013Y-88213863D01*
X119508637Y-87865156D01*
X118750000Y-87745000D01*
X117991363Y-87865156D01*
X117306987Y-88213863D01*
X116763863Y-88756987D01*
X116415156Y-89441363D01*
X116295000Y-90200000D01*
X111285000Y-90200000D01*
X111285000Y-53285000D01*
X128422684Y-53285000D01*
X128500000Y-53300379D01*
X128577316Y-53285000D01*
X128806292Y-53239454D01*
X129065953Y-53065953D01*
X129239454Y-52806292D01*
X129300379Y-52500000D01*
X129285000Y-52422684D01*
X129285000Y-45285000D01*
X147215000Y-45285000D01*
X147215001Y-54422679D01*
X147215001Y-54422679D01*
G37*
X147215001Y-54422679D02*
X147199621Y-54500000D01*
X147260546Y-54806292D01*
X147434047Y-55065953D01*
X147693708Y-55239454D01*
X147922684Y-55285000D01*
X148000000Y-55300379D01*
X148077316Y-55285000D01*
X166715000Y-55285000D01*
X166715001Y-69422679D01*
X166699621Y-69500000D01*
X166760546Y-69806292D01*
X166934047Y-70065953D01*
X167193708Y-70239454D01*
X167422684Y-70285000D01*
X167500000Y-70300379D01*
X167577316Y-70285000D01*
X184715000Y-70285000D01*
X184715001Y-122479762D01*
X184638664Y-123961094D01*
X184413581Y-125406697D01*
X184041091Y-126821512D01*
X183525144Y-128190538D01*
X182871205Y-129499278D01*
X182086191Y-130733881D01*
X181178437Y-131881236D01*
X180157553Y-132929204D01*
X179034349Y-133866684D01*
X177820729Y-134683741D01*
X176529553Y-135371717D01*
X175174495Y-135923328D01*
X173769920Y-136332723D01*
X172330699Y-136595571D01*
X170857022Y-136710259D01*
X170494843Y-136715000D01*
X145062630Y-136715000D01*
X145985750Y-135791881D01*
X146049371Y-135749371D01*
X146217788Y-135497317D01*
X146262000Y-135275048D01*
X146262000Y-135275043D01*
X146276927Y-135200000D01*
X146262000Y-135124957D01*
X146262000Y-134561362D01*
X146260000Y-134551307D01*
X146260000Y-133395750D01*
X146585000Y-133395750D01*
X146585000Y-134036309D01*
X146681673Y-134269698D01*
X146860301Y-134448327D01*
X147093690Y-134545000D01*
X147734250Y-134545000D01*
X147893000Y-134386250D01*
X147893000Y-133237000D01*
X148147000Y-133237000D01*
X148147000Y-134386250D01*
X148305750Y-134545000D01*
X148946310Y-134545000D01*
X149179699Y-134448327D01*
X149358327Y-134269698D01*
X149455000Y-134036309D01*
X149455000Y-133395750D01*
X149296250Y-133237000D01*
X148147000Y-133237000D01*
X147893000Y-133237000D01*
X146743750Y-133237000D01*
X146585000Y-133395750D01*
X146260000Y-133395750D01*
X146260000Y-130864801D01*
X146585000Y-130539801D01*
X146585000Y-130855439D01*
X146803466Y-131382862D01*
X147095604Y-131675000D01*
X147093690Y-131675000D01*
X146860301Y-131771673D01*
X146681673Y-131950302D01*
X146585000Y-132183691D01*
X146585000Y-132824250D01*
X146743750Y-132983000D01*
X147893000Y-132983000D01*
X147893000Y-132963000D01*
X148147000Y-132963000D01*
X148147000Y-132983000D01*
X149296250Y-132983000D01*
X149455000Y-132824250D01*
X149455000Y-132183691D01*
X149358327Y-131950302D01*
X149179699Y-131771673D01*
X148946310Y-131675000D01*
X148944396Y-131675000D01*
X148969396Y-131650000D01*
X154002560Y-131650000D01*
X154002560Y-133350000D01*
X154051843Y-133597765D01*
X154192191Y-133807809D01*
X154402235Y-133948157D01*
X154650000Y-133997440D01*
X156350000Y-133997440D01*
X156597765Y-133948157D01*
X156807809Y-133807809D01*
X156948157Y-133597765D01*
X156968739Y-133494292D01*
X157273076Y-133771645D01*
X157683110Y-133941476D01*
X157913000Y-133820155D01*
X157913000Y-132627000D01*
X158167000Y-132627000D01*
X158167000Y-133820155D01*
X158396890Y-133941476D01*
X158806924Y-133771645D01*
X159235183Y-133381358D01*
X159481486Y-132856892D01*
X159360819Y-132627000D01*
X158167000Y-132627000D01*
X157913000Y-132627000D01*
X157893000Y-132627000D01*
X157893000Y-132373000D01*
X157913000Y-132373000D01*
X157913000Y-131179845D01*
X158167000Y-131179845D01*
X158167000Y-132373000D01*
X159360819Y-132373000D01*
X159481486Y-132143108D01*
X159235183Y-131618642D01*
X158806924Y-131228355D01*
X158396890Y-131058524D01*
X158167000Y-131179845D01*
X157913000Y-131179845D01*
X157683110Y-131058524D01*
X157273076Y-131228355D01*
X156968739Y-131505708D01*
X156948157Y-131402235D01*
X156807809Y-131192191D01*
X156597765Y-131051843D01*
X156350000Y-131002560D01*
X154650000Y-131002560D01*
X154402235Y-131051843D01*
X154192191Y-131192191D01*
X154051843Y-131402235D01*
X154002560Y-131650000D01*
X148969396Y-131650000D01*
X149236534Y-131382862D01*
X149455000Y-130855439D01*
X149455000Y-130530001D01*
X164555200Y-130530001D01*
X165207296Y-131182098D01*
X165192191Y-131192191D01*
X165051843Y-131402235D01*
X165002560Y-131650000D01*
X165002560Y-133350000D01*
X165051843Y-133597765D01*
X165192191Y-133807809D01*
X165402235Y-133948157D01*
X165650000Y-133997440D01*
X167350000Y-133997440D01*
X167597765Y-133948157D01*
X167807809Y-133807809D01*
X167948157Y-133597765D01*
X167957184Y-133552381D01*
X167969375Y-133570625D01*
X168460582Y-133898839D01*
X168893744Y-133985000D01*
X169186256Y-133985000D01*
X169619418Y-133898839D01*
X170110625Y-133570625D01*
X170323843Y-133251522D01*
X170384817Y-133381358D01*
X170813076Y-133771645D01*
X171223110Y-133941476D01*
X171453000Y-133820155D01*
X171453000Y-132627000D01*
X171707000Y-132627000D01*
X171707000Y-133820155D01*
X171936890Y-133941476D01*
X172346924Y-133771645D01*
X172775183Y-133381358D01*
X173021486Y-132856892D01*
X172900819Y-132627000D01*
X171707000Y-132627000D01*
X171453000Y-132627000D01*
X171433000Y-132627000D01*
X171433000Y-132373000D01*
X171453000Y-132373000D01*
X171453000Y-131179845D01*
X171707000Y-131179845D01*
X171707000Y-132373000D01*
X172900819Y-132373000D01*
X173021486Y-132143108D01*
X172775183Y-131618642D01*
X172346924Y-131228355D01*
X171936890Y-131058524D01*
X171707000Y-131179845D01*
X171453000Y-131179845D01*
X171223110Y-131058524D01*
X170813076Y-131228355D01*
X170384817Y-131618642D01*
X170323843Y-131748478D01*
X170110625Y-131429375D01*
X169619418Y-131101161D01*
X169186256Y-131015000D01*
X168893744Y-131015000D01*
X168460582Y-131101161D01*
X167969375Y-131429375D01*
X167957184Y-131447619D01*
X167948157Y-131402235D01*
X167807809Y-131192191D01*
X167597765Y-131051843D01*
X167350000Y-131002560D01*
X167148483Y-131002560D01*
X167090329Y-130915527D01*
X167047929Y-130852071D01*
X166984473Y-130809671D01*
X165460332Y-129285531D01*
X165417930Y-129222072D01*
X165166538Y-129054097D01*
X164944853Y-129010001D01*
X164944848Y-129010001D01*
X164870001Y-128995113D01*
X164795154Y-129010001D01*
X149069395Y-129010001D01*
X149236534Y-128842862D01*
X149455000Y-128315439D01*
X149455000Y-127744561D01*
X149236534Y-127217138D01*
X148832862Y-126813466D01*
X148703784Y-126760000D01*
X148832862Y-126706534D01*
X149039396Y-126500000D01*
X172795000Y-126500000D01*
X172915156Y-127258637D01*
X173263863Y-127943013D01*
X173806987Y-128486137D01*
X174491363Y-128834844D01*
X175250000Y-128955000D01*
X176008637Y-128834844D01*
X176693013Y-128486137D01*
X177236137Y-127943013D01*
X177584844Y-127258637D01*
X177705000Y-126500000D01*
X177584844Y-125741363D01*
X177236137Y-125056987D01*
X176693013Y-124513863D01*
X176008637Y-124165156D01*
X175250000Y-124045000D01*
X174491363Y-124165156D01*
X173806987Y-124513863D01*
X173263863Y-125056987D01*
X172915156Y-125741363D01*
X172795000Y-126500000D01*
X149039396Y-126500000D01*
X149236534Y-126302862D01*
X149455000Y-125775439D01*
X149455000Y-125204561D01*
X149236534Y-124677138D01*
X148832862Y-124273466D01*
X148703784Y-124220000D01*
X148832862Y-124166534D01*
X149236534Y-123762862D01*
X149455000Y-123235439D01*
X149455000Y-122664561D01*
X149370268Y-122460000D01*
X155725153Y-122460000D01*
X155800000Y-122474888D01*
X155874847Y-122460000D01*
X155874852Y-122460000D01*
X156096537Y-122415904D01*
X156347929Y-122247929D01*
X156390331Y-122184470D01*
X164074801Y-114500000D01*
X169949621Y-114500000D01*
X169965001Y-114577321D01*
X169965000Y-117422684D01*
X169949621Y-117500000D01*
X170010546Y-117806292D01*
X170150605Y-118015904D01*
X170184047Y-118065953D01*
X170443708Y-118239454D01*
X170750000Y-118300379D01*
X170827316Y-118285000D01*
X183672684Y-118285000D01*
X183750000Y-118300379D01*
X184056292Y-118239454D01*
X184315953Y-118065953D01*
X184489454Y-117806292D01*
X184535000Y-117577316D01*
X184535000Y-117577315D01*
X184550379Y-117500000D01*
X184535000Y-117422684D01*
X184535000Y-114577316D01*
X184550379Y-114500000D01*
X184489454Y-114193708D01*
X184315953Y-113934047D01*
X184056292Y-113760546D01*
X183827316Y-113715000D01*
X183750000Y-113699621D01*
X183672684Y-113715000D01*
X170827316Y-113715000D01*
X170750000Y-113699621D01*
X170672684Y-113715000D01*
X170443708Y-113760546D01*
X170184047Y-113934047D01*
X170010546Y-114193708D01*
X169949621Y-114500000D01*
X164074801Y-114500000D01*
X173712802Y-104862000D01*
X176498289Y-104862000D01*
X176500067Y-104863778D01*
X176491363Y-104865156D01*
X175806987Y-105213863D01*
X175263863Y-105756987D01*
X174915156Y-106441363D01*
X174795000Y-107200000D01*
X174915156Y-107958637D01*
X175263863Y-108643013D01*
X175806987Y-109186137D01*
X176491363Y-109534844D01*
X177250000Y-109655000D01*
X178008637Y-109534844D01*
X178693013Y-109186137D01*
X179236137Y-108643013D01*
X179584844Y-107958637D01*
X179705000Y-107200000D01*
X179584844Y-106441363D01*
X179236137Y-105756987D01*
X178693013Y-105213863D01*
X178008637Y-104865156D01*
X177913606Y-104850105D01*
X178077431Y-104686280D01*
X178235000Y-104305874D01*
X178235000Y-103894126D01*
X178077431Y-103513720D01*
X177899256Y-103335545D01*
X179293592Y-101941209D01*
X179513744Y-101985000D01*
X179806256Y-101985000D01*
X180239418Y-101898839D01*
X180730625Y-101570625D01*
X180943843Y-101251522D01*
X181004817Y-101381358D01*
X181433076Y-101771645D01*
X181843110Y-101941476D01*
X182073000Y-101820155D01*
X182073000Y-100627000D01*
X182327000Y-100627000D01*
X182327000Y-101820155D01*
X182556890Y-101941476D01*
X182966924Y-101771645D01*
X183395183Y-101381358D01*
X183641486Y-100856892D01*
X183520819Y-100627000D01*
X182327000Y-100627000D01*
X182073000Y-100627000D01*
X182053000Y-100627000D01*
X182053000Y-100373000D01*
X182073000Y-100373000D01*
X182073000Y-99179845D01*
X182327000Y-99179845D01*
X182327000Y-100373000D01*
X183520819Y-100373000D01*
X183641486Y-100143108D01*
X183395183Y-99618642D01*
X182966924Y-99228355D01*
X182556890Y-99058524D01*
X182327000Y-99179845D01*
X182073000Y-99179845D01*
X181843110Y-99058524D01*
X181433076Y-99228355D01*
X181004817Y-99618642D01*
X180943843Y-99748478D01*
X180730625Y-99429375D01*
X180239418Y-99101161D01*
X179806256Y-99015000D01*
X179513744Y-99015000D01*
X179080582Y-99101161D01*
X178589375Y-99429375D01*
X178390000Y-99727761D01*
X178190625Y-99429375D01*
X177699418Y-99101161D01*
X177266256Y-99015000D01*
X176973744Y-99015000D01*
X176540582Y-99101161D01*
X176049375Y-99429375D01*
X175850000Y-99727761D01*
X175650625Y-99429375D01*
X175159418Y-99101161D01*
X174726256Y-99015000D01*
X174433744Y-99015000D01*
X174000582Y-99101161D01*
X173509375Y-99429375D01*
X173310000Y-99727761D01*
X173110625Y-99429375D01*
X172800000Y-99221822D01*
X172800000Y-97914848D01*
X172814888Y-97840000D01*
X172800000Y-97765152D01*
X172800000Y-97765148D01*
X172755904Y-97543463D01*
X172587929Y-97292071D01*
X172524470Y-97249669D01*
X172460000Y-97185199D01*
X172460000Y-91700000D01*
X174795000Y-91700000D01*
X174915156Y-92458637D01*
X175263863Y-93143013D01*
X175806987Y-93686137D01*
X176491363Y-94034844D01*
X177250000Y-94155000D01*
X178008637Y-94034844D01*
X178693013Y-93686137D01*
X179236137Y-93143013D01*
X179584844Y-92458637D01*
X179705000Y-91700000D01*
X179584844Y-90941363D01*
X179236137Y-90256987D01*
X178693013Y-89713863D01*
X178008637Y-89365156D01*
X177250000Y-89245000D01*
X176491363Y-89365156D01*
X175806987Y-89713863D01*
X175263863Y-90256987D01*
X174915156Y-90941363D01*
X174795000Y-91700000D01*
X172460000Y-91700000D01*
X172460000Y-86990000D01*
X172904250Y-86990000D01*
X173063000Y-86831250D01*
X173063000Y-85707000D01*
X173317000Y-85707000D01*
X173317000Y-86831250D01*
X173475750Y-86990000D01*
X174091310Y-86990000D01*
X174324699Y-86893327D01*
X174503327Y-86714698D01*
X174600000Y-86481309D01*
X174600000Y-85865750D01*
X179400000Y-85865750D01*
X179400000Y-86481310D01*
X179496673Y-86714699D01*
X179675302Y-86893327D01*
X179908691Y-86990000D01*
X180524250Y-86990000D01*
X180683000Y-86831250D01*
X180683000Y-85707000D01*
X180937000Y-85707000D01*
X180937000Y-86831250D01*
X181095750Y-86990000D01*
X181711309Y-86990000D01*
X181944698Y-86893327D01*
X182123327Y-86714699D01*
X182220000Y-86481310D01*
X182220000Y-85865750D01*
X182061250Y-85707000D01*
X180937000Y-85707000D01*
X180683000Y-85707000D01*
X179558750Y-85707000D01*
X179400000Y-85865750D01*
X174600000Y-85865750D01*
X174441250Y-85707000D01*
X173317000Y-85707000D01*
X173063000Y-85707000D01*
X173043000Y-85707000D01*
X173043000Y-85453000D01*
X173063000Y-85453000D01*
X173063000Y-85433000D01*
X173317000Y-85433000D01*
X173317000Y-85453000D01*
X174441250Y-85453000D01*
X174600000Y-85294250D01*
X174600000Y-84678691D01*
X174503327Y-84445302D01*
X174324699Y-84266673D01*
X174091310Y-84170000D01*
X174054042Y-84170000D01*
X174385341Y-83838701D01*
X174600000Y-83320467D01*
X174600000Y-82759533D01*
X174385341Y-82241299D01*
X173988701Y-81844659D01*
X173808458Y-81770000D01*
X173988701Y-81695341D01*
X174385341Y-81298701D01*
X174600000Y-80780467D01*
X174600000Y-80219533D01*
X174385341Y-79701299D01*
X173988701Y-79304659D01*
X173808458Y-79230000D01*
X173988701Y-79155341D01*
X174385341Y-78758701D01*
X174600000Y-78240467D01*
X174600000Y-77679533D01*
X174385341Y-77161299D01*
X173988701Y-76764659D01*
X173808458Y-76690000D01*
X173988701Y-76615341D01*
X174385341Y-76218701D01*
X174600000Y-75700467D01*
X174600000Y-75374802D01*
X175299670Y-76074472D01*
X175342071Y-76137929D01*
X175435667Y-76200468D01*
X179416030Y-80180832D01*
X179400000Y-80219533D01*
X179400000Y-80780467D01*
X179614659Y-81298701D01*
X180011299Y-81695341D01*
X180191542Y-81770000D01*
X180011299Y-81844659D01*
X179614659Y-82241299D01*
X179400000Y-82759533D01*
X179400000Y-83320467D01*
X179614659Y-83838701D01*
X179945958Y-84170000D01*
X179908691Y-84170000D01*
X179675302Y-84266673D01*
X179496673Y-84445301D01*
X179400000Y-84678690D01*
X179400000Y-85294250D01*
X179558750Y-85453000D01*
X180683000Y-85453000D01*
X180683000Y-85433000D01*
X180937000Y-85433000D01*
X180937000Y-85453000D01*
X182061250Y-85453000D01*
X182220000Y-85294250D01*
X182220000Y-84678690D01*
X182123327Y-84445301D01*
X181944698Y-84266673D01*
X181711309Y-84170000D01*
X181674042Y-84170000D01*
X182005341Y-83838701D01*
X182220000Y-83320467D01*
X182220000Y-82759533D01*
X182005341Y-82241299D01*
X181608701Y-81844659D01*
X181428458Y-81770000D01*
X181608701Y-81695341D01*
X182005341Y-81298701D01*
X182220000Y-80780467D01*
X182220000Y-80219533D01*
X182005341Y-79701299D01*
X181608701Y-79304659D01*
X181428458Y-79230000D01*
X181608701Y-79155341D01*
X182005341Y-78758701D01*
X182220000Y-78240467D01*
X182220000Y-77679533D01*
X182005341Y-77161299D01*
X181608701Y-76764659D01*
X181428458Y-76690000D01*
X181608701Y-76615341D01*
X182005341Y-76218701D01*
X182220000Y-75700467D01*
X182220000Y-75139533D01*
X182005341Y-74621299D01*
X181608701Y-74224659D01*
X181090467Y-74010000D01*
X180529533Y-74010000D01*
X180011299Y-74224659D01*
X179614659Y-74621299D01*
X179400000Y-75139533D01*
X179400000Y-75700467D01*
X179614659Y-76218701D01*
X180011299Y-76615341D01*
X180191542Y-76690000D01*
X180011299Y-76764659D01*
X179614659Y-77161299D01*
X179598629Y-77200000D01*
X179574802Y-77200000D01*
X175190331Y-72815530D01*
X175147929Y-72752071D01*
X174896537Y-72584096D01*
X174674852Y-72540000D01*
X174674847Y-72540000D01*
X174600000Y-72525112D01*
X174525153Y-72540000D01*
X171574846Y-72540000D01*
X171499999Y-72525112D01*
X171425152Y-72540000D01*
X171425148Y-72540000D01*
X171203463Y-72584096D01*
X170952071Y-72752071D01*
X170909671Y-72815527D01*
X169015528Y-74709671D01*
X168952072Y-74752071D01*
X168909672Y-74815527D01*
X168909671Y-74815528D01*
X168784097Y-75003463D01*
X168725112Y-75300000D01*
X168740001Y-75374852D01*
X168740000Y-93285198D01*
X165715528Y-96309671D01*
X165652072Y-96352071D01*
X165609672Y-96415527D01*
X165609671Y-96415528D01*
X165484097Y-96603463D01*
X165425112Y-96900000D01*
X165440001Y-96974852D01*
X165440000Y-102585198D01*
X165244556Y-102780642D01*
X165285000Y-102577316D01*
X165285000Y-102577315D01*
X165300379Y-102500000D01*
X165285000Y-102422684D01*
X165285000Y-99577316D01*
X165300379Y-99500000D01*
X165239454Y-99193708D01*
X165065953Y-98934047D01*
X164806292Y-98760546D01*
X164577316Y-98715000D01*
X164500000Y-98699621D01*
X164422684Y-98715000D01*
X151577316Y-98715000D01*
X151500000Y-98699621D01*
X151422684Y-98715000D01*
X151193708Y-98760546D01*
X150934047Y-98934047D01*
X150760546Y-99193708D01*
X150699621Y-99500000D01*
X150715001Y-99577321D01*
X150715000Y-101772109D01*
X150590329Y-101585527D01*
X150547929Y-101522071D01*
X150484473Y-101479671D01*
X149433103Y-100428302D01*
X149455000Y-100375439D01*
X149455000Y-99804561D01*
X149236534Y-99277138D01*
X148832862Y-98873466D01*
X148305439Y-98655000D01*
X147734561Y-98655000D01*
X147207138Y-98873466D01*
X146960000Y-99120604D01*
X146960000Y-97514801D01*
X147414802Y-97060000D01*
X161425153Y-97060000D01*
X161500000Y-97074888D01*
X161574847Y-97060000D01*
X161574852Y-97060000D01*
X161796537Y-97015904D01*
X162047929Y-96847929D01*
X162090331Y-96784470D01*
X167384473Y-91490329D01*
X167447929Y-91447929D01*
X167615904Y-91196537D01*
X167660000Y-90974852D01*
X167660000Y-90974848D01*
X167674888Y-90900001D01*
X167660000Y-90825154D01*
X167660000Y-74174848D01*
X167674888Y-74100000D01*
X167660000Y-74025152D01*
X167660000Y-74025148D01*
X167615904Y-73803463D01*
X167447929Y-73552071D01*
X167384473Y-73509671D01*
X165260000Y-71385199D01*
X165260000Y-66224846D01*
X165274888Y-66149999D01*
X165260000Y-66075152D01*
X165260000Y-66075148D01*
X165215904Y-65853463D01*
X165047929Y-65602071D01*
X164984473Y-65559671D01*
X162703969Y-63279168D01*
X162720000Y-63240467D01*
X162720000Y-62679533D01*
X162505341Y-62161299D01*
X162108701Y-61764659D01*
X161928458Y-61690000D01*
X162108701Y-61615341D01*
X162505341Y-61218701D01*
X162720000Y-60700467D01*
X162720000Y-60139533D01*
X162505341Y-59621299D01*
X162108701Y-59224659D01*
X161590467Y-59010000D01*
X161029533Y-59010000D01*
X160511299Y-59224659D01*
X160114659Y-59621299D01*
X159900000Y-60139533D01*
X159900000Y-60700467D01*
X160114659Y-61218701D01*
X160511299Y-61615341D01*
X160691542Y-61690000D01*
X160511299Y-61764659D01*
X160114659Y-62161299D01*
X159900000Y-62679533D01*
X159900000Y-63240467D01*
X160114659Y-63758701D01*
X160511299Y-64155341D01*
X160691542Y-64230000D01*
X160511299Y-64304659D01*
X160114659Y-64701299D01*
X159900000Y-65219533D01*
X159900000Y-65780467D01*
X160114659Y-66298701D01*
X160511299Y-66695341D01*
X160691542Y-66770000D01*
X160511299Y-66844659D01*
X160114659Y-67241299D01*
X159900000Y-67759533D01*
X159900000Y-68320467D01*
X160114659Y-68838701D01*
X160445958Y-69170000D01*
X160408691Y-69170000D01*
X160175302Y-69266673D01*
X159996673Y-69445301D01*
X159900000Y-69678690D01*
X159900000Y-70294250D01*
X160058750Y-70453000D01*
X161183000Y-70453000D01*
X161183000Y-70433000D01*
X161437000Y-70433000D01*
X161437000Y-70453000D01*
X162561250Y-70453000D01*
X162720000Y-70294250D01*
X162720000Y-69678690D01*
X162623327Y-69445301D01*
X162444698Y-69266673D01*
X162211309Y-69170000D01*
X162174042Y-69170000D01*
X162505341Y-68838701D01*
X162720000Y-68320467D01*
X162720000Y-67984802D01*
X163140000Y-68404802D01*
X163140001Y-72025148D01*
X163125112Y-72100000D01*
X163184097Y-72396537D01*
X163309421Y-72584097D01*
X163352072Y-72647929D01*
X163415528Y-72690329D01*
X165540000Y-74814802D01*
X165540001Y-84927010D01*
X165395183Y-84618642D01*
X164966924Y-84228355D01*
X164556890Y-84058524D01*
X164327000Y-84179845D01*
X164327000Y-85373000D01*
X164347000Y-85373000D01*
X164347000Y-85627000D01*
X164327000Y-85627000D01*
X164327000Y-86820155D01*
X164556890Y-86941476D01*
X164966924Y-86771645D01*
X165395183Y-86381358D01*
X165540001Y-86072990D01*
X165540001Y-90185197D01*
X160885199Y-94840000D01*
X146774846Y-94840000D01*
X146699999Y-94825112D01*
X146625152Y-94840000D01*
X146625148Y-94840000D01*
X146403463Y-94884096D01*
X146152071Y-95052071D01*
X146109671Y-95115527D01*
X145015530Y-96209669D01*
X144952071Y-96252071D01*
X144784096Y-96503464D01*
X144760000Y-96624602D01*
X144760000Y-96114801D01*
X148674802Y-92200000D01*
X155295000Y-92200000D01*
X155415156Y-92958637D01*
X155763863Y-93643013D01*
X156306987Y-94186137D01*
X156991363Y-94534844D01*
X157750000Y-94655000D01*
X158508637Y-94534844D01*
X159193013Y-94186137D01*
X159736137Y-93643013D01*
X160084844Y-92958637D01*
X160205000Y-92200000D01*
X160084844Y-91441363D01*
X159736137Y-90756987D01*
X159193013Y-90213863D01*
X158508637Y-89865156D01*
X157750000Y-89745000D01*
X156991363Y-89865156D01*
X156306987Y-90213863D01*
X155763863Y-90756987D01*
X155415156Y-91441363D01*
X155295000Y-92200000D01*
X148674802Y-92200000D01*
X149384476Y-91490327D01*
X149447929Y-91447929D01*
X149490327Y-91384476D01*
X149490329Y-91384474D01*
X149615903Y-91196538D01*
X149615904Y-91196537D01*
X149660000Y-90974852D01*
X149660000Y-90974848D01*
X149674888Y-90900001D01*
X149660000Y-90825154D01*
X149660000Y-84650000D01*
X150002560Y-84650000D01*
X150002560Y-86350000D01*
X150051843Y-86597765D01*
X150192191Y-86807809D01*
X150402235Y-86948157D01*
X150650000Y-86997440D01*
X152350000Y-86997440D01*
X152597765Y-86948157D01*
X152807809Y-86807809D01*
X152948157Y-86597765D01*
X152957184Y-86552381D01*
X152969375Y-86570625D01*
X153460582Y-86898839D01*
X153893744Y-86985000D01*
X154186256Y-86985000D01*
X154619418Y-86898839D01*
X155110625Y-86570625D01*
X155310000Y-86272239D01*
X155509375Y-86570625D01*
X156000582Y-86898839D01*
X156433744Y-86985000D01*
X156726256Y-86985000D01*
X157159418Y-86898839D01*
X157650625Y-86570625D01*
X157850000Y-86272239D01*
X158049375Y-86570625D01*
X158540582Y-86898839D01*
X158973744Y-86985000D01*
X159266256Y-86985000D01*
X159699418Y-86898839D01*
X160190625Y-86570625D01*
X160390000Y-86272239D01*
X160589375Y-86570625D01*
X161080582Y-86898839D01*
X161513744Y-86985000D01*
X161806256Y-86985000D01*
X162239418Y-86898839D01*
X162730625Y-86570625D01*
X162943843Y-86251522D01*
X163004817Y-86381358D01*
X163433076Y-86771645D01*
X163843110Y-86941476D01*
X164073000Y-86820155D01*
X164073000Y-85627000D01*
X164053000Y-85627000D01*
X164053000Y-85373000D01*
X164073000Y-85373000D01*
X164073000Y-84179845D01*
X163843110Y-84058524D01*
X163433076Y-84228355D01*
X163004817Y-84618642D01*
X162943843Y-84748478D01*
X162730625Y-84429375D01*
X162239418Y-84101161D01*
X161806256Y-84015000D01*
X161513744Y-84015000D01*
X161080582Y-84101161D01*
X160589375Y-84429375D01*
X160390000Y-84727761D01*
X160190625Y-84429375D01*
X159699418Y-84101161D01*
X159266256Y-84015000D01*
X158973744Y-84015000D01*
X158540582Y-84101161D01*
X158049375Y-84429375D01*
X157850000Y-84727761D01*
X157650625Y-84429375D01*
X157159418Y-84101161D01*
X156726256Y-84015000D01*
X156433744Y-84015000D01*
X156000582Y-84101161D01*
X155509375Y-84429375D01*
X155310000Y-84727761D01*
X155110625Y-84429375D01*
X154800000Y-84221822D01*
X154800000Y-82214847D01*
X154814888Y-82140000D01*
X154800000Y-82065153D01*
X154800000Y-82065148D01*
X154755904Y-81843463D01*
X154587929Y-81592071D01*
X154524473Y-81549671D01*
X152960000Y-79985199D01*
X152960000Y-76700000D01*
X155295000Y-76700000D01*
X155415156Y-77458637D01*
X155763863Y-78143013D01*
X156306987Y-78686137D01*
X156991363Y-79034844D01*
X157750000Y-79155000D01*
X158508637Y-79034844D01*
X159193013Y-78686137D01*
X159736137Y-78143013D01*
X160084844Y-77458637D01*
X160205000Y-76700000D01*
X160084844Y-75941363D01*
X159736137Y-75256987D01*
X159193013Y-74713863D01*
X158508637Y-74365156D01*
X157750000Y-74245000D01*
X156991363Y-74365156D01*
X156306987Y-74713863D01*
X155763863Y-75256987D01*
X155415156Y-75941363D01*
X155295000Y-76700000D01*
X152960000Y-76700000D01*
X152960000Y-71990000D01*
X153404250Y-71990000D01*
X153563000Y-71831250D01*
X153563000Y-70707000D01*
X153817000Y-70707000D01*
X153817000Y-71831250D01*
X153975750Y-71990000D01*
X154591310Y-71990000D01*
X154824699Y-71893327D01*
X155003327Y-71714698D01*
X155100000Y-71481309D01*
X155100000Y-70865750D01*
X159900000Y-70865750D01*
X159900000Y-71481310D01*
X159996673Y-71714699D01*
X160175302Y-71893327D01*
X160408691Y-71990000D01*
X161024250Y-71990000D01*
X161183000Y-71831250D01*
X161183000Y-70707000D01*
X161437000Y-70707000D01*
X161437000Y-71831250D01*
X161595750Y-71990000D01*
X162211309Y-71990000D01*
X162444698Y-71893327D01*
X162623327Y-71714699D01*
X162720000Y-71481310D01*
X162720000Y-70865750D01*
X162561250Y-70707000D01*
X161437000Y-70707000D01*
X161183000Y-70707000D01*
X160058750Y-70707000D01*
X159900000Y-70865750D01*
X155100000Y-70865750D01*
X154941250Y-70707000D01*
X153817000Y-70707000D01*
X153563000Y-70707000D01*
X153543000Y-70707000D01*
X153543000Y-70453000D01*
X153563000Y-70453000D01*
X153563000Y-70433000D01*
X153817000Y-70433000D01*
X153817000Y-70453000D01*
X154941250Y-70453000D01*
X155100000Y-70294250D01*
X155100000Y-69678691D01*
X155003327Y-69445302D01*
X154824699Y-69266673D01*
X154591310Y-69170000D01*
X154554042Y-69170000D01*
X154885341Y-68838701D01*
X155100000Y-68320467D01*
X155100000Y-67759533D01*
X154885341Y-67241299D01*
X154488701Y-66844659D01*
X154308458Y-66770000D01*
X154488701Y-66695341D01*
X154885341Y-66298701D01*
X155100000Y-65780467D01*
X155100000Y-65219533D01*
X154885341Y-64701299D01*
X154488701Y-64304659D01*
X154308458Y-64230000D01*
X154488701Y-64155341D01*
X154885341Y-63758701D01*
X155100000Y-63240467D01*
X155100000Y-62679533D01*
X154885341Y-62161299D01*
X154488701Y-61764659D01*
X154308458Y-61690000D01*
X154488701Y-61615341D01*
X154885341Y-61218701D01*
X155100000Y-60700467D01*
X155100000Y-60139533D01*
X154885341Y-59621299D01*
X154488701Y-59224659D01*
X153970467Y-59010000D01*
X153409533Y-59010000D01*
X152891299Y-59224659D01*
X152494659Y-59621299D01*
X152280000Y-60139533D01*
X152280000Y-60700467D01*
X152494659Y-61218701D01*
X152891299Y-61615341D01*
X153071542Y-61690000D01*
X152891299Y-61764659D01*
X152494659Y-62161299D01*
X152280000Y-62679533D01*
X152280000Y-63240467D01*
X152296030Y-63279168D01*
X151015530Y-64559669D01*
X150952071Y-64602071D01*
X150784096Y-64853464D01*
X150740000Y-65075149D01*
X150740000Y-65075153D01*
X150725112Y-65150000D01*
X150740000Y-65224847D01*
X150740001Y-84002560D01*
X150650000Y-84002560D01*
X150402235Y-84051843D01*
X150192191Y-84192191D01*
X150051843Y-84402235D01*
X150002560Y-84650000D01*
X149660000Y-84650000D01*
X149660000Y-63574848D01*
X149674888Y-63500000D01*
X149660000Y-63425152D01*
X149660000Y-63425148D01*
X149615904Y-63203463D01*
X149615904Y-63203462D01*
X149490329Y-63015527D01*
X149447929Y-62952071D01*
X149384473Y-62909671D01*
X146210000Y-59735199D01*
X146210000Y-56174848D01*
X146224888Y-56100000D01*
X146210000Y-56025152D01*
X146210000Y-56025148D01*
X146165904Y-55803463D01*
X145997929Y-55552071D01*
X145934473Y-55509671D01*
X143703969Y-53279168D01*
X143720000Y-53240467D01*
X143720000Y-52679533D01*
X143505341Y-52161299D01*
X143108701Y-51764659D01*
X142928458Y-51690000D01*
X143108701Y-51615341D01*
X143505341Y-51218701D01*
X143720000Y-50700467D01*
X143720000Y-50139533D01*
X143505341Y-49621299D01*
X143108701Y-49224659D01*
X142590467Y-49010000D01*
X142029533Y-49010000D01*
X141511299Y-49224659D01*
X141114659Y-49621299D01*
X140900000Y-50139533D01*
X140900000Y-50700467D01*
X141114659Y-51218701D01*
X141511299Y-51615341D01*
X141691542Y-51690000D01*
X141511299Y-51764659D01*
X141114659Y-52161299D01*
X140900000Y-52679533D01*
X140900000Y-53240467D01*
X141114659Y-53758701D01*
X141511299Y-54155341D01*
X141691542Y-54230000D01*
X141511299Y-54304659D01*
X141114659Y-54701299D01*
X140900000Y-55219533D01*
X140900000Y-55780467D01*
X141114659Y-56298701D01*
X141511299Y-56695341D01*
X141691542Y-56770000D01*
X141511299Y-56844659D01*
X141114659Y-57241299D01*
X140900000Y-57759533D01*
X140900000Y-58320467D01*
X141114659Y-58838701D01*
X141445958Y-59170000D01*
X141408691Y-59170000D01*
X141175302Y-59266673D01*
X140996673Y-59445301D01*
X140900000Y-59678690D01*
X140900000Y-60294250D01*
X141058750Y-60453000D01*
X142183000Y-60453000D01*
X142183000Y-60433000D01*
X142437000Y-60433000D01*
X142437000Y-60453000D01*
X143561250Y-60453000D01*
X143720000Y-60294250D01*
X143720000Y-59678690D01*
X143623327Y-59445301D01*
X143444698Y-59266673D01*
X143211309Y-59170000D01*
X143174042Y-59170000D01*
X143505341Y-58838701D01*
X143720000Y-58320467D01*
X143720000Y-57984802D01*
X144140000Y-58404802D01*
X144140001Y-60425148D01*
X144125112Y-60500000D01*
X144184097Y-60796537D01*
X144293320Y-60960000D01*
X144352072Y-61047929D01*
X144415528Y-61090329D01*
X147540000Y-64214802D01*
X147540001Y-90185197D01*
X145287906Y-92437293D01*
X145285000Y-92422684D01*
X145285000Y-89577316D01*
X145300379Y-89500000D01*
X145239454Y-89193708D01*
X145065953Y-88934047D01*
X144806292Y-88760546D01*
X144577316Y-88715000D01*
X144500000Y-88699621D01*
X144422684Y-88715000D01*
X131859802Y-88715000D01*
X132114802Y-88460000D01*
X141625153Y-88460000D01*
X141700000Y-88474888D01*
X141774847Y-88460000D01*
X141774852Y-88460000D01*
X141996537Y-88415904D01*
X142247929Y-88247929D01*
X142290331Y-88184470D01*
X143144473Y-87330329D01*
X143207929Y-87287929D01*
X143375904Y-87036537D01*
X143420000Y-86814852D01*
X143420000Y-86814848D01*
X143434888Y-86740001D01*
X143420000Y-86665154D01*
X143420000Y-76778178D01*
X143730625Y-76570625D01*
X143943843Y-76251522D01*
X144004817Y-76381358D01*
X144433076Y-76771645D01*
X144843110Y-76941476D01*
X145073000Y-76820155D01*
X145073000Y-75627000D01*
X145327000Y-75627000D01*
X145327000Y-76820155D01*
X145556890Y-76941476D01*
X145966924Y-76771645D01*
X146395183Y-76381358D01*
X146641486Y-75856892D01*
X146520819Y-75627000D01*
X145327000Y-75627000D01*
X145073000Y-75627000D01*
X145053000Y-75627000D01*
X145053000Y-75373000D01*
X145073000Y-75373000D01*
X145073000Y-74179845D01*
X145327000Y-74179845D01*
X145327000Y-75373000D01*
X146520819Y-75373000D01*
X146641486Y-75143108D01*
X146395183Y-74618642D01*
X145966924Y-74228355D01*
X145556890Y-74058524D01*
X145327000Y-74179845D01*
X145073000Y-74179845D01*
X144843110Y-74058524D01*
X144433076Y-74228355D01*
X144004817Y-74618642D01*
X143943843Y-74748478D01*
X143730625Y-74429375D01*
X143239418Y-74101161D01*
X142806256Y-74015000D01*
X142513744Y-74015000D01*
X142080582Y-74101161D01*
X141589375Y-74429375D01*
X141390000Y-74727761D01*
X141190625Y-74429375D01*
X140699418Y-74101161D01*
X140266256Y-74015000D01*
X139973744Y-74015000D01*
X139540582Y-74101161D01*
X139049375Y-74429375D01*
X138850000Y-74727761D01*
X138650625Y-74429375D01*
X138159418Y-74101161D01*
X137726256Y-74015000D01*
X137433744Y-74015000D01*
X137000582Y-74101161D01*
X136509375Y-74429375D01*
X136310000Y-74727761D01*
X136110625Y-74429375D01*
X135800000Y-74221822D01*
X135800000Y-71714846D01*
X135814888Y-71639999D01*
X135800000Y-71565152D01*
X135800000Y-71565148D01*
X135755904Y-71343463D01*
X135714102Y-71280902D01*
X135630329Y-71155526D01*
X135630327Y-71155524D01*
X135587929Y-71092071D01*
X135524476Y-71049673D01*
X133860000Y-69385199D01*
X133860000Y-66700000D01*
X135795000Y-66700000D01*
X135915156Y-67458637D01*
X136263863Y-68143013D01*
X136806987Y-68686137D01*
X137491363Y-69034844D01*
X138250000Y-69155000D01*
X139008637Y-69034844D01*
X139693013Y-68686137D01*
X140236137Y-68143013D01*
X140584844Y-67458637D01*
X140705000Y-66700000D01*
X140584844Y-65941363D01*
X140236137Y-65256987D01*
X139693013Y-64713863D01*
X139008637Y-64365156D01*
X138250000Y-64245000D01*
X137491363Y-64365156D01*
X136806987Y-64713863D01*
X136263863Y-65256987D01*
X135915156Y-65941363D01*
X135795000Y-66700000D01*
X133860000Y-66700000D01*
X133860000Y-61990000D01*
X134404250Y-61990000D01*
X134563000Y-61831250D01*
X134563000Y-60707000D01*
X134817000Y-60707000D01*
X134817000Y-61831250D01*
X134975750Y-61990000D01*
X135591310Y-61990000D01*
X135824699Y-61893327D01*
X136003327Y-61714698D01*
X136100000Y-61481309D01*
X136100000Y-60865750D01*
X140900000Y-60865750D01*
X140900000Y-61481310D01*
X140996673Y-61714699D01*
X141175302Y-61893327D01*
X141408691Y-61990000D01*
X142024250Y-61990000D01*
X142183000Y-61831250D01*
X142183000Y-60707000D01*
X142437000Y-60707000D01*
X142437000Y-61831250D01*
X142595750Y-61990000D01*
X143211309Y-61990000D01*
X143444698Y-61893327D01*
X143623327Y-61714699D01*
X143720000Y-61481310D01*
X143720000Y-60865750D01*
X143561250Y-60707000D01*
X142437000Y-60707000D01*
X142183000Y-60707000D01*
X141058750Y-60707000D01*
X140900000Y-60865750D01*
X136100000Y-60865750D01*
X135941250Y-60707000D01*
X134817000Y-60707000D01*
X134563000Y-60707000D01*
X134543000Y-60707000D01*
X134543000Y-60453000D01*
X134563000Y-60453000D01*
X134563000Y-60433000D01*
X134817000Y-60433000D01*
X134817000Y-60453000D01*
X135941250Y-60453000D01*
X136100000Y-60294250D01*
X136100000Y-59678691D01*
X136003327Y-59445302D01*
X135824699Y-59266673D01*
X135591310Y-59170000D01*
X135554042Y-59170000D01*
X135885341Y-58838701D01*
X136100000Y-58320467D01*
X136100000Y-57759533D01*
X135885341Y-57241299D01*
X135488701Y-56844659D01*
X135308458Y-56770000D01*
X135488701Y-56695341D01*
X135885341Y-56298701D01*
X136100000Y-55780467D01*
X136100000Y-55219533D01*
X135885341Y-54701299D01*
X135488701Y-54304659D01*
X135308458Y-54230000D01*
X135488701Y-54155341D01*
X135885341Y-53758701D01*
X136100000Y-53240467D01*
X136100000Y-52679533D01*
X135885341Y-52161299D01*
X135488701Y-51764659D01*
X135308458Y-51690000D01*
X135488701Y-51615341D01*
X135885341Y-51218701D01*
X136100000Y-50700467D01*
X136100000Y-50139533D01*
X135885341Y-49621299D01*
X135488701Y-49224659D01*
X134970467Y-49010000D01*
X134409533Y-49010000D01*
X133891299Y-49224659D01*
X133494659Y-49621299D01*
X133280000Y-50139533D01*
X133280000Y-50700467D01*
X133494659Y-51218701D01*
X133891299Y-51615341D01*
X134071542Y-51690000D01*
X133891299Y-51764659D01*
X133494659Y-52161299D01*
X133280000Y-52679533D01*
X133280000Y-53240467D01*
X133296030Y-53279168D01*
X132015530Y-54559669D01*
X131952071Y-54602071D01*
X131784096Y-54853464D01*
X131740000Y-55075149D01*
X131740000Y-55075153D01*
X131725112Y-55150000D01*
X131740000Y-55224847D01*
X131740001Y-74002560D01*
X131650000Y-74002560D01*
X131402235Y-74051843D01*
X131192191Y-74192191D01*
X131051843Y-74402235D01*
X131002560Y-74650000D01*
X131002560Y-76350000D01*
X131051843Y-76597765D01*
X131192191Y-76807809D01*
X131402235Y-76948157D01*
X131650000Y-76997440D01*
X133350000Y-76997440D01*
X133597765Y-76948157D01*
X133807809Y-76807809D01*
X133948157Y-76597765D01*
X133957184Y-76552381D01*
X133969375Y-76570625D01*
X134460582Y-76898839D01*
X134893744Y-76985000D01*
X135186256Y-76985000D01*
X135619418Y-76898839D01*
X136110625Y-76570625D01*
X136310000Y-76272239D01*
X136509375Y-76570625D01*
X137000582Y-76898839D01*
X137433744Y-76985000D01*
X137726256Y-76985000D01*
X138159418Y-76898839D01*
X138650625Y-76570625D01*
X138850000Y-76272239D01*
X139049375Y-76570625D01*
X139360286Y-76778369D01*
X139404096Y-76998617D01*
X139572071Y-77250010D01*
X139635530Y-77292412D01*
X141240001Y-78896885D01*
X141240000Y-85885198D01*
X140985198Y-86140000D01*
X131638438Y-86140000D01*
X131563590Y-86125112D01*
X131488742Y-86140000D01*
X131488738Y-86140000D01*
X131267053Y-86184096D01*
X131015661Y-86352071D01*
X130973261Y-86415527D01*
X129115528Y-88273261D01*
X129052072Y-88315661D01*
X129009672Y-88379117D01*
X129009671Y-88379118D01*
X128884097Y-88567053D01*
X128825112Y-88863590D01*
X128840001Y-88938442D01*
X128840000Y-93861563D01*
X128825112Y-93936410D01*
X128840000Y-94011257D01*
X128840000Y-94011261D01*
X128884096Y-94232946D01*
X129052071Y-94484339D01*
X129115530Y-94526741D01*
X129840001Y-95251213D01*
X129840001Y-97965199D01*
X124420000Y-92545199D01*
X124420000Y-84778178D01*
X124730625Y-84570625D01*
X124943843Y-84251522D01*
X125004817Y-84381358D01*
X125433076Y-84771645D01*
X125843110Y-84941476D01*
X126073000Y-84820155D01*
X126073000Y-83627000D01*
X126327000Y-83627000D01*
X126327000Y-84820155D01*
X126556890Y-84941476D01*
X126966924Y-84771645D01*
X127395183Y-84381358D01*
X127641486Y-83856892D01*
X127520819Y-83627000D01*
X126327000Y-83627000D01*
X126073000Y-83627000D01*
X126053000Y-83627000D01*
X126053000Y-83373000D01*
X126073000Y-83373000D01*
X126073000Y-82179845D01*
X126327000Y-82179845D01*
X126327000Y-83373000D01*
X127520819Y-83373000D01*
X127641486Y-83143108D01*
X127395183Y-82618642D01*
X126966924Y-82228355D01*
X126898465Y-82200000D01*
X135795000Y-82200000D01*
X135915156Y-82958637D01*
X136263863Y-83643013D01*
X136806987Y-84186137D01*
X137491363Y-84534844D01*
X138250000Y-84655000D01*
X139008637Y-84534844D01*
X139693013Y-84186137D01*
X140236137Y-83643013D01*
X140584844Y-82958637D01*
X140705000Y-82200000D01*
X140584844Y-81441363D01*
X140236137Y-80756987D01*
X139693013Y-80213863D01*
X139008637Y-79865156D01*
X138250000Y-79745000D01*
X137491363Y-79865156D01*
X136806987Y-80213863D01*
X136263863Y-80756987D01*
X135915156Y-81441363D01*
X135795000Y-82200000D01*
X126898465Y-82200000D01*
X126556890Y-82058524D01*
X126327000Y-82179845D01*
X126073000Y-82179845D01*
X125843110Y-82058524D01*
X125433076Y-82228355D01*
X125004817Y-82618642D01*
X124943843Y-82748478D01*
X124730625Y-82429375D01*
X124239418Y-82101161D01*
X123806256Y-82015000D01*
X123513744Y-82015000D01*
X123080582Y-82101161D01*
X122589375Y-82429375D01*
X122390000Y-82727761D01*
X122190625Y-82429375D01*
X121699418Y-82101161D01*
X121266256Y-82015000D01*
X120973744Y-82015000D01*
X120540582Y-82101161D01*
X120049375Y-82429375D01*
X119850000Y-82727761D01*
X119650625Y-82429375D01*
X119159418Y-82101161D01*
X118726256Y-82015000D01*
X118433744Y-82015000D01*
X118000582Y-82101161D01*
X117509375Y-82429375D01*
X117310000Y-82727761D01*
X117110625Y-82429375D01*
X116800000Y-82221822D01*
X116800000Y-77114846D01*
X116814888Y-77039999D01*
X116800000Y-76965152D01*
X116800000Y-76965148D01*
X116755904Y-76743463D01*
X116587929Y-76492071D01*
X116524473Y-76449671D01*
X114774802Y-74700000D01*
X116295000Y-74700000D01*
X116415156Y-75458637D01*
X116763863Y-76143013D01*
X117306987Y-76686137D01*
X117991363Y-77034844D01*
X118750000Y-77155000D01*
X119508637Y-77034844D01*
X120193013Y-76686137D01*
X120736137Y-76143013D01*
X121084844Y-75458637D01*
X121205000Y-74700000D01*
X121084844Y-73941363D01*
X120736137Y-73256987D01*
X120193013Y-72713863D01*
X119508637Y-72365156D01*
X118750000Y-72245000D01*
X117991363Y-72365156D01*
X117306987Y-72713863D01*
X116763863Y-73256987D01*
X116415156Y-73941363D01*
X116295000Y-74700000D01*
X114774802Y-74700000D01*
X113760000Y-73685199D01*
X113760000Y-69978116D01*
X113788690Y-69990000D01*
X114404250Y-69990000D01*
X114563000Y-69831250D01*
X114563000Y-68707000D01*
X114817000Y-68707000D01*
X114817000Y-69831250D01*
X114975750Y-69990000D01*
X115591310Y-69990000D01*
X115824699Y-69893327D01*
X116003327Y-69714698D01*
X116100000Y-69481309D01*
X116100000Y-68865750D01*
X120900000Y-68865750D01*
X120900000Y-69481310D01*
X120996673Y-69714699D01*
X121175302Y-69893327D01*
X121408691Y-69990000D01*
X122024250Y-69990000D01*
X122183000Y-69831250D01*
X122183000Y-68707000D01*
X122437000Y-68707000D01*
X122437000Y-69831250D01*
X122595750Y-69990000D01*
X123211309Y-69990000D01*
X123444698Y-69893327D01*
X123623327Y-69714699D01*
X123720000Y-69481310D01*
X123720000Y-68865750D01*
X123561250Y-68707000D01*
X122437000Y-68707000D01*
X122183000Y-68707000D01*
X121058750Y-68707000D01*
X120900000Y-68865750D01*
X116100000Y-68865750D01*
X115941250Y-68707000D01*
X114817000Y-68707000D01*
X114563000Y-68707000D01*
X114543000Y-68707000D01*
X114543000Y-68453000D01*
X114563000Y-68453000D01*
X114563000Y-68433000D01*
X114817000Y-68433000D01*
X114817000Y-68453000D01*
X115941250Y-68453000D01*
X116100000Y-68294250D01*
X116100000Y-67678691D01*
X116003327Y-67445302D01*
X115824699Y-67266673D01*
X115591310Y-67170000D01*
X115554042Y-67170000D01*
X115885341Y-66838701D01*
X116100000Y-66320467D01*
X116100000Y-65759533D01*
X115885341Y-65241299D01*
X115488701Y-64844659D01*
X115308458Y-64770000D01*
X115488701Y-64695341D01*
X115885341Y-64298701D01*
X116100000Y-63780467D01*
X116100000Y-63219533D01*
X115885341Y-62701299D01*
X115488701Y-62304659D01*
X115308458Y-62230000D01*
X115488701Y-62155341D01*
X115885341Y-61758701D01*
X116100000Y-61240467D01*
X116100000Y-60679533D01*
X115885341Y-60161299D01*
X115488701Y-59764659D01*
X115308458Y-59690000D01*
X115488701Y-59615341D01*
X115885341Y-59218701D01*
X116100000Y-58700467D01*
X116100000Y-58139533D01*
X120900000Y-58139533D01*
X120900000Y-58700467D01*
X121114659Y-59218701D01*
X121511299Y-59615341D01*
X121691542Y-59690000D01*
X121511299Y-59764659D01*
X121114659Y-60161299D01*
X120900000Y-60679533D01*
X120900000Y-61240467D01*
X121114659Y-61758701D01*
X121511299Y-62155341D01*
X121691542Y-62230000D01*
X121511299Y-62304659D01*
X121114659Y-62701299D01*
X120900000Y-63219533D01*
X120900000Y-63780467D01*
X121114659Y-64298701D01*
X121511299Y-64695341D01*
X121691542Y-64770000D01*
X121511299Y-64844659D01*
X121114659Y-65241299D01*
X120900000Y-65759533D01*
X120900000Y-66320467D01*
X121114659Y-66838701D01*
X121445958Y-67170000D01*
X121408691Y-67170000D01*
X121175302Y-67266673D01*
X120996673Y-67445301D01*
X120900000Y-67678690D01*
X120900000Y-68294250D01*
X121058750Y-68453000D01*
X122183000Y-68453000D01*
X122183000Y-68433000D01*
X122437000Y-68433000D01*
X122437000Y-68453000D01*
X123561250Y-68453000D01*
X123720000Y-68294250D01*
X123720000Y-67678690D01*
X123623327Y-67445301D01*
X123444698Y-67266673D01*
X123211309Y-67170000D01*
X123174042Y-67170000D01*
X123505341Y-66838701D01*
X123720000Y-66320467D01*
X123720000Y-65759533D01*
X123505341Y-65241299D01*
X123108701Y-64844659D01*
X122928458Y-64770000D01*
X123108701Y-64695341D01*
X123505341Y-64298701D01*
X123720000Y-63780467D01*
X123720000Y-63219533D01*
X123505341Y-62701299D01*
X123108701Y-62304659D01*
X122928458Y-62230000D01*
X123108701Y-62155341D01*
X123505341Y-61758701D01*
X123720000Y-61240467D01*
X123720000Y-60679533D01*
X123505341Y-60161299D01*
X123108701Y-59764659D01*
X122928458Y-59690000D01*
X123108701Y-59615341D01*
X123505341Y-59218701D01*
X123720000Y-58700467D01*
X123720000Y-58139533D01*
X123505341Y-57621299D01*
X123108701Y-57224659D01*
X122590467Y-57010000D01*
X122029533Y-57010000D01*
X121511299Y-57224659D01*
X121114659Y-57621299D01*
X120900000Y-58139533D01*
X116100000Y-58139533D01*
X115885341Y-57621299D01*
X115488701Y-57224659D01*
X114970467Y-57010000D01*
X114409533Y-57010000D01*
X113891299Y-57224659D01*
X113494659Y-57621299D01*
X113280000Y-58139533D01*
X113280000Y-58700467D01*
X113494659Y-59218701D01*
X113891299Y-59615341D01*
X114071542Y-59690000D01*
X113891299Y-59764659D01*
X113494659Y-60161299D01*
X113280000Y-60679533D01*
X113280000Y-61240467D01*
X113296030Y-61279168D01*
X112022778Y-62552421D01*
X112014252Y-62558118D01*
X111614252Y-62958118D01*
X111550630Y-63000629D01*
X111508119Y-63064251D01*
X111508118Y-63064252D01*
X111382213Y-63252683D01*
X111323073Y-63550000D01*
X111338001Y-63625048D01*
X111338000Y-74524957D01*
X111323073Y-74600000D01*
X111338000Y-74675043D01*
X111338000Y-74675047D01*
X111382212Y-74897316D01*
X111550629Y-75149371D01*
X111614254Y-75191884D01*
X112014252Y-75591882D01*
X112022777Y-75597579D01*
X112740001Y-76314803D01*
X112740000Y-82002560D01*
X112650000Y-82002560D01*
X112402235Y-82051843D01*
X112192191Y-82192191D01*
X112051843Y-82402235D01*
X112002560Y-82650000D01*
X112002560Y-84350000D01*
X112051843Y-84597765D01*
X112192191Y-84807809D01*
X112402235Y-84948157D01*
X112650000Y-84997440D01*
X114350000Y-84997440D01*
X114597765Y-84948157D01*
X114807809Y-84807809D01*
X114948157Y-84597765D01*
X114957184Y-84552381D01*
X114969375Y-84570625D01*
X115460582Y-84898839D01*
X115893744Y-84985000D01*
X116186256Y-84985000D01*
X116619418Y-84898839D01*
X117110625Y-84570625D01*
X117310000Y-84272239D01*
X117509375Y-84570625D01*
X118000582Y-84898839D01*
X118433744Y-84985000D01*
X118726256Y-84985000D01*
X119159418Y-84898839D01*
X119650625Y-84570625D01*
X119850000Y-84272239D01*
X120049375Y-84570625D01*
X120332633Y-84759892D01*
X120340000Y-84796928D01*
X120340001Y-85925149D01*
X120325112Y-86000000D01*
X120384097Y-86296537D01*
X120507559Y-86481310D01*
X120552072Y-86547929D01*
X120615528Y-86590329D01*
X122240000Y-88214802D01*
X122240001Y-92925148D01*
X122225112Y-93000000D01*
X122240001Y-93074852D01*
X122284097Y-93296537D01*
X122452072Y-93547929D01*
X122515528Y-93590329D01*
X128440001Y-99514803D01*
X128440001Y-105714074D01*
X128395183Y-105618642D01*
X127966924Y-105228355D01*
X127556890Y-105058524D01*
X127327000Y-105179845D01*
X127327000Y-106373000D01*
X127347000Y-106373000D01*
X127347000Y-106627000D01*
X127327000Y-106627000D01*
X127327000Y-107820155D01*
X127556890Y-107941476D01*
X127966924Y-107771645D01*
X128395183Y-107381358D01*
X128440000Y-107285926D01*
X128440000Y-114565198D01*
X125420000Y-111545199D01*
X125420000Y-107778178D01*
X125730625Y-107570625D01*
X125943843Y-107251522D01*
X126004817Y-107381358D01*
X126433076Y-107771645D01*
X126843110Y-107941476D01*
X127073000Y-107820155D01*
X127073000Y-106627000D01*
X127053000Y-106627000D01*
X127053000Y-106373000D01*
X127073000Y-106373000D01*
X127073000Y-105179845D01*
X126843110Y-105058524D01*
X126433076Y-105228355D01*
X126004817Y-105618642D01*
X125943843Y-105748478D01*
X125730625Y-105429375D01*
X125239418Y-105101161D01*
X124806256Y-105015000D01*
X124513744Y-105015000D01*
X124080582Y-105101161D01*
X123589375Y-105429375D01*
X123390000Y-105727761D01*
X123190625Y-105429375D01*
X122699418Y-105101161D01*
X122266256Y-105015000D01*
X121973744Y-105015000D01*
X121540582Y-105101161D01*
X121049375Y-105429375D01*
X120850000Y-105727761D01*
X120650625Y-105429375D01*
X120159418Y-105101161D01*
X119726256Y-105015000D01*
X119433744Y-105015000D01*
X119000582Y-105101161D01*
X118509375Y-105429375D01*
X118310000Y-105727761D01*
X118110625Y-105429375D01*
X117619418Y-105101161D01*
X117186256Y-105015000D01*
X116893744Y-105015000D01*
X116460582Y-105101161D01*
X115969375Y-105429375D01*
X115957184Y-105447619D01*
X115948157Y-105402235D01*
X115807809Y-105192191D01*
X115597765Y-105051843D01*
X115350000Y-105002560D01*
X113650000Y-105002560D01*
X113402235Y-105051843D01*
X113192191Y-105192191D01*
X113051843Y-105402235D01*
X113002560Y-105650000D01*
X113002560Y-107350000D01*
X113051843Y-107597765D01*
X113192191Y-107807809D01*
X113402235Y-107948157D01*
X113650000Y-107997440D01*
X113740001Y-107997440D01*
X113740001Y-108725148D01*
X113725112Y-108800000D01*
X113784097Y-109096537D01*
X113878884Y-109238395D01*
X113952072Y-109347929D01*
X114015528Y-109390329D01*
X120440000Y-115814802D01*
X120440000Y-117204487D01*
X119970467Y-117010000D01*
X119409533Y-117010000D01*
X118891299Y-117224659D01*
X118494659Y-117621299D01*
X118280000Y-118139533D01*
X118280000Y-118700467D01*
X118494659Y-119218701D01*
X118891299Y-119615341D01*
X119071542Y-119690000D01*
X118891299Y-119764659D01*
X118494659Y-120161299D01*
X118280000Y-120679533D01*
X118280000Y-121240467D01*
X118494659Y-121758701D01*
X118891299Y-122155341D01*
X119071542Y-122230000D01*
X118891299Y-122304659D01*
X118494659Y-122701299D01*
X118280000Y-123219533D01*
X118280000Y-123780467D01*
X118494659Y-124298701D01*
X118891299Y-124695341D01*
X119071542Y-124770000D01*
X118891299Y-124844659D01*
X118494659Y-125241299D01*
X118280000Y-125759533D01*
X118280000Y-126320467D01*
X118494659Y-126838701D01*
X118825958Y-127170000D01*
X118788690Y-127170000D01*
X118555301Y-127266673D01*
X118376673Y-127445302D01*
X118280000Y-127678691D01*
X118280000Y-128294250D01*
X118438750Y-128453000D01*
X119563000Y-128453000D01*
X119563000Y-128433000D01*
X119817000Y-128433000D01*
X119817000Y-128453000D01*
X120941250Y-128453000D01*
X121100000Y-128294250D01*
X121100000Y-127678691D01*
X121003327Y-127445302D01*
X120824699Y-127266673D01*
X120591310Y-127170000D01*
X120554042Y-127170000D01*
X120885341Y-126838701D01*
X121100000Y-126320467D01*
X121100000Y-125759533D01*
X120885341Y-125241299D01*
X120488701Y-124844659D01*
X120308458Y-124770000D01*
X120488701Y-124695341D01*
X120885341Y-124298701D01*
X121100000Y-123780467D01*
X121100000Y-123219533D01*
X121083970Y-123180832D01*
X121780329Y-122484474D01*
X121780332Y-122484469D01*
X121890329Y-122374473D01*
X121890330Y-122374471D01*
X122384473Y-121880329D01*
X122447929Y-121837929D01*
X122615904Y-121586537D01*
X122660000Y-121364852D01*
X122660000Y-121364848D01*
X122674888Y-121290000D01*
X122660000Y-121215152D01*
X122660000Y-115074847D01*
X122674888Y-115000000D01*
X122660000Y-114925153D01*
X122660000Y-114925148D01*
X122615904Y-114703463D01*
X122447929Y-114452071D01*
X122384473Y-114409671D01*
X117800000Y-109825199D01*
X117800000Y-107778178D01*
X118110625Y-107570625D01*
X118310000Y-107272239D01*
X118509375Y-107570625D01*
X119000582Y-107898839D01*
X119433744Y-107985000D01*
X119726256Y-107985000D01*
X120159418Y-107898839D01*
X120650625Y-107570625D01*
X120850000Y-107272239D01*
X121049375Y-107570625D01*
X121360000Y-107778178D01*
X121360001Y-110045148D01*
X121345112Y-110120000D01*
X121404097Y-110416537D01*
X121529641Y-110604426D01*
X121572072Y-110667929D01*
X121635528Y-110710329D01*
X127840000Y-116914802D01*
X127840000Y-117113360D01*
X127590467Y-117010000D01*
X127029533Y-117010000D01*
X126511299Y-117224659D01*
X126114659Y-117621299D01*
X125900000Y-118139533D01*
X125900000Y-118700467D01*
X126114659Y-119218701D01*
X126511299Y-119615341D01*
X126691542Y-119690000D01*
X126511299Y-119764659D01*
X126114659Y-120161299D01*
X125900000Y-120679533D01*
X125900000Y-121240467D01*
X126114659Y-121758701D01*
X126511299Y-122155341D01*
X126691542Y-122230000D01*
X126511299Y-122304659D01*
X126114659Y-122701299D01*
X125900000Y-123219533D01*
X125900000Y-123780467D01*
X126114659Y-124298701D01*
X126511299Y-124695341D01*
X126691542Y-124770000D01*
X126511299Y-124844659D01*
X126114659Y-125241299D01*
X125900000Y-125759533D01*
X125900000Y-126320467D01*
X126114659Y-126838701D01*
X126445958Y-127170000D01*
X126408691Y-127170000D01*
X126175302Y-127266673D01*
X125996673Y-127445301D01*
X125900000Y-127678690D01*
X125900000Y-128294250D01*
X126058750Y-128453000D01*
X127183000Y-128453000D01*
X127183000Y-128433000D01*
X127437000Y-128433000D01*
X127437000Y-128453000D01*
X127457000Y-128453000D01*
X127457000Y-128707000D01*
X127437000Y-128707000D01*
X127437000Y-129831250D01*
X127595750Y-129990000D01*
X128140001Y-129990000D01*
X128140001Y-133825148D01*
X128125112Y-133900000D01*
X128184097Y-134196537D01*
X128303008Y-134374499D01*
X128352072Y-134447929D01*
X128415528Y-134490329D01*
X130015527Y-136090329D01*
X130015530Y-136090331D01*
X130202421Y-136277222D01*
X130208118Y-136285748D01*
X130637369Y-136715000D01*
X117285000Y-136715000D01*
X117285000Y-128865750D01*
X118280000Y-128865750D01*
X118280000Y-129481309D01*
X118376673Y-129714698D01*
X118555301Y-129893327D01*
X118788690Y-129990000D01*
X119404250Y-129990000D01*
X119563000Y-129831250D01*
X119563000Y-128707000D01*
X119817000Y-128707000D01*
X119817000Y-129831250D01*
X119975750Y-129990000D01*
X120591310Y-129990000D01*
X120824699Y-129893327D01*
X121003327Y-129714698D01*
X121100000Y-129481309D01*
X121100000Y-128865750D01*
X125900000Y-128865750D01*
X125900000Y-129481310D01*
X125996673Y-129714699D01*
X126175302Y-129893327D01*
X126408691Y-129990000D01*
X127024250Y-129990000D01*
X127183000Y-129831250D01*
X127183000Y-128707000D01*
X126058750Y-128707000D01*
X125900000Y-128865750D01*
X121100000Y-128865750D01*
X120941250Y-128707000D01*
X119817000Y-128707000D01*
X119563000Y-128707000D01*
X118438750Y-128707000D01*
X118280000Y-128865750D01*
X117285000Y-128865750D01*
X117285000Y-114422684D01*
X117278143Y-114388211D01*
X117234479Y-113898964D01*
X117227976Y-113867701D01*
X117226249Y-113835806D01*
X117203884Y-113741200D01*
X117002477Y-113076207D01*
X116985520Y-113037208D01*
X116973509Y-112996398D01*
X116929980Y-112909475D01*
X116580994Y-112308651D01*
X116555518Y-112274597D01*
X116534442Y-112237646D01*
X116472084Y-112163067D01*
X115994239Y-111658644D01*
X115961612Y-111631363D01*
X115932602Y-111600254D01*
X115854760Y-111542021D01*
X115273688Y-111161053D01*
X115235658Y-111142009D01*
X115200270Y-111118408D01*
X115111119Y-111079644D01*
X114457991Y-110842570D01*
X114416600Y-110832786D01*
X114376732Y-110817959D01*
X114281055Y-110800744D01*
X113590906Y-110720281D01*
X112991663Y-110650416D01*
X112510594Y-110475797D01*
X112082601Y-110195192D01*
X111730637Y-109823652D01*
X111473588Y-109381108D01*
X111322124Y-108881016D01*
X111285000Y-108465043D01*
X111285000Y-97500000D01*
X111449621Y-97500000D01*
X111465001Y-97577321D01*
X111465000Y-100422684D01*
X111449621Y-100500000D01*
X111510546Y-100806292D01*
X111684047Y-101065953D01*
X111943708Y-101239454D01*
X112121853Y-101274889D01*
X112250000Y-101300379D01*
X112327316Y-101285000D01*
X125172684Y-101285000D01*
X125250000Y-101300379D01*
X125378148Y-101274889D01*
X125556292Y-101239454D01*
X125815953Y-101065953D01*
X125989454Y-100806292D01*
X126050379Y-100500000D01*
X126035000Y-100422684D01*
X126035000Y-97577316D01*
X126050379Y-97500000D01*
X125989454Y-97193708D01*
X125815953Y-96934047D01*
X125556292Y-96760546D01*
X125327316Y-96715000D01*
X125250000Y-96699621D01*
X125172684Y-96715000D01*
X112327316Y-96715000D01*
X112250000Y-96699621D01*
X112172684Y-96715000D01*
X111943708Y-96760546D01*
X111684047Y-96934047D01*
X111510546Y-97193708D01*
X111449621Y-97500000D01*
X111285000Y-97500000D01*
X111285000Y-90200000D01*
X116295000Y-90200000D01*
X116415156Y-90958637D01*
X116763863Y-91643013D01*
X117306987Y-92186137D01*
X117991363Y-92534844D01*
X118750000Y-92655000D01*
X119508637Y-92534844D01*
X120193013Y-92186137D01*
X120736137Y-91643013D01*
X121084844Y-90958637D01*
X121205000Y-90200000D01*
X121084844Y-89441363D01*
X120736137Y-88756987D01*
X120193013Y-88213863D01*
X119508637Y-87865156D01*
X118750000Y-87745000D01*
X117991363Y-87865156D01*
X117306987Y-88213863D01*
X116763863Y-88756987D01*
X116415156Y-89441363D01*
X116295000Y-90200000D01*
X111285000Y-90200000D01*
X111285000Y-53285000D01*
X128422684Y-53285000D01*
X128500000Y-53300379D01*
X128577316Y-53285000D01*
X128806292Y-53239454D01*
X129065953Y-53065953D01*
X129239454Y-52806292D01*
X129300379Y-52500000D01*
X129285000Y-52422684D01*
X129285000Y-45285000D01*
X147215000Y-45285000D01*
X147215001Y-54422679D01*
G04 #@! TD*
M02*
