G04 #@! TF.GenerationSoftware,KiCad,Pcbnew,(5.0.2)-1*
G04 #@! TF.CreationDate,2019-03-03T20:13:30+01:00*
G04 #@! TF.ProjectId,DorsalTPMG90,446f7273-616c-4545-904d-4739302e6b69,v01*
G04 #@! TF.SameCoordinates,Original*
G04 #@! TF.FileFunction,Copper,L2,Bot*
G04 #@! TF.FilePolarity,Positive*
%FSLAX46Y46*%
G04 Gerber Fmt 4.6, Leading zero omitted, Abs format (unit mm)*
G04 Created by KiCad (PCBNEW (5.0.2)-1) date 03/03/2019 20:13:30*
%MOMM*%
%LPD*%
G01*
G04 APERTURE LIST*
G04 #@! TA.AperFunction,ComponentPad*
%ADD10C,1.550000*%
G04 #@! TD*
G04 #@! TA.AperFunction,ComponentPad*
%ADD11R,1.550000X1.550000*%
G04 #@! TD*
G04 #@! TA.AperFunction,ComponentPad*
%ADD12R,1.600000X1.600000*%
G04 #@! TD*
G04 #@! TA.AperFunction,ComponentPad*
%ADD13C,1.600000*%
G04 #@! TD*
G04 #@! TA.AperFunction,ComponentPad*
%ADD14R,1.700000X1.700000*%
G04 #@! TD*
G04 #@! TA.AperFunction,ComponentPad*
%ADD15O,1.700000X1.700000*%
G04 #@! TD*
G04 #@! TA.AperFunction,ViaPad*
%ADD16C,0.800000*%
G04 #@! TD*
G04 #@! TA.AperFunction,Conductor*
%ADD17C,0.676000*%
G04 #@! TD*
G04 #@! TA.AperFunction,Conductor*
%ADD18C,0.250000*%
G04 #@! TD*
G04 #@! TA.AperFunction,Conductor*
%ADD19C,0.254000*%
G04 #@! TD*
G04 APERTURE END LIST*
D10*
G04 #@! TO.P,U5,9*
G04 #@! TO.N,Vbat*
X114690000Y-66040000D03*
G04 #@! TO.P,U5,8*
G04 #@! TO.N,M24*
X114690000Y-63500000D03*
G04 #@! TO.P,U5,7*
G04 #@! TO.N,M14*
X114690000Y-60960000D03*
G04 #@! TO.P,U5,6*
G04 #@! TO.N,Net-(U5-Pad6)*
X114690000Y-58420000D03*
D11*
G04 #@! TO.P,U5,10*
G04 #@! TO.N,GND*
X114690000Y-68580000D03*
D10*
G04 #@! TO.P,U5,5*
G04 #@! TO.N,Net-(U5-Pad5)*
X122310000Y-58420000D03*
G04 #@! TO.P,U5,4*
G04 #@! TO.N,P7*
X122310000Y-60960000D03*
G04 #@! TO.P,U5,3*
G04 #@! TO.N,P5*
X122310000Y-63500000D03*
G04 #@! TO.P,U5,2*
G04 #@! TO.N,+3V3*
X122310000Y-66040000D03*
D11*
G04 #@! TO.P,U5,1*
G04 #@! TO.N,GND*
X122310000Y-68580000D03*
G04 #@! TD*
D12*
G04 #@! TO.P,U1,1*
G04 #@! TO.N,GND*
X148020000Y-133110000D03*
D13*
G04 #@! TO.P,U1,2*
G04 #@! TO.N,P0*
X148020000Y-130570000D03*
G04 #@! TO.P,U1,3*
G04 #@! TO.N,P1*
X148020000Y-128030000D03*
G04 #@! TO.P,U1,4*
G04 #@! TO.N,P2*
X148020000Y-125490000D03*
G04 #@! TO.P,U1,5*
G04 #@! TO.N,Net-(U1-Pad5)*
X148020000Y-122950000D03*
G04 #@! TO.P,U1,6*
G04 #@! TO.N,Net-(U1-Pad6)*
X148020000Y-120410000D03*
G04 #@! TO.P,U1,7*
G04 #@! TO.N,P5*
X148020000Y-117870000D03*
G04 #@! TO.P,U1,8*
G04 #@! TO.N,P6*
X148020000Y-115330000D03*
G04 #@! TO.P,U1,9*
G04 #@! TO.N,P7*
X148020000Y-112790000D03*
G04 #@! TO.P,U1,10*
G04 #@! TO.N,P8*
X148020000Y-110250000D03*
G04 #@! TO.P,U1,11*
G04 #@! TO.N,P9*
X148020000Y-107710000D03*
G04 #@! TO.P,U1,12*
G04 #@! TO.N,P10*
X148020000Y-105170000D03*
G04 #@! TO.P,U1,13*
G04 #@! TO.N,P11*
X148020000Y-102630000D03*
G04 #@! TO.P,U1,33*
G04 #@! TO.N,Net-(U1-Pad33)*
X132780000Y-133110000D03*
G04 #@! TO.P,U1,32*
G04 #@! TO.N,Net-(U1-Pad32)*
X132780000Y-130570000D03*
G04 #@! TO.P,U1,31*
G04 #@! TO.N,+3V3*
X132780000Y-128030000D03*
G04 #@! TO.P,U1,30*
G04 #@! TO.N,P23*
X132780000Y-125490000D03*
G04 #@! TO.P,U1,29*
G04 #@! TO.N,P22*
X132780000Y-122950000D03*
G04 #@! TO.P,U1,28*
G04 #@! TO.N,P21*
X132780000Y-120410000D03*
G04 #@! TO.P,U1,27*
G04 #@! TO.N,P20*
X132780000Y-117870000D03*
G04 #@! TO.P,U1,26*
G04 #@! TO.N,P19*
X132780000Y-115330000D03*
G04 #@! TO.P,U1,25*
G04 #@! TO.N,P18*
X132780000Y-112790000D03*
G04 #@! TO.P,U1,24*
G04 #@! TO.N,P17*
X132780000Y-110250000D03*
G04 #@! TO.P,U1,23*
G04 #@! TO.N,P16*
X132780000Y-107710000D03*
G04 #@! TO.P,U1,22*
G04 #@! TO.N,P15*
X132780000Y-105170000D03*
G04 #@! TO.P,U1,21*
G04 #@! TO.N,P14*
X132780000Y-102630000D03*
G04 #@! TO.P,U1,14*
G04 #@! TO.N,P12*
X148020000Y-100090000D03*
G04 #@! TO.P,U1,20*
G04 #@! TO.N,Net-(U1-Pad20)*
X132780000Y-100090000D03*
G04 #@! TD*
D14*
G04 #@! TO.P,J1,1*
G04 #@! TO.N,P0*
X166500000Y-132500000D03*
D15*
G04 #@! TO.P,J1,2*
G04 #@! TO.N,Vbat*
X169040000Y-132500000D03*
G04 #@! TO.P,J1,3*
G04 #@! TO.N,GND*
X171580000Y-132500000D03*
G04 #@! TD*
G04 #@! TO.P,J2,6*
G04 #@! TO.N,GND*
X126200000Y-83500000D03*
G04 #@! TO.P,J2,5*
G04 #@! TO.N,P20*
X123660000Y-83500000D03*
G04 #@! TO.P,J2,4*
G04 #@! TO.N,P21*
X121120000Y-83500000D03*
G04 #@! TO.P,J2,3*
G04 #@! TO.N,+3V3*
X118580000Y-83500000D03*
G04 #@! TO.P,J2,2*
G04 #@! TO.N,M24*
X116040000Y-83500000D03*
D14*
G04 #@! TO.P,J2,1*
G04 #@! TO.N,M14*
X113500000Y-83500000D03*
G04 #@! TD*
G04 #@! TO.P,J3,1*
G04 #@! TO.N,M15*
X114500000Y-106500000D03*
D15*
G04 #@! TO.P,J3,2*
G04 #@! TO.N,M25*
X117040000Y-106500000D03*
G04 #@! TO.P,J3,3*
G04 #@! TO.N,+3V3*
X119580000Y-106500000D03*
G04 #@! TO.P,J3,4*
G04 #@! TO.N,P23*
X122120000Y-106500000D03*
G04 #@! TO.P,J3,5*
G04 #@! TO.N,P22*
X124660000Y-106500000D03*
G04 #@! TO.P,J3,6*
G04 #@! TO.N,GND*
X127200000Y-106500000D03*
G04 #@! TD*
D14*
G04 #@! TO.P,J4,1*
G04 #@! TO.N,M11*
X169500000Y-100500000D03*
D15*
G04 #@! TO.P,J4,2*
G04 #@! TO.N,M21*
X172040000Y-100500000D03*
G04 #@! TO.P,J4,3*
G04 #@! TO.N,+3V3*
X174580000Y-100500000D03*
G04 #@! TO.P,J4,4*
G04 #@! TO.N,P15*
X177120000Y-100500000D03*
G04 #@! TO.P,J4,5*
G04 #@! TO.N,P14*
X179660000Y-100500000D03*
G04 #@! TO.P,J4,6*
G04 #@! TO.N,GND*
X182200000Y-100500000D03*
G04 #@! TD*
G04 #@! TO.P,J5,6*
G04 #@! TO.N,GND*
X164200000Y-85500000D03*
G04 #@! TO.P,J5,5*
G04 #@! TO.N,P16*
X161660000Y-85500000D03*
G04 #@! TO.P,J5,4*
G04 #@! TO.N,P17*
X159120000Y-85500000D03*
G04 #@! TO.P,J5,3*
G04 #@! TO.N,+3V3*
X156580000Y-85500000D03*
G04 #@! TO.P,J5,2*
G04 #@! TO.N,M22*
X154040000Y-85500000D03*
D14*
G04 #@! TO.P,J5,1*
G04 #@! TO.N,M12*
X151500000Y-85500000D03*
G04 #@! TD*
G04 #@! TO.P,J6,1*
G04 #@! TO.N,M13*
X132500000Y-75500000D03*
D15*
G04 #@! TO.P,J6,2*
G04 #@! TO.N,M23*
X135040000Y-75500000D03*
G04 #@! TO.P,J6,3*
G04 #@! TO.N,+3V3*
X137580000Y-75500000D03*
G04 #@! TO.P,J6,4*
G04 #@! TO.N,P19*
X140120000Y-75500000D03*
G04 #@! TO.P,J6,5*
G04 #@! TO.N,P18*
X142660000Y-75500000D03*
G04 #@! TO.P,J6,6*
G04 #@! TO.N,GND*
X145200000Y-75500000D03*
G04 #@! TD*
D10*
G04 #@! TO.P,U2,9*
G04 #@! TO.N,Vbat*
X173190000Y-83040000D03*
G04 #@! TO.P,U2,8*
G04 #@! TO.N,M21*
X173190000Y-80500000D03*
G04 #@! TO.P,U2,7*
G04 #@! TO.N,M11*
X173190000Y-77960000D03*
G04 #@! TO.P,U2,6*
G04 #@! TO.N,Net-(U2-Pad6)*
X173190000Y-75420000D03*
D11*
G04 #@! TO.P,U2,10*
G04 #@! TO.N,GND*
X173190000Y-85580000D03*
D10*
G04 #@! TO.P,U2,5*
G04 #@! TO.N,Net-(U2-Pad5)*
X180810000Y-75420000D03*
G04 #@! TO.P,U2,4*
G04 #@! TO.N,P12*
X180810000Y-77960000D03*
G04 #@! TO.P,U2,3*
G04 #@! TO.N,P10*
X180810000Y-80500000D03*
G04 #@! TO.P,U2,2*
G04 #@! TO.N,+3V3*
X180810000Y-83040000D03*
D11*
G04 #@! TO.P,U2,1*
G04 #@! TO.N,GND*
X180810000Y-85580000D03*
G04 #@! TD*
G04 #@! TO.P,U3,1*
G04 #@! TO.N,GND*
X161310000Y-70580000D03*
D10*
G04 #@! TO.P,U3,2*
G04 #@! TO.N,+3V3*
X161310000Y-68040000D03*
G04 #@! TO.P,U3,3*
G04 #@! TO.N,P9*
X161310000Y-65500000D03*
G04 #@! TO.P,U3,4*
G04 #@! TO.N,P11*
X161310000Y-62960000D03*
G04 #@! TO.P,U3,5*
G04 #@! TO.N,Net-(U3-Pad5)*
X161310000Y-60420000D03*
D11*
G04 #@! TO.P,U3,10*
G04 #@! TO.N,GND*
X153690000Y-70580000D03*
D10*
G04 #@! TO.P,U3,6*
G04 #@! TO.N,Net-(U3-Pad6)*
X153690000Y-60420000D03*
G04 #@! TO.P,U3,7*
G04 #@! TO.N,M12*
X153690000Y-62960000D03*
G04 #@! TO.P,U3,8*
G04 #@! TO.N,M22*
X153690000Y-65500000D03*
G04 #@! TO.P,U3,9*
G04 #@! TO.N,Vbat*
X153690000Y-68040000D03*
G04 #@! TD*
D11*
G04 #@! TO.P,U4,1*
G04 #@! TO.N,GND*
X142310000Y-60580000D03*
D10*
G04 #@! TO.P,U4,2*
G04 #@! TO.N,+3V3*
X142310000Y-58040000D03*
G04 #@! TO.P,U4,3*
G04 #@! TO.N,P6*
X142310000Y-55500000D03*
G04 #@! TO.P,U4,4*
G04 #@! TO.N,P8*
X142310000Y-52960000D03*
G04 #@! TO.P,U4,5*
G04 #@! TO.N,Net-(U4-Pad5)*
X142310000Y-50420000D03*
D11*
G04 #@! TO.P,U4,10*
G04 #@! TO.N,GND*
X134690000Y-60580000D03*
D10*
G04 #@! TO.P,U4,6*
G04 #@! TO.N,Net-(U4-Pad6)*
X134690000Y-50420000D03*
G04 #@! TO.P,U4,7*
G04 #@! TO.N,M13*
X134690000Y-52960000D03*
G04 #@! TO.P,U4,8*
G04 #@! TO.N,M23*
X134690000Y-55500000D03*
G04 #@! TO.P,U4,9*
G04 #@! TO.N,Vbat*
X134690000Y-58040000D03*
G04 #@! TD*
G04 #@! TO.P,U6,9*
G04 #@! TO.N,Vbat*
X119690000Y-126040000D03*
G04 #@! TO.P,U6,8*
G04 #@! TO.N,M25*
X119690000Y-123500000D03*
G04 #@! TO.P,U6,7*
G04 #@! TO.N,M15*
X119690000Y-120960000D03*
G04 #@! TO.P,U6,6*
G04 #@! TO.N,Net-(U6-Pad6)*
X119690000Y-118420000D03*
D11*
G04 #@! TO.P,U6,10*
G04 #@! TO.N,GND*
X119690000Y-128580000D03*
D10*
G04 #@! TO.P,U6,5*
G04 #@! TO.N,Net-(U6-Pad5)*
X127310000Y-118420000D03*
G04 #@! TO.P,U6,4*
G04 #@! TO.N,P2*
X127310000Y-120960000D03*
G04 #@! TO.P,U6,3*
G04 #@! TO.N,P1*
X127310000Y-123500000D03*
G04 #@! TO.P,U6,2*
G04 #@! TO.N,+3V3*
X127310000Y-126040000D03*
D11*
G04 #@! TO.P,U6,1*
G04 #@! TO.N,GND*
X127310000Y-128580000D03*
G04 #@! TD*
D14*
G04 #@! TO.P,J7,1*
G04 #@! TO.N,Vbat*
X155500000Y-132500000D03*
D15*
G04 #@! TO.P,J7,2*
G04 #@! TO.N,GND*
X158040000Y-132500000D03*
G04 #@! TD*
D16*
G04 #@! TO.N,P15*
X177200000Y-104100000D03*
G04 #@! TD*
D17*
G04 #@! TO.N,Vbat*
X153974000Y-132500000D02*
X150874000Y-135600000D01*
X155500000Y-132500000D02*
X153974000Y-132500000D01*
X150874000Y-135600000D02*
X127400000Y-135600000D01*
X127400000Y-135600000D02*
X123600000Y-131800000D01*
X120826015Y-126000000D02*
X123600000Y-126000000D01*
X120786015Y-126040000D02*
X120826015Y-126000000D01*
X119690000Y-126040000D02*
X120786015Y-126040000D01*
X123600000Y-131800000D02*
X123600000Y-126000000D01*
X132350000Y-55700000D02*
X134690000Y-58040000D01*
X120000000Y-55700000D02*
X132350000Y-55700000D01*
X129800000Y-80400000D02*
X118300000Y-68900000D01*
X118300000Y-57400000D02*
X120000000Y-55700000D01*
X118240000Y-66040000D02*
X118300000Y-66100000D01*
X114690000Y-66040000D02*
X118240000Y-66040000D01*
X118300000Y-68900000D02*
X118300000Y-66100000D01*
X118300000Y-66100000D02*
X118300000Y-57400000D01*
X146940000Y-68040000D02*
X153690000Y-68040000D01*
X134690000Y-58040000D02*
X136940000Y-58040000D01*
X136940000Y-58040000D02*
X146940000Y-68040000D01*
X153690000Y-68040000D02*
X162050000Y-76400000D01*
X172415001Y-82265001D02*
X173190000Y-83040000D01*
X166550000Y-76400000D02*
X172415001Y-82265001D01*
X162050000Y-76400000D02*
X166550000Y-76400000D01*
X129800000Y-110400000D02*
X129800000Y-106800000D01*
X124000000Y-116200000D02*
X129800000Y-110400000D01*
X129800000Y-107700000D02*
X129800000Y-106800000D01*
X129800000Y-106800000D02*
X129800000Y-80400000D01*
X124000000Y-116200000D02*
X123600000Y-116600000D01*
X123600000Y-126000000D02*
X123600000Y-116600000D01*
X169040000Y-130840000D02*
X169040000Y-132500000D01*
X168100000Y-129900000D02*
X169040000Y-130840000D01*
X156574000Y-129900000D02*
X168100000Y-129900000D01*
X155500000Y-132500000D02*
X155500000Y-130974000D01*
X155500000Y-130974000D02*
X156574000Y-129900000D01*
D18*
G04 #@! TO.N,P15*
X177173620Y-100553620D02*
X177120000Y-100500000D01*
X177173620Y-103625000D02*
X177173620Y-100553620D01*
D19*
X177173620Y-104073620D02*
X177200000Y-104100000D01*
X177173620Y-103625000D02*
X177173620Y-104073620D01*
D18*
G04 #@! TO.N,P16*
X165000000Y-88840000D02*
X161660000Y-85500000D01*
X165500000Y-89340000D02*
X165000000Y-88840000D01*
X155100000Y-121700000D02*
X152500000Y-121700000D01*
X152500000Y-121700000D02*
X152800000Y-121700000D01*
X165000000Y-88840000D02*
X165040000Y-88840000D01*
X165040000Y-88840000D02*
X166300000Y-90100000D01*
X166300000Y-90100000D02*
X166300000Y-110500000D01*
X166300000Y-110500000D02*
X155100000Y-121700000D01*
X136770000Y-118570000D02*
X136770000Y-111700000D01*
X139900000Y-121700000D02*
X136770000Y-118570000D01*
X152500000Y-121700000D02*
X139900000Y-121700000D01*
X132780000Y-107710000D02*
X136770000Y-111700000D01*
G04 #@! TO.N,P17*
X136100000Y-113570000D02*
X136100000Y-119000000D01*
X132780000Y-110250000D02*
X136100000Y-113570000D01*
X136100000Y-119000000D02*
X141400000Y-124300000D01*
X153500000Y-124300000D02*
X167000000Y-110800000D01*
X165100000Y-83300000D02*
X167000000Y-85200000D01*
X161320000Y-83300000D02*
X165100000Y-83300000D01*
X159120000Y-85500000D02*
X161320000Y-83300000D01*
X167000000Y-110800000D02*
X167000000Y-85200000D01*
X153500000Y-124300000D02*
X141400000Y-124300000D01*
G04 #@! TO.N,P7*
X124000000Y-62650000D02*
X122310000Y-60960000D01*
X124000000Y-64200000D02*
X124000000Y-62650000D01*
X130800000Y-71000000D02*
X124000000Y-64200000D01*
X148020000Y-112790000D02*
X146300000Y-111070000D01*
X146300000Y-81200000D02*
X148300000Y-79200000D01*
X148300000Y-79200000D02*
X148300000Y-73900000D01*
X148300000Y-73900000D02*
X145400000Y-71000000D01*
X146300000Y-111070000D02*
X146300000Y-81200000D01*
X145400000Y-71000000D02*
X130800000Y-71000000D01*
G04 #@! TO.N,P5*
X130510000Y-71700000D02*
X122310000Y-63500000D01*
X145500000Y-115350000D02*
X145500000Y-80900000D01*
X148020000Y-117870000D02*
X145500000Y-115350000D01*
X145500000Y-80900000D02*
X147500000Y-78900000D01*
X147500000Y-78900000D02*
X147500000Y-74100000D01*
X147500000Y-74100000D02*
X145100000Y-71700000D01*
X145100000Y-71700000D02*
X130510000Y-71700000D01*
G04 #@! TD*
D19*
G04 #@! TO.N,+3V3*
G36*
X147215001Y-54422679D02*
X147199621Y-54500000D01*
X147260546Y-54806292D01*
X147434047Y-55065953D01*
X147693708Y-55239454D01*
X147922684Y-55285000D01*
X148000000Y-55300379D01*
X148077316Y-55285000D01*
X166715000Y-55285000D01*
X166715001Y-69422679D01*
X166699621Y-69500000D01*
X166760546Y-69806292D01*
X166934047Y-70065953D01*
X167193708Y-70239454D01*
X167422684Y-70285000D01*
X167500000Y-70300379D01*
X167577316Y-70285000D01*
X184715000Y-70285000D01*
X184715001Y-122479762D01*
X184638664Y-123961094D01*
X184413581Y-125406697D01*
X184041091Y-126821512D01*
X183525144Y-128190538D01*
X182871205Y-129499278D01*
X182086191Y-130733881D01*
X181178437Y-131881236D01*
X180157553Y-132929204D01*
X179034349Y-133866684D01*
X177820729Y-134683741D01*
X176529553Y-135371717D01*
X175174495Y-135923328D01*
X173769920Y-136332723D01*
X172330699Y-136595571D01*
X170857022Y-136710259D01*
X170494843Y-136715000D01*
X117285000Y-136715000D01*
X117285000Y-114422684D01*
X117278143Y-114388211D01*
X117234479Y-113898964D01*
X117227976Y-113867701D01*
X117226249Y-113835806D01*
X117203884Y-113741200D01*
X117002477Y-113076207D01*
X116985520Y-113037208D01*
X116973509Y-112996398D01*
X116929980Y-112909475D01*
X116580994Y-112308651D01*
X116555518Y-112274597D01*
X116534442Y-112237646D01*
X116472084Y-112163067D01*
X115994239Y-111658644D01*
X115961612Y-111631363D01*
X115932602Y-111600254D01*
X115854760Y-111542021D01*
X115273688Y-111161053D01*
X115235658Y-111142009D01*
X115200270Y-111118408D01*
X115111119Y-111079644D01*
X114457991Y-110842570D01*
X114416600Y-110832786D01*
X114376732Y-110817959D01*
X114281055Y-110800744D01*
X113590906Y-110720281D01*
X112991663Y-110650416D01*
X112510594Y-110475797D01*
X112082601Y-110195192D01*
X111730637Y-109823652D01*
X111473588Y-109381108D01*
X111322124Y-108881016D01*
X111285000Y-108465043D01*
X111285000Y-105650000D01*
X113002560Y-105650000D01*
X113002560Y-107350000D01*
X113051843Y-107597765D01*
X113192191Y-107807809D01*
X113402235Y-107948157D01*
X113650000Y-107997440D01*
X115350000Y-107997440D01*
X115597765Y-107948157D01*
X115807809Y-107807809D01*
X115948157Y-107597765D01*
X115957184Y-107552381D01*
X115969375Y-107570625D01*
X116460582Y-107898839D01*
X116893744Y-107985000D01*
X117186256Y-107985000D01*
X117619418Y-107898839D01*
X118110625Y-107570625D01*
X118323843Y-107251522D01*
X118384817Y-107381358D01*
X118813076Y-107771645D01*
X119223110Y-107941476D01*
X119453000Y-107820155D01*
X119453000Y-106627000D01*
X119433000Y-106627000D01*
X119433000Y-106373000D01*
X119453000Y-106373000D01*
X119453000Y-105179845D01*
X119707000Y-105179845D01*
X119707000Y-106373000D01*
X119727000Y-106373000D01*
X119727000Y-106627000D01*
X119707000Y-106627000D01*
X119707000Y-107820155D01*
X119936890Y-107941476D01*
X120346924Y-107771645D01*
X120775183Y-107381358D01*
X120836157Y-107251522D01*
X121049375Y-107570625D01*
X121540582Y-107898839D01*
X121973744Y-107985000D01*
X122266256Y-107985000D01*
X122699418Y-107898839D01*
X123190625Y-107570625D01*
X123390000Y-107272239D01*
X123589375Y-107570625D01*
X124080582Y-107898839D01*
X124513744Y-107985000D01*
X124806256Y-107985000D01*
X125239418Y-107898839D01*
X125730625Y-107570625D01*
X125930000Y-107272239D01*
X126129375Y-107570625D01*
X126620582Y-107898839D01*
X127053744Y-107985000D01*
X127346256Y-107985000D01*
X127779418Y-107898839D01*
X128270625Y-107570625D01*
X128598839Y-107079418D01*
X128714092Y-106500000D01*
X128598839Y-105920582D01*
X128270625Y-105429375D01*
X127779418Y-105101161D01*
X127346256Y-105015000D01*
X127053744Y-105015000D01*
X126620582Y-105101161D01*
X126129375Y-105429375D01*
X125930000Y-105727761D01*
X125730625Y-105429375D01*
X125239418Y-105101161D01*
X124806256Y-105015000D01*
X124513744Y-105015000D01*
X124080582Y-105101161D01*
X123589375Y-105429375D01*
X123390000Y-105727761D01*
X123190625Y-105429375D01*
X122699418Y-105101161D01*
X122266256Y-105015000D01*
X121973744Y-105015000D01*
X121540582Y-105101161D01*
X121049375Y-105429375D01*
X120836157Y-105748478D01*
X120775183Y-105618642D01*
X120346924Y-105228355D01*
X119936890Y-105058524D01*
X119707000Y-105179845D01*
X119453000Y-105179845D01*
X119223110Y-105058524D01*
X118813076Y-105228355D01*
X118384817Y-105618642D01*
X118323843Y-105748478D01*
X118110625Y-105429375D01*
X117619418Y-105101161D01*
X117186256Y-105015000D01*
X116893744Y-105015000D01*
X116460582Y-105101161D01*
X115969375Y-105429375D01*
X115957184Y-105447619D01*
X115948157Y-105402235D01*
X115807809Y-105192191D01*
X115597765Y-105051843D01*
X115350000Y-105002560D01*
X113650000Y-105002560D01*
X113402235Y-105051843D01*
X113192191Y-105192191D01*
X113051843Y-105402235D01*
X113002560Y-105650000D01*
X111285000Y-105650000D01*
X111285000Y-97500000D01*
X111449621Y-97500000D01*
X111465001Y-97577321D01*
X111465000Y-100422684D01*
X111449621Y-100500000D01*
X111510546Y-100806292D01*
X111629603Y-100984472D01*
X111684047Y-101065953D01*
X111943708Y-101239454D01*
X112250000Y-101300379D01*
X112327316Y-101285000D01*
X125172684Y-101285000D01*
X125250000Y-101300379D01*
X125556292Y-101239454D01*
X125815953Y-101065953D01*
X125989454Y-100806292D01*
X126035000Y-100577316D01*
X126035000Y-100577315D01*
X126050379Y-100500000D01*
X126035000Y-100422684D01*
X126035000Y-97577316D01*
X126050379Y-97500000D01*
X125989454Y-97193708D01*
X125815953Y-96934047D01*
X125556292Y-96760546D01*
X125327316Y-96715000D01*
X125250000Y-96699621D01*
X125172684Y-96715000D01*
X112327316Y-96715000D01*
X112250000Y-96699621D01*
X112172684Y-96715000D01*
X111943708Y-96760546D01*
X111684047Y-96934047D01*
X111510546Y-97193708D01*
X111449621Y-97500000D01*
X111285000Y-97500000D01*
X111285000Y-90200000D01*
X116295000Y-90200000D01*
X116415156Y-90958637D01*
X116763863Y-91643013D01*
X117306987Y-92186137D01*
X117991363Y-92534844D01*
X118750000Y-92655000D01*
X119508637Y-92534844D01*
X120193013Y-92186137D01*
X120736137Y-91643013D01*
X121084844Y-90958637D01*
X121205000Y-90200000D01*
X121084844Y-89441363D01*
X120736137Y-88756987D01*
X120193013Y-88213863D01*
X119508637Y-87865156D01*
X118750000Y-87745000D01*
X117991363Y-87865156D01*
X117306987Y-88213863D01*
X116763863Y-88756987D01*
X116415156Y-89441363D01*
X116295000Y-90200000D01*
X111285000Y-90200000D01*
X111285000Y-82650000D01*
X112002560Y-82650000D01*
X112002560Y-84350000D01*
X112051843Y-84597765D01*
X112192191Y-84807809D01*
X112402235Y-84948157D01*
X112650000Y-84997440D01*
X114350000Y-84997440D01*
X114597765Y-84948157D01*
X114807809Y-84807809D01*
X114948157Y-84597765D01*
X114957184Y-84552381D01*
X114969375Y-84570625D01*
X115460582Y-84898839D01*
X115893744Y-84985000D01*
X116186256Y-84985000D01*
X116619418Y-84898839D01*
X117110625Y-84570625D01*
X117323843Y-84251522D01*
X117384817Y-84381358D01*
X117813076Y-84771645D01*
X118223110Y-84941476D01*
X118453000Y-84820155D01*
X118453000Y-83627000D01*
X118433000Y-83627000D01*
X118433000Y-83373000D01*
X118453000Y-83373000D01*
X118453000Y-82179845D01*
X118707000Y-82179845D01*
X118707000Y-83373000D01*
X118727000Y-83373000D01*
X118727000Y-83627000D01*
X118707000Y-83627000D01*
X118707000Y-84820155D01*
X118936890Y-84941476D01*
X119346924Y-84771645D01*
X119775183Y-84381358D01*
X119836157Y-84251522D01*
X120049375Y-84570625D01*
X120540582Y-84898839D01*
X120973744Y-84985000D01*
X121266256Y-84985000D01*
X121699418Y-84898839D01*
X122190625Y-84570625D01*
X122390000Y-84272239D01*
X122589375Y-84570625D01*
X123080582Y-84898839D01*
X123513744Y-84985000D01*
X123806256Y-84985000D01*
X124239418Y-84898839D01*
X124730625Y-84570625D01*
X124930000Y-84272239D01*
X125129375Y-84570625D01*
X125620582Y-84898839D01*
X126053744Y-84985000D01*
X126346256Y-84985000D01*
X126779418Y-84898839D01*
X127270625Y-84570625D01*
X127598839Y-84079418D01*
X127714092Y-83500000D01*
X127598839Y-82920582D01*
X127270625Y-82429375D01*
X126779418Y-82101161D01*
X126346256Y-82015000D01*
X126053744Y-82015000D01*
X125620582Y-82101161D01*
X125129375Y-82429375D01*
X124930000Y-82727761D01*
X124730625Y-82429375D01*
X124239418Y-82101161D01*
X123806256Y-82015000D01*
X123513744Y-82015000D01*
X123080582Y-82101161D01*
X122589375Y-82429375D01*
X122390000Y-82727761D01*
X122190625Y-82429375D01*
X121699418Y-82101161D01*
X121266256Y-82015000D01*
X120973744Y-82015000D01*
X120540582Y-82101161D01*
X120049375Y-82429375D01*
X119836157Y-82748478D01*
X119775183Y-82618642D01*
X119346924Y-82228355D01*
X118936890Y-82058524D01*
X118707000Y-82179845D01*
X118453000Y-82179845D01*
X118223110Y-82058524D01*
X117813076Y-82228355D01*
X117384817Y-82618642D01*
X117323843Y-82748478D01*
X117110625Y-82429375D01*
X116619418Y-82101161D01*
X116186256Y-82015000D01*
X115893744Y-82015000D01*
X115460582Y-82101161D01*
X114969375Y-82429375D01*
X114957184Y-82447619D01*
X114948157Y-82402235D01*
X114807809Y-82192191D01*
X114597765Y-82051843D01*
X114350000Y-82002560D01*
X112650000Y-82002560D01*
X112402235Y-82051843D01*
X112192191Y-82192191D01*
X112051843Y-82402235D01*
X112002560Y-82650000D01*
X111285000Y-82650000D01*
X111285000Y-74700000D01*
X116295000Y-74700000D01*
X116415156Y-75458637D01*
X116763863Y-76143013D01*
X117306987Y-76686137D01*
X117991363Y-77034844D01*
X118750000Y-77155000D01*
X119508637Y-77034844D01*
X120193013Y-76686137D01*
X120736137Y-76143013D01*
X121084844Y-75458637D01*
X121205000Y-74700000D01*
X121084844Y-73941363D01*
X120736137Y-73256987D01*
X120193013Y-72713863D01*
X119508637Y-72365156D01*
X118750000Y-72245000D01*
X117991363Y-72365156D01*
X117306987Y-72713863D01*
X116763863Y-73256987D01*
X116415156Y-73941363D01*
X116295000Y-74700000D01*
X111285000Y-74700000D01*
X111285000Y-67805000D01*
X113267560Y-67805000D01*
X113267560Y-69355000D01*
X113316843Y-69602765D01*
X113457191Y-69812809D01*
X113667235Y-69953157D01*
X113915000Y-70002440D01*
X115465000Y-70002440D01*
X115712765Y-69953157D01*
X115922809Y-69812809D01*
X116063157Y-69602765D01*
X116112440Y-69355000D01*
X116112440Y-67805000D01*
X116063157Y-67557235D01*
X115922809Y-67347191D01*
X115712765Y-67206843D01*
X115549645Y-67174397D01*
X115711042Y-67013000D01*
X117327001Y-67013000D01*
X117327000Y-68804168D01*
X117307938Y-68900000D01*
X117327000Y-68995831D01*
X117383454Y-69279645D01*
X117598506Y-69601494D01*
X117679752Y-69655781D01*
X128827001Y-80803031D01*
X128827000Y-106895831D01*
X128827001Y-106895835D01*
X128827000Y-107795831D01*
X128827001Y-107795835D01*
X128827000Y-109996970D01*
X123379749Y-115444222D01*
X122979750Y-115844221D01*
X122898507Y-115898506D01*
X122844222Y-115979749D01*
X122683454Y-116220355D01*
X122607938Y-116600000D01*
X122627001Y-116695836D01*
X122627000Y-125027000D01*
X120921846Y-125027000D01*
X120826015Y-125007938D01*
X120730184Y-125027000D01*
X120730183Y-125027000D01*
X120680854Y-125036812D01*
X120488701Y-124844659D01*
X120308458Y-124770000D01*
X120488701Y-124695341D01*
X120885341Y-124298701D01*
X121100000Y-123780467D01*
X121100000Y-123219533D01*
X120885341Y-122701299D01*
X120488701Y-122304659D01*
X120308458Y-122230000D01*
X120488701Y-122155341D01*
X120885341Y-121758701D01*
X121100000Y-121240467D01*
X121100000Y-120679533D01*
X120885341Y-120161299D01*
X120488701Y-119764659D01*
X120308458Y-119690000D01*
X120488701Y-119615341D01*
X120885341Y-119218701D01*
X121100000Y-118700467D01*
X121100000Y-118139533D01*
X120885341Y-117621299D01*
X120488701Y-117224659D01*
X119970467Y-117010000D01*
X119409533Y-117010000D01*
X118891299Y-117224659D01*
X118494659Y-117621299D01*
X118280000Y-118139533D01*
X118280000Y-118700467D01*
X118494659Y-119218701D01*
X118891299Y-119615341D01*
X119071542Y-119690000D01*
X118891299Y-119764659D01*
X118494659Y-120161299D01*
X118280000Y-120679533D01*
X118280000Y-121240467D01*
X118494659Y-121758701D01*
X118891299Y-122155341D01*
X119071542Y-122230000D01*
X118891299Y-122304659D01*
X118494659Y-122701299D01*
X118280000Y-123219533D01*
X118280000Y-123780467D01*
X118494659Y-124298701D01*
X118891299Y-124695341D01*
X119071542Y-124770000D01*
X118891299Y-124844659D01*
X118494659Y-125241299D01*
X118280000Y-125759533D01*
X118280000Y-126320467D01*
X118494659Y-126838701D01*
X118830355Y-127174397D01*
X118667235Y-127206843D01*
X118457191Y-127347191D01*
X118316843Y-127557235D01*
X118267560Y-127805000D01*
X118267560Y-129355000D01*
X118316843Y-129602765D01*
X118457191Y-129812809D01*
X118667235Y-129953157D01*
X118915000Y-130002440D01*
X120465000Y-130002440D01*
X120712765Y-129953157D01*
X120922809Y-129812809D01*
X121063157Y-129602765D01*
X121112440Y-129355000D01*
X121112440Y-127805000D01*
X121063157Y-127557235D01*
X120922809Y-127347191D01*
X120712765Y-127206843D01*
X120549645Y-127174397D01*
X120707581Y-127016461D01*
X120786015Y-127032062D01*
X120881846Y-127013000D01*
X120881847Y-127013000D01*
X121082941Y-126973000D01*
X122627001Y-126973000D01*
X122627000Y-131704169D01*
X122607938Y-131800000D01*
X122672224Y-132123188D01*
X122683454Y-132179645D01*
X122898506Y-132501494D01*
X122979751Y-132555780D01*
X126644221Y-136220251D01*
X126698506Y-136301494D01*
X127020354Y-136516546D01*
X127292083Y-136570596D01*
X127400000Y-136592062D01*
X127495831Y-136573000D01*
X150778169Y-136573000D01*
X150874000Y-136592062D01*
X150969831Y-136573000D01*
X150969832Y-136573000D01*
X151253646Y-136516546D01*
X151575494Y-136301494D01*
X151629780Y-136220249D01*
X154132121Y-133717909D01*
X154192191Y-133807809D01*
X154402235Y-133948157D01*
X154650000Y-133997440D01*
X156350000Y-133997440D01*
X156597765Y-133948157D01*
X156807809Y-133807809D01*
X156948157Y-133597765D01*
X156957184Y-133552381D01*
X156969375Y-133570625D01*
X157460582Y-133898839D01*
X157893744Y-133985000D01*
X158186256Y-133985000D01*
X158619418Y-133898839D01*
X159110625Y-133570625D01*
X159438839Y-133079418D01*
X159554092Y-132500000D01*
X159438839Y-131920582D01*
X159110625Y-131429375D01*
X158619418Y-131101161D01*
X158186256Y-131015000D01*
X157893744Y-131015000D01*
X157460582Y-131101161D01*
X156969375Y-131429375D01*
X156957184Y-131447619D01*
X156948157Y-131402235D01*
X156807809Y-131192191D01*
X156717909Y-131132121D01*
X156977030Y-130873000D01*
X167696971Y-130873000D01*
X168067000Y-131243030D01*
X168067000Y-131364144D01*
X167969375Y-131429375D01*
X167957184Y-131447619D01*
X167948157Y-131402235D01*
X167807809Y-131192191D01*
X167597765Y-131051843D01*
X167350000Y-131002560D01*
X165650000Y-131002560D01*
X165402235Y-131051843D01*
X165192191Y-131192191D01*
X165051843Y-131402235D01*
X165002560Y-131650000D01*
X165002560Y-133350000D01*
X165051843Y-133597765D01*
X165192191Y-133807809D01*
X165402235Y-133948157D01*
X165650000Y-133997440D01*
X167350000Y-133997440D01*
X167597765Y-133948157D01*
X167807809Y-133807809D01*
X167948157Y-133597765D01*
X167957184Y-133552381D01*
X167969375Y-133570625D01*
X168460582Y-133898839D01*
X168893744Y-133985000D01*
X169186256Y-133985000D01*
X169619418Y-133898839D01*
X170110625Y-133570625D01*
X170310000Y-133272239D01*
X170509375Y-133570625D01*
X171000582Y-133898839D01*
X171433744Y-133985000D01*
X171726256Y-133985000D01*
X172159418Y-133898839D01*
X172650625Y-133570625D01*
X172978839Y-133079418D01*
X173094092Y-132500000D01*
X172978839Y-131920582D01*
X172650625Y-131429375D01*
X172159418Y-131101161D01*
X171726256Y-131015000D01*
X171433744Y-131015000D01*
X171000582Y-131101161D01*
X170509375Y-131429375D01*
X170310000Y-131727761D01*
X170110625Y-131429375D01*
X170013000Y-131364144D01*
X170013000Y-130935831D01*
X170032062Y-130840000D01*
X169995976Y-130658580D01*
X169956546Y-130460354D01*
X169741494Y-130138506D01*
X169660252Y-130084222D01*
X168855780Y-129279751D01*
X168801494Y-129198506D01*
X168479646Y-128983454D01*
X168195832Y-128927000D01*
X168195831Y-128927000D01*
X168100000Y-128907938D01*
X168004169Y-128927000D01*
X156669829Y-128927000D01*
X156573999Y-128907938D01*
X156478169Y-128927000D01*
X156478168Y-128927000D01*
X156194354Y-128983454D01*
X155872506Y-129198506D01*
X155818221Y-129279749D01*
X154879749Y-130218222D01*
X154798507Y-130272506D01*
X154744222Y-130353749D01*
X154583454Y-130594355D01*
X154507938Y-130974000D01*
X154518810Y-131028655D01*
X154402235Y-131051843D01*
X154192191Y-131192191D01*
X154051843Y-131402235D01*
X154028655Y-131518810D01*
X153973999Y-131507938D01*
X153594354Y-131583454D01*
X153272506Y-131798506D01*
X153218221Y-131879749D01*
X150470971Y-134627000D01*
X127803030Y-134627000D01*
X124573000Y-131396971D01*
X124573000Y-130284561D01*
X131345000Y-130284561D01*
X131345000Y-130855439D01*
X131563466Y-131382862D01*
X131967138Y-131786534D01*
X132096216Y-131840000D01*
X131967138Y-131893466D01*
X131563466Y-132297138D01*
X131345000Y-132824561D01*
X131345000Y-133395439D01*
X131563466Y-133922862D01*
X131967138Y-134326534D01*
X132494561Y-134545000D01*
X133065439Y-134545000D01*
X133592862Y-134326534D01*
X133996534Y-133922862D01*
X134215000Y-133395439D01*
X134215000Y-132824561D01*
X133996534Y-132297138D01*
X133592862Y-131893466D01*
X133463784Y-131840000D01*
X133592862Y-131786534D01*
X133996534Y-131382862D01*
X134215000Y-130855439D01*
X134215000Y-130284561D01*
X133996534Y-129757138D01*
X133592862Y-129353466D01*
X133479417Y-129306475D01*
X133534005Y-129283864D01*
X133608139Y-129037745D01*
X132780000Y-128209605D01*
X131951861Y-129037745D01*
X132025995Y-129283864D01*
X132084448Y-129304874D01*
X131967138Y-129353466D01*
X131563466Y-129757138D01*
X131345000Y-130284561D01*
X124573000Y-130284561D01*
X124573000Y-127805000D01*
X125887560Y-127805000D01*
X125887560Y-129355000D01*
X125936843Y-129602765D01*
X126077191Y-129812809D01*
X126287235Y-129953157D01*
X126535000Y-130002440D01*
X128085000Y-130002440D01*
X128332765Y-129953157D01*
X128542809Y-129812809D01*
X128683157Y-129602765D01*
X128732440Y-129355000D01*
X128732440Y-127813223D01*
X131333035Y-127813223D01*
X131360222Y-128383454D01*
X131526136Y-128784005D01*
X131772255Y-128858139D01*
X132600395Y-128030000D01*
X132959605Y-128030000D01*
X133787745Y-128858139D01*
X134033864Y-128784005D01*
X134226965Y-128246777D01*
X134199778Y-127676546D01*
X134033864Y-127275995D01*
X133787745Y-127201861D01*
X132959605Y-128030000D01*
X132600395Y-128030000D01*
X131772255Y-127201861D01*
X131526136Y-127275995D01*
X131333035Y-127813223D01*
X128732440Y-127813223D01*
X128732440Y-127805000D01*
X128683157Y-127557235D01*
X128542809Y-127347191D01*
X128332765Y-127206843D01*
X128085000Y-127157560D01*
X128082698Y-127157560D01*
X128120028Y-127029633D01*
X127310000Y-126219605D01*
X126499972Y-127029633D01*
X126537302Y-127157560D01*
X126535000Y-127157560D01*
X126287235Y-127206843D01*
X126077191Y-127347191D01*
X125936843Y-127557235D01*
X125887560Y-127805000D01*
X124573000Y-127805000D01*
X124573000Y-126095831D01*
X124592062Y-126000000D01*
X124573000Y-125904168D01*
X124573000Y-125829197D01*
X125887916Y-125829197D01*
X125915494Y-126389451D01*
X126076837Y-126778965D01*
X126320367Y-126850028D01*
X127130395Y-126040000D01*
X127489605Y-126040000D01*
X128299633Y-126850028D01*
X128543163Y-126778965D01*
X128732084Y-126250803D01*
X128704506Y-125690549D01*
X128543163Y-125301035D01*
X128299633Y-125229972D01*
X127489605Y-126040000D01*
X127130395Y-126040000D01*
X126320367Y-125229972D01*
X126076837Y-125301035D01*
X125887916Y-125829197D01*
X124573000Y-125829197D01*
X124573000Y-118139533D01*
X125900000Y-118139533D01*
X125900000Y-118700467D01*
X126114659Y-119218701D01*
X126511299Y-119615341D01*
X126691542Y-119690000D01*
X126511299Y-119764659D01*
X126114659Y-120161299D01*
X125900000Y-120679533D01*
X125900000Y-121240467D01*
X126114659Y-121758701D01*
X126511299Y-122155341D01*
X126691542Y-122230000D01*
X126511299Y-122304659D01*
X126114659Y-122701299D01*
X125900000Y-123219533D01*
X125900000Y-123780467D01*
X126114659Y-124298701D01*
X126511299Y-124695341D01*
X126675754Y-124763461D01*
X126571035Y-124806837D01*
X126499972Y-125050367D01*
X127310000Y-125860395D01*
X128120028Y-125050367D01*
X128048965Y-124806837D01*
X127936578Y-124766637D01*
X128108701Y-124695341D01*
X128505341Y-124298701D01*
X128720000Y-123780467D01*
X128720000Y-123219533D01*
X128505341Y-122701299D01*
X128108701Y-122304659D01*
X127928458Y-122230000D01*
X128108701Y-122155341D01*
X128505341Y-121758701D01*
X128720000Y-121240467D01*
X128720000Y-120679533D01*
X128505341Y-120161299D01*
X128108701Y-119764659D01*
X127928458Y-119690000D01*
X128108701Y-119615341D01*
X128505341Y-119218701D01*
X128720000Y-118700467D01*
X128720000Y-118139533D01*
X128505341Y-117621299D01*
X128108701Y-117224659D01*
X127590467Y-117010000D01*
X127029533Y-117010000D01*
X126511299Y-117224659D01*
X126114659Y-117621299D01*
X125900000Y-118139533D01*
X124573000Y-118139533D01*
X124573000Y-117003029D01*
X124755778Y-116820251D01*
X130420252Y-111155778D01*
X130501494Y-111101494D01*
X130716546Y-110779646D01*
X130773000Y-110495832D01*
X130773000Y-110495831D01*
X130792062Y-110400000D01*
X130773000Y-110304169D01*
X130773000Y-97500000D01*
X135045000Y-97500000D01*
X135165156Y-98258637D01*
X135513863Y-98943013D01*
X136056987Y-99486137D01*
X136741363Y-99834844D01*
X137500000Y-99955000D01*
X138258637Y-99834844D01*
X138943013Y-99486137D01*
X139486137Y-98943013D01*
X139834844Y-98258637D01*
X139955000Y-97500000D01*
X139834844Y-96741363D01*
X139486137Y-96056987D01*
X138943013Y-95513863D01*
X138258637Y-95165156D01*
X137500000Y-95045000D01*
X136741363Y-95165156D01*
X136056987Y-95513863D01*
X135513863Y-96056987D01*
X135165156Y-96741363D01*
X135045000Y-97500000D01*
X130773000Y-97500000D01*
X130773000Y-92824931D01*
X130905122Y-93022664D01*
X130934047Y-93065953D01*
X131193708Y-93239454D01*
X131500000Y-93300379D01*
X131577316Y-93285000D01*
X144422684Y-93285000D01*
X144500000Y-93300379D01*
X144740001Y-93252640D01*
X144740000Y-115275153D01*
X144725112Y-115350000D01*
X144740000Y-115424847D01*
X144740000Y-115424851D01*
X144784096Y-115646536D01*
X144952071Y-115897929D01*
X145015530Y-115940331D01*
X146606897Y-117531698D01*
X146585000Y-117584561D01*
X146585000Y-118155439D01*
X146803466Y-118682862D01*
X147207138Y-119086534D01*
X147336216Y-119140000D01*
X147207138Y-119193466D01*
X146803466Y-119597138D01*
X146585000Y-120124561D01*
X146585000Y-120695439D01*
X146686301Y-120940000D01*
X140214803Y-120940000D01*
X137530000Y-118255199D01*
X137530000Y-111774846D01*
X137544888Y-111699999D01*
X137530000Y-111625152D01*
X137530000Y-111625148D01*
X137485904Y-111403463D01*
X137317929Y-111152071D01*
X137254473Y-111109671D01*
X134193103Y-108048302D01*
X134215000Y-107995439D01*
X134215000Y-107424561D01*
X133996534Y-106897138D01*
X133592862Y-106493466D01*
X133463784Y-106440000D01*
X133592862Y-106386534D01*
X133996534Y-105982862D01*
X134215000Y-105455439D01*
X134215000Y-104884561D01*
X133996534Y-104357138D01*
X133592862Y-103953466D01*
X133463784Y-103900000D01*
X133592862Y-103846534D01*
X133996534Y-103442862D01*
X134215000Y-102915439D01*
X134215000Y-102344561D01*
X133996534Y-101817138D01*
X133592862Y-101413466D01*
X133463784Y-101360000D01*
X133592862Y-101306534D01*
X133996534Y-100902862D01*
X134215000Y-100375439D01*
X134215000Y-99804561D01*
X133996534Y-99277138D01*
X133592862Y-98873466D01*
X133065439Y-98655000D01*
X132494561Y-98655000D01*
X131967138Y-98873466D01*
X131563466Y-99277138D01*
X131345000Y-99804561D01*
X131345000Y-100375439D01*
X131563466Y-100902862D01*
X131967138Y-101306534D01*
X132096216Y-101360000D01*
X131967138Y-101413466D01*
X131563466Y-101817138D01*
X131345000Y-102344561D01*
X131345000Y-102915439D01*
X131563466Y-103442862D01*
X131967138Y-103846534D01*
X132096216Y-103900000D01*
X131967138Y-103953466D01*
X131563466Y-104357138D01*
X131345000Y-104884561D01*
X131345000Y-105455439D01*
X131563466Y-105982862D01*
X131967138Y-106386534D01*
X132096216Y-106440000D01*
X131967138Y-106493466D01*
X131563466Y-106897138D01*
X131345000Y-107424561D01*
X131345000Y-107995439D01*
X131563466Y-108522862D01*
X131967138Y-108926534D01*
X132096216Y-108980000D01*
X131967138Y-109033466D01*
X131563466Y-109437138D01*
X131345000Y-109964561D01*
X131345000Y-110535439D01*
X131563466Y-111062862D01*
X131967138Y-111466534D01*
X132096216Y-111520000D01*
X131967138Y-111573466D01*
X131563466Y-111977138D01*
X131345000Y-112504561D01*
X131345000Y-113075439D01*
X131563466Y-113602862D01*
X131967138Y-114006534D01*
X132096216Y-114060000D01*
X131967138Y-114113466D01*
X131563466Y-114517138D01*
X131345000Y-115044561D01*
X131345000Y-115615439D01*
X131563466Y-116142862D01*
X131967138Y-116546534D01*
X132096216Y-116600000D01*
X131967138Y-116653466D01*
X131563466Y-117057138D01*
X131345000Y-117584561D01*
X131345000Y-118155439D01*
X131563466Y-118682862D01*
X131967138Y-119086534D01*
X132096216Y-119140000D01*
X131967138Y-119193466D01*
X131563466Y-119597138D01*
X131345000Y-120124561D01*
X131345000Y-120695439D01*
X131563466Y-121222862D01*
X131967138Y-121626534D01*
X132096216Y-121680000D01*
X131967138Y-121733466D01*
X131563466Y-122137138D01*
X131345000Y-122664561D01*
X131345000Y-123235439D01*
X131563466Y-123762862D01*
X131967138Y-124166534D01*
X132096216Y-124220000D01*
X131967138Y-124273466D01*
X131563466Y-124677138D01*
X131345000Y-125204561D01*
X131345000Y-125775439D01*
X131563466Y-126302862D01*
X131967138Y-126706534D01*
X132080583Y-126753525D01*
X132025995Y-126776136D01*
X131951861Y-127022255D01*
X132780000Y-127850395D01*
X133608139Y-127022255D01*
X133534005Y-126776136D01*
X133475552Y-126755126D01*
X133592862Y-126706534D01*
X133996534Y-126302862D01*
X134215000Y-125775439D01*
X134215000Y-125204561D01*
X133996534Y-124677138D01*
X133592862Y-124273466D01*
X133463784Y-124220000D01*
X133592862Y-124166534D01*
X133996534Y-123762862D01*
X134215000Y-123235439D01*
X134215000Y-122664561D01*
X133996534Y-122137138D01*
X133592862Y-121733466D01*
X133463784Y-121680000D01*
X133592862Y-121626534D01*
X133996534Y-121222862D01*
X134215000Y-120695439D01*
X134215000Y-120124561D01*
X133996534Y-119597138D01*
X133592862Y-119193466D01*
X133463784Y-119140000D01*
X133592862Y-119086534D01*
X133996534Y-118682862D01*
X134215000Y-118155439D01*
X134215000Y-117584561D01*
X133996534Y-117057138D01*
X133592862Y-116653466D01*
X133463784Y-116600000D01*
X133592862Y-116546534D01*
X133996534Y-116142862D01*
X134215000Y-115615439D01*
X134215000Y-115044561D01*
X133996534Y-114517138D01*
X133592862Y-114113466D01*
X133463784Y-114060000D01*
X133592862Y-114006534D01*
X133996534Y-113602862D01*
X134215000Y-113075439D01*
X134215000Y-112759802D01*
X135340000Y-113884802D01*
X135340001Y-118925148D01*
X135325112Y-119000000D01*
X135340001Y-119074852D01*
X135384097Y-119296537D01*
X135552072Y-119547929D01*
X135615528Y-119590329D01*
X140809671Y-124784473D01*
X140852071Y-124847929D01*
X141103463Y-125015904D01*
X141325148Y-125060000D01*
X141325153Y-125060000D01*
X141400000Y-125074888D01*
X141474847Y-125060000D01*
X146644879Y-125060000D01*
X146585000Y-125204561D01*
X146585000Y-125775439D01*
X146803466Y-126302862D01*
X147207138Y-126706534D01*
X147336216Y-126760000D01*
X147207138Y-126813466D01*
X146803466Y-127217138D01*
X146585000Y-127744561D01*
X146585000Y-128315439D01*
X146803466Y-128842862D01*
X147207138Y-129246534D01*
X147336216Y-129300000D01*
X147207138Y-129353466D01*
X146803466Y-129757138D01*
X146585000Y-130284561D01*
X146585000Y-130855439D01*
X146803466Y-131382862D01*
X147105866Y-131685262D01*
X146972235Y-131711843D01*
X146762191Y-131852191D01*
X146621843Y-132062235D01*
X146572560Y-132310000D01*
X146572560Y-133910000D01*
X146621843Y-134157765D01*
X146762191Y-134367809D01*
X146972235Y-134508157D01*
X147220000Y-134557440D01*
X148820000Y-134557440D01*
X149067765Y-134508157D01*
X149277809Y-134367809D01*
X149418157Y-134157765D01*
X149467440Y-133910000D01*
X149467440Y-132310000D01*
X149418157Y-132062235D01*
X149277809Y-131852191D01*
X149067765Y-131711843D01*
X148934134Y-131685262D01*
X149236534Y-131382862D01*
X149455000Y-130855439D01*
X149455000Y-130284561D01*
X149236534Y-129757138D01*
X148832862Y-129353466D01*
X148703784Y-129300000D01*
X148832862Y-129246534D01*
X149236534Y-128842862D01*
X149455000Y-128315439D01*
X149455000Y-127744561D01*
X149236534Y-127217138D01*
X148832862Y-126813466D01*
X148703784Y-126760000D01*
X148832862Y-126706534D01*
X149039396Y-126500000D01*
X172795000Y-126500000D01*
X172915156Y-127258637D01*
X173263863Y-127943013D01*
X173806987Y-128486137D01*
X174491363Y-128834844D01*
X175250000Y-128955000D01*
X176008637Y-128834844D01*
X176693013Y-128486137D01*
X177236137Y-127943013D01*
X177584844Y-127258637D01*
X177705000Y-126500000D01*
X177584844Y-125741363D01*
X177236137Y-125056987D01*
X176693013Y-124513863D01*
X176008637Y-124165156D01*
X175250000Y-124045000D01*
X174491363Y-124165156D01*
X173806987Y-124513863D01*
X173263863Y-125056987D01*
X172915156Y-125741363D01*
X172795000Y-126500000D01*
X149039396Y-126500000D01*
X149236534Y-126302862D01*
X149455000Y-125775439D01*
X149455000Y-125204561D01*
X149395121Y-125060000D01*
X153425153Y-125060000D01*
X153500000Y-125074888D01*
X153574847Y-125060000D01*
X153574852Y-125060000D01*
X153796537Y-125015904D01*
X154047929Y-124847929D01*
X154090331Y-124784470D01*
X164374801Y-114500000D01*
X169949621Y-114500000D01*
X169965001Y-114577321D01*
X169965000Y-117422684D01*
X169949621Y-117500000D01*
X170010546Y-117806292D01*
X170184047Y-118065953D01*
X170443708Y-118239454D01*
X170614684Y-118273463D01*
X170750000Y-118300379D01*
X170827316Y-118285000D01*
X183672684Y-118285000D01*
X183750000Y-118300379D01*
X183885317Y-118273463D01*
X184056292Y-118239454D01*
X184315953Y-118065953D01*
X184489454Y-117806292D01*
X184550379Y-117500000D01*
X184535000Y-117422684D01*
X184535000Y-114577316D01*
X184550379Y-114500000D01*
X184489454Y-114193708D01*
X184315953Y-113934047D01*
X184056292Y-113760546D01*
X183827316Y-113715000D01*
X183750000Y-113699621D01*
X183672684Y-113715000D01*
X170827316Y-113715000D01*
X170750000Y-113699621D01*
X170672684Y-113715000D01*
X170443708Y-113760546D01*
X170184047Y-113934047D01*
X170010546Y-114193708D01*
X169949621Y-114500000D01*
X164374801Y-114500000D01*
X167484473Y-111390329D01*
X167547929Y-111347929D01*
X167715904Y-111096537D01*
X167760000Y-110874852D01*
X167760000Y-110874848D01*
X167774888Y-110800001D01*
X167760000Y-110725154D01*
X167760000Y-99650000D01*
X168002560Y-99650000D01*
X168002560Y-101350000D01*
X168051843Y-101597765D01*
X168192191Y-101807809D01*
X168402235Y-101948157D01*
X168650000Y-101997440D01*
X170350000Y-101997440D01*
X170597765Y-101948157D01*
X170807809Y-101807809D01*
X170948157Y-101597765D01*
X170957184Y-101552381D01*
X170969375Y-101570625D01*
X171460582Y-101898839D01*
X171893744Y-101985000D01*
X172186256Y-101985000D01*
X172619418Y-101898839D01*
X173110625Y-101570625D01*
X173323843Y-101251522D01*
X173384817Y-101381358D01*
X173813076Y-101771645D01*
X174223110Y-101941476D01*
X174453000Y-101820155D01*
X174453000Y-100627000D01*
X174433000Y-100627000D01*
X174433000Y-100373000D01*
X174453000Y-100373000D01*
X174453000Y-99179845D01*
X174707000Y-99179845D01*
X174707000Y-100373000D01*
X174727000Y-100373000D01*
X174727000Y-100627000D01*
X174707000Y-100627000D01*
X174707000Y-101820155D01*
X174936890Y-101941476D01*
X175346924Y-101771645D01*
X175775183Y-101381358D01*
X175836157Y-101251522D01*
X176049375Y-101570625D01*
X176413621Y-101814006D01*
X176413620Y-103422669D01*
X176322569Y-103513720D01*
X176165000Y-103894126D01*
X176165000Y-104305874D01*
X176322569Y-104686280D01*
X176500067Y-104863778D01*
X176491363Y-104865156D01*
X175806987Y-105213863D01*
X175263863Y-105756987D01*
X174915156Y-106441363D01*
X174795000Y-107200000D01*
X174915156Y-107958637D01*
X175263863Y-108643013D01*
X175806987Y-109186137D01*
X176491363Y-109534844D01*
X177250000Y-109655000D01*
X178008637Y-109534844D01*
X178693013Y-109186137D01*
X179236137Y-108643013D01*
X179584844Y-107958637D01*
X179705000Y-107200000D01*
X179584844Y-106441363D01*
X179236137Y-105756987D01*
X178693013Y-105213863D01*
X178008637Y-104865156D01*
X177913606Y-104850105D01*
X178077431Y-104686280D01*
X178235000Y-104305874D01*
X178235000Y-103894126D01*
X178077431Y-103513720D01*
X177933620Y-103369909D01*
X177933620Y-101742350D01*
X178190625Y-101570625D01*
X178390000Y-101272239D01*
X178589375Y-101570625D01*
X179080582Y-101898839D01*
X179513744Y-101985000D01*
X179806256Y-101985000D01*
X180239418Y-101898839D01*
X180730625Y-101570625D01*
X180930000Y-101272239D01*
X181129375Y-101570625D01*
X181620582Y-101898839D01*
X182053744Y-101985000D01*
X182346256Y-101985000D01*
X182779418Y-101898839D01*
X183270625Y-101570625D01*
X183598839Y-101079418D01*
X183714092Y-100500000D01*
X183598839Y-99920582D01*
X183270625Y-99429375D01*
X182779418Y-99101161D01*
X182346256Y-99015000D01*
X182053744Y-99015000D01*
X181620582Y-99101161D01*
X181129375Y-99429375D01*
X180930000Y-99727761D01*
X180730625Y-99429375D01*
X180239418Y-99101161D01*
X179806256Y-99015000D01*
X179513744Y-99015000D01*
X179080582Y-99101161D01*
X178589375Y-99429375D01*
X178390000Y-99727761D01*
X178190625Y-99429375D01*
X177699418Y-99101161D01*
X177266256Y-99015000D01*
X176973744Y-99015000D01*
X176540582Y-99101161D01*
X176049375Y-99429375D01*
X175836157Y-99748478D01*
X175775183Y-99618642D01*
X175346924Y-99228355D01*
X174936890Y-99058524D01*
X174707000Y-99179845D01*
X174453000Y-99179845D01*
X174223110Y-99058524D01*
X173813076Y-99228355D01*
X173384817Y-99618642D01*
X173323843Y-99748478D01*
X173110625Y-99429375D01*
X172619418Y-99101161D01*
X172186256Y-99015000D01*
X171893744Y-99015000D01*
X171460582Y-99101161D01*
X170969375Y-99429375D01*
X170957184Y-99447619D01*
X170948157Y-99402235D01*
X170807809Y-99192191D01*
X170597765Y-99051843D01*
X170350000Y-99002560D01*
X168650000Y-99002560D01*
X168402235Y-99051843D01*
X168192191Y-99192191D01*
X168051843Y-99402235D01*
X168002560Y-99650000D01*
X167760000Y-99650000D01*
X167760000Y-91700000D01*
X174795000Y-91700000D01*
X174915156Y-92458637D01*
X175263863Y-93143013D01*
X175806987Y-93686137D01*
X176491363Y-94034844D01*
X177250000Y-94155000D01*
X178008637Y-94034844D01*
X178693013Y-93686137D01*
X179236137Y-93143013D01*
X179584844Y-92458637D01*
X179705000Y-91700000D01*
X179584844Y-90941363D01*
X179236137Y-90256987D01*
X178693013Y-89713863D01*
X178008637Y-89365156D01*
X177250000Y-89245000D01*
X176491363Y-89365156D01*
X175806987Y-89713863D01*
X175263863Y-90256987D01*
X174915156Y-90941363D01*
X174795000Y-91700000D01*
X167760000Y-91700000D01*
X167760000Y-85274848D01*
X167774888Y-85200000D01*
X167760000Y-85125152D01*
X167760000Y-85125148D01*
X167715904Y-84903463D01*
X167715904Y-84903462D01*
X167590329Y-84715527D01*
X167547929Y-84652071D01*
X167484473Y-84609671D01*
X165690331Y-82815530D01*
X165647929Y-82752071D01*
X165396537Y-82584096D01*
X165174852Y-82540000D01*
X165174847Y-82540000D01*
X165100000Y-82525112D01*
X165025153Y-82540000D01*
X161394848Y-82540000D01*
X161320000Y-82525112D01*
X161245152Y-82540000D01*
X161245148Y-82540000D01*
X161071605Y-82574520D01*
X161023462Y-82584096D01*
X160909335Y-82660354D01*
X160772071Y-82752071D01*
X160729671Y-82815527D01*
X159486408Y-84058791D01*
X159266256Y-84015000D01*
X158973744Y-84015000D01*
X158540582Y-84101161D01*
X158049375Y-84429375D01*
X157836157Y-84748478D01*
X157775183Y-84618642D01*
X157346924Y-84228355D01*
X156936890Y-84058524D01*
X156707000Y-84179845D01*
X156707000Y-85373000D01*
X156727000Y-85373000D01*
X156727000Y-85627000D01*
X156707000Y-85627000D01*
X156707000Y-86820155D01*
X156936890Y-86941476D01*
X157346924Y-86771645D01*
X157775183Y-86381358D01*
X157836157Y-86251522D01*
X158049375Y-86570625D01*
X158540582Y-86898839D01*
X158973744Y-86985000D01*
X159266256Y-86985000D01*
X159699418Y-86898839D01*
X160190625Y-86570625D01*
X160390000Y-86272239D01*
X160589375Y-86570625D01*
X161080582Y-86898839D01*
X161513744Y-86985000D01*
X161806256Y-86985000D01*
X162026408Y-86941209D01*
X164409673Y-89324476D01*
X164452071Y-89387929D01*
X164515524Y-89430327D01*
X164515526Y-89430329D01*
X164515532Y-89430333D01*
X165015527Y-89930329D01*
X165136077Y-90010878D01*
X165540000Y-90414802D01*
X165540001Y-110185197D01*
X154785199Y-120940000D01*
X149353699Y-120940000D01*
X149455000Y-120695439D01*
X149455000Y-120124561D01*
X149236534Y-119597138D01*
X148832862Y-119193466D01*
X148703784Y-119140000D01*
X148832862Y-119086534D01*
X149236534Y-118682862D01*
X149455000Y-118155439D01*
X149455000Y-117584561D01*
X149236534Y-117057138D01*
X148832862Y-116653466D01*
X148703784Y-116600000D01*
X148832862Y-116546534D01*
X149236534Y-116142862D01*
X149455000Y-115615439D01*
X149455000Y-115044561D01*
X149236534Y-114517138D01*
X148832862Y-114113466D01*
X148703784Y-114060000D01*
X148832862Y-114006534D01*
X149236534Y-113602862D01*
X149455000Y-113075439D01*
X149455000Y-112504561D01*
X149236534Y-111977138D01*
X148832862Y-111573466D01*
X148703784Y-111520000D01*
X148832862Y-111466534D01*
X149236534Y-111062862D01*
X149455000Y-110535439D01*
X149455000Y-109964561D01*
X149236534Y-109437138D01*
X148832862Y-109033466D01*
X148703784Y-108980000D01*
X148832862Y-108926534D01*
X149236534Y-108522862D01*
X149455000Y-107995439D01*
X149455000Y-107424561D01*
X149236534Y-106897138D01*
X148832862Y-106493466D01*
X148703784Y-106440000D01*
X148832862Y-106386534D01*
X149236534Y-105982862D01*
X149455000Y-105455439D01*
X149455000Y-104884561D01*
X149236534Y-104357138D01*
X148832862Y-103953466D01*
X148703784Y-103900000D01*
X148832862Y-103846534D01*
X149236534Y-103442862D01*
X149455000Y-102915439D01*
X149455000Y-102344561D01*
X149236534Y-101817138D01*
X148832862Y-101413466D01*
X148703784Y-101360000D01*
X148832862Y-101306534D01*
X149236534Y-100902862D01*
X149455000Y-100375439D01*
X149455000Y-99804561D01*
X149328847Y-99500000D01*
X150699621Y-99500000D01*
X150715001Y-99577321D01*
X150715000Y-102422684D01*
X150699621Y-102500000D01*
X150760546Y-102806292D01*
X150933410Y-103065000D01*
X150934047Y-103065953D01*
X151193708Y-103239454D01*
X151500000Y-103300379D01*
X151577316Y-103285000D01*
X164422684Y-103285000D01*
X164500000Y-103300379D01*
X164806292Y-103239454D01*
X165065953Y-103065953D01*
X165239454Y-102806292D01*
X165285000Y-102577316D01*
X165285000Y-102577315D01*
X165300379Y-102500000D01*
X165285000Y-102422684D01*
X165285000Y-99577316D01*
X165300379Y-99500000D01*
X165239454Y-99193708D01*
X165065953Y-98934047D01*
X164806292Y-98760546D01*
X164577316Y-98715000D01*
X164500000Y-98699621D01*
X164422684Y-98715000D01*
X151577316Y-98715000D01*
X151500000Y-98699621D01*
X151422684Y-98715000D01*
X151193708Y-98760546D01*
X150934047Y-98934047D01*
X150760546Y-99193708D01*
X150699621Y-99500000D01*
X149328847Y-99500000D01*
X149236534Y-99277138D01*
X148832862Y-98873466D01*
X148305439Y-98655000D01*
X147734561Y-98655000D01*
X147207138Y-98873466D01*
X147060000Y-99020604D01*
X147060000Y-92200000D01*
X155295000Y-92200000D01*
X155415156Y-92958637D01*
X155763863Y-93643013D01*
X156306987Y-94186137D01*
X156991363Y-94534844D01*
X157750000Y-94655000D01*
X158508637Y-94534844D01*
X159193013Y-94186137D01*
X159736137Y-93643013D01*
X160084844Y-92958637D01*
X160205000Y-92200000D01*
X160084844Y-91441363D01*
X159736137Y-90756987D01*
X159193013Y-90213863D01*
X158508637Y-89865156D01*
X157750000Y-89745000D01*
X156991363Y-89865156D01*
X156306987Y-90213863D01*
X155763863Y-90756987D01*
X155415156Y-91441363D01*
X155295000Y-92200000D01*
X147060000Y-92200000D01*
X147060000Y-84650000D01*
X150002560Y-84650000D01*
X150002560Y-86350000D01*
X150051843Y-86597765D01*
X150192191Y-86807809D01*
X150402235Y-86948157D01*
X150650000Y-86997440D01*
X152350000Y-86997440D01*
X152597765Y-86948157D01*
X152807809Y-86807809D01*
X152948157Y-86597765D01*
X152957184Y-86552381D01*
X152969375Y-86570625D01*
X153460582Y-86898839D01*
X153893744Y-86985000D01*
X154186256Y-86985000D01*
X154619418Y-86898839D01*
X155110625Y-86570625D01*
X155323843Y-86251522D01*
X155384817Y-86381358D01*
X155813076Y-86771645D01*
X156223110Y-86941476D01*
X156453000Y-86820155D01*
X156453000Y-85627000D01*
X156433000Y-85627000D01*
X156433000Y-85373000D01*
X156453000Y-85373000D01*
X156453000Y-84179845D01*
X156223110Y-84058524D01*
X155813076Y-84228355D01*
X155384817Y-84618642D01*
X155323843Y-84748478D01*
X155110625Y-84429375D01*
X154619418Y-84101161D01*
X154186256Y-84015000D01*
X153893744Y-84015000D01*
X153460582Y-84101161D01*
X152969375Y-84429375D01*
X152957184Y-84447619D01*
X152948157Y-84402235D01*
X152807809Y-84192191D01*
X152597765Y-84051843D01*
X152350000Y-84002560D01*
X150650000Y-84002560D01*
X150402235Y-84051843D01*
X150192191Y-84192191D01*
X150051843Y-84402235D01*
X150002560Y-84650000D01*
X147060000Y-84650000D01*
X147060000Y-81514801D01*
X148784473Y-79790329D01*
X148847929Y-79747929D01*
X149015904Y-79496537D01*
X149060000Y-79274852D01*
X149060000Y-79274848D01*
X149074888Y-79200001D01*
X149060000Y-79125154D01*
X149060000Y-73974846D01*
X149074888Y-73899999D01*
X149060000Y-73825152D01*
X149060000Y-73825148D01*
X149015904Y-73603463D01*
X148974102Y-73540902D01*
X148890329Y-73415526D01*
X148890327Y-73415524D01*
X148847929Y-73352071D01*
X148784476Y-73309673D01*
X145990331Y-70515530D01*
X145947929Y-70452071D01*
X145696537Y-70284096D01*
X145474852Y-70240000D01*
X145474847Y-70240000D01*
X145400000Y-70225112D01*
X145325153Y-70240000D01*
X131114802Y-70240000D01*
X127574802Y-66700000D01*
X135795000Y-66700000D01*
X135915156Y-67458637D01*
X136263863Y-68143013D01*
X136806987Y-68686137D01*
X137491363Y-69034844D01*
X138250000Y-69155000D01*
X139008637Y-69034844D01*
X139693013Y-68686137D01*
X140236137Y-68143013D01*
X140584844Y-67458637D01*
X140705000Y-66700000D01*
X140584844Y-65941363D01*
X140236137Y-65256987D01*
X139693013Y-64713863D01*
X139008637Y-64365156D01*
X138250000Y-64245000D01*
X137491363Y-64365156D01*
X136806987Y-64713863D01*
X136263863Y-65256987D01*
X135915156Y-65941363D01*
X135795000Y-66700000D01*
X127574802Y-66700000D01*
X124760000Y-63885199D01*
X124760000Y-62724847D01*
X124774888Y-62650000D01*
X124760000Y-62575153D01*
X124760000Y-62575148D01*
X124715904Y-62353463D01*
X124547929Y-62102071D01*
X124484473Y-62059671D01*
X123703970Y-61279168D01*
X123720000Y-61240467D01*
X123720000Y-60679533D01*
X123505341Y-60161299D01*
X123108701Y-59764659D01*
X122928458Y-59690000D01*
X123108701Y-59615341D01*
X123505341Y-59218701D01*
X123720000Y-58700467D01*
X123720000Y-58139533D01*
X123505341Y-57621299D01*
X123108701Y-57224659D01*
X122590467Y-57010000D01*
X122029533Y-57010000D01*
X121511299Y-57224659D01*
X121114659Y-57621299D01*
X120900000Y-58139533D01*
X120900000Y-58700467D01*
X121114659Y-59218701D01*
X121511299Y-59615341D01*
X121691542Y-59690000D01*
X121511299Y-59764659D01*
X121114659Y-60161299D01*
X120900000Y-60679533D01*
X120900000Y-61240467D01*
X121114659Y-61758701D01*
X121511299Y-62155341D01*
X121691542Y-62230000D01*
X121511299Y-62304659D01*
X121114659Y-62701299D01*
X120900000Y-63219533D01*
X120900000Y-63780467D01*
X121114659Y-64298701D01*
X121511299Y-64695341D01*
X121675754Y-64763461D01*
X121571035Y-64806837D01*
X121499972Y-65050367D01*
X122310000Y-65860395D01*
X122324143Y-65846253D01*
X122503748Y-66025858D01*
X122489605Y-66040000D01*
X123299633Y-66850028D01*
X123543163Y-66778965D01*
X123732084Y-66250803D01*
X123718938Y-65983739D01*
X129919670Y-72184472D01*
X129962071Y-72247929D01*
X130213463Y-72415904D01*
X130435148Y-72460000D01*
X130435152Y-72460000D01*
X130509999Y-72474888D01*
X130584846Y-72460000D01*
X144785199Y-72460000D01*
X146740001Y-74414803D01*
X146740000Y-78585198D01*
X145015528Y-80309671D01*
X144952072Y-80352071D01*
X144909672Y-80415527D01*
X144909671Y-80415528D01*
X144784097Y-80603463D01*
X144725112Y-80900000D01*
X144740001Y-80974852D01*
X144740001Y-88747360D01*
X144577316Y-88715000D01*
X144500000Y-88699621D01*
X144422684Y-88715000D01*
X131577316Y-88715000D01*
X131500000Y-88699621D01*
X131422684Y-88715000D01*
X131193708Y-88760546D01*
X130934047Y-88934047D01*
X130773000Y-89175069D01*
X130773000Y-82200000D01*
X135795000Y-82200000D01*
X135915156Y-82958637D01*
X136263863Y-83643013D01*
X136806987Y-84186137D01*
X137491363Y-84534844D01*
X138250000Y-84655000D01*
X139008637Y-84534844D01*
X139693013Y-84186137D01*
X140236137Y-83643013D01*
X140584844Y-82958637D01*
X140705000Y-82200000D01*
X140584844Y-81441363D01*
X140236137Y-80756987D01*
X139693013Y-80213863D01*
X139008637Y-79865156D01*
X138250000Y-79745000D01*
X137491363Y-79865156D01*
X136806987Y-80213863D01*
X136263863Y-80756987D01*
X135915156Y-81441363D01*
X135795000Y-82200000D01*
X130773000Y-82200000D01*
X130773000Y-80495831D01*
X130792062Y-80400000D01*
X130716546Y-80020354D01*
X130555778Y-79779748D01*
X130501494Y-79698506D01*
X130420251Y-79644221D01*
X125426030Y-74650000D01*
X131002560Y-74650000D01*
X131002560Y-76350000D01*
X131051843Y-76597765D01*
X131192191Y-76807809D01*
X131402235Y-76948157D01*
X131650000Y-76997440D01*
X133350000Y-76997440D01*
X133597765Y-76948157D01*
X133807809Y-76807809D01*
X133948157Y-76597765D01*
X133957184Y-76552381D01*
X133969375Y-76570625D01*
X134460582Y-76898839D01*
X134893744Y-76985000D01*
X135186256Y-76985000D01*
X135619418Y-76898839D01*
X136110625Y-76570625D01*
X136323843Y-76251522D01*
X136384817Y-76381358D01*
X136813076Y-76771645D01*
X137223110Y-76941476D01*
X137453000Y-76820155D01*
X137453000Y-75627000D01*
X137433000Y-75627000D01*
X137433000Y-75373000D01*
X137453000Y-75373000D01*
X137453000Y-74179845D01*
X137707000Y-74179845D01*
X137707000Y-75373000D01*
X137727000Y-75373000D01*
X137727000Y-75627000D01*
X137707000Y-75627000D01*
X137707000Y-76820155D01*
X137936890Y-76941476D01*
X138346924Y-76771645D01*
X138775183Y-76381358D01*
X138836157Y-76251522D01*
X139049375Y-76570625D01*
X139540582Y-76898839D01*
X139973744Y-76985000D01*
X140266256Y-76985000D01*
X140699418Y-76898839D01*
X141190625Y-76570625D01*
X141390000Y-76272239D01*
X141589375Y-76570625D01*
X142080582Y-76898839D01*
X142513744Y-76985000D01*
X142806256Y-76985000D01*
X143239418Y-76898839D01*
X143730625Y-76570625D01*
X143930000Y-76272239D01*
X144129375Y-76570625D01*
X144620582Y-76898839D01*
X145053744Y-76985000D01*
X145346256Y-76985000D01*
X145779418Y-76898839D01*
X146270625Y-76570625D01*
X146598839Y-76079418D01*
X146714092Y-75500000D01*
X146598839Y-74920582D01*
X146270625Y-74429375D01*
X145779418Y-74101161D01*
X145346256Y-74015000D01*
X145053744Y-74015000D01*
X144620582Y-74101161D01*
X144129375Y-74429375D01*
X143930000Y-74727761D01*
X143730625Y-74429375D01*
X143239418Y-74101161D01*
X142806256Y-74015000D01*
X142513744Y-74015000D01*
X142080582Y-74101161D01*
X141589375Y-74429375D01*
X141390000Y-74727761D01*
X141190625Y-74429375D01*
X140699418Y-74101161D01*
X140266256Y-74015000D01*
X139973744Y-74015000D01*
X139540582Y-74101161D01*
X139049375Y-74429375D01*
X138836157Y-74748478D01*
X138775183Y-74618642D01*
X138346924Y-74228355D01*
X137936890Y-74058524D01*
X137707000Y-74179845D01*
X137453000Y-74179845D01*
X137223110Y-74058524D01*
X136813076Y-74228355D01*
X136384817Y-74618642D01*
X136323843Y-74748478D01*
X136110625Y-74429375D01*
X135619418Y-74101161D01*
X135186256Y-74015000D01*
X134893744Y-74015000D01*
X134460582Y-74101161D01*
X133969375Y-74429375D01*
X133957184Y-74447619D01*
X133948157Y-74402235D01*
X133807809Y-74192191D01*
X133597765Y-74051843D01*
X133350000Y-74002560D01*
X131650000Y-74002560D01*
X131402235Y-74051843D01*
X131192191Y-74192191D01*
X131051843Y-74402235D01*
X131002560Y-74650000D01*
X125426030Y-74650000D01*
X119273000Y-68496971D01*
X119273000Y-67805000D01*
X120887560Y-67805000D01*
X120887560Y-69355000D01*
X120936843Y-69602765D01*
X121077191Y-69812809D01*
X121287235Y-69953157D01*
X121535000Y-70002440D01*
X123085000Y-70002440D01*
X123332765Y-69953157D01*
X123542809Y-69812809D01*
X123683157Y-69602765D01*
X123732440Y-69355000D01*
X123732440Y-67805000D01*
X123683157Y-67557235D01*
X123542809Y-67347191D01*
X123332765Y-67206843D01*
X123085000Y-67157560D01*
X123082698Y-67157560D01*
X123120028Y-67029633D01*
X122310000Y-66219605D01*
X121499972Y-67029633D01*
X121537302Y-67157560D01*
X121535000Y-67157560D01*
X121287235Y-67206843D01*
X121077191Y-67347191D01*
X120936843Y-67557235D01*
X120887560Y-67805000D01*
X119273000Y-67805000D01*
X119273000Y-66195831D01*
X119292062Y-66100000D01*
X119273000Y-66004168D01*
X119273000Y-65829197D01*
X120887916Y-65829197D01*
X120915494Y-66389451D01*
X121076837Y-66778965D01*
X121320367Y-66850028D01*
X122130395Y-66040000D01*
X121320367Y-65229972D01*
X121076837Y-65301035D01*
X120887916Y-65829197D01*
X119273000Y-65829197D01*
X119273000Y-57803029D01*
X120403030Y-56673000D01*
X131946971Y-56673000D01*
X133280000Y-58006030D01*
X133280000Y-58320467D01*
X133494659Y-58838701D01*
X133830355Y-59174397D01*
X133667235Y-59206843D01*
X133457191Y-59347191D01*
X133316843Y-59557235D01*
X133267560Y-59805000D01*
X133267560Y-61355000D01*
X133316843Y-61602765D01*
X133457191Y-61812809D01*
X133667235Y-61953157D01*
X133915000Y-62002440D01*
X135465000Y-62002440D01*
X135712765Y-61953157D01*
X135922809Y-61812809D01*
X136063157Y-61602765D01*
X136112440Y-61355000D01*
X136112440Y-59805000D01*
X136063157Y-59557235D01*
X135922809Y-59347191D01*
X135712765Y-59206843D01*
X135549645Y-59174397D01*
X135711042Y-59013000D01*
X136536971Y-59013000D01*
X146184221Y-68660251D01*
X146238506Y-68741494D01*
X146560354Y-68956546D01*
X146757859Y-68995832D01*
X146940000Y-69032062D01*
X147035831Y-69013000D01*
X152668958Y-69013000D01*
X152830355Y-69174397D01*
X152667235Y-69206843D01*
X152457191Y-69347191D01*
X152316843Y-69557235D01*
X152267560Y-69805000D01*
X152267560Y-71355000D01*
X152316843Y-71602765D01*
X152457191Y-71812809D01*
X152667235Y-71953157D01*
X152915000Y-72002440D01*
X154465000Y-72002440D01*
X154712765Y-71953157D01*
X154922809Y-71812809D01*
X155063157Y-71602765D01*
X155112440Y-71355000D01*
X155112440Y-70838469D01*
X158774684Y-74500714D01*
X158508637Y-74365156D01*
X157750000Y-74245000D01*
X156991363Y-74365156D01*
X156306987Y-74713863D01*
X155763863Y-75256987D01*
X155415156Y-75941363D01*
X155295000Y-76700000D01*
X155415156Y-77458637D01*
X155763863Y-78143013D01*
X156306987Y-78686137D01*
X156991363Y-79034844D01*
X157750000Y-79155000D01*
X158508637Y-79034844D01*
X159193013Y-78686137D01*
X159736137Y-78143013D01*
X160084844Y-77458637D01*
X160205000Y-76700000D01*
X160084844Y-75941363D01*
X159949286Y-75675316D01*
X161294221Y-77020251D01*
X161348506Y-77101494D01*
X161670354Y-77316546D01*
X161954168Y-77373000D01*
X161954169Y-77373000D01*
X162049999Y-77392062D01*
X162145829Y-77373000D01*
X166146971Y-77373000D01*
X171780000Y-83006030D01*
X171780000Y-83320467D01*
X171994659Y-83838701D01*
X172330355Y-84174397D01*
X172167235Y-84206843D01*
X171957191Y-84347191D01*
X171816843Y-84557235D01*
X171767560Y-84805000D01*
X171767560Y-86355000D01*
X171816843Y-86602765D01*
X171957191Y-86812809D01*
X172167235Y-86953157D01*
X172415000Y-87002440D01*
X173965000Y-87002440D01*
X174212765Y-86953157D01*
X174422809Y-86812809D01*
X174563157Y-86602765D01*
X174612440Y-86355000D01*
X174612440Y-84805000D01*
X179387560Y-84805000D01*
X179387560Y-86355000D01*
X179436843Y-86602765D01*
X179577191Y-86812809D01*
X179787235Y-86953157D01*
X180035000Y-87002440D01*
X181585000Y-87002440D01*
X181832765Y-86953157D01*
X182042809Y-86812809D01*
X182183157Y-86602765D01*
X182232440Y-86355000D01*
X182232440Y-84805000D01*
X182183157Y-84557235D01*
X182042809Y-84347191D01*
X181832765Y-84206843D01*
X181585000Y-84157560D01*
X181582698Y-84157560D01*
X181620028Y-84029633D01*
X180810000Y-83219605D01*
X179999972Y-84029633D01*
X180037302Y-84157560D01*
X180035000Y-84157560D01*
X179787235Y-84206843D01*
X179577191Y-84347191D01*
X179436843Y-84557235D01*
X179387560Y-84805000D01*
X174612440Y-84805000D01*
X174563157Y-84557235D01*
X174422809Y-84347191D01*
X174212765Y-84206843D01*
X174049645Y-84174397D01*
X174385341Y-83838701D01*
X174600000Y-83320467D01*
X174600000Y-82829197D01*
X179387916Y-82829197D01*
X179415494Y-83389451D01*
X179576837Y-83778965D01*
X179820367Y-83850028D01*
X180630395Y-83040000D01*
X180989605Y-83040000D01*
X181799633Y-83850028D01*
X182043163Y-83778965D01*
X182232084Y-83250803D01*
X182204506Y-82690549D01*
X182043163Y-82301035D01*
X181799633Y-82229972D01*
X180989605Y-83040000D01*
X180630395Y-83040000D01*
X179820367Y-82229972D01*
X179576837Y-82301035D01*
X179387916Y-82829197D01*
X174600000Y-82829197D01*
X174600000Y-82759533D01*
X174385341Y-82241299D01*
X173988701Y-81844659D01*
X173808458Y-81770000D01*
X173988701Y-81695341D01*
X174385341Y-81298701D01*
X174600000Y-80780467D01*
X174600000Y-80219533D01*
X174385341Y-79701299D01*
X173988701Y-79304659D01*
X173808458Y-79230000D01*
X173988701Y-79155341D01*
X174385341Y-78758701D01*
X174600000Y-78240467D01*
X174600000Y-77679533D01*
X174385341Y-77161299D01*
X173988701Y-76764659D01*
X173808458Y-76690000D01*
X173988701Y-76615341D01*
X174385341Y-76218701D01*
X174600000Y-75700467D01*
X174600000Y-75139533D01*
X179400000Y-75139533D01*
X179400000Y-75700467D01*
X179614659Y-76218701D01*
X180011299Y-76615341D01*
X180191542Y-76690000D01*
X180011299Y-76764659D01*
X179614659Y-77161299D01*
X179400000Y-77679533D01*
X179400000Y-78240467D01*
X179614659Y-78758701D01*
X180011299Y-79155341D01*
X180191542Y-79230000D01*
X180011299Y-79304659D01*
X179614659Y-79701299D01*
X179400000Y-80219533D01*
X179400000Y-80780467D01*
X179614659Y-81298701D01*
X180011299Y-81695341D01*
X180175754Y-81763461D01*
X180071035Y-81806837D01*
X179999972Y-82050367D01*
X180810000Y-82860395D01*
X181620028Y-82050367D01*
X181548965Y-81806837D01*
X181436578Y-81766637D01*
X181608701Y-81695341D01*
X182005341Y-81298701D01*
X182220000Y-80780467D01*
X182220000Y-80219533D01*
X182005341Y-79701299D01*
X181608701Y-79304659D01*
X181428458Y-79230000D01*
X181608701Y-79155341D01*
X182005341Y-78758701D01*
X182220000Y-78240467D01*
X182220000Y-77679533D01*
X182005341Y-77161299D01*
X181608701Y-76764659D01*
X181428458Y-76690000D01*
X181608701Y-76615341D01*
X182005341Y-76218701D01*
X182220000Y-75700467D01*
X182220000Y-75139533D01*
X182005341Y-74621299D01*
X181608701Y-74224659D01*
X181090467Y-74010000D01*
X180529533Y-74010000D01*
X180011299Y-74224659D01*
X179614659Y-74621299D01*
X179400000Y-75139533D01*
X174600000Y-75139533D01*
X174385341Y-74621299D01*
X173988701Y-74224659D01*
X173470467Y-74010000D01*
X172909533Y-74010000D01*
X172391299Y-74224659D01*
X171994659Y-74621299D01*
X171780000Y-75139533D01*
X171780000Y-75700467D01*
X171994659Y-76218701D01*
X172391299Y-76615341D01*
X172571542Y-76690000D01*
X172391299Y-76764659D01*
X171994659Y-77161299D01*
X171780000Y-77679533D01*
X171780000Y-78240467D01*
X171994659Y-78758701D01*
X172391299Y-79155341D01*
X172571542Y-79230000D01*
X172391299Y-79304659D01*
X171994659Y-79701299D01*
X171780000Y-80219533D01*
X171780000Y-80253970D01*
X167305781Y-75779751D01*
X167251494Y-75698506D01*
X166929646Y-75483454D01*
X166645832Y-75427000D01*
X166645831Y-75427000D01*
X166550000Y-75407938D01*
X166454169Y-75427000D01*
X162453030Y-75427000D01*
X156831030Y-69805000D01*
X159887560Y-69805000D01*
X159887560Y-71355000D01*
X159936843Y-71602765D01*
X160077191Y-71812809D01*
X160287235Y-71953157D01*
X160535000Y-72002440D01*
X162085000Y-72002440D01*
X162332765Y-71953157D01*
X162542809Y-71812809D01*
X162683157Y-71602765D01*
X162732440Y-71355000D01*
X162732440Y-69805000D01*
X162683157Y-69557235D01*
X162542809Y-69347191D01*
X162332765Y-69206843D01*
X162085000Y-69157560D01*
X162082698Y-69157560D01*
X162120028Y-69029633D01*
X161310000Y-68219605D01*
X160499972Y-69029633D01*
X160537302Y-69157560D01*
X160535000Y-69157560D01*
X160287235Y-69206843D01*
X160077191Y-69347191D01*
X159936843Y-69557235D01*
X159887560Y-69805000D01*
X156831030Y-69805000D01*
X155100000Y-68073971D01*
X155100000Y-67829197D01*
X159887916Y-67829197D01*
X159915494Y-68389451D01*
X160076837Y-68778965D01*
X160320367Y-68850028D01*
X161130395Y-68040000D01*
X161489605Y-68040000D01*
X162299633Y-68850028D01*
X162543163Y-68778965D01*
X162732084Y-68250803D01*
X162704506Y-67690549D01*
X162543163Y-67301035D01*
X162299633Y-67229972D01*
X161489605Y-68040000D01*
X161130395Y-68040000D01*
X160320367Y-67229972D01*
X160076837Y-67301035D01*
X159887916Y-67829197D01*
X155100000Y-67829197D01*
X155100000Y-67759533D01*
X154885341Y-67241299D01*
X154488701Y-66844659D01*
X154308458Y-66770000D01*
X154488701Y-66695341D01*
X154885341Y-66298701D01*
X155100000Y-65780467D01*
X155100000Y-65219533D01*
X154885341Y-64701299D01*
X154488701Y-64304659D01*
X154308458Y-64230000D01*
X154488701Y-64155341D01*
X154885341Y-63758701D01*
X155100000Y-63240467D01*
X155100000Y-62679533D01*
X154885341Y-62161299D01*
X154488701Y-61764659D01*
X154308458Y-61690000D01*
X154488701Y-61615341D01*
X154885341Y-61218701D01*
X155100000Y-60700467D01*
X155100000Y-60139533D01*
X159900000Y-60139533D01*
X159900000Y-60700467D01*
X160114659Y-61218701D01*
X160511299Y-61615341D01*
X160691542Y-61690000D01*
X160511299Y-61764659D01*
X160114659Y-62161299D01*
X159900000Y-62679533D01*
X159900000Y-63240467D01*
X160114659Y-63758701D01*
X160511299Y-64155341D01*
X160691542Y-64230000D01*
X160511299Y-64304659D01*
X160114659Y-64701299D01*
X159900000Y-65219533D01*
X159900000Y-65780467D01*
X160114659Y-66298701D01*
X160511299Y-66695341D01*
X160675754Y-66763461D01*
X160571035Y-66806837D01*
X160499972Y-67050367D01*
X161310000Y-67860395D01*
X162120028Y-67050367D01*
X162048965Y-66806837D01*
X161936578Y-66766637D01*
X162108701Y-66695341D01*
X162505341Y-66298701D01*
X162720000Y-65780467D01*
X162720000Y-65219533D01*
X162505341Y-64701299D01*
X162108701Y-64304659D01*
X161928458Y-64230000D01*
X162108701Y-64155341D01*
X162505341Y-63758701D01*
X162720000Y-63240467D01*
X162720000Y-62679533D01*
X162505341Y-62161299D01*
X162108701Y-61764659D01*
X161928458Y-61690000D01*
X162108701Y-61615341D01*
X162505341Y-61218701D01*
X162720000Y-60700467D01*
X162720000Y-60139533D01*
X162505341Y-59621299D01*
X162108701Y-59224659D01*
X161590467Y-59010000D01*
X161029533Y-59010000D01*
X160511299Y-59224659D01*
X160114659Y-59621299D01*
X159900000Y-60139533D01*
X155100000Y-60139533D01*
X154885341Y-59621299D01*
X154488701Y-59224659D01*
X153970467Y-59010000D01*
X153409533Y-59010000D01*
X152891299Y-59224659D01*
X152494659Y-59621299D01*
X152280000Y-60139533D01*
X152280000Y-60700467D01*
X152494659Y-61218701D01*
X152891299Y-61615341D01*
X153071542Y-61690000D01*
X152891299Y-61764659D01*
X152494659Y-62161299D01*
X152280000Y-62679533D01*
X152280000Y-63240467D01*
X152494659Y-63758701D01*
X152891299Y-64155341D01*
X153071542Y-64230000D01*
X152891299Y-64304659D01*
X152494659Y-64701299D01*
X152280000Y-65219533D01*
X152280000Y-65780467D01*
X152494659Y-66298701D01*
X152891299Y-66695341D01*
X153071542Y-66770000D01*
X152891299Y-66844659D01*
X152668958Y-67067000D01*
X147343030Y-67067000D01*
X142278469Y-62002440D01*
X143085000Y-62002440D01*
X143332765Y-61953157D01*
X143542809Y-61812809D01*
X143683157Y-61602765D01*
X143732440Y-61355000D01*
X143732440Y-59805000D01*
X143683157Y-59557235D01*
X143542809Y-59347191D01*
X143332765Y-59206843D01*
X143085000Y-59157560D01*
X143082698Y-59157560D01*
X143120028Y-59029633D01*
X142310000Y-58219605D01*
X141499972Y-59029633D01*
X141537302Y-59157560D01*
X141535000Y-59157560D01*
X141287235Y-59206843D01*
X141077191Y-59347191D01*
X140936843Y-59557235D01*
X140887560Y-59805000D01*
X140887560Y-60611531D01*
X138105226Y-57829197D01*
X140887916Y-57829197D01*
X140915494Y-58389451D01*
X141076837Y-58778965D01*
X141320367Y-58850028D01*
X142130395Y-58040000D01*
X142489605Y-58040000D01*
X143299633Y-58850028D01*
X143543163Y-58778965D01*
X143732084Y-58250803D01*
X143704506Y-57690549D01*
X143543163Y-57301035D01*
X143299633Y-57229972D01*
X142489605Y-58040000D01*
X142130395Y-58040000D01*
X141320367Y-57229972D01*
X141076837Y-57301035D01*
X140887916Y-57829197D01*
X138105226Y-57829197D01*
X137695781Y-57419752D01*
X137641494Y-57338506D01*
X137319646Y-57123454D01*
X137035832Y-57067000D01*
X137035831Y-57067000D01*
X136940000Y-57047938D01*
X136844169Y-57067000D01*
X135711042Y-57067000D01*
X135488701Y-56844659D01*
X135308458Y-56770000D01*
X135488701Y-56695341D01*
X135885341Y-56298701D01*
X136100000Y-55780467D01*
X136100000Y-55219533D01*
X135885341Y-54701299D01*
X135488701Y-54304659D01*
X135308458Y-54230000D01*
X135488701Y-54155341D01*
X135885341Y-53758701D01*
X136100000Y-53240467D01*
X136100000Y-52679533D01*
X135885341Y-52161299D01*
X135488701Y-51764659D01*
X135308458Y-51690000D01*
X135488701Y-51615341D01*
X135885341Y-51218701D01*
X136100000Y-50700467D01*
X136100000Y-50139533D01*
X140900000Y-50139533D01*
X140900000Y-50700467D01*
X141114659Y-51218701D01*
X141511299Y-51615341D01*
X141691542Y-51690000D01*
X141511299Y-51764659D01*
X141114659Y-52161299D01*
X140900000Y-52679533D01*
X140900000Y-53240467D01*
X141114659Y-53758701D01*
X141511299Y-54155341D01*
X141691542Y-54230000D01*
X141511299Y-54304659D01*
X141114659Y-54701299D01*
X140900000Y-55219533D01*
X140900000Y-55780467D01*
X141114659Y-56298701D01*
X141511299Y-56695341D01*
X141675754Y-56763461D01*
X141571035Y-56806837D01*
X141499972Y-57050367D01*
X142310000Y-57860395D01*
X143120028Y-57050367D01*
X143048965Y-56806837D01*
X142936578Y-56766637D01*
X143108701Y-56695341D01*
X143505341Y-56298701D01*
X143720000Y-55780467D01*
X143720000Y-55219533D01*
X143505341Y-54701299D01*
X143108701Y-54304659D01*
X142928458Y-54230000D01*
X143108701Y-54155341D01*
X143505341Y-53758701D01*
X143720000Y-53240467D01*
X143720000Y-52679533D01*
X143505341Y-52161299D01*
X143108701Y-51764659D01*
X142928458Y-51690000D01*
X143108701Y-51615341D01*
X143505341Y-51218701D01*
X143720000Y-50700467D01*
X143720000Y-50139533D01*
X143505341Y-49621299D01*
X143108701Y-49224659D01*
X142590467Y-49010000D01*
X142029533Y-49010000D01*
X141511299Y-49224659D01*
X141114659Y-49621299D01*
X140900000Y-50139533D01*
X136100000Y-50139533D01*
X135885341Y-49621299D01*
X135488701Y-49224659D01*
X134970467Y-49010000D01*
X134409533Y-49010000D01*
X133891299Y-49224659D01*
X133494659Y-49621299D01*
X133280000Y-50139533D01*
X133280000Y-50700467D01*
X133494659Y-51218701D01*
X133891299Y-51615341D01*
X134071542Y-51690000D01*
X133891299Y-51764659D01*
X133494659Y-52161299D01*
X133280000Y-52679533D01*
X133280000Y-53240467D01*
X133494659Y-53758701D01*
X133891299Y-54155341D01*
X134071542Y-54230000D01*
X133891299Y-54304659D01*
X133494659Y-54701299D01*
X133280000Y-55219533D01*
X133280000Y-55253971D01*
X133105780Y-55079751D01*
X133051494Y-54998506D01*
X132729646Y-54783454D01*
X132445832Y-54727000D01*
X132445831Y-54727000D01*
X132350000Y-54707938D01*
X132254169Y-54727000D01*
X120095831Y-54727000D01*
X119999999Y-54707938D01*
X119904168Y-54727000D01*
X119620354Y-54783454D01*
X119298506Y-54998506D01*
X119244221Y-55079749D01*
X117679749Y-56644222D01*
X117598507Y-56698506D01*
X117544222Y-56779749D01*
X117383454Y-57020355D01*
X117307938Y-57400000D01*
X117327001Y-57495836D01*
X117327000Y-65067000D01*
X115711042Y-65067000D01*
X115488701Y-64844659D01*
X115308458Y-64770000D01*
X115488701Y-64695341D01*
X115885341Y-64298701D01*
X116100000Y-63780467D01*
X116100000Y-63219533D01*
X115885341Y-62701299D01*
X115488701Y-62304659D01*
X115308458Y-62230000D01*
X115488701Y-62155341D01*
X115885341Y-61758701D01*
X116100000Y-61240467D01*
X116100000Y-60679533D01*
X115885341Y-60161299D01*
X115488701Y-59764659D01*
X115308458Y-59690000D01*
X115488701Y-59615341D01*
X115885341Y-59218701D01*
X116100000Y-58700467D01*
X116100000Y-58139533D01*
X115885341Y-57621299D01*
X115488701Y-57224659D01*
X114970467Y-57010000D01*
X114409533Y-57010000D01*
X113891299Y-57224659D01*
X113494659Y-57621299D01*
X113280000Y-58139533D01*
X113280000Y-58700467D01*
X113494659Y-59218701D01*
X113891299Y-59615341D01*
X114071542Y-59690000D01*
X113891299Y-59764659D01*
X113494659Y-60161299D01*
X113280000Y-60679533D01*
X113280000Y-61240467D01*
X113494659Y-61758701D01*
X113891299Y-62155341D01*
X114071542Y-62230000D01*
X113891299Y-62304659D01*
X113494659Y-62701299D01*
X113280000Y-63219533D01*
X113280000Y-63780467D01*
X113494659Y-64298701D01*
X113891299Y-64695341D01*
X114071542Y-64770000D01*
X113891299Y-64844659D01*
X113494659Y-65241299D01*
X113280000Y-65759533D01*
X113280000Y-66320467D01*
X113494659Y-66838701D01*
X113830355Y-67174397D01*
X113667235Y-67206843D01*
X113457191Y-67347191D01*
X113316843Y-67557235D01*
X113267560Y-67805000D01*
X111285000Y-67805000D01*
X111285000Y-53285000D01*
X128422684Y-53285000D01*
X128500000Y-53300379D01*
X128577316Y-53285000D01*
X128806292Y-53239454D01*
X129065953Y-53065953D01*
X129239454Y-52806292D01*
X129300379Y-52500000D01*
X129285000Y-52422684D01*
X129285000Y-45285000D01*
X147215000Y-45285000D01*
X147215001Y-54422679D01*
X147215001Y-54422679D01*
G37*
X147215001Y-54422679D02*
X147199621Y-54500000D01*
X147260546Y-54806292D01*
X147434047Y-55065953D01*
X147693708Y-55239454D01*
X147922684Y-55285000D01*
X148000000Y-55300379D01*
X148077316Y-55285000D01*
X166715000Y-55285000D01*
X166715001Y-69422679D01*
X166699621Y-69500000D01*
X166760546Y-69806292D01*
X166934047Y-70065953D01*
X167193708Y-70239454D01*
X167422684Y-70285000D01*
X167500000Y-70300379D01*
X167577316Y-70285000D01*
X184715000Y-70285000D01*
X184715001Y-122479762D01*
X184638664Y-123961094D01*
X184413581Y-125406697D01*
X184041091Y-126821512D01*
X183525144Y-128190538D01*
X182871205Y-129499278D01*
X182086191Y-130733881D01*
X181178437Y-131881236D01*
X180157553Y-132929204D01*
X179034349Y-133866684D01*
X177820729Y-134683741D01*
X176529553Y-135371717D01*
X175174495Y-135923328D01*
X173769920Y-136332723D01*
X172330699Y-136595571D01*
X170857022Y-136710259D01*
X170494843Y-136715000D01*
X117285000Y-136715000D01*
X117285000Y-114422684D01*
X117278143Y-114388211D01*
X117234479Y-113898964D01*
X117227976Y-113867701D01*
X117226249Y-113835806D01*
X117203884Y-113741200D01*
X117002477Y-113076207D01*
X116985520Y-113037208D01*
X116973509Y-112996398D01*
X116929980Y-112909475D01*
X116580994Y-112308651D01*
X116555518Y-112274597D01*
X116534442Y-112237646D01*
X116472084Y-112163067D01*
X115994239Y-111658644D01*
X115961612Y-111631363D01*
X115932602Y-111600254D01*
X115854760Y-111542021D01*
X115273688Y-111161053D01*
X115235658Y-111142009D01*
X115200270Y-111118408D01*
X115111119Y-111079644D01*
X114457991Y-110842570D01*
X114416600Y-110832786D01*
X114376732Y-110817959D01*
X114281055Y-110800744D01*
X113590906Y-110720281D01*
X112991663Y-110650416D01*
X112510594Y-110475797D01*
X112082601Y-110195192D01*
X111730637Y-109823652D01*
X111473588Y-109381108D01*
X111322124Y-108881016D01*
X111285000Y-108465043D01*
X111285000Y-105650000D01*
X113002560Y-105650000D01*
X113002560Y-107350000D01*
X113051843Y-107597765D01*
X113192191Y-107807809D01*
X113402235Y-107948157D01*
X113650000Y-107997440D01*
X115350000Y-107997440D01*
X115597765Y-107948157D01*
X115807809Y-107807809D01*
X115948157Y-107597765D01*
X115957184Y-107552381D01*
X115969375Y-107570625D01*
X116460582Y-107898839D01*
X116893744Y-107985000D01*
X117186256Y-107985000D01*
X117619418Y-107898839D01*
X118110625Y-107570625D01*
X118323843Y-107251522D01*
X118384817Y-107381358D01*
X118813076Y-107771645D01*
X119223110Y-107941476D01*
X119453000Y-107820155D01*
X119453000Y-106627000D01*
X119433000Y-106627000D01*
X119433000Y-106373000D01*
X119453000Y-106373000D01*
X119453000Y-105179845D01*
X119707000Y-105179845D01*
X119707000Y-106373000D01*
X119727000Y-106373000D01*
X119727000Y-106627000D01*
X119707000Y-106627000D01*
X119707000Y-107820155D01*
X119936890Y-107941476D01*
X120346924Y-107771645D01*
X120775183Y-107381358D01*
X120836157Y-107251522D01*
X121049375Y-107570625D01*
X121540582Y-107898839D01*
X121973744Y-107985000D01*
X122266256Y-107985000D01*
X122699418Y-107898839D01*
X123190625Y-107570625D01*
X123390000Y-107272239D01*
X123589375Y-107570625D01*
X124080582Y-107898839D01*
X124513744Y-107985000D01*
X124806256Y-107985000D01*
X125239418Y-107898839D01*
X125730625Y-107570625D01*
X125930000Y-107272239D01*
X126129375Y-107570625D01*
X126620582Y-107898839D01*
X127053744Y-107985000D01*
X127346256Y-107985000D01*
X127779418Y-107898839D01*
X128270625Y-107570625D01*
X128598839Y-107079418D01*
X128714092Y-106500000D01*
X128598839Y-105920582D01*
X128270625Y-105429375D01*
X127779418Y-105101161D01*
X127346256Y-105015000D01*
X127053744Y-105015000D01*
X126620582Y-105101161D01*
X126129375Y-105429375D01*
X125930000Y-105727761D01*
X125730625Y-105429375D01*
X125239418Y-105101161D01*
X124806256Y-105015000D01*
X124513744Y-105015000D01*
X124080582Y-105101161D01*
X123589375Y-105429375D01*
X123390000Y-105727761D01*
X123190625Y-105429375D01*
X122699418Y-105101161D01*
X122266256Y-105015000D01*
X121973744Y-105015000D01*
X121540582Y-105101161D01*
X121049375Y-105429375D01*
X120836157Y-105748478D01*
X120775183Y-105618642D01*
X120346924Y-105228355D01*
X119936890Y-105058524D01*
X119707000Y-105179845D01*
X119453000Y-105179845D01*
X119223110Y-105058524D01*
X118813076Y-105228355D01*
X118384817Y-105618642D01*
X118323843Y-105748478D01*
X118110625Y-105429375D01*
X117619418Y-105101161D01*
X117186256Y-105015000D01*
X116893744Y-105015000D01*
X116460582Y-105101161D01*
X115969375Y-105429375D01*
X115957184Y-105447619D01*
X115948157Y-105402235D01*
X115807809Y-105192191D01*
X115597765Y-105051843D01*
X115350000Y-105002560D01*
X113650000Y-105002560D01*
X113402235Y-105051843D01*
X113192191Y-105192191D01*
X113051843Y-105402235D01*
X113002560Y-105650000D01*
X111285000Y-105650000D01*
X111285000Y-97500000D01*
X111449621Y-97500000D01*
X111465001Y-97577321D01*
X111465000Y-100422684D01*
X111449621Y-100500000D01*
X111510546Y-100806292D01*
X111629603Y-100984472D01*
X111684047Y-101065953D01*
X111943708Y-101239454D01*
X112250000Y-101300379D01*
X112327316Y-101285000D01*
X125172684Y-101285000D01*
X125250000Y-101300379D01*
X125556292Y-101239454D01*
X125815953Y-101065953D01*
X125989454Y-100806292D01*
X126035000Y-100577316D01*
X126035000Y-100577315D01*
X126050379Y-100500000D01*
X126035000Y-100422684D01*
X126035000Y-97577316D01*
X126050379Y-97500000D01*
X125989454Y-97193708D01*
X125815953Y-96934047D01*
X125556292Y-96760546D01*
X125327316Y-96715000D01*
X125250000Y-96699621D01*
X125172684Y-96715000D01*
X112327316Y-96715000D01*
X112250000Y-96699621D01*
X112172684Y-96715000D01*
X111943708Y-96760546D01*
X111684047Y-96934047D01*
X111510546Y-97193708D01*
X111449621Y-97500000D01*
X111285000Y-97500000D01*
X111285000Y-90200000D01*
X116295000Y-90200000D01*
X116415156Y-90958637D01*
X116763863Y-91643013D01*
X117306987Y-92186137D01*
X117991363Y-92534844D01*
X118750000Y-92655000D01*
X119508637Y-92534844D01*
X120193013Y-92186137D01*
X120736137Y-91643013D01*
X121084844Y-90958637D01*
X121205000Y-90200000D01*
X121084844Y-89441363D01*
X120736137Y-88756987D01*
X120193013Y-88213863D01*
X119508637Y-87865156D01*
X118750000Y-87745000D01*
X117991363Y-87865156D01*
X117306987Y-88213863D01*
X116763863Y-88756987D01*
X116415156Y-89441363D01*
X116295000Y-90200000D01*
X111285000Y-90200000D01*
X111285000Y-82650000D01*
X112002560Y-82650000D01*
X112002560Y-84350000D01*
X112051843Y-84597765D01*
X112192191Y-84807809D01*
X112402235Y-84948157D01*
X112650000Y-84997440D01*
X114350000Y-84997440D01*
X114597765Y-84948157D01*
X114807809Y-84807809D01*
X114948157Y-84597765D01*
X114957184Y-84552381D01*
X114969375Y-84570625D01*
X115460582Y-84898839D01*
X115893744Y-84985000D01*
X116186256Y-84985000D01*
X116619418Y-84898839D01*
X117110625Y-84570625D01*
X117323843Y-84251522D01*
X117384817Y-84381358D01*
X117813076Y-84771645D01*
X118223110Y-84941476D01*
X118453000Y-84820155D01*
X118453000Y-83627000D01*
X118433000Y-83627000D01*
X118433000Y-83373000D01*
X118453000Y-83373000D01*
X118453000Y-82179845D01*
X118707000Y-82179845D01*
X118707000Y-83373000D01*
X118727000Y-83373000D01*
X118727000Y-83627000D01*
X118707000Y-83627000D01*
X118707000Y-84820155D01*
X118936890Y-84941476D01*
X119346924Y-84771645D01*
X119775183Y-84381358D01*
X119836157Y-84251522D01*
X120049375Y-84570625D01*
X120540582Y-84898839D01*
X120973744Y-84985000D01*
X121266256Y-84985000D01*
X121699418Y-84898839D01*
X122190625Y-84570625D01*
X122390000Y-84272239D01*
X122589375Y-84570625D01*
X123080582Y-84898839D01*
X123513744Y-84985000D01*
X123806256Y-84985000D01*
X124239418Y-84898839D01*
X124730625Y-84570625D01*
X124930000Y-84272239D01*
X125129375Y-84570625D01*
X125620582Y-84898839D01*
X126053744Y-84985000D01*
X126346256Y-84985000D01*
X126779418Y-84898839D01*
X127270625Y-84570625D01*
X127598839Y-84079418D01*
X127714092Y-83500000D01*
X127598839Y-82920582D01*
X127270625Y-82429375D01*
X126779418Y-82101161D01*
X126346256Y-82015000D01*
X126053744Y-82015000D01*
X125620582Y-82101161D01*
X125129375Y-82429375D01*
X124930000Y-82727761D01*
X124730625Y-82429375D01*
X124239418Y-82101161D01*
X123806256Y-82015000D01*
X123513744Y-82015000D01*
X123080582Y-82101161D01*
X122589375Y-82429375D01*
X122390000Y-82727761D01*
X122190625Y-82429375D01*
X121699418Y-82101161D01*
X121266256Y-82015000D01*
X120973744Y-82015000D01*
X120540582Y-82101161D01*
X120049375Y-82429375D01*
X119836157Y-82748478D01*
X119775183Y-82618642D01*
X119346924Y-82228355D01*
X118936890Y-82058524D01*
X118707000Y-82179845D01*
X118453000Y-82179845D01*
X118223110Y-82058524D01*
X117813076Y-82228355D01*
X117384817Y-82618642D01*
X117323843Y-82748478D01*
X117110625Y-82429375D01*
X116619418Y-82101161D01*
X116186256Y-82015000D01*
X115893744Y-82015000D01*
X115460582Y-82101161D01*
X114969375Y-82429375D01*
X114957184Y-82447619D01*
X114948157Y-82402235D01*
X114807809Y-82192191D01*
X114597765Y-82051843D01*
X114350000Y-82002560D01*
X112650000Y-82002560D01*
X112402235Y-82051843D01*
X112192191Y-82192191D01*
X112051843Y-82402235D01*
X112002560Y-82650000D01*
X111285000Y-82650000D01*
X111285000Y-74700000D01*
X116295000Y-74700000D01*
X116415156Y-75458637D01*
X116763863Y-76143013D01*
X117306987Y-76686137D01*
X117991363Y-77034844D01*
X118750000Y-77155000D01*
X119508637Y-77034844D01*
X120193013Y-76686137D01*
X120736137Y-76143013D01*
X121084844Y-75458637D01*
X121205000Y-74700000D01*
X121084844Y-73941363D01*
X120736137Y-73256987D01*
X120193013Y-72713863D01*
X119508637Y-72365156D01*
X118750000Y-72245000D01*
X117991363Y-72365156D01*
X117306987Y-72713863D01*
X116763863Y-73256987D01*
X116415156Y-73941363D01*
X116295000Y-74700000D01*
X111285000Y-74700000D01*
X111285000Y-67805000D01*
X113267560Y-67805000D01*
X113267560Y-69355000D01*
X113316843Y-69602765D01*
X113457191Y-69812809D01*
X113667235Y-69953157D01*
X113915000Y-70002440D01*
X115465000Y-70002440D01*
X115712765Y-69953157D01*
X115922809Y-69812809D01*
X116063157Y-69602765D01*
X116112440Y-69355000D01*
X116112440Y-67805000D01*
X116063157Y-67557235D01*
X115922809Y-67347191D01*
X115712765Y-67206843D01*
X115549645Y-67174397D01*
X115711042Y-67013000D01*
X117327001Y-67013000D01*
X117327000Y-68804168D01*
X117307938Y-68900000D01*
X117327000Y-68995831D01*
X117383454Y-69279645D01*
X117598506Y-69601494D01*
X117679752Y-69655781D01*
X128827001Y-80803031D01*
X128827000Y-106895831D01*
X128827001Y-106895835D01*
X128827000Y-107795831D01*
X128827001Y-107795835D01*
X128827000Y-109996970D01*
X123379749Y-115444222D01*
X122979750Y-115844221D01*
X122898507Y-115898506D01*
X122844222Y-115979749D01*
X122683454Y-116220355D01*
X122607938Y-116600000D01*
X122627001Y-116695836D01*
X122627000Y-125027000D01*
X120921846Y-125027000D01*
X120826015Y-125007938D01*
X120730184Y-125027000D01*
X120730183Y-125027000D01*
X120680854Y-125036812D01*
X120488701Y-124844659D01*
X120308458Y-124770000D01*
X120488701Y-124695341D01*
X120885341Y-124298701D01*
X121100000Y-123780467D01*
X121100000Y-123219533D01*
X120885341Y-122701299D01*
X120488701Y-122304659D01*
X120308458Y-122230000D01*
X120488701Y-122155341D01*
X120885341Y-121758701D01*
X121100000Y-121240467D01*
X121100000Y-120679533D01*
X120885341Y-120161299D01*
X120488701Y-119764659D01*
X120308458Y-119690000D01*
X120488701Y-119615341D01*
X120885341Y-119218701D01*
X121100000Y-118700467D01*
X121100000Y-118139533D01*
X120885341Y-117621299D01*
X120488701Y-117224659D01*
X119970467Y-117010000D01*
X119409533Y-117010000D01*
X118891299Y-117224659D01*
X118494659Y-117621299D01*
X118280000Y-118139533D01*
X118280000Y-118700467D01*
X118494659Y-119218701D01*
X118891299Y-119615341D01*
X119071542Y-119690000D01*
X118891299Y-119764659D01*
X118494659Y-120161299D01*
X118280000Y-120679533D01*
X118280000Y-121240467D01*
X118494659Y-121758701D01*
X118891299Y-122155341D01*
X119071542Y-122230000D01*
X118891299Y-122304659D01*
X118494659Y-122701299D01*
X118280000Y-123219533D01*
X118280000Y-123780467D01*
X118494659Y-124298701D01*
X118891299Y-124695341D01*
X119071542Y-124770000D01*
X118891299Y-124844659D01*
X118494659Y-125241299D01*
X118280000Y-125759533D01*
X118280000Y-126320467D01*
X118494659Y-126838701D01*
X118830355Y-127174397D01*
X118667235Y-127206843D01*
X118457191Y-127347191D01*
X118316843Y-127557235D01*
X118267560Y-127805000D01*
X118267560Y-129355000D01*
X118316843Y-129602765D01*
X118457191Y-129812809D01*
X118667235Y-129953157D01*
X118915000Y-130002440D01*
X120465000Y-130002440D01*
X120712765Y-129953157D01*
X120922809Y-129812809D01*
X121063157Y-129602765D01*
X121112440Y-129355000D01*
X121112440Y-127805000D01*
X121063157Y-127557235D01*
X120922809Y-127347191D01*
X120712765Y-127206843D01*
X120549645Y-127174397D01*
X120707581Y-127016461D01*
X120786015Y-127032062D01*
X120881846Y-127013000D01*
X120881847Y-127013000D01*
X121082941Y-126973000D01*
X122627001Y-126973000D01*
X122627000Y-131704169D01*
X122607938Y-131800000D01*
X122672224Y-132123188D01*
X122683454Y-132179645D01*
X122898506Y-132501494D01*
X122979751Y-132555780D01*
X126644221Y-136220251D01*
X126698506Y-136301494D01*
X127020354Y-136516546D01*
X127292083Y-136570596D01*
X127400000Y-136592062D01*
X127495831Y-136573000D01*
X150778169Y-136573000D01*
X150874000Y-136592062D01*
X150969831Y-136573000D01*
X150969832Y-136573000D01*
X151253646Y-136516546D01*
X151575494Y-136301494D01*
X151629780Y-136220249D01*
X154132121Y-133717909D01*
X154192191Y-133807809D01*
X154402235Y-133948157D01*
X154650000Y-133997440D01*
X156350000Y-133997440D01*
X156597765Y-133948157D01*
X156807809Y-133807809D01*
X156948157Y-133597765D01*
X156957184Y-133552381D01*
X156969375Y-133570625D01*
X157460582Y-133898839D01*
X157893744Y-133985000D01*
X158186256Y-133985000D01*
X158619418Y-133898839D01*
X159110625Y-133570625D01*
X159438839Y-133079418D01*
X159554092Y-132500000D01*
X159438839Y-131920582D01*
X159110625Y-131429375D01*
X158619418Y-131101161D01*
X158186256Y-131015000D01*
X157893744Y-131015000D01*
X157460582Y-131101161D01*
X156969375Y-131429375D01*
X156957184Y-131447619D01*
X156948157Y-131402235D01*
X156807809Y-131192191D01*
X156717909Y-131132121D01*
X156977030Y-130873000D01*
X167696971Y-130873000D01*
X168067000Y-131243030D01*
X168067000Y-131364144D01*
X167969375Y-131429375D01*
X167957184Y-131447619D01*
X167948157Y-131402235D01*
X167807809Y-131192191D01*
X167597765Y-131051843D01*
X167350000Y-131002560D01*
X165650000Y-131002560D01*
X165402235Y-131051843D01*
X165192191Y-131192191D01*
X165051843Y-131402235D01*
X165002560Y-131650000D01*
X165002560Y-133350000D01*
X165051843Y-133597765D01*
X165192191Y-133807809D01*
X165402235Y-133948157D01*
X165650000Y-133997440D01*
X167350000Y-133997440D01*
X167597765Y-133948157D01*
X167807809Y-133807809D01*
X167948157Y-133597765D01*
X167957184Y-133552381D01*
X167969375Y-133570625D01*
X168460582Y-133898839D01*
X168893744Y-133985000D01*
X169186256Y-133985000D01*
X169619418Y-133898839D01*
X170110625Y-133570625D01*
X170310000Y-133272239D01*
X170509375Y-133570625D01*
X171000582Y-133898839D01*
X171433744Y-133985000D01*
X171726256Y-133985000D01*
X172159418Y-133898839D01*
X172650625Y-133570625D01*
X172978839Y-133079418D01*
X173094092Y-132500000D01*
X172978839Y-131920582D01*
X172650625Y-131429375D01*
X172159418Y-131101161D01*
X171726256Y-131015000D01*
X171433744Y-131015000D01*
X171000582Y-131101161D01*
X170509375Y-131429375D01*
X170310000Y-131727761D01*
X170110625Y-131429375D01*
X170013000Y-131364144D01*
X170013000Y-130935831D01*
X170032062Y-130840000D01*
X169995976Y-130658580D01*
X169956546Y-130460354D01*
X169741494Y-130138506D01*
X169660252Y-130084222D01*
X168855780Y-129279751D01*
X168801494Y-129198506D01*
X168479646Y-128983454D01*
X168195832Y-128927000D01*
X168195831Y-128927000D01*
X168100000Y-128907938D01*
X168004169Y-128927000D01*
X156669829Y-128927000D01*
X156573999Y-128907938D01*
X156478169Y-128927000D01*
X156478168Y-128927000D01*
X156194354Y-128983454D01*
X155872506Y-129198506D01*
X155818221Y-129279749D01*
X154879749Y-130218222D01*
X154798507Y-130272506D01*
X154744222Y-130353749D01*
X154583454Y-130594355D01*
X154507938Y-130974000D01*
X154518810Y-131028655D01*
X154402235Y-131051843D01*
X154192191Y-131192191D01*
X154051843Y-131402235D01*
X154028655Y-131518810D01*
X153973999Y-131507938D01*
X153594354Y-131583454D01*
X153272506Y-131798506D01*
X153218221Y-131879749D01*
X150470971Y-134627000D01*
X127803030Y-134627000D01*
X124573000Y-131396971D01*
X124573000Y-130284561D01*
X131345000Y-130284561D01*
X131345000Y-130855439D01*
X131563466Y-131382862D01*
X131967138Y-131786534D01*
X132096216Y-131840000D01*
X131967138Y-131893466D01*
X131563466Y-132297138D01*
X131345000Y-132824561D01*
X131345000Y-133395439D01*
X131563466Y-133922862D01*
X131967138Y-134326534D01*
X132494561Y-134545000D01*
X133065439Y-134545000D01*
X133592862Y-134326534D01*
X133996534Y-133922862D01*
X134215000Y-133395439D01*
X134215000Y-132824561D01*
X133996534Y-132297138D01*
X133592862Y-131893466D01*
X133463784Y-131840000D01*
X133592862Y-131786534D01*
X133996534Y-131382862D01*
X134215000Y-130855439D01*
X134215000Y-130284561D01*
X133996534Y-129757138D01*
X133592862Y-129353466D01*
X133479417Y-129306475D01*
X133534005Y-129283864D01*
X133608139Y-129037745D01*
X132780000Y-128209605D01*
X131951861Y-129037745D01*
X132025995Y-129283864D01*
X132084448Y-129304874D01*
X131967138Y-129353466D01*
X131563466Y-129757138D01*
X131345000Y-130284561D01*
X124573000Y-130284561D01*
X124573000Y-127805000D01*
X125887560Y-127805000D01*
X125887560Y-129355000D01*
X125936843Y-129602765D01*
X126077191Y-129812809D01*
X126287235Y-129953157D01*
X126535000Y-130002440D01*
X128085000Y-130002440D01*
X128332765Y-129953157D01*
X128542809Y-129812809D01*
X128683157Y-129602765D01*
X128732440Y-129355000D01*
X128732440Y-127813223D01*
X131333035Y-127813223D01*
X131360222Y-128383454D01*
X131526136Y-128784005D01*
X131772255Y-128858139D01*
X132600395Y-128030000D01*
X132959605Y-128030000D01*
X133787745Y-128858139D01*
X134033864Y-128784005D01*
X134226965Y-128246777D01*
X134199778Y-127676546D01*
X134033864Y-127275995D01*
X133787745Y-127201861D01*
X132959605Y-128030000D01*
X132600395Y-128030000D01*
X131772255Y-127201861D01*
X131526136Y-127275995D01*
X131333035Y-127813223D01*
X128732440Y-127813223D01*
X128732440Y-127805000D01*
X128683157Y-127557235D01*
X128542809Y-127347191D01*
X128332765Y-127206843D01*
X128085000Y-127157560D01*
X128082698Y-127157560D01*
X128120028Y-127029633D01*
X127310000Y-126219605D01*
X126499972Y-127029633D01*
X126537302Y-127157560D01*
X126535000Y-127157560D01*
X126287235Y-127206843D01*
X126077191Y-127347191D01*
X125936843Y-127557235D01*
X125887560Y-127805000D01*
X124573000Y-127805000D01*
X124573000Y-126095831D01*
X124592062Y-126000000D01*
X124573000Y-125904168D01*
X124573000Y-125829197D01*
X125887916Y-125829197D01*
X125915494Y-126389451D01*
X126076837Y-126778965D01*
X126320367Y-126850028D01*
X127130395Y-126040000D01*
X127489605Y-126040000D01*
X128299633Y-126850028D01*
X128543163Y-126778965D01*
X128732084Y-126250803D01*
X128704506Y-125690549D01*
X128543163Y-125301035D01*
X128299633Y-125229972D01*
X127489605Y-126040000D01*
X127130395Y-126040000D01*
X126320367Y-125229972D01*
X126076837Y-125301035D01*
X125887916Y-125829197D01*
X124573000Y-125829197D01*
X124573000Y-118139533D01*
X125900000Y-118139533D01*
X125900000Y-118700467D01*
X126114659Y-119218701D01*
X126511299Y-119615341D01*
X126691542Y-119690000D01*
X126511299Y-119764659D01*
X126114659Y-120161299D01*
X125900000Y-120679533D01*
X125900000Y-121240467D01*
X126114659Y-121758701D01*
X126511299Y-122155341D01*
X126691542Y-122230000D01*
X126511299Y-122304659D01*
X126114659Y-122701299D01*
X125900000Y-123219533D01*
X125900000Y-123780467D01*
X126114659Y-124298701D01*
X126511299Y-124695341D01*
X126675754Y-124763461D01*
X126571035Y-124806837D01*
X126499972Y-125050367D01*
X127310000Y-125860395D01*
X128120028Y-125050367D01*
X128048965Y-124806837D01*
X127936578Y-124766637D01*
X128108701Y-124695341D01*
X128505341Y-124298701D01*
X128720000Y-123780467D01*
X128720000Y-123219533D01*
X128505341Y-122701299D01*
X128108701Y-122304659D01*
X127928458Y-122230000D01*
X128108701Y-122155341D01*
X128505341Y-121758701D01*
X128720000Y-121240467D01*
X128720000Y-120679533D01*
X128505341Y-120161299D01*
X128108701Y-119764659D01*
X127928458Y-119690000D01*
X128108701Y-119615341D01*
X128505341Y-119218701D01*
X128720000Y-118700467D01*
X128720000Y-118139533D01*
X128505341Y-117621299D01*
X128108701Y-117224659D01*
X127590467Y-117010000D01*
X127029533Y-117010000D01*
X126511299Y-117224659D01*
X126114659Y-117621299D01*
X125900000Y-118139533D01*
X124573000Y-118139533D01*
X124573000Y-117003029D01*
X124755778Y-116820251D01*
X130420252Y-111155778D01*
X130501494Y-111101494D01*
X130716546Y-110779646D01*
X130773000Y-110495832D01*
X130773000Y-110495831D01*
X130792062Y-110400000D01*
X130773000Y-110304169D01*
X130773000Y-97500000D01*
X135045000Y-97500000D01*
X135165156Y-98258637D01*
X135513863Y-98943013D01*
X136056987Y-99486137D01*
X136741363Y-99834844D01*
X137500000Y-99955000D01*
X138258637Y-99834844D01*
X138943013Y-99486137D01*
X139486137Y-98943013D01*
X139834844Y-98258637D01*
X139955000Y-97500000D01*
X139834844Y-96741363D01*
X139486137Y-96056987D01*
X138943013Y-95513863D01*
X138258637Y-95165156D01*
X137500000Y-95045000D01*
X136741363Y-95165156D01*
X136056987Y-95513863D01*
X135513863Y-96056987D01*
X135165156Y-96741363D01*
X135045000Y-97500000D01*
X130773000Y-97500000D01*
X130773000Y-92824931D01*
X130905122Y-93022664D01*
X130934047Y-93065953D01*
X131193708Y-93239454D01*
X131500000Y-93300379D01*
X131577316Y-93285000D01*
X144422684Y-93285000D01*
X144500000Y-93300379D01*
X144740001Y-93252640D01*
X144740000Y-115275153D01*
X144725112Y-115350000D01*
X144740000Y-115424847D01*
X144740000Y-115424851D01*
X144784096Y-115646536D01*
X144952071Y-115897929D01*
X145015530Y-115940331D01*
X146606897Y-117531698D01*
X146585000Y-117584561D01*
X146585000Y-118155439D01*
X146803466Y-118682862D01*
X147207138Y-119086534D01*
X147336216Y-119140000D01*
X147207138Y-119193466D01*
X146803466Y-119597138D01*
X146585000Y-120124561D01*
X146585000Y-120695439D01*
X146686301Y-120940000D01*
X140214803Y-120940000D01*
X137530000Y-118255199D01*
X137530000Y-111774846D01*
X137544888Y-111699999D01*
X137530000Y-111625152D01*
X137530000Y-111625148D01*
X137485904Y-111403463D01*
X137317929Y-111152071D01*
X137254473Y-111109671D01*
X134193103Y-108048302D01*
X134215000Y-107995439D01*
X134215000Y-107424561D01*
X133996534Y-106897138D01*
X133592862Y-106493466D01*
X133463784Y-106440000D01*
X133592862Y-106386534D01*
X133996534Y-105982862D01*
X134215000Y-105455439D01*
X134215000Y-104884561D01*
X133996534Y-104357138D01*
X133592862Y-103953466D01*
X133463784Y-103900000D01*
X133592862Y-103846534D01*
X133996534Y-103442862D01*
X134215000Y-102915439D01*
X134215000Y-102344561D01*
X133996534Y-101817138D01*
X133592862Y-101413466D01*
X133463784Y-101360000D01*
X133592862Y-101306534D01*
X133996534Y-100902862D01*
X134215000Y-100375439D01*
X134215000Y-99804561D01*
X133996534Y-99277138D01*
X133592862Y-98873466D01*
X133065439Y-98655000D01*
X132494561Y-98655000D01*
X131967138Y-98873466D01*
X131563466Y-99277138D01*
X131345000Y-99804561D01*
X131345000Y-100375439D01*
X131563466Y-100902862D01*
X131967138Y-101306534D01*
X132096216Y-101360000D01*
X131967138Y-101413466D01*
X131563466Y-101817138D01*
X131345000Y-102344561D01*
X131345000Y-102915439D01*
X131563466Y-103442862D01*
X131967138Y-103846534D01*
X132096216Y-103900000D01*
X131967138Y-103953466D01*
X131563466Y-104357138D01*
X131345000Y-104884561D01*
X131345000Y-105455439D01*
X131563466Y-105982862D01*
X131967138Y-106386534D01*
X132096216Y-106440000D01*
X131967138Y-106493466D01*
X131563466Y-106897138D01*
X131345000Y-107424561D01*
X131345000Y-107995439D01*
X131563466Y-108522862D01*
X131967138Y-108926534D01*
X132096216Y-108980000D01*
X131967138Y-109033466D01*
X131563466Y-109437138D01*
X131345000Y-109964561D01*
X131345000Y-110535439D01*
X131563466Y-111062862D01*
X131967138Y-111466534D01*
X132096216Y-111520000D01*
X131967138Y-111573466D01*
X131563466Y-111977138D01*
X131345000Y-112504561D01*
X131345000Y-113075439D01*
X131563466Y-113602862D01*
X131967138Y-114006534D01*
X132096216Y-114060000D01*
X131967138Y-114113466D01*
X131563466Y-114517138D01*
X131345000Y-115044561D01*
X131345000Y-115615439D01*
X131563466Y-116142862D01*
X131967138Y-116546534D01*
X132096216Y-116600000D01*
X131967138Y-116653466D01*
X131563466Y-117057138D01*
X131345000Y-117584561D01*
X131345000Y-118155439D01*
X131563466Y-118682862D01*
X131967138Y-119086534D01*
X132096216Y-119140000D01*
X131967138Y-119193466D01*
X131563466Y-119597138D01*
X131345000Y-120124561D01*
X131345000Y-120695439D01*
X131563466Y-121222862D01*
X131967138Y-121626534D01*
X132096216Y-121680000D01*
X131967138Y-121733466D01*
X131563466Y-122137138D01*
X131345000Y-122664561D01*
X131345000Y-123235439D01*
X131563466Y-123762862D01*
X131967138Y-124166534D01*
X132096216Y-124220000D01*
X131967138Y-124273466D01*
X131563466Y-124677138D01*
X131345000Y-125204561D01*
X131345000Y-125775439D01*
X131563466Y-126302862D01*
X131967138Y-126706534D01*
X132080583Y-126753525D01*
X132025995Y-126776136D01*
X131951861Y-127022255D01*
X132780000Y-127850395D01*
X133608139Y-127022255D01*
X133534005Y-126776136D01*
X133475552Y-126755126D01*
X133592862Y-126706534D01*
X133996534Y-126302862D01*
X134215000Y-125775439D01*
X134215000Y-125204561D01*
X133996534Y-124677138D01*
X133592862Y-124273466D01*
X133463784Y-124220000D01*
X133592862Y-124166534D01*
X133996534Y-123762862D01*
X134215000Y-123235439D01*
X134215000Y-122664561D01*
X133996534Y-122137138D01*
X133592862Y-121733466D01*
X133463784Y-121680000D01*
X133592862Y-121626534D01*
X133996534Y-121222862D01*
X134215000Y-120695439D01*
X134215000Y-120124561D01*
X133996534Y-119597138D01*
X133592862Y-119193466D01*
X133463784Y-119140000D01*
X133592862Y-119086534D01*
X133996534Y-118682862D01*
X134215000Y-118155439D01*
X134215000Y-117584561D01*
X133996534Y-117057138D01*
X133592862Y-116653466D01*
X133463784Y-116600000D01*
X133592862Y-116546534D01*
X133996534Y-116142862D01*
X134215000Y-115615439D01*
X134215000Y-115044561D01*
X133996534Y-114517138D01*
X133592862Y-114113466D01*
X133463784Y-114060000D01*
X133592862Y-114006534D01*
X133996534Y-113602862D01*
X134215000Y-113075439D01*
X134215000Y-112759802D01*
X135340000Y-113884802D01*
X135340001Y-118925148D01*
X135325112Y-119000000D01*
X135340001Y-119074852D01*
X135384097Y-119296537D01*
X135552072Y-119547929D01*
X135615528Y-119590329D01*
X140809671Y-124784473D01*
X140852071Y-124847929D01*
X141103463Y-125015904D01*
X141325148Y-125060000D01*
X141325153Y-125060000D01*
X141400000Y-125074888D01*
X141474847Y-125060000D01*
X146644879Y-125060000D01*
X146585000Y-125204561D01*
X146585000Y-125775439D01*
X146803466Y-126302862D01*
X147207138Y-126706534D01*
X147336216Y-126760000D01*
X147207138Y-126813466D01*
X146803466Y-127217138D01*
X146585000Y-127744561D01*
X146585000Y-128315439D01*
X146803466Y-128842862D01*
X147207138Y-129246534D01*
X147336216Y-129300000D01*
X147207138Y-129353466D01*
X146803466Y-129757138D01*
X146585000Y-130284561D01*
X146585000Y-130855439D01*
X146803466Y-131382862D01*
X147105866Y-131685262D01*
X146972235Y-131711843D01*
X146762191Y-131852191D01*
X146621843Y-132062235D01*
X146572560Y-132310000D01*
X146572560Y-133910000D01*
X146621843Y-134157765D01*
X146762191Y-134367809D01*
X146972235Y-134508157D01*
X147220000Y-134557440D01*
X148820000Y-134557440D01*
X149067765Y-134508157D01*
X149277809Y-134367809D01*
X149418157Y-134157765D01*
X149467440Y-133910000D01*
X149467440Y-132310000D01*
X149418157Y-132062235D01*
X149277809Y-131852191D01*
X149067765Y-131711843D01*
X148934134Y-131685262D01*
X149236534Y-131382862D01*
X149455000Y-130855439D01*
X149455000Y-130284561D01*
X149236534Y-129757138D01*
X148832862Y-129353466D01*
X148703784Y-129300000D01*
X148832862Y-129246534D01*
X149236534Y-128842862D01*
X149455000Y-128315439D01*
X149455000Y-127744561D01*
X149236534Y-127217138D01*
X148832862Y-126813466D01*
X148703784Y-126760000D01*
X148832862Y-126706534D01*
X149039396Y-126500000D01*
X172795000Y-126500000D01*
X172915156Y-127258637D01*
X173263863Y-127943013D01*
X173806987Y-128486137D01*
X174491363Y-128834844D01*
X175250000Y-128955000D01*
X176008637Y-128834844D01*
X176693013Y-128486137D01*
X177236137Y-127943013D01*
X177584844Y-127258637D01*
X177705000Y-126500000D01*
X177584844Y-125741363D01*
X177236137Y-125056987D01*
X176693013Y-124513863D01*
X176008637Y-124165156D01*
X175250000Y-124045000D01*
X174491363Y-124165156D01*
X173806987Y-124513863D01*
X173263863Y-125056987D01*
X172915156Y-125741363D01*
X172795000Y-126500000D01*
X149039396Y-126500000D01*
X149236534Y-126302862D01*
X149455000Y-125775439D01*
X149455000Y-125204561D01*
X149395121Y-125060000D01*
X153425153Y-125060000D01*
X153500000Y-125074888D01*
X153574847Y-125060000D01*
X153574852Y-125060000D01*
X153796537Y-125015904D01*
X154047929Y-124847929D01*
X154090331Y-124784470D01*
X164374801Y-114500000D01*
X169949621Y-114500000D01*
X169965001Y-114577321D01*
X169965000Y-117422684D01*
X169949621Y-117500000D01*
X170010546Y-117806292D01*
X170184047Y-118065953D01*
X170443708Y-118239454D01*
X170614684Y-118273463D01*
X170750000Y-118300379D01*
X170827316Y-118285000D01*
X183672684Y-118285000D01*
X183750000Y-118300379D01*
X183885317Y-118273463D01*
X184056292Y-118239454D01*
X184315953Y-118065953D01*
X184489454Y-117806292D01*
X184550379Y-117500000D01*
X184535000Y-117422684D01*
X184535000Y-114577316D01*
X184550379Y-114500000D01*
X184489454Y-114193708D01*
X184315953Y-113934047D01*
X184056292Y-113760546D01*
X183827316Y-113715000D01*
X183750000Y-113699621D01*
X183672684Y-113715000D01*
X170827316Y-113715000D01*
X170750000Y-113699621D01*
X170672684Y-113715000D01*
X170443708Y-113760546D01*
X170184047Y-113934047D01*
X170010546Y-114193708D01*
X169949621Y-114500000D01*
X164374801Y-114500000D01*
X167484473Y-111390329D01*
X167547929Y-111347929D01*
X167715904Y-111096537D01*
X167760000Y-110874852D01*
X167760000Y-110874848D01*
X167774888Y-110800001D01*
X167760000Y-110725154D01*
X167760000Y-99650000D01*
X168002560Y-99650000D01*
X168002560Y-101350000D01*
X168051843Y-101597765D01*
X168192191Y-101807809D01*
X168402235Y-101948157D01*
X168650000Y-101997440D01*
X170350000Y-101997440D01*
X170597765Y-101948157D01*
X170807809Y-101807809D01*
X170948157Y-101597765D01*
X170957184Y-101552381D01*
X170969375Y-101570625D01*
X171460582Y-101898839D01*
X171893744Y-101985000D01*
X172186256Y-101985000D01*
X172619418Y-101898839D01*
X173110625Y-101570625D01*
X173323843Y-101251522D01*
X173384817Y-101381358D01*
X173813076Y-101771645D01*
X174223110Y-101941476D01*
X174453000Y-101820155D01*
X174453000Y-100627000D01*
X174433000Y-100627000D01*
X174433000Y-100373000D01*
X174453000Y-100373000D01*
X174453000Y-99179845D01*
X174707000Y-99179845D01*
X174707000Y-100373000D01*
X174727000Y-100373000D01*
X174727000Y-100627000D01*
X174707000Y-100627000D01*
X174707000Y-101820155D01*
X174936890Y-101941476D01*
X175346924Y-101771645D01*
X175775183Y-101381358D01*
X175836157Y-101251522D01*
X176049375Y-101570625D01*
X176413621Y-101814006D01*
X176413620Y-103422669D01*
X176322569Y-103513720D01*
X176165000Y-103894126D01*
X176165000Y-104305874D01*
X176322569Y-104686280D01*
X176500067Y-104863778D01*
X176491363Y-104865156D01*
X175806987Y-105213863D01*
X175263863Y-105756987D01*
X174915156Y-106441363D01*
X174795000Y-107200000D01*
X174915156Y-107958637D01*
X175263863Y-108643013D01*
X175806987Y-109186137D01*
X176491363Y-109534844D01*
X177250000Y-109655000D01*
X178008637Y-109534844D01*
X178693013Y-109186137D01*
X179236137Y-108643013D01*
X179584844Y-107958637D01*
X179705000Y-107200000D01*
X179584844Y-106441363D01*
X179236137Y-105756987D01*
X178693013Y-105213863D01*
X178008637Y-104865156D01*
X177913606Y-104850105D01*
X178077431Y-104686280D01*
X178235000Y-104305874D01*
X178235000Y-103894126D01*
X178077431Y-103513720D01*
X177933620Y-103369909D01*
X177933620Y-101742350D01*
X178190625Y-101570625D01*
X178390000Y-101272239D01*
X178589375Y-101570625D01*
X179080582Y-101898839D01*
X179513744Y-101985000D01*
X179806256Y-101985000D01*
X180239418Y-101898839D01*
X180730625Y-101570625D01*
X180930000Y-101272239D01*
X181129375Y-101570625D01*
X181620582Y-101898839D01*
X182053744Y-101985000D01*
X182346256Y-101985000D01*
X182779418Y-101898839D01*
X183270625Y-101570625D01*
X183598839Y-101079418D01*
X183714092Y-100500000D01*
X183598839Y-99920582D01*
X183270625Y-99429375D01*
X182779418Y-99101161D01*
X182346256Y-99015000D01*
X182053744Y-99015000D01*
X181620582Y-99101161D01*
X181129375Y-99429375D01*
X180930000Y-99727761D01*
X180730625Y-99429375D01*
X180239418Y-99101161D01*
X179806256Y-99015000D01*
X179513744Y-99015000D01*
X179080582Y-99101161D01*
X178589375Y-99429375D01*
X178390000Y-99727761D01*
X178190625Y-99429375D01*
X177699418Y-99101161D01*
X177266256Y-99015000D01*
X176973744Y-99015000D01*
X176540582Y-99101161D01*
X176049375Y-99429375D01*
X175836157Y-99748478D01*
X175775183Y-99618642D01*
X175346924Y-99228355D01*
X174936890Y-99058524D01*
X174707000Y-99179845D01*
X174453000Y-99179845D01*
X174223110Y-99058524D01*
X173813076Y-99228355D01*
X173384817Y-99618642D01*
X173323843Y-99748478D01*
X173110625Y-99429375D01*
X172619418Y-99101161D01*
X172186256Y-99015000D01*
X171893744Y-99015000D01*
X171460582Y-99101161D01*
X170969375Y-99429375D01*
X170957184Y-99447619D01*
X170948157Y-99402235D01*
X170807809Y-99192191D01*
X170597765Y-99051843D01*
X170350000Y-99002560D01*
X168650000Y-99002560D01*
X168402235Y-99051843D01*
X168192191Y-99192191D01*
X168051843Y-99402235D01*
X168002560Y-99650000D01*
X167760000Y-99650000D01*
X167760000Y-91700000D01*
X174795000Y-91700000D01*
X174915156Y-92458637D01*
X175263863Y-93143013D01*
X175806987Y-93686137D01*
X176491363Y-94034844D01*
X177250000Y-94155000D01*
X178008637Y-94034844D01*
X178693013Y-93686137D01*
X179236137Y-93143013D01*
X179584844Y-92458637D01*
X179705000Y-91700000D01*
X179584844Y-90941363D01*
X179236137Y-90256987D01*
X178693013Y-89713863D01*
X178008637Y-89365156D01*
X177250000Y-89245000D01*
X176491363Y-89365156D01*
X175806987Y-89713863D01*
X175263863Y-90256987D01*
X174915156Y-90941363D01*
X174795000Y-91700000D01*
X167760000Y-91700000D01*
X167760000Y-85274848D01*
X167774888Y-85200000D01*
X167760000Y-85125152D01*
X167760000Y-85125148D01*
X167715904Y-84903463D01*
X167715904Y-84903462D01*
X167590329Y-84715527D01*
X167547929Y-84652071D01*
X167484473Y-84609671D01*
X165690331Y-82815530D01*
X165647929Y-82752071D01*
X165396537Y-82584096D01*
X165174852Y-82540000D01*
X165174847Y-82540000D01*
X165100000Y-82525112D01*
X165025153Y-82540000D01*
X161394848Y-82540000D01*
X161320000Y-82525112D01*
X161245152Y-82540000D01*
X161245148Y-82540000D01*
X161071605Y-82574520D01*
X161023462Y-82584096D01*
X160909335Y-82660354D01*
X160772071Y-82752071D01*
X160729671Y-82815527D01*
X159486408Y-84058791D01*
X159266256Y-84015000D01*
X158973744Y-84015000D01*
X158540582Y-84101161D01*
X158049375Y-84429375D01*
X157836157Y-84748478D01*
X157775183Y-84618642D01*
X157346924Y-84228355D01*
X156936890Y-84058524D01*
X156707000Y-84179845D01*
X156707000Y-85373000D01*
X156727000Y-85373000D01*
X156727000Y-85627000D01*
X156707000Y-85627000D01*
X156707000Y-86820155D01*
X156936890Y-86941476D01*
X157346924Y-86771645D01*
X157775183Y-86381358D01*
X157836157Y-86251522D01*
X158049375Y-86570625D01*
X158540582Y-86898839D01*
X158973744Y-86985000D01*
X159266256Y-86985000D01*
X159699418Y-86898839D01*
X160190625Y-86570625D01*
X160390000Y-86272239D01*
X160589375Y-86570625D01*
X161080582Y-86898839D01*
X161513744Y-86985000D01*
X161806256Y-86985000D01*
X162026408Y-86941209D01*
X164409673Y-89324476D01*
X164452071Y-89387929D01*
X164515524Y-89430327D01*
X164515526Y-89430329D01*
X164515532Y-89430333D01*
X165015527Y-89930329D01*
X165136077Y-90010878D01*
X165540000Y-90414802D01*
X165540001Y-110185197D01*
X154785199Y-120940000D01*
X149353699Y-120940000D01*
X149455000Y-120695439D01*
X149455000Y-120124561D01*
X149236534Y-119597138D01*
X148832862Y-119193466D01*
X148703784Y-119140000D01*
X148832862Y-119086534D01*
X149236534Y-118682862D01*
X149455000Y-118155439D01*
X149455000Y-117584561D01*
X149236534Y-117057138D01*
X148832862Y-116653466D01*
X148703784Y-116600000D01*
X148832862Y-116546534D01*
X149236534Y-116142862D01*
X149455000Y-115615439D01*
X149455000Y-115044561D01*
X149236534Y-114517138D01*
X148832862Y-114113466D01*
X148703784Y-114060000D01*
X148832862Y-114006534D01*
X149236534Y-113602862D01*
X149455000Y-113075439D01*
X149455000Y-112504561D01*
X149236534Y-111977138D01*
X148832862Y-111573466D01*
X148703784Y-111520000D01*
X148832862Y-111466534D01*
X149236534Y-111062862D01*
X149455000Y-110535439D01*
X149455000Y-109964561D01*
X149236534Y-109437138D01*
X148832862Y-109033466D01*
X148703784Y-108980000D01*
X148832862Y-108926534D01*
X149236534Y-108522862D01*
X149455000Y-107995439D01*
X149455000Y-107424561D01*
X149236534Y-106897138D01*
X148832862Y-106493466D01*
X148703784Y-106440000D01*
X148832862Y-106386534D01*
X149236534Y-105982862D01*
X149455000Y-105455439D01*
X149455000Y-104884561D01*
X149236534Y-104357138D01*
X148832862Y-103953466D01*
X148703784Y-103900000D01*
X148832862Y-103846534D01*
X149236534Y-103442862D01*
X149455000Y-102915439D01*
X149455000Y-102344561D01*
X149236534Y-101817138D01*
X148832862Y-101413466D01*
X148703784Y-101360000D01*
X148832862Y-101306534D01*
X149236534Y-100902862D01*
X149455000Y-100375439D01*
X149455000Y-99804561D01*
X149328847Y-99500000D01*
X150699621Y-99500000D01*
X150715001Y-99577321D01*
X150715000Y-102422684D01*
X150699621Y-102500000D01*
X150760546Y-102806292D01*
X150933410Y-103065000D01*
X150934047Y-103065953D01*
X151193708Y-103239454D01*
X151500000Y-103300379D01*
X151577316Y-103285000D01*
X164422684Y-103285000D01*
X164500000Y-103300379D01*
X164806292Y-103239454D01*
X165065953Y-103065953D01*
X165239454Y-102806292D01*
X165285000Y-102577316D01*
X165285000Y-102577315D01*
X165300379Y-102500000D01*
X165285000Y-102422684D01*
X165285000Y-99577316D01*
X165300379Y-99500000D01*
X165239454Y-99193708D01*
X165065953Y-98934047D01*
X164806292Y-98760546D01*
X164577316Y-98715000D01*
X164500000Y-98699621D01*
X164422684Y-98715000D01*
X151577316Y-98715000D01*
X151500000Y-98699621D01*
X151422684Y-98715000D01*
X151193708Y-98760546D01*
X150934047Y-98934047D01*
X150760546Y-99193708D01*
X150699621Y-99500000D01*
X149328847Y-99500000D01*
X149236534Y-99277138D01*
X148832862Y-98873466D01*
X148305439Y-98655000D01*
X147734561Y-98655000D01*
X147207138Y-98873466D01*
X147060000Y-99020604D01*
X147060000Y-92200000D01*
X155295000Y-92200000D01*
X155415156Y-92958637D01*
X155763863Y-93643013D01*
X156306987Y-94186137D01*
X156991363Y-94534844D01*
X157750000Y-94655000D01*
X158508637Y-94534844D01*
X159193013Y-94186137D01*
X159736137Y-93643013D01*
X160084844Y-92958637D01*
X160205000Y-92200000D01*
X160084844Y-91441363D01*
X159736137Y-90756987D01*
X159193013Y-90213863D01*
X158508637Y-89865156D01*
X157750000Y-89745000D01*
X156991363Y-89865156D01*
X156306987Y-90213863D01*
X155763863Y-90756987D01*
X155415156Y-91441363D01*
X155295000Y-92200000D01*
X147060000Y-92200000D01*
X147060000Y-84650000D01*
X150002560Y-84650000D01*
X150002560Y-86350000D01*
X150051843Y-86597765D01*
X150192191Y-86807809D01*
X150402235Y-86948157D01*
X150650000Y-86997440D01*
X152350000Y-86997440D01*
X152597765Y-86948157D01*
X152807809Y-86807809D01*
X152948157Y-86597765D01*
X152957184Y-86552381D01*
X152969375Y-86570625D01*
X153460582Y-86898839D01*
X153893744Y-86985000D01*
X154186256Y-86985000D01*
X154619418Y-86898839D01*
X155110625Y-86570625D01*
X155323843Y-86251522D01*
X155384817Y-86381358D01*
X155813076Y-86771645D01*
X156223110Y-86941476D01*
X156453000Y-86820155D01*
X156453000Y-85627000D01*
X156433000Y-85627000D01*
X156433000Y-85373000D01*
X156453000Y-85373000D01*
X156453000Y-84179845D01*
X156223110Y-84058524D01*
X155813076Y-84228355D01*
X155384817Y-84618642D01*
X155323843Y-84748478D01*
X155110625Y-84429375D01*
X154619418Y-84101161D01*
X154186256Y-84015000D01*
X153893744Y-84015000D01*
X153460582Y-84101161D01*
X152969375Y-84429375D01*
X152957184Y-84447619D01*
X152948157Y-84402235D01*
X152807809Y-84192191D01*
X152597765Y-84051843D01*
X152350000Y-84002560D01*
X150650000Y-84002560D01*
X150402235Y-84051843D01*
X150192191Y-84192191D01*
X150051843Y-84402235D01*
X150002560Y-84650000D01*
X147060000Y-84650000D01*
X147060000Y-81514801D01*
X148784473Y-79790329D01*
X148847929Y-79747929D01*
X149015904Y-79496537D01*
X149060000Y-79274852D01*
X149060000Y-79274848D01*
X149074888Y-79200001D01*
X149060000Y-79125154D01*
X149060000Y-73974846D01*
X149074888Y-73899999D01*
X149060000Y-73825152D01*
X149060000Y-73825148D01*
X149015904Y-73603463D01*
X148974102Y-73540902D01*
X148890329Y-73415526D01*
X148890327Y-73415524D01*
X148847929Y-73352071D01*
X148784476Y-73309673D01*
X145990331Y-70515530D01*
X145947929Y-70452071D01*
X145696537Y-70284096D01*
X145474852Y-70240000D01*
X145474847Y-70240000D01*
X145400000Y-70225112D01*
X145325153Y-70240000D01*
X131114802Y-70240000D01*
X127574802Y-66700000D01*
X135795000Y-66700000D01*
X135915156Y-67458637D01*
X136263863Y-68143013D01*
X136806987Y-68686137D01*
X137491363Y-69034844D01*
X138250000Y-69155000D01*
X139008637Y-69034844D01*
X139693013Y-68686137D01*
X140236137Y-68143013D01*
X140584844Y-67458637D01*
X140705000Y-66700000D01*
X140584844Y-65941363D01*
X140236137Y-65256987D01*
X139693013Y-64713863D01*
X139008637Y-64365156D01*
X138250000Y-64245000D01*
X137491363Y-64365156D01*
X136806987Y-64713863D01*
X136263863Y-65256987D01*
X135915156Y-65941363D01*
X135795000Y-66700000D01*
X127574802Y-66700000D01*
X124760000Y-63885199D01*
X124760000Y-62724847D01*
X124774888Y-62650000D01*
X124760000Y-62575153D01*
X124760000Y-62575148D01*
X124715904Y-62353463D01*
X124547929Y-62102071D01*
X124484473Y-62059671D01*
X123703970Y-61279168D01*
X123720000Y-61240467D01*
X123720000Y-60679533D01*
X123505341Y-60161299D01*
X123108701Y-59764659D01*
X122928458Y-59690000D01*
X123108701Y-59615341D01*
X123505341Y-59218701D01*
X123720000Y-58700467D01*
X123720000Y-58139533D01*
X123505341Y-57621299D01*
X123108701Y-57224659D01*
X122590467Y-57010000D01*
X122029533Y-57010000D01*
X121511299Y-57224659D01*
X121114659Y-57621299D01*
X120900000Y-58139533D01*
X120900000Y-58700467D01*
X121114659Y-59218701D01*
X121511299Y-59615341D01*
X121691542Y-59690000D01*
X121511299Y-59764659D01*
X121114659Y-60161299D01*
X120900000Y-60679533D01*
X120900000Y-61240467D01*
X121114659Y-61758701D01*
X121511299Y-62155341D01*
X121691542Y-62230000D01*
X121511299Y-62304659D01*
X121114659Y-62701299D01*
X120900000Y-63219533D01*
X120900000Y-63780467D01*
X121114659Y-64298701D01*
X121511299Y-64695341D01*
X121675754Y-64763461D01*
X121571035Y-64806837D01*
X121499972Y-65050367D01*
X122310000Y-65860395D01*
X122324143Y-65846253D01*
X122503748Y-66025858D01*
X122489605Y-66040000D01*
X123299633Y-66850028D01*
X123543163Y-66778965D01*
X123732084Y-66250803D01*
X123718938Y-65983739D01*
X129919670Y-72184472D01*
X129962071Y-72247929D01*
X130213463Y-72415904D01*
X130435148Y-72460000D01*
X130435152Y-72460000D01*
X130509999Y-72474888D01*
X130584846Y-72460000D01*
X144785199Y-72460000D01*
X146740001Y-74414803D01*
X146740000Y-78585198D01*
X145015528Y-80309671D01*
X144952072Y-80352071D01*
X144909672Y-80415527D01*
X144909671Y-80415528D01*
X144784097Y-80603463D01*
X144725112Y-80900000D01*
X144740001Y-80974852D01*
X144740001Y-88747360D01*
X144577316Y-88715000D01*
X144500000Y-88699621D01*
X144422684Y-88715000D01*
X131577316Y-88715000D01*
X131500000Y-88699621D01*
X131422684Y-88715000D01*
X131193708Y-88760546D01*
X130934047Y-88934047D01*
X130773000Y-89175069D01*
X130773000Y-82200000D01*
X135795000Y-82200000D01*
X135915156Y-82958637D01*
X136263863Y-83643013D01*
X136806987Y-84186137D01*
X137491363Y-84534844D01*
X138250000Y-84655000D01*
X139008637Y-84534844D01*
X139693013Y-84186137D01*
X140236137Y-83643013D01*
X140584844Y-82958637D01*
X140705000Y-82200000D01*
X140584844Y-81441363D01*
X140236137Y-80756987D01*
X139693013Y-80213863D01*
X139008637Y-79865156D01*
X138250000Y-79745000D01*
X137491363Y-79865156D01*
X136806987Y-80213863D01*
X136263863Y-80756987D01*
X135915156Y-81441363D01*
X135795000Y-82200000D01*
X130773000Y-82200000D01*
X130773000Y-80495831D01*
X130792062Y-80400000D01*
X130716546Y-80020354D01*
X130555778Y-79779748D01*
X130501494Y-79698506D01*
X130420251Y-79644221D01*
X125426030Y-74650000D01*
X131002560Y-74650000D01*
X131002560Y-76350000D01*
X131051843Y-76597765D01*
X131192191Y-76807809D01*
X131402235Y-76948157D01*
X131650000Y-76997440D01*
X133350000Y-76997440D01*
X133597765Y-76948157D01*
X133807809Y-76807809D01*
X133948157Y-76597765D01*
X133957184Y-76552381D01*
X133969375Y-76570625D01*
X134460582Y-76898839D01*
X134893744Y-76985000D01*
X135186256Y-76985000D01*
X135619418Y-76898839D01*
X136110625Y-76570625D01*
X136323843Y-76251522D01*
X136384817Y-76381358D01*
X136813076Y-76771645D01*
X137223110Y-76941476D01*
X137453000Y-76820155D01*
X137453000Y-75627000D01*
X137433000Y-75627000D01*
X137433000Y-75373000D01*
X137453000Y-75373000D01*
X137453000Y-74179845D01*
X137707000Y-74179845D01*
X137707000Y-75373000D01*
X137727000Y-75373000D01*
X137727000Y-75627000D01*
X137707000Y-75627000D01*
X137707000Y-76820155D01*
X137936890Y-76941476D01*
X138346924Y-76771645D01*
X138775183Y-76381358D01*
X138836157Y-76251522D01*
X139049375Y-76570625D01*
X139540582Y-76898839D01*
X139973744Y-76985000D01*
X140266256Y-76985000D01*
X140699418Y-76898839D01*
X141190625Y-76570625D01*
X141390000Y-76272239D01*
X141589375Y-76570625D01*
X142080582Y-76898839D01*
X142513744Y-76985000D01*
X142806256Y-76985000D01*
X143239418Y-76898839D01*
X143730625Y-76570625D01*
X143930000Y-76272239D01*
X144129375Y-76570625D01*
X144620582Y-76898839D01*
X145053744Y-76985000D01*
X145346256Y-76985000D01*
X145779418Y-76898839D01*
X146270625Y-76570625D01*
X146598839Y-76079418D01*
X146714092Y-75500000D01*
X146598839Y-74920582D01*
X146270625Y-74429375D01*
X145779418Y-74101161D01*
X145346256Y-74015000D01*
X145053744Y-74015000D01*
X144620582Y-74101161D01*
X144129375Y-74429375D01*
X143930000Y-74727761D01*
X143730625Y-74429375D01*
X143239418Y-74101161D01*
X142806256Y-74015000D01*
X142513744Y-74015000D01*
X142080582Y-74101161D01*
X141589375Y-74429375D01*
X141390000Y-74727761D01*
X141190625Y-74429375D01*
X140699418Y-74101161D01*
X140266256Y-74015000D01*
X139973744Y-74015000D01*
X139540582Y-74101161D01*
X139049375Y-74429375D01*
X138836157Y-74748478D01*
X138775183Y-74618642D01*
X138346924Y-74228355D01*
X137936890Y-74058524D01*
X137707000Y-74179845D01*
X137453000Y-74179845D01*
X137223110Y-74058524D01*
X136813076Y-74228355D01*
X136384817Y-74618642D01*
X136323843Y-74748478D01*
X136110625Y-74429375D01*
X135619418Y-74101161D01*
X135186256Y-74015000D01*
X134893744Y-74015000D01*
X134460582Y-74101161D01*
X133969375Y-74429375D01*
X133957184Y-74447619D01*
X133948157Y-74402235D01*
X133807809Y-74192191D01*
X133597765Y-74051843D01*
X133350000Y-74002560D01*
X131650000Y-74002560D01*
X131402235Y-74051843D01*
X131192191Y-74192191D01*
X131051843Y-74402235D01*
X131002560Y-74650000D01*
X125426030Y-74650000D01*
X119273000Y-68496971D01*
X119273000Y-67805000D01*
X120887560Y-67805000D01*
X120887560Y-69355000D01*
X120936843Y-69602765D01*
X121077191Y-69812809D01*
X121287235Y-69953157D01*
X121535000Y-70002440D01*
X123085000Y-70002440D01*
X123332765Y-69953157D01*
X123542809Y-69812809D01*
X123683157Y-69602765D01*
X123732440Y-69355000D01*
X123732440Y-67805000D01*
X123683157Y-67557235D01*
X123542809Y-67347191D01*
X123332765Y-67206843D01*
X123085000Y-67157560D01*
X123082698Y-67157560D01*
X123120028Y-67029633D01*
X122310000Y-66219605D01*
X121499972Y-67029633D01*
X121537302Y-67157560D01*
X121535000Y-67157560D01*
X121287235Y-67206843D01*
X121077191Y-67347191D01*
X120936843Y-67557235D01*
X120887560Y-67805000D01*
X119273000Y-67805000D01*
X119273000Y-66195831D01*
X119292062Y-66100000D01*
X119273000Y-66004168D01*
X119273000Y-65829197D01*
X120887916Y-65829197D01*
X120915494Y-66389451D01*
X121076837Y-66778965D01*
X121320367Y-66850028D01*
X122130395Y-66040000D01*
X121320367Y-65229972D01*
X121076837Y-65301035D01*
X120887916Y-65829197D01*
X119273000Y-65829197D01*
X119273000Y-57803029D01*
X120403030Y-56673000D01*
X131946971Y-56673000D01*
X133280000Y-58006030D01*
X133280000Y-58320467D01*
X133494659Y-58838701D01*
X133830355Y-59174397D01*
X133667235Y-59206843D01*
X133457191Y-59347191D01*
X133316843Y-59557235D01*
X133267560Y-59805000D01*
X133267560Y-61355000D01*
X133316843Y-61602765D01*
X133457191Y-61812809D01*
X133667235Y-61953157D01*
X133915000Y-62002440D01*
X135465000Y-62002440D01*
X135712765Y-61953157D01*
X135922809Y-61812809D01*
X136063157Y-61602765D01*
X136112440Y-61355000D01*
X136112440Y-59805000D01*
X136063157Y-59557235D01*
X135922809Y-59347191D01*
X135712765Y-59206843D01*
X135549645Y-59174397D01*
X135711042Y-59013000D01*
X136536971Y-59013000D01*
X146184221Y-68660251D01*
X146238506Y-68741494D01*
X146560354Y-68956546D01*
X146757859Y-68995832D01*
X146940000Y-69032062D01*
X147035831Y-69013000D01*
X152668958Y-69013000D01*
X152830355Y-69174397D01*
X152667235Y-69206843D01*
X152457191Y-69347191D01*
X152316843Y-69557235D01*
X152267560Y-69805000D01*
X152267560Y-71355000D01*
X152316843Y-71602765D01*
X152457191Y-71812809D01*
X152667235Y-71953157D01*
X152915000Y-72002440D01*
X154465000Y-72002440D01*
X154712765Y-71953157D01*
X154922809Y-71812809D01*
X155063157Y-71602765D01*
X155112440Y-71355000D01*
X155112440Y-70838469D01*
X158774684Y-74500714D01*
X158508637Y-74365156D01*
X157750000Y-74245000D01*
X156991363Y-74365156D01*
X156306987Y-74713863D01*
X155763863Y-75256987D01*
X155415156Y-75941363D01*
X155295000Y-76700000D01*
X155415156Y-77458637D01*
X155763863Y-78143013D01*
X156306987Y-78686137D01*
X156991363Y-79034844D01*
X157750000Y-79155000D01*
X158508637Y-79034844D01*
X159193013Y-78686137D01*
X159736137Y-78143013D01*
X160084844Y-77458637D01*
X160205000Y-76700000D01*
X160084844Y-75941363D01*
X159949286Y-75675316D01*
X161294221Y-77020251D01*
X161348506Y-77101494D01*
X161670354Y-77316546D01*
X161954168Y-77373000D01*
X161954169Y-77373000D01*
X162049999Y-77392062D01*
X162145829Y-77373000D01*
X166146971Y-77373000D01*
X171780000Y-83006030D01*
X171780000Y-83320467D01*
X171994659Y-83838701D01*
X172330355Y-84174397D01*
X172167235Y-84206843D01*
X171957191Y-84347191D01*
X171816843Y-84557235D01*
X171767560Y-84805000D01*
X171767560Y-86355000D01*
X171816843Y-86602765D01*
X171957191Y-86812809D01*
X172167235Y-86953157D01*
X172415000Y-87002440D01*
X173965000Y-87002440D01*
X174212765Y-86953157D01*
X174422809Y-86812809D01*
X174563157Y-86602765D01*
X174612440Y-86355000D01*
X174612440Y-84805000D01*
X179387560Y-84805000D01*
X179387560Y-86355000D01*
X179436843Y-86602765D01*
X179577191Y-86812809D01*
X179787235Y-86953157D01*
X180035000Y-87002440D01*
X181585000Y-87002440D01*
X181832765Y-86953157D01*
X182042809Y-86812809D01*
X182183157Y-86602765D01*
X182232440Y-86355000D01*
X182232440Y-84805000D01*
X182183157Y-84557235D01*
X182042809Y-84347191D01*
X181832765Y-84206843D01*
X181585000Y-84157560D01*
X181582698Y-84157560D01*
X181620028Y-84029633D01*
X180810000Y-83219605D01*
X179999972Y-84029633D01*
X180037302Y-84157560D01*
X180035000Y-84157560D01*
X179787235Y-84206843D01*
X179577191Y-84347191D01*
X179436843Y-84557235D01*
X179387560Y-84805000D01*
X174612440Y-84805000D01*
X174563157Y-84557235D01*
X174422809Y-84347191D01*
X174212765Y-84206843D01*
X174049645Y-84174397D01*
X174385341Y-83838701D01*
X174600000Y-83320467D01*
X174600000Y-82829197D01*
X179387916Y-82829197D01*
X179415494Y-83389451D01*
X179576837Y-83778965D01*
X179820367Y-83850028D01*
X180630395Y-83040000D01*
X180989605Y-83040000D01*
X181799633Y-83850028D01*
X182043163Y-83778965D01*
X182232084Y-83250803D01*
X182204506Y-82690549D01*
X182043163Y-82301035D01*
X181799633Y-82229972D01*
X180989605Y-83040000D01*
X180630395Y-83040000D01*
X179820367Y-82229972D01*
X179576837Y-82301035D01*
X179387916Y-82829197D01*
X174600000Y-82829197D01*
X174600000Y-82759533D01*
X174385341Y-82241299D01*
X173988701Y-81844659D01*
X173808458Y-81770000D01*
X173988701Y-81695341D01*
X174385341Y-81298701D01*
X174600000Y-80780467D01*
X174600000Y-80219533D01*
X174385341Y-79701299D01*
X173988701Y-79304659D01*
X173808458Y-79230000D01*
X173988701Y-79155341D01*
X174385341Y-78758701D01*
X174600000Y-78240467D01*
X174600000Y-77679533D01*
X174385341Y-77161299D01*
X173988701Y-76764659D01*
X173808458Y-76690000D01*
X173988701Y-76615341D01*
X174385341Y-76218701D01*
X174600000Y-75700467D01*
X174600000Y-75139533D01*
X179400000Y-75139533D01*
X179400000Y-75700467D01*
X179614659Y-76218701D01*
X180011299Y-76615341D01*
X180191542Y-76690000D01*
X180011299Y-76764659D01*
X179614659Y-77161299D01*
X179400000Y-77679533D01*
X179400000Y-78240467D01*
X179614659Y-78758701D01*
X180011299Y-79155341D01*
X180191542Y-79230000D01*
X180011299Y-79304659D01*
X179614659Y-79701299D01*
X179400000Y-80219533D01*
X179400000Y-80780467D01*
X179614659Y-81298701D01*
X180011299Y-81695341D01*
X180175754Y-81763461D01*
X180071035Y-81806837D01*
X179999972Y-82050367D01*
X180810000Y-82860395D01*
X181620028Y-82050367D01*
X181548965Y-81806837D01*
X181436578Y-81766637D01*
X181608701Y-81695341D01*
X182005341Y-81298701D01*
X182220000Y-80780467D01*
X182220000Y-80219533D01*
X182005341Y-79701299D01*
X181608701Y-79304659D01*
X181428458Y-79230000D01*
X181608701Y-79155341D01*
X182005341Y-78758701D01*
X182220000Y-78240467D01*
X182220000Y-77679533D01*
X182005341Y-77161299D01*
X181608701Y-76764659D01*
X181428458Y-76690000D01*
X181608701Y-76615341D01*
X182005341Y-76218701D01*
X182220000Y-75700467D01*
X182220000Y-75139533D01*
X182005341Y-74621299D01*
X181608701Y-74224659D01*
X181090467Y-74010000D01*
X180529533Y-74010000D01*
X180011299Y-74224659D01*
X179614659Y-74621299D01*
X179400000Y-75139533D01*
X174600000Y-75139533D01*
X174385341Y-74621299D01*
X173988701Y-74224659D01*
X173470467Y-74010000D01*
X172909533Y-74010000D01*
X172391299Y-74224659D01*
X171994659Y-74621299D01*
X171780000Y-75139533D01*
X171780000Y-75700467D01*
X171994659Y-76218701D01*
X172391299Y-76615341D01*
X172571542Y-76690000D01*
X172391299Y-76764659D01*
X171994659Y-77161299D01*
X171780000Y-77679533D01*
X171780000Y-78240467D01*
X171994659Y-78758701D01*
X172391299Y-79155341D01*
X172571542Y-79230000D01*
X172391299Y-79304659D01*
X171994659Y-79701299D01*
X171780000Y-80219533D01*
X171780000Y-80253970D01*
X167305781Y-75779751D01*
X167251494Y-75698506D01*
X166929646Y-75483454D01*
X166645832Y-75427000D01*
X166645831Y-75427000D01*
X166550000Y-75407938D01*
X166454169Y-75427000D01*
X162453030Y-75427000D01*
X156831030Y-69805000D01*
X159887560Y-69805000D01*
X159887560Y-71355000D01*
X159936843Y-71602765D01*
X160077191Y-71812809D01*
X160287235Y-71953157D01*
X160535000Y-72002440D01*
X162085000Y-72002440D01*
X162332765Y-71953157D01*
X162542809Y-71812809D01*
X162683157Y-71602765D01*
X162732440Y-71355000D01*
X162732440Y-69805000D01*
X162683157Y-69557235D01*
X162542809Y-69347191D01*
X162332765Y-69206843D01*
X162085000Y-69157560D01*
X162082698Y-69157560D01*
X162120028Y-69029633D01*
X161310000Y-68219605D01*
X160499972Y-69029633D01*
X160537302Y-69157560D01*
X160535000Y-69157560D01*
X160287235Y-69206843D01*
X160077191Y-69347191D01*
X159936843Y-69557235D01*
X159887560Y-69805000D01*
X156831030Y-69805000D01*
X155100000Y-68073971D01*
X155100000Y-67829197D01*
X159887916Y-67829197D01*
X159915494Y-68389451D01*
X160076837Y-68778965D01*
X160320367Y-68850028D01*
X161130395Y-68040000D01*
X161489605Y-68040000D01*
X162299633Y-68850028D01*
X162543163Y-68778965D01*
X162732084Y-68250803D01*
X162704506Y-67690549D01*
X162543163Y-67301035D01*
X162299633Y-67229972D01*
X161489605Y-68040000D01*
X161130395Y-68040000D01*
X160320367Y-67229972D01*
X160076837Y-67301035D01*
X159887916Y-67829197D01*
X155100000Y-67829197D01*
X155100000Y-67759533D01*
X154885341Y-67241299D01*
X154488701Y-66844659D01*
X154308458Y-66770000D01*
X154488701Y-66695341D01*
X154885341Y-66298701D01*
X155100000Y-65780467D01*
X155100000Y-65219533D01*
X154885341Y-64701299D01*
X154488701Y-64304659D01*
X154308458Y-64230000D01*
X154488701Y-64155341D01*
X154885341Y-63758701D01*
X155100000Y-63240467D01*
X155100000Y-62679533D01*
X154885341Y-62161299D01*
X154488701Y-61764659D01*
X154308458Y-61690000D01*
X154488701Y-61615341D01*
X154885341Y-61218701D01*
X155100000Y-60700467D01*
X155100000Y-60139533D01*
X159900000Y-60139533D01*
X159900000Y-60700467D01*
X160114659Y-61218701D01*
X160511299Y-61615341D01*
X160691542Y-61690000D01*
X160511299Y-61764659D01*
X160114659Y-62161299D01*
X159900000Y-62679533D01*
X159900000Y-63240467D01*
X160114659Y-63758701D01*
X160511299Y-64155341D01*
X160691542Y-64230000D01*
X160511299Y-64304659D01*
X160114659Y-64701299D01*
X159900000Y-65219533D01*
X159900000Y-65780467D01*
X160114659Y-66298701D01*
X160511299Y-66695341D01*
X160675754Y-66763461D01*
X160571035Y-66806837D01*
X160499972Y-67050367D01*
X161310000Y-67860395D01*
X162120028Y-67050367D01*
X162048965Y-66806837D01*
X161936578Y-66766637D01*
X162108701Y-66695341D01*
X162505341Y-66298701D01*
X162720000Y-65780467D01*
X162720000Y-65219533D01*
X162505341Y-64701299D01*
X162108701Y-64304659D01*
X161928458Y-64230000D01*
X162108701Y-64155341D01*
X162505341Y-63758701D01*
X162720000Y-63240467D01*
X162720000Y-62679533D01*
X162505341Y-62161299D01*
X162108701Y-61764659D01*
X161928458Y-61690000D01*
X162108701Y-61615341D01*
X162505341Y-61218701D01*
X162720000Y-60700467D01*
X162720000Y-60139533D01*
X162505341Y-59621299D01*
X162108701Y-59224659D01*
X161590467Y-59010000D01*
X161029533Y-59010000D01*
X160511299Y-59224659D01*
X160114659Y-59621299D01*
X159900000Y-60139533D01*
X155100000Y-60139533D01*
X154885341Y-59621299D01*
X154488701Y-59224659D01*
X153970467Y-59010000D01*
X153409533Y-59010000D01*
X152891299Y-59224659D01*
X152494659Y-59621299D01*
X152280000Y-60139533D01*
X152280000Y-60700467D01*
X152494659Y-61218701D01*
X152891299Y-61615341D01*
X153071542Y-61690000D01*
X152891299Y-61764659D01*
X152494659Y-62161299D01*
X152280000Y-62679533D01*
X152280000Y-63240467D01*
X152494659Y-63758701D01*
X152891299Y-64155341D01*
X153071542Y-64230000D01*
X152891299Y-64304659D01*
X152494659Y-64701299D01*
X152280000Y-65219533D01*
X152280000Y-65780467D01*
X152494659Y-66298701D01*
X152891299Y-66695341D01*
X153071542Y-66770000D01*
X152891299Y-66844659D01*
X152668958Y-67067000D01*
X147343030Y-67067000D01*
X142278469Y-62002440D01*
X143085000Y-62002440D01*
X143332765Y-61953157D01*
X143542809Y-61812809D01*
X143683157Y-61602765D01*
X143732440Y-61355000D01*
X143732440Y-59805000D01*
X143683157Y-59557235D01*
X143542809Y-59347191D01*
X143332765Y-59206843D01*
X143085000Y-59157560D01*
X143082698Y-59157560D01*
X143120028Y-59029633D01*
X142310000Y-58219605D01*
X141499972Y-59029633D01*
X141537302Y-59157560D01*
X141535000Y-59157560D01*
X141287235Y-59206843D01*
X141077191Y-59347191D01*
X140936843Y-59557235D01*
X140887560Y-59805000D01*
X140887560Y-60611531D01*
X138105226Y-57829197D01*
X140887916Y-57829197D01*
X140915494Y-58389451D01*
X141076837Y-58778965D01*
X141320367Y-58850028D01*
X142130395Y-58040000D01*
X142489605Y-58040000D01*
X143299633Y-58850028D01*
X143543163Y-58778965D01*
X143732084Y-58250803D01*
X143704506Y-57690549D01*
X143543163Y-57301035D01*
X143299633Y-57229972D01*
X142489605Y-58040000D01*
X142130395Y-58040000D01*
X141320367Y-57229972D01*
X141076837Y-57301035D01*
X140887916Y-57829197D01*
X138105226Y-57829197D01*
X137695781Y-57419752D01*
X137641494Y-57338506D01*
X137319646Y-57123454D01*
X137035832Y-57067000D01*
X137035831Y-57067000D01*
X136940000Y-57047938D01*
X136844169Y-57067000D01*
X135711042Y-57067000D01*
X135488701Y-56844659D01*
X135308458Y-56770000D01*
X135488701Y-56695341D01*
X135885341Y-56298701D01*
X136100000Y-55780467D01*
X136100000Y-55219533D01*
X135885341Y-54701299D01*
X135488701Y-54304659D01*
X135308458Y-54230000D01*
X135488701Y-54155341D01*
X135885341Y-53758701D01*
X136100000Y-53240467D01*
X136100000Y-52679533D01*
X135885341Y-52161299D01*
X135488701Y-51764659D01*
X135308458Y-51690000D01*
X135488701Y-51615341D01*
X135885341Y-51218701D01*
X136100000Y-50700467D01*
X136100000Y-50139533D01*
X140900000Y-50139533D01*
X140900000Y-50700467D01*
X141114659Y-51218701D01*
X141511299Y-51615341D01*
X141691542Y-51690000D01*
X141511299Y-51764659D01*
X141114659Y-52161299D01*
X140900000Y-52679533D01*
X140900000Y-53240467D01*
X141114659Y-53758701D01*
X141511299Y-54155341D01*
X141691542Y-54230000D01*
X141511299Y-54304659D01*
X141114659Y-54701299D01*
X140900000Y-55219533D01*
X140900000Y-55780467D01*
X141114659Y-56298701D01*
X141511299Y-56695341D01*
X141675754Y-56763461D01*
X141571035Y-56806837D01*
X141499972Y-57050367D01*
X142310000Y-57860395D01*
X143120028Y-57050367D01*
X143048965Y-56806837D01*
X142936578Y-56766637D01*
X143108701Y-56695341D01*
X143505341Y-56298701D01*
X143720000Y-55780467D01*
X143720000Y-55219533D01*
X143505341Y-54701299D01*
X143108701Y-54304659D01*
X142928458Y-54230000D01*
X143108701Y-54155341D01*
X143505341Y-53758701D01*
X143720000Y-53240467D01*
X143720000Y-52679533D01*
X143505341Y-52161299D01*
X143108701Y-51764659D01*
X142928458Y-51690000D01*
X143108701Y-51615341D01*
X143505341Y-51218701D01*
X143720000Y-50700467D01*
X143720000Y-50139533D01*
X143505341Y-49621299D01*
X143108701Y-49224659D01*
X142590467Y-49010000D01*
X142029533Y-49010000D01*
X141511299Y-49224659D01*
X141114659Y-49621299D01*
X140900000Y-50139533D01*
X136100000Y-50139533D01*
X135885341Y-49621299D01*
X135488701Y-49224659D01*
X134970467Y-49010000D01*
X134409533Y-49010000D01*
X133891299Y-49224659D01*
X133494659Y-49621299D01*
X133280000Y-50139533D01*
X133280000Y-50700467D01*
X133494659Y-51218701D01*
X133891299Y-51615341D01*
X134071542Y-51690000D01*
X133891299Y-51764659D01*
X133494659Y-52161299D01*
X133280000Y-52679533D01*
X133280000Y-53240467D01*
X133494659Y-53758701D01*
X133891299Y-54155341D01*
X134071542Y-54230000D01*
X133891299Y-54304659D01*
X133494659Y-54701299D01*
X133280000Y-55219533D01*
X133280000Y-55253971D01*
X133105780Y-55079751D01*
X133051494Y-54998506D01*
X132729646Y-54783454D01*
X132445832Y-54727000D01*
X132445831Y-54727000D01*
X132350000Y-54707938D01*
X132254169Y-54727000D01*
X120095831Y-54727000D01*
X119999999Y-54707938D01*
X119904168Y-54727000D01*
X119620354Y-54783454D01*
X119298506Y-54998506D01*
X119244221Y-55079749D01*
X117679749Y-56644222D01*
X117598507Y-56698506D01*
X117544222Y-56779749D01*
X117383454Y-57020355D01*
X117307938Y-57400000D01*
X117327001Y-57495836D01*
X117327000Y-65067000D01*
X115711042Y-65067000D01*
X115488701Y-64844659D01*
X115308458Y-64770000D01*
X115488701Y-64695341D01*
X115885341Y-64298701D01*
X116100000Y-63780467D01*
X116100000Y-63219533D01*
X115885341Y-62701299D01*
X115488701Y-62304659D01*
X115308458Y-62230000D01*
X115488701Y-62155341D01*
X115885341Y-61758701D01*
X116100000Y-61240467D01*
X116100000Y-60679533D01*
X115885341Y-60161299D01*
X115488701Y-59764659D01*
X115308458Y-59690000D01*
X115488701Y-59615341D01*
X115885341Y-59218701D01*
X116100000Y-58700467D01*
X116100000Y-58139533D01*
X115885341Y-57621299D01*
X115488701Y-57224659D01*
X114970467Y-57010000D01*
X114409533Y-57010000D01*
X113891299Y-57224659D01*
X113494659Y-57621299D01*
X113280000Y-58139533D01*
X113280000Y-58700467D01*
X113494659Y-59218701D01*
X113891299Y-59615341D01*
X114071542Y-59690000D01*
X113891299Y-59764659D01*
X113494659Y-60161299D01*
X113280000Y-60679533D01*
X113280000Y-61240467D01*
X113494659Y-61758701D01*
X113891299Y-62155341D01*
X114071542Y-62230000D01*
X113891299Y-62304659D01*
X113494659Y-62701299D01*
X113280000Y-63219533D01*
X113280000Y-63780467D01*
X113494659Y-64298701D01*
X113891299Y-64695341D01*
X114071542Y-64770000D01*
X113891299Y-64844659D01*
X113494659Y-65241299D01*
X113280000Y-65759533D01*
X113280000Y-66320467D01*
X113494659Y-66838701D01*
X113830355Y-67174397D01*
X113667235Y-67206843D01*
X113457191Y-67347191D01*
X113316843Y-67557235D01*
X113267560Y-67805000D01*
X111285000Y-67805000D01*
X111285000Y-53285000D01*
X128422684Y-53285000D01*
X128500000Y-53300379D01*
X128577316Y-53285000D01*
X128806292Y-53239454D01*
X129065953Y-53065953D01*
X129239454Y-52806292D01*
X129300379Y-52500000D01*
X129285000Y-52422684D01*
X129285000Y-45285000D01*
X147215000Y-45285000D01*
X147215001Y-54422679D01*
G04 #@! TD*
M02*
