G04 #@! TF.GenerationSoftware,KiCad,Pcbnew,(5.0.2)-1*
G04 #@! TF.CreationDate,2019-04-05T17:45:13+02:00*
G04 #@! TF.ProjectId,DorsalTPMG90,446f7273-616c-4545-904d-4739302e6b69,v01*
G04 #@! TF.SameCoordinates,Original*
G04 #@! TF.FileFunction,Legend,Top*
G04 #@! TF.FilePolarity,Positive*
%FSLAX46Y46*%
G04 Gerber Fmt 4.6, Leading zero omitted, Abs format (unit mm)*
G04 Created by KiCad (PCBNEW (5.0.2)-1) date 05/04/2019 17:45:13*
%MOMM*%
%LPD*%
G01*
G04 APERTURE LIST*
%ADD10C,0.300000*%
%ADD11C,0.100000*%
%ADD12C,0.200000*%
%ADD13C,0.250000*%
%ADD14C,0.160000*%
%ADD15C,0.150000*%
%ADD16C,0.120000*%
%ADD17C,0.010000*%
G04 APERTURE END LIST*
D10*
X130982142Y-123103571D02*
X130482142Y-122389285D01*
X130125000Y-123103571D02*
X130125000Y-121603571D01*
X130696428Y-121603571D01*
X130839285Y-121675000D01*
X130910714Y-121746428D01*
X130982142Y-121889285D01*
X130982142Y-122103571D01*
X130910714Y-122246428D01*
X130839285Y-122317857D01*
X130696428Y-122389285D01*
X130125000Y-122389285D01*
X131839285Y-123103571D02*
X131696428Y-123032142D01*
X131625000Y-122960714D01*
X131553571Y-122817857D01*
X131553571Y-122389285D01*
X131625000Y-122246428D01*
X131696428Y-122175000D01*
X131839285Y-122103571D01*
X132053571Y-122103571D01*
X132196428Y-122175000D01*
X132267857Y-122246428D01*
X132339285Y-122389285D01*
X132339285Y-122817857D01*
X132267857Y-122960714D01*
X132196428Y-123032142D01*
X132053571Y-123103571D01*
X131839285Y-123103571D01*
X132982142Y-123103571D02*
X132982142Y-121603571D01*
X132982142Y-122175000D02*
X133125000Y-122103571D01*
X133410714Y-122103571D01*
X133553571Y-122175000D01*
X133625000Y-122246428D01*
X133696428Y-122389285D01*
X133696428Y-122817857D01*
X133625000Y-122960714D01*
X133553571Y-123032142D01*
X133410714Y-123103571D01*
X133125000Y-123103571D01*
X132982142Y-123032142D01*
X134553571Y-123103571D02*
X134410714Y-123032142D01*
X134339285Y-122960714D01*
X134267857Y-122817857D01*
X134267857Y-122389285D01*
X134339285Y-122246428D01*
X134410714Y-122175000D01*
X134553571Y-122103571D01*
X134767857Y-122103571D01*
X134910714Y-122175000D01*
X134982142Y-122246428D01*
X135053571Y-122389285D01*
X135053571Y-122817857D01*
X134982142Y-122960714D01*
X134910714Y-123032142D01*
X134767857Y-123103571D01*
X134553571Y-123103571D01*
X135482142Y-122103571D02*
X136053571Y-122103571D01*
X135696428Y-121603571D02*
X135696428Y-122889285D01*
X135767857Y-123032142D01*
X135910714Y-123103571D01*
X136053571Y-123103571D01*
X136553571Y-123103571D02*
X136553571Y-122103571D01*
X136553571Y-121603571D02*
X136482142Y-121675000D01*
X136553571Y-121746428D01*
X136625000Y-121675000D01*
X136553571Y-121603571D01*
X136553571Y-121746428D01*
X137910714Y-123032142D02*
X137767857Y-123103571D01*
X137482142Y-123103571D01*
X137339285Y-123032142D01*
X137267857Y-122960714D01*
X137196428Y-122817857D01*
X137196428Y-122389285D01*
X137267857Y-122246428D01*
X137339285Y-122175000D01*
X137482142Y-122103571D01*
X137767857Y-122103571D01*
X137910714Y-122175000D01*
X138482142Y-123032142D02*
X138625000Y-123103571D01*
X138910714Y-123103571D01*
X139053571Y-123032142D01*
X139125000Y-122889285D01*
X139125000Y-122817857D01*
X139053571Y-122675000D01*
X138910714Y-122603571D01*
X138696428Y-122603571D01*
X138553571Y-122532142D01*
X138482142Y-122389285D01*
X138482142Y-122317857D01*
X138553571Y-122175000D01*
X138696428Y-122103571D01*
X138910714Y-122103571D01*
X139053571Y-122175000D01*
X141625000Y-123103571D02*
X140910714Y-123103571D01*
X140910714Y-121603571D01*
X142767857Y-123103571D02*
X142767857Y-122317857D01*
X142696428Y-122175000D01*
X142553571Y-122103571D01*
X142267857Y-122103571D01*
X142125000Y-122175000D01*
X142767857Y-123032142D02*
X142625000Y-123103571D01*
X142267857Y-123103571D01*
X142125000Y-123032142D01*
X142053571Y-122889285D01*
X142053571Y-122746428D01*
X142125000Y-122603571D01*
X142267857Y-122532142D01*
X142625000Y-122532142D01*
X142767857Y-122460714D01*
X143482142Y-123103571D02*
X143482142Y-121603571D01*
X143482142Y-122175000D02*
X143625000Y-122103571D01*
X143910714Y-122103571D01*
X144053571Y-122175000D01*
X144125000Y-122246428D01*
X144196428Y-122389285D01*
X144196428Y-122817857D01*
X144125000Y-122960714D01*
X144053571Y-123032142D01*
X143910714Y-123103571D01*
X143625000Y-123103571D01*
X143482142Y-123032142D01*
D11*
X181715476Y-89600000D02*
X181639285Y-89561904D01*
X181525000Y-89561904D01*
X181410714Y-89600000D01*
X181334523Y-89676190D01*
X181296428Y-89752380D01*
X181258333Y-89904761D01*
X181258333Y-90019047D01*
X181296428Y-90171428D01*
X181334523Y-90247619D01*
X181410714Y-90323809D01*
X181525000Y-90361904D01*
X181601190Y-90361904D01*
X181715476Y-90323809D01*
X181753571Y-90285714D01*
X181753571Y-90019047D01*
X181601190Y-90019047D01*
X182096428Y-90361904D02*
X182096428Y-89561904D01*
X182553571Y-90361904D01*
X182553571Y-89561904D01*
X182934523Y-90361904D02*
X182934523Y-89561904D01*
X183125000Y-89561904D01*
X183239285Y-89600000D01*
X183315476Y-89676190D01*
X183353571Y-89752380D01*
X183391666Y-89904761D01*
X183391666Y-90019047D01*
X183353571Y-90171428D01*
X183315476Y-90247619D01*
X183239285Y-90323809D01*
X183125000Y-90361904D01*
X182934523Y-90361904D01*
X163765476Y-79425000D02*
X163689285Y-79386904D01*
X163575000Y-79386904D01*
X163460714Y-79425000D01*
X163384523Y-79501190D01*
X163346428Y-79577380D01*
X163308333Y-79729761D01*
X163308333Y-79844047D01*
X163346428Y-79996428D01*
X163384523Y-80072619D01*
X163460714Y-80148809D01*
X163575000Y-80186904D01*
X163651190Y-80186904D01*
X163765476Y-80148809D01*
X163803571Y-80110714D01*
X163803571Y-79844047D01*
X163651190Y-79844047D01*
X164146428Y-80186904D02*
X164146428Y-79386904D01*
X164603571Y-80186904D01*
X164603571Y-79386904D01*
X164984523Y-80186904D02*
X164984523Y-79386904D01*
X165175000Y-79386904D01*
X165289285Y-79425000D01*
X165365476Y-79501190D01*
X165403571Y-79577380D01*
X165441666Y-79729761D01*
X165441666Y-79844047D01*
X165403571Y-79996428D01*
X165365476Y-80072619D01*
X165289285Y-80148809D01*
X165175000Y-80186904D01*
X164984523Y-80186904D01*
X144597196Y-72442120D02*
X144521005Y-72404024D01*
X144406720Y-72404024D01*
X144292434Y-72442120D01*
X144216243Y-72518310D01*
X144178148Y-72594500D01*
X144140053Y-72746881D01*
X144140053Y-72861167D01*
X144178148Y-73013548D01*
X144216243Y-73089739D01*
X144292434Y-73165929D01*
X144406720Y-73204024D01*
X144482910Y-73204024D01*
X144597196Y-73165929D01*
X144635291Y-73127834D01*
X144635291Y-72861167D01*
X144482910Y-72861167D01*
X144978148Y-73204024D02*
X144978148Y-72404024D01*
X145435291Y-73204024D01*
X145435291Y-72404024D01*
X145816243Y-73204024D02*
X145816243Y-72404024D01*
X146006720Y-72404024D01*
X146121005Y-72442120D01*
X146197196Y-72518310D01*
X146235291Y-72594500D01*
X146273386Y-72746881D01*
X146273386Y-72861167D01*
X146235291Y-73013548D01*
X146197196Y-73089739D01*
X146121005Y-73165929D01*
X146006720Y-73204024D01*
X145816243Y-73204024D01*
X168240476Y-132750000D02*
X168164285Y-132711904D01*
X168050000Y-132711904D01*
X167935714Y-132750000D01*
X167859523Y-132826190D01*
X167821428Y-132902380D01*
X167783333Y-133054761D01*
X167783333Y-133169047D01*
X167821428Y-133321428D01*
X167859523Y-133397619D01*
X167935714Y-133473809D01*
X168050000Y-133511904D01*
X168126190Y-133511904D01*
X168240476Y-133473809D01*
X168278571Y-133435714D01*
X168278571Y-133169047D01*
X168126190Y-133169047D01*
X168621428Y-133511904D02*
X168621428Y-132711904D01*
X169078571Y-133511904D01*
X169078571Y-132711904D01*
X169459523Y-133511904D02*
X169459523Y-132711904D01*
X169650000Y-132711904D01*
X169764285Y-132750000D01*
X169840476Y-132826190D01*
X169878571Y-132902380D01*
X169916666Y-133054761D01*
X169916666Y-133169047D01*
X169878571Y-133321428D01*
X169840476Y-133397619D01*
X169764285Y-133473809D01*
X169650000Y-133511904D01*
X169459523Y-133511904D01*
X126815476Y-106575000D02*
X126739285Y-106536904D01*
X126625000Y-106536904D01*
X126510714Y-106575000D01*
X126434523Y-106651190D01*
X126396428Y-106727380D01*
X126358333Y-106879761D01*
X126358333Y-106994047D01*
X126396428Y-107146428D01*
X126434523Y-107222619D01*
X126510714Y-107298809D01*
X126625000Y-107336904D01*
X126701190Y-107336904D01*
X126815476Y-107298809D01*
X126853571Y-107260714D01*
X126853571Y-106994047D01*
X126701190Y-106994047D01*
X127196428Y-107336904D02*
X127196428Y-106536904D01*
X127653571Y-107336904D01*
X127653571Y-106536904D01*
X128034523Y-107336904D02*
X128034523Y-106536904D01*
X128225000Y-106536904D01*
X128339285Y-106575000D01*
X128415476Y-106651190D01*
X128453571Y-106727380D01*
X128491666Y-106879761D01*
X128491666Y-106994047D01*
X128453571Y-107146428D01*
X128415476Y-107222619D01*
X128339285Y-107298809D01*
X128225000Y-107336904D01*
X128034523Y-107336904D01*
X129615476Y-138300000D02*
X129539285Y-138261904D01*
X129425000Y-138261904D01*
X129310714Y-138300000D01*
X129234523Y-138376190D01*
X129196428Y-138452380D01*
X129158333Y-138604761D01*
X129158333Y-138719047D01*
X129196428Y-138871428D01*
X129234523Y-138947619D01*
X129310714Y-139023809D01*
X129425000Y-139061904D01*
X129501190Y-139061904D01*
X129615476Y-139023809D01*
X129653571Y-138985714D01*
X129653571Y-138719047D01*
X129501190Y-138719047D01*
X129996428Y-139061904D02*
X129996428Y-138261904D01*
X130453571Y-139061904D01*
X130453571Y-138261904D01*
X130834523Y-139061904D02*
X130834523Y-138261904D01*
X131025000Y-138261904D01*
X131139285Y-138300000D01*
X131215476Y-138376190D01*
X131253571Y-138452380D01*
X131291666Y-138604761D01*
X131291666Y-138719047D01*
X131253571Y-138871428D01*
X131215476Y-138947619D01*
X131139285Y-139023809D01*
X131025000Y-139061904D01*
X130834523Y-139061904D01*
X175740476Y-132825000D02*
X175664285Y-132786904D01*
X175550000Y-132786904D01*
X175435714Y-132825000D01*
X175359523Y-132901190D01*
X175321428Y-132977380D01*
X175283333Y-133129761D01*
X175283333Y-133244047D01*
X175321428Y-133396428D01*
X175359523Y-133472619D01*
X175435714Y-133548809D01*
X175550000Y-133586904D01*
X175626190Y-133586904D01*
X175740476Y-133548809D01*
X175778571Y-133510714D01*
X175778571Y-133244047D01*
X175626190Y-133244047D01*
X176121428Y-133586904D02*
X176121428Y-132786904D01*
X176578571Y-133586904D01*
X176578571Y-132786904D01*
X176959523Y-133586904D02*
X176959523Y-132786904D01*
X177150000Y-132786904D01*
X177264285Y-132825000D01*
X177340476Y-132901190D01*
X177378571Y-132977380D01*
X177416666Y-133129761D01*
X177416666Y-133244047D01*
X177378571Y-133396428D01*
X177340476Y-133472619D01*
X177264285Y-133548809D01*
X177150000Y-133586904D01*
X176959523Y-133586904D01*
D12*
X115690476Y-101178571D02*
X116023809Y-101178571D01*
X116166666Y-101702380D02*
X115690476Y-101702380D01*
X115690476Y-100702380D01*
X116166666Y-100702380D01*
X116595238Y-101702380D02*
X116595238Y-100702380D01*
X117166666Y-101702380D01*
X117166666Y-100702380D01*
X118214285Y-101607142D02*
X118166666Y-101654761D01*
X118023809Y-101702380D01*
X117928571Y-101702380D01*
X117785714Y-101654761D01*
X117690476Y-101559523D01*
X117642857Y-101464285D01*
X117595238Y-101273809D01*
X117595238Y-101130952D01*
X117642857Y-100940476D01*
X117690476Y-100845238D01*
X117785714Y-100750000D01*
X117928571Y-100702380D01*
X118023809Y-100702380D01*
X118166666Y-100750000D01*
X118214285Y-100797619D01*
X118404761Y-101797619D02*
X119166666Y-101797619D01*
X119404761Y-101702380D02*
X119404761Y-100702380D01*
X119785714Y-100702380D01*
X119880952Y-100750000D01*
X119928571Y-100797619D01*
X119976190Y-100892857D01*
X119976190Y-101035714D01*
X119928571Y-101130952D01*
X119880952Y-101178571D01*
X119785714Y-101226190D01*
X119404761Y-101226190D01*
X120404761Y-101702380D02*
X120404761Y-100702380D01*
X120880952Y-101702380D02*
X120880952Y-100702380D01*
X121452380Y-101702380D01*
X121452380Y-100702380D01*
X121928571Y-101702380D02*
X121928571Y-100702380D01*
X122500000Y-101702380D02*
X122071428Y-101130952D01*
X122500000Y-100702380D02*
X121928571Y-101273809D01*
X123119047Y-101226190D02*
X123119047Y-101702380D01*
X122785714Y-100702380D02*
X123119047Y-101226190D01*
X123452380Y-100702380D01*
X133194047Y-84628571D02*
X133527380Y-84628571D01*
X133670238Y-85152380D02*
X133194047Y-85152380D01*
X133194047Y-84152380D01*
X133670238Y-84152380D01*
X134098809Y-85152380D02*
X134098809Y-84152380D01*
X134670238Y-85152380D01*
X134670238Y-84152380D01*
X135717857Y-85057142D02*
X135670238Y-85104761D01*
X135527380Y-85152380D01*
X135432142Y-85152380D01*
X135289285Y-85104761D01*
X135194047Y-85009523D01*
X135146428Y-84914285D01*
X135098809Y-84723809D01*
X135098809Y-84580952D01*
X135146428Y-84390476D01*
X135194047Y-84295238D01*
X135289285Y-84200000D01*
X135432142Y-84152380D01*
X135527380Y-84152380D01*
X135670238Y-84200000D01*
X135717857Y-84247619D01*
X135908333Y-85247619D02*
X136670238Y-85247619D01*
X137479761Y-85152380D02*
X137146428Y-84676190D01*
X136908333Y-85152380D02*
X136908333Y-84152380D01*
X137289285Y-84152380D01*
X137384523Y-84200000D01*
X137432142Y-84247619D01*
X137479761Y-84342857D01*
X137479761Y-84485714D01*
X137432142Y-84580952D01*
X137384523Y-84628571D01*
X137289285Y-84676190D01*
X136908333Y-84676190D01*
X137908333Y-85152380D02*
X137908333Y-84152380D01*
X138384523Y-85152380D02*
X138384523Y-84152380D01*
X138955952Y-85152380D01*
X138955952Y-84152380D01*
X139955952Y-84200000D02*
X139860714Y-84152380D01*
X139717857Y-84152380D01*
X139575000Y-84200000D01*
X139479761Y-84295238D01*
X139432142Y-84390476D01*
X139384523Y-84580952D01*
X139384523Y-84723809D01*
X139432142Y-84914285D01*
X139479761Y-85009523D01*
X139575000Y-85104761D01*
X139717857Y-85152380D01*
X139813095Y-85152380D01*
X139955952Y-85104761D01*
X140003571Y-85057142D01*
X140003571Y-84723809D01*
X139813095Y-84723809D01*
X153414285Y-73953571D02*
X153747619Y-73953571D01*
X153890476Y-74477380D02*
X153414285Y-74477380D01*
X153414285Y-73477380D01*
X153890476Y-73477380D01*
X154319047Y-74477380D02*
X154319047Y-73477380D01*
X154890476Y-74477380D01*
X154890476Y-73477380D01*
X155938095Y-74382142D02*
X155890476Y-74429761D01*
X155747619Y-74477380D01*
X155652380Y-74477380D01*
X155509523Y-74429761D01*
X155414285Y-74334523D01*
X155366666Y-74239285D01*
X155319047Y-74048809D01*
X155319047Y-73905952D01*
X155366666Y-73715476D01*
X155414285Y-73620238D01*
X155509523Y-73525000D01*
X155652380Y-73477380D01*
X155747619Y-73477380D01*
X155890476Y-73525000D01*
X155938095Y-73572619D01*
X156128571Y-74572619D02*
X156890476Y-74572619D01*
X157128571Y-74477380D02*
X157128571Y-73477380D01*
X157461904Y-74191666D01*
X157795238Y-73477380D01*
X157795238Y-74477380D01*
X158271428Y-74477380D02*
X158271428Y-73477380D01*
X158747619Y-74477380D02*
X158747619Y-73477380D01*
X158985714Y-73477380D01*
X159128571Y-73525000D01*
X159223809Y-73620238D01*
X159271428Y-73715476D01*
X159319047Y-73905952D01*
X159319047Y-74048809D01*
X159271428Y-74239285D01*
X159223809Y-74334523D01*
X159128571Y-74429761D01*
X158985714Y-74477380D01*
X158747619Y-74477380D01*
X159747619Y-74477380D02*
X159747619Y-73477380D01*
X159985714Y-73477380D01*
X160128571Y-73525000D01*
X160223809Y-73620238D01*
X160271428Y-73715476D01*
X160319047Y-73905952D01*
X160319047Y-74048809D01*
X160271428Y-74239285D01*
X160223809Y-74334523D01*
X160128571Y-74429761D01*
X159985714Y-74477380D01*
X159747619Y-74477380D01*
X161223809Y-74477380D02*
X160747619Y-74477380D01*
X160747619Y-73477380D01*
X161557142Y-73953571D02*
X161890476Y-73953571D01*
X162033333Y-74477380D02*
X161557142Y-74477380D01*
X161557142Y-73477380D01*
X162033333Y-73477380D01*
X169680952Y-107878571D02*
X170014285Y-107878571D01*
X170157142Y-108402380D02*
X169680952Y-108402380D01*
X169680952Y-107402380D01*
X170157142Y-107402380D01*
X170585714Y-108402380D02*
X170585714Y-107402380D01*
X171157142Y-108402380D01*
X171157142Y-107402380D01*
X172204761Y-108307142D02*
X172157142Y-108354761D01*
X172014285Y-108402380D01*
X171919047Y-108402380D01*
X171776190Y-108354761D01*
X171680952Y-108259523D01*
X171633333Y-108164285D01*
X171585714Y-107973809D01*
X171585714Y-107830952D01*
X171633333Y-107640476D01*
X171680952Y-107545238D01*
X171776190Y-107450000D01*
X171919047Y-107402380D01*
X172014285Y-107402380D01*
X172157142Y-107450000D01*
X172204761Y-107497619D01*
X172395238Y-108497619D02*
X173157142Y-108497619D01*
X173252380Y-107402380D02*
X173823809Y-107402380D01*
X173538095Y-108402380D02*
X173538095Y-107402380D01*
X174157142Y-108402380D02*
X174157142Y-107402380D01*
X174157142Y-107878571D02*
X174728571Y-107878571D01*
X174728571Y-108402380D02*
X174728571Y-107402380D01*
X175204761Y-107402380D02*
X175204761Y-108211904D01*
X175252380Y-108307142D01*
X175300000Y-108354761D01*
X175395238Y-108402380D01*
X175585714Y-108402380D01*
X175680952Y-108354761D01*
X175728571Y-108307142D01*
X175776190Y-108211904D01*
X175776190Y-107402380D01*
X176252380Y-108402380D02*
X176252380Y-107402380D01*
X176585714Y-108116666D01*
X176919047Y-107402380D01*
X176919047Y-108402380D01*
X177728571Y-107878571D02*
X177871428Y-107926190D01*
X177919047Y-107973809D01*
X177966666Y-108069047D01*
X177966666Y-108211904D01*
X177919047Y-108307142D01*
X177871428Y-108354761D01*
X177776190Y-108402380D01*
X177395238Y-108402380D01*
X177395238Y-107402380D01*
X177728571Y-107402380D01*
X177823809Y-107450000D01*
X177871428Y-107497619D01*
X177919047Y-107592857D01*
X177919047Y-107688095D01*
X177871428Y-107783333D01*
X177823809Y-107830952D01*
X177728571Y-107878571D01*
X177395238Y-107878571D01*
X169965476Y-84653571D02*
X170298809Y-84653571D01*
X170441666Y-85177380D02*
X169965476Y-85177380D01*
X169965476Y-84177380D01*
X170441666Y-84177380D01*
X170870238Y-85177380D02*
X170870238Y-84177380D01*
X171441666Y-85177380D01*
X171441666Y-84177380D01*
X172489285Y-85082142D02*
X172441666Y-85129761D01*
X172298809Y-85177380D01*
X172203571Y-85177380D01*
X172060714Y-85129761D01*
X171965476Y-85034523D01*
X171917857Y-84939285D01*
X171870238Y-84748809D01*
X171870238Y-84605952D01*
X171917857Y-84415476D01*
X171965476Y-84320238D01*
X172060714Y-84225000D01*
X172203571Y-84177380D01*
X172298809Y-84177380D01*
X172441666Y-84225000D01*
X172489285Y-84272619D01*
X172679761Y-85272619D02*
X173441666Y-85272619D01*
X173679761Y-85177380D02*
X173679761Y-84177380D01*
X174155952Y-85177380D02*
X174155952Y-84177380D01*
X174727380Y-85177380D01*
X174727380Y-84177380D01*
X175203571Y-85177380D02*
X175203571Y-84177380D01*
X175441666Y-84177380D01*
X175584523Y-84225000D01*
X175679761Y-84320238D01*
X175727380Y-84415476D01*
X175775000Y-84605952D01*
X175775000Y-84748809D01*
X175727380Y-84939285D01*
X175679761Y-85034523D01*
X175584523Y-85129761D01*
X175441666Y-85177380D01*
X175203571Y-85177380D01*
X176203571Y-84653571D02*
X176536904Y-84653571D01*
X176679761Y-85177380D02*
X176203571Y-85177380D01*
X176203571Y-84177380D01*
X176679761Y-84177380D01*
X177013095Y-84177380D02*
X177679761Y-85177380D01*
X177679761Y-84177380D02*
X177013095Y-85177380D01*
X133961500Y-132615631D02*
X134104358Y-132663250D01*
X134151977Y-132710869D01*
X134199596Y-132806107D01*
X134199596Y-132948964D01*
X134151977Y-133044202D01*
X134104358Y-133091821D01*
X134009120Y-133139440D01*
X133628167Y-133139440D01*
X133628167Y-132139440D01*
X133961500Y-132139440D01*
X134056739Y-132187060D01*
X134104358Y-132234679D01*
X134151977Y-132329917D01*
X134151977Y-132425155D01*
X134104358Y-132520393D01*
X134056739Y-132568012D01*
X133961500Y-132615631D01*
X133628167Y-132615631D01*
X134580548Y-132853726D02*
X135056739Y-132853726D01*
X134485310Y-133139440D02*
X134818643Y-132139440D01*
X135151977Y-133139440D01*
X135342453Y-132139440D02*
X135913881Y-132139440D01*
X135628167Y-133139440D02*
X135628167Y-132139440D01*
X136104358Y-132139440D02*
X136675786Y-132139440D01*
X136390072Y-133139440D02*
X136390072Y-132139440D01*
X137009120Y-132615631D02*
X137342453Y-132615631D01*
X137485310Y-133139440D02*
X137009120Y-133139440D01*
X137009120Y-132139440D01*
X137485310Y-132139440D01*
X138485310Y-133139440D02*
X138151977Y-132663250D01*
X137913881Y-133139440D02*
X137913881Y-132139440D01*
X138294834Y-132139440D01*
X138390072Y-132187060D01*
X138437691Y-132234679D01*
X138485310Y-132329917D01*
X138485310Y-132472774D01*
X138437691Y-132568012D01*
X138390072Y-132615631D01*
X138294834Y-132663250D01*
X137913881Y-132663250D01*
X139104358Y-132663250D02*
X139104358Y-133139440D01*
X138771024Y-132139440D02*
X139104358Y-132663250D01*
X139437691Y-132139440D01*
X140532929Y-133139440D02*
X140532929Y-132139440D01*
X141009120Y-133139440D02*
X141009120Y-132139440D01*
X141580548Y-133139440D01*
X141580548Y-132139440D01*
X142056739Y-133139440D02*
X142056739Y-132139440D01*
X142437691Y-132139440D01*
X142532929Y-132187060D01*
X142580548Y-132234679D01*
X142628167Y-132329917D01*
X142628167Y-132472774D01*
X142580548Y-132568012D01*
X142532929Y-132615631D01*
X142437691Y-132663250D01*
X142056739Y-132663250D01*
X143056739Y-132139440D02*
X143056739Y-132948964D01*
X143104358Y-133044202D01*
X143151977Y-133091821D01*
X143247215Y-133139440D01*
X143437691Y-133139440D01*
X143532929Y-133091821D01*
X143580548Y-133044202D01*
X143628167Y-132948964D01*
X143628167Y-132139440D01*
X143961500Y-132139440D02*
X144532929Y-132139440D01*
X144247215Y-133139440D02*
X144247215Y-132139440D01*
D13*
X124230403Y-133180721D02*
X124373260Y-133228340D01*
X124611356Y-133228340D01*
X124706594Y-133180721D01*
X124754213Y-133133102D01*
X124801832Y-133037864D01*
X124801832Y-132942626D01*
X124754213Y-132847388D01*
X124706594Y-132799769D01*
X124611356Y-132752150D01*
X124420880Y-132704531D01*
X124325641Y-132656912D01*
X124278022Y-132609293D01*
X124230403Y-132514055D01*
X124230403Y-132418817D01*
X124278022Y-132323579D01*
X124325641Y-132275960D01*
X124420880Y-132228340D01*
X124658975Y-132228340D01*
X124801832Y-132275960D01*
X125230403Y-132704531D02*
X125563737Y-132704531D01*
X125706594Y-133228340D02*
X125230403Y-133228340D01*
X125230403Y-132228340D01*
X125706594Y-132228340D01*
X126706594Y-133228340D02*
X126373260Y-132752150D01*
X126135165Y-133228340D02*
X126135165Y-132228340D01*
X126516118Y-132228340D01*
X126611356Y-132275960D01*
X126658975Y-132323579D01*
X126706594Y-132418817D01*
X126706594Y-132561674D01*
X126658975Y-132656912D01*
X126611356Y-132704531D01*
X126516118Y-132752150D01*
X126135165Y-132752150D01*
X126992308Y-132228340D02*
X127325641Y-133228340D01*
X127658975Y-132228340D01*
X128182784Y-132228340D02*
X128373260Y-132228340D01*
X128468499Y-132275960D01*
X128563737Y-132371198D01*
X128611356Y-132561674D01*
X128611356Y-132895007D01*
X128563737Y-133085483D01*
X128468499Y-133180721D01*
X128373260Y-133228340D01*
X128182784Y-133228340D01*
X128087546Y-133180721D01*
X127992308Y-133085483D01*
X127944689Y-132895007D01*
X127944689Y-132561674D01*
X127992308Y-132371198D01*
X128087546Y-132275960D01*
X128182784Y-132228340D01*
X146930952Y-100352380D02*
X147502380Y-100352380D01*
X147216666Y-101352380D02*
X147216666Y-100352380D01*
X147835714Y-100828571D02*
X148169047Y-100828571D01*
X148311904Y-101352380D02*
X147835714Y-101352380D01*
X147835714Y-100352380D01*
X148311904Y-100352380D01*
X148740476Y-100828571D02*
X149073809Y-100828571D01*
X149216666Y-101352380D02*
X148740476Y-101352380D01*
X148740476Y-100352380D01*
X149216666Y-100352380D01*
X149645238Y-101352380D02*
X149645238Y-100352380D01*
X150216666Y-101352380D01*
X150216666Y-100352380D01*
X150645238Y-101304761D02*
X150788095Y-101352380D01*
X151026190Y-101352380D01*
X151121428Y-101304761D01*
X151169047Y-101257142D01*
X151216666Y-101161904D01*
X151216666Y-101066666D01*
X151169047Y-100971428D01*
X151121428Y-100923809D01*
X151026190Y-100876190D01*
X150835714Y-100828571D01*
X150740476Y-100780952D01*
X150692857Y-100733333D01*
X150645238Y-100638095D01*
X150645238Y-100542857D01*
X150692857Y-100447619D01*
X150740476Y-100400000D01*
X150835714Y-100352380D01*
X151073809Y-100352380D01*
X151216666Y-100400000D01*
X151835714Y-100876190D02*
X151835714Y-101352380D01*
X151502380Y-100352380D02*
X151835714Y-100876190D01*
X152169047Y-100352380D01*
X169053571Y-118327380D02*
X169053571Y-117327380D01*
X169291666Y-117327380D01*
X169434523Y-117375000D01*
X169529761Y-117470238D01*
X169577380Y-117565476D01*
X169625000Y-117755952D01*
X169625000Y-117898809D01*
X169577380Y-118089285D01*
X169529761Y-118184523D01*
X169434523Y-118279761D01*
X169291666Y-118327380D01*
X169053571Y-118327380D01*
X170625000Y-118327380D02*
X170291666Y-117851190D01*
X170053571Y-118327380D02*
X170053571Y-117327380D01*
X170434523Y-117327380D01*
X170529761Y-117375000D01*
X170577380Y-117422619D01*
X170625000Y-117517857D01*
X170625000Y-117660714D01*
X170577380Y-117755952D01*
X170529761Y-117803571D01*
X170434523Y-117851190D01*
X170053571Y-117851190D01*
X170910714Y-117327380D02*
X171244047Y-118327380D01*
X171577380Y-117327380D01*
X171672619Y-118422619D02*
X172434523Y-118422619D01*
X172529761Y-117327380D02*
X173101190Y-117327380D01*
X172815476Y-118327380D02*
X172815476Y-117327380D01*
X173434523Y-118327380D02*
X173434523Y-117327380D01*
X173434523Y-117803571D02*
X174005952Y-117803571D01*
X174005952Y-118327380D02*
X174005952Y-117327380D01*
X174482142Y-117327380D02*
X174482142Y-118136904D01*
X174529761Y-118232142D01*
X174577380Y-118279761D01*
X174672619Y-118327380D01*
X174863095Y-118327380D01*
X174958333Y-118279761D01*
X175005952Y-118232142D01*
X175053571Y-118136904D01*
X175053571Y-117327380D01*
X175529761Y-118327380D02*
X175529761Y-117327380D01*
X175863095Y-118041666D01*
X176196428Y-117327380D01*
X176196428Y-118327380D01*
X177005952Y-117803571D02*
X177148809Y-117851190D01*
X177196428Y-117898809D01*
X177244047Y-117994047D01*
X177244047Y-118136904D01*
X177196428Y-118232142D01*
X177148809Y-118279761D01*
X177053571Y-118327380D01*
X176672619Y-118327380D01*
X176672619Y-117327380D01*
X177005952Y-117327380D01*
X177101190Y-117375000D01*
X177148809Y-117422619D01*
X177196428Y-117517857D01*
X177196428Y-117613095D01*
X177148809Y-117708333D01*
X177101190Y-117755952D01*
X177005952Y-117803571D01*
X176672619Y-117803571D01*
X115618095Y-77155300D02*
X115618095Y-76155300D01*
X115856190Y-76155300D01*
X115999047Y-76202920D01*
X116094285Y-76298158D01*
X116141904Y-76393396D01*
X116189523Y-76583872D01*
X116189523Y-76726729D01*
X116141904Y-76917205D01*
X116094285Y-77012443D01*
X115999047Y-77107681D01*
X115856190Y-77155300D01*
X115618095Y-77155300D01*
X117189523Y-77155300D02*
X116856190Y-76679110D01*
X116618095Y-77155300D02*
X116618095Y-76155300D01*
X116999047Y-76155300D01*
X117094285Y-76202920D01*
X117141904Y-76250539D01*
X117189523Y-76345777D01*
X117189523Y-76488634D01*
X117141904Y-76583872D01*
X117094285Y-76631491D01*
X116999047Y-76679110D01*
X116618095Y-76679110D01*
X117475238Y-76155300D02*
X117808571Y-77155300D01*
X118141904Y-76155300D01*
X118237142Y-77250539D02*
X118999047Y-77250539D01*
X119237142Y-77155300D02*
X119237142Y-76155300D01*
X119618095Y-76155300D01*
X119713333Y-76202920D01*
X119760952Y-76250539D01*
X119808571Y-76345777D01*
X119808571Y-76488634D01*
X119760952Y-76583872D01*
X119713333Y-76631491D01*
X119618095Y-76679110D01*
X119237142Y-76679110D01*
X120237142Y-77155300D02*
X120237142Y-76155300D01*
X120713333Y-77155300D02*
X120713333Y-76155300D01*
X121284761Y-77155300D01*
X121284761Y-76155300D01*
X121760952Y-77155300D02*
X121760952Y-76155300D01*
X122332380Y-77155300D02*
X121903809Y-76583872D01*
X122332380Y-76155300D02*
X121760952Y-76726729D01*
X122951428Y-76679110D02*
X122951428Y-77155300D01*
X122618095Y-76155300D02*
X122951428Y-76679110D01*
X123284761Y-76155300D01*
X134616666Y-60902380D02*
X134616666Y-59902380D01*
X134854761Y-59902380D01*
X134997619Y-59950000D01*
X135092857Y-60045238D01*
X135140476Y-60140476D01*
X135188095Y-60330952D01*
X135188095Y-60473809D01*
X135140476Y-60664285D01*
X135092857Y-60759523D01*
X134997619Y-60854761D01*
X134854761Y-60902380D01*
X134616666Y-60902380D01*
X136188095Y-60902380D02*
X135854761Y-60426190D01*
X135616666Y-60902380D02*
X135616666Y-59902380D01*
X135997619Y-59902380D01*
X136092857Y-59950000D01*
X136140476Y-59997619D01*
X136188095Y-60092857D01*
X136188095Y-60235714D01*
X136140476Y-60330952D01*
X136092857Y-60378571D01*
X135997619Y-60426190D01*
X135616666Y-60426190D01*
X136473809Y-59902380D02*
X136807142Y-60902380D01*
X137140476Y-59902380D01*
X137235714Y-60997619D02*
X137997619Y-60997619D01*
X138807142Y-60902380D02*
X138473809Y-60426190D01*
X138235714Y-60902380D02*
X138235714Y-59902380D01*
X138616666Y-59902380D01*
X138711904Y-59950000D01*
X138759523Y-59997619D01*
X138807142Y-60092857D01*
X138807142Y-60235714D01*
X138759523Y-60330952D01*
X138711904Y-60378571D01*
X138616666Y-60426190D01*
X138235714Y-60426190D01*
X139235714Y-60902380D02*
X139235714Y-59902380D01*
X139711904Y-60902380D02*
X139711904Y-59902380D01*
X140283333Y-60902380D01*
X140283333Y-59902380D01*
X141283333Y-59950000D02*
X141188095Y-59902380D01*
X141045238Y-59902380D01*
X140902380Y-59950000D01*
X140807142Y-60045238D01*
X140759523Y-60140476D01*
X140711904Y-60330952D01*
X140711904Y-60473809D01*
X140759523Y-60664285D01*
X140807142Y-60759523D01*
X140902380Y-60854761D01*
X141045238Y-60902380D01*
X141140476Y-60902380D01*
X141283333Y-60854761D01*
X141330952Y-60807142D01*
X141330952Y-60473809D01*
X141140476Y-60473809D01*
X153411904Y-50827380D02*
X153411904Y-49827380D01*
X153650000Y-49827380D01*
X153792857Y-49875000D01*
X153888095Y-49970238D01*
X153935714Y-50065476D01*
X153983333Y-50255952D01*
X153983333Y-50398809D01*
X153935714Y-50589285D01*
X153888095Y-50684523D01*
X153792857Y-50779761D01*
X153650000Y-50827380D01*
X153411904Y-50827380D01*
X154983333Y-50827380D02*
X154650000Y-50351190D01*
X154411904Y-50827380D02*
X154411904Y-49827380D01*
X154792857Y-49827380D01*
X154888095Y-49875000D01*
X154935714Y-49922619D01*
X154983333Y-50017857D01*
X154983333Y-50160714D01*
X154935714Y-50255952D01*
X154888095Y-50303571D01*
X154792857Y-50351190D01*
X154411904Y-50351190D01*
X155269047Y-49827380D02*
X155602380Y-50827380D01*
X155935714Y-49827380D01*
X156030952Y-50922619D02*
X156792857Y-50922619D01*
X157030952Y-50827380D02*
X157030952Y-49827380D01*
X157364285Y-50541666D01*
X157697619Y-49827380D01*
X157697619Y-50827380D01*
X158173809Y-50827380D02*
X158173809Y-49827380D01*
X158650000Y-50827380D02*
X158650000Y-49827380D01*
X158888095Y-49827380D01*
X159030952Y-49875000D01*
X159126190Y-49970238D01*
X159173809Y-50065476D01*
X159221428Y-50255952D01*
X159221428Y-50398809D01*
X159173809Y-50589285D01*
X159126190Y-50684523D01*
X159030952Y-50779761D01*
X158888095Y-50827380D01*
X158650000Y-50827380D01*
X159650000Y-50827380D02*
X159650000Y-49827380D01*
X159888095Y-49827380D01*
X160030952Y-49875000D01*
X160126190Y-49970238D01*
X160173809Y-50065476D01*
X160221428Y-50255952D01*
X160221428Y-50398809D01*
X160173809Y-50589285D01*
X160126190Y-50684523D01*
X160030952Y-50779761D01*
X159888095Y-50827380D01*
X159650000Y-50827380D01*
X161126190Y-50827380D02*
X160650000Y-50827380D01*
X160650000Y-49827380D01*
X161459523Y-50303571D02*
X161792857Y-50303571D01*
X161935714Y-50827380D02*
X161459523Y-50827380D01*
X161459523Y-49827380D01*
X161935714Y-49827380D01*
X172788095Y-59027380D02*
X172788095Y-58027380D01*
X173026190Y-58027380D01*
X173169047Y-58075000D01*
X173264285Y-58170238D01*
X173311904Y-58265476D01*
X173359523Y-58455952D01*
X173359523Y-58598809D01*
X173311904Y-58789285D01*
X173264285Y-58884523D01*
X173169047Y-58979761D01*
X173026190Y-59027380D01*
X172788095Y-59027380D01*
X174359523Y-59027380D02*
X174026190Y-58551190D01*
X173788095Y-59027380D02*
X173788095Y-58027380D01*
X174169047Y-58027380D01*
X174264285Y-58075000D01*
X174311904Y-58122619D01*
X174359523Y-58217857D01*
X174359523Y-58360714D01*
X174311904Y-58455952D01*
X174264285Y-58503571D01*
X174169047Y-58551190D01*
X173788095Y-58551190D01*
X174645238Y-58027380D02*
X174978571Y-59027380D01*
X175311904Y-58027380D01*
X175407142Y-59122619D02*
X176169047Y-59122619D01*
X176407142Y-59027380D02*
X176407142Y-58027380D01*
X176883333Y-59027380D02*
X176883333Y-58027380D01*
X177454761Y-59027380D01*
X177454761Y-58027380D01*
X177930952Y-59027380D02*
X177930952Y-58027380D01*
X178169047Y-58027380D01*
X178311904Y-58075000D01*
X178407142Y-58170238D01*
X178454761Y-58265476D01*
X178502380Y-58455952D01*
X178502380Y-58598809D01*
X178454761Y-58789285D01*
X178407142Y-58884523D01*
X178311904Y-58979761D01*
X178169047Y-59027380D01*
X177930952Y-59027380D01*
X178930952Y-58503571D02*
X179264285Y-58503571D01*
X179407142Y-59027380D02*
X178930952Y-59027380D01*
X178930952Y-58027380D01*
X179407142Y-58027380D01*
X179740476Y-58027380D02*
X180407142Y-59027380D01*
X180407142Y-58027380D02*
X179740476Y-59027380D01*
D14*
G04 #@! TO.C,U3*
X143134080Y-74550000D02*
X132974080Y-74550000D01*
X132974080Y-74550000D02*
X132974080Y-61850000D01*
X132974080Y-61850000D02*
X143134080Y-61850000D01*
X143134080Y-61850000D02*
X143134080Y-74550000D01*
D15*
G04 #@! TO.C,U1*
X164815000Y-137455000D02*
X147035000Y-137455000D01*
X164815000Y-101895000D02*
X164815000Y-137455000D01*
X147035000Y-101895000D02*
X164815000Y-101895000D01*
X147035000Y-137455000D02*
X147035000Y-101895000D01*
X161005000Y-110785000D02*
X161005000Y-119675000D01*
X150845000Y-110785000D02*
X150845000Y-119675000D01*
X150845000Y-119675000D02*
X161005000Y-119675000D01*
X161005000Y-110785000D02*
X150845000Y-110785000D01*
X153385000Y-106975000D02*
X153385000Y-104435000D01*
X158465000Y-106975000D02*
X153385000Y-106975000D01*
X158465000Y-104435000D02*
X158465000Y-106975000D01*
X153385000Y-104435000D02*
X158465000Y-104435000D01*
X158465000Y-131105000D02*
X161005000Y-131105000D01*
X158465000Y-128565000D02*
X158465000Y-131105000D01*
X161005000Y-128565000D02*
X158465000Y-128565000D01*
X161005000Y-131105000D02*
X161005000Y-128565000D01*
X159735000Y-132375000D02*
X159735000Y-137455000D01*
X152115000Y-132375000D02*
X152115000Y-137455000D01*
X159735000Y-132375000D02*
X152115000Y-132375000D01*
X158465000Y-126025000D02*
X161005000Y-126025000D01*
X158465000Y-122215000D02*
X158465000Y-126025000D01*
X161005000Y-122215000D02*
X158465000Y-122215000D01*
X161005000Y-126025000D02*
X161005000Y-122215000D01*
X152115000Y-138725000D02*
X152115000Y-137455000D01*
X159735000Y-138725000D02*
X152115000Y-138725000D01*
X159735000Y-137455000D02*
X159735000Y-138725000D01*
D14*
G04 #@! TO.C,U6*
X177780000Y-119200000D02*
X177780000Y-131900000D01*
X167620000Y-119200000D02*
X177780000Y-119200000D01*
X167620000Y-131900000D02*
X167620000Y-119200000D01*
X177780000Y-131900000D02*
X167620000Y-131900000D01*
G04 #@! TO.C,U5*
X181549040Y-59611260D02*
X181549040Y-72311260D01*
X171389040Y-59611260D02*
X181549040Y-59611260D01*
X171389040Y-72311260D02*
X171389040Y-59611260D01*
X181549040Y-72311260D02*
X171389040Y-72311260D01*
D16*
G04 #@! TO.C,J1*
X131344980Y-137253020D02*
X131344980Y-134593020D01*
X126204980Y-137253020D02*
X131344980Y-137253020D01*
X126204980Y-134593020D02*
X131344980Y-134593020D01*
X126204980Y-137253020D02*
X126204980Y-134593020D01*
X124934980Y-137253020D02*
X123604980Y-137253020D01*
X123604980Y-137253020D02*
X123604980Y-135923020D01*
G04 #@! TO.C,J2*
X183305000Y-88880000D02*
X183305000Y-86220000D01*
X170545000Y-88880000D02*
X183305000Y-88880000D01*
X170545000Y-86220000D02*
X183305000Y-86220000D01*
X170545000Y-88880000D02*
X170545000Y-86220000D01*
X169275000Y-88880000D02*
X167945000Y-88880000D01*
X167945000Y-88880000D02*
X167945000Y-87550000D01*
G04 #@! TO.C,J3*
X183191460Y-112206080D02*
X183191460Y-109546080D01*
X170431460Y-112206080D02*
X183191460Y-112206080D01*
X170431460Y-109546080D02*
X183191460Y-109546080D01*
X170431460Y-112206080D02*
X170431460Y-109546080D01*
X169161460Y-112206080D02*
X167831460Y-112206080D01*
X167831460Y-112206080D02*
X167831460Y-110876080D01*
G04 #@! TO.C,J4*
X128530000Y-105530000D02*
X128530000Y-102870000D01*
X115770000Y-105530000D02*
X128530000Y-105530000D01*
X115770000Y-102870000D02*
X128530000Y-102870000D01*
X115770000Y-105530000D02*
X115770000Y-102870000D01*
X114500000Y-105530000D02*
X113170000Y-105530000D01*
X113170000Y-105530000D02*
X113170000Y-104200000D01*
G04 #@! TO.C,J5*
X130550000Y-88955000D02*
X130550000Y-87625000D01*
X131880000Y-88955000D02*
X130550000Y-88955000D01*
X133150000Y-88955000D02*
X133150000Y-86295000D01*
X133150000Y-86295000D02*
X145910000Y-86295000D01*
X133150000Y-88955000D02*
X145910000Y-88955000D01*
X145910000Y-88955000D02*
X145910000Y-86295000D01*
G04 #@! TO.C,J6*
X165555000Y-78355000D02*
X165555000Y-75695000D01*
X152795000Y-78355000D02*
X165555000Y-78355000D01*
X152795000Y-75695000D02*
X165555000Y-75695000D01*
X152795000Y-78355000D02*
X152795000Y-75695000D01*
X151525000Y-78355000D02*
X150195000Y-78355000D01*
X150195000Y-78355000D02*
X150195000Y-77025000D01*
D14*
G04 #@! TO.C,U2*
X124780000Y-78925000D02*
X124780000Y-91625000D01*
X114620000Y-78925000D02*
X124780000Y-78925000D01*
X114620000Y-91625000D02*
X114620000Y-78925000D01*
X124780000Y-91625000D02*
X114620000Y-91625000D01*
G04 #@! TO.C,U4*
X162605000Y-64475000D02*
X152445000Y-64475000D01*
X152445000Y-64475000D02*
X152445000Y-51775000D01*
X152445000Y-51775000D02*
X162605000Y-51775000D01*
X162605000Y-51775000D02*
X162605000Y-64475000D01*
D16*
G04 #@! TO.C,J7*
X142005360Y-137369860D02*
X142005360Y-134709860D01*
X139405360Y-137369860D02*
X142005360Y-137369860D01*
X139405360Y-134709860D02*
X142005360Y-134709860D01*
X139405360Y-137369860D02*
X139405360Y-134709860D01*
X138135360Y-137369860D02*
X136805360Y-137369860D01*
X136805360Y-137369860D02*
X136805360Y-136039860D01*
D17*
G04 #@! TO.C,G\002A\002A\002A*
G36*
X137583606Y-110769629D02*
X138015306Y-110822944D01*
X138430429Y-110914738D01*
X138839703Y-111047412D01*
X139253855Y-111223368D01*
X139276425Y-111234080D01*
X139613713Y-111409067D01*
X139921890Y-111600363D01*
X140214887Y-111817670D01*
X140506639Y-112070686D01*
X140587686Y-112147033D01*
X140810310Y-112373245D01*
X141004964Y-112601498D01*
X141179602Y-112843068D01*
X141342178Y-113109234D01*
X141500645Y-113411274D01*
X141547021Y-113507300D01*
X141655220Y-113749601D01*
X141740117Y-113976320D01*
X141809890Y-114211275D01*
X141859506Y-114417529D01*
X141942604Y-114900367D01*
X141975876Y-115375722D01*
X141959172Y-115844509D01*
X141892344Y-116307646D01*
X141775241Y-116766050D01*
X141607715Y-117220638D01*
X141389616Y-117672327D01*
X141304744Y-117823975D01*
X141201199Y-117995786D01*
X141099858Y-118146984D01*
X140991044Y-118290097D01*
X140865081Y-118437654D01*
X140712293Y-118602183D01*
X140668661Y-118647548D01*
X140307300Y-118985652D01*
X139917077Y-119283363D01*
X139501144Y-119538802D01*
X139062656Y-119750088D01*
X138604765Y-119915342D01*
X138483500Y-119950378D01*
X138388605Y-119976584D01*
X138308387Y-119999032D01*
X138259706Y-120013003D01*
X138258742Y-120013292D01*
X138245867Y-120007195D01*
X138269972Y-119971834D01*
X138310152Y-119929047D01*
X138373962Y-119851239D01*
X138424533Y-119765125D01*
X138439659Y-119726743D01*
X138446797Y-119688179D01*
X138452884Y-119621850D01*
X138457976Y-119524879D01*
X138462130Y-119394385D01*
X138465402Y-119227489D01*
X138467848Y-119021311D01*
X138469526Y-118772974D01*
X138470491Y-118479597D01*
X138470800Y-118138490D01*
X138470800Y-116654174D01*
X138406459Y-116525058D01*
X138316680Y-116391498D01*
X138203256Y-116301348D01*
X138068838Y-116256411D01*
X138004416Y-116251431D01*
X137873900Y-116250500D01*
X137881534Y-116606100D01*
X137883257Y-116770272D01*
X137880079Y-116890105D01*
X137871614Y-116971860D01*
X137857479Y-117021796D01*
X137855781Y-117025200D01*
X137794035Y-117094290D01*
X137698141Y-117146668D01*
X137583915Y-117174791D01*
X137536240Y-117177560D01*
X137427180Y-117177600D01*
X137442100Y-119708962D01*
X137519057Y-119833398D01*
X137596090Y-119933172D01*
X137693625Y-120005467D01*
X137729671Y-120024618D01*
X137863328Y-120091403D01*
X137744419Y-120107701D01*
X137678467Y-120112962D01*
X137573962Y-120116849D01*
X137440421Y-120119408D01*
X137287361Y-120120686D01*
X137124298Y-120120727D01*
X136960749Y-120119577D01*
X136806231Y-120117282D01*
X136670260Y-120113889D01*
X136562354Y-120109442D01*
X136492029Y-120103987D01*
X136476900Y-120101609D01*
X136400700Y-120085228D01*
X136507505Y-120053137D01*
X136647778Y-119986418D01*
X136760669Y-119882776D01*
X136822856Y-119782150D01*
X136833530Y-119755741D01*
X136842451Y-119724579D01*
X136849779Y-119684134D01*
X136855671Y-119629879D01*
X136860286Y-119557281D01*
X136863781Y-119461813D01*
X136866317Y-119338944D01*
X136868049Y-119184144D01*
X136869138Y-118992885D01*
X136869741Y-118760636D01*
X136870017Y-118482868D01*
X136870042Y-118432103D01*
X136870600Y-117184707D01*
X136733163Y-117170522D01*
X136599917Y-117142825D01*
X136503649Y-117092598D01*
X136449674Y-117022703D01*
X136447420Y-117016577D01*
X136441146Y-116972113D01*
X136436803Y-116887710D01*
X136434688Y-116774206D01*
X136435099Y-116642436D01*
X136435856Y-116595976D01*
X136436267Y-116575059D01*
X136540400Y-116575059D01*
X136541315Y-116695289D01*
X136545400Y-116775805D01*
X136554659Y-116827678D01*
X136571099Y-116861981D01*
X136596724Y-116889786D01*
X136597550Y-116890539D01*
X136680281Y-116949744D01*
X136749522Y-116963132D01*
X136764727Y-116959687D01*
X136811987Y-116949632D01*
X136821877Y-116949000D01*
X136855296Y-116932673D01*
X136896000Y-116898200D01*
X136919139Y-116869103D01*
X136934058Y-116830242D01*
X136942483Y-116770780D01*
X136946143Y-116679882D01*
X136946800Y-116579545D01*
X136946758Y-116573094D01*
X137353200Y-116573094D01*
X137356008Y-116702327D01*
X137365351Y-116791008D01*
X137382606Y-116849124D01*
X137394017Y-116868972D01*
X137453535Y-116927472D01*
X137523575Y-116960117D01*
X137577527Y-116960111D01*
X137624686Y-116949669D01*
X137634677Y-116949000D01*
X137668096Y-116932673D01*
X137708800Y-116898200D01*
X137731562Y-116869723D01*
X137746386Y-116831797D01*
X137754907Y-116773837D01*
X137758764Y-116685262D01*
X137759600Y-116569843D01*
X137759053Y-116447557D01*
X137755976Y-116365438D01*
X137748215Y-116312853D01*
X137733614Y-116279168D01*
X137710018Y-116253753D01*
X137692674Y-116239643D01*
X137604720Y-116193932D01*
X137519555Y-116198620D01*
X137435001Y-116253884D01*
X137427446Y-116261246D01*
X137392632Y-116298720D01*
X137370847Y-116334986D01*
X137359045Y-116382840D01*
X137354178Y-116455078D01*
X137353201Y-116564493D01*
X137353200Y-116573094D01*
X136946758Y-116573094D01*
X136945996Y-116458599D01*
X136942157Y-116377109D01*
X136933144Y-116323739D01*
X136916815Y-116287153D01*
X136891030Y-116256013D01*
X136884454Y-116249345D01*
X136801344Y-116196939D01*
X136710990Y-116192637D01*
X136622483Y-116236441D01*
X136607608Y-116249287D01*
X136577389Y-116280022D01*
X136557916Y-116312408D01*
X136546836Y-116357855D01*
X136541795Y-116427771D01*
X136540440Y-116533567D01*
X136540400Y-116575059D01*
X136436267Y-116575059D01*
X136443053Y-116230253D01*
X136301400Y-116244873D01*
X136147307Y-116284184D01*
X136019696Y-116364941D01*
X135923232Y-116482716D01*
X135862581Y-116633078D01*
X135854722Y-116668953D01*
X135848714Y-116726945D01*
X135843503Y-116829380D01*
X135839084Y-116970328D01*
X135835452Y-117143862D01*
X135832600Y-117344052D01*
X135830524Y-117564972D01*
X135829216Y-117800693D01*
X135828672Y-118045285D01*
X135828886Y-118292822D01*
X135829851Y-118537375D01*
X135831564Y-118773015D01*
X135834016Y-118993814D01*
X135837204Y-119193844D01*
X135841121Y-119367176D01*
X135845762Y-119507883D01*
X135851120Y-119610035D01*
X135857191Y-119667705D01*
X135857609Y-119669768D01*
X135884247Y-119758901D01*
X135928139Y-119834733D01*
X136001188Y-119917361D01*
X136008800Y-119925019D01*
X136069149Y-119986032D01*
X136111308Y-120029939D01*
X136126529Y-120047617D01*
X136126440Y-120047650D01*
X136101422Y-120041368D01*
X136037342Y-120024416D01*
X135944159Y-119999449D01*
X135841900Y-119971845D01*
X135373886Y-119822954D01*
X134938727Y-119637553D01*
X134531140Y-119412589D01*
X134145842Y-119145015D01*
X133777552Y-118831778D01*
X133642676Y-118701847D01*
X133418865Y-118468732D01*
X133230101Y-118247038D01*
X133066900Y-118023741D01*
X132919775Y-117785816D01*
X132779243Y-117520240D01*
X132773104Y-117507800D01*
X132575383Y-117051576D01*
X132427244Y-116588595D01*
X132328688Y-116121090D01*
X132279714Y-115651295D01*
X132280217Y-115262428D01*
X136034976Y-115262428D01*
X136035113Y-115410679D01*
X136036617Y-115525061D01*
X136039741Y-115611219D01*
X136044738Y-115674795D01*
X136051860Y-115721433D01*
X136061361Y-115756774D01*
X136073492Y-115786463D01*
X136080778Y-115801253D01*
X136166267Y-115914966D01*
X136287095Y-115993214D01*
X136335004Y-116010999D01*
X136376181Y-116015967D01*
X136461349Y-116020192D01*
X136583704Y-116023546D01*
X136736441Y-116025905D01*
X136912754Y-116027142D01*
X137105840Y-116027133D01*
X137188100Y-116026741D01*
X137408827Y-116025295D01*
X137584676Y-116023684D01*
X137721570Y-116021475D01*
X137825429Y-116018235D01*
X137902175Y-116013532D01*
X137957730Y-116006933D01*
X137998016Y-115998005D01*
X138028954Y-115986316D01*
X138056466Y-115971432D01*
X138071539Y-115962190D01*
X138146365Y-115899151D01*
X138209182Y-115819284D01*
X138218547Y-115802573D01*
X138232295Y-115773390D01*
X138243250Y-115741776D01*
X138251670Y-115702080D01*
X138257812Y-115648651D01*
X138261932Y-115575838D01*
X138264286Y-115477991D01*
X138265133Y-115349458D01*
X138264727Y-115184588D01*
X138263328Y-114977730D01*
X138262208Y-114841754D01*
X138260112Y-114609365D01*
X138257953Y-114422314D01*
X138255381Y-114275138D01*
X138252046Y-114162377D01*
X138249265Y-114109978D01*
X138370652Y-114109978D01*
X138377655Y-114230340D01*
X138406684Y-114306209D01*
X138465986Y-114379477D01*
X138557783Y-114447644D01*
X138664260Y-114498574D01*
X138708498Y-114511770D01*
X138751488Y-114516144D01*
X138839112Y-114520302D01*
X138965205Y-114524115D01*
X139123602Y-114527455D01*
X139308136Y-114530194D01*
X139512642Y-114532203D01*
X139730954Y-114533353D01*
X139747150Y-114533400D01*
X140706000Y-114536000D01*
X140706000Y-114134407D01*
X140807599Y-114134407D01*
X140807600Y-114142300D01*
X140807600Y-114510600D01*
X140875218Y-114510600D01*
X140937905Y-114497814D01*
X141016969Y-114465574D01*
X141049415Y-114448140D01*
X141162680Y-114359090D01*
X141230069Y-114256469D01*
X141252156Y-114147277D01*
X141229514Y-114038511D01*
X141162716Y-113937170D01*
X141052337Y-113850253D01*
X140998100Y-113822007D01*
X140926965Y-113789995D01*
X140876188Y-113773918D01*
X140842337Y-113779542D01*
X140821984Y-113812636D01*
X140811696Y-113878966D01*
X140808045Y-113984300D01*
X140807599Y-114134407D01*
X140706000Y-114134407D01*
X140706000Y-113774000D01*
X139709050Y-113774557D01*
X139455303Y-113774858D01*
X139247187Y-113775598D01*
X139079533Y-113776999D01*
X138947172Y-113779281D01*
X138844935Y-113782668D01*
X138767654Y-113787381D01*
X138710160Y-113793641D01*
X138667283Y-113801671D01*
X138633856Y-113811692D01*
X138609449Y-113821743D01*
X138489703Y-113898144D01*
X138409052Y-113996734D01*
X138370652Y-114109978D01*
X138249265Y-114109978D01*
X138247597Y-114078568D01*
X138241684Y-114018250D01*
X138233957Y-113975961D01*
X138224067Y-113946240D01*
X138211663Y-113923624D01*
X138202530Y-113910740D01*
X138142034Y-113842956D01*
X138080017Y-113788269D01*
X138059266Y-113774144D01*
X138035223Y-113762815D01*
X138002425Y-113753974D01*
X137955404Y-113747314D01*
X137888694Y-113742526D01*
X137796831Y-113739303D01*
X137674347Y-113737337D01*
X137515777Y-113736321D01*
X137315655Y-113735945D01*
X137150000Y-113735900D01*
X136917929Y-113736011D01*
X136731191Y-113736551D01*
X136584322Y-113737828D01*
X136471855Y-113740148D01*
X136388324Y-113743820D01*
X136328264Y-113749152D01*
X136286207Y-113756452D01*
X136256689Y-113766026D01*
X136234243Y-113778184D01*
X136219982Y-113788269D01*
X136152167Y-113848752D01*
X136097469Y-113910740D01*
X136083325Y-113931691D01*
X136071914Y-113956353D01*
X136062883Y-113990186D01*
X136055884Y-114038653D01*
X136050566Y-114107216D01*
X136046579Y-114201335D01*
X136043574Y-114326474D01*
X136041199Y-114488092D01*
X136039105Y-114691653D01*
X136037791Y-114841754D01*
X136035953Y-115074668D01*
X136034976Y-115262428D01*
X132280217Y-115262428D01*
X132280322Y-115181443D01*
X132330512Y-114713769D01*
X132430284Y-114250505D01*
X132473136Y-114119493D01*
X132908294Y-114119493D01*
X132931056Y-114215889D01*
X132991688Y-114311716D01*
X133078372Y-114395828D01*
X133179292Y-114457078D01*
X133282631Y-114484320D01*
X133295550Y-114484782D01*
X133365400Y-114485200D01*
X133365400Y-114221503D01*
X133470929Y-114221503D01*
X133471268Y-114335933D01*
X133473451Y-114423251D01*
X133477317Y-114473137D01*
X133478747Y-114479177D01*
X133489646Y-114487892D01*
X133517801Y-114494911D01*
X133567456Y-114500341D01*
X133642851Y-114504290D01*
X133748229Y-114506866D01*
X133887829Y-114508176D01*
X134065895Y-114508329D01*
X134286668Y-114507431D01*
X134527247Y-114505800D01*
X134783983Y-114503767D01*
X134994992Y-114501771D01*
X135165349Y-114499527D01*
X135300125Y-114496752D01*
X135404395Y-114493160D01*
X135483232Y-114488467D01*
X135541708Y-114482388D01*
X135584896Y-114474640D01*
X135617870Y-114464937D01*
X135645702Y-114452995D01*
X135667254Y-114441863D01*
X135791686Y-114353566D01*
X135870875Y-114250891D01*
X135905211Y-114140969D01*
X135895084Y-114030932D01*
X135840884Y-113927909D01*
X135743002Y-113839032D01*
X135631166Y-113781998D01*
X135597234Y-113770351D01*
X135558215Y-113760831D01*
X135508920Y-113753225D01*
X135444156Y-113747324D01*
X135358732Y-113742916D01*
X135247456Y-113739791D01*
X135105138Y-113737738D01*
X134926586Y-113736546D01*
X134706609Y-113736006D01*
X134495700Y-113735900D01*
X133479700Y-113735900D01*
X133472599Y-114090276D01*
X133470929Y-114221503D01*
X133365400Y-114221503D01*
X133365400Y-113741953D01*
X133275458Y-113756548D01*
X133150149Y-113796541D01*
X133041760Y-113867777D01*
X132959964Y-113960691D01*
X132914435Y-114065721D01*
X132908294Y-114119493D01*
X132473136Y-114119493D01*
X132579638Y-113793886D01*
X132773481Y-113356246D01*
X132882299Y-113151700D01*
X136352514Y-113151700D01*
X136360893Y-113306475D01*
X136384455Y-113423154D01*
X136394597Y-113450150D01*
X136424258Y-113508999D01*
X136457638Y-113536725D01*
X136513928Y-113544957D01*
X136551803Y-113545400D01*
X136667400Y-113545400D01*
X136667494Y-113386650D01*
X136683835Y-113231936D01*
X136733890Y-113113786D01*
X136819518Y-113030480D01*
X136942578Y-112980298D01*
X137104929Y-112961519D01*
X137127193Y-112961294D01*
X137237226Y-112964220D01*
X137313489Y-112975436D01*
X137372782Y-112998403D01*
X137406593Y-113018856D01*
X137503394Y-113111571D01*
X137561491Y-113235372D01*
X137581726Y-113392091D01*
X137581760Y-113399350D01*
X137581800Y-113545400D01*
X137693342Y-113545400D01*
X137763449Y-113542237D01*
X137803160Y-113524048D01*
X137831359Y-113477777D01*
X137847528Y-113438821D01*
X137895827Y-113252662D01*
X137897791Y-113061240D01*
X137855183Y-112874891D01*
X137769767Y-112703948D01*
X137708438Y-112623918D01*
X137566142Y-112497828D01*
X137402655Y-112412536D01*
X137226330Y-112368147D01*
X137045523Y-112364764D01*
X136868589Y-112402490D01*
X136703883Y-112481430D01*
X136559761Y-112601685D01*
X136552510Y-112609597D01*
X136450032Y-112743841D01*
X136386694Y-112882494D01*
X136356787Y-113041028D01*
X136352514Y-113151700D01*
X132882299Y-113151700D01*
X132921312Y-113078369D01*
X133068693Y-112837504D01*
X133224883Y-112620800D01*
X133399137Y-112415403D01*
X133599013Y-112210112D01*
X133856396Y-111970261D01*
X134100163Y-111766206D01*
X134341963Y-111589673D01*
X134593443Y-111432385D01*
X134866253Y-111286066D01*
X134972774Y-111234080D01*
X135387492Y-111055734D01*
X135796755Y-110920798D01*
X136211291Y-110826872D01*
X136641830Y-110771553D01*
X137099098Y-110752440D01*
X137124600Y-110752391D01*
X137583606Y-110769629D01*
X137583606Y-110769629D01*
G37*
X137583606Y-110769629D02*
X138015306Y-110822944D01*
X138430429Y-110914738D01*
X138839703Y-111047412D01*
X139253855Y-111223368D01*
X139276425Y-111234080D01*
X139613713Y-111409067D01*
X139921890Y-111600363D01*
X140214887Y-111817670D01*
X140506639Y-112070686D01*
X140587686Y-112147033D01*
X140810310Y-112373245D01*
X141004964Y-112601498D01*
X141179602Y-112843068D01*
X141342178Y-113109234D01*
X141500645Y-113411274D01*
X141547021Y-113507300D01*
X141655220Y-113749601D01*
X141740117Y-113976320D01*
X141809890Y-114211275D01*
X141859506Y-114417529D01*
X141942604Y-114900367D01*
X141975876Y-115375722D01*
X141959172Y-115844509D01*
X141892344Y-116307646D01*
X141775241Y-116766050D01*
X141607715Y-117220638D01*
X141389616Y-117672327D01*
X141304744Y-117823975D01*
X141201199Y-117995786D01*
X141099858Y-118146984D01*
X140991044Y-118290097D01*
X140865081Y-118437654D01*
X140712293Y-118602183D01*
X140668661Y-118647548D01*
X140307300Y-118985652D01*
X139917077Y-119283363D01*
X139501144Y-119538802D01*
X139062656Y-119750088D01*
X138604765Y-119915342D01*
X138483500Y-119950378D01*
X138388605Y-119976584D01*
X138308387Y-119999032D01*
X138259706Y-120013003D01*
X138258742Y-120013292D01*
X138245867Y-120007195D01*
X138269972Y-119971834D01*
X138310152Y-119929047D01*
X138373962Y-119851239D01*
X138424533Y-119765125D01*
X138439659Y-119726743D01*
X138446797Y-119688179D01*
X138452884Y-119621850D01*
X138457976Y-119524879D01*
X138462130Y-119394385D01*
X138465402Y-119227489D01*
X138467848Y-119021311D01*
X138469526Y-118772974D01*
X138470491Y-118479597D01*
X138470800Y-118138490D01*
X138470800Y-116654174D01*
X138406459Y-116525058D01*
X138316680Y-116391498D01*
X138203256Y-116301348D01*
X138068838Y-116256411D01*
X138004416Y-116251431D01*
X137873900Y-116250500D01*
X137881534Y-116606100D01*
X137883257Y-116770272D01*
X137880079Y-116890105D01*
X137871614Y-116971860D01*
X137857479Y-117021796D01*
X137855781Y-117025200D01*
X137794035Y-117094290D01*
X137698141Y-117146668D01*
X137583915Y-117174791D01*
X137536240Y-117177560D01*
X137427180Y-117177600D01*
X137442100Y-119708962D01*
X137519057Y-119833398D01*
X137596090Y-119933172D01*
X137693625Y-120005467D01*
X137729671Y-120024618D01*
X137863328Y-120091403D01*
X137744419Y-120107701D01*
X137678467Y-120112962D01*
X137573962Y-120116849D01*
X137440421Y-120119408D01*
X137287361Y-120120686D01*
X137124298Y-120120727D01*
X136960749Y-120119577D01*
X136806231Y-120117282D01*
X136670260Y-120113889D01*
X136562354Y-120109442D01*
X136492029Y-120103987D01*
X136476900Y-120101609D01*
X136400700Y-120085228D01*
X136507505Y-120053137D01*
X136647778Y-119986418D01*
X136760669Y-119882776D01*
X136822856Y-119782150D01*
X136833530Y-119755741D01*
X136842451Y-119724579D01*
X136849779Y-119684134D01*
X136855671Y-119629879D01*
X136860286Y-119557281D01*
X136863781Y-119461813D01*
X136866317Y-119338944D01*
X136868049Y-119184144D01*
X136869138Y-118992885D01*
X136869741Y-118760636D01*
X136870017Y-118482868D01*
X136870042Y-118432103D01*
X136870600Y-117184707D01*
X136733163Y-117170522D01*
X136599917Y-117142825D01*
X136503649Y-117092598D01*
X136449674Y-117022703D01*
X136447420Y-117016577D01*
X136441146Y-116972113D01*
X136436803Y-116887710D01*
X136434688Y-116774206D01*
X136435099Y-116642436D01*
X136435856Y-116595976D01*
X136436267Y-116575059D01*
X136540400Y-116575059D01*
X136541315Y-116695289D01*
X136545400Y-116775805D01*
X136554659Y-116827678D01*
X136571099Y-116861981D01*
X136596724Y-116889786D01*
X136597550Y-116890539D01*
X136680281Y-116949744D01*
X136749522Y-116963132D01*
X136764727Y-116959687D01*
X136811987Y-116949632D01*
X136821877Y-116949000D01*
X136855296Y-116932673D01*
X136896000Y-116898200D01*
X136919139Y-116869103D01*
X136934058Y-116830242D01*
X136942483Y-116770780D01*
X136946143Y-116679882D01*
X136946800Y-116579545D01*
X136946758Y-116573094D01*
X137353200Y-116573094D01*
X137356008Y-116702327D01*
X137365351Y-116791008D01*
X137382606Y-116849124D01*
X137394017Y-116868972D01*
X137453535Y-116927472D01*
X137523575Y-116960117D01*
X137577527Y-116960111D01*
X137624686Y-116949669D01*
X137634677Y-116949000D01*
X137668096Y-116932673D01*
X137708800Y-116898200D01*
X137731562Y-116869723D01*
X137746386Y-116831797D01*
X137754907Y-116773837D01*
X137758764Y-116685262D01*
X137759600Y-116569843D01*
X137759053Y-116447557D01*
X137755976Y-116365438D01*
X137748215Y-116312853D01*
X137733614Y-116279168D01*
X137710018Y-116253753D01*
X137692674Y-116239643D01*
X137604720Y-116193932D01*
X137519555Y-116198620D01*
X137435001Y-116253884D01*
X137427446Y-116261246D01*
X137392632Y-116298720D01*
X137370847Y-116334986D01*
X137359045Y-116382840D01*
X137354178Y-116455078D01*
X137353201Y-116564493D01*
X137353200Y-116573094D01*
X136946758Y-116573094D01*
X136945996Y-116458599D01*
X136942157Y-116377109D01*
X136933144Y-116323739D01*
X136916815Y-116287153D01*
X136891030Y-116256013D01*
X136884454Y-116249345D01*
X136801344Y-116196939D01*
X136710990Y-116192637D01*
X136622483Y-116236441D01*
X136607608Y-116249287D01*
X136577389Y-116280022D01*
X136557916Y-116312408D01*
X136546836Y-116357855D01*
X136541795Y-116427771D01*
X136540440Y-116533567D01*
X136540400Y-116575059D01*
X136436267Y-116575059D01*
X136443053Y-116230253D01*
X136301400Y-116244873D01*
X136147307Y-116284184D01*
X136019696Y-116364941D01*
X135923232Y-116482716D01*
X135862581Y-116633078D01*
X135854722Y-116668953D01*
X135848714Y-116726945D01*
X135843503Y-116829380D01*
X135839084Y-116970328D01*
X135835452Y-117143862D01*
X135832600Y-117344052D01*
X135830524Y-117564972D01*
X135829216Y-117800693D01*
X135828672Y-118045285D01*
X135828886Y-118292822D01*
X135829851Y-118537375D01*
X135831564Y-118773015D01*
X135834016Y-118993814D01*
X135837204Y-119193844D01*
X135841121Y-119367176D01*
X135845762Y-119507883D01*
X135851120Y-119610035D01*
X135857191Y-119667705D01*
X135857609Y-119669768D01*
X135884247Y-119758901D01*
X135928139Y-119834733D01*
X136001188Y-119917361D01*
X136008800Y-119925019D01*
X136069149Y-119986032D01*
X136111308Y-120029939D01*
X136126529Y-120047617D01*
X136126440Y-120047650D01*
X136101422Y-120041368D01*
X136037342Y-120024416D01*
X135944159Y-119999449D01*
X135841900Y-119971845D01*
X135373886Y-119822954D01*
X134938727Y-119637553D01*
X134531140Y-119412589D01*
X134145842Y-119145015D01*
X133777552Y-118831778D01*
X133642676Y-118701847D01*
X133418865Y-118468732D01*
X133230101Y-118247038D01*
X133066900Y-118023741D01*
X132919775Y-117785816D01*
X132779243Y-117520240D01*
X132773104Y-117507800D01*
X132575383Y-117051576D01*
X132427244Y-116588595D01*
X132328688Y-116121090D01*
X132279714Y-115651295D01*
X132280217Y-115262428D01*
X136034976Y-115262428D01*
X136035113Y-115410679D01*
X136036617Y-115525061D01*
X136039741Y-115611219D01*
X136044738Y-115674795D01*
X136051860Y-115721433D01*
X136061361Y-115756774D01*
X136073492Y-115786463D01*
X136080778Y-115801253D01*
X136166267Y-115914966D01*
X136287095Y-115993214D01*
X136335004Y-116010999D01*
X136376181Y-116015967D01*
X136461349Y-116020192D01*
X136583704Y-116023546D01*
X136736441Y-116025905D01*
X136912754Y-116027142D01*
X137105840Y-116027133D01*
X137188100Y-116026741D01*
X137408827Y-116025295D01*
X137584676Y-116023684D01*
X137721570Y-116021475D01*
X137825429Y-116018235D01*
X137902175Y-116013532D01*
X137957730Y-116006933D01*
X137998016Y-115998005D01*
X138028954Y-115986316D01*
X138056466Y-115971432D01*
X138071539Y-115962190D01*
X138146365Y-115899151D01*
X138209182Y-115819284D01*
X138218547Y-115802573D01*
X138232295Y-115773390D01*
X138243250Y-115741776D01*
X138251670Y-115702080D01*
X138257812Y-115648651D01*
X138261932Y-115575838D01*
X138264286Y-115477991D01*
X138265133Y-115349458D01*
X138264727Y-115184588D01*
X138263328Y-114977730D01*
X138262208Y-114841754D01*
X138260112Y-114609365D01*
X138257953Y-114422314D01*
X138255381Y-114275138D01*
X138252046Y-114162377D01*
X138249265Y-114109978D01*
X138370652Y-114109978D01*
X138377655Y-114230340D01*
X138406684Y-114306209D01*
X138465986Y-114379477D01*
X138557783Y-114447644D01*
X138664260Y-114498574D01*
X138708498Y-114511770D01*
X138751488Y-114516144D01*
X138839112Y-114520302D01*
X138965205Y-114524115D01*
X139123602Y-114527455D01*
X139308136Y-114530194D01*
X139512642Y-114532203D01*
X139730954Y-114533353D01*
X139747150Y-114533400D01*
X140706000Y-114536000D01*
X140706000Y-114134407D01*
X140807599Y-114134407D01*
X140807600Y-114142300D01*
X140807600Y-114510600D01*
X140875218Y-114510600D01*
X140937905Y-114497814D01*
X141016969Y-114465574D01*
X141049415Y-114448140D01*
X141162680Y-114359090D01*
X141230069Y-114256469D01*
X141252156Y-114147277D01*
X141229514Y-114038511D01*
X141162716Y-113937170D01*
X141052337Y-113850253D01*
X140998100Y-113822007D01*
X140926965Y-113789995D01*
X140876188Y-113773918D01*
X140842337Y-113779542D01*
X140821984Y-113812636D01*
X140811696Y-113878966D01*
X140808045Y-113984300D01*
X140807599Y-114134407D01*
X140706000Y-114134407D01*
X140706000Y-113774000D01*
X139709050Y-113774557D01*
X139455303Y-113774858D01*
X139247187Y-113775598D01*
X139079533Y-113776999D01*
X138947172Y-113779281D01*
X138844935Y-113782668D01*
X138767654Y-113787381D01*
X138710160Y-113793641D01*
X138667283Y-113801671D01*
X138633856Y-113811692D01*
X138609449Y-113821743D01*
X138489703Y-113898144D01*
X138409052Y-113996734D01*
X138370652Y-114109978D01*
X138249265Y-114109978D01*
X138247597Y-114078568D01*
X138241684Y-114018250D01*
X138233957Y-113975961D01*
X138224067Y-113946240D01*
X138211663Y-113923624D01*
X138202530Y-113910740D01*
X138142034Y-113842956D01*
X138080017Y-113788269D01*
X138059266Y-113774144D01*
X138035223Y-113762815D01*
X138002425Y-113753974D01*
X137955404Y-113747314D01*
X137888694Y-113742526D01*
X137796831Y-113739303D01*
X137674347Y-113737337D01*
X137515777Y-113736321D01*
X137315655Y-113735945D01*
X137150000Y-113735900D01*
X136917929Y-113736011D01*
X136731191Y-113736551D01*
X136584322Y-113737828D01*
X136471855Y-113740148D01*
X136388324Y-113743820D01*
X136328264Y-113749152D01*
X136286207Y-113756452D01*
X136256689Y-113766026D01*
X136234243Y-113778184D01*
X136219982Y-113788269D01*
X136152167Y-113848752D01*
X136097469Y-113910740D01*
X136083325Y-113931691D01*
X136071914Y-113956353D01*
X136062883Y-113990186D01*
X136055884Y-114038653D01*
X136050566Y-114107216D01*
X136046579Y-114201335D01*
X136043574Y-114326474D01*
X136041199Y-114488092D01*
X136039105Y-114691653D01*
X136037791Y-114841754D01*
X136035953Y-115074668D01*
X136034976Y-115262428D01*
X132280217Y-115262428D01*
X132280322Y-115181443D01*
X132330512Y-114713769D01*
X132430284Y-114250505D01*
X132473136Y-114119493D01*
X132908294Y-114119493D01*
X132931056Y-114215889D01*
X132991688Y-114311716D01*
X133078372Y-114395828D01*
X133179292Y-114457078D01*
X133282631Y-114484320D01*
X133295550Y-114484782D01*
X133365400Y-114485200D01*
X133365400Y-114221503D01*
X133470929Y-114221503D01*
X133471268Y-114335933D01*
X133473451Y-114423251D01*
X133477317Y-114473137D01*
X133478747Y-114479177D01*
X133489646Y-114487892D01*
X133517801Y-114494911D01*
X133567456Y-114500341D01*
X133642851Y-114504290D01*
X133748229Y-114506866D01*
X133887829Y-114508176D01*
X134065895Y-114508329D01*
X134286668Y-114507431D01*
X134527247Y-114505800D01*
X134783983Y-114503767D01*
X134994992Y-114501771D01*
X135165349Y-114499527D01*
X135300125Y-114496752D01*
X135404395Y-114493160D01*
X135483232Y-114488467D01*
X135541708Y-114482388D01*
X135584896Y-114474640D01*
X135617870Y-114464937D01*
X135645702Y-114452995D01*
X135667254Y-114441863D01*
X135791686Y-114353566D01*
X135870875Y-114250891D01*
X135905211Y-114140969D01*
X135895084Y-114030932D01*
X135840884Y-113927909D01*
X135743002Y-113839032D01*
X135631166Y-113781998D01*
X135597234Y-113770351D01*
X135558215Y-113760831D01*
X135508920Y-113753225D01*
X135444156Y-113747324D01*
X135358732Y-113742916D01*
X135247456Y-113739791D01*
X135105138Y-113737738D01*
X134926586Y-113736546D01*
X134706609Y-113736006D01*
X134495700Y-113735900D01*
X133479700Y-113735900D01*
X133472599Y-114090276D01*
X133470929Y-114221503D01*
X133365400Y-114221503D01*
X133365400Y-113741953D01*
X133275458Y-113756548D01*
X133150149Y-113796541D01*
X133041760Y-113867777D01*
X132959964Y-113960691D01*
X132914435Y-114065721D01*
X132908294Y-114119493D01*
X132473136Y-114119493D01*
X132579638Y-113793886D01*
X132773481Y-113356246D01*
X132882299Y-113151700D01*
X136352514Y-113151700D01*
X136360893Y-113306475D01*
X136384455Y-113423154D01*
X136394597Y-113450150D01*
X136424258Y-113508999D01*
X136457638Y-113536725D01*
X136513928Y-113544957D01*
X136551803Y-113545400D01*
X136667400Y-113545400D01*
X136667494Y-113386650D01*
X136683835Y-113231936D01*
X136733890Y-113113786D01*
X136819518Y-113030480D01*
X136942578Y-112980298D01*
X137104929Y-112961519D01*
X137127193Y-112961294D01*
X137237226Y-112964220D01*
X137313489Y-112975436D01*
X137372782Y-112998403D01*
X137406593Y-113018856D01*
X137503394Y-113111571D01*
X137561491Y-113235372D01*
X137581726Y-113392091D01*
X137581760Y-113399350D01*
X137581800Y-113545400D01*
X137693342Y-113545400D01*
X137763449Y-113542237D01*
X137803160Y-113524048D01*
X137831359Y-113477777D01*
X137847528Y-113438821D01*
X137895827Y-113252662D01*
X137897791Y-113061240D01*
X137855183Y-112874891D01*
X137769767Y-112703948D01*
X137708438Y-112623918D01*
X137566142Y-112497828D01*
X137402655Y-112412536D01*
X137226330Y-112368147D01*
X137045523Y-112364764D01*
X136868589Y-112402490D01*
X136703883Y-112481430D01*
X136559761Y-112601685D01*
X136552510Y-112609597D01*
X136450032Y-112743841D01*
X136386694Y-112882494D01*
X136356787Y-113041028D01*
X136352514Y-113151700D01*
X132882299Y-113151700D01*
X132921312Y-113078369D01*
X133068693Y-112837504D01*
X133224883Y-112620800D01*
X133399137Y-112415403D01*
X133599013Y-112210112D01*
X133856396Y-111970261D01*
X134100163Y-111766206D01*
X134341963Y-111589673D01*
X134593443Y-111432385D01*
X134866253Y-111286066D01*
X134972774Y-111234080D01*
X135387492Y-111055734D01*
X135796755Y-110920798D01*
X136211291Y-110826872D01*
X136641830Y-110771553D01*
X137099098Y-110752440D01*
X137124600Y-110752391D01*
X137583606Y-110769629D01*
G04 #@! TO.C,U3*
D15*
X131156460Y-68961904D02*
X131965984Y-68961904D01*
X132061222Y-68914285D01*
X132108841Y-68866666D01*
X132156460Y-68771428D01*
X132156460Y-68580952D01*
X132108841Y-68485714D01*
X132061222Y-68438095D01*
X131965984Y-68390476D01*
X131156460Y-68390476D01*
X131156460Y-68009523D02*
X131156460Y-67390476D01*
X131537413Y-67723809D01*
X131537413Y-67580952D01*
X131585032Y-67485714D01*
X131632651Y-67438095D01*
X131727889Y-67390476D01*
X131965984Y-67390476D01*
X132061222Y-67438095D01*
X132108841Y-67485714D01*
X132156460Y-67580952D01*
X132156460Y-67866666D01*
X132108841Y-67961904D01*
X132061222Y-68009523D01*
D11*
X144240476Y-90000000D02*
X144164285Y-89961904D01*
X144050000Y-89961904D01*
X143935714Y-90000000D01*
X143859523Y-90076190D01*
X143821428Y-90152380D01*
X143783333Y-90304761D01*
X143783333Y-90419047D01*
X143821428Y-90571428D01*
X143859523Y-90647619D01*
X143935714Y-90723809D01*
X144050000Y-90761904D01*
X144126190Y-90761904D01*
X144240476Y-90723809D01*
X144278571Y-90685714D01*
X144278571Y-90419047D01*
X144126190Y-90419047D01*
X144621428Y-90761904D02*
X144621428Y-89961904D01*
X145078571Y-90761904D01*
X145078571Y-89961904D01*
X145459523Y-90761904D02*
X145459523Y-89961904D01*
X145650000Y-89961904D01*
X145764285Y-90000000D01*
X145840476Y-90076190D01*
X145878571Y-90152380D01*
X145916666Y-90304761D01*
X145916666Y-90419047D01*
X145878571Y-90571428D01*
X145840476Y-90647619D01*
X145764285Y-90723809D01*
X145650000Y-90761904D01*
X145459523Y-90761904D01*
X131094556Y-72880000D02*
X131018365Y-72841904D01*
X130904080Y-72841904D01*
X130789794Y-72880000D01*
X130713603Y-72956190D01*
X130675508Y-73032380D01*
X130637413Y-73184761D01*
X130637413Y-73299047D01*
X130675508Y-73451428D01*
X130713603Y-73527619D01*
X130789794Y-73603809D01*
X130904080Y-73641904D01*
X130980270Y-73641904D01*
X131094556Y-73603809D01*
X131132651Y-73565714D01*
X131132651Y-73299047D01*
X130980270Y-73299047D01*
X131475508Y-73641904D02*
X131475508Y-72841904D01*
X131932651Y-73641904D01*
X131932651Y-72841904D01*
X132313603Y-73641904D02*
X132313603Y-72841904D01*
X132504080Y-72841904D01*
X132618365Y-72880000D01*
X132694556Y-72956190D01*
X132732651Y-73032380D01*
X132770746Y-73184761D01*
X132770746Y-73299047D01*
X132732651Y-73451428D01*
X132694556Y-73527619D01*
X132618365Y-73603809D01*
X132504080Y-73641904D01*
X132313603Y-73641904D01*
G04 #@! TO.C,U1*
D15*
X145217380Y-120436904D02*
X146026904Y-120436904D01*
X146122142Y-120389285D01*
X146169761Y-120341666D01*
X146217380Y-120246428D01*
X146217380Y-120055952D01*
X146169761Y-119960714D01*
X146122142Y-119913095D01*
X146026904Y-119865476D01*
X145217380Y-119865476D01*
X146217380Y-118865476D02*
X146217380Y-119436904D01*
X146217380Y-119151190D02*
X145217380Y-119151190D01*
X145360238Y-119246428D01*
X145455476Y-119341666D01*
X145503095Y-119436904D01*
X151908809Y-125477380D02*
X152480238Y-125477380D01*
X152194523Y-126477380D02*
X152194523Y-125477380D01*
X152718333Y-125477380D02*
X153337380Y-125477380D01*
X153004047Y-125858333D01*
X153146904Y-125858333D01*
X153242142Y-125905952D01*
X153289761Y-125953571D01*
X153337380Y-126048809D01*
X153337380Y-126286904D01*
X153289761Y-126382142D01*
X153242142Y-126429761D01*
X153146904Y-126477380D01*
X152861190Y-126477380D01*
X152765952Y-126429761D01*
X152718333Y-126382142D01*
X153765952Y-126382142D02*
X153813571Y-126429761D01*
X153765952Y-126477380D01*
X153718333Y-126429761D01*
X153765952Y-126382142D01*
X153765952Y-126477380D01*
X154765952Y-126477380D02*
X154194523Y-126477380D01*
X154480238Y-126477380D02*
X154480238Y-125477380D01*
X154385000Y-125620238D01*
X154289761Y-125715476D01*
X154194523Y-125763095D01*
X151908809Y-129287380D02*
X152480238Y-129287380D01*
X152194523Y-130287380D02*
X152194523Y-129287380D01*
X152718333Y-129287380D02*
X153337380Y-129287380D01*
X153004047Y-129668333D01*
X153146904Y-129668333D01*
X153242142Y-129715952D01*
X153289761Y-129763571D01*
X153337380Y-129858809D01*
X153337380Y-130096904D01*
X153289761Y-130192142D01*
X153242142Y-130239761D01*
X153146904Y-130287380D01*
X152861190Y-130287380D01*
X152765952Y-130239761D01*
X152718333Y-130192142D01*
X153765952Y-130192142D02*
X153813571Y-130239761D01*
X153765952Y-130287380D01*
X153718333Y-130239761D01*
X153765952Y-130192142D01*
X153765952Y-130287380D01*
X154194523Y-129382619D02*
X154242142Y-129335000D01*
X154337380Y-129287380D01*
X154575476Y-129287380D01*
X154670714Y-129335000D01*
X154718333Y-129382619D01*
X154765952Y-129477857D01*
X154765952Y-129573095D01*
X154718333Y-129715952D01*
X154146904Y-130287380D01*
X154765952Y-130287380D01*
G04 #@! TO.C,U6*
X171938095Y-133002380D02*
X171938095Y-133811904D01*
X171985714Y-133907142D01*
X172033333Y-133954761D01*
X172128571Y-134002380D01*
X172319047Y-134002380D01*
X172414285Y-133954761D01*
X172461904Y-133907142D01*
X172509523Y-133811904D01*
X172509523Y-133002380D01*
X173414285Y-133002380D02*
X173223809Y-133002380D01*
X173128571Y-133050000D01*
X173080952Y-133097619D01*
X172985714Y-133240476D01*
X172938095Y-133430952D01*
X172938095Y-133811904D01*
X172985714Y-133907142D01*
X173033333Y-133954761D01*
X173128571Y-134002380D01*
X173319047Y-134002380D01*
X173414285Y-133954761D01*
X173461904Y-133907142D01*
X173509523Y-133811904D01*
X173509523Y-133573809D01*
X173461904Y-133478571D01*
X173414285Y-133430952D01*
X173319047Y-133383333D01*
X173128571Y-133383333D01*
X173033333Y-133430952D01*
X172985714Y-133478571D01*
X172938095Y-133573809D01*
D11*
X140959356Y-138730000D02*
X140883165Y-138691904D01*
X140768880Y-138691904D01*
X140654594Y-138730000D01*
X140578403Y-138806190D01*
X140540308Y-138882380D01*
X140502213Y-139034761D01*
X140502213Y-139149047D01*
X140540308Y-139301428D01*
X140578403Y-139377619D01*
X140654594Y-139453809D01*
X140768880Y-139491904D01*
X140845070Y-139491904D01*
X140959356Y-139453809D01*
X140997451Y-139415714D01*
X140997451Y-139149047D01*
X140845070Y-139149047D01*
X141340308Y-139491904D02*
X141340308Y-138691904D01*
X141797451Y-139491904D01*
X141797451Y-138691904D01*
X142178403Y-139491904D02*
X142178403Y-138691904D01*
X142368880Y-138691904D01*
X142483165Y-138730000D01*
X142559356Y-138806190D01*
X142597451Y-138882380D01*
X142635546Y-139034761D01*
X142635546Y-139149047D01*
X142597451Y-139301428D01*
X142559356Y-139377619D01*
X142483165Y-139453809D01*
X142368880Y-139491904D01*
X142178403Y-139491904D01*
X181934356Y-113505000D02*
X181858165Y-113466904D01*
X181743880Y-113466904D01*
X181629594Y-113505000D01*
X181553403Y-113581190D01*
X181515308Y-113657380D01*
X181477213Y-113809761D01*
X181477213Y-113924047D01*
X181515308Y-114076428D01*
X181553403Y-114152619D01*
X181629594Y-114228809D01*
X181743880Y-114266904D01*
X181820070Y-114266904D01*
X181934356Y-114228809D01*
X181972451Y-114190714D01*
X181972451Y-113924047D01*
X181820070Y-113924047D01*
X182315308Y-114266904D02*
X182315308Y-113466904D01*
X182772451Y-114266904D01*
X182772451Y-113466904D01*
X183153403Y-114266904D02*
X183153403Y-113466904D01*
X183343880Y-113466904D01*
X183458165Y-113505000D01*
X183534356Y-113581190D01*
X183572451Y-113657380D01*
X183610546Y-113809761D01*
X183610546Y-113924047D01*
X183572451Y-114076428D01*
X183534356Y-114152619D01*
X183458165Y-114228809D01*
X183343880Y-114266904D01*
X183153403Y-114266904D01*
G04 #@! TO.C,U5*
D15*
X169571420Y-66723164D02*
X170380944Y-66723164D01*
X170476182Y-66675545D01*
X170523801Y-66627926D01*
X170571420Y-66532688D01*
X170571420Y-66342212D01*
X170523801Y-66246974D01*
X170476182Y-66199355D01*
X170380944Y-66151736D01*
X169571420Y-66151736D01*
X169571420Y-65199355D02*
X169571420Y-65675545D01*
X170047611Y-65723164D01*
X169999992Y-65675545D01*
X169952373Y-65580307D01*
X169952373Y-65342212D01*
X169999992Y-65246974D01*
X170047611Y-65199355D01*
X170142849Y-65151736D01*
X170380944Y-65151736D01*
X170476182Y-65199355D01*
X170523801Y-65246974D01*
X170571420Y-65342212D01*
X170571420Y-65580307D01*
X170523801Y-65675545D01*
X170476182Y-65723164D01*
D11*
X169509516Y-70641260D02*
X169433325Y-70603164D01*
X169319040Y-70603164D01*
X169204754Y-70641260D01*
X169128563Y-70717450D01*
X169090468Y-70793640D01*
X169052373Y-70946021D01*
X169052373Y-71060307D01*
X169090468Y-71212688D01*
X169128563Y-71288879D01*
X169204754Y-71365069D01*
X169319040Y-71403164D01*
X169395230Y-71403164D01*
X169509516Y-71365069D01*
X169547611Y-71326974D01*
X169547611Y-71060307D01*
X169395230Y-71060307D01*
X169890468Y-71403164D02*
X169890468Y-70603164D01*
X170347611Y-71403164D01*
X170347611Y-70603164D01*
X170728563Y-71403164D02*
X170728563Y-70603164D01*
X170919040Y-70603164D01*
X171033325Y-70641260D01*
X171109516Y-70717450D01*
X171147611Y-70793640D01*
X171185706Y-70946021D01*
X171185706Y-71060307D01*
X171147611Y-71212688D01*
X171109516Y-71288879D01*
X171033325Y-71365069D01*
X170919040Y-71403164D01*
X170728563Y-71403164D01*
X182209516Y-70641260D02*
X182133325Y-70603164D01*
X182019040Y-70603164D01*
X181904754Y-70641260D01*
X181828563Y-70717450D01*
X181790468Y-70793640D01*
X181752373Y-70946021D01*
X181752373Y-71060307D01*
X181790468Y-71212688D01*
X181828563Y-71288879D01*
X181904754Y-71365069D01*
X182019040Y-71403164D01*
X182095230Y-71403164D01*
X182209516Y-71365069D01*
X182247611Y-71326974D01*
X182247611Y-71060307D01*
X182095230Y-71060307D01*
X182590468Y-71403164D02*
X182590468Y-70603164D01*
X183047611Y-71403164D01*
X183047611Y-70603164D01*
X183428563Y-71403164D02*
X183428563Y-70603164D01*
X183619040Y-70603164D01*
X183733325Y-70641260D01*
X183809516Y-70717450D01*
X183847611Y-70793640D01*
X183885706Y-70946021D01*
X183885706Y-71060307D01*
X183847611Y-71212688D01*
X183809516Y-71288879D01*
X183733325Y-71365069D01*
X183619040Y-71403164D01*
X183428563Y-71403164D01*
G04 #@! TO.C,J1*
D15*
X121141706Y-135280520D02*
X121141706Y-135994806D01*
X121094087Y-136137663D01*
X120998849Y-136232901D01*
X120855992Y-136280520D01*
X120760754Y-136280520D01*
X122141706Y-136280520D02*
X121570278Y-136280520D01*
X121855992Y-136280520D02*
X121855992Y-135280520D01*
X121760754Y-135423378D01*
X121665516Y-135518616D01*
X121570278Y-135566235D01*
G04 #@! TO.C,J2*
X167930646Y-84193100D02*
X167930646Y-84907386D01*
X167883027Y-85050243D01*
X167787789Y-85145481D01*
X167644932Y-85193100D01*
X167549694Y-85193100D01*
X168359218Y-84288339D02*
X168406837Y-84240720D01*
X168502075Y-84193100D01*
X168740170Y-84193100D01*
X168835408Y-84240720D01*
X168883027Y-84288339D01*
X168930646Y-84383577D01*
X168930646Y-84478815D01*
X168883027Y-84621672D01*
X168311599Y-85193100D01*
X168930646Y-85193100D01*
G04 #@! TO.C,J3*
X167751826Y-107463000D02*
X167751826Y-108177286D01*
X167704207Y-108320143D01*
X167608969Y-108415381D01*
X167466112Y-108463000D01*
X167370874Y-108463000D01*
X168132779Y-107463000D02*
X168751826Y-107463000D01*
X168418493Y-107843953D01*
X168561350Y-107843953D01*
X168656588Y-107891572D01*
X168704207Y-107939191D01*
X168751826Y-108034429D01*
X168751826Y-108272524D01*
X168704207Y-108367762D01*
X168656588Y-108415381D01*
X168561350Y-108463000D01*
X168275636Y-108463000D01*
X168180398Y-108415381D01*
X168132779Y-108367762D01*
G04 #@! TO.C,J4*
X113398866Y-100802680D02*
X113398866Y-101516966D01*
X113351247Y-101659823D01*
X113256009Y-101755061D01*
X113113152Y-101802680D01*
X113017914Y-101802680D01*
X114303628Y-101136014D02*
X114303628Y-101802680D01*
X114065533Y-100755061D02*
X113827438Y-101469347D01*
X114446485Y-101469347D01*
G04 #@! TO.C,J5*
X130531506Y-84259460D02*
X130531506Y-84973746D01*
X130483887Y-85116603D01*
X130388649Y-85211841D01*
X130245792Y-85259460D01*
X130150554Y-85259460D01*
X131483887Y-84259460D02*
X131007697Y-84259460D01*
X130960078Y-84735651D01*
X131007697Y-84688032D01*
X131102935Y-84640413D01*
X131341030Y-84640413D01*
X131436268Y-84688032D01*
X131483887Y-84735651D01*
X131531506Y-84830889D01*
X131531506Y-85068984D01*
X131483887Y-85164222D01*
X131436268Y-85211841D01*
X131341030Y-85259460D01*
X131102935Y-85259460D01*
X131007697Y-85211841D01*
X130960078Y-85164222D01*
G04 #@! TO.C,J6*
X150278906Y-73710280D02*
X150278906Y-74424566D01*
X150231287Y-74567423D01*
X150136049Y-74662661D01*
X149993192Y-74710280D01*
X149897954Y-74710280D01*
X151183668Y-73710280D02*
X150993192Y-73710280D01*
X150897954Y-73757900D01*
X150850335Y-73805519D01*
X150755097Y-73948376D01*
X150707478Y-74138852D01*
X150707478Y-74519804D01*
X150755097Y-74615042D01*
X150802716Y-74662661D01*
X150897954Y-74710280D01*
X151088430Y-74710280D01*
X151183668Y-74662661D01*
X151231287Y-74615042D01*
X151278906Y-74519804D01*
X151278906Y-74281709D01*
X151231287Y-74186471D01*
X151183668Y-74138852D01*
X151088430Y-74091233D01*
X150897954Y-74091233D01*
X150802716Y-74138852D01*
X150755097Y-74186471D01*
X150707478Y-74281709D01*
G04 #@! TO.C,U2*
X112802380Y-86036904D02*
X113611904Y-86036904D01*
X113707142Y-85989285D01*
X113754761Y-85941666D01*
X113802380Y-85846428D01*
X113802380Y-85655952D01*
X113754761Y-85560714D01*
X113707142Y-85513095D01*
X113611904Y-85465476D01*
X112802380Y-85465476D01*
X112897619Y-85036904D02*
X112850000Y-84989285D01*
X112802380Y-84894047D01*
X112802380Y-84655952D01*
X112850000Y-84560714D01*
X112897619Y-84513095D01*
X112992857Y-84465476D01*
X113088095Y-84465476D01*
X113230952Y-84513095D01*
X113802380Y-85084523D01*
X113802380Y-84465476D01*
D11*
X112740476Y-89955000D02*
X112664285Y-89916904D01*
X112550000Y-89916904D01*
X112435714Y-89955000D01*
X112359523Y-90031190D01*
X112321428Y-90107380D01*
X112283333Y-90259761D01*
X112283333Y-90374047D01*
X112321428Y-90526428D01*
X112359523Y-90602619D01*
X112435714Y-90678809D01*
X112550000Y-90716904D01*
X112626190Y-90716904D01*
X112740476Y-90678809D01*
X112778571Y-90640714D01*
X112778571Y-90374047D01*
X112626190Y-90374047D01*
X113121428Y-90716904D02*
X113121428Y-89916904D01*
X113578571Y-90716904D01*
X113578571Y-89916904D01*
X113959523Y-90716904D02*
X113959523Y-89916904D01*
X114150000Y-89916904D01*
X114264285Y-89955000D01*
X114340476Y-90031190D01*
X114378571Y-90107380D01*
X114416666Y-90259761D01*
X114416666Y-90374047D01*
X114378571Y-90526428D01*
X114340476Y-90602619D01*
X114264285Y-90678809D01*
X114150000Y-90716904D01*
X113959523Y-90716904D01*
X125440476Y-89955000D02*
X125364285Y-89916904D01*
X125250000Y-89916904D01*
X125135714Y-89955000D01*
X125059523Y-90031190D01*
X125021428Y-90107380D01*
X124983333Y-90259761D01*
X124983333Y-90374047D01*
X125021428Y-90526428D01*
X125059523Y-90602619D01*
X125135714Y-90678809D01*
X125250000Y-90716904D01*
X125326190Y-90716904D01*
X125440476Y-90678809D01*
X125478571Y-90640714D01*
X125478571Y-90374047D01*
X125326190Y-90374047D01*
X125821428Y-90716904D02*
X125821428Y-89916904D01*
X126278571Y-90716904D01*
X126278571Y-89916904D01*
X126659523Y-90716904D02*
X126659523Y-89916904D01*
X126850000Y-89916904D01*
X126964285Y-89955000D01*
X127040476Y-90031190D01*
X127078571Y-90107380D01*
X127116666Y-90259761D01*
X127116666Y-90374047D01*
X127078571Y-90526428D01*
X127040476Y-90602619D01*
X126964285Y-90678809D01*
X126850000Y-90716904D01*
X126659523Y-90716904D01*
G04 #@! TO.C,U4*
D15*
X150627380Y-58886904D02*
X151436904Y-58886904D01*
X151532142Y-58839285D01*
X151579761Y-58791666D01*
X151627380Y-58696428D01*
X151627380Y-58505952D01*
X151579761Y-58410714D01*
X151532142Y-58363095D01*
X151436904Y-58315476D01*
X150627380Y-58315476D01*
X150960714Y-57410714D02*
X151627380Y-57410714D01*
X150579761Y-57648809D02*
X151294047Y-57886904D01*
X151294047Y-57267857D01*
D11*
X163265476Y-62805000D02*
X163189285Y-62766904D01*
X163075000Y-62766904D01*
X162960714Y-62805000D01*
X162884523Y-62881190D01*
X162846428Y-62957380D01*
X162808333Y-63109761D01*
X162808333Y-63224047D01*
X162846428Y-63376428D01*
X162884523Y-63452619D01*
X162960714Y-63528809D01*
X163075000Y-63566904D01*
X163151190Y-63566904D01*
X163265476Y-63528809D01*
X163303571Y-63490714D01*
X163303571Y-63224047D01*
X163151190Y-63224047D01*
X163646428Y-63566904D02*
X163646428Y-62766904D01*
X164103571Y-63566904D01*
X164103571Y-62766904D01*
X164484523Y-63566904D02*
X164484523Y-62766904D01*
X164675000Y-62766904D01*
X164789285Y-62805000D01*
X164865476Y-62881190D01*
X164903571Y-62957380D01*
X164941666Y-63109761D01*
X164941666Y-63224047D01*
X164903571Y-63376428D01*
X164865476Y-63452619D01*
X164789285Y-63528809D01*
X164675000Y-63566904D01*
X164484523Y-63566904D01*
X150565476Y-62805000D02*
X150489285Y-62766904D01*
X150375000Y-62766904D01*
X150260714Y-62805000D01*
X150184523Y-62881190D01*
X150146428Y-62957380D01*
X150108333Y-63109761D01*
X150108333Y-63224047D01*
X150146428Y-63376428D01*
X150184523Y-63452619D01*
X150260714Y-63528809D01*
X150375000Y-63566904D01*
X150451190Y-63566904D01*
X150565476Y-63528809D01*
X150603571Y-63490714D01*
X150603571Y-63224047D01*
X150451190Y-63224047D01*
X150946428Y-63566904D02*
X150946428Y-62766904D01*
X151403571Y-63566904D01*
X151403571Y-62766904D01*
X151784523Y-63566904D02*
X151784523Y-62766904D01*
X151975000Y-62766904D01*
X152089285Y-62805000D01*
X152165476Y-62881190D01*
X152203571Y-62957380D01*
X152241666Y-63109761D01*
X152241666Y-63224047D01*
X152203571Y-63376428D01*
X152165476Y-63452619D01*
X152089285Y-63528809D01*
X151975000Y-63566904D01*
X151784523Y-63566904D01*
G04 #@! TO.C,J7*
D15*
X134481046Y-135493880D02*
X134481046Y-136208166D01*
X134433427Y-136351023D01*
X134338189Y-136446261D01*
X134195332Y-136493880D01*
X134100094Y-136493880D01*
X134861999Y-135493880D02*
X135528665Y-135493880D01*
X135100094Y-136493880D01*
G04 #@! TD*
M02*
