G04 #@! TF.GenerationSoftware,KiCad,Pcbnew,(5.0.2)-1*
G04 #@! TF.CreationDate,2019-04-05T17:45:13+02:00*
G04 #@! TF.ProjectId,DorsalTPMG90,446f7273-616c-4545-904d-4739302e6b69,v01*
G04 #@! TF.SameCoordinates,Original*
G04 #@! TF.FileFunction,Profile,NP*
%FSLAX46Y46*%
G04 Gerber Fmt 4.6, Leading zero omitted, Abs format (unit mm)*
G04 Created by KiCad (PCBNEW (5.0.2)-1) date 05/04/2019 17:45:13*
%MOMM*%
%LPD*%
G01*
G04 APERTURE LIST*
%ADD10C,0.300000*%
G04 APERTURE END LIST*
D10*
X179480920Y-118121900D02*
X179470920Y-140931900D01*
X151475000Y-96100000D02*
X151475000Y-93100000D01*
X164500000Y-96100000D02*
X151500000Y-96100000D01*
X164500000Y-93100000D02*
X164500000Y-96100000D01*
X151475000Y-93100000D02*
X164475000Y-93100000D01*
X170800000Y-103950000D02*
X170800000Y-100950000D01*
X183825000Y-100950000D02*
X170825000Y-100950000D01*
X183825000Y-100950000D02*
X183825000Y-103950000D01*
X170825000Y-103950000D02*
X183825000Y-103950000D01*
X131550000Y-105875000D02*
X131550000Y-102875000D01*
X144550000Y-105900000D02*
X131550000Y-105900000D01*
X144550000Y-102875000D02*
X144550000Y-105875000D01*
X131550000Y-102875000D02*
X144550000Y-102875000D01*
X125225000Y-121300000D02*
X125225000Y-118300000D01*
X125225000Y-121300000D02*
X112225000Y-121300000D01*
X112225000Y-118300000D02*
X112225000Y-121300000D01*
X112225000Y-118300000D02*
X125225000Y-118300000D01*
X120425000Y-111050000D02*
G75*
G03X120425000Y-111050000I-1650000J0D01*
G01*
X178950000Y-78225000D02*
G75*
G03X178950000Y-78225000I-1650000J0D01*
G01*
X123150000Y-129950000D02*
G75*
G03X123150000Y-129950000I-1650000J0D01*
G01*
X160175000Y-101000000D02*
G75*
G03X160175000Y-101000000I-1650000J0D01*
G01*
X139800000Y-95725000D02*
G75*
G03X139800000Y-95725000I-1650000J0D01*
G01*
X178925000Y-93650000D02*
G75*
G03X178925000Y-93650000I-1650000J0D01*
G01*
X120225000Y-95600000D02*
G75*
G03X120225000Y-95600000I-1650000J0D01*
G01*
X159400000Y-85725000D02*
G75*
G03X159400000Y-85725000I-1650000J0D01*
G01*
X139925000Y-80225000D02*
G75*
G03X139925000Y-80225000I-1650000J0D01*
G01*
X159300000Y-70150000D02*
G75*
G03X159300000Y-70150000I-1650000J0D01*
G01*
X185483620Y-112040506D02*
G75*
G02X182483620Y-115040506I-3000000J0D01*
G01*
X179484653Y-118119219D02*
G75*
G02X182483620Y-115040506I2998967J78713D01*
G01*
X125470920Y-140931900D02*
G75*
G02X110498860Y-126264026I0J14975214D01*
G01*
X179470920Y-140931900D02*
X125470920Y-140931900D01*
X185483620Y-56040506D02*
X185483620Y-112040506D01*
X110483620Y-73040506D02*
X110498860Y-126264026D01*
X110483620Y-73040506D02*
X128483620Y-73040506D01*
X128483620Y-58040506D02*
X128483620Y-73040506D01*
X128483620Y-58040506D02*
X147983620Y-58040506D01*
X147983620Y-48040506D02*
X147983620Y-58040506D01*
X147983620Y-48040506D02*
X167483620Y-48040506D01*
X167483620Y-56040506D02*
X167483620Y-48040506D01*
X167483620Y-56040506D02*
X185483620Y-56040506D01*
M02*
