G04 #@! TF.GenerationSoftware,KiCad,Pcbnew,(5.0.2)-1*
G04 #@! TF.CreationDate,2019-04-05T17:45:13+02:00*
G04 #@! TF.ProjectId,DorsalTPMG90,446f7273-616c-4545-904d-4739302e6b69,v01*
G04 #@! TF.SameCoordinates,Original*
G04 #@! TF.FileFunction,Copper,L1,Top*
G04 #@! TF.FilePolarity,Positive*
%FSLAX46Y46*%
G04 Gerber Fmt 4.6, Leading zero omitted, Abs format (unit mm)*
G04 Created by KiCad (PCBNEW (5.0.2)-1) date 05/04/2019 17:45:13*
%MOMM*%
%LPD*%
G01*
G04 APERTURE LIST*
G04 #@! TA.AperFunction,ComponentPad*
%ADD10R,1.550000X1.550000*%
G04 #@! TD*
G04 #@! TA.AperFunction,ComponentPad*
%ADD11C,1.550000*%
G04 #@! TD*
G04 #@! TA.AperFunction,ComponentPad*
%ADD12R,1.600000X1.600000*%
G04 #@! TD*
G04 #@! TA.AperFunction,ComponentPad*
%ADD13C,1.600000*%
G04 #@! TD*
G04 #@! TA.AperFunction,ComponentPad*
%ADD14R,1.700000X1.700000*%
G04 #@! TD*
G04 #@! TA.AperFunction,ComponentPad*
%ADD15O,1.700000X1.700000*%
G04 #@! TD*
G04 #@! TA.AperFunction,Conductor*
%ADD16C,0.254000*%
G04 #@! TD*
G04 APERTURE END LIST*
D10*
G04 #@! TO.P,U3,1*
G04 #@! TO.N,GND*
X141864080Y-73280000D03*
D11*
G04 #@! TO.P,U3,2*
G04 #@! TO.N,+3V3*
X141864080Y-70740000D03*
G04 #@! TO.P,U3,3*
G04 #@! TO.N,P9*
X141864080Y-68200000D03*
G04 #@! TO.P,U3,4*
G04 #@! TO.N,P11*
X141864080Y-65660000D03*
G04 #@! TO.P,U3,5*
G04 #@! TO.N,Net-(U3-Pad5)*
X141864080Y-63120000D03*
D10*
G04 #@! TO.P,U3,10*
G04 #@! TO.N,GND*
X134244080Y-73280000D03*
D11*
G04 #@! TO.P,U3,6*
G04 #@! TO.N,Net-(U3-Pad6)*
X134244080Y-63120000D03*
G04 #@! TO.P,U3,7*
G04 #@! TO.N,M12*
X134244080Y-65660000D03*
G04 #@! TO.P,U3,8*
G04 #@! TO.N,M22*
X134244080Y-68200000D03*
G04 #@! TO.P,U3,9*
G04 #@! TO.N,Vbat*
X134244080Y-70740000D03*
G04 #@! TD*
D12*
G04 #@! TO.P,U1,1*
G04 #@! TO.N,GND*
X163545000Y-136185000D03*
D13*
G04 #@! TO.P,U1,2*
G04 #@! TO.N,P0*
X163545000Y-133645000D03*
G04 #@! TO.P,U1,3*
G04 #@! TO.N,P1*
X163545000Y-131105000D03*
G04 #@! TO.P,U1,4*
G04 #@! TO.N,P2*
X163545000Y-128565000D03*
G04 #@! TO.P,U1,5*
G04 #@! TO.N,Net-(U1-Pad5)*
X163545000Y-126025000D03*
G04 #@! TO.P,U1,6*
G04 #@! TO.N,Net-(U1-Pad6)*
X163545000Y-123485000D03*
G04 #@! TO.P,U1,7*
G04 #@! TO.N,P5*
X163545000Y-120945000D03*
G04 #@! TO.P,U1,8*
G04 #@! TO.N,P6*
X163545000Y-118405000D03*
G04 #@! TO.P,U1,9*
G04 #@! TO.N,P7*
X163545000Y-115865000D03*
G04 #@! TO.P,U1,10*
G04 #@! TO.N,P8*
X163545000Y-113325000D03*
G04 #@! TO.P,U1,11*
G04 #@! TO.N,P9*
X163545000Y-110785000D03*
G04 #@! TO.P,U1,12*
G04 #@! TO.N,P10*
X163545000Y-108245000D03*
G04 #@! TO.P,U1,13*
G04 #@! TO.N,P11*
X163545000Y-105705000D03*
G04 #@! TO.P,U1,33*
G04 #@! TO.N,Net-(U1-Pad33)*
X148305000Y-136185000D03*
G04 #@! TO.P,U1,32*
G04 #@! TO.N,Net-(U1-Pad32)*
X148305000Y-133645000D03*
G04 #@! TO.P,U1,31*
G04 #@! TO.N,+3V3*
X148305000Y-131105000D03*
G04 #@! TO.P,U1,30*
G04 #@! TO.N,P23*
X148305000Y-128565000D03*
G04 #@! TO.P,U1,29*
G04 #@! TO.N,P22*
X148305000Y-126025000D03*
G04 #@! TO.P,U1,28*
G04 #@! TO.N,P21*
X148305000Y-123485000D03*
G04 #@! TO.P,U1,27*
G04 #@! TO.N,P20*
X148305000Y-120945000D03*
G04 #@! TO.P,U1,26*
G04 #@! TO.N,P19*
X148305000Y-118405000D03*
G04 #@! TO.P,U1,25*
G04 #@! TO.N,P18*
X148305000Y-115865000D03*
G04 #@! TO.P,U1,24*
G04 #@! TO.N,P17*
X148305000Y-113325000D03*
G04 #@! TO.P,U1,23*
G04 #@! TO.N,P16*
X148305000Y-110785000D03*
G04 #@! TO.P,U1,22*
G04 #@! TO.N,P15*
X148305000Y-108245000D03*
G04 #@! TO.P,U1,21*
G04 #@! TO.N,P14*
X148305000Y-105705000D03*
G04 #@! TO.P,U1,14*
G04 #@! TO.N,P12*
X163545000Y-103165000D03*
G04 #@! TO.P,U1,20*
G04 #@! TO.N,Net-(U1-Pad20)*
X148305000Y-103165000D03*
G04 #@! TD*
D11*
G04 #@! TO.P,U6,9*
G04 #@! TO.N,Vbat*
X168890000Y-128090000D03*
G04 #@! TO.P,U6,8*
G04 #@! TO.N,M25*
X168890000Y-125550000D03*
G04 #@! TO.P,U6,7*
G04 #@! TO.N,M15*
X168890000Y-123010000D03*
G04 #@! TO.P,U6,6*
G04 #@! TO.N,Net-(U6-Pad6)*
X168890000Y-120470000D03*
D10*
G04 #@! TO.P,U6,10*
G04 #@! TO.N,GND*
X168890000Y-130630000D03*
D11*
G04 #@! TO.P,U6,5*
G04 #@! TO.N,Net-(U6-Pad5)*
X176510000Y-120470000D03*
G04 #@! TO.P,U6,4*
G04 #@! TO.N,P2*
X176510000Y-123010000D03*
G04 #@! TO.P,U6,3*
G04 #@! TO.N,P1*
X176510000Y-125550000D03*
G04 #@! TO.P,U6,2*
G04 #@! TO.N,+3V3*
X176510000Y-128090000D03*
D10*
G04 #@! TO.P,U6,1*
G04 #@! TO.N,GND*
X176510000Y-130630000D03*
G04 #@! TD*
D11*
G04 #@! TO.P,U5,9*
G04 #@! TO.N,Vbat*
X172659040Y-68501260D03*
G04 #@! TO.P,U5,8*
G04 #@! TO.N,M24*
X172659040Y-65961260D03*
G04 #@! TO.P,U5,7*
G04 #@! TO.N,M14*
X172659040Y-63421260D03*
G04 #@! TO.P,U5,6*
G04 #@! TO.N,Net-(U5-Pad6)*
X172659040Y-60881260D03*
D10*
G04 #@! TO.P,U5,10*
G04 #@! TO.N,GND*
X172659040Y-71041260D03*
D11*
G04 #@! TO.P,U5,5*
G04 #@! TO.N,Net-(U5-Pad5)*
X180279040Y-60881260D03*
G04 #@! TO.P,U5,4*
G04 #@! TO.N,P7*
X180279040Y-63421260D03*
G04 #@! TO.P,U5,3*
G04 #@! TO.N,P5*
X180279040Y-65961260D03*
G04 #@! TO.P,U5,2*
G04 #@! TO.N,+3V3*
X180279040Y-68501260D03*
D10*
G04 #@! TO.P,U5,1*
G04 #@! TO.N,GND*
X180279040Y-71041260D03*
G04 #@! TD*
D14*
G04 #@! TO.P,J1,1*
G04 #@! TO.N,P0*
X124934980Y-135923020D03*
D15*
G04 #@! TO.P,J1,2*
G04 #@! TO.N,Vbat*
X127474980Y-135923020D03*
G04 #@! TO.P,J1,3*
G04 #@! TO.N,GND*
X130014980Y-135923020D03*
G04 #@! TD*
D14*
G04 #@! TO.P,J2,1*
G04 #@! TO.N,M14*
X169275000Y-87550000D03*
D15*
G04 #@! TO.P,J2,2*
G04 #@! TO.N,M24*
X171815000Y-87550000D03*
G04 #@! TO.P,J2,3*
G04 #@! TO.N,+3V3*
X174355000Y-87550000D03*
G04 #@! TO.P,J2,4*
G04 #@! TO.N,P21*
X176895000Y-87550000D03*
G04 #@! TO.P,J2,5*
G04 #@! TO.N,P20*
X179435000Y-87550000D03*
G04 #@! TO.P,J2,6*
G04 #@! TO.N,GND*
X181975000Y-87550000D03*
G04 #@! TD*
D14*
G04 #@! TO.P,J3,1*
G04 #@! TO.N,M15*
X169161460Y-110876080D03*
D15*
G04 #@! TO.P,J3,2*
G04 #@! TO.N,M25*
X171701460Y-110876080D03*
G04 #@! TO.P,J3,3*
G04 #@! TO.N,+3V3*
X174241460Y-110876080D03*
G04 #@! TO.P,J3,4*
G04 #@! TO.N,P23*
X176781460Y-110876080D03*
G04 #@! TO.P,J3,5*
G04 #@! TO.N,P22*
X179321460Y-110876080D03*
G04 #@! TO.P,J3,6*
G04 #@! TO.N,GND*
X181861460Y-110876080D03*
G04 #@! TD*
D14*
G04 #@! TO.P,J4,1*
G04 #@! TO.N,M11*
X114500000Y-104200000D03*
D15*
G04 #@! TO.P,J4,2*
G04 #@! TO.N,M21*
X117040000Y-104200000D03*
G04 #@! TO.P,J4,3*
G04 #@! TO.N,+3V3*
X119580000Y-104200000D03*
G04 #@! TO.P,J4,4*
G04 #@! TO.N,P15*
X122120000Y-104200000D03*
G04 #@! TO.P,J4,5*
G04 #@! TO.N,P14*
X124660000Y-104200000D03*
G04 #@! TO.P,J4,6*
G04 #@! TO.N,GND*
X127200000Y-104200000D03*
G04 #@! TD*
G04 #@! TO.P,J5,6*
G04 #@! TO.N,GND*
X144580000Y-87625000D03*
G04 #@! TO.P,J5,5*
G04 #@! TO.N,P16*
X142040000Y-87625000D03*
G04 #@! TO.P,J5,4*
G04 #@! TO.N,P17*
X139500000Y-87625000D03*
G04 #@! TO.P,J5,3*
G04 #@! TO.N,+3V3*
X136960000Y-87625000D03*
G04 #@! TO.P,J5,2*
G04 #@! TO.N,M22*
X134420000Y-87625000D03*
D14*
G04 #@! TO.P,J5,1*
G04 #@! TO.N,M12*
X131880000Y-87625000D03*
G04 #@! TD*
G04 #@! TO.P,J6,1*
G04 #@! TO.N,M13*
X151525000Y-77025000D03*
D15*
G04 #@! TO.P,J6,2*
G04 #@! TO.N,M23*
X154065000Y-77025000D03*
G04 #@! TO.P,J6,3*
G04 #@! TO.N,+3V3*
X156605000Y-77025000D03*
G04 #@! TO.P,J6,4*
G04 #@! TO.N,P19*
X159145000Y-77025000D03*
G04 #@! TO.P,J6,5*
G04 #@! TO.N,P18*
X161685000Y-77025000D03*
G04 #@! TO.P,J6,6*
G04 #@! TO.N,GND*
X164225000Y-77025000D03*
G04 #@! TD*
D11*
G04 #@! TO.P,U2,9*
G04 #@! TO.N,Vbat*
X115890000Y-87815000D03*
G04 #@! TO.P,U2,8*
G04 #@! TO.N,M21*
X115890000Y-85275000D03*
G04 #@! TO.P,U2,7*
G04 #@! TO.N,M11*
X115890000Y-82735000D03*
G04 #@! TO.P,U2,6*
G04 #@! TO.N,Net-(U2-Pad6)*
X115890000Y-80195000D03*
D10*
G04 #@! TO.P,U2,10*
G04 #@! TO.N,GND*
X115890000Y-90355000D03*
D11*
G04 #@! TO.P,U2,5*
G04 #@! TO.N,Net-(U2-Pad5)*
X123510000Y-80195000D03*
G04 #@! TO.P,U2,4*
G04 #@! TO.N,P12*
X123510000Y-82735000D03*
G04 #@! TO.P,U2,3*
G04 #@! TO.N,P10*
X123510000Y-85275000D03*
G04 #@! TO.P,U2,2*
G04 #@! TO.N,+3V3*
X123510000Y-87815000D03*
D10*
G04 #@! TO.P,U2,1*
G04 #@! TO.N,GND*
X123510000Y-90355000D03*
G04 #@! TD*
G04 #@! TO.P,U4,1*
G04 #@! TO.N,GND*
X161335000Y-63205000D03*
D11*
G04 #@! TO.P,U4,2*
G04 #@! TO.N,+3V3*
X161335000Y-60665000D03*
G04 #@! TO.P,U4,3*
G04 #@! TO.N,P6*
X161335000Y-58125000D03*
G04 #@! TO.P,U4,4*
G04 #@! TO.N,P8*
X161335000Y-55585000D03*
G04 #@! TO.P,U4,5*
G04 #@! TO.N,Net-(U4-Pad5)*
X161335000Y-53045000D03*
D10*
G04 #@! TO.P,U4,10*
G04 #@! TO.N,GND*
X153715000Y-63205000D03*
D11*
G04 #@! TO.P,U4,6*
G04 #@! TO.N,Net-(U4-Pad6)*
X153715000Y-53045000D03*
G04 #@! TO.P,U4,7*
G04 #@! TO.N,M13*
X153715000Y-55585000D03*
G04 #@! TO.P,U4,8*
G04 #@! TO.N,M23*
X153715000Y-58125000D03*
G04 #@! TO.P,U4,9*
G04 #@! TO.N,Vbat*
X153715000Y-60665000D03*
G04 #@! TD*
D14*
G04 #@! TO.P,J7,1*
G04 #@! TO.N,Vbat*
X138135360Y-136039860D03*
D15*
G04 #@! TO.P,J7,2*
G04 #@! TO.N,GND*
X140675360Y-136039860D03*
G04 #@! TD*
D16*
G04 #@! TO.N,P0*
X124934980Y-134819020D02*
X125654000Y-134100000D01*
X124934980Y-135923020D02*
X124934980Y-134819020D01*
X163545000Y-133645000D02*
X162005000Y-133645000D01*
X162005000Y-133645000D02*
X157220000Y-138430000D01*
X146910000Y-138430000D02*
X142580000Y-134100000D01*
X157220000Y-138430000D02*
X146910000Y-138430000D01*
X125654000Y-134100000D02*
X142580000Y-134100000D01*
G04 #@! TO.N,P20*
X169175000Y-97750000D02*
X168900000Y-98025000D01*
X165750000Y-101175000D02*
X166425000Y-100500000D01*
X169175000Y-97750000D02*
X166425000Y-100500000D01*
X165766990Y-101158010D02*
X166425000Y-100500000D01*
X165400000Y-101525000D02*
X165766990Y-101158010D01*
X165400000Y-111160000D02*
X165400000Y-101525000D01*
X164435000Y-112125000D02*
X165400000Y-111160000D01*
X148305000Y-120945000D02*
X157125000Y-112125000D01*
X157125000Y-112125000D02*
X164435000Y-112125000D01*
X175600000Y-91325000D02*
X175600000Y-85180000D01*
X169175000Y-97750000D02*
X175600000Y-91325000D01*
X175600000Y-85180000D02*
X175610000Y-85180000D01*
X179435000Y-85065000D02*
X179435000Y-87550000D01*
X175610000Y-85180000D02*
X176240000Y-84550000D01*
X176240000Y-84550000D02*
X178920000Y-84550000D01*
X178920000Y-84550000D02*
X179435000Y-85065000D01*
G04 #@! TO.N,P21*
X163933883Y-114683999D02*
X157123999Y-114683999D01*
X148305000Y-123485000D02*
X157115000Y-114675000D01*
X176895000Y-87550000D02*
X176895000Y-90974315D01*
X176895000Y-90974315D02*
X172900000Y-94969315D01*
X172900000Y-94969315D02*
X172900000Y-94975000D01*
X157123999Y-114683999D02*
X157115000Y-114675000D01*
X172900000Y-94975000D02*
X166275000Y-101600000D01*
X166240000Y-101600000D02*
X165908010Y-101931990D01*
X166275000Y-101600000D02*
X166240000Y-101600000D01*
X165908010Y-112709872D02*
X165900000Y-112717882D01*
X165908010Y-101931990D02*
X165908010Y-112709872D01*
X165900000Y-112717882D02*
X163933883Y-114683999D01*
G04 #@! TO.N,M24*
X171815000Y-86347919D02*
X171815000Y-87550000D01*
X168656010Y-83188929D02*
X171815000Y-86347919D01*
X168656010Y-69963990D02*
X168656010Y-83188929D01*
X170687700Y-67932300D02*
X168656010Y-69963990D01*
X170688000Y-67932300D02*
X172659040Y-65961260D01*
X170687700Y-67932300D02*
X170688000Y-67932300D01*
G04 #@! TO.N,M14*
X169275000Y-86446000D02*
X168148000Y-85319000D01*
X169275000Y-87550000D02*
X169275000Y-86446000D01*
X168148000Y-67932300D02*
X172659040Y-63421260D01*
X168148000Y-85319000D02*
X168148000Y-67932300D01*
G04 #@! TO.N,M15*
X169986015Y-123010000D02*
X170575000Y-122421015D01*
X168890000Y-123010000D02*
X169986015Y-123010000D01*
X170575000Y-122421015D02*
X170575000Y-115625000D01*
X169161460Y-114211460D02*
X169161460Y-110876080D01*
X170575000Y-115625000D02*
X169161460Y-114211460D01*
G04 #@! TO.N,M25*
X169664999Y-124775001D02*
X169664999Y-124760001D01*
X168890000Y-125550000D02*
X169664999Y-124775001D01*
X171701460Y-122723540D02*
X171701460Y-110876080D01*
X169664999Y-124760001D02*
X171701460Y-122723540D01*
G04 #@! TO.N,P22*
X156550000Y-126025000D02*
X148305000Y-126025000D01*
X160448999Y-122126001D02*
X156550000Y-126025000D01*
X165758009Y-123133009D02*
X164751001Y-122126001D01*
X178471461Y-111726079D02*
X178471461Y-111728539D01*
X179321460Y-110876080D02*
X178471461Y-111726079D01*
X164751001Y-122126001D02*
X160448999Y-122126001D01*
X178471461Y-111728539D02*
X173930000Y-116270000D01*
X173930000Y-116270000D02*
X173930000Y-126620000D01*
X171303999Y-129246001D02*
X167116001Y-129246001D01*
X173930000Y-126620000D02*
X171303999Y-129246001D01*
X165758009Y-127888009D02*
X165758009Y-123133009D01*
X167116001Y-129246001D02*
X165758009Y-127888009D01*
G04 #@! TO.N,M11*
X115115001Y-83509999D02*
X115090001Y-83509999D01*
X115890000Y-82735000D02*
X115115001Y-83509999D01*
X115890000Y-82735000D02*
X113375000Y-85250000D01*
X114500000Y-103096000D02*
X114500000Y-104200000D01*
X113375000Y-101971000D02*
X114500000Y-103096000D01*
X113375000Y-85250000D02*
X113375000Y-101971000D01*
G04 #@! TO.N,M21*
X116190001Y-103350001D02*
X117040000Y-104200000D01*
X114075000Y-101235000D02*
X116190001Y-103350001D01*
X114075000Y-87090000D02*
X114075000Y-101235000D01*
X115890000Y-85275000D02*
X114075000Y-87090000D01*
G04 #@! TO.N,P15*
X126165000Y-108245000D02*
X122120000Y-104200000D01*
X148305000Y-108245000D02*
X126165000Y-108245000D01*
G04 #@! TO.N,P14*
X146535000Y-107475000D02*
X148305000Y-105705000D01*
X124660000Y-104200000D02*
X127935000Y-107475000D01*
X127935000Y-107475000D02*
X146535000Y-107475000D01*
G04 #@! TO.N,P16*
X142040000Y-85180000D02*
X142040000Y-87625000D01*
X150241990Y-108848010D02*
X150241990Y-101411990D01*
X142451990Y-84768010D02*
X142040000Y-85180000D01*
X148305000Y-110785000D02*
X150241990Y-108848010D01*
X148250000Y-99420000D02*
X148250000Y-86620000D01*
X148250000Y-86620000D02*
X146398010Y-84768010D01*
X150241990Y-101411990D02*
X148250000Y-99420000D01*
X146398010Y-84768010D02*
X142451990Y-84768010D01*
G04 #@! TO.N,P17*
X139500000Y-86422919D02*
X139500000Y-87625000D01*
X139500000Y-85120000D02*
X139500000Y-86422919D01*
X140360000Y-84260000D02*
X139500000Y-85120000D01*
X150750000Y-110880000D02*
X150750000Y-101200000D01*
X148305000Y-113325000D02*
X150750000Y-110880000D01*
X150750000Y-101200000D02*
X148780000Y-99230000D01*
X148780000Y-99230000D02*
X148780000Y-86410000D01*
X148780000Y-86410000D02*
X146630000Y-84260000D01*
X146630000Y-84260000D02*
X140360000Y-84260000D01*
G04 #@! TO.N,M13*
X151384000Y-57916000D02*
X153715000Y-55585000D01*
X150622000Y-58678000D02*
X151384000Y-57916000D01*
X150622000Y-74168000D02*
X150622000Y-58678000D01*
X151525000Y-77025000D02*
X151525000Y-75071000D01*
X151525000Y-75071000D02*
X150622000Y-74168000D01*
G04 #@! TO.N,M23*
X154065000Y-75822919D02*
X151892000Y-73649919D01*
X154065000Y-77025000D02*
X154065000Y-75822919D01*
X151892000Y-59948000D02*
X153715000Y-58125000D01*
X151892000Y-73649919D02*
X151892000Y-59948000D01*
G04 #@! TO.N,P12*
X150675000Y-89500000D02*
X150675000Y-98700000D01*
X150675000Y-98700000D02*
X155183880Y-103208880D01*
X123510000Y-82735000D02*
X143910000Y-82735000D01*
X161478630Y-104100000D02*
X156075000Y-104100000D01*
X163545000Y-103165000D02*
X162413630Y-103165000D01*
X162413630Y-103165000D02*
X161478630Y-104100000D01*
X156075000Y-104100000D02*
X155183880Y-103208880D01*
X143828434Y-82735000D02*
X124339118Y-82735000D01*
X147485000Y-82735000D02*
X143828434Y-82735000D01*
X150674999Y-85924999D02*
X147485000Y-82735000D01*
X155183880Y-103208880D02*
X150674999Y-98699999D01*
X150674999Y-98699999D02*
X150674999Y-85924999D01*
G04 #@! TO.N,P10*
X159495000Y-108245000D02*
X163545000Y-108245000D01*
X155000000Y-103750000D02*
X159495000Y-108245000D01*
X155000000Y-103743434D02*
X155000000Y-103750000D01*
X123510000Y-85275000D02*
X125541990Y-83243010D01*
X147274576Y-83243010D02*
X147274576Y-83244576D01*
X147274576Y-83244576D02*
X150075000Y-86045000D01*
X150075000Y-86045000D02*
X150075000Y-98818434D01*
X125541990Y-83243010D02*
X147274576Y-83243010D01*
X150075000Y-98818434D02*
X155000000Y-103743434D01*
G04 #@! TO.N,P7*
X165985000Y-115865000D02*
X163545000Y-115865000D01*
X170306566Y-99850000D02*
X166925000Y-103231566D01*
X175300000Y-99850000D02*
X170306566Y-99850000D01*
X179504041Y-64196259D02*
X179503741Y-64196259D01*
X180279040Y-63421260D02*
X179504041Y-64196259D01*
X179503741Y-64196259D02*
X177750000Y-65950000D01*
X183930000Y-91220000D02*
X175300000Y-99850000D01*
X177750000Y-65950000D02*
X177750000Y-73050000D01*
X177750000Y-73050000D02*
X183930000Y-79230000D01*
X166925000Y-114925000D02*
X165985000Y-115865000D01*
X166925000Y-103231566D02*
X166925000Y-114925000D01*
X183930000Y-79230000D02*
X183930000Y-91220000D01*
G04 #@! TO.N,P5*
X180279040Y-65961260D02*
X180396354Y-65961260D01*
X180279040Y-65961260D02*
X178270000Y-67970300D01*
X178270000Y-67970300D02*
X178270000Y-72790000D01*
X184450000Y-78990000D02*
X178270000Y-72810000D01*
X167500000Y-116990000D02*
X167500000Y-103375000D01*
X167500000Y-103375000D02*
X170515783Y-100359217D01*
X170515783Y-100359217D02*
X175509217Y-100359217D01*
X175509217Y-100359217D02*
X184450000Y-91418434D01*
X163545000Y-120945000D02*
X167500000Y-116990000D01*
X184450000Y-91418434D02*
X184450000Y-78990000D01*
G04 #@! TD*
G04 #@! TO.N,GND*
G36*
X166698620Y-55963190D02*
X166683241Y-56040506D01*
X166744166Y-56346798D01*
X166917667Y-56606459D01*
X167177328Y-56779960D01*
X167483620Y-56840885D01*
X167560936Y-56825506D01*
X184698620Y-56825506D01*
X184698620Y-78160989D01*
X179032000Y-72494370D01*
X179032000Y-72242246D01*
X179144342Y-72354587D01*
X179377731Y-72451260D01*
X179993290Y-72451260D01*
X180152040Y-72292510D01*
X180152040Y-71168260D01*
X180406040Y-71168260D01*
X180406040Y-72292510D01*
X180564790Y-72451260D01*
X181180349Y-72451260D01*
X181413738Y-72354587D01*
X181592367Y-72175959D01*
X181689040Y-71942570D01*
X181689040Y-71327010D01*
X181530290Y-71168260D01*
X180406040Y-71168260D01*
X180152040Y-71168260D01*
X180132040Y-71168260D01*
X180132040Y-70914260D01*
X180152040Y-70914260D01*
X180152040Y-70894260D01*
X180406040Y-70894260D01*
X180406040Y-70914260D01*
X181530290Y-70914260D01*
X181689040Y-70755510D01*
X181689040Y-70139950D01*
X181592367Y-69906561D01*
X181413738Y-69727933D01*
X181180349Y-69631260D01*
X181143082Y-69631260D01*
X181474381Y-69299961D01*
X181689040Y-68781727D01*
X181689040Y-68220793D01*
X181474381Y-67702559D01*
X181077741Y-67305919D01*
X180897498Y-67231260D01*
X181077741Y-67156601D01*
X181474381Y-66759961D01*
X181689040Y-66241727D01*
X181689040Y-65680793D01*
X181474381Y-65162559D01*
X181077741Y-64765919D01*
X180897498Y-64691260D01*
X181077741Y-64616601D01*
X181474381Y-64219961D01*
X181689040Y-63701727D01*
X181689040Y-63140793D01*
X181474381Y-62622559D01*
X181077741Y-62225919D01*
X180897498Y-62151260D01*
X181077741Y-62076601D01*
X181474381Y-61679961D01*
X181689040Y-61161727D01*
X181689040Y-60600793D01*
X181474381Y-60082559D01*
X181077741Y-59685919D01*
X180559507Y-59471260D01*
X179998573Y-59471260D01*
X179480339Y-59685919D01*
X179083699Y-60082559D01*
X178869040Y-60600793D01*
X178869040Y-61161727D01*
X179083699Y-61679961D01*
X179480339Y-62076601D01*
X179660582Y-62151260D01*
X179480339Y-62225919D01*
X179083699Y-62622559D01*
X178869040Y-63140793D01*
X178869040Y-63701727D01*
X178884154Y-63738215D01*
X177264253Y-65358117D01*
X177200629Y-65400629D01*
X177032212Y-65652684D01*
X176988000Y-65874953D01*
X176988000Y-65874957D01*
X176973073Y-65950000D01*
X176988000Y-66025043D01*
X176988001Y-72974952D01*
X176973073Y-73050000D01*
X176988001Y-73125048D01*
X177032213Y-73347317D01*
X177200630Y-73599371D01*
X177264251Y-73641881D01*
X183168000Y-79545631D01*
X183168001Y-86666653D01*
X182741924Y-86278355D01*
X182331890Y-86108524D01*
X182102000Y-86229845D01*
X182102000Y-87423000D01*
X182122000Y-87423000D01*
X182122000Y-87677000D01*
X182102000Y-87677000D01*
X182102000Y-88870155D01*
X182331890Y-88991476D01*
X182741924Y-88821645D01*
X183168001Y-88433347D01*
X183168001Y-90904368D01*
X179553862Y-94518507D01*
X179609844Y-94408637D01*
X179730000Y-93650000D01*
X179609844Y-92891363D01*
X179261137Y-92206987D01*
X178718013Y-91663863D01*
X178033637Y-91315156D01*
X177617249Y-91249207D01*
X177657000Y-91049363D01*
X177657000Y-91049359D01*
X177671927Y-90974316D01*
X177657000Y-90899273D01*
X177657000Y-88826842D01*
X177965625Y-88620625D01*
X178165000Y-88322239D01*
X178364375Y-88620625D01*
X178855582Y-88948839D01*
X179288744Y-89035000D01*
X179581256Y-89035000D01*
X180014418Y-88948839D01*
X180505625Y-88620625D01*
X180718843Y-88301522D01*
X180779817Y-88431358D01*
X181208076Y-88821645D01*
X181618110Y-88991476D01*
X181848000Y-88870155D01*
X181848000Y-87677000D01*
X181828000Y-87677000D01*
X181828000Y-87423000D01*
X181848000Y-87423000D01*
X181848000Y-86229845D01*
X181618110Y-86108524D01*
X181208076Y-86278355D01*
X180779817Y-86668642D01*
X180718843Y-86798478D01*
X180505625Y-86479375D01*
X180197000Y-86273158D01*
X180197000Y-85140043D01*
X180211927Y-85065000D01*
X180197000Y-84989957D01*
X180197000Y-84989952D01*
X180152788Y-84767683D01*
X180063632Y-84634252D01*
X180026882Y-84579251D01*
X179984371Y-84515629D01*
X179920749Y-84473119D01*
X179511883Y-84064253D01*
X179469371Y-84000629D01*
X179217317Y-83832212D01*
X178995048Y-83788000D01*
X178995043Y-83788000D01*
X178920000Y-83773073D01*
X178844957Y-83788000D01*
X176315047Y-83788000D01*
X176240000Y-83773072D01*
X176164953Y-83788000D01*
X176164952Y-83788000D01*
X175942683Y-83832212D01*
X175690629Y-84000629D01*
X175648118Y-84064251D01*
X175144390Y-84567980D01*
X175050629Y-84630629D01*
X174882212Y-84882683D01*
X174823072Y-85180000D01*
X174838001Y-85255053D01*
X174838001Y-86131982D01*
X174501256Y-86065000D01*
X174208744Y-86065000D01*
X173775582Y-86151161D01*
X173284375Y-86479375D01*
X173085000Y-86777761D01*
X172885625Y-86479375D01*
X172577066Y-86273202D01*
X172570897Y-86242191D01*
X172532788Y-86050602D01*
X172429907Y-85896629D01*
X172406882Y-85862170D01*
X172364371Y-85798548D01*
X172300750Y-85756038D01*
X169418010Y-82873299D01*
X169418010Y-78225000D01*
X174845000Y-78225000D01*
X174965156Y-78983637D01*
X175313863Y-79668013D01*
X175856987Y-80211137D01*
X176541363Y-80559844D01*
X177300000Y-80680000D01*
X178058637Y-80559844D01*
X178743013Y-80211137D01*
X179286137Y-79668013D01*
X179634844Y-78983637D01*
X179755000Y-78225000D01*
X179634844Y-77466363D01*
X179286137Y-76781987D01*
X178743013Y-76238863D01*
X178058637Y-75890156D01*
X177300000Y-75770000D01*
X176541363Y-75890156D01*
X175856987Y-76238863D01*
X175313863Y-76781987D01*
X174965156Y-77466363D01*
X174845000Y-78225000D01*
X169418010Y-78225000D01*
X169418010Y-71327010D01*
X171249040Y-71327010D01*
X171249040Y-71942569D01*
X171345713Y-72175958D01*
X171524341Y-72354587D01*
X171757730Y-72451260D01*
X172373290Y-72451260D01*
X172532040Y-72292510D01*
X172532040Y-71168260D01*
X172786040Y-71168260D01*
X172786040Y-72292510D01*
X172944790Y-72451260D01*
X173560350Y-72451260D01*
X173793739Y-72354587D01*
X173972367Y-72175958D01*
X174069040Y-71942569D01*
X174069040Y-71327010D01*
X173910290Y-71168260D01*
X172786040Y-71168260D01*
X172532040Y-71168260D01*
X171407790Y-71168260D01*
X171249040Y-71327010D01*
X169418010Y-71327010D01*
X169418010Y-70279620D01*
X171172845Y-68524786D01*
X171237371Y-68481671D01*
X171249040Y-68464207D01*
X171249040Y-68781727D01*
X171463699Y-69299961D01*
X171794998Y-69631260D01*
X171757730Y-69631260D01*
X171524341Y-69727933D01*
X171345713Y-69906562D01*
X171249040Y-70139951D01*
X171249040Y-70755510D01*
X171407790Y-70914260D01*
X172532040Y-70914260D01*
X172532040Y-70894260D01*
X172786040Y-70894260D01*
X172786040Y-70914260D01*
X173910290Y-70914260D01*
X174069040Y-70755510D01*
X174069040Y-70139951D01*
X173972367Y-69906562D01*
X173793739Y-69727933D01*
X173560350Y-69631260D01*
X173523082Y-69631260D01*
X173854381Y-69299961D01*
X174069040Y-68781727D01*
X174069040Y-68220793D01*
X173854381Y-67702559D01*
X173457741Y-67305919D01*
X173277498Y-67231260D01*
X173457741Y-67156601D01*
X173854381Y-66759961D01*
X174069040Y-66241727D01*
X174069040Y-65680793D01*
X173854381Y-65162559D01*
X173457741Y-64765919D01*
X173277498Y-64691260D01*
X173457741Y-64616601D01*
X173854381Y-64219961D01*
X174069040Y-63701727D01*
X174069040Y-63140793D01*
X173854381Y-62622559D01*
X173457741Y-62225919D01*
X173277498Y-62151260D01*
X173457741Y-62076601D01*
X173854381Y-61679961D01*
X174069040Y-61161727D01*
X174069040Y-60600793D01*
X173854381Y-60082559D01*
X173457741Y-59685919D01*
X172939507Y-59471260D01*
X172378573Y-59471260D01*
X171860339Y-59685919D01*
X171463699Y-60082559D01*
X171249040Y-60600793D01*
X171249040Y-61161727D01*
X171463699Y-61679961D01*
X171860339Y-62076601D01*
X172040582Y-62151260D01*
X171860339Y-62225919D01*
X171463699Y-62622559D01*
X171249040Y-63140793D01*
X171249040Y-63701727D01*
X171264242Y-63738427D01*
X167662252Y-67340418D01*
X167598630Y-67382929D01*
X167556119Y-67446551D01*
X167556118Y-67446552D01*
X167430213Y-67634983D01*
X167371073Y-67932300D01*
X167386001Y-68007348D01*
X167386000Y-85243957D01*
X167371073Y-85319000D01*
X167386000Y-85394043D01*
X167386000Y-85394047D01*
X167430212Y-85616316D01*
X167598629Y-85868371D01*
X167662253Y-85910883D01*
X167982998Y-86231629D01*
X167967191Y-86242191D01*
X167826843Y-86452235D01*
X167777560Y-86700000D01*
X167777560Y-88400000D01*
X167826843Y-88647765D01*
X167967191Y-88857809D01*
X168177235Y-88998157D01*
X168425000Y-89047440D01*
X170125000Y-89047440D01*
X170372765Y-88998157D01*
X170582809Y-88857809D01*
X170723157Y-88647765D01*
X170732184Y-88602381D01*
X170744375Y-88620625D01*
X171235582Y-88948839D01*
X171668744Y-89035000D01*
X171961256Y-89035000D01*
X172394418Y-88948839D01*
X172885625Y-88620625D01*
X173085000Y-88322239D01*
X173284375Y-88620625D01*
X173775582Y-88948839D01*
X174208744Y-89035000D01*
X174501256Y-89035000D01*
X174838000Y-88968018D01*
X174838000Y-91009369D01*
X168689254Y-97158116D01*
X168689251Y-97158118D01*
X165939254Y-99908116D01*
X165939251Y-99908118D01*
X165281242Y-100566128D01*
X164914252Y-100933118D01*
X164850630Y-100975629D01*
X164808119Y-101039251D01*
X164808118Y-101039252D01*
X164682213Y-101227683D01*
X164623073Y-101525000D01*
X164638001Y-101600048D01*
X164638001Y-102228605D01*
X164357862Y-101948466D01*
X163830439Y-101730000D01*
X163259561Y-101730000D01*
X162732138Y-101948466D01*
X162328466Y-102352138D01*
X162304598Y-102409760D01*
X162116313Y-102447212D01*
X161864259Y-102615629D01*
X161821748Y-102679251D01*
X161163000Y-103338000D01*
X159263711Y-103338000D01*
X159283637Y-103334844D01*
X159968013Y-102986137D01*
X160511137Y-102443013D01*
X160859844Y-101758637D01*
X160980000Y-101000000D01*
X160859844Y-100241363D01*
X160511137Y-99556987D01*
X159968013Y-99013863D01*
X159283637Y-98665156D01*
X158525000Y-98545000D01*
X157766363Y-98665156D01*
X157081987Y-99013863D01*
X156538863Y-99556987D01*
X156190156Y-100241363D01*
X156070000Y-101000000D01*
X156190156Y-101758637D01*
X156538863Y-102443013D01*
X157081987Y-102986137D01*
X157766363Y-103334844D01*
X157786289Y-103338000D01*
X156390631Y-103338000D01*
X155775764Y-102723134D01*
X155775762Y-102723131D01*
X151437000Y-98384370D01*
X151437000Y-96892820D01*
X151475000Y-96900379D01*
X151552316Y-96885000D01*
X164422684Y-96885000D01*
X164500000Y-96900379D01*
X164806292Y-96839454D01*
X165065953Y-96665953D01*
X165239454Y-96406292D01*
X165285000Y-96177316D01*
X165285000Y-96177315D01*
X165300379Y-96100000D01*
X165285000Y-96022684D01*
X165285000Y-93022684D01*
X165239454Y-92793708D01*
X165065953Y-92534047D01*
X164806291Y-92360546D01*
X164500000Y-92299621D01*
X164422684Y-92315000D01*
X151552316Y-92315000D01*
X151475000Y-92299621D01*
X151437000Y-92307180D01*
X151437000Y-89424952D01*
X151436999Y-89424947D01*
X151436999Y-86000046D01*
X151451927Y-85924999D01*
X151436999Y-85849951D01*
X151412145Y-85725000D01*
X155295000Y-85725000D01*
X155415156Y-86483637D01*
X155763863Y-87168013D01*
X156306987Y-87711137D01*
X156991363Y-88059844D01*
X157750000Y-88180000D01*
X158508637Y-88059844D01*
X159193013Y-87711137D01*
X159736137Y-87168013D01*
X160084844Y-86483637D01*
X160205000Y-85725000D01*
X160084844Y-84966363D01*
X159736137Y-84281987D01*
X159193013Y-83738863D01*
X158508637Y-83390156D01*
X157750000Y-83270000D01*
X156991363Y-83390156D01*
X156306987Y-83738863D01*
X155763863Y-84281987D01*
X155415156Y-84966363D01*
X155295000Y-85725000D01*
X151412145Y-85725000D01*
X151392787Y-85627682D01*
X151224370Y-85375628D01*
X151160748Y-85333117D01*
X148076883Y-82249253D01*
X148034371Y-82185629D01*
X147782317Y-82017212D01*
X147560048Y-81973000D01*
X147560043Y-81973000D01*
X147485000Y-81958073D01*
X147409957Y-81973000D01*
X139956150Y-81973000D01*
X140261137Y-81668013D01*
X140609844Y-80983637D01*
X140730000Y-80225000D01*
X140609844Y-79466363D01*
X140261137Y-78781987D01*
X139718013Y-78238863D01*
X139033637Y-77890156D01*
X138275000Y-77770000D01*
X137516363Y-77890156D01*
X136831987Y-78238863D01*
X136288863Y-78781987D01*
X135940156Y-79466363D01*
X135820000Y-80225000D01*
X135940156Y-80983637D01*
X136288863Y-81668013D01*
X136593850Y-81973000D01*
X124720543Y-81973000D01*
X124705341Y-81936299D01*
X124308701Y-81539659D01*
X124128458Y-81465000D01*
X124308701Y-81390341D01*
X124705341Y-80993701D01*
X124920000Y-80475467D01*
X124920000Y-79914533D01*
X124705341Y-79396299D01*
X124308701Y-78999659D01*
X123790467Y-78785000D01*
X123229533Y-78785000D01*
X122711299Y-78999659D01*
X122314659Y-79396299D01*
X122100000Y-79914533D01*
X122100000Y-80475467D01*
X122314659Y-80993701D01*
X122711299Y-81390341D01*
X122891542Y-81465000D01*
X122711299Y-81539659D01*
X122314659Y-81936299D01*
X122100000Y-82454533D01*
X122100000Y-83015467D01*
X122314659Y-83533701D01*
X122711299Y-83930341D01*
X122891542Y-84005000D01*
X122711299Y-84079659D01*
X122314659Y-84476299D01*
X122100000Y-84994533D01*
X122100000Y-85555467D01*
X122314659Y-86073701D01*
X122711299Y-86470341D01*
X122891542Y-86545000D01*
X122711299Y-86619659D01*
X122314659Y-87016299D01*
X122100000Y-87534533D01*
X122100000Y-88095467D01*
X122314659Y-88613701D01*
X122645958Y-88945000D01*
X122608691Y-88945000D01*
X122375302Y-89041673D01*
X122196673Y-89220301D01*
X122100000Y-89453690D01*
X122100000Y-90069250D01*
X122258750Y-90228000D01*
X123383000Y-90228000D01*
X123383000Y-90208000D01*
X123637000Y-90208000D01*
X123637000Y-90228000D01*
X124761250Y-90228000D01*
X124920000Y-90069250D01*
X124920000Y-89453690D01*
X124823327Y-89220301D01*
X124644698Y-89041673D01*
X124411309Y-88945000D01*
X124374042Y-88945000D01*
X124705341Y-88613701D01*
X124920000Y-88095467D01*
X124920000Y-87534533D01*
X124705341Y-87016299D01*
X124308701Y-86619659D01*
X124128458Y-86545000D01*
X124308701Y-86470341D01*
X124705341Y-86073701D01*
X124920000Y-85555467D01*
X124920000Y-84994533D01*
X124904798Y-84957832D01*
X125857621Y-84005010D01*
X139537359Y-84005010D01*
X139014253Y-84528117D01*
X138950629Y-84570629D01*
X138782212Y-84822684D01*
X138738000Y-85044953D01*
X138738000Y-85044957D01*
X138723073Y-85120000D01*
X138738000Y-85195044D01*
X138738001Y-86347867D01*
X138738000Y-86347872D01*
X138738000Y-86348158D01*
X138429375Y-86554375D01*
X138230000Y-86852761D01*
X138030625Y-86554375D01*
X137539418Y-86226161D01*
X137106256Y-86140000D01*
X136813744Y-86140000D01*
X136380582Y-86226161D01*
X135889375Y-86554375D01*
X135690000Y-86852761D01*
X135490625Y-86554375D01*
X134999418Y-86226161D01*
X134566256Y-86140000D01*
X134273744Y-86140000D01*
X133840582Y-86226161D01*
X133349375Y-86554375D01*
X133337184Y-86572619D01*
X133328157Y-86527235D01*
X133187809Y-86317191D01*
X132977765Y-86176843D01*
X132730000Y-86127560D01*
X131030000Y-86127560D01*
X130782235Y-86176843D01*
X130572191Y-86317191D01*
X130431843Y-86527235D01*
X130382560Y-86775000D01*
X130382560Y-88475000D01*
X130431843Y-88722765D01*
X130572191Y-88932809D01*
X130782235Y-89073157D01*
X131030000Y-89122440D01*
X132730000Y-89122440D01*
X132977765Y-89073157D01*
X133187809Y-88932809D01*
X133328157Y-88722765D01*
X133337184Y-88677381D01*
X133349375Y-88695625D01*
X133840582Y-89023839D01*
X134273744Y-89110000D01*
X134566256Y-89110000D01*
X134999418Y-89023839D01*
X135490625Y-88695625D01*
X135690000Y-88397239D01*
X135889375Y-88695625D01*
X136380582Y-89023839D01*
X136813744Y-89110000D01*
X137106256Y-89110000D01*
X137539418Y-89023839D01*
X138030625Y-88695625D01*
X138230000Y-88397239D01*
X138429375Y-88695625D01*
X138920582Y-89023839D01*
X139353744Y-89110000D01*
X139646256Y-89110000D01*
X140079418Y-89023839D01*
X140570625Y-88695625D01*
X140770000Y-88397239D01*
X140969375Y-88695625D01*
X141460582Y-89023839D01*
X141893744Y-89110000D01*
X142186256Y-89110000D01*
X142619418Y-89023839D01*
X143110625Y-88695625D01*
X143323843Y-88376522D01*
X143384817Y-88506358D01*
X143813076Y-88896645D01*
X144223110Y-89066476D01*
X144453000Y-88945155D01*
X144453000Y-87752000D01*
X144707000Y-87752000D01*
X144707000Y-88945155D01*
X144936890Y-89066476D01*
X145346924Y-88896645D01*
X145775183Y-88506358D01*
X146021486Y-87981892D01*
X145900819Y-87752000D01*
X144707000Y-87752000D01*
X144453000Y-87752000D01*
X144433000Y-87752000D01*
X144433000Y-87498000D01*
X144453000Y-87498000D01*
X144453000Y-86304845D01*
X144707000Y-86304845D01*
X144707000Y-87498000D01*
X145900819Y-87498000D01*
X146021486Y-87268108D01*
X145775183Y-86743642D01*
X145346924Y-86353355D01*
X144936890Y-86183524D01*
X144707000Y-86304845D01*
X144453000Y-86304845D01*
X144223110Y-86183524D01*
X143813076Y-86353355D01*
X143384817Y-86743642D01*
X143323843Y-86873478D01*
X143110625Y-86554375D01*
X142802000Y-86348158D01*
X142802000Y-85530010D01*
X146082380Y-85530010D01*
X147488001Y-86935632D01*
X147488000Y-99344957D01*
X147473073Y-99420000D01*
X147488000Y-99495043D01*
X147488000Y-99495047D01*
X147532212Y-99717316D01*
X147700629Y-99969371D01*
X147764253Y-100011883D01*
X149479991Y-101727622D01*
X149479991Y-102310595D01*
X149117862Y-101948466D01*
X148590439Y-101730000D01*
X148019561Y-101730000D01*
X147492138Y-101948466D01*
X147088466Y-102352138D01*
X146870000Y-102879561D01*
X146870000Y-103450439D01*
X147088466Y-103977862D01*
X147492138Y-104381534D01*
X147621216Y-104435000D01*
X147492138Y-104488466D01*
X147088466Y-104892138D01*
X146870000Y-105419561D01*
X146870000Y-105990439D01*
X146891068Y-106041302D01*
X146219370Y-106713000D01*
X128250631Y-106713000D01*
X127222630Y-105685000D01*
X127327002Y-105685000D01*
X127327002Y-105520156D01*
X127556890Y-105641476D01*
X127966924Y-105471645D01*
X128395183Y-105081358D01*
X128641486Y-104556892D01*
X128520819Y-104327000D01*
X127327000Y-104327000D01*
X127327000Y-104347000D01*
X127073000Y-104347000D01*
X127073000Y-104327000D01*
X127053000Y-104327000D01*
X127053000Y-104073000D01*
X127073000Y-104073000D01*
X127073000Y-102879845D01*
X127327000Y-102879845D01*
X127327000Y-104073000D01*
X128520819Y-104073000D01*
X128641486Y-103843108D01*
X128395183Y-103318642D01*
X127966924Y-102928355D01*
X127838106Y-102875000D01*
X130749621Y-102875000D01*
X130765001Y-102952321D01*
X130765000Y-105822684D01*
X130749621Y-105900000D01*
X130810546Y-106206292D01*
X130984047Y-106465953D01*
X131243708Y-106639454D01*
X131472684Y-106685000D01*
X144627316Y-106685000D01*
X144856292Y-106639454D01*
X145115953Y-106465953D01*
X145289454Y-106206292D01*
X145350379Y-105900000D01*
X145335000Y-105822684D01*
X145335000Y-102952316D01*
X145350379Y-102875000D01*
X145289454Y-102568708D01*
X145115953Y-102309047D01*
X144856292Y-102135546D01*
X144627316Y-102090000D01*
X144550000Y-102074621D01*
X144472684Y-102090000D01*
X131627316Y-102090000D01*
X131550000Y-102074621D01*
X131472684Y-102090000D01*
X131243708Y-102135546D01*
X130984047Y-102309047D01*
X130810546Y-102568708D01*
X130749621Y-102875000D01*
X127838106Y-102875000D01*
X127556890Y-102758524D01*
X127327000Y-102879845D01*
X127073000Y-102879845D01*
X126843110Y-102758524D01*
X126433076Y-102928355D01*
X126004817Y-103318642D01*
X125943843Y-103448478D01*
X125730625Y-103129375D01*
X125239418Y-102801161D01*
X124806256Y-102715000D01*
X124513744Y-102715000D01*
X124080582Y-102801161D01*
X123589375Y-103129375D01*
X123390000Y-103427761D01*
X123190625Y-103129375D01*
X122699418Y-102801161D01*
X122266256Y-102715000D01*
X121973744Y-102715000D01*
X121540582Y-102801161D01*
X121049375Y-103129375D01*
X120850000Y-103427761D01*
X120650625Y-103129375D01*
X120159418Y-102801161D01*
X119726256Y-102715000D01*
X119433744Y-102715000D01*
X119000582Y-102801161D01*
X118509375Y-103129375D01*
X118310000Y-103427761D01*
X118110625Y-103129375D01*
X117619418Y-102801161D01*
X117186256Y-102715000D01*
X116893744Y-102715000D01*
X116675952Y-102758321D01*
X114837000Y-100919370D01*
X114837000Y-95600000D01*
X116120000Y-95600000D01*
X116240156Y-96358637D01*
X116588863Y-97043013D01*
X117131987Y-97586137D01*
X117816363Y-97934844D01*
X118575000Y-98055000D01*
X119333637Y-97934844D01*
X120018013Y-97586137D01*
X120561137Y-97043013D01*
X120909844Y-96358637D01*
X121010201Y-95725000D01*
X135695000Y-95725000D01*
X135815156Y-96483637D01*
X136163863Y-97168013D01*
X136706987Y-97711137D01*
X137391363Y-98059844D01*
X138150000Y-98180000D01*
X138908637Y-98059844D01*
X139593013Y-97711137D01*
X140136137Y-97168013D01*
X140484844Y-96483637D01*
X140605000Y-95725000D01*
X140484844Y-94966363D01*
X140136137Y-94281987D01*
X139593013Y-93738863D01*
X138908637Y-93390156D01*
X138150000Y-93270000D01*
X137391363Y-93390156D01*
X136706987Y-93738863D01*
X136163863Y-94281987D01*
X135815156Y-94966363D01*
X135695000Y-95725000D01*
X121010201Y-95725000D01*
X121030000Y-95600000D01*
X120909844Y-94841363D01*
X120561137Y-94156987D01*
X120018013Y-93613863D01*
X119333637Y-93265156D01*
X118575000Y-93145000D01*
X117816363Y-93265156D01*
X117131987Y-93613863D01*
X116588863Y-94156987D01*
X116240156Y-94841363D01*
X116120000Y-95600000D01*
X114837000Y-95600000D01*
X114837000Y-91702168D01*
X114988690Y-91765000D01*
X115604250Y-91765000D01*
X115763000Y-91606250D01*
X115763000Y-90482000D01*
X116017000Y-90482000D01*
X116017000Y-91606250D01*
X116175750Y-91765000D01*
X116791310Y-91765000D01*
X117024699Y-91668327D01*
X117203327Y-91489698D01*
X117300000Y-91256309D01*
X117300000Y-90640750D01*
X122100000Y-90640750D01*
X122100000Y-91256310D01*
X122196673Y-91489699D01*
X122375302Y-91668327D01*
X122608691Y-91765000D01*
X123224250Y-91765000D01*
X123383000Y-91606250D01*
X123383000Y-90482000D01*
X123637000Y-90482000D01*
X123637000Y-91606250D01*
X123795750Y-91765000D01*
X124411309Y-91765000D01*
X124644698Y-91668327D01*
X124823327Y-91489699D01*
X124920000Y-91256310D01*
X124920000Y-90640750D01*
X124761250Y-90482000D01*
X123637000Y-90482000D01*
X123383000Y-90482000D01*
X122258750Y-90482000D01*
X122100000Y-90640750D01*
X117300000Y-90640750D01*
X117141250Y-90482000D01*
X116017000Y-90482000D01*
X115763000Y-90482000D01*
X115743000Y-90482000D01*
X115743000Y-90228000D01*
X115763000Y-90228000D01*
X115763000Y-90208000D01*
X116017000Y-90208000D01*
X116017000Y-90228000D01*
X117141250Y-90228000D01*
X117300000Y-90069250D01*
X117300000Y-89453691D01*
X117203327Y-89220302D01*
X117024699Y-89041673D01*
X116791310Y-88945000D01*
X116754042Y-88945000D01*
X117085341Y-88613701D01*
X117300000Y-88095467D01*
X117300000Y-87534533D01*
X117085341Y-87016299D01*
X116688701Y-86619659D01*
X116508458Y-86545000D01*
X116688701Y-86470341D01*
X117085341Y-86073701D01*
X117300000Y-85555467D01*
X117300000Y-84994533D01*
X117085341Y-84476299D01*
X116688701Y-84079659D01*
X116508458Y-84005000D01*
X116688701Y-83930341D01*
X117085341Y-83533701D01*
X117300000Y-83015467D01*
X117300000Y-82454533D01*
X117085341Y-81936299D01*
X116688701Y-81539659D01*
X116508458Y-81465000D01*
X116688701Y-81390341D01*
X117085341Y-80993701D01*
X117300000Y-80475467D01*
X117300000Y-79914533D01*
X117085341Y-79396299D01*
X116688701Y-78999659D01*
X116170467Y-78785000D01*
X115609533Y-78785000D01*
X115091299Y-78999659D01*
X114694659Y-79396299D01*
X114480000Y-79914533D01*
X114480000Y-80475467D01*
X114694659Y-80993701D01*
X115091299Y-81390341D01*
X115271542Y-81465000D01*
X115091299Y-81539659D01*
X114694659Y-81936299D01*
X114480000Y-82454533D01*
X114480000Y-83015467D01*
X114489180Y-83037629D01*
X114447777Y-83099592D01*
X112889253Y-84658117D01*
X112825629Y-84700629D01*
X112657212Y-84952684D01*
X112613000Y-85174953D01*
X112613000Y-85174957D01*
X112598073Y-85250000D01*
X112613000Y-85325043D01*
X112613001Y-101895952D01*
X112598073Y-101971000D01*
X112657213Y-102268317D01*
X112781709Y-102454638D01*
X112825630Y-102520371D01*
X112889251Y-102562881D01*
X113207998Y-102881629D01*
X113192191Y-102892191D01*
X113051843Y-103102235D01*
X113002560Y-103350000D01*
X113002560Y-105050000D01*
X113051843Y-105297765D01*
X113192191Y-105507809D01*
X113402235Y-105648157D01*
X113650000Y-105697440D01*
X115350000Y-105697440D01*
X115597765Y-105648157D01*
X115807809Y-105507809D01*
X115948157Y-105297765D01*
X115957184Y-105252381D01*
X115969375Y-105270625D01*
X116460582Y-105598839D01*
X116893744Y-105685000D01*
X117186256Y-105685000D01*
X117619418Y-105598839D01*
X118110625Y-105270625D01*
X118310000Y-104972239D01*
X118509375Y-105270625D01*
X119000582Y-105598839D01*
X119433744Y-105685000D01*
X119726256Y-105685000D01*
X120159418Y-105598839D01*
X120650625Y-105270625D01*
X120850000Y-104972239D01*
X121049375Y-105270625D01*
X121540582Y-105598839D01*
X121973744Y-105685000D01*
X122266256Y-105685000D01*
X122484048Y-105641679D01*
X125573118Y-108730749D01*
X125615629Y-108794371D01*
X125867683Y-108962788D01*
X126089952Y-109007000D01*
X126089953Y-109007000D01*
X126165000Y-109021928D01*
X126240047Y-109007000D01*
X147067398Y-109007000D01*
X147088466Y-109057862D01*
X147492138Y-109461534D01*
X147621216Y-109515000D01*
X147492138Y-109568466D01*
X147088466Y-109972138D01*
X146870000Y-110499561D01*
X146870000Y-111070439D01*
X147088466Y-111597862D01*
X147492138Y-112001534D01*
X147621216Y-112055000D01*
X147492138Y-112108466D01*
X147088466Y-112512138D01*
X146870000Y-113039561D01*
X146870000Y-113610439D01*
X147088466Y-114137862D01*
X147492138Y-114541534D01*
X147621216Y-114595000D01*
X147492138Y-114648466D01*
X147088466Y-115052138D01*
X146870000Y-115579561D01*
X146870000Y-116150439D01*
X147088466Y-116677862D01*
X147492138Y-117081534D01*
X147621216Y-117135000D01*
X147492138Y-117188466D01*
X147088466Y-117592138D01*
X146870000Y-118119561D01*
X146870000Y-118690439D01*
X147088466Y-119217862D01*
X147492138Y-119621534D01*
X147621216Y-119675000D01*
X147492138Y-119728466D01*
X147088466Y-120132138D01*
X146870000Y-120659561D01*
X146870000Y-121230439D01*
X147088466Y-121757862D01*
X147492138Y-122161534D01*
X147621216Y-122215000D01*
X147492138Y-122268466D01*
X147088466Y-122672138D01*
X146870000Y-123199561D01*
X146870000Y-123770439D01*
X147088466Y-124297862D01*
X147492138Y-124701534D01*
X147621216Y-124755000D01*
X147492138Y-124808466D01*
X147088466Y-125212138D01*
X146870000Y-125739561D01*
X146870000Y-126310439D01*
X147088466Y-126837862D01*
X147492138Y-127241534D01*
X147621216Y-127295000D01*
X147492138Y-127348466D01*
X147088466Y-127752138D01*
X146870000Y-128279561D01*
X146870000Y-128850439D01*
X147088466Y-129377862D01*
X147492138Y-129781534D01*
X147621216Y-129835000D01*
X147492138Y-129888466D01*
X147088466Y-130292138D01*
X146870000Y-130819561D01*
X146870000Y-131390439D01*
X147088466Y-131917862D01*
X147492138Y-132321534D01*
X147621216Y-132375000D01*
X147492138Y-132428466D01*
X147088466Y-132832138D01*
X146870000Y-133359561D01*
X146870000Y-133930439D01*
X147088466Y-134457862D01*
X147492138Y-134861534D01*
X147621216Y-134915000D01*
X147492138Y-134968466D01*
X147088466Y-135372138D01*
X146870000Y-135899561D01*
X146870000Y-136470439D01*
X147088466Y-136997862D01*
X147492138Y-137401534D01*
X148019561Y-137620000D01*
X148590439Y-137620000D01*
X149117862Y-137401534D01*
X149521534Y-136997862D01*
X149740000Y-136470439D01*
X149740000Y-135899561D01*
X149521534Y-135372138D01*
X149117862Y-134968466D01*
X148988784Y-134915000D01*
X149117862Y-134861534D01*
X149521534Y-134457862D01*
X149740000Y-133930439D01*
X149740000Y-133359561D01*
X149521534Y-132832138D01*
X149117862Y-132428466D01*
X148988784Y-132375000D01*
X149117862Y-132321534D01*
X149521534Y-131917862D01*
X149740000Y-131390439D01*
X149740000Y-130819561D01*
X149521534Y-130292138D01*
X149117862Y-129888466D01*
X148988784Y-129835000D01*
X149117862Y-129781534D01*
X149521534Y-129377862D01*
X149740000Y-128850439D01*
X149740000Y-128279561D01*
X149521534Y-127752138D01*
X149117862Y-127348466D01*
X148988784Y-127295000D01*
X149117862Y-127241534D01*
X149521534Y-126837862D01*
X149542602Y-126787000D01*
X156474957Y-126787000D01*
X156550000Y-126801927D01*
X156625043Y-126787000D01*
X156625048Y-126787000D01*
X156847317Y-126742788D01*
X157099371Y-126574371D01*
X157141883Y-126510747D01*
X160764630Y-122888001D01*
X162239053Y-122888001D01*
X162110000Y-123199561D01*
X162110000Y-123770439D01*
X162328466Y-124297862D01*
X162732138Y-124701534D01*
X162861216Y-124755000D01*
X162732138Y-124808466D01*
X162328466Y-125212138D01*
X162110000Y-125739561D01*
X162110000Y-126310439D01*
X162328466Y-126837862D01*
X162732138Y-127241534D01*
X162861216Y-127295000D01*
X162732138Y-127348466D01*
X162328466Y-127752138D01*
X162110000Y-128279561D01*
X162110000Y-128850439D01*
X162328466Y-129377862D01*
X162732138Y-129781534D01*
X162861216Y-129835000D01*
X162732138Y-129888466D01*
X162328466Y-130292138D01*
X162110000Y-130819561D01*
X162110000Y-131390439D01*
X162328466Y-131917862D01*
X162732138Y-132321534D01*
X162861216Y-132375000D01*
X162732138Y-132428466D01*
X162328466Y-132832138D01*
X162307398Y-132883000D01*
X162080043Y-132883000D01*
X162005000Y-132868073D01*
X161929957Y-132883000D01*
X161929952Y-132883000D01*
X161707683Y-132927212D01*
X161455629Y-133095629D01*
X161413118Y-133159251D01*
X156904370Y-137668000D01*
X147225631Y-137668000D01*
X143171883Y-133614253D01*
X143129371Y-133550629D01*
X142877317Y-133382212D01*
X142655048Y-133338000D01*
X142655043Y-133338000D01*
X142580000Y-133323073D01*
X142504957Y-133338000D01*
X125729047Y-133338000D01*
X125654000Y-133323072D01*
X125578953Y-133338000D01*
X125578952Y-133338000D01*
X125356683Y-133382212D01*
X125104629Y-133550629D01*
X125062118Y-133614251D01*
X124449231Y-134227139D01*
X124385610Y-134269649D01*
X124343099Y-134333271D01*
X124343098Y-134333272D01*
X124281420Y-134425580D01*
X124084980Y-134425580D01*
X123837215Y-134474863D01*
X123627171Y-134615211D01*
X123486823Y-134825255D01*
X123437540Y-135073020D01*
X123437540Y-136773020D01*
X123486823Y-137020785D01*
X123627171Y-137230829D01*
X123837215Y-137371177D01*
X124084980Y-137420460D01*
X125784980Y-137420460D01*
X126032745Y-137371177D01*
X126242789Y-137230829D01*
X126383137Y-137020785D01*
X126392164Y-136975401D01*
X126404355Y-136993645D01*
X126895562Y-137321859D01*
X127328724Y-137408020D01*
X127621236Y-137408020D01*
X128054398Y-137321859D01*
X128545605Y-136993645D01*
X128758823Y-136674542D01*
X128819797Y-136804378D01*
X129248056Y-137194665D01*
X129658090Y-137364496D01*
X129887980Y-137243175D01*
X129887980Y-136050020D01*
X130141980Y-136050020D01*
X130141980Y-137243175D01*
X130371870Y-137364496D01*
X130781904Y-137194665D01*
X131210163Y-136804378D01*
X131456466Y-136279912D01*
X131335799Y-136050020D01*
X130141980Y-136050020D01*
X129887980Y-136050020D01*
X129867980Y-136050020D01*
X129867980Y-135796020D01*
X129887980Y-135796020D01*
X129887980Y-135776020D01*
X130141980Y-135776020D01*
X130141980Y-135796020D01*
X131335799Y-135796020D01*
X131456466Y-135566128D01*
X131210163Y-135041662D01*
X131013021Y-134862000D01*
X136740721Y-134862000D01*
X136687203Y-134942095D01*
X136637920Y-135189860D01*
X136637920Y-136889860D01*
X136687203Y-137137625D01*
X136827551Y-137347669D01*
X137037595Y-137488017D01*
X137285360Y-137537300D01*
X138985360Y-137537300D01*
X139233125Y-137488017D01*
X139443169Y-137347669D01*
X139583517Y-137137625D01*
X139604099Y-137034152D01*
X139908436Y-137311505D01*
X140318470Y-137481336D01*
X140548360Y-137360015D01*
X140548360Y-136166860D01*
X140802360Y-136166860D01*
X140802360Y-137360015D01*
X141032250Y-137481336D01*
X141442284Y-137311505D01*
X141870543Y-136921218D01*
X142116846Y-136396752D01*
X141996179Y-136166860D01*
X140802360Y-136166860D01*
X140548360Y-136166860D01*
X140528360Y-136166860D01*
X140528360Y-135912860D01*
X140548360Y-135912860D01*
X140548360Y-135892860D01*
X140802360Y-135892860D01*
X140802360Y-135912860D01*
X141996179Y-135912860D01*
X142116846Y-135682968D01*
X141870543Y-135158502D01*
X141545194Y-134862000D01*
X142264370Y-134862000D01*
X146318118Y-138915749D01*
X146360629Y-138979371D01*
X146612683Y-139147788D01*
X146834952Y-139192000D01*
X146834953Y-139192000D01*
X146910000Y-139206928D01*
X146985047Y-139192000D01*
X157144957Y-139192000D01*
X157220000Y-139206927D01*
X157295043Y-139192000D01*
X157295048Y-139192000D01*
X157517317Y-139147788D01*
X157769371Y-138979371D01*
X157811883Y-138915747D01*
X160256880Y-136470750D01*
X162110000Y-136470750D01*
X162110000Y-137111309D01*
X162206673Y-137344698D01*
X162385301Y-137523327D01*
X162618690Y-137620000D01*
X163259250Y-137620000D01*
X163418000Y-137461250D01*
X163418000Y-136312000D01*
X163672000Y-136312000D01*
X163672000Y-137461250D01*
X163830750Y-137620000D01*
X164471310Y-137620000D01*
X164704699Y-137523327D01*
X164883327Y-137344698D01*
X164980000Y-137111309D01*
X164980000Y-136470750D01*
X164821250Y-136312000D01*
X163672000Y-136312000D01*
X163418000Y-136312000D01*
X162268750Y-136312000D01*
X162110000Y-136470750D01*
X160256880Y-136470750D01*
X162311274Y-134416357D01*
X162328466Y-134457862D01*
X162620604Y-134750000D01*
X162618690Y-134750000D01*
X162385301Y-134846673D01*
X162206673Y-135025302D01*
X162110000Y-135258691D01*
X162110000Y-135899250D01*
X162268750Y-136058000D01*
X163418000Y-136058000D01*
X163418000Y-136038000D01*
X163672000Y-136038000D01*
X163672000Y-136058000D01*
X164821250Y-136058000D01*
X164980000Y-135899250D01*
X164980000Y-135258691D01*
X164883327Y-135025302D01*
X164704699Y-134846673D01*
X164471310Y-134750000D01*
X164469396Y-134750000D01*
X164761534Y-134457862D01*
X164980000Y-133930439D01*
X164980000Y-133359561D01*
X164761534Y-132832138D01*
X164357862Y-132428466D01*
X164228784Y-132375000D01*
X164357862Y-132321534D01*
X164761534Y-131917862D01*
X164980000Y-131390439D01*
X164980000Y-130915750D01*
X167480000Y-130915750D01*
X167480000Y-131531309D01*
X167576673Y-131764698D01*
X167755301Y-131943327D01*
X167988690Y-132040000D01*
X168604250Y-132040000D01*
X168763000Y-131881250D01*
X168763000Y-130757000D01*
X169017000Y-130757000D01*
X169017000Y-131881250D01*
X169175750Y-132040000D01*
X169791310Y-132040000D01*
X170024699Y-131943327D01*
X170203327Y-131764698D01*
X170300000Y-131531309D01*
X170300000Y-130915750D01*
X175100000Y-130915750D01*
X175100000Y-131531310D01*
X175196673Y-131764699D01*
X175375302Y-131943327D01*
X175608691Y-132040000D01*
X176224250Y-132040000D01*
X176383000Y-131881250D01*
X176383000Y-130757000D01*
X176637000Y-130757000D01*
X176637000Y-131881250D01*
X176795750Y-132040000D01*
X177411309Y-132040000D01*
X177644698Y-131943327D01*
X177823327Y-131764699D01*
X177920000Y-131531310D01*
X177920000Y-130915750D01*
X177761250Y-130757000D01*
X176637000Y-130757000D01*
X176383000Y-130757000D01*
X175258750Y-130757000D01*
X175100000Y-130915750D01*
X170300000Y-130915750D01*
X170141250Y-130757000D01*
X169017000Y-130757000D01*
X168763000Y-130757000D01*
X167638750Y-130757000D01*
X167480000Y-130915750D01*
X164980000Y-130915750D01*
X164980000Y-130819561D01*
X164761534Y-130292138D01*
X164357862Y-129888466D01*
X164228784Y-129835000D01*
X164357862Y-129781534D01*
X164761534Y-129377862D01*
X164980000Y-128850439D01*
X164980000Y-128279561D01*
X164761534Y-127752138D01*
X164357862Y-127348466D01*
X164228784Y-127295000D01*
X164357862Y-127241534D01*
X164761534Y-126837862D01*
X164980000Y-126310439D01*
X164980000Y-125739561D01*
X164761534Y-125212138D01*
X164357862Y-124808466D01*
X164228784Y-124755000D01*
X164357862Y-124701534D01*
X164761534Y-124297862D01*
X164980000Y-123770439D01*
X164980000Y-123432631D01*
X164996010Y-123448641D01*
X164996009Y-127812966D01*
X164981082Y-127888009D01*
X164996009Y-127963052D01*
X164996009Y-127963056D01*
X165040221Y-128185325D01*
X165208638Y-128437380D01*
X165272262Y-128479892D01*
X166524119Y-129731750D01*
X166566630Y-129795372D01*
X166818684Y-129963789D01*
X167040953Y-130008001D01*
X167040954Y-130008001D01*
X167116001Y-130022929D01*
X167191048Y-130008001D01*
X167480000Y-130008001D01*
X167480000Y-130344250D01*
X167638750Y-130503000D01*
X168763000Y-130503000D01*
X168763000Y-130483000D01*
X169017000Y-130483000D01*
X169017000Y-130503000D01*
X170141250Y-130503000D01*
X170300000Y-130344250D01*
X170300000Y-130008001D01*
X171228956Y-130008001D01*
X171303999Y-130022928D01*
X171379042Y-130008001D01*
X171379047Y-130008001D01*
X171601316Y-129963789D01*
X171853370Y-129795372D01*
X171895882Y-129731748D01*
X174415749Y-127211882D01*
X174479371Y-127169371D01*
X174524742Y-127101468D01*
X174647787Y-126917319D01*
X174647787Y-126917318D01*
X174647788Y-126917317D01*
X174692000Y-126695048D01*
X174692000Y-126695044D01*
X174706927Y-126620001D01*
X174692000Y-126544958D01*
X174692000Y-120189533D01*
X175100000Y-120189533D01*
X175100000Y-120750467D01*
X175314659Y-121268701D01*
X175711299Y-121665341D01*
X175891542Y-121740000D01*
X175711299Y-121814659D01*
X175314659Y-122211299D01*
X175100000Y-122729533D01*
X175100000Y-123290467D01*
X175314659Y-123808701D01*
X175711299Y-124205341D01*
X175891542Y-124280000D01*
X175711299Y-124354659D01*
X175314659Y-124751299D01*
X175100000Y-125269533D01*
X175100000Y-125830467D01*
X175314659Y-126348701D01*
X175711299Y-126745341D01*
X175891542Y-126820000D01*
X175711299Y-126894659D01*
X175314659Y-127291299D01*
X175100000Y-127809533D01*
X175100000Y-128370467D01*
X175314659Y-128888701D01*
X175645958Y-129220000D01*
X175608691Y-129220000D01*
X175375302Y-129316673D01*
X175196673Y-129495301D01*
X175100000Y-129728690D01*
X175100000Y-130344250D01*
X175258750Y-130503000D01*
X176383000Y-130503000D01*
X176383000Y-130483000D01*
X176637000Y-130483000D01*
X176637000Y-130503000D01*
X177761250Y-130503000D01*
X177920000Y-130344250D01*
X177920000Y-129728690D01*
X177823327Y-129495301D01*
X177644698Y-129316673D01*
X177411309Y-129220000D01*
X177374042Y-129220000D01*
X177705341Y-128888701D01*
X177920000Y-128370467D01*
X177920000Y-127809533D01*
X177705341Y-127291299D01*
X177308701Y-126894659D01*
X177128458Y-126820000D01*
X177308701Y-126745341D01*
X177705341Y-126348701D01*
X177920000Y-125830467D01*
X177920000Y-125269533D01*
X177705341Y-124751299D01*
X177308701Y-124354659D01*
X177128458Y-124280000D01*
X177308701Y-124205341D01*
X177705341Y-123808701D01*
X177920000Y-123290467D01*
X177920000Y-122729533D01*
X177705341Y-122211299D01*
X177308701Y-121814659D01*
X177128458Y-121740000D01*
X177308701Y-121665341D01*
X177705341Y-121268701D01*
X177920000Y-120750467D01*
X177920000Y-120189533D01*
X177705341Y-119671299D01*
X177308701Y-119274659D01*
X176790467Y-119060000D01*
X176229533Y-119060000D01*
X175711299Y-119274659D01*
X175314659Y-119671299D01*
X175100000Y-120189533D01*
X174692000Y-120189533D01*
X174692000Y-116585630D01*
X178957210Y-112320421D01*
X178960327Y-112318338D01*
X179175204Y-112361080D01*
X179467716Y-112361080D01*
X179900878Y-112274919D01*
X180392085Y-111946705D01*
X180605303Y-111627602D01*
X180666277Y-111757438D01*
X181094536Y-112147725D01*
X181504570Y-112317556D01*
X181734460Y-112196235D01*
X181734460Y-111003080D01*
X181988460Y-111003080D01*
X181988460Y-112196235D01*
X182218350Y-112317556D01*
X182628384Y-112147725D01*
X183056643Y-111757438D01*
X183302946Y-111232972D01*
X183182279Y-111003080D01*
X181988460Y-111003080D01*
X181734460Y-111003080D01*
X181714460Y-111003080D01*
X181714460Y-110749080D01*
X181734460Y-110749080D01*
X181734460Y-109555925D01*
X181988460Y-109555925D01*
X181988460Y-110749080D01*
X183182279Y-110749080D01*
X183302946Y-110519188D01*
X183056643Y-109994722D01*
X182628384Y-109604435D01*
X182218350Y-109434604D01*
X181988460Y-109555925D01*
X181734460Y-109555925D01*
X181504570Y-109434604D01*
X181094536Y-109604435D01*
X180666277Y-109994722D01*
X180605303Y-110124558D01*
X180392085Y-109805455D01*
X179900878Y-109477241D01*
X179467716Y-109391080D01*
X179175204Y-109391080D01*
X178742042Y-109477241D01*
X178250835Y-109805455D01*
X178051460Y-110103841D01*
X177852085Y-109805455D01*
X177360878Y-109477241D01*
X176927716Y-109391080D01*
X176635204Y-109391080D01*
X176202042Y-109477241D01*
X175710835Y-109805455D01*
X175511460Y-110103841D01*
X175312085Y-109805455D01*
X174820878Y-109477241D01*
X174387716Y-109391080D01*
X174095204Y-109391080D01*
X173662042Y-109477241D01*
X173170835Y-109805455D01*
X172971460Y-110103841D01*
X172772085Y-109805455D01*
X172280878Y-109477241D01*
X171847716Y-109391080D01*
X171555204Y-109391080D01*
X171122042Y-109477241D01*
X170630835Y-109805455D01*
X170618644Y-109823699D01*
X170609617Y-109778315D01*
X170469269Y-109568271D01*
X170259225Y-109427923D01*
X170011460Y-109378640D01*
X168311460Y-109378640D01*
X168262000Y-109388478D01*
X168262000Y-103690630D01*
X170015001Y-101937630D01*
X170015000Y-104027315D01*
X170060546Y-104256291D01*
X170234047Y-104515953D01*
X170493708Y-104689454D01*
X170800000Y-104750379D01*
X170877316Y-104735000D01*
X183747684Y-104735000D01*
X183825000Y-104750379D01*
X184131292Y-104689454D01*
X184390953Y-104515953D01*
X184564454Y-104256292D01*
X184610000Y-104027316D01*
X184610000Y-104027315D01*
X184625379Y-103950000D01*
X184610000Y-103872684D01*
X184610000Y-101027316D01*
X184625379Y-100950000D01*
X184564454Y-100643708D01*
X184390953Y-100384047D01*
X184131292Y-100210546D01*
X183902316Y-100165000D01*
X183825000Y-100149621D01*
X183747684Y-100165000D01*
X176781064Y-100165000D01*
X184698621Y-92247444D01*
X184698621Y-111994888D01*
X184634036Y-112548843D01*
X184459417Y-113029912D01*
X184178812Y-113457905D01*
X183807272Y-113809869D01*
X183364728Y-114066918D01*
X182864636Y-114218382D01*
X182413838Y-114258614D01*
X182410436Y-114259322D01*
X182403585Y-114259597D01*
X181795045Y-114321966D01*
X181758848Y-114329992D01*
X181721887Y-114332968D01*
X181627900Y-114357806D01*
X180968421Y-114576591D01*
X180929877Y-114594568D01*
X180889399Y-114607644D01*
X180803647Y-114653438D01*
X180212187Y-115018069D01*
X180178812Y-115044430D01*
X180142428Y-115066468D01*
X180069512Y-115130761D01*
X179577799Y-115621677D01*
X179551384Y-115655009D01*
X179521046Y-115684825D01*
X179464876Y-115764168D01*
X179099285Y-116355035D01*
X179081247Y-116393548D01*
X179058580Y-116429547D01*
X179022169Y-116519685D01*
X178802315Y-117178807D01*
X178793620Y-117220438D01*
X178779844Y-117260683D01*
X178765146Y-117356779D01*
X178709223Y-117977685D01*
X178695954Y-118044241D01*
X178686265Y-140146900D01*
X125491139Y-140146900D01*
X124012375Y-140070696D01*
X122569292Y-139846005D01*
X121156941Y-139474164D01*
X119790305Y-138959117D01*
X118483837Y-138306313D01*
X117251403Y-137522678D01*
X116106038Y-136616498D01*
X115059902Y-135597398D01*
X114124054Y-134476149D01*
X113308428Y-133264654D01*
X112621647Y-131975722D01*
X112071001Y-130623033D01*
X111874830Y-129950000D01*
X119045000Y-129950000D01*
X119165156Y-130708637D01*
X119513863Y-131393013D01*
X120056987Y-131936137D01*
X120741363Y-132284844D01*
X121500000Y-132405000D01*
X122258637Y-132284844D01*
X122943013Y-131936137D01*
X123486137Y-131393013D01*
X123834844Y-130708637D01*
X123955000Y-129950000D01*
X123834844Y-129191363D01*
X123486137Y-128506987D01*
X122943013Y-127963863D01*
X122258637Y-127615156D01*
X121500000Y-127495000D01*
X120741363Y-127615156D01*
X120056987Y-127963863D01*
X119513863Y-128506987D01*
X119165156Y-129191363D01*
X119045000Y-129950000D01*
X111874830Y-129950000D01*
X111662317Y-129220903D01*
X111399928Y-127784193D01*
X111285126Y-126309036D01*
X111283857Y-126254734D01*
X111281580Y-118300000D01*
X111424621Y-118300000D01*
X111440000Y-118377316D01*
X111440001Y-121222679D01*
X111424621Y-121300000D01*
X111485546Y-121606292D01*
X111659047Y-121865953D01*
X111918708Y-122039454D01*
X112147684Y-122085000D01*
X112225000Y-122100379D01*
X112302316Y-122085000D01*
X125147684Y-122085000D01*
X125225000Y-122100379D01*
X125302316Y-122085000D01*
X125531292Y-122039454D01*
X125790953Y-121865953D01*
X125964454Y-121606292D01*
X126025379Y-121300000D01*
X126010000Y-121222684D01*
X126010000Y-118377316D01*
X126025379Y-118300000D01*
X125964454Y-117993708D01*
X125790953Y-117734047D01*
X125531292Y-117560546D01*
X125302316Y-117515000D01*
X125225000Y-117499621D01*
X125147684Y-117515000D01*
X112302316Y-117515000D01*
X112225000Y-117499621D01*
X112147684Y-117515000D01*
X111918708Y-117560546D01*
X111659047Y-117734047D01*
X111485546Y-117993708D01*
X111424621Y-118300000D01*
X111281580Y-118300000D01*
X111279504Y-111050000D01*
X116320000Y-111050000D01*
X116440156Y-111808637D01*
X116788863Y-112493013D01*
X117331987Y-113036137D01*
X118016363Y-113384844D01*
X118775000Y-113505000D01*
X119533637Y-113384844D01*
X120218013Y-113036137D01*
X120761137Y-112493013D01*
X121109844Y-111808637D01*
X121230000Y-111050000D01*
X121109844Y-110291363D01*
X120761137Y-109606987D01*
X120218013Y-109063863D01*
X119533637Y-108715156D01*
X118775000Y-108595000D01*
X118016363Y-108715156D01*
X117331987Y-109063863D01*
X116788863Y-109606987D01*
X116440156Y-110291363D01*
X116320000Y-111050000D01*
X111279504Y-111050000D01*
X111268844Y-73825506D01*
X128406304Y-73825506D01*
X128483620Y-73840885D01*
X128789912Y-73779960D01*
X129049573Y-73606459D01*
X129076774Y-73565750D01*
X132834080Y-73565750D01*
X132834080Y-74181309D01*
X132930753Y-74414698D01*
X133109381Y-74593327D01*
X133342770Y-74690000D01*
X133958330Y-74690000D01*
X134117080Y-74531250D01*
X134117080Y-73407000D01*
X134371080Y-73407000D01*
X134371080Y-74531250D01*
X134529830Y-74690000D01*
X135145390Y-74690000D01*
X135378779Y-74593327D01*
X135557407Y-74414698D01*
X135654080Y-74181309D01*
X135654080Y-73565750D01*
X140454080Y-73565750D01*
X140454080Y-74181310D01*
X140550753Y-74414699D01*
X140729382Y-74593327D01*
X140962771Y-74690000D01*
X141578330Y-74690000D01*
X141737080Y-74531250D01*
X141737080Y-73407000D01*
X141991080Y-73407000D01*
X141991080Y-74531250D01*
X142149830Y-74690000D01*
X142765389Y-74690000D01*
X142998778Y-74593327D01*
X143177407Y-74414699D01*
X143274080Y-74181310D01*
X143274080Y-73565750D01*
X143115330Y-73407000D01*
X141991080Y-73407000D01*
X141737080Y-73407000D01*
X140612830Y-73407000D01*
X140454080Y-73565750D01*
X135654080Y-73565750D01*
X135495330Y-73407000D01*
X134371080Y-73407000D01*
X134117080Y-73407000D01*
X132992830Y-73407000D01*
X132834080Y-73565750D01*
X129076774Y-73565750D01*
X129223074Y-73346798D01*
X129268620Y-73117822D01*
X129283999Y-73040506D01*
X129268620Y-72963190D01*
X129268620Y-62839533D01*
X132834080Y-62839533D01*
X132834080Y-63400467D01*
X133048739Y-63918701D01*
X133445379Y-64315341D01*
X133625622Y-64390000D01*
X133445379Y-64464659D01*
X133048739Y-64861299D01*
X132834080Y-65379533D01*
X132834080Y-65940467D01*
X133048739Y-66458701D01*
X133445379Y-66855341D01*
X133625622Y-66930000D01*
X133445379Y-67004659D01*
X133048739Y-67401299D01*
X132834080Y-67919533D01*
X132834080Y-68480467D01*
X133048739Y-68998701D01*
X133445379Y-69395341D01*
X133625622Y-69470000D01*
X133445379Y-69544659D01*
X133048739Y-69941299D01*
X132834080Y-70459533D01*
X132834080Y-71020467D01*
X133048739Y-71538701D01*
X133380038Y-71870000D01*
X133342770Y-71870000D01*
X133109381Y-71966673D01*
X132930753Y-72145302D01*
X132834080Y-72378691D01*
X132834080Y-72994250D01*
X132992830Y-73153000D01*
X134117080Y-73153000D01*
X134117080Y-73133000D01*
X134371080Y-73133000D01*
X134371080Y-73153000D01*
X135495330Y-73153000D01*
X135654080Y-72994250D01*
X135654080Y-72378691D01*
X135557407Y-72145302D01*
X135378779Y-71966673D01*
X135145390Y-71870000D01*
X135108122Y-71870000D01*
X135439421Y-71538701D01*
X135654080Y-71020467D01*
X135654080Y-70459533D01*
X135439421Y-69941299D01*
X135042781Y-69544659D01*
X134862538Y-69470000D01*
X135042781Y-69395341D01*
X135439421Y-68998701D01*
X135654080Y-68480467D01*
X135654080Y-67919533D01*
X135439421Y-67401299D01*
X135042781Y-67004659D01*
X134862538Y-66930000D01*
X135042781Y-66855341D01*
X135439421Y-66458701D01*
X135654080Y-65940467D01*
X135654080Y-65379533D01*
X135439421Y-64861299D01*
X135042781Y-64464659D01*
X134862538Y-64390000D01*
X135042781Y-64315341D01*
X135439421Y-63918701D01*
X135654080Y-63400467D01*
X135654080Y-62839533D01*
X140454080Y-62839533D01*
X140454080Y-63400467D01*
X140668739Y-63918701D01*
X141065379Y-64315341D01*
X141245622Y-64390000D01*
X141065379Y-64464659D01*
X140668739Y-64861299D01*
X140454080Y-65379533D01*
X140454080Y-65940467D01*
X140668739Y-66458701D01*
X141065379Y-66855341D01*
X141245622Y-66930000D01*
X141065379Y-67004659D01*
X140668739Y-67401299D01*
X140454080Y-67919533D01*
X140454080Y-68480467D01*
X140668739Y-68998701D01*
X141065379Y-69395341D01*
X141245622Y-69470000D01*
X141065379Y-69544659D01*
X140668739Y-69941299D01*
X140454080Y-70459533D01*
X140454080Y-71020467D01*
X140668739Y-71538701D01*
X141000038Y-71870000D01*
X140962771Y-71870000D01*
X140729382Y-71966673D01*
X140550753Y-72145301D01*
X140454080Y-72378690D01*
X140454080Y-72994250D01*
X140612830Y-73153000D01*
X141737080Y-73153000D01*
X141737080Y-73133000D01*
X141991080Y-73133000D01*
X141991080Y-73153000D01*
X143115330Y-73153000D01*
X143274080Y-72994250D01*
X143274080Y-72378690D01*
X143177407Y-72145301D01*
X142998778Y-71966673D01*
X142765389Y-71870000D01*
X142728122Y-71870000D01*
X143059421Y-71538701D01*
X143274080Y-71020467D01*
X143274080Y-70459533D01*
X143059421Y-69941299D01*
X142662781Y-69544659D01*
X142482538Y-69470000D01*
X142662781Y-69395341D01*
X143059421Y-68998701D01*
X143274080Y-68480467D01*
X143274080Y-67919533D01*
X143059421Y-67401299D01*
X142662781Y-67004659D01*
X142482538Y-66930000D01*
X142662781Y-66855341D01*
X143059421Y-66458701D01*
X143274080Y-65940467D01*
X143274080Y-65379533D01*
X143059421Y-64861299D01*
X142662781Y-64464659D01*
X142482538Y-64390000D01*
X142662781Y-64315341D01*
X143059421Y-63918701D01*
X143274080Y-63400467D01*
X143274080Y-62839533D01*
X143059421Y-62321299D01*
X142662781Y-61924659D01*
X142144547Y-61710000D01*
X141583613Y-61710000D01*
X141065379Y-61924659D01*
X140668739Y-62321299D01*
X140454080Y-62839533D01*
X135654080Y-62839533D01*
X135439421Y-62321299D01*
X135042781Y-61924659D01*
X134524547Y-61710000D01*
X133963613Y-61710000D01*
X133445379Y-61924659D01*
X133048739Y-62321299D01*
X132834080Y-62839533D01*
X129268620Y-62839533D01*
X129268620Y-58825506D01*
X147906304Y-58825506D01*
X147983620Y-58840885D01*
X148289912Y-58779960D01*
X148442504Y-58678000D01*
X149845073Y-58678000D01*
X149860001Y-58753048D01*
X149860000Y-74092957D01*
X149845073Y-74168000D01*
X149860000Y-74243043D01*
X149860000Y-74243047D01*
X149904212Y-74465316D01*
X150072629Y-74717371D01*
X150136253Y-74759883D01*
X150763001Y-75386632D01*
X150763001Y-75527560D01*
X150675000Y-75527560D01*
X150427235Y-75576843D01*
X150217191Y-75717191D01*
X150076843Y-75927235D01*
X150027560Y-76175000D01*
X150027560Y-77875000D01*
X150076843Y-78122765D01*
X150217191Y-78332809D01*
X150427235Y-78473157D01*
X150675000Y-78522440D01*
X152375000Y-78522440D01*
X152622765Y-78473157D01*
X152832809Y-78332809D01*
X152973157Y-78122765D01*
X152982184Y-78077381D01*
X152994375Y-78095625D01*
X153485582Y-78423839D01*
X153918744Y-78510000D01*
X154211256Y-78510000D01*
X154644418Y-78423839D01*
X155135625Y-78095625D01*
X155335000Y-77797239D01*
X155534375Y-78095625D01*
X156025582Y-78423839D01*
X156458744Y-78510000D01*
X156751256Y-78510000D01*
X157184418Y-78423839D01*
X157675625Y-78095625D01*
X157875000Y-77797239D01*
X158074375Y-78095625D01*
X158565582Y-78423839D01*
X158998744Y-78510000D01*
X159291256Y-78510000D01*
X159724418Y-78423839D01*
X160215625Y-78095625D01*
X160415000Y-77797239D01*
X160614375Y-78095625D01*
X161105582Y-78423839D01*
X161538744Y-78510000D01*
X161831256Y-78510000D01*
X162264418Y-78423839D01*
X162755625Y-78095625D01*
X162968843Y-77776522D01*
X163029817Y-77906358D01*
X163458076Y-78296645D01*
X163868110Y-78466476D01*
X164098000Y-78345155D01*
X164098000Y-77152000D01*
X164352000Y-77152000D01*
X164352000Y-78345155D01*
X164581890Y-78466476D01*
X164991924Y-78296645D01*
X165420183Y-77906358D01*
X165666486Y-77381892D01*
X165545819Y-77152000D01*
X164352000Y-77152000D01*
X164098000Y-77152000D01*
X164078000Y-77152000D01*
X164078000Y-76898000D01*
X164098000Y-76898000D01*
X164098000Y-75704845D01*
X164352000Y-75704845D01*
X164352000Y-76898000D01*
X165545819Y-76898000D01*
X165666486Y-76668108D01*
X165420183Y-76143642D01*
X164991924Y-75753355D01*
X164581890Y-75583524D01*
X164352000Y-75704845D01*
X164098000Y-75704845D01*
X163868110Y-75583524D01*
X163458076Y-75753355D01*
X163029817Y-76143642D01*
X162968843Y-76273478D01*
X162755625Y-75954375D01*
X162264418Y-75626161D01*
X161831256Y-75540000D01*
X161538744Y-75540000D01*
X161105582Y-75626161D01*
X160614375Y-75954375D01*
X160415000Y-76252761D01*
X160215625Y-75954375D01*
X159724418Y-75626161D01*
X159291256Y-75540000D01*
X158998744Y-75540000D01*
X158565582Y-75626161D01*
X158074375Y-75954375D01*
X157875000Y-76252761D01*
X157675625Y-75954375D01*
X157184418Y-75626161D01*
X156751256Y-75540000D01*
X156458744Y-75540000D01*
X156025582Y-75626161D01*
X155534375Y-75954375D01*
X155335000Y-76252761D01*
X155135625Y-75954375D01*
X154827065Y-75748202D01*
X154827000Y-75747875D01*
X154827000Y-75747871D01*
X154782788Y-75525602D01*
X154614371Y-75273548D01*
X154550749Y-75231037D01*
X152654000Y-73334289D01*
X152654000Y-70150000D01*
X155195000Y-70150000D01*
X155315156Y-70908637D01*
X155663863Y-71593013D01*
X156206987Y-72136137D01*
X156891363Y-72484844D01*
X157650000Y-72605000D01*
X158408637Y-72484844D01*
X159093013Y-72136137D01*
X159636137Y-71593013D01*
X159984844Y-70908637D01*
X160105000Y-70150000D01*
X159984844Y-69391363D01*
X159636137Y-68706987D01*
X159093013Y-68163863D01*
X158408637Y-67815156D01*
X157650000Y-67695000D01*
X156891363Y-67815156D01*
X156206987Y-68163863D01*
X155663863Y-68706987D01*
X155315156Y-69391363D01*
X155195000Y-70150000D01*
X152654000Y-70150000D01*
X152654000Y-64548854D01*
X152813690Y-64615000D01*
X153429250Y-64615000D01*
X153588000Y-64456250D01*
X153588000Y-63332000D01*
X153842000Y-63332000D01*
X153842000Y-64456250D01*
X154000750Y-64615000D01*
X154616310Y-64615000D01*
X154849699Y-64518327D01*
X155028327Y-64339698D01*
X155125000Y-64106309D01*
X155125000Y-63490750D01*
X159925000Y-63490750D01*
X159925000Y-64106310D01*
X160021673Y-64339699D01*
X160200302Y-64518327D01*
X160433691Y-64615000D01*
X161049250Y-64615000D01*
X161208000Y-64456250D01*
X161208000Y-63332000D01*
X161462000Y-63332000D01*
X161462000Y-64456250D01*
X161620750Y-64615000D01*
X162236309Y-64615000D01*
X162469698Y-64518327D01*
X162648327Y-64339699D01*
X162745000Y-64106310D01*
X162745000Y-63490750D01*
X162586250Y-63332000D01*
X161462000Y-63332000D01*
X161208000Y-63332000D01*
X160083750Y-63332000D01*
X159925000Y-63490750D01*
X155125000Y-63490750D01*
X154966250Y-63332000D01*
X153842000Y-63332000D01*
X153588000Y-63332000D01*
X153568000Y-63332000D01*
X153568000Y-63078000D01*
X153588000Y-63078000D01*
X153588000Y-63058000D01*
X153842000Y-63058000D01*
X153842000Y-63078000D01*
X154966250Y-63078000D01*
X155125000Y-62919250D01*
X155125000Y-62303691D01*
X155028327Y-62070302D01*
X154849699Y-61891673D01*
X154616310Y-61795000D01*
X154579042Y-61795000D01*
X154910341Y-61463701D01*
X155125000Y-60945467D01*
X155125000Y-60384533D01*
X154910341Y-59866299D01*
X154513701Y-59469659D01*
X154333458Y-59395000D01*
X154513701Y-59320341D01*
X154910341Y-58923701D01*
X155125000Y-58405467D01*
X155125000Y-57844533D01*
X154910341Y-57326299D01*
X154513701Y-56929659D01*
X154333458Y-56855000D01*
X154513701Y-56780341D01*
X154910341Y-56383701D01*
X155125000Y-55865467D01*
X155125000Y-55304533D01*
X154910341Y-54786299D01*
X154513701Y-54389659D01*
X154333458Y-54315000D01*
X154513701Y-54240341D01*
X154910341Y-53843701D01*
X155125000Y-53325467D01*
X155125000Y-52764533D01*
X159925000Y-52764533D01*
X159925000Y-53325467D01*
X160139659Y-53843701D01*
X160536299Y-54240341D01*
X160716542Y-54315000D01*
X160536299Y-54389659D01*
X160139659Y-54786299D01*
X159925000Y-55304533D01*
X159925000Y-55865467D01*
X160139659Y-56383701D01*
X160536299Y-56780341D01*
X160716542Y-56855000D01*
X160536299Y-56929659D01*
X160139659Y-57326299D01*
X159925000Y-57844533D01*
X159925000Y-58405467D01*
X160139659Y-58923701D01*
X160536299Y-59320341D01*
X160716542Y-59395000D01*
X160536299Y-59469659D01*
X160139659Y-59866299D01*
X159925000Y-60384533D01*
X159925000Y-60945467D01*
X160139659Y-61463701D01*
X160470958Y-61795000D01*
X160433691Y-61795000D01*
X160200302Y-61891673D01*
X160021673Y-62070301D01*
X159925000Y-62303690D01*
X159925000Y-62919250D01*
X160083750Y-63078000D01*
X161208000Y-63078000D01*
X161208000Y-63058000D01*
X161462000Y-63058000D01*
X161462000Y-63078000D01*
X162586250Y-63078000D01*
X162745000Y-62919250D01*
X162745000Y-62303690D01*
X162648327Y-62070301D01*
X162469698Y-61891673D01*
X162236309Y-61795000D01*
X162199042Y-61795000D01*
X162530341Y-61463701D01*
X162745000Y-60945467D01*
X162745000Y-60384533D01*
X162530341Y-59866299D01*
X162133701Y-59469659D01*
X161953458Y-59395000D01*
X162133701Y-59320341D01*
X162530341Y-58923701D01*
X162745000Y-58405467D01*
X162745000Y-57844533D01*
X162530341Y-57326299D01*
X162133701Y-56929659D01*
X161953458Y-56855000D01*
X162133701Y-56780341D01*
X162530341Y-56383701D01*
X162745000Y-55865467D01*
X162745000Y-55304533D01*
X162530341Y-54786299D01*
X162133701Y-54389659D01*
X161953458Y-54315000D01*
X162133701Y-54240341D01*
X162530341Y-53843701D01*
X162745000Y-53325467D01*
X162745000Y-52764533D01*
X162530341Y-52246299D01*
X162133701Y-51849659D01*
X161615467Y-51635000D01*
X161054533Y-51635000D01*
X160536299Y-51849659D01*
X160139659Y-52246299D01*
X159925000Y-52764533D01*
X155125000Y-52764533D01*
X154910341Y-52246299D01*
X154513701Y-51849659D01*
X153995467Y-51635000D01*
X153434533Y-51635000D01*
X152916299Y-51849659D01*
X152519659Y-52246299D01*
X152305000Y-52764533D01*
X152305000Y-53325467D01*
X152519659Y-53843701D01*
X152916299Y-54240341D01*
X153096542Y-54315000D01*
X152916299Y-54389659D01*
X152519659Y-54786299D01*
X152305000Y-55304533D01*
X152305000Y-55865467D01*
X152320202Y-55902168D01*
X150898254Y-57324116D01*
X150898251Y-57324118D01*
X150136251Y-58086119D01*
X150072630Y-58128629D01*
X150030119Y-58192251D01*
X150030118Y-58192252D01*
X149904213Y-58380683D01*
X149845073Y-58678000D01*
X148442504Y-58678000D01*
X148549573Y-58606459D01*
X148723074Y-58346798D01*
X148768620Y-58117822D01*
X148783999Y-58040506D01*
X148768620Y-57963190D01*
X148768620Y-48825506D01*
X166698621Y-48825506D01*
X166698620Y-55963190D01*
X166698620Y-55963190D01*
G37*
X166698620Y-55963190D02*
X166683241Y-56040506D01*
X166744166Y-56346798D01*
X166917667Y-56606459D01*
X167177328Y-56779960D01*
X167483620Y-56840885D01*
X167560936Y-56825506D01*
X184698620Y-56825506D01*
X184698620Y-78160989D01*
X179032000Y-72494370D01*
X179032000Y-72242246D01*
X179144342Y-72354587D01*
X179377731Y-72451260D01*
X179993290Y-72451260D01*
X180152040Y-72292510D01*
X180152040Y-71168260D01*
X180406040Y-71168260D01*
X180406040Y-72292510D01*
X180564790Y-72451260D01*
X181180349Y-72451260D01*
X181413738Y-72354587D01*
X181592367Y-72175959D01*
X181689040Y-71942570D01*
X181689040Y-71327010D01*
X181530290Y-71168260D01*
X180406040Y-71168260D01*
X180152040Y-71168260D01*
X180132040Y-71168260D01*
X180132040Y-70914260D01*
X180152040Y-70914260D01*
X180152040Y-70894260D01*
X180406040Y-70894260D01*
X180406040Y-70914260D01*
X181530290Y-70914260D01*
X181689040Y-70755510D01*
X181689040Y-70139950D01*
X181592367Y-69906561D01*
X181413738Y-69727933D01*
X181180349Y-69631260D01*
X181143082Y-69631260D01*
X181474381Y-69299961D01*
X181689040Y-68781727D01*
X181689040Y-68220793D01*
X181474381Y-67702559D01*
X181077741Y-67305919D01*
X180897498Y-67231260D01*
X181077741Y-67156601D01*
X181474381Y-66759961D01*
X181689040Y-66241727D01*
X181689040Y-65680793D01*
X181474381Y-65162559D01*
X181077741Y-64765919D01*
X180897498Y-64691260D01*
X181077741Y-64616601D01*
X181474381Y-64219961D01*
X181689040Y-63701727D01*
X181689040Y-63140793D01*
X181474381Y-62622559D01*
X181077741Y-62225919D01*
X180897498Y-62151260D01*
X181077741Y-62076601D01*
X181474381Y-61679961D01*
X181689040Y-61161727D01*
X181689040Y-60600793D01*
X181474381Y-60082559D01*
X181077741Y-59685919D01*
X180559507Y-59471260D01*
X179998573Y-59471260D01*
X179480339Y-59685919D01*
X179083699Y-60082559D01*
X178869040Y-60600793D01*
X178869040Y-61161727D01*
X179083699Y-61679961D01*
X179480339Y-62076601D01*
X179660582Y-62151260D01*
X179480339Y-62225919D01*
X179083699Y-62622559D01*
X178869040Y-63140793D01*
X178869040Y-63701727D01*
X178884154Y-63738215D01*
X177264253Y-65358117D01*
X177200629Y-65400629D01*
X177032212Y-65652684D01*
X176988000Y-65874953D01*
X176988000Y-65874957D01*
X176973073Y-65950000D01*
X176988000Y-66025043D01*
X176988001Y-72974952D01*
X176973073Y-73050000D01*
X176988001Y-73125048D01*
X177032213Y-73347317D01*
X177200630Y-73599371D01*
X177264251Y-73641881D01*
X183168000Y-79545631D01*
X183168001Y-86666653D01*
X182741924Y-86278355D01*
X182331890Y-86108524D01*
X182102000Y-86229845D01*
X182102000Y-87423000D01*
X182122000Y-87423000D01*
X182122000Y-87677000D01*
X182102000Y-87677000D01*
X182102000Y-88870155D01*
X182331890Y-88991476D01*
X182741924Y-88821645D01*
X183168001Y-88433347D01*
X183168001Y-90904368D01*
X179553862Y-94518507D01*
X179609844Y-94408637D01*
X179730000Y-93650000D01*
X179609844Y-92891363D01*
X179261137Y-92206987D01*
X178718013Y-91663863D01*
X178033637Y-91315156D01*
X177617249Y-91249207D01*
X177657000Y-91049363D01*
X177657000Y-91049359D01*
X177671927Y-90974316D01*
X177657000Y-90899273D01*
X177657000Y-88826842D01*
X177965625Y-88620625D01*
X178165000Y-88322239D01*
X178364375Y-88620625D01*
X178855582Y-88948839D01*
X179288744Y-89035000D01*
X179581256Y-89035000D01*
X180014418Y-88948839D01*
X180505625Y-88620625D01*
X180718843Y-88301522D01*
X180779817Y-88431358D01*
X181208076Y-88821645D01*
X181618110Y-88991476D01*
X181848000Y-88870155D01*
X181848000Y-87677000D01*
X181828000Y-87677000D01*
X181828000Y-87423000D01*
X181848000Y-87423000D01*
X181848000Y-86229845D01*
X181618110Y-86108524D01*
X181208076Y-86278355D01*
X180779817Y-86668642D01*
X180718843Y-86798478D01*
X180505625Y-86479375D01*
X180197000Y-86273158D01*
X180197000Y-85140043D01*
X180211927Y-85065000D01*
X180197000Y-84989957D01*
X180197000Y-84989952D01*
X180152788Y-84767683D01*
X180063632Y-84634252D01*
X180026882Y-84579251D01*
X179984371Y-84515629D01*
X179920749Y-84473119D01*
X179511883Y-84064253D01*
X179469371Y-84000629D01*
X179217317Y-83832212D01*
X178995048Y-83788000D01*
X178995043Y-83788000D01*
X178920000Y-83773073D01*
X178844957Y-83788000D01*
X176315047Y-83788000D01*
X176240000Y-83773072D01*
X176164953Y-83788000D01*
X176164952Y-83788000D01*
X175942683Y-83832212D01*
X175690629Y-84000629D01*
X175648118Y-84064251D01*
X175144390Y-84567980D01*
X175050629Y-84630629D01*
X174882212Y-84882683D01*
X174823072Y-85180000D01*
X174838001Y-85255053D01*
X174838001Y-86131982D01*
X174501256Y-86065000D01*
X174208744Y-86065000D01*
X173775582Y-86151161D01*
X173284375Y-86479375D01*
X173085000Y-86777761D01*
X172885625Y-86479375D01*
X172577066Y-86273202D01*
X172570897Y-86242191D01*
X172532788Y-86050602D01*
X172429907Y-85896629D01*
X172406882Y-85862170D01*
X172364371Y-85798548D01*
X172300750Y-85756038D01*
X169418010Y-82873299D01*
X169418010Y-78225000D01*
X174845000Y-78225000D01*
X174965156Y-78983637D01*
X175313863Y-79668013D01*
X175856987Y-80211137D01*
X176541363Y-80559844D01*
X177300000Y-80680000D01*
X178058637Y-80559844D01*
X178743013Y-80211137D01*
X179286137Y-79668013D01*
X179634844Y-78983637D01*
X179755000Y-78225000D01*
X179634844Y-77466363D01*
X179286137Y-76781987D01*
X178743013Y-76238863D01*
X178058637Y-75890156D01*
X177300000Y-75770000D01*
X176541363Y-75890156D01*
X175856987Y-76238863D01*
X175313863Y-76781987D01*
X174965156Y-77466363D01*
X174845000Y-78225000D01*
X169418010Y-78225000D01*
X169418010Y-71327010D01*
X171249040Y-71327010D01*
X171249040Y-71942569D01*
X171345713Y-72175958D01*
X171524341Y-72354587D01*
X171757730Y-72451260D01*
X172373290Y-72451260D01*
X172532040Y-72292510D01*
X172532040Y-71168260D01*
X172786040Y-71168260D01*
X172786040Y-72292510D01*
X172944790Y-72451260D01*
X173560350Y-72451260D01*
X173793739Y-72354587D01*
X173972367Y-72175958D01*
X174069040Y-71942569D01*
X174069040Y-71327010D01*
X173910290Y-71168260D01*
X172786040Y-71168260D01*
X172532040Y-71168260D01*
X171407790Y-71168260D01*
X171249040Y-71327010D01*
X169418010Y-71327010D01*
X169418010Y-70279620D01*
X171172845Y-68524786D01*
X171237371Y-68481671D01*
X171249040Y-68464207D01*
X171249040Y-68781727D01*
X171463699Y-69299961D01*
X171794998Y-69631260D01*
X171757730Y-69631260D01*
X171524341Y-69727933D01*
X171345713Y-69906562D01*
X171249040Y-70139951D01*
X171249040Y-70755510D01*
X171407790Y-70914260D01*
X172532040Y-70914260D01*
X172532040Y-70894260D01*
X172786040Y-70894260D01*
X172786040Y-70914260D01*
X173910290Y-70914260D01*
X174069040Y-70755510D01*
X174069040Y-70139951D01*
X173972367Y-69906562D01*
X173793739Y-69727933D01*
X173560350Y-69631260D01*
X173523082Y-69631260D01*
X173854381Y-69299961D01*
X174069040Y-68781727D01*
X174069040Y-68220793D01*
X173854381Y-67702559D01*
X173457741Y-67305919D01*
X173277498Y-67231260D01*
X173457741Y-67156601D01*
X173854381Y-66759961D01*
X174069040Y-66241727D01*
X174069040Y-65680793D01*
X173854381Y-65162559D01*
X173457741Y-64765919D01*
X173277498Y-64691260D01*
X173457741Y-64616601D01*
X173854381Y-64219961D01*
X174069040Y-63701727D01*
X174069040Y-63140793D01*
X173854381Y-62622559D01*
X173457741Y-62225919D01*
X173277498Y-62151260D01*
X173457741Y-62076601D01*
X173854381Y-61679961D01*
X174069040Y-61161727D01*
X174069040Y-60600793D01*
X173854381Y-60082559D01*
X173457741Y-59685919D01*
X172939507Y-59471260D01*
X172378573Y-59471260D01*
X171860339Y-59685919D01*
X171463699Y-60082559D01*
X171249040Y-60600793D01*
X171249040Y-61161727D01*
X171463699Y-61679961D01*
X171860339Y-62076601D01*
X172040582Y-62151260D01*
X171860339Y-62225919D01*
X171463699Y-62622559D01*
X171249040Y-63140793D01*
X171249040Y-63701727D01*
X171264242Y-63738427D01*
X167662252Y-67340418D01*
X167598630Y-67382929D01*
X167556119Y-67446551D01*
X167556118Y-67446552D01*
X167430213Y-67634983D01*
X167371073Y-67932300D01*
X167386001Y-68007348D01*
X167386000Y-85243957D01*
X167371073Y-85319000D01*
X167386000Y-85394043D01*
X167386000Y-85394047D01*
X167430212Y-85616316D01*
X167598629Y-85868371D01*
X167662253Y-85910883D01*
X167982998Y-86231629D01*
X167967191Y-86242191D01*
X167826843Y-86452235D01*
X167777560Y-86700000D01*
X167777560Y-88400000D01*
X167826843Y-88647765D01*
X167967191Y-88857809D01*
X168177235Y-88998157D01*
X168425000Y-89047440D01*
X170125000Y-89047440D01*
X170372765Y-88998157D01*
X170582809Y-88857809D01*
X170723157Y-88647765D01*
X170732184Y-88602381D01*
X170744375Y-88620625D01*
X171235582Y-88948839D01*
X171668744Y-89035000D01*
X171961256Y-89035000D01*
X172394418Y-88948839D01*
X172885625Y-88620625D01*
X173085000Y-88322239D01*
X173284375Y-88620625D01*
X173775582Y-88948839D01*
X174208744Y-89035000D01*
X174501256Y-89035000D01*
X174838000Y-88968018D01*
X174838000Y-91009369D01*
X168689254Y-97158116D01*
X168689251Y-97158118D01*
X165939254Y-99908116D01*
X165939251Y-99908118D01*
X165281242Y-100566128D01*
X164914252Y-100933118D01*
X164850630Y-100975629D01*
X164808119Y-101039251D01*
X164808118Y-101039252D01*
X164682213Y-101227683D01*
X164623073Y-101525000D01*
X164638001Y-101600048D01*
X164638001Y-102228605D01*
X164357862Y-101948466D01*
X163830439Y-101730000D01*
X163259561Y-101730000D01*
X162732138Y-101948466D01*
X162328466Y-102352138D01*
X162304598Y-102409760D01*
X162116313Y-102447212D01*
X161864259Y-102615629D01*
X161821748Y-102679251D01*
X161163000Y-103338000D01*
X159263711Y-103338000D01*
X159283637Y-103334844D01*
X159968013Y-102986137D01*
X160511137Y-102443013D01*
X160859844Y-101758637D01*
X160980000Y-101000000D01*
X160859844Y-100241363D01*
X160511137Y-99556987D01*
X159968013Y-99013863D01*
X159283637Y-98665156D01*
X158525000Y-98545000D01*
X157766363Y-98665156D01*
X157081987Y-99013863D01*
X156538863Y-99556987D01*
X156190156Y-100241363D01*
X156070000Y-101000000D01*
X156190156Y-101758637D01*
X156538863Y-102443013D01*
X157081987Y-102986137D01*
X157766363Y-103334844D01*
X157786289Y-103338000D01*
X156390631Y-103338000D01*
X155775764Y-102723134D01*
X155775762Y-102723131D01*
X151437000Y-98384370D01*
X151437000Y-96892820D01*
X151475000Y-96900379D01*
X151552316Y-96885000D01*
X164422684Y-96885000D01*
X164500000Y-96900379D01*
X164806292Y-96839454D01*
X165065953Y-96665953D01*
X165239454Y-96406292D01*
X165285000Y-96177316D01*
X165285000Y-96177315D01*
X165300379Y-96100000D01*
X165285000Y-96022684D01*
X165285000Y-93022684D01*
X165239454Y-92793708D01*
X165065953Y-92534047D01*
X164806291Y-92360546D01*
X164500000Y-92299621D01*
X164422684Y-92315000D01*
X151552316Y-92315000D01*
X151475000Y-92299621D01*
X151437000Y-92307180D01*
X151437000Y-89424952D01*
X151436999Y-89424947D01*
X151436999Y-86000046D01*
X151451927Y-85924999D01*
X151436999Y-85849951D01*
X151412145Y-85725000D01*
X155295000Y-85725000D01*
X155415156Y-86483637D01*
X155763863Y-87168013D01*
X156306987Y-87711137D01*
X156991363Y-88059844D01*
X157750000Y-88180000D01*
X158508637Y-88059844D01*
X159193013Y-87711137D01*
X159736137Y-87168013D01*
X160084844Y-86483637D01*
X160205000Y-85725000D01*
X160084844Y-84966363D01*
X159736137Y-84281987D01*
X159193013Y-83738863D01*
X158508637Y-83390156D01*
X157750000Y-83270000D01*
X156991363Y-83390156D01*
X156306987Y-83738863D01*
X155763863Y-84281987D01*
X155415156Y-84966363D01*
X155295000Y-85725000D01*
X151412145Y-85725000D01*
X151392787Y-85627682D01*
X151224370Y-85375628D01*
X151160748Y-85333117D01*
X148076883Y-82249253D01*
X148034371Y-82185629D01*
X147782317Y-82017212D01*
X147560048Y-81973000D01*
X147560043Y-81973000D01*
X147485000Y-81958073D01*
X147409957Y-81973000D01*
X139956150Y-81973000D01*
X140261137Y-81668013D01*
X140609844Y-80983637D01*
X140730000Y-80225000D01*
X140609844Y-79466363D01*
X140261137Y-78781987D01*
X139718013Y-78238863D01*
X139033637Y-77890156D01*
X138275000Y-77770000D01*
X137516363Y-77890156D01*
X136831987Y-78238863D01*
X136288863Y-78781987D01*
X135940156Y-79466363D01*
X135820000Y-80225000D01*
X135940156Y-80983637D01*
X136288863Y-81668013D01*
X136593850Y-81973000D01*
X124720543Y-81973000D01*
X124705341Y-81936299D01*
X124308701Y-81539659D01*
X124128458Y-81465000D01*
X124308701Y-81390341D01*
X124705341Y-80993701D01*
X124920000Y-80475467D01*
X124920000Y-79914533D01*
X124705341Y-79396299D01*
X124308701Y-78999659D01*
X123790467Y-78785000D01*
X123229533Y-78785000D01*
X122711299Y-78999659D01*
X122314659Y-79396299D01*
X122100000Y-79914533D01*
X122100000Y-80475467D01*
X122314659Y-80993701D01*
X122711299Y-81390341D01*
X122891542Y-81465000D01*
X122711299Y-81539659D01*
X122314659Y-81936299D01*
X122100000Y-82454533D01*
X122100000Y-83015467D01*
X122314659Y-83533701D01*
X122711299Y-83930341D01*
X122891542Y-84005000D01*
X122711299Y-84079659D01*
X122314659Y-84476299D01*
X122100000Y-84994533D01*
X122100000Y-85555467D01*
X122314659Y-86073701D01*
X122711299Y-86470341D01*
X122891542Y-86545000D01*
X122711299Y-86619659D01*
X122314659Y-87016299D01*
X122100000Y-87534533D01*
X122100000Y-88095467D01*
X122314659Y-88613701D01*
X122645958Y-88945000D01*
X122608691Y-88945000D01*
X122375302Y-89041673D01*
X122196673Y-89220301D01*
X122100000Y-89453690D01*
X122100000Y-90069250D01*
X122258750Y-90228000D01*
X123383000Y-90228000D01*
X123383000Y-90208000D01*
X123637000Y-90208000D01*
X123637000Y-90228000D01*
X124761250Y-90228000D01*
X124920000Y-90069250D01*
X124920000Y-89453690D01*
X124823327Y-89220301D01*
X124644698Y-89041673D01*
X124411309Y-88945000D01*
X124374042Y-88945000D01*
X124705341Y-88613701D01*
X124920000Y-88095467D01*
X124920000Y-87534533D01*
X124705341Y-87016299D01*
X124308701Y-86619659D01*
X124128458Y-86545000D01*
X124308701Y-86470341D01*
X124705341Y-86073701D01*
X124920000Y-85555467D01*
X124920000Y-84994533D01*
X124904798Y-84957832D01*
X125857621Y-84005010D01*
X139537359Y-84005010D01*
X139014253Y-84528117D01*
X138950629Y-84570629D01*
X138782212Y-84822684D01*
X138738000Y-85044953D01*
X138738000Y-85044957D01*
X138723073Y-85120000D01*
X138738000Y-85195044D01*
X138738001Y-86347867D01*
X138738000Y-86347872D01*
X138738000Y-86348158D01*
X138429375Y-86554375D01*
X138230000Y-86852761D01*
X138030625Y-86554375D01*
X137539418Y-86226161D01*
X137106256Y-86140000D01*
X136813744Y-86140000D01*
X136380582Y-86226161D01*
X135889375Y-86554375D01*
X135690000Y-86852761D01*
X135490625Y-86554375D01*
X134999418Y-86226161D01*
X134566256Y-86140000D01*
X134273744Y-86140000D01*
X133840582Y-86226161D01*
X133349375Y-86554375D01*
X133337184Y-86572619D01*
X133328157Y-86527235D01*
X133187809Y-86317191D01*
X132977765Y-86176843D01*
X132730000Y-86127560D01*
X131030000Y-86127560D01*
X130782235Y-86176843D01*
X130572191Y-86317191D01*
X130431843Y-86527235D01*
X130382560Y-86775000D01*
X130382560Y-88475000D01*
X130431843Y-88722765D01*
X130572191Y-88932809D01*
X130782235Y-89073157D01*
X131030000Y-89122440D01*
X132730000Y-89122440D01*
X132977765Y-89073157D01*
X133187809Y-88932809D01*
X133328157Y-88722765D01*
X133337184Y-88677381D01*
X133349375Y-88695625D01*
X133840582Y-89023839D01*
X134273744Y-89110000D01*
X134566256Y-89110000D01*
X134999418Y-89023839D01*
X135490625Y-88695625D01*
X135690000Y-88397239D01*
X135889375Y-88695625D01*
X136380582Y-89023839D01*
X136813744Y-89110000D01*
X137106256Y-89110000D01*
X137539418Y-89023839D01*
X138030625Y-88695625D01*
X138230000Y-88397239D01*
X138429375Y-88695625D01*
X138920582Y-89023839D01*
X139353744Y-89110000D01*
X139646256Y-89110000D01*
X140079418Y-89023839D01*
X140570625Y-88695625D01*
X140770000Y-88397239D01*
X140969375Y-88695625D01*
X141460582Y-89023839D01*
X141893744Y-89110000D01*
X142186256Y-89110000D01*
X142619418Y-89023839D01*
X143110625Y-88695625D01*
X143323843Y-88376522D01*
X143384817Y-88506358D01*
X143813076Y-88896645D01*
X144223110Y-89066476D01*
X144453000Y-88945155D01*
X144453000Y-87752000D01*
X144707000Y-87752000D01*
X144707000Y-88945155D01*
X144936890Y-89066476D01*
X145346924Y-88896645D01*
X145775183Y-88506358D01*
X146021486Y-87981892D01*
X145900819Y-87752000D01*
X144707000Y-87752000D01*
X144453000Y-87752000D01*
X144433000Y-87752000D01*
X144433000Y-87498000D01*
X144453000Y-87498000D01*
X144453000Y-86304845D01*
X144707000Y-86304845D01*
X144707000Y-87498000D01*
X145900819Y-87498000D01*
X146021486Y-87268108D01*
X145775183Y-86743642D01*
X145346924Y-86353355D01*
X144936890Y-86183524D01*
X144707000Y-86304845D01*
X144453000Y-86304845D01*
X144223110Y-86183524D01*
X143813076Y-86353355D01*
X143384817Y-86743642D01*
X143323843Y-86873478D01*
X143110625Y-86554375D01*
X142802000Y-86348158D01*
X142802000Y-85530010D01*
X146082380Y-85530010D01*
X147488001Y-86935632D01*
X147488000Y-99344957D01*
X147473073Y-99420000D01*
X147488000Y-99495043D01*
X147488000Y-99495047D01*
X147532212Y-99717316D01*
X147700629Y-99969371D01*
X147764253Y-100011883D01*
X149479991Y-101727622D01*
X149479991Y-102310595D01*
X149117862Y-101948466D01*
X148590439Y-101730000D01*
X148019561Y-101730000D01*
X147492138Y-101948466D01*
X147088466Y-102352138D01*
X146870000Y-102879561D01*
X146870000Y-103450439D01*
X147088466Y-103977862D01*
X147492138Y-104381534D01*
X147621216Y-104435000D01*
X147492138Y-104488466D01*
X147088466Y-104892138D01*
X146870000Y-105419561D01*
X146870000Y-105990439D01*
X146891068Y-106041302D01*
X146219370Y-106713000D01*
X128250631Y-106713000D01*
X127222630Y-105685000D01*
X127327002Y-105685000D01*
X127327002Y-105520156D01*
X127556890Y-105641476D01*
X127966924Y-105471645D01*
X128395183Y-105081358D01*
X128641486Y-104556892D01*
X128520819Y-104327000D01*
X127327000Y-104327000D01*
X127327000Y-104347000D01*
X127073000Y-104347000D01*
X127073000Y-104327000D01*
X127053000Y-104327000D01*
X127053000Y-104073000D01*
X127073000Y-104073000D01*
X127073000Y-102879845D01*
X127327000Y-102879845D01*
X127327000Y-104073000D01*
X128520819Y-104073000D01*
X128641486Y-103843108D01*
X128395183Y-103318642D01*
X127966924Y-102928355D01*
X127838106Y-102875000D01*
X130749621Y-102875000D01*
X130765001Y-102952321D01*
X130765000Y-105822684D01*
X130749621Y-105900000D01*
X130810546Y-106206292D01*
X130984047Y-106465953D01*
X131243708Y-106639454D01*
X131472684Y-106685000D01*
X144627316Y-106685000D01*
X144856292Y-106639454D01*
X145115953Y-106465953D01*
X145289454Y-106206292D01*
X145350379Y-105900000D01*
X145335000Y-105822684D01*
X145335000Y-102952316D01*
X145350379Y-102875000D01*
X145289454Y-102568708D01*
X145115953Y-102309047D01*
X144856292Y-102135546D01*
X144627316Y-102090000D01*
X144550000Y-102074621D01*
X144472684Y-102090000D01*
X131627316Y-102090000D01*
X131550000Y-102074621D01*
X131472684Y-102090000D01*
X131243708Y-102135546D01*
X130984047Y-102309047D01*
X130810546Y-102568708D01*
X130749621Y-102875000D01*
X127838106Y-102875000D01*
X127556890Y-102758524D01*
X127327000Y-102879845D01*
X127073000Y-102879845D01*
X126843110Y-102758524D01*
X126433076Y-102928355D01*
X126004817Y-103318642D01*
X125943843Y-103448478D01*
X125730625Y-103129375D01*
X125239418Y-102801161D01*
X124806256Y-102715000D01*
X124513744Y-102715000D01*
X124080582Y-102801161D01*
X123589375Y-103129375D01*
X123390000Y-103427761D01*
X123190625Y-103129375D01*
X122699418Y-102801161D01*
X122266256Y-102715000D01*
X121973744Y-102715000D01*
X121540582Y-102801161D01*
X121049375Y-103129375D01*
X120850000Y-103427761D01*
X120650625Y-103129375D01*
X120159418Y-102801161D01*
X119726256Y-102715000D01*
X119433744Y-102715000D01*
X119000582Y-102801161D01*
X118509375Y-103129375D01*
X118310000Y-103427761D01*
X118110625Y-103129375D01*
X117619418Y-102801161D01*
X117186256Y-102715000D01*
X116893744Y-102715000D01*
X116675952Y-102758321D01*
X114837000Y-100919370D01*
X114837000Y-95600000D01*
X116120000Y-95600000D01*
X116240156Y-96358637D01*
X116588863Y-97043013D01*
X117131987Y-97586137D01*
X117816363Y-97934844D01*
X118575000Y-98055000D01*
X119333637Y-97934844D01*
X120018013Y-97586137D01*
X120561137Y-97043013D01*
X120909844Y-96358637D01*
X121010201Y-95725000D01*
X135695000Y-95725000D01*
X135815156Y-96483637D01*
X136163863Y-97168013D01*
X136706987Y-97711137D01*
X137391363Y-98059844D01*
X138150000Y-98180000D01*
X138908637Y-98059844D01*
X139593013Y-97711137D01*
X140136137Y-97168013D01*
X140484844Y-96483637D01*
X140605000Y-95725000D01*
X140484844Y-94966363D01*
X140136137Y-94281987D01*
X139593013Y-93738863D01*
X138908637Y-93390156D01*
X138150000Y-93270000D01*
X137391363Y-93390156D01*
X136706987Y-93738863D01*
X136163863Y-94281987D01*
X135815156Y-94966363D01*
X135695000Y-95725000D01*
X121010201Y-95725000D01*
X121030000Y-95600000D01*
X120909844Y-94841363D01*
X120561137Y-94156987D01*
X120018013Y-93613863D01*
X119333637Y-93265156D01*
X118575000Y-93145000D01*
X117816363Y-93265156D01*
X117131987Y-93613863D01*
X116588863Y-94156987D01*
X116240156Y-94841363D01*
X116120000Y-95600000D01*
X114837000Y-95600000D01*
X114837000Y-91702168D01*
X114988690Y-91765000D01*
X115604250Y-91765000D01*
X115763000Y-91606250D01*
X115763000Y-90482000D01*
X116017000Y-90482000D01*
X116017000Y-91606250D01*
X116175750Y-91765000D01*
X116791310Y-91765000D01*
X117024699Y-91668327D01*
X117203327Y-91489698D01*
X117300000Y-91256309D01*
X117300000Y-90640750D01*
X122100000Y-90640750D01*
X122100000Y-91256310D01*
X122196673Y-91489699D01*
X122375302Y-91668327D01*
X122608691Y-91765000D01*
X123224250Y-91765000D01*
X123383000Y-91606250D01*
X123383000Y-90482000D01*
X123637000Y-90482000D01*
X123637000Y-91606250D01*
X123795750Y-91765000D01*
X124411309Y-91765000D01*
X124644698Y-91668327D01*
X124823327Y-91489699D01*
X124920000Y-91256310D01*
X124920000Y-90640750D01*
X124761250Y-90482000D01*
X123637000Y-90482000D01*
X123383000Y-90482000D01*
X122258750Y-90482000D01*
X122100000Y-90640750D01*
X117300000Y-90640750D01*
X117141250Y-90482000D01*
X116017000Y-90482000D01*
X115763000Y-90482000D01*
X115743000Y-90482000D01*
X115743000Y-90228000D01*
X115763000Y-90228000D01*
X115763000Y-90208000D01*
X116017000Y-90208000D01*
X116017000Y-90228000D01*
X117141250Y-90228000D01*
X117300000Y-90069250D01*
X117300000Y-89453691D01*
X117203327Y-89220302D01*
X117024699Y-89041673D01*
X116791310Y-88945000D01*
X116754042Y-88945000D01*
X117085341Y-88613701D01*
X117300000Y-88095467D01*
X117300000Y-87534533D01*
X117085341Y-87016299D01*
X116688701Y-86619659D01*
X116508458Y-86545000D01*
X116688701Y-86470341D01*
X117085341Y-86073701D01*
X117300000Y-85555467D01*
X117300000Y-84994533D01*
X117085341Y-84476299D01*
X116688701Y-84079659D01*
X116508458Y-84005000D01*
X116688701Y-83930341D01*
X117085341Y-83533701D01*
X117300000Y-83015467D01*
X117300000Y-82454533D01*
X117085341Y-81936299D01*
X116688701Y-81539659D01*
X116508458Y-81465000D01*
X116688701Y-81390341D01*
X117085341Y-80993701D01*
X117300000Y-80475467D01*
X117300000Y-79914533D01*
X117085341Y-79396299D01*
X116688701Y-78999659D01*
X116170467Y-78785000D01*
X115609533Y-78785000D01*
X115091299Y-78999659D01*
X114694659Y-79396299D01*
X114480000Y-79914533D01*
X114480000Y-80475467D01*
X114694659Y-80993701D01*
X115091299Y-81390341D01*
X115271542Y-81465000D01*
X115091299Y-81539659D01*
X114694659Y-81936299D01*
X114480000Y-82454533D01*
X114480000Y-83015467D01*
X114489180Y-83037629D01*
X114447777Y-83099592D01*
X112889253Y-84658117D01*
X112825629Y-84700629D01*
X112657212Y-84952684D01*
X112613000Y-85174953D01*
X112613000Y-85174957D01*
X112598073Y-85250000D01*
X112613000Y-85325043D01*
X112613001Y-101895952D01*
X112598073Y-101971000D01*
X112657213Y-102268317D01*
X112781709Y-102454638D01*
X112825630Y-102520371D01*
X112889251Y-102562881D01*
X113207998Y-102881629D01*
X113192191Y-102892191D01*
X113051843Y-103102235D01*
X113002560Y-103350000D01*
X113002560Y-105050000D01*
X113051843Y-105297765D01*
X113192191Y-105507809D01*
X113402235Y-105648157D01*
X113650000Y-105697440D01*
X115350000Y-105697440D01*
X115597765Y-105648157D01*
X115807809Y-105507809D01*
X115948157Y-105297765D01*
X115957184Y-105252381D01*
X115969375Y-105270625D01*
X116460582Y-105598839D01*
X116893744Y-105685000D01*
X117186256Y-105685000D01*
X117619418Y-105598839D01*
X118110625Y-105270625D01*
X118310000Y-104972239D01*
X118509375Y-105270625D01*
X119000582Y-105598839D01*
X119433744Y-105685000D01*
X119726256Y-105685000D01*
X120159418Y-105598839D01*
X120650625Y-105270625D01*
X120850000Y-104972239D01*
X121049375Y-105270625D01*
X121540582Y-105598839D01*
X121973744Y-105685000D01*
X122266256Y-105685000D01*
X122484048Y-105641679D01*
X125573118Y-108730749D01*
X125615629Y-108794371D01*
X125867683Y-108962788D01*
X126089952Y-109007000D01*
X126089953Y-109007000D01*
X126165000Y-109021928D01*
X126240047Y-109007000D01*
X147067398Y-109007000D01*
X147088466Y-109057862D01*
X147492138Y-109461534D01*
X147621216Y-109515000D01*
X147492138Y-109568466D01*
X147088466Y-109972138D01*
X146870000Y-110499561D01*
X146870000Y-111070439D01*
X147088466Y-111597862D01*
X147492138Y-112001534D01*
X147621216Y-112055000D01*
X147492138Y-112108466D01*
X147088466Y-112512138D01*
X146870000Y-113039561D01*
X146870000Y-113610439D01*
X147088466Y-114137862D01*
X147492138Y-114541534D01*
X147621216Y-114595000D01*
X147492138Y-114648466D01*
X147088466Y-115052138D01*
X146870000Y-115579561D01*
X146870000Y-116150439D01*
X147088466Y-116677862D01*
X147492138Y-117081534D01*
X147621216Y-117135000D01*
X147492138Y-117188466D01*
X147088466Y-117592138D01*
X146870000Y-118119561D01*
X146870000Y-118690439D01*
X147088466Y-119217862D01*
X147492138Y-119621534D01*
X147621216Y-119675000D01*
X147492138Y-119728466D01*
X147088466Y-120132138D01*
X146870000Y-120659561D01*
X146870000Y-121230439D01*
X147088466Y-121757862D01*
X147492138Y-122161534D01*
X147621216Y-122215000D01*
X147492138Y-122268466D01*
X147088466Y-122672138D01*
X146870000Y-123199561D01*
X146870000Y-123770439D01*
X147088466Y-124297862D01*
X147492138Y-124701534D01*
X147621216Y-124755000D01*
X147492138Y-124808466D01*
X147088466Y-125212138D01*
X146870000Y-125739561D01*
X146870000Y-126310439D01*
X147088466Y-126837862D01*
X147492138Y-127241534D01*
X147621216Y-127295000D01*
X147492138Y-127348466D01*
X147088466Y-127752138D01*
X146870000Y-128279561D01*
X146870000Y-128850439D01*
X147088466Y-129377862D01*
X147492138Y-129781534D01*
X147621216Y-129835000D01*
X147492138Y-129888466D01*
X147088466Y-130292138D01*
X146870000Y-130819561D01*
X146870000Y-131390439D01*
X147088466Y-131917862D01*
X147492138Y-132321534D01*
X147621216Y-132375000D01*
X147492138Y-132428466D01*
X147088466Y-132832138D01*
X146870000Y-133359561D01*
X146870000Y-133930439D01*
X147088466Y-134457862D01*
X147492138Y-134861534D01*
X147621216Y-134915000D01*
X147492138Y-134968466D01*
X147088466Y-135372138D01*
X146870000Y-135899561D01*
X146870000Y-136470439D01*
X147088466Y-136997862D01*
X147492138Y-137401534D01*
X148019561Y-137620000D01*
X148590439Y-137620000D01*
X149117862Y-137401534D01*
X149521534Y-136997862D01*
X149740000Y-136470439D01*
X149740000Y-135899561D01*
X149521534Y-135372138D01*
X149117862Y-134968466D01*
X148988784Y-134915000D01*
X149117862Y-134861534D01*
X149521534Y-134457862D01*
X149740000Y-133930439D01*
X149740000Y-133359561D01*
X149521534Y-132832138D01*
X149117862Y-132428466D01*
X148988784Y-132375000D01*
X149117862Y-132321534D01*
X149521534Y-131917862D01*
X149740000Y-131390439D01*
X149740000Y-130819561D01*
X149521534Y-130292138D01*
X149117862Y-129888466D01*
X148988784Y-129835000D01*
X149117862Y-129781534D01*
X149521534Y-129377862D01*
X149740000Y-128850439D01*
X149740000Y-128279561D01*
X149521534Y-127752138D01*
X149117862Y-127348466D01*
X148988784Y-127295000D01*
X149117862Y-127241534D01*
X149521534Y-126837862D01*
X149542602Y-126787000D01*
X156474957Y-126787000D01*
X156550000Y-126801927D01*
X156625043Y-126787000D01*
X156625048Y-126787000D01*
X156847317Y-126742788D01*
X157099371Y-126574371D01*
X157141883Y-126510747D01*
X160764630Y-122888001D01*
X162239053Y-122888001D01*
X162110000Y-123199561D01*
X162110000Y-123770439D01*
X162328466Y-124297862D01*
X162732138Y-124701534D01*
X162861216Y-124755000D01*
X162732138Y-124808466D01*
X162328466Y-125212138D01*
X162110000Y-125739561D01*
X162110000Y-126310439D01*
X162328466Y-126837862D01*
X162732138Y-127241534D01*
X162861216Y-127295000D01*
X162732138Y-127348466D01*
X162328466Y-127752138D01*
X162110000Y-128279561D01*
X162110000Y-128850439D01*
X162328466Y-129377862D01*
X162732138Y-129781534D01*
X162861216Y-129835000D01*
X162732138Y-129888466D01*
X162328466Y-130292138D01*
X162110000Y-130819561D01*
X162110000Y-131390439D01*
X162328466Y-131917862D01*
X162732138Y-132321534D01*
X162861216Y-132375000D01*
X162732138Y-132428466D01*
X162328466Y-132832138D01*
X162307398Y-132883000D01*
X162080043Y-132883000D01*
X162005000Y-132868073D01*
X161929957Y-132883000D01*
X161929952Y-132883000D01*
X161707683Y-132927212D01*
X161455629Y-133095629D01*
X161413118Y-133159251D01*
X156904370Y-137668000D01*
X147225631Y-137668000D01*
X143171883Y-133614253D01*
X143129371Y-133550629D01*
X142877317Y-133382212D01*
X142655048Y-133338000D01*
X142655043Y-133338000D01*
X142580000Y-133323073D01*
X142504957Y-133338000D01*
X125729047Y-133338000D01*
X125654000Y-133323072D01*
X125578953Y-133338000D01*
X125578952Y-133338000D01*
X125356683Y-133382212D01*
X125104629Y-133550629D01*
X125062118Y-133614251D01*
X124449231Y-134227139D01*
X124385610Y-134269649D01*
X124343099Y-134333271D01*
X124343098Y-134333272D01*
X124281420Y-134425580D01*
X124084980Y-134425580D01*
X123837215Y-134474863D01*
X123627171Y-134615211D01*
X123486823Y-134825255D01*
X123437540Y-135073020D01*
X123437540Y-136773020D01*
X123486823Y-137020785D01*
X123627171Y-137230829D01*
X123837215Y-137371177D01*
X124084980Y-137420460D01*
X125784980Y-137420460D01*
X126032745Y-137371177D01*
X126242789Y-137230829D01*
X126383137Y-137020785D01*
X126392164Y-136975401D01*
X126404355Y-136993645D01*
X126895562Y-137321859D01*
X127328724Y-137408020D01*
X127621236Y-137408020D01*
X128054398Y-137321859D01*
X128545605Y-136993645D01*
X128758823Y-136674542D01*
X128819797Y-136804378D01*
X129248056Y-137194665D01*
X129658090Y-137364496D01*
X129887980Y-137243175D01*
X129887980Y-136050020D01*
X130141980Y-136050020D01*
X130141980Y-137243175D01*
X130371870Y-137364496D01*
X130781904Y-137194665D01*
X131210163Y-136804378D01*
X131456466Y-136279912D01*
X131335799Y-136050020D01*
X130141980Y-136050020D01*
X129887980Y-136050020D01*
X129867980Y-136050020D01*
X129867980Y-135796020D01*
X129887980Y-135796020D01*
X129887980Y-135776020D01*
X130141980Y-135776020D01*
X130141980Y-135796020D01*
X131335799Y-135796020D01*
X131456466Y-135566128D01*
X131210163Y-135041662D01*
X131013021Y-134862000D01*
X136740721Y-134862000D01*
X136687203Y-134942095D01*
X136637920Y-135189860D01*
X136637920Y-136889860D01*
X136687203Y-137137625D01*
X136827551Y-137347669D01*
X137037595Y-137488017D01*
X137285360Y-137537300D01*
X138985360Y-137537300D01*
X139233125Y-137488017D01*
X139443169Y-137347669D01*
X139583517Y-137137625D01*
X139604099Y-137034152D01*
X139908436Y-137311505D01*
X140318470Y-137481336D01*
X140548360Y-137360015D01*
X140548360Y-136166860D01*
X140802360Y-136166860D01*
X140802360Y-137360015D01*
X141032250Y-137481336D01*
X141442284Y-137311505D01*
X141870543Y-136921218D01*
X142116846Y-136396752D01*
X141996179Y-136166860D01*
X140802360Y-136166860D01*
X140548360Y-136166860D01*
X140528360Y-136166860D01*
X140528360Y-135912860D01*
X140548360Y-135912860D01*
X140548360Y-135892860D01*
X140802360Y-135892860D01*
X140802360Y-135912860D01*
X141996179Y-135912860D01*
X142116846Y-135682968D01*
X141870543Y-135158502D01*
X141545194Y-134862000D01*
X142264370Y-134862000D01*
X146318118Y-138915749D01*
X146360629Y-138979371D01*
X146612683Y-139147788D01*
X146834952Y-139192000D01*
X146834953Y-139192000D01*
X146910000Y-139206928D01*
X146985047Y-139192000D01*
X157144957Y-139192000D01*
X157220000Y-139206927D01*
X157295043Y-139192000D01*
X157295048Y-139192000D01*
X157517317Y-139147788D01*
X157769371Y-138979371D01*
X157811883Y-138915747D01*
X160256880Y-136470750D01*
X162110000Y-136470750D01*
X162110000Y-137111309D01*
X162206673Y-137344698D01*
X162385301Y-137523327D01*
X162618690Y-137620000D01*
X163259250Y-137620000D01*
X163418000Y-137461250D01*
X163418000Y-136312000D01*
X163672000Y-136312000D01*
X163672000Y-137461250D01*
X163830750Y-137620000D01*
X164471310Y-137620000D01*
X164704699Y-137523327D01*
X164883327Y-137344698D01*
X164980000Y-137111309D01*
X164980000Y-136470750D01*
X164821250Y-136312000D01*
X163672000Y-136312000D01*
X163418000Y-136312000D01*
X162268750Y-136312000D01*
X162110000Y-136470750D01*
X160256880Y-136470750D01*
X162311274Y-134416357D01*
X162328466Y-134457862D01*
X162620604Y-134750000D01*
X162618690Y-134750000D01*
X162385301Y-134846673D01*
X162206673Y-135025302D01*
X162110000Y-135258691D01*
X162110000Y-135899250D01*
X162268750Y-136058000D01*
X163418000Y-136058000D01*
X163418000Y-136038000D01*
X163672000Y-136038000D01*
X163672000Y-136058000D01*
X164821250Y-136058000D01*
X164980000Y-135899250D01*
X164980000Y-135258691D01*
X164883327Y-135025302D01*
X164704699Y-134846673D01*
X164471310Y-134750000D01*
X164469396Y-134750000D01*
X164761534Y-134457862D01*
X164980000Y-133930439D01*
X164980000Y-133359561D01*
X164761534Y-132832138D01*
X164357862Y-132428466D01*
X164228784Y-132375000D01*
X164357862Y-132321534D01*
X164761534Y-131917862D01*
X164980000Y-131390439D01*
X164980000Y-130915750D01*
X167480000Y-130915750D01*
X167480000Y-131531309D01*
X167576673Y-131764698D01*
X167755301Y-131943327D01*
X167988690Y-132040000D01*
X168604250Y-132040000D01*
X168763000Y-131881250D01*
X168763000Y-130757000D01*
X169017000Y-130757000D01*
X169017000Y-131881250D01*
X169175750Y-132040000D01*
X169791310Y-132040000D01*
X170024699Y-131943327D01*
X170203327Y-131764698D01*
X170300000Y-131531309D01*
X170300000Y-130915750D01*
X175100000Y-130915750D01*
X175100000Y-131531310D01*
X175196673Y-131764699D01*
X175375302Y-131943327D01*
X175608691Y-132040000D01*
X176224250Y-132040000D01*
X176383000Y-131881250D01*
X176383000Y-130757000D01*
X176637000Y-130757000D01*
X176637000Y-131881250D01*
X176795750Y-132040000D01*
X177411309Y-132040000D01*
X177644698Y-131943327D01*
X177823327Y-131764699D01*
X177920000Y-131531310D01*
X177920000Y-130915750D01*
X177761250Y-130757000D01*
X176637000Y-130757000D01*
X176383000Y-130757000D01*
X175258750Y-130757000D01*
X175100000Y-130915750D01*
X170300000Y-130915750D01*
X170141250Y-130757000D01*
X169017000Y-130757000D01*
X168763000Y-130757000D01*
X167638750Y-130757000D01*
X167480000Y-130915750D01*
X164980000Y-130915750D01*
X164980000Y-130819561D01*
X164761534Y-130292138D01*
X164357862Y-129888466D01*
X164228784Y-129835000D01*
X164357862Y-129781534D01*
X164761534Y-129377862D01*
X164980000Y-128850439D01*
X164980000Y-128279561D01*
X164761534Y-127752138D01*
X164357862Y-127348466D01*
X164228784Y-127295000D01*
X164357862Y-127241534D01*
X164761534Y-126837862D01*
X164980000Y-126310439D01*
X164980000Y-125739561D01*
X164761534Y-125212138D01*
X164357862Y-124808466D01*
X164228784Y-124755000D01*
X164357862Y-124701534D01*
X164761534Y-124297862D01*
X164980000Y-123770439D01*
X164980000Y-123432631D01*
X164996010Y-123448641D01*
X164996009Y-127812966D01*
X164981082Y-127888009D01*
X164996009Y-127963052D01*
X164996009Y-127963056D01*
X165040221Y-128185325D01*
X165208638Y-128437380D01*
X165272262Y-128479892D01*
X166524119Y-129731750D01*
X166566630Y-129795372D01*
X166818684Y-129963789D01*
X167040953Y-130008001D01*
X167040954Y-130008001D01*
X167116001Y-130022929D01*
X167191048Y-130008001D01*
X167480000Y-130008001D01*
X167480000Y-130344250D01*
X167638750Y-130503000D01*
X168763000Y-130503000D01*
X168763000Y-130483000D01*
X169017000Y-130483000D01*
X169017000Y-130503000D01*
X170141250Y-130503000D01*
X170300000Y-130344250D01*
X170300000Y-130008001D01*
X171228956Y-130008001D01*
X171303999Y-130022928D01*
X171379042Y-130008001D01*
X171379047Y-130008001D01*
X171601316Y-129963789D01*
X171853370Y-129795372D01*
X171895882Y-129731748D01*
X174415749Y-127211882D01*
X174479371Y-127169371D01*
X174524742Y-127101468D01*
X174647787Y-126917319D01*
X174647787Y-126917318D01*
X174647788Y-126917317D01*
X174692000Y-126695048D01*
X174692000Y-126695044D01*
X174706927Y-126620001D01*
X174692000Y-126544958D01*
X174692000Y-120189533D01*
X175100000Y-120189533D01*
X175100000Y-120750467D01*
X175314659Y-121268701D01*
X175711299Y-121665341D01*
X175891542Y-121740000D01*
X175711299Y-121814659D01*
X175314659Y-122211299D01*
X175100000Y-122729533D01*
X175100000Y-123290467D01*
X175314659Y-123808701D01*
X175711299Y-124205341D01*
X175891542Y-124280000D01*
X175711299Y-124354659D01*
X175314659Y-124751299D01*
X175100000Y-125269533D01*
X175100000Y-125830467D01*
X175314659Y-126348701D01*
X175711299Y-126745341D01*
X175891542Y-126820000D01*
X175711299Y-126894659D01*
X175314659Y-127291299D01*
X175100000Y-127809533D01*
X175100000Y-128370467D01*
X175314659Y-128888701D01*
X175645958Y-129220000D01*
X175608691Y-129220000D01*
X175375302Y-129316673D01*
X175196673Y-129495301D01*
X175100000Y-129728690D01*
X175100000Y-130344250D01*
X175258750Y-130503000D01*
X176383000Y-130503000D01*
X176383000Y-130483000D01*
X176637000Y-130483000D01*
X176637000Y-130503000D01*
X177761250Y-130503000D01*
X177920000Y-130344250D01*
X177920000Y-129728690D01*
X177823327Y-129495301D01*
X177644698Y-129316673D01*
X177411309Y-129220000D01*
X177374042Y-129220000D01*
X177705341Y-128888701D01*
X177920000Y-128370467D01*
X177920000Y-127809533D01*
X177705341Y-127291299D01*
X177308701Y-126894659D01*
X177128458Y-126820000D01*
X177308701Y-126745341D01*
X177705341Y-126348701D01*
X177920000Y-125830467D01*
X177920000Y-125269533D01*
X177705341Y-124751299D01*
X177308701Y-124354659D01*
X177128458Y-124280000D01*
X177308701Y-124205341D01*
X177705341Y-123808701D01*
X177920000Y-123290467D01*
X177920000Y-122729533D01*
X177705341Y-122211299D01*
X177308701Y-121814659D01*
X177128458Y-121740000D01*
X177308701Y-121665341D01*
X177705341Y-121268701D01*
X177920000Y-120750467D01*
X177920000Y-120189533D01*
X177705341Y-119671299D01*
X177308701Y-119274659D01*
X176790467Y-119060000D01*
X176229533Y-119060000D01*
X175711299Y-119274659D01*
X175314659Y-119671299D01*
X175100000Y-120189533D01*
X174692000Y-120189533D01*
X174692000Y-116585630D01*
X178957210Y-112320421D01*
X178960327Y-112318338D01*
X179175204Y-112361080D01*
X179467716Y-112361080D01*
X179900878Y-112274919D01*
X180392085Y-111946705D01*
X180605303Y-111627602D01*
X180666277Y-111757438D01*
X181094536Y-112147725D01*
X181504570Y-112317556D01*
X181734460Y-112196235D01*
X181734460Y-111003080D01*
X181988460Y-111003080D01*
X181988460Y-112196235D01*
X182218350Y-112317556D01*
X182628384Y-112147725D01*
X183056643Y-111757438D01*
X183302946Y-111232972D01*
X183182279Y-111003080D01*
X181988460Y-111003080D01*
X181734460Y-111003080D01*
X181714460Y-111003080D01*
X181714460Y-110749080D01*
X181734460Y-110749080D01*
X181734460Y-109555925D01*
X181988460Y-109555925D01*
X181988460Y-110749080D01*
X183182279Y-110749080D01*
X183302946Y-110519188D01*
X183056643Y-109994722D01*
X182628384Y-109604435D01*
X182218350Y-109434604D01*
X181988460Y-109555925D01*
X181734460Y-109555925D01*
X181504570Y-109434604D01*
X181094536Y-109604435D01*
X180666277Y-109994722D01*
X180605303Y-110124558D01*
X180392085Y-109805455D01*
X179900878Y-109477241D01*
X179467716Y-109391080D01*
X179175204Y-109391080D01*
X178742042Y-109477241D01*
X178250835Y-109805455D01*
X178051460Y-110103841D01*
X177852085Y-109805455D01*
X177360878Y-109477241D01*
X176927716Y-109391080D01*
X176635204Y-109391080D01*
X176202042Y-109477241D01*
X175710835Y-109805455D01*
X175511460Y-110103841D01*
X175312085Y-109805455D01*
X174820878Y-109477241D01*
X174387716Y-109391080D01*
X174095204Y-109391080D01*
X173662042Y-109477241D01*
X173170835Y-109805455D01*
X172971460Y-110103841D01*
X172772085Y-109805455D01*
X172280878Y-109477241D01*
X171847716Y-109391080D01*
X171555204Y-109391080D01*
X171122042Y-109477241D01*
X170630835Y-109805455D01*
X170618644Y-109823699D01*
X170609617Y-109778315D01*
X170469269Y-109568271D01*
X170259225Y-109427923D01*
X170011460Y-109378640D01*
X168311460Y-109378640D01*
X168262000Y-109388478D01*
X168262000Y-103690630D01*
X170015001Y-101937630D01*
X170015000Y-104027315D01*
X170060546Y-104256291D01*
X170234047Y-104515953D01*
X170493708Y-104689454D01*
X170800000Y-104750379D01*
X170877316Y-104735000D01*
X183747684Y-104735000D01*
X183825000Y-104750379D01*
X184131292Y-104689454D01*
X184390953Y-104515953D01*
X184564454Y-104256292D01*
X184610000Y-104027316D01*
X184610000Y-104027315D01*
X184625379Y-103950000D01*
X184610000Y-103872684D01*
X184610000Y-101027316D01*
X184625379Y-100950000D01*
X184564454Y-100643708D01*
X184390953Y-100384047D01*
X184131292Y-100210546D01*
X183902316Y-100165000D01*
X183825000Y-100149621D01*
X183747684Y-100165000D01*
X176781064Y-100165000D01*
X184698621Y-92247444D01*
X184698621Y-111994888D01*
X184634036Y-112548843D01*
X184459417Y-113029912D01*
X184178812Y-113457905D01*
X183807272Y-113809869D01*
X183364728Y-114066918D01*
X182864636Y-114218382D01*
X182413838Y-114258614D01*
X182410436Y-114259322D01*
X182403585Y-114259597D01*
X181795045Y-114321966D01*
X181758848Y-114329992D01*
X181721887Y-114332968D01*
X181627900Y-114357806D01*
X180968421Y-114576591D01*
X180929877Y-114594568D01*
X180889399Y-114607644D01*
X180803647Y-114653438D01*
X180212187Y-115018069D01*
X180178812Y-115044430D01*
X180142428Y-115066468D01*
X180069512Y-115130761D01*
X179577799Y-115621677D01*
X179551384Y-115655009D01*
X179521046Y-115684825D01*
X179464876Y-115764168D01*
X179099285Y-116355035D01*
X179081247Y-116393548D01*
X179058580Y-116429547D01*
X179022169Y-116519685D01*
X178802315Y-117178807D01*
X178793620Y-117220438D01*
X178779844Y-117260683D01*
X178765146Y-117356779D01*
X178709223Y-117977685D01*
X178695954Y-118044241D01*
X178686265Y-140146900D01*
X125491139Y-140146900D01*
X124012375Y-140070696D01*
X122569292Y-139846005D01*
X121156941Y-139474164D01*
X119790305Y-138959117D01*
X118483837Y-138306313D01*
X117251403Y-137522678D01*
X116106038Y-136616498D01*
X115059902Y-135597398D01*
X114124054Y-134476149D01*
X113308428Y-133264654D01*
X112621647Y-131975722D01*
X112071001Y-130623033D01*
X111874830Y-129950000D01*
X119045000Y-129950000D01*
X119165156Y-130708637D01*
X119513863Y-131393013D01*
X120056987Y-131936137D01*
X120741363Y-132284844D01*
X121500000Y-132405000D01*
X122258637Y-132284844D01*
X122943013Y-131936137D01*
X123486137Y-131393013D01*
X123834844Y-130708637D01*
X123955000Y-129950000D01*
X123834844Y-129191363D01*
X123486137Y-128506987D01*
X122943013Y-127963863D01*
X122258637Y-127615156D01*
X121500000Y-127495000D01*
X120741363Y-127615156D01*
X120056987Y-127963863D01*
X119513863Y-128506987D01*
X119165156Y-129191363D01*
X119045000Y-129950000D01*
X111874830Y-129950000D01*
X111662317Y-129220903D01*
X111399928Y-127784193D01*
X111285126Y-126309036D01*
X111283857Y-126254734D01*
X111281580Y-118300000D01*
X111424621Y-118300000D01*
X111440000Y-118377316D01*
X111440001Y-121222679D01*
X111424621Y-121300000D01*
X111485546Y-121606292D01*
X111659047Y-121865953D01*
X111918708Y-122039454D01*
X112147684Y-122085000D01*
X112225000Y-122100379D01*
X112302316Y-122085000D01*
X125147684Y-122085000D01*
X125225000Y-122100379D01*
X125302316Y-122085000D01*
X125531292Y-122039454D01*
X125790953Y-121865953D01*
X125964454Y-121606292D01*
X126025379Y-121300000D01*
X126010000Y-121222684D01*
X126010000Y-118377316D01*
X126025379Y-118300000D01*
X125964454Y-117993708D01*
X125790953Y-117734047D01*
X125531292Y-117560546D01*
X125302316Y-117515000D01*
X125225000Y-117499621D01*
X125147684Y-117515000D01*
X112302316Y-117515000D01*
X112225000Y-117499621D01*
X112147684Y-117515000D01*
X111918708Y-117560546D01*
X111659047Y-117734047D01*
X111485546Y-117993708D01*
X111424621Y-118300000D01*
X111281580Y-118300000D01*
X111279504Y-111050000D01*
X116320000Y-111050000D01*
X116440156Y-111808637D01*
X116788863Y-112493013D01*
X117331987Y-113036137D01*
X118016363Y-113384844D01*
X118775000Y-113505000D01*
X119533637Y-113384844D01*
X120218013Y-113036137D01*
X120761137Y-112493013D01*
X121109844Y-111808637D01*
X121230000Y-111050000D01*
X121109844Y-110291363D01*
X120761137Y-109606987D01*
X120218013Y-109063863D01*
X119533637Y-108715156D01*
X118775000Y-108595000D01*
X118016363Y-108715156D01*
X117331987Y-109063863D01*
X116788863Y-109606987D01*
X116440156Y-110291363D01*
X116320000Y-111050000D01*
X111279504Y-111050000D01*
X111268844Y-73825506D01*
X128406304Y-73825506D01*
X128483620Y-73840885D01*
X128789912Y-73779960D01*
X129049573Y-73606459D01*
X129076774Y-73565750D01*
X132834080Y-73565750D01*
X132834080Y-74181309D01*
X132930753Y-74414698D01*
X133109381Y-74593327D01*
X133342770Y-74690000D01*
X133958330Y-74690000D01*
X134117080Y-74531250D01*
X134117080Y-73407000D01*
X134371080Y-73407000D01*
X134371080Y-74531250D01*
X134529830Y-74690000D01*
X135145390Y-74690000D01*
X135378779Y-74593327D01*
X135557407Y-74414698D01*
X135654080Y-74181309D01*
X135654080Y-73565750D01*
X140454080Y-73565750D01*
X140454080Y-74181310D01*
X140550753Y-74414699D01*
X140729382Y-74593327D01*
X140962771Y-74690000D01*
X141578330Y-74690000D01*
X141737080Y-74531250D01*
X141737080Y-73407000D01*
X141991080Y-73407000D01*
X141991080Y-74531250D01*
X142149830Y-74690000D01*
X142765389Y-74690000D01*
X142998778Y-74593327D01*
X143177407Y-74414699D01*
X143274080Y-74181310D01*
X143274080Y-73565750D01*
X143115330Y-73407000D01*
X141991080Y-73407000D01*
X141737080Y-73407000D01*
X140612830Y-73407000D01*
X140454080Y-73565750D01*
X135654080Y-73565750D01*
X135495330Y-73407000D01*
X134371080Y-73407000D01*
X134117080Y-73407000D01*
X132992830Y-73407000D01*
X132834080Y-73565750D01*
X129076774Y-73565750D01*
X129223074Y-73346798D01*
X129268620Y-73117822D01*
X129283999Y-73040506D01*
X129268620Y-72963190D01*
X129268620Y-62839533D01*
X132834080Y-62839533D01*
X132834080Y-63400467D01*
X133048739Y-63918701D01*
X133445379Y-64315341D01*
X133625622Y-64390000D01*
X133445379Y-64464659D01*
X133048739Y-64861299D01*
X132834080Y-65379533D01*
X132834080Y-65940467D01*
X133048739Y-66458701D01*
X133445379Y-66855341D01*
X133625622Y-66930000D01*
X133445379Y-67004659D01*
X133048739Y-67401299D01*
X132834080Y-67919533D01*
X132834080Y-68480467D01*
X133048739Y-68998701D01*
X133445379Y-69395341D01*
X133625622Y-69470000D01*
X133445379Y-69544659D01*
X133048739Y-69941299D01*
X132834080Y-70459533D01*
X132834080Y-71020467D01*
X133048739Y-71538701D01*
X133380038Y-71870000D01*
X133342770Y-71870000D01*
X133109381Y-71966673D01*
X132930753Y-72145302D01*
X132834080Y-72378691D01*
X132834080Y-72994250D01*
X132992830Y-73153000D01*
X134117080Y-73153000D01*
X134117080Y-73133000D01*
X134371080Y-73133000D01*
X134371080Y-73153000D01*
X135495330Y-73153000D01*
X135654080Y-72994250D01*
X135654080Y-72378691D01*
X135557407Y-72145302D01*
X135378779Y-71966673D01*
X135145390Y-71870000D01*
X135108122Y-71870000D01*
X135439421Y-71538701D01*
X135654080Y-71020467D01*
X135654080Y-70459533D01*
X135439421Y-69941299D01*
X135042781Y-69544659D01*
X134862538Y-69470000D01*
X135042781Y-69395341D01*
X135439421Y-68998701D01*
X135654080Y-68480467D01*
X135654080Y-67919533D01*
X135439421Y-67401299D01*
X135042781Y-67004659D01*
X134862538Y-66930000D01*
X135042781Y-66855341D01*
X135439421Y-66458701D01*
X135654080Y-65940467D01*
X135654080Y-65379533D01*
X135439421Y-64861299D01*
X135042781Y-64464659D01*
X134862538Y-64390000D01*
X135042781Y-64315341D01*
X135439421Y-63918701D01*
X135654080Y-63400467D01*
X135654080Y-62839533D01*
X140454080Y-62839533D01*
X140454080Y-63400467D01*
X140668739Y-63918701D01*
X141065379Y-64315341D01*
X141245622Y-64390000D01*
X141065379Y-64464659D01*
X140668739Y-64861299D01*
X140454080Y-65379533D01*
X140454080Y-65940467D01*
X140668739Y-66458701D01*
X141065379Y-66855341D01*
X141245622Y-66930000D01*
X141065379Y-67004659D01*
X140668739Y-67401299D01*
X140454080Y-67919533D01*
X140454080Y-68480467D01*
X140668739Y-68998701D01*
X141065379Y-69395341D01*
X141245622Y-69470000D01*
X141065379Y-69544659D01*
X140668739Y-69941299D01*
X140454080Y-70459533D01*
X140454080Y-71020467D01*
X140668739Y-71538701D01*
X141000038Y-71870000D01*
X140962771Y-71870000D01*
X140729382Y-71966673D01*
X140550753Y-72145301D01*
X140454080Y-72378690D01*
X140454080Y-72994250D01*
X140612830Y-73153000D01*
X141737080Y-73153000D01*
X141737080Y-73133000D01*
X141991080Y-73133000D01*
X141991080Y-73153000D01*
X143115330Y-73153000D01*
X143274080Y-72994250D01*
X143274080Y-72378690D01*
X143177407Y-72145301D01*
X142998778Y-71966673D01*
X142765389Y-71870000D01*
X142728122Y-71870000D01*
X143059421Y-71538701D01*
X143274080Y-71020467D01*
X143274080Y-70459533D01*
X143059421Y-69941299D01*
X142662781Y-69544659D01*
X142482538Y-69470000D01*
X142662781Y-69395341D01*
X143059421Y-68998701D01*
X143274080Y-68480467D01*
X143274080Y-67919533D01*
X143059421Y-67401299D01*
X142662781Y-67004659D01*
X142482538Y-66930000D01*
X142662781Y-66855341D01*
X143059421Y-66458701D01*
X143274080Y-65940467D01*
X143274080Y-65379533D01*
X143059421Y-64861299D01*
X142662781Y-64464659D01*
X142482538Y-64390000D01*
X142662781Y-64315341D01*
X143059421Y-63918701D01*
X143274080Y-63400467D01*
X143274080Y-62839533D01*
X143059421Y-62321299D01*
X142662781Y-61924659D01*
X142144547Y-61710000D01*
X141583613Y-61710000D01*
X141065379Y-61924659D01*
X140668739Y-62321299D01*
X140454080Y-62839533D01*
X135654080Y-62839533D01*
X135439421Y-62321299D01*
X135042781Y-61924659D01*
X134524547Y-61710000D01*
X133963613Y-61710000D01*
X133445379Y-61924659D01*
X133048739Y-62321299D01*
X132834080Y-62839533D01*
X129268620Y-62839533D01*
X129268620Y-58825506D01*
X147906304Y-58825506D01*
X147983620Y-58840885D01*
X148289912Y-58779960D01*
X148442504Y-58678000D01*
X149845073Y-58678000D01*
X149860001Y-58753048D01*
X149860000Y-74092957D01*
X149845073Y-74168000D01*
X149860000Y-74243043D01*
X149860000Y-74243047D01*
X149904212Y-74465316D01*
X150072629Y-74717371D01*
X150136253Y-74759883D01*
X150763001Y-75386632D01*
X150763001Y-75527560D01*
X150675000Y-75527560D01*
X150427235Y-75576843D01*
X150217191Y-75717191D01*
X150076843Y-75927235D01*
X150027560Y-76175000D01*
X150027560Y-77875000D01*
X150076843Y-78122765D01*
X150217191Y-78332809D01*
X150427235Y-78473157D01*
X150675000Y-78522440D01*
X152375000Y-78522440D01*
X152622765Y-78473157D01*
X152832809Y-78332809D01*
X152973157Y-78122765D01*
X152982184Y-78077381D01*
X152994375Y-78095625D01*
X153485582Y-78423839D01*
X153918744Y-78510000D01*
X154211256Y-78510000D01*
X154644418Y-78423839D01*
X155135625Y-78095625D01*
X155335000Y-77797239D01*
X155534375Y-78095625D01*
X156025582Y-78423839D01*
X156458744Y-78510000D01*
X156751256Y-78510000D01*
X157184418Y-78423839D01*
X157675625Y-78095625D01*
X157875000Y-77797239D01*
X158074375Y-78095625D01*
X158565582Y-78423839D01*
X158998744Y-78510000D01*
X159291256Y-78510000D01*
X159724418Y-78423839D01*
X160215625Y-78095625D01*
X160415000Y-77797239D01*
X160614375Y-78095625D01*
X161105582Y-78423839D01*
X161538744Y-78510000D01*
X161831256Y-78510000D01*
X162264418Y-78423839D01*
X162755625Y-78095625D01*
X162968843Y-77776522D01*
X163029817Y-77906358D01*
X163458076Y-78296645D01*
X163868110Y-78466476D01*
X164098000Y-78345155D01*
X164098000Y-77152000D01*
X164352000Y-77152000D01*
X164352000Y-78345155D01*
X164581890Y-78466476D01*
X164991924Y-78296645D01*
X165420183Y-77906358D01*
X165666486Y-77381892D01*
X165545819Y-77152000D01*
X164352000Y-77152000D01*
X164098000Y-77152000D01*
X164078000Y-77152000D01*
X164078000Y-76898000D01*
X164098000Y-76898000D01*
X164098000Y-75704845D01*
X164352000Y-75704845D01*
X164352000Y-76898000D01*
X165545819Y-76898000D01*
X165666486Y-76668108D01*
X165420183Y-76143642D01*
X164991924Y-75753355D01*
X164581890Y-75583524D01*
X164352000Y-75704845D01*
X164098000Y-75704845D01*
X163868110Y-75583524D01*
X163458076Y-75753355D01*
X163029817Y-76143642D01*
X162968843Y-76273478D01*
X162755625Y-75954375D01*
X162264418Y-75626161D01*
X161831256Y-75540000D01*
X161538744Y-75540000D01*
X161105582Y-75626161D01*
X160614375Y-75954375D01*
X160415000Y-76252761D01*
X160215625Y-75954375D01*
X159724418Y-75626161D01*
X159291256Y-75540000D01*
X158998744Y-75540000D01*
X158565582Y-75626161D01*
X158074375Y-75954375D01*
X157875000Y-76252761D01*
X157675625Y-75954375D01*
X157184418Y-75626161D01*
X156751256Y-75540000D01*
X156458744Y-75540000D01*
X156025582Y-75626161D01*
X155534375Y-75954375D01*
X155335000Y-76252761D01*
X155135625Y-75954375D01*
X154827065Y-75748202D01*
X154827000Y-75747875D01*
X154827000Y-75747871D01*
X154782788Y-75525602D01*
X154614371Y-75273548D01*
X154550749Y-75231037D01*
X152654000Y-73334289D01*
X152654000Y-70150000D01*
X155195000Y-70150000D01*
X155315156Y-70908637D01*
X155663863Y-71593013D01*
X156206987Y-72136137D01*
X156891363Y-72484844D01*
X157650000Y-72605000D01*
X158408637Y-72484844D01*
X159093013Y-72136137D01*
X159636137Y-71593013D01*
X159984844Y-70908637D01*
X160105000Y-70150000D01*
X159984844Y-69391363D01*
X159636137Y-68706987D01*
X159093013Y-68163863D01*
X158408637Y-67815156D01*
X157650000Y-67695000D01*
X156891363Y-67815156D01*
X156206987Y-68163863D01*
X155663863Y-68706987D01*
X155315156Y-69391363D01*
X155195000Y-70150000D01*
X152654000Y-70150000D01*
X152654000Y-64548854D01*
X152813690Y-64615000D01*
X153429250Y-64615000D01*
X153588000Y-64456250D01*
X153588000Y-63332000D01*
X153842000Y-63332000D01*
X153842000Y-64456250D01*
X154000750Y-64615000D01*
X154616310Y-64615000D01*
X154849699Y-64518327D01*
X155028327Y-64339698D01*
X155125000Y-64106309D01*
X155125000Y-63490750D01*
X159925000Y-63490750D01*
X159925000Y-64106310D01*
X160021673Y-64339699D01*
X160200302Y-64518327D01*
X160433691Y-64615000D01*
X161049250Y-64615000D01*
X161208000Y-64456250D01*
X161208000Y-63332000D01*
X161462000Y-63332000D01*
X161462000Y-64456250D01*
X161620750Y-64615000D01*
X162236309Y-64615000D01*
X162469698Y-64518327D01*
X162648327Y-64339699D01*
X162745000Y-64106310D01*
X162745000Y-63490750D01*
X162586250Y-63332000D01*
X161462000Y-63332000D01*
X161208000Y-63332000D01*
X160083750Y-63332000D01*
X159925000Y-63490750D01*
X155125000Y-63490750D01*
X154966250Y-63332000D01*
X153842000Y-63332000D01*
X153588000Y-63332000D01*
X153568000Y-63332000D01*
X153568000Y-63078000D01*
X153588000Y-63078000D01*
X153588000Y-63058000D01*
X153842000Y-63058000D01*
X153842000Y-63078000D01*
X154966250Y-63078000D01*
X155125000Y-62919250D01*
X155125000Y-62303691D01*
X155028327Y-62070302D01*
X154849699Y-61891673D01*
X154616310Y-61795000D01*
X154579042Y-61795000D01*
X154910341Y-61463701D01*
X155125000Y-60945467D01*
X155125000Y-60384533D01*
X154910341Y-59866299D01*
X154513701Y-59469659D01*
X154333458Y-59395000D01*
X154513701Y-59320341D01*
X154910341Y-58923701D01*
X155125000Y-58405467D01*
X155125000Y-57844533D01*
X154910341Y-57326299D01*
X154513701Y-56929659D01*
X154333458Y-56855000D01*
X154513701Y-56780341D01*
X154910341Y-56383701D01*
X155125000Y-55865467D01*
X155125000Y-55304533D01*
X154910341Y-54786299D01*
X154513701Y-54389659D01*
X154333458Y-54315000D01*
X154513701Y-54240341D01*
X154910341Y-53843701D01*
X155125000Y-53325467D01*
X155125000Y-52764533D01*
X159925000Y-52764533D01*
X159925000Y-53325467D01*
X160139659Y-53843701D01*
X160536299Y-54240341D01*
X160716542Y-54315000D01*
X160536299Y-54389659D01*
X160139659Y-54786299D01*
X159925000Y-55304533D01*
X159925000Y-55865467D01*
X160139659Y-56383701D01*
X160536299Y-56780341D01*
X160716542Y-56855000D01*
X160536299Y-56929659D01*
X160139659Y-57326299D01*
X159925000Y-57844533D01*
X159925000Y-58405467D01*
X160139659Y-58923701D01*
X160536299Y-59320341D01*
X160716542Y-59395000D01*
X160536299Y-59469659D01*
X160139659Y-59866299D01*
X159925000Y-60384533D01*
X159925000Y-60945467D01*
X160139659Y-61463701D01*
X160470958Y-61795000D01*
X160433691Y-61795000D01*
X160200302Y-61891673D01*
X160021673Y-62070301D01*
X159925000Y-62303690D01*
X159925000Y-62919250D01*
X160083750Y-63078000D01*
X161208000Y-63078000D01*
X161208000Y-63058000D01*
X161462000Y-63058000D01*
X161462000Y-63078000D01*
X162586250Y-63078000D01*
X162745000Y-62919250D01*
X162745000Y-62303690D01*
X162648327Y-62070301D01*
X162469698Y-61891673D01*
X162236309Y-61795000D01*
X162199042Y-61795000D01*
X162530341Y-61463701D01*
X162745000Y-60945467D01*
X162745000Y-60384533D01*
X162530341Y-59866299D01*
X162133701Y-59469659D01*
X161953458Y-59395000D01*
X162133701Y-59320341D01*
X162530341Y-58923701D01*
X162745000Y-58405467D01*
X162745000Y-57844533D01*
X162530341Y-57326299D01*
X162133701Y-56929659D01*
X161953458Y-56855000D01*
X162133701Y-56780341D01*
X162530341Y-56383701D01*
X162745000Y-55865467D01*
X162745000Y-55304533D01*
X162530341Y-54786299D01*
X162133701Y-54389659D01*
X161953458Y-54315000D01*
X162133701Y-54240341D01*
X162530341Y-53843701D01*
X162745000Y-53325467D01*
X162745000Y-52764533D01*
X162530341Y-52246299D01*
X162133701Y-51849659D01*
X161615467Y-51635000D01*
X161054533Y-51635000D01*
X160536299Y-51849659D01*
X160139659Y-52246299D01*
X159925000Y-52764533D01*
X155125000Y-52764533D01*
X154910341Y-52246299D01*
X154513701Y-51849659D01*
X153995467Y-51635000D01*
X153434533Y-51635000D01*
X152916299Y-51849659D01*
X152519659Y-52246299D01*
X152305000Y-52764533D01*
X152305000Y-53325467D01*
X152519659Y-53843701D01*
X152916299Y-54240341D01*
X153096542Y-54315000D01*
X152916299Y-54389659D01*
X152519659Y-54786299D01*
X152305000Y-55304533D01*
X152305000Y-55865467D01*
X152320202Y-55902168D01*
X150898254Y-57324116D01*
X150898251Y-57324118D01*
X150136251Y-58086119D01*
X150072630Y-58128629D01*
X150030119Y-58192251D01*
X150030118Y-58192252D01*
X149904213Y-58380683D01*
X149845073Y-58678000D01*
X148442504Y-58678000D01*
X148549573Y-58606459D01*
X148723074Y-58346798D01*
X148768620Y-58117822D01*
X148783999Y-58040506D01*
X148768620Y-57963190D01*
X148768620Y-48825506D01*
X166698621Y-48825506D01*
X166698620Y-55963190D01*
G04 #@! TD*
M02*
