M48
;DRILL file {KiCad (5.0.2)-1} date 05/04/2019 17:45:21
;FORMAT={-:-/ absolute / inch / decimal}
FMAT,2
INCH,TZ
T1C0.0394
T2C0.0433
%
G90
G05
T1
X4.5079Y-4.1024
X4.6079Y-4.1024
X4.7079Y-4.1024
X4.8079Y-4.1024
X4.9079Y-4.1024
X5.0079Y-4.1024
X5.1921Y-3.4498
X5.2921Y-3.4498
X5.3921Y-3.4498
X5.4921Y-3.4498
X5.5921Y-3.4498
X5.6921Y-3.4498
X6.6599Y-4.3652
X6.7599Y-4.3652
X6.8599Y-4.3652
X6.9599Y-4.3652
X7.0599Y-4.3652
X7.1599Y-4.3652
X6.6644Y-3.4469
X6.7644Y-3.4469
X6.8644Y-3.4469
X6.9644Y-3.4469
X7.0644Y-3.4469
X7.1644Y-3.4469
X5.4384Y-5.3559
X5.5384Y-5.3559
X4.9187Y-5.3513
X5.0187Y-5.3513
X5.1187Y-5.3513
X5.9656Y-3.0325
X6.0656Y-3.0325
X6.1656Y-3.0325
X6.2656Y-3.0325
X6.3656Y-3.0325
X6.4656Y-3.0325
T2
X6.0518Y-2.0884
X6.0518Y-2.1884
X6.0518Y-2.2884
X6.0518Y-2.3884
X6.0518Y-2.4884
X6.3518Y-2.0884
X6.3518Y-2.1884
X6.3518Y-2.2884
X6.3518Y-2.3884
X6.3518Y-2.4884
X6.6492Y-4.7429
X6.6492Y-4.8429
X6.6492Y-4.9429
X6.6492Y-5.0429
X6.6492Y-5.1429
X6.9492Y-4.7429
X6.9492Y-4.8429
X6.9492Y-4.9429
X6.9492Y-5.0429
X6.9492Y-5.1429
X4.5626Y-3.1573
X4.5626Y-3.2573
X4.5626Y-3.3573
X4.5626Y-3.4573
X4.5626Y-3.5573
X4.8626Y-3.1573
X4.8626Y-3.2573
X4.8626Y-3.3573
X4.8626Y-3.4573
X4.8626Y-3.5573
X5.8388Y-4.0616
X5.8388Y-4.1616
X5.8388Y-4.2616
X5.8388Y-4.3616
X5.8388Y-4.4616
X5.8388Y-4.5616
X5.8388Y-4.6616
X5.8388Y-4.7616
X5.8388Y-4.8616
X5.8388Y-4.9616
X5.8388Y-5.0616
X5.8388Y-5.1616
X5.8388Y-5.2616
X5.8388Y-5.3616
X6.4388Y-4.0616
X6.4388Y-4.1616
X6.4388Y-4.2616
X6.4388Y-4.3616
X6.4388Y-4.4616
X6.4388Y-4.5616
X6.4388Y-4.6616
X6.4388Y-4.7616
X6.4388Y-4.8616
X6.4388Y-4.9616
X6.4388Y-5.0616
X6.4388Y-5.1616
X6.4388Y-5.2616
X6.4388Y-5.3616
X6.7976Y-2.3969
X6.7976Y-2.4969
X6.7976Y-2.5969
X6.7976Y-2.6969
X6.7976Y-2.7969
X7.0976Y-2.3969
X7.0976Y-2.4969
X7.0976Y-2.5969
X7.0976Y-2.6969
X7.0976Y-2.7969
X5.2852Y-2.485
X5.2852Y-2.585
X5.2852Y-2.685
X5.2852Y-2.785
X5.2852Y-2.885
X5.5852Y-2.485
X5.5852Y-2.585
X5.5852Y-2.685
X5.5852Y-2.785
X5.5852Y-2.885
T0
M30
