G04 #@! TF.GenerationSoftware,KiCad,Pcbnew,(5.0.2)-1*
G04 #@! TF.CreationDate,2019-03-27T22:14:58+01:00*
G04 #@! TF.ProjectId,DorsalTPMG90,446f7273-616c-4545-904d-4739302e6b69,v01*
G04 #@! TF.SameCoordinates,Original*
G04 #@! TF.FileFunction,Legend,Bot*
G04 #@! TF.FilePolarity,Positive*
%FSLAX46Y46*%
G04 Gerber Fmt 4.6, Leading zero omitted, Abs format (unit mm)*
G04 Created by KiCad (PCBNEW (5.0.2)-1) date 27/03/2019 22:14:58*
%MOMM*%
%LPD*%
G01*
G04 APERTURE LIST*
%ADD10C,0.375000*%
%ADD11C,0.010000*%
G04 APERTURE END LIST*
D10*
X180314285Y-111766071D02*
X180314285Y-110266071D01*
X179957142Y-110266071D01*
X179742857Y-110337500D01*
X179600000Y-110480357D01*
X179528571Y-110623214D01*
X179457142Y-110908928D01*
X179457142Y-111123214D01*
X179528571Y-111408928D01*
X179600000Y-111551785D01*
X179742857Y-111694642D01*
X179957142Y-111766071D01*
X180314285Y-111766071D01*
X178242857Y-111694642D02*
X178385714Y-111766071D01*
X178671428Y-111766071D01*
X178814285Y-111694642D01*
X178885714Y-111551785D01*
X178885714Y-110980357D01*
X178814285Y-110837500D01*
X178671428Y-110766071D01*
X178385714Y-110766071D01*
X178242857Y-110837500D01*
X178171428Y-110980357D01*
X178171428Y-111123214D01*
X178885714Y-111266071D01*
X177671428Y-111766071D02*
X176885714Y-110766071D01*
X177671428Y-110766071D02*
X176885714Y-111766071D01*
X176528571Y-110766071D02*
X175957142Y-110766071D01*
X176314285Y-110266071D02*
X176314285Y-111551785D01*
X176242857Y-111694642D01*
X176100000Y-111766071D01*
X175957142Y-111766071D01*
X175457142Y-111766071D02*
X175457142Y-110766071D01*
X175457142Y-111051785D02*
X175385714Y-110908928D01*
X175314285Y-110837500D01*
X175171428Y-110766071D01*
X175028571Y-110766071D01*
X173885714Y-111766071D02*
X173885714Y-110980357D01*
X173957142Y-110837500D01*
X174100000Y-110766071D01*
X174385714Y-110766071D01*
X174528571Y-110837500D01*
X173885714Y-111694642D02*
X174028571Y-111766071D01*
X174385714Y-111766071D01*
X174528571Y-111694642D01*
X174600000Y-111551785D01*
X174600000Y-111408928D01*
X174528571Y-111266071D01*
X174385714Y-111194642D01*
X174028571Y-111194642D01*
X173885714Y-111123214D01*
X171171428Y-111766071D02*
X171671428Y-111051785D01*
X172028571Y-111766071D02*
X172028571Y-110266071D01*
X171457142Y-110266071D01*
X171314285Y-110337500D01*
X171242857Y-110408928D01*
X171171428Y-110551785D01*
X171171428Y-110766071D01*
X171242857Y-110908928D01*
X171314285Y-110980357D01*
X171457142Y-111051785D01*
X172028571Y-111051785D01*
X170528571Y-111766071D02*
X170528571Y-110766071D01*
X170528571Y-110266071D02*
X170600000Y-110337500D01*
X170528571Y-110408928D01*
X170457142Y-110337500D01*
X170528571Y-110266071D01*
X170528571Y-110408928D01*
X169171428Y-110766071D02*
X169171428Y-111980357D01*
X169242857Y-112123214D01*
X169314285Y-112194642D01*
X169457142Y-112266071D01*
X169671428Y-112266071D01*
X169814285Y-112194642D01*
X169171428Y-111694642D02*
X169314285Y-111766071D01*
X169600000Y-111766071D01*
X169742857Y-111694642D01*
X169814285Y-111623214D01*
X169885714Y-111480357D01*
X169885714Y-111051785D01*
X169814285Y-110908928D01*
X169742857Y-110837500D01*
X169600000Y-110766071D01*
X169314285Y-110766071D01*
X169171428Y-110837500D01*
X168457142Y-111766071D02*
X168457142Y-110266071D01*
X167814285Y-111766071D02*
X167814285Y-110980357D01*
X167885714Y-110837500D01*
X168028571Y-110766071D01*
X168242857Y-110766071D01*
X168385714Y-110837500D01*
X168457142Y-110908928D01*
X167314285Y-110766071D02*
X166742857Y-110766071D01*
X167100000Y-110266071D02*
X167100000Y-111551785D01*
X167028571Y-111694642D01*
X166885714Y-111766071D01*
X166742857Y-111766071D01*
X165100000Y-111766071D02*
X165100000Y-110266071D01*
X165100000Y-110980357D02*
X164242857Y-110980357D01*
X164242857Y-111766071D02*
X164242857Y-110266071D01*
X162885714Y-111766071D02*
X162885714Y-110980357D01*
X162957142Y-110837500D01*
X163100000Y-110766071D01*
X163385714Y-110766071D01*
X163528571Y-110837500D01*
X162885714Y-111694642D02*
X163028571Y-111766071D01*
X163385714Y-111766071D01*
X163528571Y-111694642D01*
X163600000Y-111551785D01*
X163600000Y-111408928D01*
X163528571Y-111266071D01*
X163385714Y-111194642D01*
X163028571Y-111194642D01*
X162885714Y-111123214D01*
X162171428Y-110766071D02*
X162171428Y-111766071D01*
X162171428Y-110908928D02*
X162100000Y-110837500D01*
X161957142Y-110766071D01*
X161742857Y-110766071D01*
X161600000Y-110837500D01*
X161528571Y-110980357D01*
X161528571Y-111766071D01*
X160171428Y-111766071D02*
X160171428Y-110266071D01*
X160171428Y-111694642D02*
X160314285Y-111766071D01*
X160600000Y-111766071D01*
X160742857Y-111694642D01*
X160814285Y-111623214D01*
X160885714Y-111480357D01*
X160885714Y-111051785D01*
X160814285Y-110908928D01*
X160742857Y-110837500D01*
X160600000Y-110766071D01*
X160314285Y-110766071D01*
X160171428Y-110837500D01*
X158314285Y-111766071D02*
X158314285Y-110266071D01*
X157957142Y-110266071D01*
X157742857Y-110337500D01*
X157600000Y-110480357D01*
X157528571Y-110623214D01*
X157457142Y-110908928D01*
X157457142Y-111123214D01*
X157528571Y-111408928D01*
X157600000Y-111551785D01*
X157742857Y-111694642D01*
X157957142Y-111766071D01*
X158314285Y-111766071D01*
X156600000Y-111766071D02*
X156742857Y-111694642D01*
X156814285Y-111623214D01*
X156885714Y-111480357D01*
X156885714Y-111051785D01*
X156814285Y-110908928D01*
X156742857Y-110837500D01*
X156600000Y-110766071D01*
X156385714Y-110766071D01*
X156242857Y-110837500D01*
X156171428Y-110908928D01*
X156100000Y-111051785D01*
X156100000Y-111480357D01*
X156171428Y-111623214D01*
X156242857Y-111694642D01*
X156385714Y-111766071D01*
X156600000Y-111766071D01*
X155457142Y-111766071D02*
X155457142Y-110766071D01*
X155457142Y-111051785D02*
X155385714Y-110908928D01*
X155314285Y-110837500D01*
X155171428Y-110766071D01*
X155028571Y-110766071D01*
X154600000Y-111694642D02*
X154457142Y-111766071D01*
X154171428Y-111766071D01*
X154028571Y-111694642D01*
X153957142Y-111551785D01*
X153957142Y-111480357D01*
X154028571Y-111337500D01*
X154171428Y-111266071D01*
X154385714Y-111266071D01*
X154528571Y-111194642D01*
X154600000Y-111051785D01*
X154600000Y-110980357D01*
X154528571Y-110837500D01*
X154385714Y-110766071D01*
X154171428Y-110766071D01*
X154028571Y-110837500D01*
X152671428Y-111766071D02*
X152671428Y-110980357D01*
X152742857Y-110837500D01*
X152885714Y-110766071D01*
X153171428Y-110766071D01*
X153314285Y-110837500D01*
X152671428Y-111694642D02*
X152814285Y-111766071D01*
X153171428Y-111766071D01*
X153314285Y-111694642D01*
X153385714Y-111551785D01*
X153385714Y-111408928D01*
X153314285Y-111266071D01*
X153171428Y-111194642D01*
X152814285Y-111194642D01*
X152671428Y-111123214D01*
X151742857Y-111766071D02*
X151885714Y-111694642D01*
X151957142Y-111551785D01*
X151957142Y-110266071D01*
X167885714Y-113391071D02*
X167528571Y-114391071D01*
X167171428Y-113391071D01*
X166314285Y-112891071D02*
X166171428Y-112891071D01*
X166028571Y-112962500D01*
X165957142Y-113033928D01*
X165885714Y-113176785D01*
X165814285Y-113462500D01*
X165814285Y-113819642D01*
X165885714Y-114105357D01*
X165957142Y-114248214D01*
X166028571Y-114319642D01*
X166171428Y-114391071D01*
X166314285Y-114391071D01*
X166457142Y-114319642D01*
X166528571Y-114248214D01*
X166600000Y-114105357D01*
X166671428Y-113819642D01*
X166671428Y-113462500D01*
X166600000Y-113176785D01*
X166528571Y-113033928D01*
X166457142Y-112962500D01*
X166314285Y-112891071D01*
X164385714Y-114391071D02*
X165242857Y-114391071D01*
X164814285Y-114391071D02*
X164814285Y-112891071D01*
X164957142Y-113105357D01*
X165100000Y-113248214D01*
X165242857Y-113319642D01*
D11*
G04 #@! TO.C,G\002A\002A\002A*
G36*
X156375283Y-117540360D02*
X156312552Y-117568183D01*
X156280635Y-117619033D01*
X156288721Y-117677384D01*
X156291432Y-117682010D01*
X156340563Y-117721462D01*
X156406841Y-117734161D01*
X156465453Y-117716314D01*
X156473069Y-117709771D01*
X156503118Y-117652089D01*
X156492697Y-117594817D01*
X156450156Y-117552420D01*
X156383842Y-117539359D01*
X156375283Y-117540360D01*
X156375283Y-117540360D01*
G37*
X156375283Y-117540360D02*
X156312552Y-117568183D01*
X156280635Y-117619033D01*
X156288721Y-117677384D01*
X156291432Y-117682010D01*
X156340563Y-117721462D01*
X156406841Y-117734161D01*
X156465453Y-117716314D01*
X156473069Y-117709771D01*
X156503118Y-117652089D01*
X156492697Y-117594817D01*
X156450156Y-117552420D01*
X156383842Y-117539359D01*
X156375283Y-117540360D01*
G36*
X161017057Y-117552591D02*
X160992621Y-117574775D01*
X160987752Y-117630793D01*
X160987740Y-117637560D01*
X160992425Y-117697901D01*
X161016145Y-117724625D01*
X161070465Y-117734432D01*
X161140969Y-117729385D01*
X161167724Y-117704529D01*
X161176020Y-117649542D01*
X161173899Y-117607657D01*
X161159048Y-117566982D01*
X161119808Y-117550712D01*
X161076640Y-117548660D01*
X161017057Y-117552591D01*
X161017057Y-117552591D01*
G37*
X161017057Y-117552591D02*
X160992621Y-117574775D01*
X160987752Y-117630793D01*
X160987740Y-117637560D01*
X160992425Y-117697901D01*
X161016145Y-117724625D01*
X161070465Y-117734432D01*
X161140969Y-117729385D01*
X161167724Y-117704529D01*
X161176020Y-117649542D01*
X161173899Y-117607657D01*
X161159048Y-117566982D01*
X161119808Y-117550712D01*
X161076640Y-117548660D01*
X161017057Y-117552591D01*
G36*
X160226595Y-118814910D02*
X160024621Y-118391335D01*
X159953445Y-118242530D01*
X159899943Y-118133430D01*
X159859953Y-118057873D01*
X159829312Y-118009698D01*
X159803856Y-117982744D01*
X159779422Y-117970848D01*
X159751848Y-117967848D01*
X159738444Y-117967760D01*
X159681569Y-117973954D01*
X159654586Y-117989081D01*
X159654240Y-117991205D01*
X159664763Y-118019826D01*
X159693920Y-118086502D01*
X159738095Y-118183618D01*
X159793672Y-118303560D01*
X159857034Y-118438715D01*
X159924565Y-118581469D01*
X159992648Y-118724207D01*
X160057668Y-118859317D01*
X160116008Y-118979185D01*
X160164051Y-119076196D01*
X160198181Y-119142737D01*
X160214623Y-119171022D01*
X160230501Y-119155142D01*
X160265128Y-119099082D01*
X160315430Y-119008538D01*
X160378335Y-118889205D01*
X160450770Y-118746776D01*
X160528573Y-118589185D01*
X160606919Y-118427951D01*
X160677404Y-118282286D01*
X160737124Y-118158247D01*
X160783172Y-118061886D01*
X160812642Y-117999258D01*
X160822640Y-117976473D01*
X160800261Y-117970731D01*
X160745180Y-117967841D01*
X160732916Y-117967760D01*
X160643191Y-117967760D01*
X160226595Y-118814910D01*
X160226595Y-118814910D01*
G37*
X160226595Y-118814910D02*
X160024621Y-118391335D01*
X159953445Y-118242530D01*
X159899943Y-118133430D01*
X159859953Y-118057873D01*
X159829312Y-118009698D01*
X159803856Y-117982744D01*
X159779422Y-117970848D01*
X159751848Y-117967848D01*
X159738444Y-117967760D01*
X159681569Y-117973954D01*
X159654586Y-117989081D01*
X159654240Y-117991205D01*
X159664763Y-118019826D01*
X159693920Y-118086502D01*
X159738095Y-118183618D01*
X159793672Y-118303560D01*
X159857034Y-118438715D01*
X159924565Y-118581469D01*
X159992648Y-118724207D01*
X160057668Y-118859317D01*
X160116008Y-118979185D01*
X160164051Y-119076196D01*
X160198181Y-119142737D01*
X160214623Y-119171022D01*
X160230501Y-119155142D01*
X160265128Y-119099082D01*
X160315430Y-119008538D01*
X160378335Y-118889205D01*
X160450770Y-118746776D01*
X160528573Y-118589185D01*
X160606919Y-118427951D01*
X160677404Y-118282286D01*
X160737124Y-118158247D01*
X160783172Y-118061886D01*
X160812642Y-117999258D01*
X160822640Y-117976473D01*
X160800261Y-117970731D01*
X160745180Y-117967841D01*
X160732916Y-117967760D01*
X160643191Y-117967760D01*
X160226595Y-118814910D01*
G36*
X152097740Y-119199660D02*
X152167590Y-119207697D01*
X152213569Y-119208480D01*
X152233134Y-119187253D01*
X152237423Y-119130357D01*
X152237440Y-119122049D01*
X152239157Y-119061771D01*
X152250468Y-119043920D01*
X152280617Y-119060120D01*
X152294590Y-119070277D01*
X152444355Y-119151615D01*
X152613341Y-119195992D01*
X152785184Y-119200305D01*
X152884265Y-119181983D01*
X152980809Y-119135824D01*
X153082655Y-119056397D01*
X153176215Y-118957589D01*
X153247902Y-118853288D01*
X153279687Y-118777816D01*
X153301782Y-118606159D01*
X153300850Y-118599563D01*
X153125634Y-118599563D01*
X153109166Y-118725694D01*
X153064391Y-118835720D01*
X153053678Y-118851932D01*
X152956049Y-118947803D01*
X152831272Y-119009483D01*
X152692796Y-119033317D01*
X152554069Y-119015653D01*
X152509675Y-118999733D01*
X152395648Y-118925606D01*
X152310982Y-118811809D01*
X152275587Y-118729893D01*
X152250227Y-118616833D01*
X152260901Y-118508671D01*
X152309685Y-118388980D01*
X152321405Y-118367230D01*
X152396614Y-118276469D01*
X152502498Y-118205498D01*
X152621863Y-118162836D01*
X152737517Y-118157003D01*
X152743712Y-118157968D01*
X152883828Y-118206345D01*
X153006537Y-118297188D01*
X153070911Y-118374764D01*
X153113110Y-118476271D01*
X153125634Y-118599563D01*
X153300850Y-118599563D01*
X153278148Y-118438976D01*
X153212363Y-118285606D01*
X153108004Y-118155389D01*
X153013461Y-118082731D01*
X152944125Y-118043242D01*
X152882751Y-118020118D01*
X152811077Y-118009100D01*
X152710844Y-118005928D01*
X152683932Y-118005860D01*
X152574869Y-118007961D01*
X152499296Y-118016832D01*
X152439991Y-118036320D01*
X152379726Y-118070274D01*
X152371295Y-118075710D01*
X152307309Y-118115746D01*
X152262307Y-118141016D01*
X152250645Y-118145560D01*
X152245643Y-118121764D01*
X152241510Y-118056787D01*
X152238647Y-117960249D01*
X152237453Y-117841765D01*
X152237440Y-117828060D01*
X152237440Y-117510560D01*
X152084356Y-117510560D01*
X152097740Y-119199660D01*
X152097740Y-119199660D01*
G37*
X152097740Y-119199660D02*
X152167590Y-119207697D01*
X152213569Y-119208480D01*
X152233134Y-119187253D01*
X152237423Y-119130357D01*
X152237440Y-119122049D01*
X152239157Y-119061771D01*
X152250468Y-119043920D01*
X152280617Y-119060120D01*
X152294590Y-119070277D01*
X152444355Y-119151615D01*
X152613341Y-119195992D01*
X152785184Y-119200305D01*
X152884265Y-119181983D01*
X152980809Y-119135824D01*
X153082655Y-119056397D01*
X153176215Y-118957589D01*
X153247902Y-118853288D01*
X153279687Y-118777816D01*
X153301782Y-118606159D01*
X153300850Y-118599563D01*
X153125634Y-118599563D01*
X153109166Y-118725694D01*
X153064391Y-118835720D01*
X153053678Y-118851932D01*
X152956049Y-118947803D01*
X152831272Y-119009483D01*
X152692796Y-119033317D01*
X152554069Y-119015653D01*
X152509675Y-118999733D01*
X152395648Y-118925606D01*
X152310982Y-118811809D01*
X152275587Y-118729893D01*
X152250227Y-118616833D01*
X152260901Y-118508671D01*
X152309685Y-118388980D01*
X152321405Y-118367230D01*
X152396614Y-118276469D01*
X152502498Y-118205498D01*
X152621863Y-118162836D01*
X152737517Y-118157003D01*
X152743712Y-118157968D01*
X152883828Y-118206345D01*
X153006537Y-118297188D01*
X153070911Y-118374764D01*
X153113110Y-118476271D01*
X153125634Y-118599563D01*
X153300850Y-118599563D01*
X153278148Y-118438976D01*
X153212363Y-118285606D01*
X153108004Y-118155389D01*
X153013461Y-118082731D01*
X152944125Y-118043242D01*
X152882751Y-118020118D01*
X152811077Y-118009100D01*
X152710844Y-118005928D01*
X152683932Y-118005860D01*
X152574869Y-118007961D01*
X152499296Y-118016832D01*
X152439991Y-118036320D01*
X152379726Y-118070274D01*
X152371295Y-118075710D01*
X152307309Y-118115746D01*
X152262307Y-118141016D01*
X152250645Y-118145560D01*
X152245643Y-118121764D01*
X152241510Y-118056787D01*
X152238647Y-117960249D01*
X152237453Y-117841765D01*
X152237440Y-117828060D01*
X152237440Y-117510560D01*
X152084356Y-117510560D01*
X152097740Y-119199660D01*
G36*
X153487931Y-118596410D02*
X153494740Y-119199660D01*
X153570940Y-119199660D01*
X153624805Y-119193010D01*
X153648084Y-119162494D01*
X153654968Y-119118878D01*
X153662795Y-119038096D01*
X153753228Y-119099465D01*
X153909715Y-119177411D01*
X154076348Y-119209146D01*
X154243659Y-119193345D01*
X154301242Y-119176120D01*
X154456264Y-119095859D01*
X154576400Y-118980813D01*
X154658018Y-118836241D01*
X154697491Y-118667404D01*
X154699120Y-118631594D01*
X154543785Y-118631594D01*
X154510716Y-118746421D01*
X154509528Y-118749279D01*
X154431315Y-118878721D01*
X154324995Y-118971578D01*
X154199150Y-119024771D01*
X154062363Y-119035220D01*
X153923217Y-118999847D01*
X153876258Y-118976474D01*
X153769017Y-118889176D01*
X153697834Y-118775988D01*
X153663713Y-118647694D01*
X153667662Y-118515077D01*
X153710686Y-118388922D01*
X153793792Y-118280013D01*
X153809942Y-118265692D01*
X153935162Y-118189871D01*
X154069805Y-118158450D01*
X154204177Y-118169444D01*
X154328581Y-118220869D01*
X154433321Y-118310740D01*
X154494963Y-118405903D01*
X154538814Y-118524686D01*
X154543785Y-118631594D01*
X154699120Y-118631594D01*
X154700683Y-118597254D01*
X154677817Y-118418418D01*
X154613554Y-118265055D01*
X154512403Y-118141686D01*
X154378874Y-118052834D01*
X154217475Y-118003018D01*
X154098806Y-117993717D01*
X153992859Y-118003534D01*
X153886538Y-118028795D01*
X153795351Y-118064367D01*
X153734806Y-118105112D01*
X153724975Y-118117515D01*
X153693763Y-118145319D01*
X153669628Y-118127698D01*
X153659841Y-118070027D01*
X153659840Y-118069360D01*
X153654925Y-118018255D01*
X153629928Y-117997225D01*
X153570481Y-117993160D01*
X153481121Y-117993160D01*
X153487931Y-118596410D01*
X153487931Y-118596410D01*
G37*
X153487931Y-118596410D02*
X153494740Y-119199660D01*
X153570940Y-119199660D01*
X153624805Y-119193010D01*
X153648084Y-119162494D01*
X153654968Y-119118878D01*
X153662795Y-119038096D01*
X153753228Y-119099465D01*
X153909715Y-119177411D01*
X154076348Y-119209146D01*
X154243659Y-119193345D01*
X154301242Y-119176120D01*
X154456264Y-119095859D01*
X154576400Y-118980813D01*
X154658018Y-118836241D01*
X154697491Y-118667404D01*
X154699120Y-118631594D01*
X154543785Y-118631594D01*
X154510716Y-118746421D01*
X154509528Y-118749279D01*
X154431315Y-118878721D01*
X154324995Y-118971578D01*
X154199150Y-119024771D01*
X154062363Y-119035220D01*
X153923217Y-118999847D01*
X153876258Y-118976474D01*
X153769017Y-118889176D01*
X153697834Y-118775988D01*
X153663713Y-118647694D01*
X153667662Y-118515077D01*
X153710686Y-118388922D01*
X153793792Y-118280013D01*
X153809942Y-118265692D01*
X153935162Y-118189871D01*
X154069805Y-118158450D01*
X154204177Y-118169444D01*
X154328581Y-118220869D01*
X154433321Y-118310740D01*
X154494963Y-118405903D01*
X154538814Y-118524686D01*
X154543785Y-118631594D01*
X154699120Y-118631594D01*
X154700683Y-118597254D01*
X154677817Y-118418418D01*
X154613554Y-118265055D01*
X154512403Y-118141686D01*
X154378874Y-118052834D01*
X154217475Y-118003018D01*
X154098806Y-117993717D01*
X153992859Y-118003534D01*
X153886538Y-118028795D01*
X153795351Y-118064367D01*
X153734806Y-118105112D01*
X153724975Y-118117515D01*
X153693763Y-118145319D01*
X153669628Y-118127698D01*
X153659841Y-118070027D01*
X153659840Y-118069360D01*
X153654925Y-118018255D01*
X153629928Y-117997225D01*
X153570481Y-117993160D01*
X153481121Y-117993160D01*
X153487931Y-118596410D01*
G36*
X154974290Y-117515300D02*
X154891740Y-117523260D01*
X154891740Y-119199660D01*
X154967940Y-119199660D01*
X155021854Y-119192986D01*
X155045122Y-119162391D01*
X155051954Y-119119068D01*
X155059767Y-119038477D01*
X155182689Y-119114890D01*
X155300335Y-119168350D01*
X155436029Y-119200029D01*
X155569355Y-119206753D01*
X155666605Y-119190139D01*
X155832686Y-119112276D01*
X155963678Y-119002433D01*
X156056256Y-118866667D01*
X156107092Y-118711037D01*
X156112229Y-118560142D01*
X155939567Y-118560142D01*
X155928423Y-118702181D01*
X155876939Y-118826035D01*
X155793120Y-118926212D01*
X155684971Y-118997223D01*
X155560499Y-119033577D01*
X155427708Y-119029785D01*
X155312647Y-118990070D01*
X155242053Y-118941671D01*
X155169534Y-118873603D01*
X155147970Y-118848575D01*
X155101369Y-118781963D01*
X155078093Y-118718502D01*
X155070653Y-118634660D01*
X155070387Y-118604780D01*
X155090367Y-118462193D01*
X155145193Y-118346727D01*
X155227196Y-118258778D01*
X155328706Y-118198738D01*
X155442053Y-118167003D01*
X155559568Y-118163965D01*
X155673580Y-118190019D01*
X155776421Y-118245558D01*
X155860420Y-118330977D01*
X155917907Y-118446669D01*
X155939567Y-118560142D01*
X156112229Y-118560142D01*
X156112861Y-118541600D01*
X156089083Y-118420687D01*
X156024154Y-118280401D01*
X155921294Y-118155562D01*
X155793348Y-118060055D01*
X155726338Y-118028534D01*
X155588551Y-117997079D01*
X155438074Y-117997017D01*
X155294299Y-118026616D01*
X155187346Y-118076725D01*
X155124553Y-118116644D01*
X155080721Y-118141485D01*
X155070085Y-118145560D01*
X155065079Y-118121759D01*
X155060940Y-118056755D01*
X155058066Y-117960139D01*
X155056855Y-117841506D01*
X155056840Y-117826450D01*
X155056840Y-117507341D01*
X154974290Y-117515300D01*
X154974290Y-117515300D01*
G37*
X154974290Y-117515300D02*
X154891740Y-117523260D01*
X154891740Y-119199660D01*
X154967940Y-119199660D01*
X155021854Y-119192986D01*
X155045122Y-119162391D01*
X155051954Y-119119068D01*
X155059767Y-119038477D01*
X155182689Y-119114890D01*
X155300335Y-119168350D01*
X155436029Y-119200029D01*
X155569355Y-119206753D01*
X155666605Y-119190139D01*
X155832686Y-119112276D01*
X155963678Y-119002433D01*
X156056256Y-118866667D01*
X156107092Y-118711037D01*
X156112229Y-118560142D01*
X155939567Y-118560142D01*
X155928423Y-118702181D01*
X155876939Y-118826035D01*
X155793120Y-118926212D01*
X155684971Y-118997223D01*
X155560499Y-119033577D01*
X155427708Y-119029785D01*
X155312647Y-118990070D01*
X155242053Y-118941671D01*
X155169534Y-118873603D01*
X155147970Y-118848575D01*
X155101369Y-118781963D01*
X155078093Y-118718502D01*
X155070653Y-118634660D01*
X155070387Y-118604780D01*
X155090367Y-118462193D01*
X155145193Y-118346727D01*
X155227196Y-118258778D01*
X155328706Y-118198738D01*
X155442053Y-118167003D01*
X155559568Y-118163965D01*
X155673580Y-118190019D01*
X155776421Y-118245558D01*
X155860420Y-118330977D01*
X155917907Y-118446669D01*
X155939567Y-118560142D01*
X156112229Y-118560142D01*
X156112861Y-118541600D01*
X156089083Y-118420687D01*
X156024154Y-118280401D01*
X155921294Y-118155562D01*
X155793348Y-118060055D01*
X155726338Y-118028534D01*
X155588551Y-117997079D01*
X155438074Y-117997017D01*
X155294299Y-118026616D01*
X155187346Y-118076725D01*
X155124553Y-118116644D01*
X155080721Y-118141485D01*
X155070085Y-118145560D01*
X155065079Y-118121759D01*
X155060940Y-118056755D01*
X155058066Y-117960139D01*
X155056855Y-117841506D01*
X155056840Y-117826450D01*
X155056840Y-117507341D01*
X154974290Y-117515300D01*
G36*
X156301440Y-119212360D02*
X156479240Y-119212360D01*
X156479240Y-117993160D01*
X156301440Y-117993160D01*
X156301440Y-119212360D01*
X156301440Y-119212360D01*
G37*
X156301440Y-119212360D02*
X156479240Y-119212360D01*
X156479240Y-117993160D01*
X156301440Y-117993160D01*
X156301440Y-119212360D01*
G36*
X156922498Y-118013028D02*
X156822660Y-118073858D01*
X156772964Y-118133946D01*
X156748163Y-118179774D01*
X156758387Y-118208843D01*
X156794834Y-118235546D01*
X156842479Y-118261158D01*
X156876529Y-118253194D01*
X156908630Y-118224170D01*
X156993617Y-118166631D01*
X157082410Y-118154915D01*
X157152526Y-118181445D01*
X157205056Y-118231705D01*
X157213024Y-118286192D01*
X157175235Y-118346738D01*
X157090495Y-118415177D01*
X156957611Y-118493342D01*
X156945000Y-118500000D01*
X156821690Y-118571573D01*
X156739481Y-118638500D01*
X156690472Y-118709535D01*
X156666763Y-118793429D01*
X156664556Y-118810728D01*
X156676106Y-118930996D01*
X156735774Y-119044070D01*
X156838289Y-119142967D01*
X156924694Y-119182655D01*
X157036718Y-119201826D01*
X157152466Y-119197930D01*
X157206910Y-119185924D01*
X157262840Y-119156607D01*
X157328136Y-119105890D01*
X157389128Y-119046739D01*
X157432149Y-118992123D01*
X157444440Y-118960557D01*
X157423532Y-118936886D01*
X157373105Y-118909578D01*
X157371801Y-118909034D01*
X157322270Y-118893652D01*
X157283577Y-118902651D01*
X157235985Y-118942293D01*
X157221355Y-118956753D01*
X157130049Y-119019443D01*
X157033456Y-119036376D01*
X156941325Y-119007088D01*
X156897186Y-118972214D01*
X156846963Y-118909342D01*
X156832576Y-118851843D01*
X156856803Y-118794752D01*
X156922424Y-118733104D01*
X157032218Y-118661936D01*
X157088840Y-118629849D01*
X157221303Y-118551028D01*
X157311704Y-118481968D01*
X157366129Y-118416240D01*
X157390669Y-118347414D01*
X157393640Y-118307982D01*
X157372335Y-118182377D01*
X157310952Y-118085866D01*
X157213293Y-118021942D01*
X157083157Y-117994097D01*
X157051108Y-117993160D01*
X156922498Y-118013028D01*
X156922498Y-118013028D01*
G37*
X156922498Y-118013028D02*
X156822660Y-118073858D01*
X156772964Y-118133946D01*
X156748163Y-118179774D01*
X156758387Y-118208843D01*
X156794834Y-118235546D01*
X156842479Y-118261158D01*
X156876529Y-118253194D01*
X156908630Y-118224170D01*
X156993617Y-118166631D01*
X157082410Y-118154915D01*
X157152526Y-118181445D01*
X157205056Y-118231705D01*
X157213024Y-118286192D01*
X157175235Y-118346738D01*
X157090495Y-118415177D01*
X156957611Y-118493342D01*
X156945000Y-118500000D01*
X156821690Y-118571573D01*
X156739481Y-118638500D01*
X156690472Y-118709535D01*
X156666763Y-118793429D01*
X156664556Y-118810728D01*
X156676106Y-118930996D01*
X156735774Y-119044070D01*
X156838289Y-119142967D01*
X156924694Y-119182655D01*
X157036718Y-119201826D01*
X157152466Y-119197930D01*
X157206910Y-119185924D01*
X157262840Y-119156607D01*
X157328136Y-119105890D01*
X157389128Y-119046739D01*
X157432149Y-118992123D01*
X157444440Y-118960557D01*
X157423532Y-118936886D01*
X157373105Y-118909578D01*
X157371801Y-118909034D01*
X157322270Y-118893652D01*
X157283577Y-118902651D01*
X157235985Y-118942293D01*
X157221355Y-118956753D01*
X157130049Y-119019443D01*
X157033456Y-119036376D01*
X156941325Y-119007088D01*
X156897186Y-118972214D01*
X156846963Y-118909342D01*
X156832576Y-118851843D01*
X156856803Y-118794752D01*
X156922424Y-118733104D01*
X157032218Y-118661936D01*
X157088840Y-118629849D01*
X157221303Y-118551028D01*
X157311704Y-118481968D01*
X157366129Y-118416240D01*
X157390669Y-118347414D01*
X157393640Y-118307982D01*
X157372335Y-118182377D01*
X157310952Y-118085866D01*
X157213293Y-118021942D01*
X157083157Y-117994097D01*
X157051108Y-117993160D01*
X156922498Y-118013028D01*
G36*
X158019048Y-118004852D02*
X157998178Y-118044592D01*
X158000233Y-118075710D01*
X157991809Y-118092890D01*
X157953445Y-118085408D01*
X157879265Y-118051899D01*
X157863540Y-118043960D01*
X157771391Y-118010661D01*
X157671980Y-117993706D01*
X157654970Y-117993160D01*
X157586897Y-117995353D01*
X157555464Y-118009637D01*
X157546511Y-118047566D01*
X157546040Y-118082060D01*
X157546040Y-118170960D01*
X157671232Y-118170960D01*
X157757105Y-118176755D01*
X157819596Y-118201216D01*
X157885477Y-118254951D01*
X157887132Y-118256509D01*
X157935518Y-118305575D01*
X157963100Y-118349482D01*
X157976163Y-118405549D01*
X157980992Y-118491095D01*
X157981601Y-118516859D01*
X157984232Y-118610908D01*
X157987475Y-118687724D01*
X157990540Y-118729760D01*
X157993304Y-118771428D01*
X157996197Y-118849619D01*
X157998730Y-118950061D01*
X157999480Y-118990110D01*
X158003240Y-119212360D01*
X158155640Y-119212360D01*
X158155640Y-117993160D01*
X158079440Y-117993160D01*
X158019048Y-118004852D01*
X158019048Y-118004852D01*
G37*
X158019048Y-118004852D02*
X157998178Y-118044592D01*
X158000233Y-118075710D01*
X157991809Y-118092890D01*
X157953445Y-118085408D01*
X157879265Y-118051899D01*
X157863540Y-118043960D01*
X157771391Y-118010661D01*
X157671980Y-117993706D01*
X157654970Y-117993160D01*
X157586897Y-117995353D01*
X157555464Y-118009637D01*
X157546511Y-118047566D01*
X157546040Y-118082060D01*
X157546040Y-118170960D01*
X157671232Y-118170960D01*
X157757105Y-118176755D01*
X157819596Y-118201216D01*
X157885477Y-118254951D01*
X157887132Y-118256509D01*
X157935518Y-118305575D01*
X157963100Y-118349482D01*
X157976163Y-118405549D01*
X157980992Y-118491095D01*
X157981601Y-118516859D01*
X157984232Y-118610908D01*
X157987475Y-118687724D01*
X157990540Y-118729760D01*
X157993304Y-118771428D01*
X157996197Y-118849619D01*
X157998730Y-118950061D01*
X157999480Y-118990110D01*
X158003240Y-119212360D01*
X158155640Y-119212360D01*
X158155640Y-117993160D01*
X158079440Y-117993160D01*
X158019048Y-118004852D01*
G36*
X158816455Y-118013270D02*
X158698768Y-118054174D01*
X158565034Y-118142287D01*
X158458843Y-118263907D01*
X158387691Y-118407514D01*
X158359074Y-118561589D01*
X158358840Y-118576544D01*
X158358840Y-118678960D01*
X158879540Y-118678960D01*
X159083564Y-118680258D01*
X159237201Y-118684148D01*
X159340353Y-118690627D01*
X159392921Y-118699688D01*
X159400240Y-118705621D01*
X159381589Y-118769445D01*
X159333174Y-118846684D01*
X159266309Y-118920861D01*
X159233335Y-118948759D01*
X159111357Y-119011519D01*
X158973081Y-119032829D01*
X158833083Y-119011582D01*
X158766278Y-118984289D01*
X158699795Y-118951785D01*
X158661166Y-118941838D01*
X158633022Y-118953869D01*
X158606362Y-118978949D01*
X158574525Y-119022400D01*
X158579343Y-119060259D01*
X158624979Y-119100109D01*
X158694005Y-119138692D01*
X158822940Y-119183100D01*
X158971438Y-119201791D01*
X159113872Y-119192256D01*
X159151620Y-119183507D01*
X159247201Y-119138828D01*
X159350192Y-119062905D01*
X159444918Y-118969747D01*
X159515705Y-118873364D01*
X159530327Y-118845043D01*
X159570362Y-118700236D01*
X159571831Y-118541063D01*
X159560077Y-118487198D01*
X159400240Y-118487198D01*
X159376216Y-118491780D01*
X159309640Y-118495730D01*
X159208759Y-118498781D01*
X159081822Y-118500668D01*
X158968440Y-118501160D01*
X158826739Y-118500383D01*
X158704574Y-118498230D01*
X158610192Y-118494968D01*
X158551840Y-118490864D01*
X158536640Y-118487198D01*
X158552339Y-118440962D01*
X158591827Y-118375391D01*
X158643695Y-118307781D01*
X158680423Y-118269273D01*
X158798459Y-118191085D01*
X158929969Y-118155958D01*
X159063753Y-118164209D01*
X159188610Y-118216153D01*
X159238492Y-118253510D01*
X159300251Y-118317196D01*
X159354886Y-118389388D01*
X159391381Y-118454169D01*
X159400240Y-118487198D01*
X159560077Y-118487198D01*
X159537325Y-118382939D01*
X159469434Y-118241278D01*
X159417714Y-118174795D01*
X159294215Y-118077718D01*
X159145093Y-118017138D01*
X158981966Y-117995006D01*
X158816455Y-118013270D01*
X158816455Y-118013270D01*
G37*
X158816455Y-118013270D02*
X158698768Y-118054174D01*
X158565034Y-118142287D01*
X158458843Y-118263907D01*
X158387691Y-118407514D01*
X158359074Y-118561589D01*
X158358840Y-118576544D01*
X158358840Y-118678960D01*
X158879540Y-118678960D01*
X159083564Y-118680258D01*
X159237201Y-118684148D01*
X159340353Y-118690627D01*
X159392921Y-118699688D01*
X159400240Y-118705621D01*
X159381589Y-118769445D01*
X159333174Y-118846684D01*
X159266309Y-118920861D01*
X159233335Y-118948759D01*
X159111357Y-119011519D01*
X158973081Y-119032829D01*
X158833083Y-119011582D01*
X158766278Y-118984289D01*
X158699795Y-118951785D01*
X158661166Y-118941838D01*
X158633022Y-118953869D01*
X158606362Y-118978949D01*
X158574525Y-119022400D01*
X158579343Y-119060259D01*
X158624979Y-119100109D01*
X158694005Y-119138692D01*
X158822940Y-119183100D01*
X158971438Y-119201791D01*
X159113872Y-119192256D01*
X159151620Y-119183507D01*
X159247201Y-119138828D01*
X159350192Y-119062905D01*
X159444918Y-118969747D01*
X159515705Y-118873364D01*
X159530327Y-118845043D01*
X159570362Y-118700236D01*
X159571831Y-118541063D01*
X159560077Y-118487198D01*
X159400240Y-118487198D01*
X159376216Y-118491780D01*
X159309640Y-118495730D01*
X159208759Y-118498781D01*
X159081822Y-118500668D01*
X158968440Y-118501160D01*
X158826739Y-118500383D01*
X158704574Y-118498230D01*
X158610192Y-118494968D01*
X158551840Y-118490864D01*
X158536640Y-118487198D01*
X158552339Y-118440962D01*
X158591827Y-118375391D01*
X158643695Y-118307781D01*
X158680423Y-118269273D01*
X158798459Y-118191085D01*
X158929969Y-118155958D01*
X159063753Y-118164209D01*
X159188610Y-118216153D01*
X159238492Y-118253510D01*
X159300251Y-118317196D01*
X159354886Y-118389388D01*
X159391381Y-118454169D01*
X159400240Y-118487198D01*
X159560077Y-118487198D01*
X159537325Y-118382939D01*
X159469434Y-118241278D01*
X159417714Y-118174795D01*
X159294215Y-118077718D01*
X159145093Y-118017138D01*
X158981966Y-117995006D01*
X158816455Y-118013270D01*
G36*
X161000440Y-119212360D02*
X161152840Y-119212360D01*
X161152840Y-117993160D01*
X161000440Y-117993160D01*
X161000440Y-119212360D01*
X161000440Y-119212360D01*
G37*
X161000440Y-119212360D02*
X161152840Y-119212360D01*
X161152840Y-117993160D01*
X161000440Y-117993160D01*
X161000440Y-119212360D01*
G36*
X162196469Y-117998842D02*
X162171746Y-118021026D01*
X162168840Y-118043960D01*
X162168087Y-118076404D01*
X162158508Y-118089880D01*
X162129122Y-118084149D01*
X162068951Y-118058974D01*
X162028180Y-118040918D01*
X161878797Y-118000333D01*
X161731821Y-118007925D01*
X161595133Y-118061366D01*
X161476618Y-118158330D01*
X161429950Y-118217525D01*
X161407929Y-118252185D01*
X161391716Y-118288041D01*
X161380232Y-118333507D01*
X161372396Y-118397002D01*
X161367125Y-118486942D01*
X161363340Y-118611744D01*
X161360334Y-118759565D01*
X161351927Y-119212360D01*
X161533840Y-119212360D01*
X161533840Y-118804698D01*
X161535444Y-118625794D01*
X161541521Y-118490155D01*
X161553975Y-118390310D01*
X161574708Y-118318789D01*
X161605622Y-118268123D01*
X161648620Y-118230842D01*
X161685409Y-118209489D01*
X161783480Y-118179137D01*
X161894173Y-118174589D01*
X161992525Y-118196165D01*
X162011621Y-118205322D01*
X162067082Y-118249798D01*
X162118841Y-118311522D01*
X162119403Y-118312372D01*
X162138017Y-118345736D01*
X162151300Y-118386166D01*
X162160130Y-118442332D01*
X162165383Y-118522907D01*
X162167937Y-118636563D01*
X162168669Y-118791972D01*
X162168673Y-118799610D01*
X162168840Y-119212360D01*
X162346640Y-119212360D01*
X162346640Y-117993160D01*
X162257740Y-117993160D01*
X162196469Y-117998842D01*
X162196469Y-117998842D01*
G37*
X162196469Y-117998842D02*
X162171746Y-118021026D01*
X162168840Y-118043960D01*
X162168087Y-118076404D01*
X162158508Y-118089880D01*
X162129122Y-118084149D01*
X162068951Y-118058974D01*
X162028180Y-118040918D01*
X161878797Y-118000333D01*
X161731821Y-118007925D01*
X161595133Y-118061366D01*
X161476618Y-118158330D01*
X161429950Y-118217525D01*
X161407929Y-118252185D01*
X161391716Y-118288041D01*
X161380232Y-118333507D01*
X161372396Y-118397002D01*
X161367125Y-118486942D01*
X161363340Y-118611744D01*
X161360334Y-118759565D01*
X161351927Y-119212360D01*
X161533840Y-119212360D01*
X161533840Y-118804698D01*
X161535444Y-118625794D01*
X161541521Y-118490155D01*
X161553975Y-118390310D01*
X161574708Y-118318789D01*
X161605622Y-118268123D01*
X161648620Y-118230842D01*
X161685409Y-118209489D01*
X161783480Y-118179137D01*
X161894173Y-118174589D01*
X161992525Y-118196165D01*
X162011621Y-118205322D01*
X162067082Y-118249798D01*
X162118841Y-118311522D01*
X162119403Y-118312372D01*
X162138017Y-118345736D01*
X162151300Y-118386166D01*
X162160130Y-118442332D01*
X162165383Y-118522907D01*
X162167937Y-118636563D01*
X162168669Y-118791972D01*
X162168673Y-118799610D01*
X162168840Y-119212360D01*
X162346640Y-119212360D01*
X162346640Y-117993160D01*
X162257740Y-117993160D01*
X162196469Y-117998842D01*
G36*
X163718240Y-118099440D02*
X163717928Y-118284939D01*
X163716589Y-118427210D01*
X163713617Y-118533823D01*
X163708410Y-118612347D01*
X163700362Y-118670354D01*
X163688868Y-118715412D01*
X163673325Y-118755093D01*
X163664363Y-118774216D01*
X163582682Y-118894964D01*
X163472985Y-118974898D01*
X163332527Y-119015601D01*
X163235640Y-119021860D01*
X163076037Y-119003234D01*
X162948790Y-118946301D01*
X162851154Y-118849475D01*
X162806918Y-118774216D01*
X162789243Y-118734440D01*
X162775904Y-118692876D01*
X162766297Y-118641954D01*
X162759818Y-118574105D01*
X162755861Y-118481758D01*
X162753823Y-118357344D01*
X162753099Y-118193292D01*
X162753040Y-118099440D01*
X162753040Y-117535960D01*
X162575240Y-117535960D01*
X162575240Y-118077449D01*
X162576549Y-118293408D01*
X162581312Y-118465860D01*
X162590782Y-118602051D01*
X162606213Y-118709228D01*
X162628860Y-118794636D01*
X162659976Y-118865521D01*
X162700815Y-118929129D01*
X162728781Y-118964735D01*
X162860879Y-119086589D01*
X163016928Y-119166973D01*
X163188283Y-119203380D01*
X163366297Y-119193303D01*
X163446455Y-119172876D01*
X163565351Y-119114912D01*
X163685317Y-119020423D01*
X163691622Y-119014372D01*
X163751818Y-118951731D01*
X163799017Y-118889414D01*
X163834769Y-118820327D01*
X163860621Y-118737373D01*
X163878123Y-118633456D01*
X163888821Y-118501478D01*
X163894264Y-118334344D01*
X163896002Y-118124958D01*
X163896040Y-118077449D01*
X163896040Y-117535960D01*
X163718240Y-117535960D01*
X163718240Y-118099440D01*
X163718240Y-118099440D01*
G37*
X163718240Y-118099440D02*
X163717928Y-118284939D01*
X163716589Y-118427210D01*
X163713617Y-118533823D01*
X163708410Y-118612347D01*
X163700362Y-118670354D01*
X163688868Y-118715412D01*
X163673325Y-118755093D01*
X163664363Y-118774216D01*
X163582682Y-118894964D01*
X163472985Y-118974898D01*
X163332527Y-119015601D01*
X163235640Y-119021860D01*
X163076037Y-119003234D01*
X162948790Y-118946301D01*
X162851154Y-118849475D01*
X162806918Y-118774216D01*
X162789243Y-118734440D01*
X162775904Y-118692876D01*
X162766297Y-118641954D01*
X162759818Y-118574105D01*
X162755861Y-118481758D01*
X162753823Y-118357344D01*
X162753099Y-118193292D01*
X162753040Y-118099440D01*
X162753040Y-117535960D01*
X162575240Y-117535960D01*
X162575240Y-118077449D01*
X162576549Y-118293408D01*
X162581312Y-118465860D01*
X162590782Y-118602051D01*
X162606213Y-118709228D01*
X162628860Y-118794636D01*
X162659976Y-118865521D01*
X162700815Y-118929129D01*
X162728781Y-118964735D01*
X162860879Y-119086589D01*
X163016928Y-119166973D01*
X163188283Y-119203380D01*
X163366297Y-119193303D01*
X163446455Y-119172876D01*
X163565351Y-119114912D01*
X163685317Y-119020423D01*
X163691622Y-119014372D01*
X163751818Y-118951731D01*
X163799017Y-118889414D01*
X163834769Y-118820327D01*
X163860621Y-118737373D01*
X163878123Y-118633456D01*
X163888821Y-118501478D01*
X163894264Y-118334344D01*
X163896002Y-118124958D01*
X163896040Y-118077449D01*
X163896040Y-117535960D01*
X163718240Y-117535960D01*
X163718240Y-118099440D01*
G36*
X152059640Y-121955560D02*
X152568153Y-121955560D01*
X152561547Y-120793510D01*
X152554940Y-119631460D01*
X152059640Y-119616920D01*
X152059640Y-121955560D01*
X152059640Y-121955560D01*
G37*
X152059640Y-121955560D02*
X152568153Y-121955560D01*
X152561547Y-120793510D01*
X152554940Y-119631460D01*
X152059640Y-119616920D01*
X152059640Y-121955560D01*
G36*
X152974040Y-121955560D02*
X153216138Y-121955560D01*
X153343873Y-121952955D01*
X153425491Y-121944771D01*
X153465428Y-121930455D01*
X153470412Y-121923810D01*
X153472797Y-121892512D01*
X153474735Y-121815706D01*
X153476201Y-121698682D01*
X153477168Y-121546731D01*
X153477613Y-121365141D01*
X153477509Y-121159203D01*
X153476831Y-120934207D01*
X153475965Y-120761760D01*
X153469340Y-119631460D01*
X152974040Y-119616920D01*
X152974040Y-121955560D01*
X152974040Y-121955560D01*
G37*
X152974040Y-121955560D02*
X153216138Y-121955560D01*
X153343873Y-121952955D01*
X153425491Y-121944771D01*
X153465428Y-121930455D01*
X153470412Y-121923810D01*
X153472797Y-121892512D01*
X153474735Y-121815706D01*
X153476201Y-121698682D01*
X153477168Y-121546731D01*
X153477613Y-121365141D01*
X153477509Y-121159203D01*
X153476831Y-120934207D01*
X153475965Y-120761760D01*
X153469340Y-119631460D01*
X152974040Y-119616920D01*
X152974040Y-121955560D01*
G36*
X153888440Y-121955560D02*
X154371040Y-121955560D01*
X154371040Y-119618760D01*
X153888440Y-119618760D01*
X153888440Y-121955560D01*
X153888440Y-121955560D01*
G37*
X153888440Y-121955560D02*
X154371040Y-121955560D01*
X154371040Y-119618760D01*
X153888440Y-119618760D01*
X153888440Y-121955560D01*
G36*
X155570758Y-120313847D02*
X155441036Y-120347623D01*
X155329155Y-120395723D01*
X155251295Y-120452618D01*
X155249601Y-120454461D01*
X155231120Y-120481458D01*
X155234230Y-120509261D01*
X155264319Y-120549182D01*
X155323274Y-120609098D01*
X155385873Y-120668932D01*
X155424762Y-120697589D01*
X155452058Y-120699907D01*
X155479875Y-120680726D01*
X155486893Y-120674441D01*
X155543581Y-120642986D01*
X155623724Y-120620029D01*
X155650149Y-120616041D01*
X155723576Y-120611577D01*
X155767024Y-120624142D01*
X155800274Y-120660543D01*
X155806501Y-120669845D01*
X155831996Y-120732439D01*
X155818350Y-120788189D01*
X155762425Y-120840587D01*
X155661081Y-120893126D01*
X155575644Y-120926726D01*
X155404409Y-121004493D01*
X155279684Y-121096976D01*
X155198646Y-121206782D01*
X155163819Y-121306722D01*
X155150335Y-121386620D01*
X155145629Y-121450787D01*
X155146975Y-121468087D01*
X155158546Y-121525300D01*
X155170255Y-121581550D01*
X155210820Y-121671917D01*
X155288113Y-121763607D01*
X155389808Y-121844736D01*
X155503580Y-121903415D01*
X155504267Y-121903673D01*
X155640524Y-121939198D01*
X155787980Y-121952790D01*
X155923762Y-121943070D01*
X155971405Y-121931827D01*
X156127564Y-121864658D01*
X156269025Y-121767917D01*
X156295295Y-121744335D01*
X156378049Y-121665798D01*
X156272134Y-121557880D01*
X156166220Y-121449961D01*
X156092986Y-121511583D01*
X155996684Y-121573025D01*
X155891824Y-121608561D01*
X155787919Y-121619299D01*
X155694480Y-121606345D01*
X155621023Y-121570806D01*
X155577060Y-121513789D01*
X155569812Y-121450716D01*
X155578737Y-121416279D01*
X155601421Y-121385240D01*
X155644785Y-121353367D01*
X155715751Y-121316432D01*
X155821239Y-121270203D01*
X155952945Y-121216541D01*
X156095788Y-121149565D01*
X156193685Y-121078215D01*
X156252442Y-120995884D01*
X156277864Y-120895964D01*
X156279982Y-120844301D01*
X156256351Y-120676025D01*
X156191247Y-120533594D01*
X156089179Y-120421255D01*
X155954653Y-120343254D01*
X155792176Y-120303836D01*
X155702136Y-120299919D01*
X155570758Y-120313847D01*
X155570758Y-120313847D01*
G37*
X155570758Y-120313847D02*
X155441036Y-120347623D01*
X155329155Y-120395723D01*
X155251295Y-120452618D01*
X155249601Y-120454461D01*
X155231120Y-120481458D01*
X155234230Y-120509261D01*
X155264319Y-120549182D01*
X155323274Y-120609098D01*
X155385873Y-120668932D01*
X155424762Y-120697589D01*
X155452058Y-120699907D01*
X155479875Y-120680726D01*
X155486893Y-120674441D01*
X155543581Y-120642986D01*
X155623724Y-120620029D01*
X155650149Y-120616041D01*
X155723576Y-120611577D01*
X155767024Y-120624142D01*
X155800274Y-120660543D01*
X155806501Y-120669845D01*
X155831996Y-120732439D01*
X155818350Y-120788189D01*
X155762425Y-120840587D01*
X155661081Y-120893126D01*
X155575644Y-120926726D01*
X155404409Y-121004493D01*
X155279684Y-121096976D01*
X155198646Y-121206782D01*
X155163819Y-121306722D01*
X155150335Y-121386620D01*
X155145629Y-121450787D01*
X155146975Y-121468087D01*
X155158546Y-121525300D01*
X155170255Y-121581550D01*
X155210820Y-121671917D01*
X155288113Y-121763607D01*
X155389808Y-121844736D01*
X155503580Y-121903415D01*
X155504267Y-121903673D01*
X155640524Y-121939198D01*
X155787980Y-121952790D01*
X155923762Y-121943070D01*
X155971405Y-121931827D01*
X156127564Y-121864658D01*
X156269025Y-121767917D01*
X156295295Y-121744335D01*
X156378049Y-121665798D01*
X156272134Y-121557880D01*
X156166220Y-121449961D01*
X156092986Y-121511583D01*
X155996684Y-121573025D01*
X155891824Y-121608561D01*
X155787919Y-121619299D01*
X155694480Y-121606345D01*
X155621023Y-121570806D01*
X155577060Y-121513789D01*
X155569812Y-121450716D01*
X155578737Y-121416279D01*
X155601421Y-121385240D01*
X155644785Y-121353367D01*
X155715751Y-121316432D01*
X155821239Y-121270203D01*
X155952945Y-121216541D01*
X156095788Y-121149565D01*
X156193685Y-121078215D01*
X156252442Y-120995884D01*
X156277864Y-120895964D01*
X156279982Y-120844301D01*
X156256351Y-120676025D01*
X156191247Y-120533594D01*
X156089179Y-120421255D01*
X155954653Y-120343254D01*
X155792176Y-120303836D01*
X155702136Y-120299919D01*
X155570758Y-120313847D01*
G36*
X157139407Y-120318701D02*
X156968404Y-120380905D01*
X156810601Y-120481165D01*
X156672600Y-120619402D01*
X156575661Y-120766965D01*
X156546887Y-120829313D01*
X156529273Y-120894465D01*
X156520303Y-120977544D01*
X156517464Y-121093673D01*
X156517411Y-121117360D01*
X156525894Y-121289023D01*
X156555149Y-121426978D01*
X156610718Y-121545979D01*
X156698143Y-121660782D01*
X156737206Y-121702612D01*
X156872944Y-121810290D01*
X157037684Y-121890624D01*
X157216954Y-121939432D01*
X157396278Y-121952527D01*
X157534914Y-121933243D01*
X157699276Y-121867461D01*
X157852526Y-121762980D01*
X157984048Y-121630012D01*
X158083230Y-121478767D01*
X158129509Y-121361272D01*
X158152639Y-121213882D01*
X158150978Y-121118859D01*
X157774640Y-121118859D01*
X157752177Y-121262904D01*
X157690193Y-121385004D01*
X157596794Y-121479881D01*
X157480087Y-121542258D01*
X157348180Y-121566854D01*
X157209179Y-121548392D01*
X157149392Y-121525966D01*
X157066531Y-121474059D01*
X156988930Y-121403258D01*
X156971592Y-121382451D01*
X156928619Y-121317735D01*
X156906474Y-121254522D01*
X156898791Y-121170897D01*
X156898340Y-121130182D01*
X156918909Y-120973319D01*
X156978266Y-120847524D01*
X157072894Y-120756097D01*
X157199272Y-120702344D01*
X157353881Y-120689567D01*
X157366955Y-120690384D01*
X157513886Y-120723332D01*
X157633250Y-120795290D01*
X157719479Y-120900407D01*
X157767004Y-121032828D01*
X157774640Y-121118859D01*
X158150978Y-121118859D01*
X158149752Y-121048785D01*
X158122822Y-120887330D01*
X158073825Y-120750867D01*
X158072901Y-120749060D01*
X157961345Y-120581273D01*
X157823376Y-120452016D01*
X157665595Y-120361209D01*
X157494605Y-120308774D01*
X157317008Y-120294630D01*
X157139407Y-120318701D01*
X157139407Y-120318701D01*
G37*
X157139407Y-120318701D02*
X156968404Y-120380905D01*
X156810601Y-120481165D01*
X156672600Y-120619402D01*
X156575661Y-120766965D01*
X156546887Y-120829313D01*
X156529273Y-120894465D01*
X156520303Y-120977544D01*
X156517464Y-121093673D01*
X156517411Y-121117360D01*
X156525894Y-121289023D01*
X156555149Y-121426978D01*
X156610718Y-121545979D01*
X156698143Y-121660782D01*
X156737206Y-121702612D01*
X156872944Y-121810290D01*
X157037684Y-121890624D01*
X157216954Y-121939432D01*
X157396278Y-121952527D01*
X157534914Y-121933243D01*
X157699276Y-121867461D01*
X157852526Y-121762980D01*
X157984048Y-121630012D01*
X158083230Y-121478767D01*
X158129509Y-121361272D01*
X158152639Y-121213882D01*
X158150978Y-121118859D01*
X157774640Y-121118859D01*
X157752177Y-121262904D01*
X157690193Y-121385004D01*
X157596794Y-121479881D01*
X157480087Y-121542258D01*
X157348180Y-121566854D01*
X157209179Y-121548392D01*
X157149392Y-121525966D01*
X157066531Y-121474059D01*
X156988930Y-121403258D01*
X156971592Y-121382451D01*
X156928619Y-121317735D01*
X156906474Y-121254522D01*
X156898791Y-121170897D01*
X156898340Y-121130182D01*
X156918909Y-120973319D01*
X156978266Y-120847524D01*
X157072894Y-120756097D01*
X157199272Y-120702344D01*
X157353881Y-120689567D01*
X157366955Y-120690384D01*
X157513886Y-120723332D01*
X157633250Y-120795290D01*
X157719479Y-120900407D01*
X157767004Y-121032828D01*
X157774640Y-121118859D01*
X158150978Y-121118859D01*
X158149752Y-121048785D01*
X158122822Y-120887330D01*
X158073825Y-120750867D01*
X158072901Y-120749060D01*
X157961345Y-120581273D01*
X157823376Y-120452016D01*
X157665595Y-120361209D01*
X157494605Y-120308774D01*
X157317008Y-120294630D01*
X157139407Y-120318701D01*
G36*
X158409640Y-121955560D02*
X158816040Y-121955560D01*
X158816040Y-119644160D01*
X158409640Y-119644160D01*
X158409640Y-121955560D01*
X158409640Y-121955560D01*
G37*
X158409640Y-121955560D02*
X158816040Y-121955560D01*
X158816040Y-119644160D01*
X158409640Y-119644160D01*
X158409640Y-121955560D01*
G36*
X159070040Y-120731526D02*
X159169948Y-120718125D01*
X159266036Y-120723298D01*
X159357778Y-120758032D01*
X159428866Y-120813805D01*
X159460506Y-120869997D01*
X159465182Y-120912113D01*
X159469313Y-120996318D01*
X159472661Y-121113900D01*
X159474987Y-121256147D01*
X159476055Y-121414349D01*
X159476094Y-121441210D01*
X159476440Y-121955560D01*
X159908935Y-121955560D01*
X159902238Y-121123710D01*
X159895540Y-120291860D01*
X159696602Y-120284403D01*
X159595893Y-120281850D01*
X159534842Y-120284964D01*
X159502422Y-120295939D01*
X159487611Y-120316967D01*
X159484687Y-120326569D01*
X159471122Y-120358122D01*
X159443726Y-120361804D01*
X159391525Y-120342792D01*
X159315272Y-120318080D01*
X159221235Y-120296549D01*
X159190690Y-120291393D01*
X159070040Y-120273391D01*
X159070040Y-120731526D01*
X159070040Y-120731526D01*
G37*
X159070040Y-120731526D02*
X159169948Y-120718125D01*
X159266036Y-120723298D01*
X159357778Y-120758032D01*
X159428866Y-120813805D01*
X159460506Y-120869997D01*
X159465182Y-120912113D01*
X159469313Y-120996318D01*
X159472661Y-121113900D01*
X159474987Y-121256147D01*
X159476055Y-121414349D01*
X159476094Y-121441210D01*
X159476440Y-121955560D01*
X159908935Y-121955560D01*
X159902238Y-121123710D01*
X159895540Y-120291860D01*
X159696602Y-120284403D01*
X159595893Y-120281850D01*
X159534842Y-120284964D01*
X159502422Y-120295939D01*
X159487611Y-120316967D01*
X159484687Y-120326569D01*
X159471122Y-120358122D01*
X159443726Y-120361804D01*
X159391525Y-120342792D01*
X159315272Y-120318080D01*
X159221235Y-120296549D01*
X159190690Y-120291393D01*
X159070040Y-120273391D01*
X159070040Y-120731526D01*
G36*
X160288047Y-120295483D02*
X160276893Y-120302737D01*
X160268125Y-120321513D01*
X160261388Y-120356918D01*
X160256329Y-120414059D01*
X160252592Y-120498044D01*
X160249825Y-120613981D01*
X160247673Y-120766979D01*
X160245781Y-120962144D01*
X160244443Y-121124007D01*
X160237746Y-121955560D01*
X160428593Y-121955560D01*
X160526100Y-121954364D01*
X160583347Y-121948910D01*
X160610851Y-121936399D01*
X160619132Y-121914030D01*
X160619440Y-121904760D01*
X160621516Y-121873572D01*
X160634492Y-121859485D01*
X160668495Y-121862497D01*
X160733651Y-121882609D01*
X160797240Y-121904760D01*
X160988173Y-121947082D01*
X161183863Y-121945018D01*
X161349237Y-121905896D01*
X161508703Y-121833496D01*
X161634877Y-121739680D01*
X161698152Y-121672464D01*
X161809170Y-121504360D01*
X161877102Y-121320289D01*
X161900707Y-121133671D01*
X161514712Y-121133671D01*
X161489716Y-121263173D01*
X161423180Y-121386852D01*
X161364658Y-121452453D01*
X161243797Y-121536776D01*
X161112420Y-121571610D01*
X160972609Y-121556682D01*
X160872678Y-121517410D01*
X160752900Y-121432049D01*
X160670826Y-121321635D01*
X160628347Y-121195527D01*
X160627360Y-121063084D01*
X160669758Y-120933666D01*
X160735450Y-120839412D01*
X160835747Y-120748471D01*
X160940810Y-120700181D01*
X161066983Y-120688102D01*
X161113036Y-120690713D01*
X161254410Y-120724230D01*
X161368019Y-120793625D01*
X161451109Y-120890557D01*
X161500925Y-121006686D01*
X161514712Y-121133671D01*
X161900707Y-121133671D01*
X161901332Y-121128730D01*
X161881241Y-120938163D01*
X161816210Y-120757067D01*
X161770611Y-120678637D01*
X161636303Y-120517184D01*
X161478425Y-120399659D01*
X161300374Y-120326940D01*
X161105547Y-120299905D01*
X160897340Y-120319430D01*
X160679152Y-120386395D01*
X160663890Y-120392756D01*
X160629101Y-120396518D01*
X160619446Y-120359685D01*
X160619440Y-120358077D01*
X160613406Y-120326444D01*
X160587061Y-120309636D01*
X160528045Y-120302336D01*
X160486090Y-120300693D01*
X160399217Y-120298041D01*
X160326928Y-120295606D01*
X160301940Y-120294641D01*
X160288047Y-120295483D01*
X160288047Y-120295483D01*
G37*
X160288047Y-120295483D02*
X160276893Y-120302737D01*
X160268125Y-120321513D01*
X160261388Y-120356918D01*
X160256329Y-120414059D01*
X160252592Y-120498044D01*
X160249825Y-120613981D01*
X160247673Y-120766979D01*
X160245781Y-120962144D01*
X160244443Y-121124007D01*
X160237746Y-121955560D01*
X160428593Y-121955560D01*
X160526100Y-121954364D01*
X160583347Y-121948910D01*
X160610851Y-121936399D01*
X160619132Y-121914030D01*
X160619440Y-121904760D01*
X160621516Y-121873572D01*
X160634492Y-121859485D01*
X160668495Y-121862497D01*
X160733651Y-121882609D01*
X160797240Y-121904760D01*
X160988173Y-121947082D01*
X161183863Y-121945018D01*
X161349237Y-121905896D01*
X161508703Y-121833496D01*
X161634877Y-121739680D01*
X161698152Y-121672464D01*
X161809170Y-121504360D01*
X161877102Y-121320289D01*
X161900707Y-121133671D01*
X161514712Y-121133671D01*
X161489716Y-121263173D01*
X161423180Y-121386852D01*
X161364658Y-121452453D01*
X161243797Y-121536776D01*
X161112420Y-121571610D01*
X160972609Y-121556682D01*
X160872678Y-121517410D01*
X160752900Y-121432049D01*
X160670826Y-121321635D01*
X160628347Y-121195527D01*
X160627360Y-121063084D01*
X160669758Y-120933666D01*
X160735450Y-120839412D01*
X160835747Y-120748471D01*
X160940810Y-120700181D01*
X161066983Y-120688102D01*
X161113036Y-120690713D01*
X161254410Y-120724230D01*
X161368019Y-120793625D01*
X161451109Y-120890557D01*
X161500925Y-121006686D01*
X161514712Y-121133671D01*
X161900707Y-121133671D01*
X161901332Y-121128730D01*
X161881241Y-120938163D01*
X161816210Y-120757067D01*
X161770611Y-120678637D01*
X161636303Y-120517184D01*
X161478425Y-120399659D01*
X161300374Y-120326940D01*
X161105547Y-120299905D01*
X160897340Y-120319430D01*
X160679152Y-120386395D01*
X160663890Y-120392756D01*
X160629101Y-120396518D01*
X160619446Y-120359685D01*
X160619440Y-120358077D01*
X160613406Y-120326444D01*
X160587061Y-120309636D01*
X160528045Y-120302336D01*
X160486090Y-120300693D01*
X160399217Y-120298041D01*
X160326928Y-120295606D01*
X160301940Y-120294641D01*
X160288047Y-120295483D01*
G36*
X162544630Y-119654211D02*
X162379435Y-119686195D01*
X162264090Y-119724761D01*
X162194240Y-119751923D01*
X162194240Y-120313415D01*
X162251390Y-120261053D01*
X162396450Y-120160058D01*
X162557558Y-120101945D01*
X162726293Y-120085076D01*
X162894236Y-120107813D01*
X163052967Y-120168519D01*
X163194068Y-120265555D01*
X163309119Y-120397283D01*
X163354217Y-120475590D01*
X163414021Y-120649691D01*
X163429005Y-120829710D01*
X163399128Y-121004421D01*
X163356501Y-121108161D01*
X163249142Y-121262731D01*
X163109959Y-121382209D01*
X162946584Y-121461888D01*
X162766645Y-121497060D01*
X162724069Y-121498360D01*
X162617718Y-121487203D01*
X162501349Y-121457774D01*
X162392460Y-121416135D01*
X162308550Y-121368350D01*
X162282659Y-121345427D01*
X162241070Y-121307817D01*
X162214844Y-121295160D01*
X162206407Y-121318808D01*
X162200805Y-121382850D01*
X162198612Y-121476930D01*
X162199731Y-121568210D01*
X162206940Y-121841260D01*
X162346640Y-121888082D01*
X162490333Y-121922884D01*
X162655106Y-121941986D01*
X162820006Y-121944294D01*
X162964080Y-121928713D01*
X162994340Y-121921907D01*
X163215081Y-121839680D01*
X163416137Y-121713874D01*
X163590828Y-121550017D01*
X163732477Y-121353635D01*
X163773664Y-121276918D01*
X163813428Y-121190920D01*
X163838960Y-121116934D01*
X163854012Y-121037661D01*
X163862336Y-120935802D01*
X163865820Y-120852130D01*
X163867679Y-120709438D01*
X163860734Y-120599197D01*
X163843236Y-120503554D01*
X163825647Y-120441613D01*
X163731113Y-120222445D01*
X163597966Y-120032738D01*
X163431456Y-119876330D01*
X163236836Y-119757059D01*
X163019356Y-119678763D01*
X162784268Y-119645282D01*
X162734792Y-119644301D01*
X162544630Y-119654211D01*
X162544630Y-119654211D01*
G37*
X162544630Y-119654211D02*
X162379435Y-119686195D01*
X162264090Y-119724761D01*
X162194240Y-119751923D01*
X162194240Y-120313415D01*
X162251390Y-120261053D01*
X162396450Y-120160058D01*
X162557558Y-120101945D01*
X162726293Y-120085076D01*
X162894236Y-120107813D01*
X163052967Y-120168519D01*
X163194068Y-120265555D01*
X163309119Y-120397283D01*
X163354217Y-120475590D01*
X163414021Y-120649691D01*
X163429005Y-120829710D01*
X163399128Y-121004421D01*
X163356501Y-121108161D01*
X163249142Y-121262731D01*
X163109959Y-121382209D01*
X162946584Y-121461888D01*
X162766645Y-121497060D01*
X162724069Y-121498360D01*
X162617718Y-121487203D01*
X162501349Y-121457774D01*
X162392460Y-121416135D01*
X162308550Y-121368350D01*
X162282659Y-121345427D01*
X162241070Y-121307817D01*
X162214844Y-121295160D01*
X162206407Y-121318808D01*
X162200805Y-121382850D01*
X162198612Y-121476930D01*
X162199731Y-121568210D01*
X162206940Y-121841260D01*
X162346640Y-121888082D01*
X162490333Y-121922884D01*
X162655106Y-121941986D01*
X162820006Y-121944294D01*
X162964080Y-121928713D01*
X162994340Y-121921907D01*
X163215081Y-121839680D01*
X163416137Y-121713874D01*
X163590828Y-121550017D01*
X163732477Y-121353635D01*
X163773664Y-121276918D01*
X163813428Y-121190920D01*
X163838960Y-121116934D01*
X163854012Y-121037661D01*
X163862336Y-120935802D01*
X163865820Y-120852130D01*
X163867679Y-120709438D01*
X163860734Y-120599197D01*
X163843236Y-120503554D01*
X163825647Y-120441613D01*
X163731113Y-120222445D01*
X163597966Y-120032738D01*
X163431456Y-119876330D01*
X163236836Y-119757059D01*
X163019356Y-119678763D01*
X162784268Y-119645282D01*
X162734792Y-119644301D01*
X162544630Y-119654211D01*
G36*
X169448265Y-120274351D02*
X169417891Y-120284193D01*
X169408167Y-120303103D01*
X169407781Y-120310910D01*
X169401749Y-120343858D01*
X169376776Y-120352572D01*
X169322728Y-120337525D01*
X169272058Y-120317260D01*
X169144524Y-120285195D01*
X168995564Y-120280197D01*
X168846184Y-120301403D01*
X168734740Y-120339308D01*
X168653261Y-120383274D01*
X168585096Y-120429840D01*
X168559872Y-120452787D01*
X168512004Y-120506614D01*
X168416063Y-120430627D01*
X168288334Y-120345910D01*
X168157863Y-120297779D01*
X168005338Y-120279737D01*
X167965843Y-120279160D01*
X167777260Y-120300947D01*
X167614959Y-120366195D01*
X167479204Y-120474730D01*
X167370263Y-120626380D01*
X167340380Y-120685560D01*
X167323118Y-120726478D01*
X167310059Y-120769626D01*
X167300617Y-120822544D01*
X167294210Y-120892771D01*
X167290252Y-120987846D01*
X167288159Y-121115308D01*
X167287349Y-121282697D01*
X167287247Y-121371360D01*
X167286940Y-121942860D01*
X167495083Y-121950214D01*
X167703225Y-121957568D01*
X167710983Y-121410898D01*
X167718740Y-120864228D01*
X167797312Y-120785711D01*
X167899055Y-120715890D01*
X168011785Y-120690333D01*
X168124171Y-120707667D01*
X168224885Y-120766519D01*
X168291269Y-120845543D01*
X168308236Y-120877503D01*
X168320858Y-120914980D01*
X168329768Y-120965577D01*
X168335599Y-121036897D01*
X168338984Y-121136542D01*
X168340555Y-121272116D01*
X168340946Y-121442237D01*
X168341040Y-121957614D01*
X168546458Y-121950237D01*
X168751875Y-121942860D01*
X168748687Y-121469550D01*
X168748315Y-121291748D01*
X168750279Y-121156588D01*
X168755120Y-121055946D01*
X168763379Y-120981694D01*
X168775597Y-120925708D01*
X168787132Y-120892188D01*
X168851702Y-120787922D01*
X168940553Y-120719951D01*
X169043189Y-120688657D01*
X169149113Y-120694422D01*
X169247826Y-120737627D01*
X169328832Y-120818655D01*
X169358479Y-120871394D01*
X169375632Y-120914937D01*
X169388262Y-120964557D01*
X169397048Y-121028518D01*
X169402666Y-121115084D01*
X169405794Y-121232522D01*
X169407110Y-121389096D01*
X169407283Y-121466610D01*
X169407840Y-121955560D01*
X169814240Y-121955560D01*
X169814240Y-120283028D01*
X169610981Y-120274744D01*
X169509294Y-120271794D01*
X169448265Y-120274351D01*
X169448265Y-120274351D01*
G37*
X169448265Y-120274351D02*
X169417891Y-120284193D01*
X169408167Y-120303103D01*
X169407781Y-120310910D01*
X169401749Y-120343858D01*
X169376776Y-120352572D01*
X169322728Y-120337525D01*
X169272058Y-120317260D01*
X169144524Y-120285195D01*
X168995564Y-120280197D01*
X168846184Y-120301403D01*
X168734740Y-120339308D01*
X168653261Y-120383274D01*
X168585096Y-120429840D01*
X168559872Y-120452787D01*
X168512004Y-120506614D01*
X168416063Y-120430627D01*
X168288334Y-120345910D01*
X168157863Y-120297779D01*
X168005338Y-120279737D01*
X167965843Y-120279160D01*
X167777260Y-120300947D01*
X167614959Y-120366195D01*
X167479204Y-120474730D01*
X167370263Y-120626380D01*
X167340380Y-120685560D01*
X167323118Y-120726478D01*
X167310059Y-120769626D01*
X167300617Y-120822544D01*
X167294210Y-120892771D01*
X167290252Y-120987846D01*
X167288159Y-121115308D01*
X167287349Y-121282697D01*
X167287247Y-121371360D01*
X167286940Y-121942860D01*
X167495083Y-121950214D01*
X167703225Y-121957568D01*
X167710983Y-121410898D01*
X167718740Y-120864228D01*
X167797312Y-120785711D01*
X167899055Y-120715890D01*
X168011785Y-120690333D01*
X168124171Y-120707667D01*
X168224885Y-120766519D01*
X168291269Y-120845543D01*
X168308236Y-120877503D01*
X168320858Y-120914980D01*
X168329768Y-120965577D01*
X168335599Y-121036897D01*
X168338984Y-121136542D01*
X168340555Y-121272116D01*
X168340946Y-121442237D01*
X168341040Y-121957614D01*
X168546458Y-121950237D01*
X168751875Y-121942860D01*
X168748687Y-121469550D01*
X168748315Y-121291748D01*
X168750279Y-121156588D01*
X168755120Y-121055946D01*
X168763379Y-120981694D01*
X168775597Y-120925708D01*
X168787132Y-120892188D01*
X168851702Y-120787922D01*
X168940553Y-120719951D01*
X169043189Y-120688657D01*
X169149113Y-120694422D01*
X169247826Y-120737627D01*
X169328832Y-120818655D01*
X169358479Y-120871394D01*
X169375632Y-120914937D01*
X169388262Y-120964557D01*
X169397048Y-121028518D01*
X169402666Y-121115084D01*
X169405794Y-121232522D01*
X169407110Y-121389096D01*
X169407283Y-121466610D01*
X169407840Y-121955560D01*
X169814240Y-121955560D01*
X169814240Y-120283028D01*
X169610981Y-120274744D01*
X169509294Y-120271794D01*
X169448265Y-120274351D01*
G36*
X170606207Y-119637731D02*
X170505098Y-119639528D01*
X170442208Y-119642261D01*
X170423822Y-119645336D01*
X170432638Y-119672773D01*
X170456808Y-119738426D01*
X170492936Y-119833297D01*
X170537628Y-119948387D01*
X170551986Y-119984974D01*
X170597901Y-120103369D01*
X170635423Y-120203354D01*
X170661389Y-120276241D01*
X170672634Y-120313344D01*
X170672636Y-120316222D01*
X170649176Y-120331851D01*
X170595067Y-120367420D01*
X170524885Y-120413358D01*
X170421749Y-120488246D01*
X170342177Y-120567311D01*
X170271955Y-120666715D01*
X170217831Y-120762539D01*
X170187166Y-120828923D01*
X170168782Y-120896807D01*
X170159796Y-120982491D01*
X170157325Y-121102276D01*
X170157323Y-121104660D01*
X170159359Y-121223780D01*
X170167983Y-121310346D01*
X170186626Y-121382504D01*
X170218720Y-121458401D01*
X170227747Y-121477037D01*
X170332640Y-121637485D01*
X170470983Y-121769029D01*
X170633923Y-121867563D01*
X170812609Y-121928977D01*
X170998188Y-121949167D01*
X171181809Y-121924024D01*
X171187635Y-121922402D01*
X171381222Y-121843576D01*
X171545559Y-121727697D01*
X171675809Y-121580150D01*
X171767130Y-121406320D01*
X171812732Y-121226897D01*
X171827745Y-121117360D01*
X171627443Y-121117642D01*
X171427140Y-121117924D01*
X171376340Y-121250117D01*
X171302888Y-121381456D01*
X171200651Y-121472359D01*
X171073006Y-121520411D01*
X170987556Y-121527690D01*
X170836858Y-121505617D01*
X170715873Y-121442386D01*
X170625458Y-121338642D01*
X170572581Y-121216762D01*
X170560248Y-121092789D01*
X170590176Y-120967019D01*
X170655844Y-120851829D01*
X170750733Y-120759595D01*
X170838244Y-120712517D01*
X170900554Y-120698610D01*
X170992730Y-120688875D01*
X171085894Y-120685560D01*
X171173083Y-120684215D01*
X171236072Y-120680678D01*
X171261950Y-120675696D01*
X171262040Y-120675369D01*
X171253406Y-120649154D01*
X171229841Y-120584983D01*
X171194849Y-120492238D01*
X171151934Y-120380298D01*
X171147740Y-120369440D01*
X171104259Y-120256062D01*
X171068388Y-120160861D01*
X171043636Y-120093275D01*
X171033514Y-120062737D01*
X171033440Y-120062131D01*
X171057297Y-120057901D01*
X171122698Y-120054365D01*
X171220387Y-120051834D01*
X171341111Y-120050621D01*
X171376340Y-120050560D01*
X171719240Y-120050560D01*
X171719240Y-119645832D01*
X171071522Y-119638646D01*
X170896152Y-119637220D01*
X170738802Y-119636938D01*
X170606207Y-119637731D01*
X170606207Y-119637731D01*
G37*
X170606207Y-119637731D02*
X170505098Y-119639528D01*
X170442208Y-119642261D01*
X170423822Y-119645336D01*
X170432638Y-119672773D01*
X170456808Y-119738426D01*
X170492936Y-119833297D01*
X170537628Y-119948387D01*
X170551986Y-119984974D01*
X170597901Y-120103369D01*
X170635423Y-120203354D01*
X170661389Y-120276241D01*
X170672634Y-120313344D01*
X170672636Y-120316222D01*
X170649176Y-120331851D01*
X170595067Y-120367420D01*
X170524885Y-120413358D01*
X170421749Y-120488246D01*
X170342177Y-120567311D01*
X170271955Y-120666715D01*
X170217831Y-120762539D01*
X170187166Y-120828923D01*
X170168782Y-120896807D01*
X170159796Y-120982491D01*
X170157325Y-121102276D01*
X170157323Y-121104660D01*
X170159359Y-121223780D01*
X170167983Y-121310346D01*
X170186626Y-121382504D01*
X170218720Y-121458401D01*
X170227747Y-121477037D01*
X170332640Y-121637485D01*
X170470983Y-121769029D01*
X170633923Y-121867563D01*
X170812609Y-121928977D01*
X170998188Y-121949167D01*
X171181809Y-121924024D01*
X171187635Y-121922402D01*
X171381222Y-121843576D01*
X171545559Y-121727697D01*
X171675809Y-121580150D01*
X171767130Y-121406320D01*
X171812732Y-121226897D01*
X171827745Y-121117360D01*
X171627443Y-121117642D01*
X171427140Y-121117924D01*
X171376340Y-121250117D01*
X171302888Y-121381456D01*
X171200651Y-121472359D01*
X171073006Y-121520411D01*
X170987556Y-121527690D01*
X170836858Y-121505617D01*
X170715873Y-121442386D01*
X170625458Y-121338642D01*
X170572581Y-121216762D01*
X170560248Y-121092789D01*
X170590176Y-120967019D01*
X170655844Y-120851829D01*
X170750733Y-120759595D01*
X170838244Y-120712517D01*
X170900554Y-120698610D01*
X170992730Y-120688875D01*
X171085894Y-120685560D01*
X171173083Y-120684215D01*
X171236072Y-120680678D01*
X171261950Y-120675696D01*
X171262040Y-120675369D01*
X171253406Y-120649154D01*
X171229841Y-120584983D01*
X171194849Y-120492238D01*
X171151934Y-120380298D01*
X171147740Y-120369440D01*
X171104259Y-120256062D01*
X171068388Y-120160861D01*
X171043636Y-120093275D01*
X171033514Y-120062737D01*
X171033440Y-120062131D01*
X171057297Y-120057901D01*
X171122698Y-120054365D01*
X171220387Y-120051834D01*
X171341111Y-120050621D01*
X171376340Y-120050560D01*
X171719240Y-120050560D01*
X171719240Y-119645832D01*
X171071522Y-119638646D01*
X170896152Y-119637220D01*
X170738802Y-119636938D01*
X170606207Y-119637731D01*
G36*
X172335527Y-120286347D02*
X172230064Y-120303882D01*
X172100240Y-120335026D01*
X172098403Y-120478543D01*
X172096496Y-120579521D01*
X172093689Y-120676572D01*
X172092053Y-120717325D01*
X172089152Y-120778546D01*
X172087614Y-120810929D01*
X172087540Y-120812468D01*
X172108042Y-120802001D01*
X172160937Y-120775121D01*
X172212495Y-120748953D01*
X172361697Y-120696547D01*
X172505181Y-120690745D01*
X172636441Y-120730534D01*
X172748971Y-120814901D01*
X172767200Y-120835295D01*
X172842354Y-120961012D01*
X172870647Y-121098215D01*
X172851807Y-121238139D01*
X172785561Y-121372019D01*
X172783915Y-121374345D01*
X172698623Y-121453255D01*
X172583303Y-121503720D01*
X172451509Y-121523395D01*
X172316798Y-121509929D01*
X172214540Y-121472960D01*
X172151087Y-121442054D01*
X172108606Y-121424031D01*
X172101220Y-121422140D01*
X172093838Y-121444725D01*
X172091431Y-121501555D01*
X172092166Y-121530090D01*
X172095594Y-121628600D01*
X172098183Y-121734709D01*
X172098516Y-121754632D01*
X172103815Y-121829921D01*
X172122369Y-121872326D01*
X172162498Y-121899523D01*
X172167882Y-121902025D01*
X172259719Y-121928339D01*
X172380417Y-121942450D01*
X172509323Y-121943502D01*
X172625783Y-121930644D01*
X172660835Y-121922402D01*
X172854133Y-121845607D01*
X173012882Y-121733019D01*
X173140911Y-121581361D01*
X173215550Y-121447560D01*
X173265688Y-121290796D01*
X173283854Y-121114054D01*
X173269869Y-120936816D01*
X173223555Y-120778565D01*
X173221730Y-120774460D01*
X173132335Y-120627007D01*
X173007532Y-120491388D01*
X172862556Y-120383404D01*
X172824140Y-120362164D01*
X172679001Y-120309944D01*
X172509412Y-120284012D01*
X172335527Y-120286347D01*
X172335527Y-120286347D01*
G37*
X172335527Y-120286347D02*
X172230064Y-120303882D01*
X172100240Y-120335026D01*
X172098403Y-120478543D01*
X172096496Y-120579521D01*
X172093689Y-120676572D01*
X172092053Y-120717325D01*
X172089152Y-120778546D01*
X172087614Y-120810929D01*
X172087540Y-120812468D01*
X172108042Y-120802001D01*
X172160937Y-120775121D01*
X172212495Y-120748953D01*
X172361697Y-120696547D01*
X172505181Y-120690745D01*
X172636441Y-120730534D01*
X172748971Y-120814901D01*
X172767200Y-120835295D01*
X172842354Y-120961012D01*
X172870647Y-121098215D01*
X172851807Y-121238139D01*
X172785561Y-121372019D01*
X172783915Y-121374345D01*
X172698623Y-121453255D01*
X172583303Y-121503720D01*
X172451509Y-121523395D01*
X172316798Y-121509929D01*
X172214540Y-121472960D01*
X172151087Y-121442054D01*
X172108606Y-121424031D01*
X172101220Y-121422140D01*
X172093838Y-121444725D01*
X172091431Y-121501555D01*
X172092166Y-121530090D01*
X172095594Y-121628600D01*
X172098183Y-121734709D01*
X172098516Y-121754632D01*
X172103815Y-121829921D01*
X172122369Y-121872326D01*
X172162498Y-121899523D01*
X172167882Y-121902025D01*
X172259719Y-121928339D01*
X172380417Y-121942450D01*
X172509323Y-121943502D01*
X172625783Y-121930644D01*
X172660835Y-121922402D01*
X172854133Y-121845607D01*
X173012882Y-121733019D01*
X173140911Y-121581361D01*
X173215550Y-121447560D01*
X173265688Y-121290796D01*
X173283854Y-121114054D01*
X173269869Y-120936816D01*
X173223555Y-120778565D01*
X173221730Y-120774460D01*
X173132335Y-120627007D01*
X173007532Y-120491388D01*
X172862556Y-120383404D01*
X172824140Y-120362164D01*
X172679001Y-120309944D01*
X172509412Y-120284012D01*
X172335527Y-120286347D01*
G36*
X173535340Y-121460260D02*
X173604692Y-121578232D01*
X173718168Y-121725195D01*
X173861117Y-121837956D01*
X174024687Y-121913159D01*
X174200026Y-121947443D01*
X174378282Y-121937451D01*
X174479396Y-121910089D01*
X174658686Y-121822774D01*
X174800471Y-121701633D01*
X174906677Y-121544870D01*
X174933712Y-121486294D01*
X174947021Y-121443293D01*
X174957073Y-121382032D01*
X174964259Y-121295945D01*
X174968969Y-121178467D01*
X174971594Y-121023034D01*
X174972512Y-120833388D01*
X174973201Y-120271694D01*
X174774971Y-120269077D01*
X174576740Y-120266460D01*
X174564040Y-120799860D01*
X174559179Y-120982617D01*
X174553989Y-121121671D01*
X174547781Y-121224120D01*
X174539866Y-121297058D01*
X174529554Y-121347582D01*
X174516154Y-121382788D01*
X174505652Y-121400541D01*
X174424606Y-121477944D01*
X174318879Y-121519920D01*
X174202673Y-121523729D01*
X174090192Y-121486635D01*
X174082318Y-121482138D01*
X174033685Y-121449062D01*
X173996466Y-121410040D01*
X173969167Y-121358202D01*
X173950296Y-121286674D01*
X173938357Y-121188584D01*
X173931858Y-121057062D01*
X173929305Y-120885234D01*
X173929040Y-120776971D01*
X173928733Y-120624113D01*
X173927875Y-120490134D01*
X173926564Y-120382740D01*
X173924900Y-120309636D01*
X173922979Y-120278529D01*
X173922690Y-120277963D01*
X173896231Y-120275674D01*
X173831742Y-120270677D01*
X173741861Y-120263944D01*
X173717802Y-120262170D01*
X173519264Y-120247574D01*
X173535340Y-121460260D01*
X173535340Y-121460260D01*
G37*
X173535340Y-121460260D02*
X173604692Y-121578232D01*
X173718168Y-121725195D01*
X173861117Y-121837956D01*
X174024687Y-121913159D01*
X174200026Y-121947443D01*
X174378282Y-121937451D01*
X174479396Y-121910089D01*
X174658686Y-121822774D01*
X174800471Y-121701633D01*
X174906677Y-121544870D01*
X174933712Y-121486294D01*
X174947021Y-121443293D01*
X174957073Y-121382032D01*
X174964259Y-121295945D01*
X174968969Y-121178467D01*
X174971594Y-121023034D01*
X174972512Y-120833388D01*
X174973201Y-120271694D01*
X174774971Y-120269077D01*
X174576740Y-120266460D01*
X174564040Y-120799860D01*
X174559179Y-120982617D01*
X174553989Y-121121671D01*
X174547781Y-121224120D01*
X174539866Y-121297058D01*
X174529554Y-121347582D01*
X174516154Y-121382788D01*
X174505652Y-121400541D01*
X174424606Y-121477944D01*
X174318879Y-121519920D01*
X174202673Y-121523729D01*
X174090192Y-121486635D01*
X174082318Y-121482138D01*
X174033685Y-121449062D01*
X173996466Y-121410040D01*
X173969167Y-121358202D01*
X173950296Y-121286674D01*
X173938357Y-121188584D01*
X173931858Y-121057062D01*
X173929305Y-120885234D01*
X173929040Y-120776971D01*
X173928733Y-120624113D01*
X173927875Y-120490134D01*
X173926564Y-120382740D01*
X173924900Y-120309636D01*
X173922979Y-120278529D01*
X173922690Y-120277963D01*
X173896231Y-120275674D01*
X173831742Y-120270677D01*
X173741861Y-120263944D01*
X173717802Y-120262170D01*
X173519264Y-120247574D01*
X173535340Y-121460260D01*
G36*
X153654012Y-122608352D02*
X153605768Y-122643940D01*
X153598566Y-122657419D01*
X153599949Y-122707261D01*
X153625941Y-122764397D01*
X153664238Y-122807674D01*
X153692176Y-122818387D01*
X153739158Y-122805690D01*
X153767790Y-122791725D01*
X153803878Y-122745332D01*
X153809208Y-122681586D01*
X153782878Y-122624240D01*
X153774470Y-122616233D01*
X153718493Y-122597185D01*
X153654012Y-122608352D01*
X153654012Y-122608352D01*
G37*
X153654012Y-122608352D02*
X153605768Y-122643940D01*
X153598566Y-122657419D01*
X153599949Y-122707261D01*
X153625941Y-122764397D01*
X153664238Y-122807674D01*
X153692176Y-122818387D01*
X153739158Y-122805690D01*
X153767790Y-122791725D01*
X153803878Y-122745332D01*
X153809208Y-122681586D01*
X153782878Y-122624240D01*
X153774470Y-122616233D01*
X153718493Y-122597185D01*
X153654012Y-122608352D01*
G36*
X152085040Y-124266960D02*
X152161240Y-124266960D01*
X152215213Y-124260666D01*
X152235106Y-124230978D01*
X152237440Y-124190760D01*
X152239283Y-124137317D01*
X152243720Y-124114882D01*
X152243790Y-124114881D01*
X152267853Y-124125612D01*
X152324697Y-124153396D01*
X152399770Y-124191081D01*
X152571805Y-124254096D01*
X152741186Y-124266603D01*
X152910131Y-124228662D01*
X152964313Y-124205945D01*
X153100740Y-124115876D01*
X153207468Y-123991591D01*
X153277585Y-123843882D01*
X153304177Y-123683538D01*
X153304240Y-123675400D01*
X153303478Y-123669712D01*
X153130985Y-123669712D01*
X153108803Y-123803024D01*
X153044838Y-123924916D01*
X152995322Y-123979842D01*
X152926751Y-124030323D01*
X152841124Y-124076035D01*
X152759823Y-124106602D01*
X152720040Y-124113424D01*
X152672201Y-124107448D01*
X152600819Y-124091546D01*
X152580913Y-124086229D01*
X152501330Y-124050504D01*
X152417653Y-123992852D01*
X152386504Y-123964800D01*
X152298031Y-123844704D01*
X152255888Y-123713510D01*
X152259322Y-123579184D01*
X152307577Y-123449693D01*
X152399897Y-123333005D01*
X152450423Y-123290629D01*
X152505752Y-123259639D01*
X152576796Y-123243386D01*
X152680054Y-123238293D01*
X152692130Y-123238260D01*
X152792257Y-123241331D01*
X152860859Y-123253878D01*
X152917017Y-123280894D01*
X152953393Y-123306676D01*
X153052623Y-123410996D01*
X153112039Y-123535522D01*
X153130985Y-123669712D01*
X153303478Y-123669712D01*
X153281436Y-123505181D01*
X153217493Y-123354332D01*
X153119122Y-123228327D01*
X152993030Y-123132644D01*
X152845927Y-123072757D01*
X152684520Y-123054144D01*
X152562109Y-123069627D01*
X152467358Y-123100233D01*
X152378946Y-123142734D01*
X152348608Y-123162726D01*
X152293669Y-123202180D01*
X152257015Y-123224021D01*
X152251835Y-123225560D01*
X152246382Y-123201764D01*
X152241877Y-123136788D01*
X152238755Y-123040250D01*
X152237454Y-122921767D01*
X152237440Y-122908060D01*
X152237440Y-122590560D01*
X152085040Y-122590560D01*
X152085040Y-124266960D01*
X152085040Y-124266960D01*
G37*
X152085040Y-124266960D02*
X152161240Y-124266960D01*
X152215213Y-124260666D01*
X152235106Y-124230978D01*
X152237440Y-124190760D01*
X152239283Y-124137317D01*
X152243720Y-124114882D01*
X152243790Y-124114881D01*
X152267853Y-124125612D01*
X152324697Y-124153396D01*
X152399770Y-124191081D01*
X152571805Y-124254096D01*
X152741186Y-124266603D01*
X152910131Y-124228662D01*
X152964313Y-124205945D01*
X153100740Y-124115876D01*
X153207468Y-123991591D01*
X153277585Y-123843882D01*
X153304177Y-123683538D01*
X153304240Y-123675400D01*
X153303478Y-123669712D01*
X153130985Y-123669712D01*
X153108803Y-123803024D01*
X153044838Y-123924916D01*
X152995322Y-123979842D01*
X152926751Y-124030323D01*
X152841124Y-124076035D01*
X152759823Y-124106602D01*
X152720040Y-124113424D01*
X152672201Y-124107448D01*
X152600819Y-124091546D01*
X152580913Y-124086229D01*
X152501330Y-124050504D01*
X152417653Y-123992852D01*
X152386504Y-123964800D01*
X152298031Y-123844704D01*
X152255888Y-123713510D01*
X152259322Y-123579184D01*
X152307577Y-123449693D01*
X152399897Y-123333005D01*
X152450423Y-123290629D01*
X152505752Y-123259639D01*
X152576796Y-123243386D01*
X152680054Y-123238293D01*
X152692130Y-123238260D01*
X152792257Y-123241331D01*
X152860859Y-123253878D01*
X152917017Y-123280894D01*
X152953393Y-123306676D01*
X153052623Y-123410996D01*
X153112039Y-123535522D01*
X153130985Y-123669712D01*
X153303478Y-123669712D01*
X153281436Y-123505181D01*
X153217493Y-123354332D01*
X153119122Y-123228327D01*
X152993030Y-123132644D01*
X152845927Y-123072757D01*
X152684520Y-123054144D01*
X152562109Y-123069627D01*
X152467358Y-123100233D01*
X152378946Y-123142734D01*
X152348608Y-123162726D01*
X152293669Y-123202180D01*
X152257015Y-123224021D01*
X152251835Y-123225560D01*
X152246382Y-123201764D01*
X152241877Y-123136788D01*
X152238755Y-123040250D01*
X152237454Y-122921767D01*
X152237440Y-122908060D01*
X152237440Y-122590560D01*
X152085040Y-122590560D01*
X152085040Y-124266960D01*
G36*
X153634440Y-124266960D02*
X153786840Y-124266960D01*
X153786840Y-123047760D01*
X153634440Y-123047760D01*
X153634440Y-124266960D01*
X153634440Y-124266960D01*
G37*
X153634440Y-124266960D02*
X153786840Y-124266960D01*
X153786840Y-123047760D01*
X153634440Y-123047760D01*
X153634440Y-124266960D01*
G36*
X154570582Y-123054594D02*
X154550660Y-123083646D01*
X154548840Y-123111260D01*
X154546831Y-123155867D01*
X154533114Y-123170445D01*
X154496159Y-123156632D01*
X154442342Y-123126370D01*
X154358665Y-123089452D01*
X154265240Y-123063221D01*
X154254743Y-123061373D01*
X154168844Y-123058265D01*
X154120191Y-123086150D01*
X154102646Y-123149590D01*
X154102479Y-123174566D01*
X154109212Y-123215976D01*
X154136071Y-123231495D01*
X154197446Y-123229955D01*
X154318781Y-123242706D01*
X154419662Y-123300473D01*
X154493830Y-123399495D01*
X154499479Y-123411394D01*
X154519147Y-123462686D01*
X154532828Y-123521941D01*
X154541543Y-123599214D01*
X154546313Y-123704563D01*
X154548157Y-123848044D01*
X154548283Y-123892310D01*
X154548840Y-124266960D01*
X154701240Y-124266960D01*
X154701240Y-123047760D01*
X154625040Y-123047760D01*
X154570582Y-123054594D01*
X154570582Y-123054594D01*
G37*
X154570582Y-123054594D02*
X154550660Y-123083646D01*
X154548840Y-123111260D01*
X154546831Y-123155867D01*
X154533114Y-123170445D01*
X154496159Y-123156632D01*
X154442342Y-123126370D01*
X154358665Y-123089452D01*
X154265240Y-123063221D01*
X154254743Y-123061373D01*
X154168844Y-123058265D01*
X154120191Y-123086150D01*
X154102646Y-123149590D01*
X154102479Y-123174566D01*
X154109212Y-123215976D01*
X154136071Y-123231495D01*
X154197446Y-123229955D01*
X154318781Y-123242706D01*
X154419662Y-123300473D01*
X154493830Y-123399495D01*
X154499479Y-123411394D01*
X154519147Y-123462686D01*
X154532828Y-123521941D01*
X154541543Y-123599214D01*
X154546313Y-123704563D01*
X154548157Y-123848044D01*
X154548283Y-123892310D01*
X154548840Y-124266960D01*
X154701240Y-124266960D01*
X154701240Y-123047760D01*
X154625040Y-123047760D01*
X154570582Y-123054594D01*
G36*
X155082240Y-124266960D02*
X155171140Y-124266960D01*
X155230869Y-124262712D01*
X155255367Y-124241166D01*
X155260040Y-124190760D01*
X155269669Y-124132760D01*
X155293709Y-124114765D01*
X155324891Y-124142147D01*
X155325175Y-124142604D01*
X155380029Y-124190083D01*
X155471271Y-124227386D01*
X155585150Y-124252524D01*
X155707920Y-124263504D01*
X155825829Y-124258336D01*
X155925130Y-124235030D01*
X155935115Y-124230931D01*
X156080606Y-124143209D01*
X156191058Y-124027198D01*
X156265898Y-123890938D01*
X156304552Y-123742469D01*
X156305958Y-123629333D01*
X156145846Y-123629333D01*
X156132982Y-123756407D01*
X156096060Y-123852363D01*
X156012129Y-123973238D01*
X155901027Y-124056259D01*
X155772087Y-124098691D01*
X155634645Y-124097801D01*
X155498032Y-124050852D01*
X155471218Y-124035441D01*
X155364661Y-123943095D01*
X155296185Y-123828025D01*
X155265748Y-123700285D01*
X155273310Y-123569930D01*
X155318830Y-123447015D01*
X155402267Y-123341595D01*
X155474262Y-123288700D01*
X155584187Y-123243997D01*
X155705944Y-123225121D01*
X155819523Y-123233792D01*
X155877660Y-123254063D01*
X155976392Y-123323641D01*
X156063215Y-123417678D01*
X156113021Y-123501711D01*
X156145846Y-123629333D01*
X156305958Y-123629333D01*
X156306449Y-123589831D01*
X156271014Y-123441064D01*
X156197677Y-123304208D01*
X156085863Y-123187303D01*
X156013014Y-123137469D01*
X155853609Y-123072138D01*
X155685224Y-123053622D01*
X155517734Y-123081565D01*
X155361012Y-123155609D01*
X155352425Y-123161335D01*
X155260040Y-123224029D01*
X155260040Y-122590560D01*
X155082240Y-122590560D01*
X155082240Y-124266960D01*
X155082240Y-124266960D01*
G37*
X155082240Y-124266960D02*
X155171140Y-124266960D01*
X155230869Y-124262712D01*
X155255367Y-124241166D01*
X155260040Y-124190760D01*
X155269669Y-124132760D01*
X155293709Y-124114765D01*
X155324891Y-124142147D01*
X155325175Y-124142604D01*
X155380029Y-124190083D01*
X155471271Y-124227386D01*
X155585150Y-124252524D01*
X155707920Y-124263504D01*
X155825829Y-124258336D01*
X155925130Y-124235030D01*
X155935115Y-124230931D01*
X156080606Y-124143209D01*
X156191058Y-124027198D01*
X156265898Y-123890938D01*
X156304552Y-123742469D01*
X156305958Y-123629333D01*
X156145846Y-123629333D01*
X156132982Y-123756407D01*
X156096060Y-123852363D01*
X156012129Y-123973238D01*
X155901027Y-124056259D01*
X155772087Y-124098691D01*
X155634645Y-124097801D01*
X155498032Y-124050852D01*
X155471218Y-124035441D01*
X155364661Y-123943095D01*
X155296185Y-123828025D01*
X155265748Y-123700285D01*
X155273310Y-123569930D01*
X155318830Y-123447015D01*
X155402267Y-123341595D01*
X155474262Y-123288700D01*
X155584187Y-123243997D01*
X155705944Y-123225121D01*
X155819523Y-123233792D01*
X155877660Y-123254063D01*
X155976392Y-123323641D01*
X156063215Y-123417678D01*
X156113021Y-123501711D01*
X156145846Y-123629333D01*
X156305958Y-123629333D01*
X156306449Y-123589831D01*
X156271014Y-123441064D01*
X156197677Y-123304208D01*
X156085863Y-123187303D01*
X156013014Y-123137469D01*
X155853609Y-123072138D01*
X155685224Y-123053622D01*
X155517734Y-123081565D01*
X155361012Y-123155609D01*
X155352425Y-123161335D01*
X155260040Y-123224029D01*
X155260040Y-122590560D01*
X155082240Y-122590560D01*
X155082240Y-124266960D01*
G36*
X156606240Y-124266960D02*
X156682440Y-124266960D01*
X156736413Y-124260666D01*
X156756306Y-124230978D01*
X156758640Y-124190760D01*
X156761578Y-124137209D01*
X156768654Y-124114564D01*
X156768761Y-124114560D01*
X156794707Y-124125471D01*
X156852539Y-124153971D01*
X156923740Y-124190760D01*
X157092619Y-124254199D01*
X157261716Y-124266848D01*
X157431372Y-124228716D01*
X157484340Y-124206488D01*
X157623812Y-124117371D01*
X157725865Y-124002674D01*
X157791657Y-123869873D01*
X157822345Y-123726441D01*
X157821423Y-123684948D01*
X157657753Y-123684948D01*
X157625185Y-123817213D01*
X157554186Y-123935480D01*
X157450665Y-124029026D01*
X157355540Y-124076405D01*
X157279042Y-124101912D01*
X157226324Y-124111043D01*
X157173476Y-124104924D01*
X157108679Y-124088042D01*
X156973678Y-124026634D01*
X156870733Y-123930201D01*
X156805614Y-123806192D01*
X156784040Y-123668810D01*
X156806210Y-123519439D01*
X156868639Y-123395657D01*
X156965213Y-123302320D01*
X157089815Y-123244286D01*
X157236329Y-123226411D01*
X157328707Y-123236315D01*
X157426834Y-123276493D01*
X157522107Y-123352056D01*
X157600226Y-123448894D01*
X157645981Y-123549410D01*
X157657753Y-123684948D01*
X157821423Y-123684948D01*
X157819086Y-123579852D01*
X157783038Y-123437580D01*
X157715358Y-123307100D01*
X157617203Y-123195886D01*
X157489732Y-123111412D01*
X157334101Y-123061152D01*
X157306302Y-123056735D01*
X157166426Y-123056359D01*
X157022560Y-123087314D01*
X156897141Y-123144108D01*
X156868285Y-123163969D01*
X156804351Y-123209424D01*
X156770965Y-123220075D01*
X156760256Y-123194353D01*
X156763076Y-123143010D01*
X156763975Y-123085875D01*
X156741280Y-123061259D01*
X156688790Y-123052500D01*
X156606240Y-123044541D01*
X156606240Y-124266960D01*
X156606240Y-124266960D01*
G37*
X156606240Y-124266960D02*
X156682440Y-124266960D01*
X156736413Y-124260666D01*
X156756306Y-124230978D01*
X156758640Y-124190760D01*
X156761578Y-124137209D01*
X156768654Y-124114564D01*
X156768761Y-124114560D01*
X156794707Y-124125471D01*
X156852539Y-124153971D01*
X156923740Y-124190760D01*
X157092619Y-124254199D01*
X157261716Y-124266848D01*
X157431372Y-124228716D01*
X157484340Y-124206488D01*
X157623812Y-124117371D01*
X157725865Y-124002674D01*
X157791657Y-123869873D01*
X157822345Y-123726441D01*
X157821423Y-123684948D01*
X157657753Y-123684948D01*
X157625185Y-123817213D01*
X157554186Y-123935480D01*
X157450665Y-124029026D01*
X157355540Y-124076405D01*
X157279042Y-124101912D01*
X157226324Y-124111043D01*
X157173476Y-124104924D01*
X157108679Y-124088042D01*
X156973678Y-124026634D01*
X156870733Y-123930201D01*
X156805614Y-123806192D01*
X156784040Y-123668810D01*
X156806210Y-123519439D01*
X156868639Y-123395657D01*
X156965213Y-123302320D01*
X157089815Y-123244286D01*
X157236329Y-123226411D01*
X157328707Y-123236315D01*
X157426834Y-123276493D01*
X157522107Y-123352056D01*
X157600226Y-123448894D01*
X157645981Y-123549410D01*
X157657753Y-123684948D01*
X157821423Y-123684948D01*
X157819086Y-123579852D01*
X157783038Y-123437580D01*
X157715358Y-123307100D01*
X157617203Y-123195886D01*
X157489732Y-123111412D01*
X157334101Y-123061152D01*
X157306302Y-123056735D01*
X157166426Y-123056359D01*
X157022560Y-123087314D01*
X156897141Y-123144108D01*
X156868285Y-123163969D01*
X156804351Y-123209424D01*
X156770965Y-123220075D01*
X156760256Y-123194353D01*
X156763076Y-123143010D01*
X156763975Y-123085875D01*
X156741280Y-123061259D01*
X156688790Y-123052500D01*
X156606240Y-123044541D01*
X156606240Y-124266960D01*
G36*
X159542641Y-123227095D02*
X159214047Y-123898660D01*
X158896163Y-123244610D01*
X158814155Y-123076895D01*
X158738974Y-122925086D01*
X158673537Y-122794916D01*
X158620759Y-122692118D01*
X158583554Y-122622424D01*
X158564840Y-122591568D01*
X158563529Y-122590560D01*
X158554756Y-122613997D01*
X158535176Y-122679663D01*
X158506638Y-122780587D01*
X158470990Y-122909801D01*
X158430082Y-123060333D01*
X158385763Y-123225216D01*
X158339882Y-123397478D01*
X158294287Y-123570151D01*
X158250830Y-123736264D01*
X158211357Y-123888848D01*
X158177719Y-124020933D01*
X158151764Y-124125550D01*
X158135342Y-124195728D01*
X158130240Y-124223721D01*
X158152523Y-124235719D01*
X158207012Y-124241473D01*
X158215423Y-124241560D01*
X158300606Y-124241560D01*
X158450373Y-123657386D01*
X158492871Y-123493636D01*
X158531760Y-123347603D01*
X158565155Y-123226062D01*
X158591171Y-123135783D01*
X158607923Y-123083541D01*
X158612982Y-123073186D01*
X158627083Y-123095053D01*
X158660261Y-123156693D01*
X158709478Y-123252147D01*
X158771698Y-123375455D01*
X158843883Y-123520656D01*
X158920368Y-123676410D01*
X159214913Y-124279660D01*
X159511033Y-123672433D01*
X159590026Y-123511938D01*
X159662088Y-123368365D01*
X159724206Y-123247490D01*
X159773366Y-123155089D01*
X159806554Y-123096937D01*
X159820752Y-123078804D01*
X159830685Y-123106253D01*
X159851192Y-123175910D01*
X159880338Y-123280746D01*
X159916192Y-123413731D01*
X159956819Y-123567837D01*
X159982956Y-123668575D01*
X160025282Y-123831499D01*
X160063680Y-123977062D01*
X160096283Y-124098361D01*
X160121219Y-124188490D01*
X160136622Y-124240548D01*
X160140551Y-124250668D01*
X160169125Y-124250839D01*
X160225671Y-124243059D01*
X160227569Y-124242724D01*
X160305598Y-124228860D01*
X160088416Y-123392195D01*
X159871234Y-122555531D01*
X159542641Y-123227095D01*
X159542641Y-123227095D01*
G37*
X159542641Y-123227095D02*
X159214047Y-123898660D01*
X158896163Y-123244610D01*
X158814155Y-123076895D01*
X158738974Y-122925086D01*
X158673537Y-122794916D01*
X158620759Y-122692118D01*
X158583554Y-122622424D01*
X158564840Y-122591568D01*
X158563529Y-122590560D01*
X158554756Y-122613997D01*
X158535176Y-122679663D01*
X158506638Y-122780587D01*
X158470990Y-122909801D01*
X158430082Y-123060333D01*
X158385763Y-123225216D01*
X158339882Y-123397478D01*
X158294287Y-123570151D01*
X158250830Y-123736264D01*
X158211357Y-123888848D01*
X158177719Y-124020933D01*
X158151764Y-124125550D01*
X158135342Y-124195728D01*
X158130240Y-124223721D01*
X158152523Y-124235719D01*
X158207012Y-124241473D01*
X158215423Y-124241560D01*
X158300606Y-124241560D01*
X158450373Y-123657386D01*
X158492871Y-123493636D01*
X158531760Y-123347603D01*
X158565155Y-123226062D01*
X158591171Y-123135783D01*
X158607923Y-123083541D01*
X158612982Y-123073186D01*
X158627083Y-123095053D01*
X158660261Y-123156693D01*
X158709478Y-123252147D01*
X158771698Y-123375455D01*
X158843883Y-123520656D01*
X158920368Y-123676410D01*
X159214913Y-124279660D01*
X159511033Y-123672433D01*
X159590026Y-123511938D01*
X159662088Y-123368365D01*
X159724206Y-123247490D01*
X159773366Y-123155089D01*
X159806554Y-123096937D01*
X159820752Y-123078804D01*
X159830685Y-123106253D01*
X159851192Y-123175910D01*
X159880338Y-123280746D01*
X159916192Y-123413731D01*
X159956819Y-123567837D01*
X159982956Y-123668575D01*
X160025282Y-123831499D01*
X160063680Y-123977062D01*
X160096283Y-124098361D01*
X160121219Y-124188490D01*
X160136622Y-124240548D01*
X160140551Y-124250668D01*
X160169125Y-124250839D01*
X160225671Y-124243059D01*
X160227569Y-124242724D01*
X160305598Y-124228860D01*
X160088416Y-123392195D01*
X159871234Y-122555531D01*
X159542641Y-123227095D01*
G36*
X161574636Y-123086422D02*
X161435327Y-123150038D01*
X161315983Y-123243952D01*
X161224283Y-123363773D01*
X161167906Y-123505112D01*
X161153398Y-123625610D01*
X161152840Y-123733560D01*
X161659341Y-123733560D01*
X161830983Y-123734766D01*
X161974918Y-123738200D01*
X162085236Y-123743581D01*
X162156024Y-123750630D01*
X162181079Y-123758214D01*
X162184076Y-123807372D01*
X162151845Y-123872242D01*
X162093219Y-123943245D01*
X162017027Y-124010804D01*
X161932102Y-124065341D01*
X161875589Y-124089540D01*
X161777269Y-124102995D01*
X161665031Y-124090867D01*
X161561520Y-124057395D01*
X161501824Y-124019574D01*
X161467665Y-123995522D01*
X161436769Y-124002170D01*
X161394657Y-124037874D01*
X161356490Y-124083854D01*
X161346106Y-124118342D01*
X161347236Y-124120862D01*
X161377120Y-124144304D01*
X161438292Y-124179078D01*
X161492503Y-124205822D01*
X161663565Y-124259462D01*
X161835651Y-124262921D01*
X162004465Y-124216237D01*
X162037564Y-124200834D01*
X162176576Y-124106413D01*
X162278145Y-123985724D01*
X162342287Y-123846815D01*
X162369015Y-123697734D01*
X162360789Y-123581160D01*
X162197664Y-123581160D01*
X161764152Y-123581160D01*
X161622154Y-123580410D01*
X161499675Y-123578334D01*
X161404946Y-123575187D01*
X161346200Y-123571227D01*
X161330640Y-123567644D01*
X161347935Y-123505231D01*
X161392004Y-123427820D01*
X161451124Y-123353555D01*
X161494878Y-123313396D01*
X161616584Y-123249362D01*
X161748620Y-123227592D01*
X161880542Y-123244874D01*
X162001908Y-123297998D01*
X162102274Y-123383754D01*
X162171199Y-123498930D01*
X162179920Y-123524010D01*
X162197664Y-123581160D01*
X162360789Y-123581160D01*
X162358345Y-123546529D01*
X162310291Y-123401247D01*
X162224869Y-123269936D01*
X162102092Y-123160644D01*
X162035572Y-123121259D01*
X161882437Y-123067642D01*
X161726233Y-123057493D01*
X161574636Y-123086422D01*
X161574636Y-123086422D01*
G37*
X161574636Y-123086422D02*
X161435327Y-123150038D01*
X161315983Y-123243952D01*
X161224283Y-123363773D01*
X161167906Y-123505112D01*
X161153398Y-123625610D01*
X161152840Y-123733560D01*
X161659341Y-123733560D01*
X161830983Y-123734766D01*
X161974918Y-123738200D01*
X162085236Y-123743581D01*
X162156024Y-123750630D01*
X162181079Y-123758214D01*
X162184076Y-123807372D01*
X162151845Y-123872242D01*
X162093219Y-123943245D01*
X162017027Y-124010804D01*
X161932102Y-124065341D01*
X161875589Y-124089540D01*
X161777269Y-124102995D01*
X161665031Y-124090867D01*
X161561520Y-124057395D01*
X161501824Y-124019574D01*
X161467665Y-123995522D01*
X161436769Y-124002170D01*
X161394657Y-124037874D01*
X161356490Y-124083854D01*
X161346106Y-124118342D01*
X161347236Y-124120862D01*
X161377120Y-124144304D01*
X161438292Y-124179078D01*
X161492503Y-124205822D01*
X161663565Y-124259462D01*
X161835651Y-124262921D01*
X162004465Y-124216237D01*
X162037564Y-124200834D01*
X162176576Y-124106413D01*
X162278145Y-123985724D01*
X162342287Y-123846815D01*
X162369015Y-123697734D01*
X162360789Y-123581160D01*
X162197664Y-123581160D01*
X161764152Y-123581160D01*
X161622154Y-123580410D01*
X161499675Y-123578334D01*
X161404946Y-123575187D01*
X161346200Y-123571227D01*
X161330640Y-123567644D01*
X161347935Y-123505231D01*
X161392004Y-123427820D01*
X161451124Y-123353555D01*
X161494878Y-123313396D01*
X161616584Y-123249362D01*
X161748620Y-123227592D01*
X161880542Y-123244874D01*
X162001908Y-123297998D01*
X162102274Y-123383754D01*
X162171199Y-123498930D01*
X162179920Y-123524010D01*
X162197664Y-123581160D01*
X162360789Y-123581160D01*
X162358345Y-123546529D01*
X162310291Y-123401247D01*
X162224869Y-123269936D01*
X162102092Y-123160644D01*
X162035572Y-123121259D01*
X161882437Y-123067642D01*
X161726233Y-123057493D01*
X161574636Y-123086422D01*
G36*
X162651440Y-124266960D02*
X162740340Y-124266960D01*
X162800069Y-124262712D01*
X162824567Y-124241166D01*
X162829240Y-124190760D01*
X162838869Y-124132760D01*
X162862909Y-124114765D01*
X162894091Y-124142147D01*
X162894375Y-124142604D01*
X162950299Y-124191337D01*
X163042651Y-124228841D01*
X163157935Y-124253292D01*
X163282657Y-124262866D01*
X163403323Y-124255737D01*
X163506438Y-124230082D01*
X163515040Y-124226524D01*
X163632327Y-124154247D01*
X163742053Y-124048059D01*
X163827595Y-123924060D01*
X163866248Y-123811281D01*
X163881738Y-123675503D01*
X163881299Y-123667890D01*
X163718240Y-123667890D01*
X163695795Y-123807022D01*
X163634105Y-123924316D01*
X163541642Y-124015367D01*
X163426879Y-124075771D01*
X163298285Y-124101121D01*
X163164334Y-124087013D01*
X163033495Y-124029041D01*
X163029168Y-124026223D01*
X162952792Y-123955321D01*
X162886623Y-123858074D01*
X162841939Y-123754098D01*
X162829240Y-123678530D01*
X162852401Y-123544781D01*
X162915620Y-123419429D01*
X163009498Y-123316902D01*
X163101475Y-123260531D01*
X163238876Y-123226690D01*
X163373694Y-123237609D01*
X163497329Y-123287607D01*
X163601177Y-123371001D01*
X163676636Y-123482111D01*
X163715104Y-123615255D01*
X163718240Y-123667890D01*
X163881299Y-123667890D01*
X163873797Y-123538070D01*
X163842154Y-123420327D01*
X163834171Y-123403360D01*
X163733500Y-123252947D01*
X163607361Y-123146344D01*
X163454381Y-123082711D01*
X163273740Y-123061214D01*
X163166327Y-123064468D01*
X163087381Y-123078739D01*
X163014913Y-123109149D01*
X162977118Y-123130310D01*
X162908602Y-123169136D01*
X162859114Y-123194497D01*
X162843768Y-123200160D01*
X162838159Y-123176397D01*
X162833557Y-123111653D01*
X162830428Y-123015743D01*
X162829241Y-122898484D01*
X162829240Y-122895360D01*
X162829240Y-122590560D01*
X162651440Y-122590560D01*
X162651440Y-124266960D01*
X162651440Y-124266960D01*
G37*
X162651440Y-124266960D02*
X162740340Y-124266960D01*
X162800069Y-124262712D01*
X162824567Y-124241166D01*
X162829240Y-124190760D01*
X162838869Y-124132760D01*
X162862909Y-124114765D01*
X162894091Y-124142147D01*
X162894375Y-124142604D01*
X162950299Y-124191337D01*
X163042651Y-124228841D01*
X163157935Y-124253292D01*
X163282657Y-124262866D01*
X163403323Y-124255737D01*
X163506438Y-124230082D01*
X163515040Y-124226524D01*
X163632327Y-124154247D01*
X163742053Y-124048059D01*
X163827595Y-123924060D01*
X163866248Y-123811281D01*
X163881738Y-123675503D01*
X163881299Y-123667890D01*
X163718240Y-123667890D01*
X163695795Y-123807022D01*
X163634105Y-123924316D01*
X163541642Y-124015367D01*
X163426879Y-124075771D01*
X163298285Y-124101121D01*
X163164334Y-124087013D01*
X163033495Y-124029041D01*
X163029168Y-124026223D01*
X162952792Y-123955321D01*
X162886623Y-123858074D01*
X162841939Y-123754098D01*
X162829240Y-123678530D01*
X162852401Y-123544781D01*
X162915620Y-123419429D01*
X163009498Y-123316902D01*
X163101475Y-123260531D01*
X163238876Y-123226690D01*
X163373694Y-123237609D01*
X163497329Y-123287607D01*
X163601177Y-123371001D01*
X163676636Y-123482111D01*
X163715104Y-123615255D01*
X163718240Y-123667890D01*
X163881299Y-123667890D01*
X163873797Y-123538070D01*
X163842154Y-123420327D01*
X163834171Y-123403360D01*
X163733500Y-123252947D01*
X163607361Y-123146344D01*
X163454381Y-123082711D01*
X163273740Y-123061214D01*
X163166327Y-123064468D01*
X163087381Y-123078739D01*
X163014913Y-123109149D01*
X162977118Y-123130310D01*
X162908602Y-123169136D01*
X162859114Y-123194497D01*
X162843768Y-123200160D01*
X162838159Y-123176397D01*
X162833557Y-123111653D01*
X162830428Y-123015743D01*
X162829241Y-122898484D01*
X162829240Y-122895360D01*
X162829240Y-122590560D01*
X162651440Y-122590560D01*
X162651440Y-124266960D01*
G36*
X165470840Y-124266960D02*
X165674040Y-124266960D01*
X165674040Y-117510560D01*
X165470840Y-117510560D01*
X165470840Y-124266960D01*
X165470840Y-124266960D01*
G37*
X165470840Y-124266960D02*
X165674040Y-124266960D01*
X165674040Y-117510560D01*
X165470840Y-117510560D01*
X165470840Y-124266960D01*
G04 #@! TD*
M02*
